<svg xmlns="http://www.w3.org/2000/svg">
<defs>
<font id="ParaTypeLtd: PT Sans: 2010" horiz-adv-x="1147"><font-face font-family="PT Sans" font-weight="400" font-stretch="normal" units-per-em="1000" panose-1="2 11 5 3 2 2 3 2 2 4" ascent="1018" descent="-276" x-height="4" bbox="-355 -245 1093 993" underline-thickness="50" underline-position="-75" unicode-range="U+0020-fb02" /><missing-glyph horiz-adv-x="750" d="M50 700 l650 0 l0 -700 l-650 0 l0 700 ZM570 620 l-195 -217 l-195 217 l-50 -50 l197 -220 l-197 -220 l50 -50 l195 217 l195 -217 l50 50 l-198 220 l198 220 l-50 50 ZM129 27 l8 0 l0 12 l4 0 q6 0 11 2.5 q5 2.5 5 9.5 q0 8 -5.5 10 q-5.5 2 -11.5 2 l-11 0 l0 -36 ZM141 57 q8 0 8 -5 q0 -5 -2.5 -5.5 q-2.5 -0.5 -6.5 -0.5 l-3 0 l0 11 l4 0 ZM189 63 l-31 0 l0 -6 l12 0 l0 -30 l7 0 l0 30 l12 0 l0 6 ZM222 37 q0 -4 -7 -4 q-7 0 -9 2 l-3 -7 q2 0 5 -1 q3 -1 8 -1 q14 0 14 12 q0 9 -9 10 q-9 1 -9 6 q0 3 6 3 q5 0 9 -2 l2 7 q-6 2 -11 2 q-14 0 -14 -11 q0 -5 3 -7 q3 -2 6 -3.5 q3 -1.5 6 -2.5 q3 -1 3 -3 ZM237 47 q4 2 9 2 q5 0 5 -4 l0 -2 q-1 0 -2 0.5 q-1 0.5 -3 0.5 q-12 0 -12 -10 q0 -8 8 -8 q6 0 9 5 l2 -4 l6 0 q-1 2 -1 7 l0 11 q0 10 -10 10 q-4 0 -7.5 -1 q-3.5 -1 -5.5 -2 l2 -5 ZM245 32 q-4 0 -4 4 q0 4 5 4 q2 0 3 -0.5 q1 -0.5 2 -0.5 l0 -3 q-2 -4 -6 -4 ZM292 27 l0 16 q0 12 -9 12 q-7 0 -10 -5 l-2 4 l-5 0 l0 -27 l7 0 l0 17 q2 4 6 4 q5 0 5 -6 l0 -15 l8 0 ZM297 28 q4 -2 10 -2 q11 0 11 9 q0 5 -2.5 6 q-2.5 1 -5.5 3 q-5 2 -5 3 q0 2 3 2 q4 0 8 -2 l2 6 q-4 2 -10 2 q-10 0 -10 -9 q0 -5 3 -6.5 q3 -1.5 5 -2.5 q5 0 5 -3 q0 -2 -3 -2 q-5 0 -9 2 l-2 -6 ZM338 42 q0 -21 20 -21 q20 0 20 21 q0 20 -20 20 q-8 0 -14 -5.5 q-6 -5.5 -6 -14.5 ZM344 42 q0 15 14 15 q14 0 14 -15 q0 -15 -14 -15 q-14 0 -14 15 ZM364 38 q-2 -1 -4 -1 q-4 0 -4 5 q0 4 4 4 l3 0 l2 4 q-4 2 -7 2 q-9 0 -9 -10 q0 -11 9 -11 q5 0 7 2 l-1 5 ZM399 27 l8 0 l0 12 l4 0 q6 0 11 2.5 q5 2.5 5 9.5 q0 8 -5.5 10 q-5.5 2 -11.5 2 l-11 0 l0 -36 ZM411 57 q8 0 8 -5 q0 -5 -2.5 -5.5 q-2.5 -0.5 -6.5 -0.5 l-3 0 l0 11 l4 0 ZM432 47 q4 2 9 2 q5 0 5 -4 l0 -2 q-1 0 -2 0.5 q-1 0.5 -3 0.5 q-13 0 -13 -10 q0 -8 9 -8 q6 0 9 5 l2 -4 
<glyph glyph-name="space" unicode=" " d="" /><glyph glyph-name="exclam" unicode="!" d="M127 700 l83 0 l0 -347 l-17 -176 l-49 0 l-17 176 l0 347 ZM110 46 q0 27 15.5 42.5 q15.5 15.5 41.5 15.5 q27 0 43 -15.5 q16 -15.5 16 -42.5 q0 -26 -16 -42 q-16 -16 -43 -16 q-26 0 -41.5 16 q-15.5 16 -15.5 42 Z" /><glyph glyph-name="numbersign" unicode="#" d="M280 225 l-105 0 l-39 -167 l-69 0 l39 167 l-78 0 l14 64 l79 0 l31 131 l-74 0 l14 64 l75 0 l38 158 l69 0 l-38 -158 l105 0 l38 158 l69 0 l-38 -158 l77 0 l-16 -64 l-76 0 l-31 -131 l73 0 l-16 -64 l-72 0 l-39 -167 l-69 0 l39 167 ZM190 289 l105 0 l31 131 l-105 0 l-31 -131 Z" /><glyph glyph-name="dollar" unicode="$" d="M242 -12 q-55 1 -97.5 9.5 q-42.5 8.5 -68.5 22.5 l27 73 q20 -12 54.5 -22 q34.5 -10 84.5 -11 l0 270 q-30 15 -59.5 32 q-29.5 17 -52.5 40.5 q-23 23.5 -37 55.5 q-14 32 -14 76 q0 72 40.5 118 q40.5 46 122.5 57 l0 91 l68 0 l0 -88 q51 -2 83.5 -9.5 q32.5 -7.5 58.5 -19.5 l-24 -70 q-20 10 -48 17.5 q-28 7.5 -70 9.5 l0 -247 q31 -16 62 -34.5 q31 -18.5 55.5 -42.5 q24.5 -24 39.5 -56 q15 -32 15 -75 q0 -78 -43.5 -128.5 q-43.5 -50.5 -128.5 -64.5 l0 -92 l-68 0 l0 88 ZM399 178 q0 24 -8.5 43 q-8.5 19 -22.5 34 q-14 15 -33 27 q-19 12 -41 23 l0 -243 q46 7 75.5 35.5 q29.5 28.5 29.5 80.5 ZM162 539 q0 -43 27.5 -70 q27.5 -27 68.5 -49 l0 219 q-53 -6 -74.5 -35 q-21.5 -29 -21.5 -65 Z" /><glyph glyph-name="ampersand" unicode="&amp;" d="M118 187 q0 40 14 76.5 q14 36.5 38 67.5 q24 31 54.5 57 q30.5 26 63.5 46 q-24 36 -41.5 72 q-17.5 36 -17.5 78 q0 24 8 47 q8 23 25.5 41 q17.5 18 45 29 q27.5 11 66.5 11 q41 0 69 -10.5 q28 -10.5 45 -27.5 q17 -17 24.5 -38 q7.5 -21 7.5 -43 q0 -42 -32.5 -86.5 q-32.5 -44.5 -102.5 -85.5 q16 -29 37.5 -59.5 q21.5 -30.5 45.5 -60.5 q24 -30 49 -59.5 q25 -29.5 50 -54.5 q11 12 22 30.5 q11 18.5 21.5 39 q10.5 20.5 19 42.5 q8.5 22 15.5 42 l62 -29 q-6 -17 -17 -40.5 q-11 -23.5 -24.5 -48 q-13.5 -24.5 -27.5 -47 q-14 -22.5 -26 -37.5 q21 -20 38 -34.5 q17 -14.5 31.5 -25 q14.5 -10.5 28 -19 q13.5 -8.5 27.5 -16.5 l-50 -56 q-53 26 -121 93 q-18 -18 -39.5 -34.5 q-21.5 -16.5 -48.5 -29.5 q-27 -13 -59.5 -21 q-32.5 -8 -71.5 -8 q-47 0 -88.5 13 q-41.5 13 -72.5 38.5 q-31 25.5 -49.5 62.5 q-18.5 37 -18.5 85 ZM519 131 q-29 29 -57 63 q-28 34 -53.5 68 q-25.5 34 -47 65.5 q-21.5 31.5 -36.5 55.5 q-27 -20 -50 -41 q-23 -21 -40.5 -44.5 q-17.5 -23.5 -27 -50.5 q-9.5 -27 -9.5 -58 q0 -31 13 -55.5 q13 -24.5 35.5 -41 q22.5 -16.5 51.5 -25.5 q29 -9 61 -9 q25 0 48.5 6.5 q23.5 6.5 44.5 16.5 q21 10 38.5 23 q17.5 13 28.5 27 ZM307 584 q0 -30 12.5 -59.5 q12.5 -29.5 32.5 -58.5 q53 34 73.5 62 q20.5 28 20.5 49 q0 32 -15.5 52 q-15.5 20 -53.5 20 q-36 0 -53 -18 q-17 -18 -17 -47 Z" /><glyph glyph-name="quotesingle" unicode="&#39;" d="M90 700 l78 0 l-31 -193 l-47 0 l0 193 Z" /><glyph glyph-name="parenleft" unicode="(" d="M227 -220 q-46 48 -78 105.5 q-32 57.5 -51.5 118 q-19.5 60.5 -28.5 122 q-9 61.5 -9 117.5 q0 55 9 116 q9 61 29 122.5 q20 61.5 52.5 120.5 q32.5 59 79.5 110 l48 -35 q-40 -51 -66.5 -105.5 q-26.5 -54.5 -42.5 -110.5 q-16 -56 -22.5 -111.5 q-6.5 -55.5 -6.5 -106.5 q0 -48 7.5 -104.5 q7.5 -56.5 24 -113 q16.5 -56.5 43 -110.5 q26.5 -54 63.5 -98 l-51 -37 Z" /><glyph glyph-name="parenright" unicode=")" d="M53 712 q46 -48 78 -105.5 q32 -57.5 51.5 -118 q19.5 -60.5 28.5 -122 q9 -61.5 9 -117.5 q0 -55 -9 -116 q-9 -61 -29 -122.5 q-20 -61.5 -52.5 -120.5 q-32.5 -59 -79.5 -110 l-48 35 q40 51 67 106 q27 55 42.5 111 q15.5 56 22 111 q6.5 55 6.5 106 q0 48 -8 104 q-8 56 -24.5 113 q-16.5 57 -42.5 111 q-26 54 -63 98 l51 37 Z" /><glyph glyph-name="asterisk" unicode="*" d="M130 715 l25 -42 l18 -56 l21 57 l24 40 l48 -26 l-26 -43 l-46 -48 l68 12 l48 0 l0 -56 l-46 0 l-64 12 l46 -48 l23 -39 l-47 -28 l-26 42 l-23 61 l-19 -58 l-25 -42 l-50 28 l27 42 l42 42 l-58 -12 l-50 0 l0 56 l50 0 l62 -12 l-45 44 l-26 46 l49 28 Z" /><glyph glyph-name="plus" unicode="+" d="M40 374 l176 0 l0 181 l72 0 l0 -181 l176 0 l0 -72 l-176 0 l0 -180 l-72 0 l0 180 l-176 0 l0 72 Z" /><glyph glyph-name="comma" unicode="," d="M49 43 q0 24 16 39 q16 15 41 15 q31 0 50.5 -22 q19.5 -22 19.5 -64 q0 -36 -10 -63 q-10 -27 -26 -46.5 q-16 -19.5 -35 -32 q-19 -12.5 -38 -18.5 l-25 39 q36 14 53.5 43.5 q17.5 29.5 17.5 59.5 q-9 -3 -17 -3 q-20 0 -33.5 13.5 q-13.5 13.5 -13.5 39.5 Z" /><glyph glyph-name="hyphen" unicode="-" d="M59 325 l242 0 l0 -74 l-242 0 l0 74 Z" /><glyph glyph-name="period" unicode="." d="M49 46 q0 27 15.5 42.5 q15.5 15.5 41.5 15.5 q27 0 43 -15.5 q16 -15.5 16 -42.5 q0 -26 -16 -42 q-16 -16 -43 -16 q-26 0 -41.5 16 q-15.5 16 -15.5 42 Z" /><glyph glyph-name="slash" unicode="/" d="M328 712 l63 -28 l-365 -824 l-63 28 l365 824 Z" /><glyph glyph-name="zero" unicode="0" d="M43 350 q0 180 58.5 271 q58.5 91 170.5 91 q121 0 175.5 -89.5 q54.5 -89.5 54.5 -272.5 q0 -180 -58.5 -271 q-58.5 -91 -171.5 -91 q-119 0 -174 95 q-55 95 -55 267 ZM126 350 q0 -65 8.5 -118.5 q8.5 -53.5 26.5 -92 q18 -38.5 45.5 -60 q27.5 -21.5 65.5 -21.5 q76 0 111.5 70.5 q35.5 70.5 35.5 221.5 q0 64 -7.5 118 q-7.5 54 -25 93 q-17.5 39 -45.5 60 q-28 21 -69 21 q-75 0 -110.5 -71 q-35.5 -71 -35.5 -221 Z" /><glyph glyph-name="one" unicode="1" d="M108 74 l140 0 l0 484 l10 59 l-40 -47 l-110 -79 l-38 51 l220 170 l36 0 l0 -638 l137 0 l0 -74 l-355 0 l0 74 Z" /><glyph glyph-name="two" unicode="2" d="M446 541 q0 -53 -19.5 -108.5 q-19.5 -55.5 -51 -111.5 q-31.5 -56 -70.5 -109.5 q-39 -53.5 -78 -101.5 l-49 -43 l0 -4 l64 11 l218 0 l0 -74 l-398 0 l0 29 q22 23 53 57 q31 34 64.5 75.5 q33.5 41.5 66 88 q32.5 46.5 59 94.5 q26.5 48 42.5 95 q16 47 16 89 q0 49 -28 81.5 q-28 32.5 -85 32.5 q-38 0 -74 -15.5 q-36 -15.5 -62 -35.5 l-33 57 q35 30 83 47 q48 17 103 17 q43 0 76 -12.5 q33 -12.5 56 -35.5 q23 -23 35 -54.5 q12 -31.5 12 -68.5 Z" /><glyph glyph-name="three" unicode="3" d="M234 58 q34 0 63 10 q29 10 50 29.5 q21 19.5 33 46.5 q12 27 12 59 q0 70 -41.5 104 q-41.5 34 -114.5 34 l-74 0 l0 29 l144 222 l46 44 l-65 -10 l-198 0 l0 74 l357 0 l0 -29 l-159 -239 l-35 -29 l0 -2 l34 7 q40 -1 74 -14.5 q34 -13.5 59 -39 q25 -25.5 39 -61 q14 -35.5 14 -80.5 q0 -54 -19 -96 q-19 -42 -51.5 -70.5 q-32.5 -28.5 -76.5 -43.5 q-44 -15 -93 -15 q-45 0 -81 7 q-36 7 -63 18 l21 71 q23 -11 54.5 -18.5 q31.5 -7.5 70.5 -7.5 Z" /><glyph glyph-name="four" unicode="4" d="M524 215 l-118 0 l0 -215 l-78 0 l0 215 l-308 0 l0 33 l332 463 l54 0 l0 -426 l118 0 l0 -70 ZM328 503 l10 82 l-3 0 l-35 -68 l-141 -191 l-48 -49 l70 8 l147 0 l0 218 Z" /><glyph glyph-name="five" unicode="5" d="M213 58 q69 0 114 40 q45 40 45 116 q0 73 -44.5 109 q-44.5 36 -122.5 36 l-84 -5 l0 346 l312 0 l0 -74 l-237 0 l0 -199 l43 2 q99 -1 156 -55 q57 -54 57 -155 q0 -56 -19 -99.5 q-19 -43.5 -51.5 -72.5 q-32.5 -29 -76.5 -44 q-44 -15 -94 -15 q-45 0 -76 5 q-31 5 -58 15 l21 68 q23 -9 49.5 -13.5 q26.5 -4.5 65.5 -4.5 Z" /><glyph glyph-name="six" unicode="6" d="M492 211 q0 -46 -14 -86.5 q-14 -40.5 -41 -71 q-27 -30.5 -67 -48 q-40 -17.5 -91 -17.5 q-50 0 -90 16 q-40 16 -69 47.5 q-29 31.5 -44.5 77.5 q-15.5 46 -15.5 106 q0 99 25.5 182.5 q25.5 83.5 70.5 145.5 q45 62 106.5 100.5 q61.5 38.5 133.5 48.5 l17 -64 q-56 -10 -102 -38 q-46 -28 -80.5 -69 q-34.5 -41 -56.5 -92 q-22 -51 -30 -105 q16 27 54 49.5 q38 22.5 93 22.5 q94 0 147.5 -54 q53.5 -54 53.5 -151 ZM409 203 q0 71 -33 107 q-33 36 -102 36 q-49 0 -84.5 -24 q-35.5 -24 -49.5 -54 q-2 -14 -2 -23 q0 -9 0 -20 q0 -31 8.5 -61 q8.5 -30 26.5 -53.5 q18 -23.5 44.5 -38 q26.5 -14.5 62.5 -14.5 q29 0 52.5 11 q23.5 11 40.5 30 q17 19 26.5 46 q9.5 27 9.5 58 Z" /><glyph glyph-name="seven" unicode="7" d="M110 0 l251 586 l44 49 l-59 -9 l-285 0 l0 74 l418 0 l0 -27 l-288 -673 l-81 0 Z" /><glyph glyph-name="eight" unicode="8" d="M68 167 q0 63 33 109.5 q33 46.5 103 84.5 q-25 15 -46.5 31.5 q-21.5 16.5 -38 37.5 q-16.5 21 -26 47 q-9.5 26 -9.5 60 q0 39 13.5 71 q13.5 32 39 55 q25.5 23 61 36 q35.5 13 80.5 13 q42 0 76 -12 q34 -12 57.5 -33 q23.5 -21 36.5 -50 q13 -29 13 -64 q0 -57 -26 -100.5 q-26 -43.5 -86 -85.5 q26 -15 49.5 -33 q23.5 -18 41 -40 q17.5 -22 27.5 -49.5 q10 -27.5 10 -62.5 q0 -43 -14 -78.5 q-14 -35.5 -41 -61 q-27 -25.5 -66 -40 q-39 -14.5 -89 -14.5 q-48 0 -85 14 q-37 14 -62.5 38 q-25.5 24 -38.5 56.5 q-13 32.5 -13 70.5 ZM399 177 q0 30 -12 52.5 q-12 22.5 -31.5 41 q-19.5 18.5 -44.5 33.5 q-25 15 -52 29 q-61 -34 -87 -76 q-26 -42 -26 -80 q0 -24 8 -46 q8 -22 24 -38 q16 -16 39.5 -25.5 q23.5 -9.5 54.5 -9.5 q25 0 48 7.5 q23 7.5 40.5 22 q17.5 14.5 28 37 q10.5 22.5 10.5 52.5 ZM162 539 q0 -28 11 -49.5 q11 -21.5 29.5 -38.5 q18.5 -17 42.5 -31.5 q24 -14.5 50 -27.5 q45 35 66.5 69 q21.5 34 21.5 75 q0 51 -31.5 78.5 q-31.5 27.5 -75.5 27.5 q-27 0 -48 -9 q-21 -9 -36 -23 q-15 -14 -22.5 -32.5 q-7.5 -18.5 -7.5 -38.5 Z" /><glyph glyph-name="nine" unicode="9" d="M52 488 q0 48 14 89 q14 41 41 71 q27 30 67.5 47 q40.5 17 94.5 17 q102 0 159 -66 q57 -66 57 -186 q0 -113 -25.5 -197.5 q-25.5 -84.5 -70.5 -142.5 q-45 -58 -106.5 -90.5 q-61.5 -32.5 -133.5 -41.5 l-18 64 q58 9 104.5 34 q46.5 25 80 63 q33.5 38 54.5 86.5 q21 48.5 29 105.5 q-27 -32 -59.5 -44.5 q-32.5 -12.5 -85.5 -12.5 q-41 0 -77.5 13.5 q-36.5 13.5 -64.5 39.5 q-28 26 -44 64 q-16 38 -16 87 ZM135 496 q0 -71 37.5 -106.5 q37.5 -35.5 98.5 -35.5 q49 0 84 16 q35 16 50 42 q2 13 2 23 q0 10 0 21 q0 36 -8.5 69.5 q-8.5 33.5 -25.5 60 q-17 26.5 -44.5 41.5 q-27.5 15 -64.5 15 q-61 0 -95 -38.5 q-34 -38.5 -34 -107.5 Z" /><glyph glyph-name="colon" unicode=":" d="M91 449 q0 27 15.5 42.5 q15.5 15.5 41.5 15.5 q27 0 43 -15.5 q16 -15.5 16 -42.5 q0 -26 -16 -42 q-16 -16 -43 -16 q-26 0 -41.5 16 q-15.5 16 -15.5 42 ZM91 46 q0 27 15.5 42.5 q15.5 15.5 41.5 15.5 q27 0 43 -15.5 q16 -15.5 16 -42.5 q0 -26 -16 -42 q-16 -16 -43 -16 q-26 0 -41.5 16 q-15.5 16 -15.5 42 Z" /><glyph glyph-name="semicolon" unicode=";" d="M89 43 q0 24 16 39 q16 15 41 15 q31 0 50.5 -22 q19.5 -22 19.5 -64 q0 -36 -10 -63 q-10 -27 -26 -46.5 q-16 -19.5 -35 -32 q-19 -12.5 -38 -18.5 l-25 39 q36 14 53.5 43.5 q17.5 29.5 17.5 59.5 q-9 -3 -17 -3 q-20 0 -33.5 13.5 q-13.5 13.5 -13.5 39.5 ZM96 449 q0 27 15.5 42.5 q15.5 15.5 41.5 15.5 q27 0 43 -15.5 q16 -15.5 16 -42.5 q0 -26 -16 -42 q-16 -16 -43 -16 q-26 0 -41.5 16 q-15.5 16 -15.5 42 Z" /><glyph glyph-name="less" unicode="&lt;" d="M42 305 l0 29 l378 231 l38 -62 l-237 -145 l-91 -38 l90 -32 l243 -144 l-38 -60 l-383 221 Z" /><glyph glyph-name="equal" unicode="=" d="M40 457 l424 0 l0 -72 l-424 0 l0 72 ZM40 291 l424 0 l0 -72 l-424 0 l0 72 Z" /><glyph glyph-name="greater" unicode="&gt;" d="M463 344 l0 -29 l-378 -231 l-38 61 l237 145 l91 38 l-90 32 l-243 144 l38 61 l383 -221 Z" /><glyph glyph-name="question" unicode="?" d="M150 177 q-1 5 -1 11 q0 6 0 11 q0 42 12.5 74 q12.5 32 31 58.5 q18.5 26.5 40 49.5 q21.5 23 40 46.5 q18.5 23.5 31 50 q12.5 26.5 12.5 60.5 q0 46 -26.5 75 q-26.5 29 -88.5 29 q-36 0 -73 -12.5 q-37 -12.5 -64 -29.5 l-27 62 q38 23 80 36.5 q42 13.5 104 13.5 q44 0 77.5 -12.5 q33.5 -12.5 56 -34.5 q22.5 -22 33.5 -52 q11 -30 11 -64 q0 -45 -13.5 -78.5 q-13.5 -33.5 -34 -61 q-20.5 -27.5 -44 -51.5 q-23.5 -24 -44 -50.5 q-20.5 -26.5 -34 -57.5 q-13.5 -31 -13.5 -73 l-66 0 ZM130 46 q0 27 15.5 42.5 q15.5 15.5 41.5 15.5 q27 0 43 -15.5 q16 -15.5 16 -42.5 q0 -26 -16 -42 q-16 -16 -43 -16 q-26 0 -41.5 16 q-15.5 16 -15.5 42 Z" /><glyph glyph-name="at" unicode="@" d="M707 491 l34 0 l-51 -287 q-5 -26 -7.5 -46.5 q-2.5 -20.5 -2.5 -36.5 q0 -25 8.5 -36.5 q8.5 -11.5 29.5 -11.5 q34 0 67.5 18 q33.5 18 59.5 51 q26 33 42.5 79.5 q16.5 46.5 16.5 104.5 q0 77 -26 136 q-26 59 -73 99.5 q-47 40.5 -112 61.5 q-65 21 -143 21 q-81 0 -152.5 -30 q-71.5 -30 -124 -83 q-52.5 -53 -83 -127 q-30.5 -74 -30.5 -161 q0 -89 27.5 -159 q27.5 -70 78.5 -118 q51 -48 122 -73 q71 -25 158 -25 q29 0 66 6.5 q37 6.5 67 21.5 l20 -64 q-45 -19 -83 -25.5 q-38 -6.5 -82 -6.5 q-93 0 -174.5 28 q-81.5 28 -142 83 q-60.5 55 -95.5 136.5 q-35 81.5 -35 188.5 q0 109 37.5 197 q37.5 88 101.5 150 q64 62 149 95.5 q85 33.5 180 33.5 q90 0 167 -26.5 q77 -26.5 133.5 -76 q56.5 -49.5 89 -121 q32.5 -71.5 32.5 -162.5 q0 -64 -22 -122.5 q-22 -58.5 -59.5 -102.5 q-37.5 -44 -87.5 -70.5 q-50 -26.5 -106 -26.5 q-42 0 -67 18 q-25 18 -25 67 q0 9 1 19.5 q1 10.5 3 22.5 l-4 0 q-14 -23 -33 -45.5 q-19 -22.5 -42.5 -40.5 q-23.5 -18 -50 -29.5 q-26.5 -11.5 -55.5 -11.5 q-24 0 -46 10.5 q-22 10.5 -38 30.5 q-16 20 -25.5 47.5 q-9.5 27.5 -9.5 62.5 q0 64 21 126 q21 62 56.5 110 q35.5 48 83 77.5 q47.5 29.5 100.5 29.5 q37 0 59 -11 q22 -11 43 -27 l34 31 ZM650 393 q-17 20 -34 27.5 q-17 7.5 -43 7.5 q-39 0 -73 -23.5 q-34 -23.5 -58.5 -61 q-24.5 -37.5 -39 -84 q-14.5 -46.5 -14.5 -91.5 q0 -39 16 -66.5 q16 -27.5 58 -27.5 q20 0 41.5 13 q21.5 13 42.5 35.5 q21 22.5 40 50.5 q19 28 34 57 l30 163 Z" /><glyph glyph-name="A" unicode="a" d="M418 194 l-258 0 l-70 -194 l-82 0 l265 711 l38 0 l266 -711 l-87 0 l-72 194 ZM187 266 l206 0 l-78 213 l-25 106 l-1 0 l-25 -108 l-77 -211 Z" /><glyph glyph-name="B" unicode="b" d="M507 540 q0 -25 -8 -51 q-8 -26 -24 -48.5 q-16 -22.5 -41 -39.5 q-25 -17 -59 -26 l0 -4 q30 -5 57.5 -17 q27.5 -12 48.5 -33 q21 -21 34 -51 q13 -30 13 -71 q0 -54 -22.5 -93.5 q-22.5 -39.5 -59 -64.5 q-36.5 -25 -83.5 -37 q-47 -12 -96 -12 q-17 0 -40 0 q-23 0 -48 1.5 q-25 1.5 -50 4 q-25 2.5 -44 7.5 l0 689 q37 6 86 10 q49 4 107 4 q39 0 79.5 -6.5 q40.5 -6.5 73.5 -25 q33 -18.5 54.5 -51.5 q21.5 -33 21.5 -85 ZM275 64 q32 0 62 7.5 q30 7.5 53 24 q23 16.5 36.5 40.5 q13.5 24 13.5 57 q0 41 -16.5 66 q-16.5 25 -43 39 q-26.5 14 -59.5 19 q-33 5 -66 5 l-87 0 l0 -251 q7 -2 20 -3 q13 -1 28 -2 q15 -1 31 -1.5 q16 -0.5 28 -0.5 ZM220 392 q17 0 41 1 q24 1 40 3 q24 8 45 19.5 q21 11.5 37.5 27 q16.5 15.5 26 36 q9.5 20.5 9.5 44.5 q0 33 -12.5 54.5 q-12.5 21.5 -33.5 34.5 q-21 13 -48 18.5 q-27 5.5 -55 5.5 q-33 0 -60.5 -1.5 q-27.5 -1.5 -41.5 -4.5 l0 -238 l52 0 Z" /><glyph glyph-name="C" unicode="c" d="M533 29 q-30 -23 -76 -32 q-46 -9 -98 -9 q-63 0 -118 21.5 q-55 21.5 -96 65.5 q-41 44 -65 112.5 q-24 68.5 -24 162.5 q0 98 26.5 166.5 q26.5 68.5 70 112 q43.5 43.5 97.5 63.5 q54 20 110 20 q60 0 98 -6.5 q38 -6.5 65 -17.5 l-20 -73 q-48 23 -137 23 q-41 0 -81 -15 q-40 -15 -71.5 -49 q-31.5 -34 -50.5 -89 q-19 -55 -19 -135 q0 -72 18 -126 q18 -54 49.5 -90 q31.5 -36 74 -54 q42.5 -18 92.5 -18 q45 0 78.5 9 q33.5 9 56.5 23 l20 -65 Z" /><glyph glyph-name="D" unicode="d" d="M85 700 q19 3 42.5 4.5 q23.5 1.5 49 2 q25.5 0.5 50 1 q24.5 0.5 45.5 0.5 q84 0 145.5 -26 q61.5 -26 101.5 -72.5 q40 -46.5 59.5 -111.5 q19.5 -65 19.5 -143 q0 -71 -18.5 -136.5 q-18.5 -65.5 -58.5 -116 q-40 -50.5 -104 -81 q-64 -30.5 -155 -30.5 q-16 0 -41.5 0.5 q-25.5 0.5 -52.5 2 q-27 1.5 -50 2.5 q-23 1 -33 3 l0 701 ZM274 634 q-13 0 -28.5 0 q-15.5 0 -30.5 -1 q-15 -1 -27.5 -2 q-12.5 -1 -19.5 -2 l0 -560 q5 -1 19 -1.5 q14 -0.5 29 -1 q15 -0.5 29 -1 q14 -0.5 19 -0.5 q70 0 117.5 24 q47.5 24 76 64.5 q28.5 40.5 40.5 93 q12 52.5 12 108.5 q0 49 -11 98.5 q-11 49.5 -38 89.5 q-27 40 -72.5 65.5 q-45.5 25.5 -114.5 25.5 Z" /><glyph glyph-name="E" unicode="e" d="M85 700 l381 0 l0 -74 l-298 0 l0 -229 l273 0 l0 -74 l-273 0 l0 -249 l303 0 l0 -74 l-386 0 l0 700 Z" /><glyph glyph-name="F" unicode="f" d="M85 700 l381 0 l0 -74 l-298 0 l0 -239 l278 0 l0 -74 l-278 0 l0 -313 l-83 0 l0 700 Z" /><glyph glyph-name="G" unicode="g" d="M321 349 l235 0 l0 -308 q-16 -12 -38.5 -22 q-22.5 -10 -48 -17 q-25.5 -7 -53 -10.5 q-27.5 -3.5 -53.5 -3.5 q-67 0 -123 21.5 q-56 21.5 -97 66 q-41 44.5 -64 113 q-23 68.5 -23 161.5 q0 97 28 166 q28 69 73 112.5 q45 43.5 101 63.5 q56 20 112 20 q60 0 99 -6.5 q39 -6.5 66 -17.5 l-21 -73 q-48 23 -137 23 q-42 0 -83.5 -14.5 q-41.5 -14.5 -74.5 -48.5 q-33 -34 -54 -89 q-21 -55 -21 -136 q0 -74 17 -128 q17 -54 47.5 -89.5 q30.5 -35.5 73.5 -53 q43 -17.5 94 -17.5 q64 0 109 25 l0 195 l-164 20 l0 47 Z" /><glyph glyph-name="H" unicode="h" d="M504 321 l-336 0 l0 -321 l-83 0 l0 700 l83 0 l0 -305 l336 0 l0 305 l83 0 l0 -700 l-83 0 l0 321 Z" /><glyph glyph-name="I" unicode="i" d="M104 700 l83 0 l0 -700 l-83 0 l0 700 Z" /><glyph glyph-name="J" unicode="j" d="M112 700 l83 0 l0 -546 q0 -80 -35.5 -122 q-35.5 -42 -107.5 -42 q-8 0 -20 1 q-12 1 -24 3 q-12 2 -23.5 5 q-11.5 3 -18.5 7 l16 71 q28 -13 61 -13 q42 0 55.5 29.5 q13.5 29.5 13.5 80.5 l0 526 Z" /><glyph glyph-name="K" unicode="k" d="M215 324 l-47 0 l0 -324 l-83 0 l0 700 l83 0 l0 -326 l45 14 l235 312 l96 0 l-234 -301 l-42 -33 l51 -40 l256 -326 l-105 0 l-255 324 Z" /><glyph glyph-name="L" unicode="l" d="M499 0 l-414 0 l0 700 l83 0 l0 -626 l331 0 l0 -74 Z" /><glyph glyph-name="M" unicode="m" d="M623 470 l10 105 l-5 0 l-38 -96 l-182 -316 l-25 0 l-193 317 l-36 95 l-5 0 l14 -104 l0 -471 l-78 0 l0 700 l62 0 l219 -358 l33 -78 l2 0 l31 80 l209 356 l65 0 l0 -700 l-83 0 l0 470 Z" /><glyph glyph-name="N" unicode="n" d="M211 458 l-54 101 l-4 0 l10 -101 l0 -458 l-78 0 l0 711 l44 0 l335 -467 l52 -96 l5 0 l-11 96 l0 456 l78 0 l0 -711 l-44 0 l-333 469 Z" /><glyph glyph-name="O" unicode="o" d="M56 350 q0 175 74 268.5 q74 93.5 211 93.5 q74 0 128 -26 q54 -26 89.5 -73.5 q35.5 -47.5 52.5 -114 q17 -66.5 17 -148.5 q0 -175 -74.5 -268.5 q-74.5 -93.5 -212.5 -93.5 q-73 0 -126.5 26 q-53.5 26 -89 73.5 q-35.5 47.5 -52.5 114 q-17 66.5 -17 148.5 ZM144 350 q0 -58 11.5 -110 q11.5 -52 35.5 -91.5 q24 -39.5 61.5 -63 q37.5 -23.5 88.5 -23.5 q93 0 146 70.5 q53 70.5 53 217.5 q0 57 -11.5 109.5 q-11.5 52.5 -36 92 q-24.5 39.5 -62 63 q-37.5 23.5 -89.5 23.5 q-92 0 -144.5 -70.5 q-52.5 -70.5 -52.5 -217.5 Z" /><glyph glyph-name="P" unicode="p" d="M85 693 q38 9 82 12 q44 3 87 3 q46 0 93.5 -9 q47.5 -9 86.5 -33 q39 -24 63.5 -66 q24.5 -42 24.5 -107 q0 -64 -23 -108 q-23 -44 -61 -71.5 q-38 -27.5 -87 -39.5 q-49 -12 -101 -12 q-5 0 -16.5 0 q-11.5 0 -24 0.5 q-12.5 0.5 -24.5 1.5 q-12 1 -17 2 l0 -266 l-83 0 l0 693 ZM256 636 q-26 0 -50 -1 q-24 -1 -38 -5 l0 -290 q5 -2 16 -2.5 q11 -0.5 23 -1 q12 -0.5 23 -0.5 q11 0 16 0 q34 0 67.5 6.5 q33.5 6.5 60.5 23.5 q27 17 43.5 48 q16.5 31 16.5 79 q0 41 -15.5 68.5 q-15.5 27.5 -41 44 q-25.5 16.5 -57.5 23.5 q-32 7 -64 7 Z" /><glyph glyph-name="Q" unicode="q" d="M704 -171 q-24 -7 -47 -9.5 q-23 -2.5 -46 -2.5 q-50 0 -97.5 10.5 q-47.5 10.5 -92 23 q-44.5 12.5 -85.5 23 q-41 10.5 -78 10.5 q-24 0 -46 -6 l0 73 q14 3 27 5 q13 2 27 2 q42 0 83.5 -10.5 q41.5 -10.5 84.5 -23 q43 -12.5 88 -23 q45 -10.5 95 -10.5 q44 0 87 10 l0 -72 ZM56 350 q0 175 74 268.5 q74 93.5 211 93.5 q74 0 128 -26 q54 -26 89.5 -73.5 q35.5 -47.5 52.5 -114 q17 -66.5 17 -148.5 q0 -175 -74.5 -268.5 q-74.5 -93.5 -212.5 -93.5 q-73 0 -126.5 26 q-53.5 26 -89 73.5 q-35.5 47.5 -52.5 114 q-17 66.5 -17 148.5 ZM144 350 q0 -58 11.5 -110 q11.5 -52 35.5 -91.5 q24 -39.5 61.5 -63 q37.5 -23.5 88.5 -23.5 q93 0 146 70.5 q53 70.5 53 217.5 q0 57 -11.5 109.5 q-11.5 52.5 -36 92 q-24.5 39.5 -62 63 q-37.5 23.5 -89.5 23.5 q-92 0 -144.5 -70.5 q-52.5 -70.5 -52.5 -217.5 Z" /><glyph glyph-name="R" unicode="r" d="M85 693 q38 7 87.5 11 q49.5 4 90.5 4 q46 0 87.5 -10 q41.5 -10 73 -33 q31.5 -23 50.5 -60 q19 -37 19 -90 q0 -82 -45 -133 q-45 -51 -114 -68 l48 -37 l174 -277 l-97 0 l-193 302 l-98 15 l0 -317 l-83 0 l0 693 ZM265 636 q-13 0 -27 0 q-14 0 -27 -1 q-13 -1 -24.5 -2 q-11.5 -1 -18.5 -3 l0 -258 l78 0 q69 0 114 34 q45 34 45 106 q0 54 -37 89 q-37 35 -103 35 Z" /><glyph glyph-name="S" unicode="s" d="M401 178 q0 42 -25 68.5 q-25 26.5 -62.5 47 q-37.5 20.5 -81.5 38.5 q-44 18 -81.5 43.5 q-37.5 25.5 -62.5 63 q-25 37.5 -25 95.5 q0 82 57 130 q57 48 162 48 q61 0 111 -9 q50 -9 78 -23 l-25 -73 q-23 11 -67.5 21 q-44.5 10 -100.5 10 q-66 0 -99 -29.5 q-33 -29.5 -33 -69.5 q0 -39 25 -65 q25 -26 62.5 -46.5 q37.5 -20.5 81.5 -40.5 q44 -20 81.5 -46.5 q37.5 -26.5 62.5 -63.5 q25 -37 25 -92 q0 -45 -16 -81 q-16 -36 -47 -62 q-31 -26 -75 -40 q-44 -14 -100 -14 q-75 0 -124 11.5 q-49 11.5 -76 25.5 l28 75 q23 -13 68 -25.5 q45 -12.5 101 -12.5 q33 0 62 6.5 q29 6.5 50 21 q21 14.5 33.5 36.5 q12.5 22 12.5 52 Z" /><glyph glyph-name="T" unicode="t" d="M537 626 l-218 0 l0 -626 l-83 0 l0 626 l-218 0 l0 74 l519 0 l0 -74 Z" /><glyph glyph-name="U" unicode="u" d="M487 700 l80 0 l0 -467 q0 -63 -16.5 -109 q-16.5 -46 -47 -75.5 q-30.5 -29.5 -73.5 -43.5 q-43 -14 -95 -14 q-124 0 -187 56 q-63 56 -63 170 l0 483 l83 0 l0 -444 q0 -53 10.5 -89.5 q10.5 -36.5 31.5 -59 q21 -22.5 52.5 -32.5 q31.5 -10 73.5 -10 q81 0 116 44.5 q35 44.5 35 146.5 l0 444 Z" /><glyph glyph-name="V" unicode="v" d="M267 219 l24 -106 l1 0 l26 108 l169 479 l83 0 l-265 -711 l-37 0 l-270 711 l91 0 l178 -481 Z" /><glyph glyph-name="W" unicode="w" d="M222 231 l16 -116 l1 0 l17 118 l144 467 l40 0 l145 -469 l17 -116 l1 0 l18 118 l118 467 l81 0 l-195 -711 l-46 0 l-142 469 l-18 106 l-5 0 l-18 -107 l-142 -468 l-46 0 l-200 711 l88 0 l126 -469 Z" /><glyph glyph-name="X" unicode="x" d="M259 356 l-213 344 l100 0 l142 -237 l25 -57 l24 57 l150 237 l92 0 l-220 -337 l230 -363 l-97 0 l-158 251 l-27 60 l-26 -60 l-162 -251 l-93 0 l233 356 Z" /><glyph glyph-name="Y" unicode="y" d="M239 278 l-231 422 l97 0 l164 -306 l17 -61 l1 0 l18 63 l157 304 l89 0 l-229 -421 l0 -279 l-83 0 l0 278 Z" /><glyph glyph-name="Z" unicode="z" d="M38 75 l353 511 l42 40 l-395 0 l0 74 l470 0 l0 -75 l-355 -514 l-42 -37 l397 0 l0 -74 l-470 0 l0 75 Z" /><glyph glyph-name="bracketleft" unicode="[" d="M85 700 l181 0 l0 -70 l-103 0 l0 -790 l103 0 l0 -70 l-181 0 l0 930 Z" /><glyph glyph-name="backslash" unicode="\" d="M399 -111 l-66 -29 l-370 824 l67 28 l369 -823 Z" /><glyph glyph-name="bracketright" unicode="]" d="M220 -230 l-182 0 l0 70 l104 0 l0 790 l-104 0 l0 70 l182 0 l0 -930 Z" /><glyph glyph-name="asciicircum" unicode="^" d="M234 711 l29 0 l169 -276 l-82 0 l-80 135 l-23 69 l-31 -70 l-92 -134 l-76 0 l186 276 Z" /><glyph glyph-name="underscore" unicode="_" d="M0 -135 l408 0 l0 -70 l-408 0 l0 70 Z" /><glyph glyph-name="grave" unicode="`" d="M220 571 l-45 0 l-115 128 l0 21 l95 0 l65 -149 Z" /><glyph glyph-name="a" unicode="a" d="M69 463 q38 23 88.5 34 q50.5 11 105.5 11 q52 0 83.5 -14 q31.5 -14 48 -36.5 q16.5 -22.5 22 -49.5 q5.5 -27 5.5 -54 q0 -60 -3 -117 q-3 -57 -3 -108 q0 -37 3 -70 q3 -33 11 -61 l-59 0 l-21 70 l-5 0 q-9 -14 -22.5 -27.5 q-13.5 -13.5 -32.5 -24 q-19 -10.5 -44 -17.5 q-25 -7 -57 -7 q-32 0 -59.5 10 q-27.5 10 -47.5 28.5 q-20 18.5 -31.5 44.5 q-11.5 26 -11.5 59 q0 44 18 73.5 q18 29.5 50.5 47 q32.5 17.5 78 25 q45.5 7.5 100.5 7.5 q14 0 27.5 0 q13.5 0 27.5 -2 q3 30 3 54 q0 55 -22 77 q-22 22 -80 22 q-17 0 -36.5 -2.5 q-19.5 -2.5 -40 -7 q-20.5 -4.5 -39 -11 q-18.5 -6.5 -32.5 -14.5 l-25 60 ZM211 62 q28 0 50 7.5 q22 7.5 38 19 q16 11.5 26.5 25.5 q10.5 14 15.5 27 l0 83 q-14 1 -28.5 1.5 q-14.5 0.5 -28.5 0.5 q-31 0 -60.5 -3.5 q-29.5 -3.5 -52 -13 q-22.5 -9.5 -36 -26 q-13.5 -16.5 -13.5 -41.5 q0 -35 25 -57.5 q25 -22.5 64 -22.5 Z" /><glyph glyph-name="b" unicode="b" d="M77 700 l80 0 l0 -249 l4 0 q23 29 58.5 45 q35.5 16 77.5 16 q97 0 145.5 -62 q48.5 -62 48.5 -192 q0 -131 -64 -199 q-64 -68 -180 -68 q-56 0 -101.5 12 q-45.5 12 -68.5 26 l0 671 ZM283 442 q-50 0 -81 -28 q-31 -28 -45 -79 l0 -252 q19 -11 46 -16.5 q27 -5.5 56 -5.5 q68 0 108.5 48 q40.5 48 40.5 150 q0 39 -7 73 q-7 34 -22 58 q-15 24 -38.5 38 q-23.5 14 -57.5 14 Z" /><glyph glyph-name="c" unicode="c" d="M418 33 q-30 -22 -71 -33.5 q-41 -11.5 -86 -11.5 q-58 0 -98 18.5 q-40 18.5 -65.5 53 q-25.5 34.5 -37 83 q-11.5 48.5 -11.5 107.5 q0 127 56 194.5 q56 67.5 161 67.5 q48 0 81.5 -7.5 q33.5 -7.5 60.5 -21.5 l-23 -69 q-23 13 -51 20.5 q-28 7.5 -60 7.5 q-142 0 -142 -192 q0 -38 7.5 -72.5 q7.5 -34.5 25 -61 q17.5 -26.5 46 -42.5 q28.5 -16 70.5 -16 q36 0 64.5 11 q28.5 11 46.5 25 l26 -61 Z" /><glyph glyph-name="d" unicode="d" d="M461 172 q0 -51 1 -92.5 q1 -41.5 9 -81.5 l-54 0 l-20 71 l-4 0 q-20 -35 -58 -58 q-38 -23 -89 -23 q-100 0 -148.5 63 q-48.5 63 -48.5 197 q0 128 60.5 194.5 q60.5 66.5 166.5 66.5 q37 0 58.5 -4 q21.5 -4 46.5 -13 l0 208 l80 0 l0 -528 ZM259 58 q51 0 81 26.5 q30 26.5 41 80.5 l0 248 q-18 14 -41 20 q-23 6 -61 6 q-69 0 -108 -45.5 q-39 -45.5 -39 -145.5 q0 -41 6.5 -76 q6.5 -35 21.5 -60 q15 -25 39.5 -39.5 q24.5 -14.5 59.5 -14.5 Z" /><glyph glyph-name="e" unicode="e" d="M442 40 q-30 -24 -75.5 -38 q-45.5 -14 -96.5 -14 q-57 0 -99 18.5 q-42 18.5 -69 53 q-27 34.5 -40 82.5 q-13 48 -13 108 q0 128 57 195 q57 67 163 67 q34 0 68 -7.5 q34 -7.5 61 -28.5 q27 -21 44 -59.5 q17 -38.5 17 -101.5 q0 -33 -6 -73 l-321 0 q0 -44 9 -78 q9 -34 28 -57.5 q19 -23.5 49.5 -36 q30.5 -12.5 74.5 -12.5 q34 0 68 12 q34 12 51 28 l30 -58 ZM270 442 q-59 0 -94.5 -31 q-35.5 -31 -42.5 -106 l248 0 q0 76 -29 106.5 q-29 30.5 -82 30.5 Z" /><glyph glyph-name="f" unicode="f" d="M22 500 l78 0 l0 28 q0 46 7.5 80 q7.5 34 24.5 55.5 q17 21.5 44 32 q27 10.5 67 10.5 q32 0 56.5 -4 q24.5 -4 51.5 -15 l-18 -67 q-23 10 -43.5 13 q-20.5 3 -38.5 3 q-26 0 -40.5 -8 q-14.5 -8 -21 -23.5 q-6.5 -15.5 -8 -38 q-1.5 -22.5 -1.5 -52.5 l0 -14 l133 0 l0 -70 l-133 0 l0 -430 l-80 0 l0 430 l-78 0 l0 70 Z" /><glyph glyph-name="g" unicode="g" d="M460 -23 q0 -97 -51.5 -143 q-51.5 -46 -152.5 -46 q-60 0 -96.5 7.5 q-36.5 7.5 -62.5 19.5 l21 68 q23 -9 51 -17 q28 -8 73 -8 q42 0 68.5 7.5 q26.5 7.5 42.5 25 q16 17.5 22 45 q6 27.5 6 65.5 l0 48 l-4 0 q-20 -29 -51 -44.5 q-31 -15.5 -81 -15.5 q-101 0 -148.5 63 q-47.5 63 -47.5 196 q0 128 61 194.5 q61 66.5 180 66.5 q57 0 97.5 -9 q40.5 -9 72.5 -21 l0 -502 ZM259 59 q51 0 80 25.5 q29 25.5 41 79.5 l0 256 q-40 19 -102 19 q-68 0 -107 -46 q-39 -46 -39 -144 q0 -42 7 -77 q7 -35 22 -60 q15 -25 39 -39 q24 -14 59 -14 Z" /><glyph glyph-name="h" unicode="h" d="M398 0 l0 285 q0 39 -4.5 68.5 q-4.5 29.5 -16.5 49 q-12 19.5 -32.5 29.5 q-20.5 10 -53.5 10 q-47 0 -85 -30.5 q-38 -30.5 -49 -78.5 l0 -333 l-80 0 l0 700 l80 0 l0 -256 l4 0 q26 31 62.5 49.5 q36.5 18.5 90.5 18.5 q42 0 73 -9.5 q31 -9.5 51.5 -33.5 q20.5 -24 30 -64.5 q9.5 -40.5 9.5 -102.5 l0 -302 l-80 0 Z" /><glyph glyph-name="i" unicode="i" d="M94 500 l80 0 l0 -500 l-80 0 l0 500 ZM77 652 q0 23 15.5 39.5 q15.5 16.5 39.5 16.5 q24 0 41 -16.5 q17 -16.5 17 -39.5 q0 -23 -17 -38 q-17 -15 -41 -15 q-24 0 -39.5 15 q-15.5 15 -15.5 38 Z" /><glyph glyph-name="j" unicode="j" d="M93 500 l80 0 l0 -527 q0 -93 -32 -139 q-32 -46 -102 -46 q-8 0 -15 0.5 q-7 0.5 -15 1.5 l0 68 q28 0 44.5 8.5 q16.5 8.5 25.5 26.5 q9 18 11.5 45.5 q2.5 27.5 2.5 64.5 l0 497 ZM76 652 q0 23 15.5 39.5 q15.5 16.5 39.5 16.5 q24 0 41 -16.5 q17 -16.5 17 -39.5 q0 -23 -17 -38 q-17 -15 -41 -15 q-24 0 -39.5 15 q-15.5 15 -15.5 38 Z" /><glyph glyph-name="k" unicode="k" d="M203 225 l-46 0 l0 -225 l-80 0 l0 700 l80 0 l0 -426 l41 14 l155 212 l93 0 l-153 -201 l-41 -33 l50 -40 l167 -226 l-99 0 l-167 225 Z" /><glyph glyph-name="l" unicode="l" d="M166 123 q0 -35 12 -50 q12 -15 34 -15 q13 0 28 2 q15 2 34 9 l9 -63 q-16 -8 -44.5 -13 q-28.5 -5 -49.5 -5 q-45 0 -74 25.5 q-29 25.5 -29 86.5 l0 600 l80 0 l0 -577 Z" /><glyph glyph-name="m" unicode="m" d="M370 0 l0 283 q0 40 -3.5 69.5 q-3.5 29.5 -13.5 49.5 q-10 20 -28.5 30 q-18.5 10 -48.5 10 q-46 0 -76.5 -28 q-30.5 -28 -42.5 -70 l0 -344 l-80 0 l0 500 l56 0 l15 -61 l4 0 q27 32 62.5 52.5 q35.5 20.5 92.5 20.5 q48 0 78.5 -18.5 q30.5 -18.5 47.5 -64.5 q23 39 63.5 61 q40.5 22 91.5 22 q42 0 71 -9.5 q29 -9.5 48 -33.5 q19 -24 27.5 -65 q8.5 -41 8.5 -104 l0 -300 l-80 0 l0 301 q0 36 -3.5 62.5 q-3.5 26.5 -14 44 q-10.5 17.5 -29 26 q-18.5 8.5 -48.5 8.5 q-50 0 -78 -28 q-28 -28 -40 -80 l0 -334 l-80 0 Z" /><glyph glyph-name="n" unicode="n" d="M398 0 l0 285 q0 78 -22.5 117.5 q-22.5 39.5 -82.5 39.5 q-53 0 -87.5 -28.5 q-34.5 -28.5 -48.5 -71.5 l0 -342 l-80 0 l0 500 l56 0 l15 -61 l4 0 q24 32 64.5 52.5 q40.5 20.5 96.5 20.5 q41 0 72 -9.5 q31 -9.5 51.5 -33.5 q20.5 -24 31 -64.5 q10.5 -40.5 10.5 -102.5 l0 -302 l-80 0 Z" /><glyph glyph-name="o" unicode="o" d="M49 250 q0 127 56.5 194.5 q56.5 67.5 162.5 67.5 q56 0 97.5 -18.5 q41.5 -18.5 68.5 -53 q27 -34.5 40 -83 q13 -48.5 13 -107.5 q0 -127 -56.5 -194.5 q-56.5 -67.5 -162.5 -67.5 q-56 0 -97.5 18.5 q-41.5 18.5 -68.5 53 q-27 34.5 -40 83 q-13 48.5 -13 107.5 ZM132 250 q0 -38 7.5 -73 q7.5 -35 23.5 -61 q16 -26 42 -42 q26 -16 63 -16 q136 -1 136 192 q0 39 -7.5 74 q-7.5 35 -23.5 61 q-16 26 -42 41.5 q-26 15.5 -63 15.5 q-136 1 -136 -192 Z" /><glyph glyph-name="p" unicode="p" d="M77 500 l55 0 l15 -60 l4 0 q23 35 59.5 53.5 q36.5 18.5 83.5 18.5 q100 0 149 -59 q49 -59 49 -193 q0 -63 -16.5 -113.5 q-16.5 -50.5 -46.5 -85.5 q-30 -35 -72.5 -54 q-42.5 -19 -94.5 -19 q-37 0 -58.5 4.5 q-21.5 4.5 -46.5 15.5 l0 -208 l-80 0 l0 700 ZM279 442 q-51 0 -80.5 -26.5 q-29.5 -26.5 -41.5 -80.5 l0 -248 q18 -14 41 -21.5 q23 -7.5 61 -7.5 q69 0 109.5 51.5 q40.5 51.5 40.5 151.5 q0 41 -7 74.5 q-7 33.5 -22.5 57 q-15.5 23.5 -40 36.5 q-24.5 13 -60.5 13 Z" /><glyph glyph-name="q" unicode="q" d="M460 -200 l-80 0 l0 250 l-4 0 q-20 -30 -50.5 -46 q-30.5 -16 -80.5 -16 q-100 0 -148 63.5 q-48 63.5 -48 196.5 q0 129 62 195 q62 66 181 66 q53 0 99.5 -10 q46.5 -10 68.5 -21 l0 -678 ZM259 58 q51 0 80 26 q29 26 41 80 l0 256 q-37 19 -102 19 q-69 0 -107.5 -46.5 q-38.5 -46.5 -38.5 -143.5 q0 -42 7 -77.5 q7 -35.5 22 -60.5 q15 -25 39 -39 q24 -14 59 -14 Z" /><glyph glyph-name="r" unicode="r" d="M313 423 q-30 10 -57 10 q-43 0 -68 -23.5 q-25 -23.5 -31 -59.5 l0 -350 l-80 0 l0 500 l56 0 l15 -61 l4 0 q19 34 45.5 52.5 q26.5 18.5 67.5 18.5 q29 0 65 -10 l-17 -77 Z" /><glyph glyph-name="s" unicode="s" d="M297 136 q0 30 -18 47 q-18 17 -44.5 28.5 q-26.5 11.5 -58 22 q-31.5 10.5 -58 27 q-26.5 16.5 -44.5 42.5 q-18 26 -18 70 q0 72 41 105.5 q41 33.5 114 33.5 q54 0 90.5 -9.5 q36.5 -9.5 63.5 -22.5 l-19 -66 q-23 11 -55.5 19.5 q-32.5 8.5 -69.5 8.5 q-44 0 -64.5 -15 q-20.5 -15 -20.5 -52 q0 -26 18 -40.5 q18 -14.5 44.5 -26 q26.5 -11.5 58 -22.5 q31.5 -11 58 -29 q26.5 -18 44.5 -45.5 q18 -27.5 18 -72.5 q0 -32 -10.5 -60 q-10.5 -28 -32.5 -48 q-22 -20 -54.5 -31.5 q-32.5 -11.5 -76.5 -11.5 q-57 0 -97 11 q-40 11 -67 26 l24 68 q23 -13 60 -24 q37 -11 75 -11 q43 0 71 17 q28 17 28 61 Z" /><glyph glyph-name="t" unicode="t" d="M11 500 l78 0 l0 99 l80 23 l0 -122 l136 0 l0 -70 l-136 0 l0 -277 q0 -52 13 -73.5 q13 -21.5 44 -21.5 q26 0 44 5.5 q18 5.5 40 14.5 l18 -61 q-27 -13 -59 -21 q-32 -8 -69 -8 q-61 0 -86 34.5 q-25 34.5 -25 115.5 l0 292 l-78 0 l0 70 Z" /><glyph glyph-name="u" unicode="u" d="M149 500 l0 -285 q0 -39 4.5 -68.5 q4.5 -29.5 15.5 -49 q11 -19.5 30 -29.5 q19 -10 48 -10 q27 0 48 8.5 q21 8.5 37.5 23.5 q16.5 15 29 34.5 q12.5 19.5 20.5 41.5 l0 334 l80 0 l0 -358 q0 -36 2.5 -74.5 q2.5 -38.5 8.5 -67.5 l-55 0 l-20 79 l-5 0 q-23 -39 -62 -65 q-39 -26 -99 -26 q-40 0 -70.5 9.5 q-30.5 9.5 -51 33.5 q-20.5 24 -31 64.5 q-10.5 40.5 -10.5 102.5 l0 302 l80 0 Z" /><glyph glyph-name="v" unicode="v" d="M221 207 l28 -95 l1 0 l25 97 l112 291 l86 0 l-213 -511 l-34 0 l-217 511 l92 0 l120 -293 Z" /><glyph glyph-name="w" unicode="w" d="M401 500 l115 -292 l25 -96 l2 0 l19 98 l89 290 l76 0 l-168 -511 l-39 0 l-131 330 l-19 82 l-3 0 l-20 -83 l-126 -329 l-39 0 l-174 511 l87 0 l99 -291 l17 -97 l1 0 l24 99 l107 289 l58 0 Z" /><glyph glyph-name="x" unicode="x" d="M208 256 l-168 244 l98 0 l95 -138 l28 -57 l29 57 l97 138 l90 0 l-169 -240 l179 -260 l-95 0 l-106 152 l-30 60 l-31 -60 l-108 -152 l-89 0 l180 256 Z" /><glyph glyph-name="y" unicode="y" d="M224 176 l28 -96 l5 0 l22 97 l97 323 l81 0 l-148 -449 q-17 -49 -33.5 -95 q-16.5 -46 -36.5 -82 q-20 -36 -45 -57.5 q-25 -21.5 -58 -21.5 q-36 0 -59 10 l14 69 q13 -5 25 -5 q28 0 54 29.5 q26 29.5 43 101.5 l-201 500 l92 0 l120 -324 Z" /><glyph glyph-name="z" unicode="z" d="M42 70 l231 318 l42 42 l-273 0 l0 70 l356 0 l0 -70 l-233 -321 l-41 -39 l274 0 l0 -70 l-356 0 l0 70 Z" /><glyph glyph-name="braceleft" unicode="{" d="M137 112 q0 51 -21 69.5 q-21 18.5 -59 18.5 l0 70 q38 0 59 20 q21 20 21 64 l0 242 q0 47 23.5 76 q23.5 29 71.5 29 l85 0 l0 -70 l-50 0 q-27 0 -39.5 -13.5 q-12.5 -13.5 -12.5 -45.5 l0 -237 q0 -44 -21 -67 q-21 -23 -49 -28 l0 -6 q27 -4 48.5 -30.5 q21.5 -26.5 21.5 -68.5 l0 -236 q0 -31 12 -45 q12 -14 41 -14 l49 0 l0 -70 l-85 0 q-45 0 -70 26.5 q-25 26.5 -25 77.5 l0 238 Z" /><glyph glyph-name="bar" unicode="|" d="M85 700 l68 0 l0 -830 l-68 0 l0 830 Z" /><glyph glyph-name="braceright" unicode="}" d="M235 359 q0 -51 21 -69.5 q21 -18.5 59 -18.5 l0 -70 q-38 0 -59 -20 q-21 -20 -21 -64 l0 -242 q0 -47 -23.5 -76 q-23.5 -29 -71.5 -29 l-85 0 l0 70 l50 0 q27 0 39.5 13.5 q12.5 13.5 12.5 45.5 l0 237 q0 44 20.5 67 q20.5 23 48.5 28 l0 6 q-27 4 -48 30.5 q-21 26.5 -21 68.5 l0 236 q0 31 -12 45 q-12 14 -40 14 l-50 0 l0 70 l86 0 q44 0 69 -26.5 q25 -26.5 25 -77.5 l0 -238 Z" /><glyph glyph-name="asciitilde" unicode="~" d="M31 361 q43 33 78 46 q35 13 64 13 q28 0 52 -8.5 q24 -8.5 46 -19 q22 -10.5 43 -19 q21 -8.5 44 -8.5 q19 0 39 8 q20 8 43 28 l34 -61 q-38 -26 -68.5 -36.5 q-30.5 -10.5 -55.5 -10.5 q-27 0 -49.5 8.5 q-22.5 8.5 -43 19 q-20.5 10.5 -41 19 q-20.5 8.5 -44.5 8.5 q-23 0 -49 -10.5 q-26 -10.5 -58 -36.5 l-34 60 Z" /><glyph glyph-name="nonbreakingspace" unicode=" " d="" /><glyph glyph-name="exclamdown" unicode="¡" d="M176 -200 l-83 0 l0 347 l17 176 l49 0 l17 -176 l0 -347 ZM77 453 q0 27 15.5 42.5 q15.5 15.5 41.5 15.5 q27 0 43 -15.5 q16 -15.5 16 -42.5 q0 -26 -16 -42 q-16 -16 -43 -16 q-26 0 -41.5 16 q-15.5 16 -15.5 42 Z" /><glyph glyph-name="cent" unicode="¢" d="M461 33 q-24 -17 -54.5 -27.5 q-30.5 -10.5 -65.5 -14.5 l0 -91 l-71 0 l0 90 q-50 5 -84.5 25.5 q-34.5 20.5 -56.5 54 q-22 33.5 -32 79.5 q-10 46 -10 101 q0 115 47.5 181.5 q47.5 66.5 135.5 77.5 l0 91 l71 0 l0 -89 q35 -2 62 -9.5 q27 -7.5 49 -18.5 l-23 -68 q-20 10 -44.5 17 q-24.5 7 -50.5 9 l0 -383 q32 2 58 12.5 q26 10.5 43 23.5 l26 -61 ZM170 250 q0 -33 5.5 -63.5 q5.5 -30.5 18.5 -56 q13 -25.5 34 -43.5 q21 -18 52 -25 l0 377 q-110 -21 -110 -189 Z" /><glyph glyph-name="sterling" unicode="£" d="M50 383 l66 0 q-12 26 -20 57 q-8 31 -8 73 q0 98 56 148.5 q56 50.5 153 50.5 q61 0 106 -9 q45 -9 74 -23 l-26 -71 q-23 11 -61.5 20 q-38.5 9 -93.5 9 q-60 0 -92.5 -32.5 q-32.5 -32.5 -32.5 -87.5 q0 -42 10 -74 q10 -32 24 -61 l161 0 l0 -70 l-131 0 q8 -23 13 -48 q5 -25 5 -55 q0 -30 -9 -61.5 q-9 -31.5 -27 -51.5 l-39 -33 l0 -4 l62 14 l256 0 l0 -74 l-446 0 l0 72 q32 0 54.5 11.5 q22.5 11.5 37 30 q14.5 18.5 21.5 42 q7 23.5 7 47.5 q0 33 -6.5 59.5 q-6.5 26.5 -16.5 50.5 l-97 0 l0 70 Z" /><glyph glyph-name="currency" unicode="¤" d="M70 596 l78 -77 l21 -35 q42 33 103 33 q59 0 103 -33 l22 35 l78 77 l49 -49 l-77 -78 l-35 -22 q32 -43 32 -102 q0 -60 -32 -103 l35 -21 l77 -78 l-49 -48 l-78 77 l-21 33 q-43 -31 -104 -31 q-62 0 -103 31 l-21 -33 l-78 -77 l-49 48 l77 78 l34 22 q-31 42 -31 102 q0 29 8.5 55 q8.5 26 22.5 48 l-34 21 l-77 78 l49 49 ZM170 345 q0 -45 28.5 -75 q28.5 -30 73.5 -30 q45 0 74 30 q29 30 29 75 q0 45 -29 75.5 q-29 30.5 -74 30.5 q-45 0 -73.5 -30.5 q-28.5 -30.5 -28.5 -75.5 Z" /><glyph glyph-name="yen" unicode="¥" d="M111 328 l94 0 l-203 372 l97 0 l164 -306 l17 -61 l1 0 l18 63 l157 304 l89 0 l-203 -372 l96 0 l0 -60 l-122 0 l0 -71 l122 0 l0 -60 l-122 0 l0 -137 l-83 0 l0 137 l-122 0 l0 60 l122 0 l0 71 l-122 0 l0 60 Z" /><glyph glyph-name="brokenbar" unicode="¦" d="M85 206 l68 0 l0 -336 l-68 0 l0 336 ZM153 364 l-68 0 l0 336 l68 0 l0 -336 Z" /><glyph glyph-name="section" unicode="§" d="M57 353 q0 31 15.5 60.5 q15.5 29.5 41.5 52.5 l41 14 q-26 16 -43.5 40.5 q-17.5 24.5 -17.5 65.5 q0 56 41.5 91 q41.5 35 115.5 35 q54 0 91.5 -9 q37.5 -9 64.5 -22 l-19 -67 q-24 11 -57 19.5 q-33 8.5 -69 8.5 q-45 0 -66.5 -16 q-21.5 -16 -21.5 -43 q0 -26 19.5 -40.5 q19.5 -14.5 49.5 -25.5 q30 -11 64 -22 q34 -11 64 -28.5 q30 -17.5 49.5 -46 q19.5 -28.5 19.5 -73.5 q0 -31 -15 -60 q-15 -29 -41 -52 l-45 -14 q27 -16 45.5 -41 q18.5 -25 18.5 -66 q0 -31 -12 -54.5 q-12 -23.5 -33.5 -39.5 q-21.5 -16 -50.5 -24 q-29 -8 -62 -8 q-56 0 -92 9.5 q-36 9.5 -64 23.5 l20 65 q23 -11 55.5 -19.5 q32.5 -8.5 70.5 -8.5 q42 0 65 13.5 q23 13.5 23 45.5 q0 26 -19.5 41 q-19.5 15 -49.5 26 q-30 11 -64 22 q-34 11 -64 28.5 q-30 17.5 -49.5 45.5 q-19.5 28 -19.5 73 ZM360 345 q0 25 -13 41 q-13 16 -34.5 27.5 q-21.5 11.5 -48.5 20 q-27 8.5 -54 18.5 q-29 -13 -51 -37 q-22 -24 -22 -60 q0 -25 13 -41 q13 -16 33.5 -27.5 q20.5 -11.5 47 -19.5 q26.5 -8 53.5 -18 q14 6 27.5 16 q13.5 10 24.5 22.5 q11 12.5 17.5 27 q6.5 14.5 6.5 30.5 Z" /><glyph glyph-name="dieresis" unicode="¨" d="M60 653 q0 23 13.5 37 q13.5 14 35.5 14 q22 0 35.5 -14 q13.5 -14 13.5 -37 q0 -21 -13.5 -35 q-13.5 -14 -35.5 -14 q-22 0 -35.5 14 q-13.5 14 -13.5 35 ZM252 653 q0 23 13.5 37 q13.5 14 35.5 14 q23 0 36.5 -14 q13.5 -14 13.5 -37 q0 -21 -13.5 -35 q-13.5 -14 -36.5 -14 q-22 0 -35.5 14 q-13.5 14 -13.5 35 Z" /><glyph glyph-name="copyright" unicode="©" d="M51 290 q0 83 28 148.5 q28 65.5 76 110.5 q48 45 112 69 q64 24 136 24 q72 0 136 -24 q64 -24 112 -69 q48 -45 76 -110.5 q28 -65.5 28 -148.5 q0 -83 -28 -148.5 q-28 -65.5 -76 -110.5 q-48 -45 -112 -69 q-64 -24 -136 -24 q-80 0 -145 24 q-65 24 -111 69 q-46 45 -71 110.5 q-25 65.5 -25 148.5 ZM121 290 q0 -69 22 -122.5 q22 -53.5 60 -89.5 q38 -36 89.5 -55 q51.5 -19 110.5 -19 q59 0 110.5 19 q51.5 19 89.5 55 q38 36 60 89.5 q22 53.5 22 122.5 q0 69 -22 122.5 q-22 53.5 -60 89.5 q-38 36 -89.5 55 q-51.5 19 -110.5 19 q-59 0 -110.5 -19 q-51.5 -19 -89.5 -55 q-38 -36 -60 -89.5 q-22 -53.5 -22 -122.5 ZM519 127 q-23 -13 -51.5 -20 q-28.5 -7 -66.5 -7 q-81 0 -123.5 51 q-42.5 51 -42.5 139 q0 91 45.5 140.5 q45.5 49.5 120.5 49.5 q18 0 32.5 -2 q14.5 -2 27 -5.5 q12.5 -3.5 24.5 -8.5 q12 -5 27 -11 l-26 -61 q-22 11 -42 15 q-20 4 -34 4 q-42 0 -68.5 -26 q-26.5 -26 -26.5 -95 q0 -58 26 -89.5 q26 -31.5 77 -32.5 q47 0 80 18 l21 -59 Z" /><glyph glyph-name="ordfeminine" unicode="ª" d="M68 677 q25 13 66 22 q41 9 91 9 q62 0 85 -26 q23 -26 23 -75 q0 -38 -1.5 -73 q-1.5 -35 -1.5 -67 q0 -24 1.5 -46 q1.5 -22 6.5 -41 l-55 0 l-13 46 l-4 0 q-13 -17 -37 -33.5 q-24 -16.5 -67 -16.5 q-52 0 -83 25.5 q-31 25.5 -31 69.5 q0 31 15 52 q15 21 40.5 34 q25.5 13 60 19 q34.5 6 74.5 6 q7 0 13.5 -0.5 q6.5 -0.5 13.5 -0.5 q1 6 1 11.5 q0 5.5 0 10.5 q0 27 -12 38 q-12 11 -46 11 q-40 0 -73 -7.5 q-33 -7.5 -52 -17.5 l-15 50 ZM173 432 q21 0 36.5 5 q15.5 5 26.5 13.5 q11 8.5 18 18 q7 9.5 11 18.5 l0 42 q-11 1 -21 1 q-10 0 -21 0 q-21 0 -40 -2 q-19 -2 -33.5 -8 q-14.5 -6 -23 -16.5 q-8.5 -10.5 -8.5 -27.5 q0 -20 14.5 -32 q14.5 -12 40.5 -12 Z" /><glyph glyph-name="guillemotleft" unicode="«" d="M222 259 l158 228 l53 -42 l-97 -144 l-48 -41 l48 -36 l103 -141 l-52 -43 l-165 219 ZM39 259 l160 230 l54 -43 l-98 -145 l-48 -41 l48 -36 l104 -142 l-54 -44 l-166 221 Z" /><glyph glyph-name="logicalnot" unicode="¬" d="M41 392 l424 0 l0 -192 l-72 0 l0 120 l-352 0 l0 72 Z" /><glyph glyph-name="uni00AD" unicode="­" d="M58 325 l244 0 l0 -74 l-244 0 l0 74 Z" /><glyph glyph-name="registered" unicode="®" d="M85 451 q0 64 21 113.5 q21 49.5 57.5 83 q36.5 33.5 84.5 51 q48 17.5 102 17.5 q55 0 103.5 -17.5 q48.5 -17.5 84.5 -51 q36 -33.5 56.5 -83 q20.5 -49.5 20.5 -113.5 q0 -64 -21 -113.5 q-21 -49.5 -57.5 -83 q-36.5 -33.5 -84.5 -51 q-48 -17.5 -102 -17.5 q-56 0 -104 17.5 q-48 17.5 -84 51 q-36 33.5 -56.5 83 q-20.5 49.5 -20.5 113.5 ZM148 451 q0 -52 16 -90.5 q16 -38.5 43.5 -64 q27.5 -25.5 64.5 -38.5 q37 -13 78 -13 q43 0 80 12.5 q37 12.5 64 38 q27 25.5 42.5 64 q15.5 38.5 15.5 91.5 q0 52 -16 90.5 q-16 38.5 -43.5 64 q-27.5 25.5 -64 38.5 q-36.5 13 -78.5 13 q-44 0 -81 -13 q-37 -13 -64 -38.5 q-27 -25.5 -42 -64 q-15 -38.5 -15 -90.5 ZM247 581 q16 5 45 7.5 q29 2.5 55 2.5 q42 0 72 -17.5 q30 -17.5 30 -60.5 q0 -32 -20.5 -49 q-20.5 -17 -50.5 -19 l28 -14 l74 -109 l-61 0 l-72 104 l-48 15 l0 -119 l-52 0 l0 259 ZM336 546 q-11 0 -21 -0.5 q-10 -0.5 -16 -3.5 l0 -71 l34 0 q29 0 45 9 q16 9 16 31 q0 35 -58 35 Z" /><glyph glyph-name="macron" unicode="¯" d="M60 643 l296 0 l0 -62 l-296 0 l0 62 Z" /><glyph glyph-name="degree" unicode="°" d="M85 571 q0 31 11 57 q11 26 30 44.5 q19 18.5 45 29 q26 10.5 55 10.5 q29 0 55 -9.5 q26 -9.5 45 -28 q19 -18.5 30 -44.5 q11 -26 11 -59 q0 -33 -11 -59 q-11 -26 -30 -44.5 q-19 -18.5 -45 -28 q-26 -9.5 -55 -9.5 q-29 0 -55 9.5 q-26 9.5 -45 28 q-19 18.5 -30 44.5 q-11 26 -11 59 ZM148 571 q0 -38 23.5 -59.5 q23.5 -21.5 54.5 -21.5 q31 0 54.5 21.5 q23.5 21.5 23.5 59.5 q0 38 -23.5 59.5 q-23.5 21.5 -54.5 21.5 q-31 0 -54.5 -21.5 q-23.5 -21.5 -23.5 -59.5 Z" /><glyph glyph-name="plusminus" unicode="±" d="M40 493 l176 0 l0 181 l72 0 l0 -181 l176 0 l0 -72 l-176 0 l0 -120 l-72 0 l0 120 l-176 0 l0 72 ZM40 250 l424 0 l0 -72 l-424 0 l0 72 Z" /><glyph glyph-name="acute" unicode="´" d="M119 720 l89 0 l0 -21 l-101 -128 l-47 0 l59 149 Z" /><glyph glyph-name="mu" unicode="µ&#x3bc;" d="M148 500 l0 -283 q0 -79 24.5 -119 q24.5 -40 85.5 -40 q55 0 93 32.5 q38 32.5 53 85.5 l0 324 l80 0 l0 -337 q0 -41 2.5 -82.5 q2.5 -41.5 12.5 -80.5 l-55 0 l-28 74 l-4 0 q-20 -35 -61.5 -60.5 q-41.5 -25.5 -101.5 -25.5 q-48 0 -73.5 14 q-25.5 14 -43.5 36 l-5 0 l21 -105 l0 -133 l-80 0 l0 700 l80 0 Z" /><glyph glyph-name="paragraph" unicode="¶" d="M341 700 l68 0 l0 -830 l-68 0 l0 830 ZM185 310 q-32 0 -59 16.5 q-27 16.5 -46.5 44 q-19.5 27.5 -31 63 q-11.5 35.5 -11.5 72.5 q0 37 11.5 72 q11.5 35 33.5 62 q22 27 54 43.5 q32 16.5 72 16.5 l45 0 l0 -830 l-68 0 l0 440 Z" /><glyph glyph-name="cedilla" unicode="¸" d="M172 0 l-24 -43 q42 -8 60.5 -26 q18.5 -18 18.5 -49 q0 -39 -32 -64.5 q-32 -25.5 -90 -25.5 q-11 0 -22 1 q-11 1 -23 3 l9 39 q6 -1 11 -1 q5 0 10 0 q22 0 34.5 4 q12.5 4 19 9.5 q6.5 5.5 8 12.5 q1.5 7 1.5 13 q0 28 -86 37 l48 90 l57 0 Z" /><glyph glyph-name="ordmasculine" unicode="º" d="M44 542 q0 45 12 77 q12 32 32.5 53 q20.5 21 49 30.5 q28.5 9.5 61.5 9.5 q33 0 61.5 -9 q28.5 -9 49 -29 q20.5 -20 32.5 -52.5 q12 -32.5 12 -79.5 q0 -47 -12 -79.5 q-12 -32.5 -32.5 -52.5 q-20.5 -20 -49 -29 q-28.5 -9 -61.5 -9 q-33 0 -61.5 9 q-28.5 9 -49 29 q-20.5 20 -32.5 52.5 q-12 32.5 -12 79.5 ZM118 542 q0 -60 21.5 -86 q21.5 -26 59.5 -26 q19 0 34 5.5 q15 5.5 25.5 18 q10.5 12.5 16 34 q5.5 21.5 5.5 54.5 q0 33 -5.5 54.5 q-5.5 21.5 -16 34 q-10.5 12.5 -25.5 18 q-15 5.5 -34 5.5 q-38 0 -59.5 -23.5 q-21.5 -23.5 -21.5 -88.5 Z" /><glyph glyph-name="guillemotright" unicode="»" d="M257 268 l-160 -228 l-52 42 l96 144 l49 41 l-49 36 l-102 141 l52 43 l166 -219 ZM439 268 l-160 -230 l-54 43 l98 145 l48 41 l-48 36 l-104 142 l53 44 l167 -221 Z" /><glyph glyph-name="questiondown" unicode="¿" d="M286 323 q1 -5 1 -11 q0 -6 0 -11 q0 -42 -12.5 -74 q-12.5 -32 -31 -58.5 q-18.5 -26.5 -40 -49.5 q-21.5 -23 -40 -46.5 q-18.5 -23.5 -31 -50 q-12.5 -26.5 -12.5 -60.5 q0 -46 26.5 -75 q26.5 -29 88.5 -29 q36 0 73 12.5 q37 12.5 64 29.5 l27 -62 q-38 -23 -80 -36.5 q-42 -13.5 -104 -13.5 q-44 0 -77.5 12.5 q-33.5 12.5 -56 34.5 q-22.5 22 -33.5 51.5 q-11 29.5 -11 64.5 q0 45 13.5 78.5 q13.5 33.5 34 61 q20.5 27.5 44 51.5 q23.5 24 44 50.5 q20.5 26.5 34 57.5 q13.5 31 13.5 73 l66 0 ZM191 454 q0 27 15.5 42.5 q15.5 15.5 41.5 15.5 q27 0 43 -15.5 q16 -15.5 16 -42.5 q0 -26 -16 -42 q-16 -16 -43 -16 q-26 0 -41.5 16 q-15.5 16 -15.5 42 Z" /><glyph glyph-name="Aring" unicode="å" d="M188 768 q0 37 25 61 q25 24 80 24 q50 0 78 -21.5 q28 -21.5 28 -63.5 q0 -32 -20 -53.5 q-20 -21.5 -59 -27.5 l257 -687 l-87 0 l-72 194 l-258 0 l-70 -194 l-82 0 l256 687 q-38 6 -57 27.5 q-19 21.5 -19 53.5 ZM187 266 l206 0 l-78 213 l-25 106 l-1 0 l-25 -108 l-77 -211 ZM249 768 q0 -17 10.5 -28.5 q10.5 -11.5 33.5 -11.5 q22 0 33.5 11 q11.5 11 11.5 29 q0 19 -11 30.5 q-11 11.5 -34 11.5 q-22 0 -33 -11.5 q-11 -11.5 -11 -30.5 Z" /><glyph glyph-name="AE" unicode="æ" d="M391 600 l-34 -103 l-133 -229 l171 0 l0 332 l-4 0 ZM395 198 l-214 0 l-112 -198 l-91 0 l415 700 l383 0 l0 -74 l-298 0 l0 -229 l273 0 l0 -74 l-273 0 l0 -249 l303 0 l0 -74 l-386 0 l0 198 Z" /><glyph glyph-name="Ccedilla" unicode="ç" d="M533 29 q-26 -20 -64 -29 q-38 -9 -83 -11 l-17 -32 q42 -8 60.5 -26 q18.5 -18 18.5 -49 q0 -39 -32 -64.5 q-32 -25.5 -90 -25.5 q-11 0 -22 1 q-11 1 -23 3 l9 39 q6 -1 11 -1 q5 0 10 0 q22 0 34.5 4 q12.5 4 19 9.5 q6.5 5.5 8 12.5 q1.5 7 1.5 13 q0 28 -86 37 l42 80 q-58 4 -108 27.5 q-50 23.5 -87 67.5 q-37 44 -58 110 q-21 66 -21 155 q0 98 26.5 166.5 q26.5 68.5 70 112 q43.5 43.5 97.5 63.5 q54 20 110 20 q60 0 98 -6.5 q38 -6.5 65 -17.5 l-20 -73 q-48 23 -137 23 q-41 0 -81 -15 q-40 -15 -71.5 -49 q-31.5 -34 -50.5 -89 q-19 -55 -19 -135 q0 -72 18 -126 q18 -54 49.5 -90 q31.5 -36 74 -54 q42.5 -18 92.5 -18 q45 0 78.5 9 q33.5 9 56.5 23 l20 -65 Z" /><glyph glyph-name="Eth" unicode="ð" d="M-1 392 l90 0 l0 308 q19 3 42.5 4.5 q23.5 1.5 49 2 q25.5 0.5 50 1 q24.5 0.5 45.5 0.5 q84 0 145.5 -26 q61.5 -26 101.5 -72.5 q40 -46.5 59.5 -111.5 q19.5 -65 19.5 -143 q0 -71 -18.5 -136.5 q-18.5 -65.5 -58.5 -116 q-40 -50.5 -104 -81 q-64 -30.5 -155 -30.5 q-16 0 -41.5 0.5 q-25.5 0.5 -52.5 2 q-27 1.5 -50 2.5 q-23 1 -33 3 l0 333 l-90 0 l0 60 ZM278 634 q-13 0 -28.5 0 q-15.5 0 -30.5 -1 q-15 -1 -27.5 -2 q-12.5 -1 -19.5 -2 l0 -237 l147 0 l0 -60 l-147 0 l0 -263 q5 -1 19 -1.5 q14 -0.5 29 -1 q15 -0.5 29 -1 q14 -0.5 19 -0.5 q70 0 117.5 24 q47.5 24 76 64.5 q28.5 40.5 40.5 93 q12 52.5 12 108.5 q0 49 -11 98.5 q-11 49.5 -38 89.5 q-27 40 -72.5 65.5 q-45.5 25.5 -114.5 25.5 Z" /><glyph glyph-name="multiply" unicode="×" d="M127 517 l126 -127 l127 127 l51 -53 l-126 -126 l126 -127 l-51 -52 l-127 128 l-127 -128 l-52 51 l128 129 l-126 125 l51 53 Z" /><glyph glyph-name="Oslash" unicode="ø" d="M122 91 q-34 48 -50 113 q-16 65 -16 146 q0 175 74 268.5 q74 93.5 211 93.5 q57 0 101 -15 q44 -15 78 -44 l42 60 l52 -35 l-51 -72 q33 -48 49 -112.5 q16 -64.5 16 -143.5 q0 -175 -74.5 -268.5 q-74.5 -93.5 -212.5 -93.5 q-107 0 -175 56 l-39 -56 l-52 36 l47 67 ZM144 350 q0 -51 8.5 -96 q8.5 -45 26.5 -83 l290 411 q-23 26 -54.5 41 q-31.5 15 -73.5 15 q-92 0 -144.5 -70.5 q-52.5 -70.5 -52.5 -217.5 ZM540 350 q0 48 -8.5 93 q-8.5 45 -25.5 82 l-290 -411 q23 -25 54 -38.5 q31 -13.5 71 -13.5 q93 0 146 70.5 q53 70.5 53 217.5 Z" /><glyph glyph-name="Thorn" unicode="þ" d="M85 700 l83 0 l0 -75 q42 3 86 3 q46 0 93.5 -9 q47.5 -9 86.5 -33 q39 -24 63.5 -66 q24.5 -42 24.5 -107 q0 -64 -23 -108 q-23 -44 -61 -71.5 q-38 -27.5 -87 -40 q-49 -12.5 -101 -12.5 q-5 0 -16.5 0 q-11.5 0 -24 0.5 q-12.5 0.5 -24.5 1.5 q-12 1 -17 2 l0 -185 l-83 0 l0 700 ZM256 556 q-26 0 -50 -1 q-24 -1 -38 -5 l0 -290 q5 -2 16 -2.5 q11 -0.5 23 -1.5 q12 -1 23 -1 q11 0 16 0 q34 0 67.5 6.5 q33.5 6.5 60.5 24 q27 17.5 43.5 48.5 q16.5 31 16.5 79 q0 41 -15.5 68.5 q-15.5 27.5 -41 44 q-25.5 16.5 -57.5 23.5 q-32 7 -64 7 Z" /><glyph glyph-name="germandbls" unicode="ß" d="M384 559 q0 17 -9.5 31.5 q-9.5 14.5 -24.5 24.5 q-15 10 -33 15.5 q-18 5.5 -35 5.5 q-28 0 -47.5 -7 q-19.5 -7 -31.5 -23 q-12 -16 -17.5 -42.5 q-5.5 -26.5 -5.5 -65.5 l0 -498 l-80 0 l0 430 l-78 0 l0 70 l78 0 l0 23 q0 97 47.5 140 q47.5 43 131.5 43 q41 0 75 -10.5 q34 -10.5 58.5 -30 q24.5 -19.5 38 -46 q13.5 -26.5 13.5 -59.5 q0 -38 -19 -61 q-19 -23 -41.5 -41 q-22.5 -18 -41.5 -35 q-19 -17 -19 -42 q0 -22 15 -35 q15 -13 38 -23 q23 -10 49 -20.5 q26 -10.5 49 -27.5 q23 -17 38 -44.5 q15 -27.5 15 -71.5 q0 -32 -12 -62.5 q-12 -30.5 -34.5 -54.5 q-22.5 -24 -56.5 -39 q-34 -15 -77 -15 q-23 0 -40.5 1.5 q-17.5 1.5 -32 5 q-14.5 3.5 -27.5 8.5 q-13 5 -26 13 l23 65 q12 -6 21 -11 q9 -5 19.5 -8 q10.5 -3 23.5 -4.5 q13 -1.5 32 -1.5 q21 0 40.5 7.5 q19.5 7.5 34.5 20.5 q15 13 23.5 31.5 q8.5 18.5 8.5 40.5 q0 30 -15 47.5 q-15 17.5 -38 29.5 q-23 12 -49 21.5 q-26 9.5 -49 24 q-23 14.5 -38 37 q-15 22.5 -15 60.5 q0 39 19 62.5 q19 23.5 41.5 42 q22.5 18.5 41.5 35.5 q19 17 19 43 Z" /><glyph glyph-name="ae" unicode="æ" d="M211 62 q28 0 50 7.5 q22 7.5 38 19 q16 11.5 26.5 25.5 q10.5 14 15.5 27 l0 83 q-14 1 -28.5 1.5 q-14.5 0.5 -28.5 0.5 q-31 0 -60.5 -3.5 q-29.5 -3.5 -52 -13 q-22.5 -9.5 -36 -26 q-13.5 -16.5 -13.5 -41.5 q0 -35 25 -57.5 q25 -22.5 64 -22.5 ZM367 84 q-13 -18 -30 -34.5 q-17 -16.5 -38.5 -29 q-21.5 -12.5 -49 -20.5 q-27.5 -8 -60.5 -8 q-32 0 -59.5 10 q-27.5 10 -47.5 28.5 q-20 18.5 -31.5 44.5 q-11.5 26 -11.5 59 q0 44 18 73.5 q18 29.5 50.5 47 q32.5 17.5 78 25 q45.5 7.5 100.5 7.5 q14 0 27.5 0 q13.5 0 27.5 -2 q1 15 2 28.5 q1 13.5 1 25.5 q0 55 -22 77.5 q-22 22.5 -80 21.5 q-17 0 -36.5 -2.5 q-19.5 -2.5 -40 -7 q-20.5 -4.5 -39 -11 q-18.5 -6.5 -32.5 -14.5 l-25 60 q38 23 88.5 34 q50.5 11 105.5 11 q105 0 136 -65 q26 36 70 52.5 q44 16.5 88 16.5 q34 0 68 -7.5 q34 -7.5 61 -29 q27 -21.5 44 -60.5 q17 -39 17 -102 q0 -16 -1.5 -33.5 q-1.5 -17.5 -3.5 -37.5 l-323 0 q0 -87 36.5 -135.5 q36.5 -48.5 124.5 -48.5 q35 0 68.5 12.5 q33.5 12.5 51.5 27.5 l30 -58 q-30 -24 -75.5 -38 q-45.5 -14 -96.5 -14 q-61 0 -110.5 25 q-49.5 25 -73.5 71 l-7 0 ZM558 442 q-59 0 -95 -31 q-36 -31 -42 -106 l248 0 l0 12 q0 68 -30.5 96.5 q-30.5 28.5 -80.5 28.5 Z" /><glyph glyph-name="ccedilla" unicode="ç" d="M418 33 q-49 -35 -121 -43 l-18 -33 q42 -8 60.5 -26 q18.5 -18 18.5 -49 q0 -39 -32 -64.5 q-32 -25.5 -90 -25.5 q-11 0 -22 1 q-11 1 -23 3 l9 39 q6 -1 11 -1 q5 0 10 0 q22 0 34.5 4 q12.5 4 19 9.5 q6.5 5.5 8 12.5 q1.5 7 1.5 13 q0 28 -86 37 l42 79 q-52 3 -88 23 q-36 20 -59 54 q-23 34 -33.5 80.5 q-10.5 46.5 -10.5 103.5 q0 127 56 194.5 q56 67.5 161 67.5 q48 0 81.5 -7.5 q33.5 -7.5 60.5 -21.5 l-23 -69 q-23 13 -51 20.5 q-28 7.5 -60 7.5 q-142 0 -142 -192 q0 -38 7.5 -72.5 q7.5 -34.5 25 -61 q17.5 -26.5 46 -42 q28.5 -15.5 70.5 -15.5 q36 0 64.5 10.5 q28.5 10.5 46.5 24.5 l26 -61 Z" /><glyph glyph-name="eth" unicode="ð" d="M220 596 l57 31 q-38 23 -76 32 l35 54 q18 -7 46 -19 q28 -12 58 -33 l68 37 l26 -45 l-50 -27 q24 -23 46 -53.5 q22 -30.5 39 -71 q17 -40.5 27 -91.5 q10 -51 10 -115 q0 -81 -18 -139 q-18 -58 -48.5 -95.5 q-30.5 -37.5 -71 -55 q-40.5 -17.5 -86.5 -17.5 q-61 0 -104 21 q-43 21 -70 57 q-27 36 -39.5 83.5 q-12.5 47.5 -12.5 101.5 q0 52 14.5 99 q14.5 47 43 82.5 q28.5 35.5 70 56.5 q41.5 21 96.5 21 q45 0 79 -14 q34 -14 48 -32 q-11 37 -33 70 q-22 33 -51 59 l-76 -41 l-27 44 ZM139 250 q0 -98 41 -145 q41 -47 106 -47 q30 0 55.5 13 q25.5 13 44 41 q18.5 28 29.5 72 q11 44 11 106 q0 10 -0.5 22.5 q-0.5 12.5 -1 25 q-0.5 12.5 -2 24 q-1.5 11.5 -3.5 19.5 q-8 14 -22.5 25 q-14.5 11 -32 18.5 q-17.5 7.5 -37.5 11.5 q-20 4 -39 4 q-39 0 -67.5 -15 q-28.5 -15 -46.5 -40.5 q-18 -25.5 -26.5 -60 q-8.5 -34.5 -8.5 -74.5 Z" /><glyph glyph-name="divide" unicode="÷" d="M40 374 l424 0 l0 -72 l-424 0 l0 72 ZM194 525 q0 27 15.5 42.5 q15.5 15.5 41.5 15.5 q27 0 43 -15.5 q16 -15.5 16 -42.5 q0 -26 -16 -42 q-16 -16 -43 -16 q-26 0 -41.5 16 q-15.5 16 -15.5 42 ZM194 150 q0 27 15.5 42.5 q15.5 15.5 41.5 15.5 q27 0 43 -15.5 q16 -15.5 16 -42.5 q0 -26 -16 -42 q-16 -16 -43 -16 q-26 0 -41.5 16 q-15.5 16 -15.5 42 Z" /><glyph glyph-name="oslash" unicode="ø" d="M49 250 q0 127 56.5 194.5 q56.5 67.5 162.5 67.5 q73 0 122 -32 l26 35 l50 -37 l-29 -42 q26 -34 38 -81 q12 -47 12 -105 q0 -127 -56.5 -194.5 q-56.5 -67.5 -162.5 -67.5 q-78 0 -128 35 l-27 -37 l-52 38 l33 46 q-23 34 -34 79.5 q-11 45.5 -11 100.5 ZM404 250 q0 32 -5 61.5 q-5 29.5 -16 53.5 l-199 -277 q16 -13 36.5 -21.5 q20.5 -8.5 47.5 -8.5 q136 -1 136 192 ZM132 250 q0 -30 4.5 -58 q4.5 -28 13.5 -51 l197 274 q-15 12 -34.5 19.5 q-19.5 7.5 -44.5 7.5 q-136 1 -136 -192 Z" /><glyph glyph-name="thorn" unicode="þ" d="M77 700 l80 0 l0 -250 l4 0 q20 29 53 45.5 q33 16.5 80 16.5 q100 0 149 -59 q49 -59 49 -193 q0 -63 -16.5 -113.5 q-16.5 -50.5 -46.5 -85.5 q-30 -35 -72.5 -54 q-42.5 -19 -94.5 -19 q-37 0 -58.5 4.5 q-21.5 4.5 -46.5 15.5 l0 -208 l-80 0 l0 900 ZM279 442 q-98 1 -122 -107 l0 -249 q18 -14 41 -21 q23 -7 61 -7 q69 0 109.5 51.5 q40.5 51.5 40.5 151.5 q0 41 -7 74.5 q-7 33.5 -22.5 57 q-15.5 23.5 -40 36.5 q-24.5 13 -60.5 13 Z" /><glyph glyph-name="Aogonek" unicode="&#x104;" d="M418 194 l-258 0 l-70 -194 l-82 0 l265 711 l38 0 l266 -711 l-22 0 q-26 -16 -41.5 -37.5 q-15.5 -21.5 -15.5 -50.5 q0 -20 13.5 -35 q13.5 -15 38.5 -15 q19 0 40 9 l11 -42 q-15 -12 -40 -18 q-25 -6 -46 -6 q-44 0 -71.5 23.5 q-27.5 23.5 -27.5 64.5 q0 35 21.5 62.5 q21.5 27.5 59.5 44.5 l-7 0 l-72 194 ZM187 266 l206 0 l-78 213 l-25 106 l-1 0 l-25 -108 l-77 -211 Z" /><glyph glyph-name="aogonek" unicode="&#x105;" d="M69 463 q38 23 88.5 34 q50.5 11 105.5 11 q52 0 83.5 -14 q31.5 -14 48 -36.5 q16.5 -22.5 22 -49.5 q5.5 -27 5.5 -54 q0 -60 -3 -117 q-3 -57 -3 -108 q0 -37 3 -70 q3 -33 11 -61 l-23 0 q-25 -16 -39 -37.5 q-14 -21.5 -14 -47.5 q0 -20 13 -35.5 q13 -15.5 38 -15.5 q19 0 40 10 l11 -43 q-15 -12 -40 -18 q-25 -6 -46 -6 q-45 0 -72 24 q-27 24 -27 65 q0 39 26 67.5 q26 28.5 71 45.5 l-18 61 l-5 0 q-9 -14 -22.5 -27.5 q-13.5 -13.5 -32.5 -24 q-19 -10.5 -44 -17.5 q-25 -7 -57 -7 q-32 0 -59.5 10 q-27.5 10 -47.5 28.5 q-20 18.5 -31.5 44.5 q-11.5 26 -11.5 59 q0 44 18 73.5 q18 29.5 50.5 47 q32.5 17.5 78 25 q45.5 7.5 100.5 7.5 q14 0 27.5 0 q13.5 0 27.5 -2 q3 30 3 54 q0 55 -22 77 q-22 22 -80 22 q-17 0 -36.5 -2 q-19.5 -2 -40 -6.5 q-20.5 -4.5 -39 -10.5 q-18.5 -6 -32.5 -14 l-25 58 ZM211 62 q28 0 50 7.5 q22 7.5 38 19 q16 11.5 26.5 25.5 q10.5 14 15.5 27 l0 83 q-14 1 -28.5 1.5 q-14.5 0.5 -28.5 0.5 q-31 0 -60.5 -3.5 q-29.5 -3.5 -52 -13 q-22.5 -9.5 -36 -26 q-13.5 -16.5 -13.5 -41.5 q0 -35 25 -57.5 q25 -22.5 64 -22.5 Z" /><glyph glyph-name="dcroat" unicode="&#x111;" d="M461 632 l81 0 l0 -60 l-81 0 l0 -400 q0 -51 1 -92.5 q1 -41.5 9 -81.5 l-54 0 l-20 71 l-4 0 q-20 -35 -58 -58 q-38 -23 -89 -23 q-100 0 -148.5 63 q-48.5 63 -48.5 197 q0 128 60.5 194.5 q60.5 66.5 166.5 66.5 q37 0 58.5 -4 q21.5 -4 46.5 -13 l0 80 l-157 0 l0 60 l157 0 l0 68 l80 0 l0 -68 ZM259 58 q51 0 81 26.5 q30 26.5 41 80.5 l0 249 q-18 14 -41 19.5 q-23 5.5 -61 5.5 q-69 0 -108 -45.5 q-39 -45.5 -39 -145.5 q0 -41 6.5 -76 q6.5 -35 21.5 -60.5 q15 -25.5 39.5 -39.5 q24.5 -14 59.5 -14 Z" /><glyph glyph-name="Eogonek" unicode="&#x118;" d="M85 700 l381 0 l0 -74 l-298 0 l0 -229 l273 0 l0 -74 l-273 0 l0 -249 l303 0 l0 -74 l-36 0 q-26 -16 -41.5 -37 q-15.5 -21 -15.5 -50 q0 -20 13 -35.5 q13 -15.5 38 -15.5 q19 0 40 10 l11 -43 q-15 -12 -40 -18 q-25 -6 -46 -6 q-45 0 -72 24 q-27 24 -27 65 q0 35 21 62 q21 27 59 44 l-290 0 l0 700 Z" /><glyph glyph-name="eogonek" unicode="&#x119;" d="M442 40 q-11 -9 -24 -16 q-13 -7 -27 -13 q-34 -17 -53 -41.5 q-19 -24.5 -20 -56.5 q1 -21 14.5 -36 q13.5 -15 38.5 -16 q19 1 40 10 l11 -43 q-15 -12 -40.5 -17.5 q-25.5 -5.5 -46.5 -5.5 q-45 1 -71.5 24.5 q-26.5 23.5 -27.5 64.5 q0 30 15 54 q15 24 41 41 q-5 -1 -11 -1 q-6 0 -11 0 q-57 0 -99 18.5 q-42 18.5 -69 53 q-27 34.5 -40 82.5 q-13 48 -13 108 q0 128 57 195 q57 67 163 67 q34 0 68 -7.5 q34 -7.5 61 -28.5 q27 -21 44 -59.5 q17 -38.5 17 -101.5 q0 -33 -6 -73 l-321 0 q0 -44 9 -78 q9 -34 28 -58 q19 -24 49.5 -36 q30.5 -12 74.5 -12 q34 0 68 12 q34 12 51 28 l30 -58 ZM270 442 q-59 0 -94.5 -31 q-35.5 -31 -42.5 -106 l248 0 q0 76 -29 106.5 q-29 30.5 -82 30.5 Z" /><glyph glyph-name="Hbar" unicode="&#x126;" d="M9 587 l79 0 l0 113 l83 0 l0 -113 l336 0 l0 113 l83 0 l0 -113 l79 0 l0 -64 l-79 0 l0 -523 l-83 0 l0 321 l-336 0 l0 -321 l-83 0 l0 523 l-79 0 l0 64 ZM507 395 l0 128 l-336 0 l0 -128 l336 0 Z" /><glyph glyph-name="hbar" unicode="&#x127;" d="M-1 632 l80 0 l0 68 l80 0 l0 -68 l160 0 l0 -60 l-160 0 l0 -128 l4 0 q26 31 62.5 49.5 q36.5 18.5 90.5 18.5 q42 0 73 -9.5 q31 -9.5 51.5 -33.5 q20.5 -24 30 -64.5 q9.5 -40.5 9.5 -102.5 l0 -302 l-80 0 l0 285 q0 39 -4.5 68.5 q-4.5 29.5 -16.5 49 q-12 19.5 -32.5 29.5 q-20.5 10 -53.5 10 q-47 0 -85 -30.5 q-38 -30.5 -49 -78.5 l0 -333 l-80 0 l0 572 l-80 0 l0 60 Z" /><glyph glyph-name="Iogonek" unicode="&#x12e;" d="M104 700 l83 0 l0 -700 l-14 0 q-26 -16 -41 -37.5 q-15 -21.5 -15 -50.5 q0 -20 13 -35.5 q13 -15.5 38 -15.5 q19 0 40 10 l11 -43 q-15 -12 -40 -17.5 q-25 -5.5 -46 -5.5 q-45 0 -72 23.5 q-27 23.5 -27 64.5 q0 35 21 62.5 q21 27.5 59 44.5 l-10 0 l0 700 Z" /><glyph glyph-name="iogonek" unicode="&#x12f;" d="M94 500 l80 0 l0 -500 l-18 0 q-25 -16 -39.5 -38 q-14.5 -22 -14.5 -50 q0 -20 13 -35.5 q13 -15.5 38 -15.5 q19 0 40 10 l11 -43 q-15 -12 -40 -17.5 q-25 -5.5 -47 -5.5 q-45 0 -71.5 23.5 q-26.5 23.5 -26.5 64.5 q0 35 21 62.5 q21 27.5 59 44.5 l-5 0 l0 500 ZM77 652 q0 23 15.5 39.5 q15.5 16.5 39.5 16.5 q24 0 41 -16.5 q17 -16.5 17 -39.5 q0 -23 -17 -38 q-17 -15 -41 -15 q-24 0 -39.5 15 q-15.5 15 -15.5 38 Z" /><glyph glyph-name="dotlessi" unicode="&#x131;" d="M94 500 l80 0 l0 -500 l-80 0 l0 500 Z" /><glyph glyph-name="Lslash" unicode="&#x141;" d="M15 287 l70 55 l0 358 l83 0 l0 -293 l107 84 l0 -80 l-107 -82 l0 -255 l331 0 l0 -74 l-414 0 l0 265 l-70 -54 l0 76 Z" /><glyph glyph-name="lslash" unicode="&#x142;" d="M10 285 l76 59 l0 356 l80 0 l0 -293 l104 82 l0 -80 l-104 -80 l0 -206 q0 -35 12 -50 q12 -15 34 -15 q13 0 28 2 q15 2 34 9 l9 -63 q-16 -8 -44.5 -13 q-28.5 -5 -49.5 -5 q-45 0 -74 25.5 q-29 25.5 -29 86.5 l0 167 l-76 -58 l0 76 Z" /><glyph glyph-name="OE" unicode="&#x152;" d="M481 618 q-28 11 -65 15.5 q-37 4.5 -75 4.5 q-92 0 -144.5 -70.5 q-52.5 -70.5 -52.5 -217.5 q0 -58 11.5 -110 q11.5 -52 36.5 -91.5 q25 -39.5 64 -63 q39 -23.5 93 -23.5 q29 0 59.5 2 q30.5 2 72.5 15 l0 539 ZM481 0 q-25 -5 -60 -8.5 q-35 -3.5 -80 -3.5 q-73 0 -126.5 26 q-53.5 26 -89 73.5 q-35.5 47.5 -52.5 114 q-17 66.5 -17 148.5 q0 175 74 268.5 q74 93.5 211 93.5 q47 0 77.5 -3.5 q30.5 -3.5 62.5 -8.5 l381 0 l0 -74 l-298 0 l0 -229 l273 0 l0 -74 l-273 0 l0 -249 l303 0 l0 -74 l-386 0 Z" /><glyph glyph-name="oe" unicode="&#x153;" d="M132 250 q0 -38 7.5 -73 q7.5 -35 23.5 -61.5 q16 -26.5 42 -42 q26 -15.5 63 -15.5 q135 -1 135 192 q0 39 -7 74 q-7 35 -23 61 q-16 26 -42 41.5 q-26 15.5 -63 15.5 q-136 1 -136 -192 ZM442 81 q-27 -45 -70.5 -69 q-43.5 -24 -103.5 -24 q-56 0 -97.5 18.5 q-41.5 18.5 -68.5 53 q-27 34.5 -40 83 q-13 48.5 -13 107.5 q0 127 56.5 194.5 q56.5 67.5 162.5 67.5 q63 0 106.5 -26 q43.5 -26 69.5 -66 q26 42 70.5 67 q44.5 25 104.5 25 q34 0 68 -7.5 q34 -7.5 61 -28.5 q27 -21 44 -59.5 q17 -38.5 17 -101.5 q0 -17 -1 -35 q-1 -18 -4 -38 l-323 0 q0 -44 9 -78.5 q9 -34.5 28 -58.5 q19 -24 50 -36 q31 -12 75 -12 q35 0 68.5 12.5 q33.5 12.5 50.5 28.5 l30 -58 q-30 -24 -75.5 -38 q-45.5 -14 -96.5 -14 q-62 0 -107 25 q-45 25 -71 68 ZM620 443 q-58 0 -94 -31.5 q-36 -31.5 -43 -106.5 l248 0 l0 9 q0 69 -30 99 q-30 30 -81 30 Z" /><glyph glyph-name="Scedilla" unicode="&#x15e;" d="M401 178 q0 42 -25 68.5 q-25 26.5 -62.5 47 q-37.5 20.5 -81.5 38.5 q-44 18 -81.5 43.5 q-37.5 25.5 -62.5 63 q-25 37.5 -25 95.5 q0 82 57 130 q57 48 162 48 q61 0 111 -9 q50 -9 78 -23 l-25 -73 q-23 11 -67.5 21 q-44.5 10 -100.5 10 q-66 0 -99 -29.5 q-33 -29.5 -33 -69.5 q0 -39 25 -65 q25 -26 62.5 -46.5 q37.5 -20.5 81.5 -40.5 q44 -20 81.5 -46.5 q37.5 -26.5 62.5 -63.5 q25 -37 25 -92 q0 -79 -49 -130 q-49 -51 -137 -63 l-19 -35 q42 -8 60.5 -26 q18.5 -18 18.5 -49 q0 -39 -32 -64.5 q-32 -25.5 -90 -25.5 q-11 0 -22 1 q-11 1 -23 3 l9 39 q6 -1 11 -1 q5 0 10 0 q22 0 34.5 4 q12.5 4 19 9.5 q6.5 5.5 8 12.5 q1.5 7 1.5 13 q0 28 -86 37 l41 78 q-72 1 -119.5 12 q-47.5 11 -73.5 25 l28 75 q23 -13 68 -25.5 q45 -12.5 101 -12.5 q33 0 62 6.5 q29 6.5 50 21 q21 14.5 33.5 36.5 q12.5 22 12.5 52 Z" /><glyph glyph-name="scedilla" unicode="&#x15f;" d="M297 136 q0 30 -18 47 q-18 17 -44.5 28.5 q-26.5 11.5 -58 22 q-31.5 10.5 -58 27 q-26.5 16.5 -44.5 42.5 q-18 26 -18 70 q0 72 41 105.5 q41 33.5 114 33.5 q54 0 90.5 -9.5 q36.5 -9.5 63.5 -22.5 l-19 -65 q-23 11 -55.5 19 q-32.5 8 -69.5 8 q-44 0 -64.5 -15 q-20.5 -15 -20.5 -52 q0 -26 18 -40.5 q18 -14.5 44.5 -26 q26.5 -11.5 58 -22.5 q31.5 -11 58 -29 q26.5 -18 44.5 -45.5 q18 -27.5 18 -72.5 q0 -59 -35 -100 q-35 -41 -107 -49 l-18 -33 q42 -8 60.5 -26 q18.5 -18 18.5 -49 q0 -39 -32 -64.5 q-32 -25.5 -90 -25.5 q-11 0 -22 1 q-11 1 -23 3 l9 39 q6 -1 11 -1 q5 0 10 0 q22 0 34.5 4 q12.5 4 19 9.5 q6.5 5.5 8 12.5 q1.5 7 1.5 13 q0 28 -86 37 l42 79 q-47 2 -81 12 q-34 10 -58 24 l24 67 q23 -12 60 -22.5 q37 -10.5 75 -10.5 q43 0 71 16.5 q28 16.5 28 60.5 Z" /><glyph glyph-name="Tcedilla" unicode="&#x162;" d="M236 0 l0 626 l-218 0 l0 74 l519 0 l0 -74 l-218 0 l0 -626 l-12 0 l-24 -43 q42 -8 60.5 -26 q18.5 -18 18.5 -49 q0 -39 -32 -64.5 q-32 -25.5 -90 -25.5 q-11 0 -22 1 q-11 1 -23 3 l9 39 q6 -1 11 -1 q5 0 10 0 q22 0 34.5 4 q12.5 4 19 9.5 q6.5 5.5 8 12.5 q1.5 7 1.5 13 q0 28 -86 37 l48 90 l-14 0 Z" /><glyph glyph-name="tcedilla" unicode="&#x163;" d="M11 500 l78 0 l0 99 l80 23 l0 -122 l136 0 l0 -70 l-136 0 l0 -277 q0 -52 13 -73.5 q13 -21.5 44 -21.5 q26 0 44 5 q18 5 40 14 l18 -60 q-23 -11 -48 -18.5 q-25 -7.5 -54 -10.5 l-17 -31 q42 -8 60.5 -26 q18.5 -18 18.5 -49 q0 -39 -32 -64.5 q-32 -25.5 -90 -25.5 q-11 0 -22 1 q-11 1 -23 3 l9 39 q6 -1 11 -1 q5 0 10 0 q22 0 34.5 4 q12.5 4 19 9.5 q6.5 5.5 8 12.5 q1.5 7 1.5 13 q0 28 -86 37 l42 80 q-45 8 -63 43 q-18 35 -18 105 l0 292 l-78 0 l0 70 Z" /><glyph glyph-name="Uogonek" unicode="&#x172;" d="M487 700 l80 0 l0 -467 q-2 -97 -38 -152.5 q-36 -55.5 -101 -76.5 q-30 -16 -46 -39 q-16 -23 -16 -52 q1 -21 14 -35.5 q13 -14.5 37 -15.5 q21 0 41 9 l11 -43 q-14 -11 -38 -17 q-24 -6 -47 -6 q-45 0 -72.5 24 q-27.5 24 -27.5 65 q0 30 16 55 q16 25 44 42 l-9 0 q-124 0 -187 56 q-63 56 -63 170 l0 483 l83 0 l0 -444 q0 -53 10.5 -89.5 q10.5 -36.5 31.5 -59 q21 -22.5 52.5 -32.5 q31.5 -10 73.5 -10 q80 0 115 44.5 q35 44.5 36 146.5 l0 444 Z" /><glyph glyph-name="uogonek" unicode="&#x173;" d="M149 500 l0 -285 q0 -39 4.5 -68.5 q4.5 -29.5 15.5 -49 q11 -19.5 30 -29.5 q19 -10 48 -10 q27 0 48 8.5 q21 8.5 37.5 23.5 q16.5 15 29 34.5 q12.5 19.5 20.5 41.5 l0 334 l80 0 l0 -358 q0 -36 2.5 -74.5 q2.5 -38.5 8.5 -67.5 l-18 0 q-30 -12 -46.5 -36 q-16.5 -24 -14.5 -55 q3 -21 15.5 -34 q12.5 -13 37.5 -13 q19 0 39 9 l11 -43 q-15 -12 -39.5 -17.5 q-24.5 -5.5 -45.5 -5.5 q-44 0 -70.5 21.5 q-26.5 21.5 -29.5 63.5 q0 41 25.5 71 q25.5 30 76.5 49 l-17 69 l-5 0 q-22 -39 -62.5 -65 q-40.5 -26 -97.5 -26 q-40 0 -70.5 9.5 q-30.5 9.5 -51 33.5 q-20.5 24 -31 64.5 q-10.5 40.5 -10.5 102.5 l0 302 l80 0 Z" /><glyph glyph-name="longs" unicode="&#x17f;" d="M22 500 l78 0 l0 28 q0 93 32 135.5 q32 42.5 112 42.5 q32 0 56 -4 q24 -4 51 -15 l-18 -67 q-23 10 -43.5 13 q-20.5 3 -38.5 3 q-24 0 -38.5 -6.5 q-14.5 -6.5 -21.5 -20 q-7 -13.5 -9 -34 q-2 -20.5 -2 -46.5 l0 -529 l-80 0 l0 431 l-78 0 l0 69 Z" /><glyph glyph-name="florin" unicode="&#x192;" d="M316 430 l-79 -464 q-6 -37 -17 -68.5 q-11 -31.5 -29.5 -55 q-18.5 -23.5 -45.5 -37 q-27 -13.5 -64 -13.5 q-29 0 -60 7 q-31 7 -55 17 l21 66 q23 -10 43.5 -15 q20.5 -5 44.5 -5 q38 0 57.5 33.5 q19.5 33.5 32.5 112.5 l68 422 l-85 0 l0 70 l96 0 l11 67 q12 74 43.5 109.5 q31.5 35.5 103.5 35.5 q33 0 64.5 -7 q31.5 -7 56.5 -18 l-23 -65 q-48 20 -92 20 q-19 0 -31 -5.5 q-12 -5.5 -20 -17 q-8 -11.5 -13.5 -31 q-5.5 -19.5 -9.5 -47.5 l-7 -41 l120 0 l0 -70 l-131 0 Z" /><glyph glyph-name="uni0237" unicode="&#x237;" d="M93 500 l80 0 l0 -527 q0 -93 -32 -139 q-32 -46 -102 -46 q-8 0 -15 0.5 q-7 0.5 -15 1.5 l0 68 q28 0 44.5 8.5 q16.5 8.5 25.5 26.5 q9 18 11.5 45.5 q2.5 27.5 2.5 64.5 l0 497 Z" /><glyph glyph-name="circumflex" unicode="&#x2c6;" d="M183 732 l32 0 l111 -182 l-72 0 l-39 66 l-21 58 l-22 -58 l-45 -66 l-67 0 l123 182 Z" /><glyph glyph-name="caron" unicode="&#x2c7;" d="M212 550 l-37 0 l-115 182 l78 0 l39 -66 l21 -58 l22 58 l45 66 l70 0 l-123 -182 Z" /><glyph glyph-name="breve" unicode="&#x2d8;" d="M105 720 q18 -36 48 -56.5 q30 -20.5 64 -20.5 q34 0 61.5 20 q27.5 20 44.5 57 l42 -18 q-3 -24 -15.5 -47.5 q-12.5 -23.5 -32 -41.5 q-19.5 -18 -45.5 -29 q-26 -11 -56 -11 q-28 0 -53 8.5 q-25 8.5 -45.5 25 q-20.5 16.5 -35.5 39 q-15 22.5 -22 51.5 l45 23 Z" /><glyph glyph-name="dotaccent" unicode="&#x2d9;" d="M60 652 q0 23 15.5 39.5 q15.5 16.5 39.5 16.5 q24 0 41 -16.5 q17 -16.5 17 -39.5 q0 -23 -17 -38 q-17 -15 -41 -15 q-24 0 -39.5 15 q-15.5 15 -15.5 38 Z" /><glyph glyph-name="ring" unicode="&#x2da;" d="M60 643 q0 42 26.5 66.5 q26.5 24.5 70.5 24.5 q42 0 70 -22 q28 -22 28 -69 q0 -39 -28 -64.5 q-28 -25.5 -70 -25.5 q-42 0 -69.5 23.5 q-27.5 23.5 -27.5 66.5 ZM114 643 q0 -20 13 -31 q13 -11 30 -11 q19 0 31.5 10 q12.5 10 12.5 32 q0 22 -13.5 32.5 q-13.5 10.5 -30.5 10.5 q-17 0 -30 -10 q-13 -10 -13 -33 Z" /><glyph glyph-name="ogonek" unicode="&#x2db;" d="M218 10 q-35 -16 -55 -40.5 q-20 -24.5 -20 -56.5 q0 -20 13 -35.5 q13 -15.5 38 -15.5 q19 0 40 10 l11 -43 q-15 -12 -40 -18 q-25 -6 -46 -6 q-45 0 -72 24 q-27 24 -27 65 q0 41 27.5 70 q27.5 29 75.5 46 l55 0 Z" /><glyph glyph-name="tilde" unicode="&#x2dc;" d="M60 656 q29 33 53 45.5 q24 12.5 44 12.5 q17 0 31.5 -6.5 q14.5 -6.5 28 -14 q13.5 -7.5 26 -13.5 q12.5 -6 26.5 -6 q22 0 46 24 l24 -43 q-26 -29 -47.5 -39.5 q-21.5 -10.5 -39.5 -10.5 q-16 0 -30 6 q-14 6 -27.5 13.5 q-13.5 7.5 -27 14 q-13.5 6.5 -27.5 6.5 q-13 0 -26.5 -7 q-13.5 -7 -30.5 -24 l-23 42 Z" /><glyph glyph-name="hungarumlaut" unicode="&#x2dd;" d="M95 700 l78 0 l0 -16 l-71 -113 l-42 0 l35 129 ZM241 700 l86 0 l0 -16 l-114 -113 l-45 0 l73 129 Z" /><glyph glyph-name="Delta" unicode="&#x394;&#x2206;" d="M14 0 l0 37 l254 674 l34 0 l256 -674 l0 -37 l-544 0 ZM106 72 l355 0 l-155 403 l-24 105 l-1 0 l-28 -107 l-147 -401 Z" /><glyph glyph-name="Omega" unicode="&#x3a9;&#x2126;" d="M76 70 l116 0 l94 -10 l0 26 l-54 10 q-32 15 -60.5 41.5 q-28.5 26.5 -49.5 62 q-21 35.5 -33.5 80 q-12.5 44.5 -12.5 96.5 q0 78 23 140 q23 62 65 105.5 q42 43.5 102 67 q60 23.5 134 23.5 q78 0 138.5 -25 q60.5 -25 102.5 -70 q42 -45 63.5 -107.5 q21.5 -62.5 21.5 -137.5 q0 -54 -14 -98 q-14 -44 -36.5 -78.5 q-22.5 -34.5 -50 -59 q-27.5 -24.5 -54.5 -39.5 l-57 -11 l0 -26 l96 10 l116 0 l0 -70 l-287 0 l0 125 q30 6 64.5 22 q34.5 16 64.5 45.5 q30 29.5 50 75 q20 45.5 20 109.5 q0 48 -13.5 94.5 q-13.5 46.5 -42.5 83.5 q-29 37 -74.5 60 q-45.5 23 -108.5 23 q-113 0 -174 -66.5 q-61 -66.5 -61 -197.5 q0 -63 18.5 -107.5 q18.5 -44.5 47.5 -74.5 q29 -30 64 -46 q35 -16 68 -21 l0 -125 l-286 0 l0 70 Z" /><glyph glyph-name="pi" unicode="&#x3c0;" d="M514 116 q0 -28 9 -39 q9 -11 23 -11 q10 0 22.5 2 q12.5 2 21.5 4 l19 -54 q-16 -7 -39.5 -14.5 q-23.5 -7.5 -53.5 -7.5 q-50 0 -66 29 q-16 29 -16 81 l0 324 l-190 0 l0 -430 l-80 0 l0 430 l-14 0 q-21 0 -34 -11.5 q-13 -11.5 -27 -33.5 l-53 32 q19 38 47 60.5 q28 22.5 81 22.5 l433 0 l0 -70 l-83 0 l0 -314 Z" /><glyph glyph-name="afii10051" unicode="&#x402;" d="M319 0 l-83 0 l0 626 l-218 0 l0 74 l519 0 l0 -74 l-218 0 l0 -211 q12 4 47.5 12.5 q35.5 8.5 91.5 8.5 q40 0 78.5 -9.5 q38.5 -9.5 68.5 -33.5 q30 -24 48.5 -64.5 q18.5 -40.5 18.5 -102.5 q0 -120 -61 -177 q-61 -57 -172 -57 q-33 0 -47.5 0.5 q-14.5 0.5 -22.5 2.5 l0 72 q13 -2 28.5 -2.5 q15.5 -0.5 44.5 -0.5 q142 0 142 156 q0 42 -12 70 q-12 28 -32.5 44.5 q-20.5 16.5 -48 23 q-27.5 6.5 -59.5 6.5 q-18 0 -35.5 -2.5 q-17.5 -2.5 -33 -6 q-15.5 -3.5 -27 -7.5 q-11.5 -4 -17.5 -6 l0 -342 Z" /><glyph glyph-name="afii10053" unicode="&#x404;" d="M544 29 q-30 -23 -78.5 -32 q-48.5 -9 -100.5 -9 q-63 0 -119 21.5 q-56 21.5 -98.5 65.5 q-42.5 44 -67 112.5 q-24.5 68.5 -24.5 162.5 q0 98 27.5 166.5 q27.5 68.5 71.5 112 q44 43.5 99 63.5 q55 20 111 20 q60 0 101 -6.5 q41 -6.5 68 -17.5 l-20 -74 q-23 11 -60 17.5 q-37 6.5 -82 6.5 q-39 0 -76.5 -12.5 q-37.5 -12.5 -69 -41 q-31.5 -28.5 -53 -74.5 q-21.5 -46 -28.5 -112 l306 0 l0 -74 l-307 0 q3 -66 23.5 -115 q20.5 -49 53 -81.5 q32.5 -32.5 74.5 -49 q42 -16.5 89 -16.5 q45 0 81 9 q36 9 58 23 l21 -65 Z" /><glyph glyph-name="afii10056" unicode="&#x407;" d="M32 793 q0 22 14.5 35 q14.5 13 36.5 13 q21 0 35.5 -13 q14.5 -13 14.5 -35 q0 -22 -14.5 -34.5 q-14.5 -12.5 -35.5 -12.5 q-22 0 -36.5 12.5 q-14.5 12.5 -14.5 34.5 ZM161 793 q0 22 14.5 35 q14.5 13 35.5 13 q22 0 36.5 -13 q14.5 -13 14.5 -35 q0 -22 -14.5 -34.5 q-14.5 -12.5 -36.5 -12.5 q-21 0 -35.5 12.5 q-14.5 12.5 -14.5 34.5 ZM105 700 l83 0 l0 -700 l-83 0 l0 700 Z" /><glyph glyph-name="afii10058" unicode="&#x409;" d="M456 626 l-209 0 q-10 -200 -26.5 -332.5 q-16.5 -132.5 -49.5 -206.5 q-22 -48 -52 -70 q-30 -22 -65 -22 q-18 0 -31 2.5 q-13 2.5 -25 7.5 l11 72 q10 -3 21 -3 q17 0 33.5 11 q16.5 11 32.5 41 q14 27 26.5 72 q12.5 45 22 114 q9.5 69 15.5 164.5 q6 95.5 9 223.5 l370 0 l0 -272 q5 1 17 2.5 q12 1.5 26 2.5 q14 1 29 2 q15 1 27 1 q48 0 93.5 -9.5 q45.5 -9.5 81 -33.5 q35.5 -24 57.5 -64.5 q22 -40.5 22 -102.5 q0 -60 -21 -104 q-21 -44 -58 -73 q-37 -29 -86.5 -43 q-49.5 -14 -107.5 -14 q-14 0 -34 0.5 q-20 0.5 -42.5 2 q-22.5 1.5 -45 4.5 q-22.5 3 -41.5 8 l0 619 ZM630 64 q36 0 67.5 9.5 q31.5 9.5 55.5 29 q24 19.5 37.5 49 q13.5 29.5 13.5 68.5 q0 42 -15 70 q-15 28 -39.5 44.5 q-24.5 16.5 -56.5 23 q-32 6.5 -66 6.5 q-9 0 -22 -1 q-13 -1 -26 -2 q-13 -1 -24 -3 q-11 -2 -16 -3 l0 -285 q14 -3 40 -4.5 q26 -1.5 51 -1.5 Z" /><glyph glyph-name="afii10059" unicode="&#x40a;" d="M504 336 l-336 0 l0 -336 l-83 0 l0 700 l83 0 l0 -290 l336 0 l0 290 l83 0 l0 -291 q5 1 17 2.5 q12 1.5 26.5 2.5 q14.5 1 29.5 2 q15 1 27 1 q47 0 92.5 -8 q45.5 -8 81 -30 q35.5 -22 57.5 -61 q22 -39 22 -101 q0 -60 -21 -103 q-21 -43 -58 -70 q-37 -27 -86.5 -39.5 q-49.5 -12.5 -107.5 -12.5 q-14 0 -34 0.5 q-20 0.5 -42.5 2 q-22.5 1.5 -45 4.5 q-22.5 3 -41.5 7 l0 330 ZM678 64 q36 0 68 8 q32 8 55.5 26 q23.5 18 37 45.5 q13.5 27.5 13.5 66.5 q0 42 -14.5 68.5 q-14.5 26.5 -39 41.5 q-24.5 15 -56.5 20 q-32 5 -67 5 q-9 0 -22 -1 q-13 -1 -26 -2 q-13 -1 -24 -3 q-11 -2 -16 -3 l0 -266 q14 -3 40 -4.5 q26 -1.5 51 -1.5 Z" /><glyph glyph-name="afii10060" unicode="&#x40b;" d="M319 0 l-83 0 l0 626 l-218 0 l0 74 l519 0 l0 -74 l-218 0 l0 -231 q27 15 71.5 30 q44.5 15 100.5 15 q42 0 77.5 -9.5 q35.5 -9.5 60.5 -32 q25 -22.5 39 -60.5 q14 -38 14 -94 l0 -244 l-83 0 l0 229 q0 137 -124 137 q-48 0 -89 -12.5 q-41 -12.5 -67 -33.5 l0 -320 Z" /><glyph glyph-name="afii10145" unicode="&#x40f;" d="M85 0 l0 700 l83 0 l0 -626 l323 0 l0 626 l83 0 l0 -700 l-202 0 l-15 -179 l-52 0 l-20 179 l-200 0 Z" /><glyph glyph-name="afii10018" unicode="&#x411;" d="M85 700 l380 0 l0 -74 l-297 0 l0 -210 q17 3 42 6 q25 3 48 3 q51 0 97 -9.5 q46 -9.5 81 -32.5 q35 -23 55.5 -62.5 q20.5 -39.5 20.5 -99.5 q0 -60 -21 -103.5 q-21 -43.5 -56 -71 q-35 -27.5 -81.5 -41 q-46.5 -13.5 -97.5 -13.5 q-17 0 -38.5 0.5 q-21.5 0.5 -45 2.5 q-23.5 2 -46 4.5 q-22.5 2.5 -41.5 7.5 l0 693 ZM266 64 q32 0 61 9 q29 9 50.5 26.5 q21.5 17.5 34 44.5 q12.5 27 12.5 63 q0 46 -14.5 74.5 q-14.5 28.5 -38.5 44.5 q-24 16 -55.5 21.5 q-31.5 5.5 -65.5 5.5 q-9 0 -21 -1 q-12 -1 -24 -2 q-12 -1 -22 -2.5 q-10 -1.5 -15 -2.5 l0 -275 q7 -2 18.5 -3 q11.5 -1 25 -2 q13.5 -1 27.5 -1 q14 0 27 0 Z" /><glyph glyph-name="afii10020" unicode="&#x413;" d="M460 626 l-292 0 l0 -626 l-83 0 l0 700 l375 0 l0 -74 Z" /><glyph glyph-name="afii10021" unicode="&#x414;" d="M641 -129 l-57 0 l-15 129 l-491 0 l-15 -129 l-58 0 l0 203 l71 0 q8 11 24.5 51.5 q16.5 40.5 33 116 q16.5 75.5 29.5 189 q13 113.5 13 269.5 l374 0 l0 -626 l91 0 l0 -203 ZM467 74 l0 552 l-213 0 q-3 -110 -11.5 -198 q-8.5 -88 -20.5 -155.5 q-12 -67.5 -27 -116.5 q-15 -49 -31 -82 l303 0 Z" /><glyph glyph-name="afii10024" unicode="&#x416;" d="M358 700 l80 0 l0 -326 l43 14 l203 312 l92 0 l-202 -304 l-40 -32 l50 -41 l223 -323 l-102 0 l-221 324 l-46 0 l0 -324 l-80 0 l0 336 l-42 -14 l-221 -322 l-96 0 l221 313 l48 38 l-46 35 l-209 314 l97 0 l203 -314 l45 0 l0 314 Z" /><glyph glyph-name="afii10025" unicode="&#x417;" d="M139 331 l0 70 l16 0 q9 0 22 0 q13 0 26.5 1 q13.5 1 26 1.5 q12.5 0.5 20.5 2.5 q26 4 49 13.5 q23 9.5 40 24.5 q17 15 27 35 q10 20 10 44 q0 33 -11 55 q-11 22 -30.5 35.5 q-19.5 13.5 -45 19 q-25.5 5.5 -54.5 5.5 q-54 0 -92 -7.5 q-38 -7.5 -61 -18.5 l-22 66 q20 11 72 22.5 q52 11.5 117 11.5 q40 0 78.5 -8.5 q38.5 -8.5 69 -28 q30.5 -19.5 49 -53 q18.5 -33.5 18.5 -82.5 q0 -50 -33 -95.5 q-33 -45.5 -99 -65.5 l0 -4 q71 -10 112 -53 q41 -43 41 -115 q0 -57 -22.5 -98.5 q-22.5 -41.5 -59 -68.5 q-36.5 -27 -84 -39.5 q-47.5 -12.5 -96.5 -12.5 q-66 0 -108.5 7.5 q-42.5 7.5 -70.5 18.5 l21 75 q23 -11 64.5 -19 q41.5 -8 100.5 -8 q31 0 61 8.5 q30 8.5 53.5 26 q23.5 17.5 38 43.5 q14.5 26 14.5 62 q0 63 -44 92.5 q-44 29.5 -115 34.5 q-12 1 -22.5 1.5 q-10.5 0.5 -21.5 0.5 l-55 0 Z" /><glyph glyph-name="afii10026" unicode="&#x418;" d="M513 474 l6 80 l-4 0 l-43 -82 l-338 -472 l-49 0 l0 700 l83 0 l0 -480 l-7 -79 l4 0 l44 82 l338 477 l49 0 l0 -700 l-83 0 l0 474 Z" /><glyph glyph-name="afii10029" unicode="&#x41b;" d="M456 626 l-209 0 q-10 -200 -26.5 -332.5 q-16.5 -132.5 -49.5 -206.5 q-22 -48 -52 -70 q-30 -22 -65 -22 q-18 0 -31 2.5 q-13 2.5 -25 7.5 l11 72 q10 -3 21 -3 q17 0 33.5 11 q16.5 11 32.5 41 q14 27 26.5 72 q12.5 45 22 114 q9.5 69 15.5 164.5 q6 95.5 9 223.5 l370 0 l0 -700 l-83 0 l0 626 Z" /><glyph glyph-name="afii10033" unicode="&#x41f;" d="M491 626 l-323 0 l0 -626 l-83 0 l0 700 l489 0 l0 -700 l-83 0 l0 626 Z" /><glyph glyph-name="afii10037" unicode="&#x423;" d="M282 331 l26 -89 l5 0 l20 92 l134 366 l85 0 l-177 -455 q-27 -71 -47.5 -118.5 q-20.5 -47.5 -41.5 -77 q-21 -29.5 -45 -42 q-24 -12.5 -59 -12.5 q-33 0 -52.5 5.5 q-19.5 5.5 -36.5 16.5 l25 69 q20 -11 37 -14 q17 -3 31 -3 q28 0 47 28.5 q19 28.5 33 84.5 l-259 518 l96 0 l179 -369 Z" /><glyph glyph-name="afii10038" unicode="&#x424;" d="M349 78 q-17 -3 -39.5 -4 q-22.5 -1 -42.5 -1 q-47 0 -88.5 16 q-41.5 16 -72 50 q-30.5 34 -48 86.5 q-17.5 52.5 -17.5 124.5 q0 68 17.5 121.5 q17.5 53.5 50 90.5 q32.5 37 77.5 56.5 q45 19.5 100 19.5 q13 0 32.5 -1 q19.5 -1 30.5 -3 l0 86 l82 0 l0 -89 q18 5 42.5 6 q24.5 1 40.5 1 q48 0 89 -17.5 q41 -17.5 71.5 -52 q30.5 -34.5 47.5 -87 q17 -52.5 17 -121.5 q0 -71 -19.5 -125 q-19.5 -54 -52.5 -90 q-33 -36 -77 -54 q-44 -18 -94 -18 q-11 0 -32.5 1.5 q-21.5 1.5 -32.5 5.5 l0 -100 l-82 0 l0 98 ZM502 568 q-14 0 -36 -1 q-22 -1 -36 -6 l0 -415 q10 -2 26.5 -2.5 q16.5 -0.5 32.5 -0.5 q34 0 63.5 13 q29.5 13 52 40 q22.5 27 35.5 68 q13 41 13 96 q0 46 -10.5 84.5 q-10.5 38.5 -30 66.5 q-19.5 28 -47.5 42.5 q-28 14.5 -63 14.5 ZM282 143 q5 0 13.5 0 q8.5 0 18.5 0.5 q10 0.5 19.5 2 q9.5 1.5 16.5 3.5 l0 415 q-12 2 -29.5 3 q-17.5 1 -31.5 1 q-34 0 -63.5 -13.5 q-29.5 -13.5 -51.5 -41 q-22 -27.5 -34.5 -68.5 q-12.5 -41 -12.5 -95 q0 -48 11 -86.5 q11 -38.5 31.5 -65.5 q20.5 -27 49 -41 q28.5 -14 63.5 -14 Z" /><glyph glyph-name="afii10040" unicode="&#x426;" d="M659 -129 l-57 0 l-15 129 l-502 0 l0 700 l83 0 l0 -626 l315 0 l0 626 l83 0 l0 -626 l93 0 l0 -203 Z" /><glyph glyph-name="afii10041" unicode="&#x427;" d="M158 700 l0 -232 q0 -137 124 -137 q47 0 88 12.5 q41 12.5 67 33.5 l0 323 l83 0 l0 -700 l-83 0 l0 302 q-27 -15 -71 -30 q-44 -15 -101 -15 q-42 0 -77 9.5 q-35 9.5 -60 32 q-25 22.5 -39 60.5 q-14 38 -14 94 l0 247 l83 0 Z" /><glyph glyph-name="afii10042" unicode="&#x428;" d="M85 0 l0 700 l83 0 l0 -626 l229 0 l0 626 l83 0 l0 -626 l229 0 l0 626 l83 0 l0 -700 l-707 0 Z" /><glyph glyph-name="afii10043" unicode="&#x429;" d="M85 0 l0 700 l83 0 l0 -626 l229 0 l0 626 l83 0 l0 -626 l229 0 l0 626 l83 0 l0 -626 l93 0 l0 -203 l-58 0 l-15 129 l-727 0 Z" /><glyph glyph-name="afii10044" unicode="&#x42a;" d="M159 626 l-160 0 l0 74 l243 0 l0 -272 q5 1 17 2.5 q12 1.5 26.5 2.5 q14.5 1 29.5 2 q15 1 27 1 q47 0 92.5 -9.5 q45.5 -9.5 81.5 -33.5 q36 -24 58 -64.5 q22 -40.5 22 -102.5 q0 -60 -21 -104 q-21 -44 -58 -73 q-37 -29 -86.5 -43 q-49.5 -14 -107.5 -14 q-14 0 -34 0.5 q-20 0.5 -42.5 2 q-22.5 1.5 -45.5 4.5 q-23 3 -42 8 l0 619 ZM334 64 q36 0 67.5 9.5 q31.5 9.5 55 29 q23.5 19.5 37.5 49 q14 29.5 14 68.5 q0 42 -15 70 q-15 28 -40 44.5 q-25 16.5 -57 23 q-32 6.5 -66 6.5 q-9 0 -22 -1 q-13 -1 -26 -2 q-13 -1 -24 -3 q-11 -2 -16 -3 l0 -285 q14 -3 40 -4.5 q26 -1.5 52 -1.5 Z" /><glyph glyph-name="afii10045" unicode="&#x42b;" d="M601 700 l83 0 l0 -700 l-83 0 l0 700 ZM85 700 l83 0 l0 -272 q5 1 15 2.5 q10 1.5 22 2.5 q12 1 24.5 2 q12.5 1 24.5 1 q47 0 91.5 -9.5 q44.5 -9.5 78.5 -33.5 q34 -24 54.5 -64.5 q20.5 -40.5 20.5 -102.5 q0 -60 -19 -104.5 q-19 -44.5 -53.5 -73 q-34.5 -28.5 -82.5 -42.5 q-48 -14 -106 -14 q-14 0 -32.5 0.5 q-18.5 0.5 -39 2 q-20.5 1.5 -41.5 4.5 q-21 3 -40 8 l0 693 ZM245 64 q72 0 119 39 q47 39 47 117 q0 42 -14 70 q-14 28 -37.5 44.5 q-23.5 16.5 -54 23 q-30.5 6.5 -64.5 6.5 q-18 0 -40 -3 q-22 -3 -33 -6 l0 -285 q27 -6 77 -6 Z" /><glyph glyph-name="afii10046" unicode="&#x42c;" d="M85 700 l83 0 l0 -272 q5 1 17 2.5 q12 1.5 26 2.5 q14 1 29 2 q15 1 27 1 q48 0 93.5 -9.5 q45.5 -9.5 81 -33.5 q35.5 -24 57.5 -64.5 q22 -40.5 22 -102.5 q0 -60 -21 -104 q-21 -44 -58 -73 q-37 -29 -86.5 -43 q-49.5 -14 -107.5 -14 q-14 0 -34 0.5 q-20 0.5 -42.5 2 q-22.5 1.5 -45 4.5 q-22.5 3 -41.5 8 l0 693 ZM259 64 q36 0 67.5 9.5 q31.5 9.5 55.5 29 q24 19.5 37.5 49 q13.5 29.5 13.5 68.5 q0 42 -15 70 q-15 28 -39.5 44.5 q-24.5 16.5 -56.5 23 q-32 6.5 -66 6.5 q-9 0 -22 -1 q-13 -1 -26 -2 q-13 -1 -24 -3 q-11 -2 -16 -3 l0 -285 q14 -3 40 -4.5 q26 -1.5 51 -1.5 Z" /><glyph glyph-name="afii10047" unicode="&#x42d;" d="M150 395 l288 0 q-5 61 -24 107.5 q-19 46.5 -49 77 q-30 30.5 -69.5 44.5 q-39.5 14 -85.5 14 q-47 0 -83.5 -8 q-36.5 -8 -59.5 -22 l-22 65 q31 18 77 28.5 q46 10.5 98 10.5 q64 0 119 -20 q55 -20 95.5 -63.5 q40.5 -43.5 63.5 -112.5 q23 -69 23 -166 q0 -98 -26 -167 q-26 -69 -70.5 -112.5 q-44.5 -43.5 -103 -63 q-58.5 -19.5 -122.5 -19.5 q-50 0 -88.5 7 q-38.5 7 -65.5 18 l22 73 q23 -11 60 -17.5 q37 -6.5 77 -6.5 q40 0 80.5 12.5 q40.5 12.5 73.5 43.5 q33 31 55 81 q22 50 26 122 l-289 0 l0 74 Z" /><glyph glyph-name="afii10048" unicode="&#x42e;" d="M168 395 l124 0 q8 153 77 235 q69 82 197 82 q73 0 125 -26 q52 -26 84 -73.5 q32 -47.5 47 -114 q15 -66.5 15 -148.5 q0 -175 -67 -268.5 q-67 -93.5 -204 -93.5 q-69 0 -120 23.5 q-51 23.5 -84.5 67 q-33.5 43.5 -50.5 105 q-17 61.5 -20 137.5 l-123 0 l0 -321 l-83 0 l0 700 l83 0 l0 -305 ZM379 350 q0 -58 10 -110 q10 -52 32 -91.5 q22 -39.5 57.5 -63 q35.5 -23.5 87.5 -23.5 q93 0 138 70 q45 70 45 218 q0 57 -9 109.5 q-9 52.5 -30.5 92 q-21.5 39.5 -56.5 63 q-35 23.5 -87 23.5 q-93 0 -140 -70.5 q-47 -70.5 -47 -217.5 Z" /><glyph glyph-name="afii10049" unicode="&#x42f;" d="M484 0 l-83 0 l0 305 l-103 -22 l-174 -283 l-98 0 l156 249 l61 43 q-36 8 -66.5 24.5 q-30.5 16.5 -53 42 q-22.5 25.5 -35 59.5 q-12.5 34 -12.5 78 q0 61 20.5 101.5 q20.5 40.5 56 65 q35.5 24.5 83 35 q47.5 10.5 100.5 10.5 q34 0 72.5 -3 q38.5 -3 75.5 -12 l0 -693 ZM332 636 q-33 0 -63 -6.5 q-30 -6.5 -53.5 -22.5 q-23.5 -16 -37.5 -43 q-14 -27 -14 -68 q0 -38 13.5 -65 q13.5 -27 36.5 -44.5 q23 -17.5 53.5 -25.5 q30.5 -8 65.5 -8 l68 0 l0 277 q-14 3 -29 4.5 q-15 1.5 -40 1.5 Z" /><glyph glyph-name="afii10066" unicode="&#x431;" d="M123 411 q33 48 73 67.5 q40 19.5 100 19.5 q92 0 141.5 -60 q49.5 -60 49.5 -177 q0 -135 -57.5 -204 q-57.5 -69 -160.5 -69 q-110 0 -165 76 q-55 76 -55 239 q0 86 8.5 147 q8.5 61 25 103 q16.5 42 40 67 q23.5 25 53 39.5 q29.5 14.5 64.5 20.5 q35 6 75 10 q52 5 81.5 11.5 q29.5 6.5 47.5 23.5 l9 -72 q-10 -9 -22 -15 q-12 -6 -29 -10 q-17 -4 -40.5 -7 q-23.5 -3 -54.5 -5 q-43 -3 -75.5 -10.5 q-32.5 -7.5 -56 -29 q-23.5 -21.5 -37 -61 q-13.5 -39.5 -18.5 -104.5 l3 0 ZM132 249 q0 -38 8 -73 q8 -35 24.5 -61.5 q16.5 -26.5 42.5 -41.5 q26 -15 61 -15 q69 0 102.5 49.5 q33.5 49.5 33.5 146.5 q0 38 -7 70 q-7 32 -22 55.5 q-15 23.5 -38 36 q-23 12.5 -55 12.5 q-78 1 -114 -45.5 q-36 -46.5 -36 -133.5 Z" /><glyph glyph-name="afii10067" unicode="&#x432;" d="M77 499 q35 2 73.5 5 q38.5 3 95.5 3 q99 0 142 -30.5 q43 -30.5 43 -92.5 q0 -35 -20.5 -68.5 q-20.5 -33.5 -67.5 -49.5 l0 -4 q59 -11 83 -41 q24 -30 24 -80 q0 -78 -56 -113 q-56 -35 -168 -35 q-42 0 -78 2.5 q-36 2.5 -71 5.5 l0 498 ZM157 67 q19 -2 37.5 -3 q18.5 -1 43.5 -1 q67 0 99.5 19 q32.5 19 32.5 65 q0 36 -27.5 58.5 q-27.5 22.5 -97.5 22.5 l-88 0 l0 -161 ZM255 289 q18 0 35 6 q17 6 30.5 16.5 q13.5 10.5 22 24.5 q8.5 14 8.5 30 q0 40 -24 55.5 q-24 15.5 -84 15.5 q-32 0 -50.5 -1 q-18.5 -1 -35.5 -2 l0 -145 l98 0 Z" /><glyph glyph-name="afii10068" unicode="&#x433;" d="M369 430 l-212 0 l0 -430 l-80 0 l0 500 l292 0 l0 -70 Z" /><glyph glyph-name="afii10069" unicode="&#x434;" d="M519 -127 l-54 0 l-15 127 l-376 0 l-15 -127 l-54 0 l0 197 l59 0 q8 11 21 39.5 q13 28.5 25.5 80 q12.5 51.5 22 128 q9.5 76.5 11.5 182.5 l302 0 l0 -430 l73 0 l0 -197 ZM366 70 l0 360 l-150 0 q-2 -42 -7 -91.5 q-5 -49.5 -13.5 -99 q-8.5 -49.5 -21.5 -93.5 q-13 -44 -30 -76 l222 0 Z" /><glyph glyph-name="afii10072" unicode="&#x436;" d="M240 221 l-147 -221 l-92 0 l158 229 l34 30 l-51 38 l-130 203 l85 0 l138 -216 l52 0 l0 216 l78 0 l0 -226 l47 14 l139 212 l84 0 l-136 -203 l-39 -32 l51 -40 l148 -225 l-95 0 l-147 225 l-52 0 l0 -225 l-78 0 l0 235 l-47 -14 Z" /><glyph glyph-name="afii10073" unicode="&#x437;" d="M125 223 l0 65 l70 0 q18 0 35.5 6 q17.5 6 31.5 16.5 q14 10.5 22.5 25 q8.5 14.5 8.5 30.5 q0 39 -27 55 q-27 16 -81 16 q-39 0 -71.5 -12 q-32.5 -12 -50.5 -23 l-23 62 q30 17 70.5 30 q40.5 13 96.5 13 q166 0 166 -123 q0 -35 -22.5 -68.5 q-22.5 -33.5 -64.5 -47.5 l0 -4 q59 -11 82.5 -42 q23.5 -31 23.5 -82 q0 -32 -13 -59 q-13 -27 -39 -47 q-26 -20 -65.5 -31.5 q-39.5 -11.5 -91.5 -11.5 q-51 0 -84.5 9 q-33.5 9 -60.5 22 l23 66 q23 -13 55.5 -20 q32.5 -7 70.5 -7 q61 0 93 21 q32 21 32 64 q0 36 -30 56.5 q-30 20.5 -99 20.5 l-58 0 Z" /><glyph glyph-name="afii10074" unicode="&#x438;" d="M389 296 l3 62 l-3 0 l-41 -64 l-225 -294 l-46 0 l0 500 l80 0 l0 -305 l-3 -59 l4 0 l39 62 l225 302 l47 0 l0 -500 l-80 0 l0 296 Z" /><glyph glyph-name="afii10076" unicode="&#x43a;" d="M203 225 l-46 0 l0 -225 l-80 0 l0 500 l80 0 l0 -226 l43 14 l160 212 l87 0 l-155 -201 l-42 -33 l52 -40 l167 -226 l-99 0 l-167 225 Z" /><glyph glyph-name="afii10077" unicode="&#x43b;" d="M346 430 l-145 0 q-3 -42 -6 -90.5 q-3 -48.5 -9 -97 q-6 -48.5 -16 -93 q-10 -44.5 -25.5 -78.5 q-15.5 -34 -38 -54.5 q-22.5 -20.5 -53.5 -20.5 q-19 0 -33 2 q-14 2 -25 7 l12 67 q12 -4 26 -4 q20 0 36 17 q16 17 28 64.5 q12 47.5 20 131.5 q8 84 11 219 l298 0 l0 -500 l-80 0 l0 430 Z" /><glyph glyph-name="afii10078" unicode="&#x43c;" d="M490 297 l6 95 l-5 0 l-36 -77 l-121 -196 l-28 0 l-126 196 l-33 77 l-4 0 l8 -94 l0 -298 l-74 0 l0 500 l79 0 l140 -224 l29 -58 l2 0 l30 60 l131 222 l80 0 l0 -500 l-78 0 l0 297 Z" /><glyph glyph-name="afii10079" unicode="&#x43d;" d="M383 221 l-226 0 l0 -221 l-80 0 l0 500 l80 0 l0 -209 l226 0 l0 209 l80 0 l0 -500 l-80 0 l0 221 Z" /><glyph glyph-name="afii10081" unicode="&#x43f;" d="M378 430 l-221 0 l0 -430 l-80 0 l0 500 l381 0 l0 -500 l-80 0 l0 430 Z" /><glyph glyph-name="afii10084" unicode="&#x442;" d="M396 430 l-157 0 l0 -430 l-80 0 l0 430 l-157 0 l0 70 l394 0 l0 -70 Z" /><glyph glyph-name="afii10086" unicode="&#x444;" d="M302 -4 q-17 -6 -35.5 -7 q-18.5 -1 -33.5 -1 q-91 0 -140 64 q-49 64 -49 198 q0 128 54 193 q54 65 156 65 q28 0 48 -4 l0 196 l76 0 l0 -197 q18 3 32 4 q14 1 27 1 q99 0 149 -57.5 q50 -57.5 50 -190.5 q0 -63 -13.5 -113.5 q-13.5 -50.5 -39.5 -85.5 q-26 -35 -63.5 -54 q-37.5 -19 -86.5 -19 q-9 0 -26.5 1.5 q-17.5 1.5 -28.5 5.5 l0 -195 l-76 0 l0 196 ZM422 442 q-12 0 -21.5 -0.5 q-9.5 -0.5 -23.5 -4.5 l0 -380 q10 -2 22.5 -2.5 q12.5 -0.5 27.5 -0.5 q64 0 96.5 53 q32.5 53 32.5 153 q0 85 -29.5 133.5 q-29.5 48.5 -104.5 48.5 ZM253 54 q12 0 24 1 q12 1 26 4 l0 379 q-12 2 -22.5 3 q-10.5 1 -25.5 1 q-62 0 -96.5 -46.5 q-34.5 -46.5 -34.5 -145.5 q0 -42 7.5 -78 q7.5 -36 23.5 -62.5 q16 -26.5 40.5 -41 q24.5 -14.5 57.5 -14.5 Z" /><glyph glyph-name="afii10088" unicode="&#x446;" d="M526 -127 l-54 0 l-15 127 l-380 0 l0 500 l80 0 l0 -430 l217 0 l0 430 l80 0 l0 -430 l72 0 l0 -197 Z" /><glyph glyph-name="afii10089" unicode="&#x447;" d="M129 500 l0 -136 q0 -27 3 -48.5 q3 -21.5 12 -37 q9 -15.5 26 -24 q17 -8.5 45 -8.5 q45 0 74 10 q29 10 44 22 l0 222 l80 0 l0 -500 l-80 0 l0 210 q-16 -10 -47.5 -22 q-31.5 -12 -86.5 -12 q-37 0 -65 8 q-28 8 -47 28 q-19 20 -28.5 53 q-9.5 33 -9.5 83 l0 152 l80 0 Z" /><glyph glyph-name="afii10090" unicode="&#x448;" d="M77 0 l0 500 l80 0 l0 -430 l171 0 l0 430 l80 0 l0 -430 l171 0 l0 430 l80 0 l0 -500 l-582 0 Z" /><glyph glyph-name="afii10091" unicode="&#x449;" d="M731 -127 l-54 0 l-15 127 l-585 0 l0 500 l80 0 l0 -430 l171 0 l0 430 l80 0 l0 -430 l171 0 l0 430 l80 0 l0 -430 l72 0 l0 -197 Z" /><glyph glyph-name="afii10092" unicode="&#x44a;" d="M191 70 q39 -6 70 -6 q63 0 93 24.5 q30 24.5 30 69.5 q0 40 -29 66 q-29 26 -91 26 q-17 0 -36 -1 q-19 -1 -37 -6 l0 -173 ZM191 309 q24 4 45.5 5.5 q21.5 1.5 41.5 1.5 q52 0 88 -11.5 q36 -11.5 58.5 -31.5 q22.5 -20 32.5 -47.5 q10 -27.5 10 -58.5 q0 -91 -54.5 -132 q-54.5 -41 -169.5 -41 q-33 0 -65 1.5 q-32 1.5 -67 4.5 l0 430 l-110 0 l0 70 l190 0 l0 -191 Z" /><glyph glyph-name="afii10093" unicode="&#x44b;" d="M157 70 q37 -6 71 -6 q63 0 88 24.5 q25 24.5 25 69.5 q0 40 -24.5 66 q-24.5 26 -85.5 26 q-17 0 -37 -1 q-20 -1 -37 -6 l0 -173 ZM157 309 q24 4 46 5.5 q22 1.5 42 1.5 q51 0 85.5 -11.5 q34.5 -11.5 55.5 -31.5 q21 -20 29.5 -47.5 q8.5 -27.5 8.5 -58.5 q0 -91 -50.5 -132 q-50.5 -41 -163.5 -41 q-64 0 -133 6 l0 500 l80 0 l0 -191 ZM503 500 l80 0 l0 -500 l-80 0 l0 500 Z" /><glyph glyph-name="afii10094" unicode="&#x44c;" d="M157 70 q37 -6 71 -6 q63 0 93 24.5 q30 24.5 30 69.5 q0 40 -29 66 q-29 26 -91 26 q-17 0 -37 -1 q-20 -1 -37 -6 l0 -173 ZM157 309 q24 4 46 5.5 q22 1.5 42 1.5 q52 0 88 -11.5 q36 -11.5 58.5 -31.5 q22.5 -20 32.5 -47.5 q10 -27.5 10 -58.5 q0 -91 -54.5 -132 q-54.5 -41 -169.5 -41 q-64 0 -133 6 l0 500 l80 0 l0 -191 Z" /><glyph glyph-name="afii10095" unicode="&#x44d;" d="M121 285 l212 0 q-5 71 -41.5 114 q-36.5 43 -103.5 43 q-41 0 -71.5 -11 q-30.5 -11 -49.5 -24 l-28 61 q31 21 71 32.5 q40 11.5 93 11.5 q111 0 162 -69 q51 -69 51 -193 q0 -128 -59 -195 q-59 -67 -164 -67 q-47 0 -86.5 7.5 q-39.5 7.5 -66.5 22.5 l23 68 q23 -13 56.5 -20.5 q33.5 -7.5 65.5 -7.5 q140 -1 149 161 l-213 0 l0 66 Z" /><glyph glyph-name="afii10096" unicode="&#x44e;" d="M465 -12 q-54 0 -92.5 16.5 q-38.5 16.5 -63 47 q-24.5 30.5 -37 74 q-12.5 43.5 -15.5 95.5 l-100 0 l0 -221 l-80 0 l0 500 l80 0 l0 -209 l101 0 q8 107 58.5 164 q50.5 57 150.5 57 q55 0 93.5 -18.5 q38.5 -18.5 63 -53 q24.5 -34.5 35.5 -83 q11 -48.5 11 -107.5 q0 -127 -50.5 -194.5 q-50.5 -67.5 -154.5 -67.5 ZM336 250 q0 -39 6 -74 q6 -35 21 -61.5 q15 -26.5 40.5 -41.5 q25.5 -15 63.5 -15 q64 0 92 46.5 q28 46.5 28 145.5 q0 39 -5.5 74 q-5.5 35 -19.5 61.5 q-14 26.5 -37 41.5 q-23 15 -59 15 q-69 0 -99.5 -46.5 q-30.5 -46.5 -30.5 -145.5 Z" /><glyph glyph-name="afii10097" unicode="&#x44f;" d="M326 207 l-77 -12 l-132 -195 l-97 0 l120 171 l40 37 q-52 8 -88.5 42 q-36.5 34 -36.5 92 q0 45 15.5 77 q15.5 32 44.5 53 q29 21 69 30.5 q40 9.5 90 9.5 q37 0 69 -5 q32 -5 63 -11 l0 -496 l-80 0 l0 207 ZM326 432 q-13 5 -29 7.5 q-16 2.5 -28 2.5 q-64 0 -97.5 -23 q-33.5 -23 -33.5 -73 q0 -45 35.5 -69.5 q35.5 -24.5 93.5 -24.5 q1 0 3 0 q2 0 8 0 q6 0 17 0.5 q11 0.5 31 1.5 l0 178 Z" /><glyph glyph-name="afii10099" unicode="&#x452;" d="M-2 600 l80 0 l0 100 l80 0 l0 -100 l160 0 l0 -60 l-160 0 l0 -148 l4 0 q26 31 62.5 49.5 q36.5 18.5 90.5 18.5 q42 0 73 -9.5 q31 -9.5 51.5 -33.5 q20.5 -24 30 -64.5 q9.5 -40.5 9.5 -102.5 l0 -277 q0 -93 -32 -139 q-32 -46 -102 -46 q-8 0 -15 0.5 q-7 0.5 -15 1.5 l0 68 q28 0 44.5 8.5 q16.5 8.5 25.5 26 q9 17.5 11.5 44.5 q2.5 27 2.5 63 l0 232 q0 39 -4.5 69 q-4.5 30 -16.5 49.5 q-12 19.5 -32.5 29.5 q-20.5 10 -53.5 10 q-47 0 -85 -30.5 q-38 -30.5 -49 -78.5 l0 -281 l-80 0 l0 540 l-80 0 l0 60 Z" /><glyph glyph-name="afii10101" unicode="&#x454;" d="M438 33 q-30 -22 -73 -33.5 q-43 -11.5 -88 -11.5 q-58 0 -100.5 18.5 q-42.5 18.5 -71 53 q-28.5 34.5 -42.5 83 q-14 48.5 -14 107.5 q0 63 17 112 q17 49 47.5 82 q30.5 33 73.5 50.5 q43 17.5 95 17.5 q48 0 84 -7.5 q36 -7.5 63 -21.5 l-23 -69 q-23 13 -53.5 20.5 q-30.5 7.5 -62.5 7.5 q-69 1 -110.5 -38.5 q-41.5 -39.5 -49.5 -117.5 l236 0 l0 -66 l-237 0 q3 -33 14.5 -63 q11.5 -30 32 -52 q20.5 -22 50.5 -34.5 q30 -12.5 72 -12.5 q35 0 65.5 11 q30.5 11 48.5 25 l26 -61 Z" /><glyph glyph-name="afii10104" unicode="&#x457;" d="M29 653 q0 23 12.5 36.5 q12.5 13.5 35.5 13.5 q22 0 35 -13.5 q13 -13.5 13 -36.5 q0 -21 -13 -35 q-13 -14 -35 -14 q-23 0 -35.5 14 q-12.5 14 -12.5 35 ZM154 653 q0 23 12.5 36.5 q12.5 13.5 34.5 13.5 q23 0 36 -13.5 q13 -13.5 13 -36.5 q0 -21 -13 -35 q-13 -14 -36 -14 q-22 0 -34.5 14 q-12.5 14 -12.5 35 ZM98 500 l80 0 l0 -500 l-80 0 l0 500 Z" /><glyph glyph-name="afii10106" unicode="&#x459;" d="M426 309 q24 4 46 5.5 q22 1.5 42 1.5 q52 0 88 -11.5 q36 -11.5 58.5 -31.5 q22.5 -20 32.5 -47.5 q10 -27.5 10 -58.5 q0 -91 -54.5 -132 q-54.5 -41 -169.5 -41 q-64 0 -133 6 l0 430 l-145 0 q-3 -42 -6 -90.5 q-3 -48.5 -9 -97 q-6 -48.5 -16 -93 q-10 -44.5 -25.5 -78.5 q-15.5 -34 -38 -54.5 q-22.5 -20.5 -53.5 -20.5 q-19 0 -33 2 q-14 2 -25 7 l12 67 q12 -4 26 -4 q20 0 36 17 q16 17 28 64.5 q12 47.5 20 131.5 q8 84 11 219 l298 0 l0 -191 ZM426 69 q37 -6 71 -6 q63 0 93 25 q30 25 30 70 q0 40 -29 66 q-29 26 -91 26 q-17 0 -37 -1 q-20 -1 -37 -6 l0 -174 Z" /><glyph glyph-name="afii10107" unicode="&#x45a;" d="M463 70 q37 -6 71 -6 q63 0 93 24.5 q30 24.5 30 69.5 q0 40 -29 66 q-29 26 -91 26 q-17 0 -36.5 -1.5 q-19.5 -1.5 -37.5 -5.5 l0 -173 ZM463 309 q24 4 46 5.5 q22 1.5 42 1.5 q52 0 88 -11.5 q36 -11.5 58.5 -31.5 q22.5 -20 32.5 -47.5 q10 -27.5 10 -58.5 q0 -91 -54.5 -132 q-54.5 -41 -169.5 -41 q-64 0 -133 6 l0 223 l-226 0 l0 -223 l-80 0 l0 500 l80 0 l0 -207 l226 0 l0 207 l80 0 l0 -191 Z" /><glyph glyph-name="afii10108" unicode="&#x45b;" d="M-2 600 l80 0 l0 100 l80 0 l0 -100 l160 0 l0 -60 l-160 0 l0 -148 l4 0 q26 31 62.5 49.5 q36.5 18.5 90.5 18.5 q42 0 73 -9.5 q31 -9.5 51.5 -33.5 q20.5 -24 30 -64.5 q9.5 -40.5 9.5 -102.5 l0 -250 l-80 0 l0 232 q0 39 -4.5 69 q-4.5 30 -16.5 49.5 q-12 19.5 -32.5 29.5 q-20.5 10 -53.5 10 q-47 0 -85 -30.5 q-38 -30.5 -49 -78.5 l0 -281 l-80 0 l0 540 l-80 0 l0 60 Z" /><glyph glyph-name="afii10193" unicode="&#x45f;" d="M77 0 l0 500 l80 0 l0 -430 l221 0 l0 430 l80 0 l0 -500 l-146 0 l-15 -179 l-52 0 l-20 179 l-148 0 Z" /><glyph glyph-name="afii10146" unicode="&#x462;" d="M0 620 l149 0 l0 101 l83 0 l0 -101 l207 0 l0 -70 l-207 0 l0 -123 q5 1 17 2.5 q12 1.5 26 2.5 q14 1 29 2 q15 1 27 1 q48 0 93.5 -9.5 q45.5 -9.5 81 -33 q35.5 -23.5 57.5 -64 q22 -40.5 22 -102.5 q0 -60 -21 -104 q-21 -44 -58 -73 q-37 -29 -86.5 -43 q-49.5 -14 -107.5 -14 q-14 0 -34 0.5 q-20 0.5 -42.5 2 q-22.5 1.5 -45 4.5 q-22.5 3 -41.5 8 l0 543 l-149 0 l0 70 ZM323 64 q36 0 67.5 9.5 q31.5 9.5 55.5 29 q24 19.5 37.5 49 q13.5 29.5 13.5 68.5 q0 42 -15 70 q-15 28 -39.5 44 q-24.5 16 -56.5 22.5 q-32 6.5 -66 6.5 q-9 0 -22 -1 q-13 -1 -26 -2 q-13 -1 -24 -3 q-11 -2 -16 -3 l0 -284 q14 -3 40 -4.5 q26 -1.5 51 -1.5 Z" /><glyph glyph-name="afii10194" unicode="&#x463;" d="M1 500 l109 0 l0 200 l80 0 l0 -200 l160 0 l0 -66 l-160 0 l0 -125 q24 4 46 5.5 q22 1.5 42 1.5 q52 0 88 -11.5 q36 -11.5 58.5 -31.5 q22.5 -20 32.5 -47.5 q10 -27.5 10 -58.5 q0 -91 -54.5 -132 q-54.5 -41 -169.5 -41 q-64 0 -133 6 l0 434 l-109 0 l0 66 ZM190 70 q39 -6 71 -6 q63 0 93 24.5 q30 24.5 30 69.5 q0 40 -29 66 q-29 26 -91 26 q-17 0 -36.5 -1 q-19.5 -1 -37.5 -6 l0 -173 Z" /><glyph glyph-name="afii10147" unicode="&#x472;" d="M56 350 q0 175 74 268.5 q74 93.5 211 93.5 q74 0 128 -26 q54 -26 89.5 -73.5 q35.5 -47.5 52.5 -114 q17 -66.5 17 -148.5 q0 -175 -74.5 -268.5 q-74.5 -93.5 -212.5 -93.5 q-73 0 -126.5 26 q-53.5 26 -89 73.5 q-35.5 47.5 -52.5 114 q-17 66.5 -17 148.5 ZM540 392 q-8 119 -62.5 182.5 q-54.5 63.5 -136.5 63.5 q-36 0 -70 -12.5 q-34 -12.5 -61 -41.5 q-27 -29 -44.5 -76 q-17.5 -47 -21.5 -116 l396 0 ZM144 318 q8 -129 62.5 -192.5 q54.5 -63.5 134.5 -63.5 q37 0 72 12 q35 12 62 41.5 q27 29.5 44.5 78.5 q17.5 49 20.5 124 l-396 0 Z" /><glyph glyph-name="afii10195" unicode="&#x473;" d="M49 250 q0 127 56.5 194.5 q56.5 67.5 162.5 67.5 q56 0 97.5 -18.5 q41.5 -18.5 68.5 -53 q27 -34.5 40 -83 q13 -48.5 13 -107.5 q0 -127 -56.5 -194.5 q-56.5 -67.5 -162.5 -67.5 q-56 0 -97.5 18.5 q-41.5 18.5 -68.5 53 q-27 34.5 -40 83 q-13 48.5 -13 107.5 ZM404 281 q-8 85 -43.5 123 q-35.5 38 -92.5 38 q-26 0 -49.5 -8 q-23.5 -8 -42 -27 q-18.5 -19 -30.5 -50 q-12 -31 -14 -76 l272 0 ZM132 217 q5 -78 43 -118.5 q38 -40.5 93 -40.5 q25 0 48.5 8 q23.5 8 42 26 q18.5 18 30.5 48.5 q12 30.5 15 76.5 l-272 0 Z" /><glyph glyph-name="afii10148" unicode="&#x474;" d="M304 -11 l-37 0 l-269 711 l90 0 l178 -481 l24 -106 l2 0 l16 108 q19 66 39.5 132.5 q20.5 66.5 41.5 138.5 q23 78 43.5 121.5 q20.5 43.5 41.5 64 q21 20.5 43 25 q22 4.5 48 4.5 q35 0 55 -5.5 q20 -5.5 37 -16.5 l-24 -70 q-20 11 -37.5 14.5 q-17.5 3.5 -31.5 3.5 q-28 0 -47 -26 q-19 -26 -39 -87 l-174 -531 Z" /><glyph glyph-name="afii10196" unicode="&#x475;" d="M261 -11 l-34 0 l-217 511 l92 0 l120 -293 l28 -95 l1 0 l25 97 q14 36 22.5 57 q8.5 21 13 33 q4.5 12 6.5 17 q2 5 4 9 q16 43 30 76.5 q14 33.5 30.5 57 q16.5 23.5 38 36 q21.5 12.5 51.5 12.5 q18 0 32 -2 q14 -2 26 -7 l-12 -74 q-9 4 -17.5 6.5 q-8.5 2.5 -16.5 2.5 q-17 0 -34 -15 q-17 -15 -37 -62 l-152 -367 Z" /><glyph glyph-name="uni048A" unicode="&#x48a;" d="M513 474 l6 80 l-4 0 l-43 -82 l-338 -472 l-49 0 l0 700 l83 0 l0 -480 l-7 -79 l4 0 l44 82 l338 477 l49 0 l0 -630 l104 0 l0 -22 l-91 -178 l-54 0 l45 130 l-87 0 l0 474 ZM256 870 q4 -37 28 -57 q24 -20 64 -20 q40 0 63.5 20 q23.5 20 28.5 56 l71 -17 q-11 -54 -50.5 -85.5 q-39.5 -31.5 -113.5 -31.5 q-71 0 -116.5 27.5 q-45.5 27.5 -53.5 87.5 l79 20 Z" /><glyph glyph-name="uni048B" unicode="&#x48b;" d="M389 296 l3 62 l-3 0 l-41 -64 l-225 -294 l-46 0 l0 500 l80 0 l0 -305 l-3 -59 l4 0 l39 62 l225 302 l47 0 l0 -430 l100 0 l0 -22 l-91 -175 l-54 0 l45 127 l-80 0 l0 296 ZM192 702 q10 -46 34.5 -64 q24.5 -18 56.5 -18 q32 0 57 19 q25 19 34 62 l60 -19 q-9 -58 -51.5 -89 q-42.5 -31 -101.5 -31 q-27 0 -53.5 7 q-26.5 7 -47.5 21 q-21 14 -36 36 q-15 22 -20 52 l68 24 Z" /><glyph glyph-name="uni048E" unicode="&#x48e;" d="M85 693 q38 9 82 12 q44 3 87 3 q46 0 93.5 -9 q47.5 -9 86.5 -33 q39 -24 63.5 -66 q24.5 -42 24.5 -107 q0 -75 -31.5 -123 q-31.5 -48 -81.5 -74 l68 -98 l-46 -33 l-77 110 q-48 -13 -104 -13 q-5 0 -16.5 0 q-11.5 0 -24 0.5 q-12.5 0.5 -24.5 1.5 q-12 1 -17 2 l0 -266 l-83 0 l0 693 ZM291 462 l71 -103 q32 17 52 48.5 q20 31.5 20 85.5 q0 41 -15.5 68.5 q-15.5 27.5 -41 44 q-25.5 16.5 -57.5 23.5 q-32 7 -64 7 q-26 0 -50 -1 q-24 -1 -38 -5 l0 -290 q5 -2 16 -2.5 q11 -0.5 23 -1 q12 -0.5 23 -0.5 q11 0 16 0 q17 0 33 1 q16 1 33 5 l-64 93 l43 27 Z" /><glyph glyph-name="uni048F" unicode="&#x48f;" d="M77 500 l55 0 l15 -60 l4 0 q23 35 59.5 53.5 q36.5 18.5 83.5 18.5 q100 0 149 -59 q49 -59 49 -193 q0 -75 -22 -131 q-22 -56 -63 -91 l53 -62 l-42 -37 l-59 69 q-43 -20 -97 -20 q-37 0 -58.5 4.5 q-21.5 4.5 -46.5 15.5 l0 -208 l-80 0 l0 700 ZM297 163 l58 -69 q26 26 40 67.5 q14 41.5 14 99.5 q0 41 -7 74.5 q-7 33.5 -22.5 57.5 q-15.5 24 -40 36.5 q-24.5 12.5 -60.5 12.5 q-51 0 -80.5 -26.5 q-29.5 -26.5 -41.5 -80.5 l0 -249 q18 -14 41 -21 q23 -7 61 -7 q31 -1 54 9 l-55 65 l39 31 Z" /><glyph glyph-name="afii10050" unicode="&#x490;" d="M460 626 l-292 0 l0 -626 l-83 0 l0 700 l303 0 l16 134 l56 0 l0 -208 Z" /><glyph glyph-name="afii10098" unicode="&#x491;" d="M157 430 l0 -430 l-80 0 l0 500 l220 0 l16 134 l56 0 l0 -204 l-212 0 Z" /><glyph glyph-name="uni0492" unicode="&#x492;" d="M481 626 l-292 0 l0 -241 l215 0 l0 -66 l-215 0 l0 -319 l-83 0 l0 319 l-96 0 l0 66 l96 0 l0 315 l375 0 l0 -74 Z" /><glyph glyph-name="uni0493" unicode="&#x493;" d="M382 430 l-212 0 l0 -151 l169 0 l0 -60 l-169 0 l0 -219 l-80 0 l0 219 l-90 0 l0 60 l90 0 l0 221 l292 0 l0 -70 Z" /><glyph glyph-name="uni0494" unicode="&#x494;" d="M168 0 l-83 0 l0 700 l375 0 l0 -74 l-292 0 l0 -271 q12 4 47.5 12.5 q35.5 8.5 90.5 8.5 q40 0 78.5 -11 q38.5 -11 69 -38 q30.5 -27 49 -73.5 q18.5 -46.5 18.5 -117.5 q0 -137 -60.5 -200.5 q-60.5 -63.5 -172.5 -63.5 q-33 0 -47.5 0.5 q-14.5 0.5 -22.5 2.5 l0 74 q13 -2 28.5 -2.5 q15.5 -0.5 44.5 -0.5 q142 0 142 183 q0 51 -12 84.5 q-12 33.5 -32.5 54 q-20.5 20.5 -48 28.5 q-27.5 8 -59.5 8 q-18 0 -35.5 -2.5 q-17.5 -2.5 -33 -6 q-15.5 -3.5 -27 -7.5 q-11.5 -4 -17.5 -6 l0 -282 Z" /><glyph glyph-name="uni0495" unicode="&#x495;" d="M157 0 l-80 0 l0 500 l291 0 l0 -70 l-211 0 l0 -178 q11 5 41 13 q30 8 84 8 q40 0 76 -11.5 q36 -11.5 63 -38 q27 -26.5 43 -70 q16 -43.5 16 -108.5 q0 -131 -52.5 -192.5 q-52.5 -61.5 -164.5 -61.5 q-33 0 -47.5 0.5 q-14.5 0.5 -22.5 2.5 l0 70 q13 -2 28.5 -2.5 q15.5 -0.5 44.5 -0.5 q70 0 102 45.5 q32 45.5 32 128.5 q0 89 -39 128.5 q-39 39.5 -101 39.5 q-36 0 -64 -8 q-28 -8 -39 -13 l0 -182 Z" /><glyph glyph-name="uni0496" unicode="&#x496;" d="M358 700 l80 0 l0 -326 l43 14 l203 312 l92 0 l-202 -304 l-40 -32 l50 -41 l172 -249 l58 0 l0 -203 l-58 0 l-15 129 l-36 0 l-221 324 l-46 0 l0 -324 l-80 0 l0 336 l-42 -14 l-221 -322 l-96 0 l221 313 l48 38 l-46 35 l-209 314 l97 0 l203 -314 l45 0 l0 314 Z" /><glyph glyph-name="uni0497" unicode="&#x497;" d="M240 221 l-147 -221 l-92 0 l158 229 l34 30 l-51 38 l-130 203 l85 0 l138 -216 l52 0 l0 216 l78 0 l0 -226 l47 14 l139 212 l84 0 l-136 -203 l-39 -32 l51 -40 l102 -155 l75 0 l0 -197 l-54 0 l-15 127 l-55 0 l-147 225 l-52 0 l0 -225 l-78 0 l0 235 l-47 -14 Z" /><glyph glyph-name="uni0498" unicode="&#x498;" d="M139 331 l0 70 l16 0 q9 0 22 0 q13 0 26.5 1 q13.5 1 26 1.5 q12.5 0.5 20.5 2.5 q26 4 49 13.5 q23 9.5 40 24.5 q17 15 27 35 q10 20 10 44 q0 33 -11 55 q-11 22 -30.5 35.5 q-19.5 13.5 -45 19 q-25.5 5.5 -54.5 5.5 q-54 0 -92 -7.5 q-38 -7.5 -61 -18.5 l-22 66 q20 11 72 22.5 q52 11.5 117 11.5 q40 0 78.5 -8.5 q38.5 -8.5 69 -28 q30.5 -19.5 49 -53 q18.5 -33.5 18.5 -82.5 q0 -50 -33 -95.5 q-33 -45.5 -99 -65.5 l0 -4 q71 -10 112 -53 q41 -43 41 -115 q0 -52 -18.5 -90.5 q-18.5 -38.5 -49 -65 q-30.5 -26.5 -71 -42 q-40.5 -15.5 -84.5 -19.5 l-14 -169 l-52 0 l-19 168 q-46 2 -78 9 q-32 7 -55 16 l21 75 q23 -11 64.5 -18.5 q41.5 -7.5 100.5 -7.5 q31 0 61 8.5 q30 8.5 53.5 25.5 q23.5 17 38 43 q14.5 26 14.5 62 q0 63 -44 92.5 q-44 29.5 -115 34.5 q-12 1 -22.5 1.5 q-10.5 0.5 -21.5 0.5 l-55 0 Z" /><glyph glyph-name="uni0499" unicode="&#x499;" d="M125 223 l0 65 l70 0 q18 0 35.5 6 q17.5 6 31.5 16.5 q14 10.5 22.5 25 q8.5 14.5 8.5 30.5 q0 39 -27 55 q-27 16 -81 16 q-39 0 -71.5 -12 q-32.5 -12 -50.5 -23 l-23 62 q30 17 70.5 30 q40.5 13 96.5 13 q166 0 166 -123 q0 -35 -22.5 -68.5 q-22.5 -33.5 -64.5 -47.5 l0 -4 q59 -11 82.5 -42 q23.5 -31 23.5 -82 q0 -54 -37.5 -93.5 q-37.5 -39.5 -113.5 -51.5 l-14 -174 l-52 0 l-19 171 q-40 2 -67.5 10.5 q-27.5 8.5 -50.5 19.5 l23 66 q23 -13 55.5 -20 q32.5 -7 70.5 -7 q61 0 93 21 q32 21 32 64 q0 36 -30 56.5 q-30 20.5 -99 20.5 l-58 0 Z" /><glyph glyph-name="uni049A" unicode="&#x49a;" d="M215 324 l-47 0 l0 -324 l-83 0 l0 700 l83 0 l0 -326 l45 14 l235 312 l96 0 l-234 -301 l-42 -33 l51 -40 l198 -252 l89 0 l0 -203 l-58 0 l-15 129 l-63 0 l-255 324 Z" /><glyph glyph-name="uni049B" unicode="&#x49b;" d="M203 225 l-46 0 l0 -225 l-80 0 l0 500 l80 0 l0 -226 l43 14 l160 212 l87 0 l-155 -201 l-42 -33 l52 -40 l115 -156 l79 0 l0 -197 l-54 0 l-15 127 l-57 0 l-167 225 Z" /><glyph glyph-name="uni049C" unicode="&#x49c;" d="M222 324 l-54 0 l0 -324 l-83 0 l0 700 l83 0 l0 -326 l54 5 l0 126 l66 0 l0 -119 l23 2 l214 312 l95 0 l-216 -301 l-41 -33 l50 -40 l237 -326 l-104 0 l-232 324 l-26 0 l0 -129 l-66 0 l0 129 Z" /><glyph glyph-name="uni049D" unicode="&#x49d;" d="M205 225 l-48 0 l0 -225 l-80 0 l0 500 l80 0 l0 -226 l48 5 l0 123 l63 0 l0 -117 l26 3 l131 212 l84 0 l-126 -201 l-44 -33 l52 -40 l138 -226 l-94 0 l-138 225 l-29 0 l0 -127 l-63 0 l0 127 Z" /><glyph glyph-name="uni049E" unicode="&#x49e;" d="M0 636 l139 0 l0 64 l83 0 l0 -64 l122 0 l0 -66 l-122 0 l0 -196 l49 14 l232 312 l95 0 l-231 -301 l-44 -33 l52 -40 l254 -326 l-106 0 l-252 324 l-49 0 l0 -324 l-83 0 l0 568 l-139 0 l0 68 Z" /><glyph glyph-name="uni049F" unicode="&#x49f;" d="M-2 613 l81 0 l0 87 l80 0 l0 -87 l159 0 l0 -60 l-159 0 l0 -279 l41 14 l155 212 l93 0 l-153 -201 l-41 -33 l50 -40 l167 -226 l-99 0 l-167 225 l-46 0 l0 -225 l-80 0 l0 553 l-81 0 l0 60 Z" /><glyph glyph-name="uni04A0" unicode="&#x4a0;" d="M161 626 l-161 0 l0 74 l244 0 l0 -326 l44 14 l235 312 l97 0 l-235 -301 l-41 -33 l50 -40 l257 -326 l-106 0 l-255 324 l-46 0 l0 -324 l-83 0 l0 626 Z" /><glyph glyph-name="uni04A1" unicode="&#x4a1;" d="M191 274 l42 14 l161 212 l86 0 l-155 -201 l-41 -33 l52 -40 l167 -226 l-99 0 l-167 225 l-46 0 l0 -225 l-80 0 l0 430 l-110 0 l0 70 l190 0 l0 -226 Z" /><glyph glyph-name="uni04A3" unicode="&#x4a3;" d="M383 221 l-226 0 l0 -221 l-80 0 l0 500 l80 0 l0 -209 l226 0 l0 209 l80 0 l0 -430 l73 0 l0 -197 l-54 0 l-15 127 l-84 0 l0 221 Z" /><glyph glyph-name="uni04A4" unicode="&#x4a4;" d="M879 626 l-292 0 l0 -626 l-83 0 l0 321 l-336 0 l0 -321 l-83 0 l0 700 l83 0 l0 -305 l336 0 l0 305 l375 0 l0 -74 Z" /><glyph glyph-name="uni04A5" unicode="&#x4a5;" d="M675 430 l-212 0 l0 -430 l-80 0 l0 221 l-226 0 l0 -221 l-80 0 l0 500 l80 0 l0 -209 l226 0 l0 209 l292 0 l0 -70 Z" /><glyph glyph-name="uni04A6" unicode="&#x4a6;" d="M574 0 l-83 0 l0 626 l-323 0 l0 -626 l-83 0 l0 700 l489 0 l0 -345 q11 4 47 12.5 q36 8.5 91 8.5 q40 0 79 -11 q39 -11 69.5 -38 q30.5 -27 49 -73.5 q18.5 -46.5 18.5 -117.5 q0 -137 -61 -200.5 q-61 -63.5 -173 -63.5 q-33 0 -47.5 0.5 q-14.5 0.5 -22.5 2.5 l0 74 q13 -2 28.5 -2.5 q15.5 -0.5 44.5 -0.5 q70 0 106.5 45.5 q36.5 45.5 36.5 137.5 q0 51 -12 84.5 q-12 33.5 -32.5 54 q-20.5 20.5 -48.5 28.5 q-28 8 -59 8 q-18 0 -36 -2.5 q-18 -2.5 -33.5 -6 q-15.5 -3.5 -27.5 -7.5 q-12 -4 -17 -6 l0 -282 Z" /><glyph glyph-name="uni04A7" unicode="&#x4a7;" d="M458 0 l-80 0 l0 430 l-221 0 l0 -430 l-80 0 l0 500 l381 0 l0 -248 q11 5 41 13 q30 8 84 8 q39 0 74.5 -11.5 q35.5 -11.5 63 -38 q27.5 -26.5 43.5 -70 q16 -43.5 16 -108.5 q0 -131 -52 -192.5 q-52 -61.5 -164 -61.5 q-33 0 -47.5 0.5 q-14.5 0.5 -22.5 2.5 l0 70 q13 -2 28.5 -2.5 q15.5 -0.5 44.5 -0.5 q70 0 101.5 45.5 q31.5 45.5 31.5 128.5 q0 89 -38.5 128.5 q-38.5 39.5 -100.5 39.5 q-36 0 -64 -8 q-28 -8 -39 -13 l0 -182 Z" /><glyph glyph-name="uni04A8" unicode="&#x4a8;" d="M353 638 q-47 0 -85 -17.5 q-38 -17.5 -66 -53 q-28 -35.5 -43 -89.5 q-15 -54 -15 -127 q0 -59 17 -112 q17 -53 47.5 -93 q30.5 -40 72.5 -64 q42 -24 93 -24 q11 0 24.5 1 q13.5 1 23.5 5 q-32 19 -57 51 q-25 32 -42.5 71.5 q-17.5 39.5 -27 84.5 q-9.5 45 -9.5 91 q0 78 18 137 q18 59 49 99.5 q31 40.5 73 61 q42 20.5 91 20.5 q111 0 168 -74.5 q57 -74.5 57 -207.5 q0 -62 -12.5 -115 q-12.5 -53 -34 -96.5 q-21.5 -43.5 -50 -75.5 q-28.5 -32 -60.5 -51 q5 -1 10.5 -1 q5.5 0 10.5 0 q38 0 67 8 q29 8 48 22 l25 -65 q-19 -15 -47 -25.5 q-28 -10.5 -81 -10.5 q-32 0 -64 8 q-32 8 -54 22 q-26 -15 -58.5 -22.5 q-32.5 -7.5 -67.5 -7.5 q-74 0 -133 26 q-59 26 -100 73 q-41 47 -63 114 q-22 67 -22 149 q0 87 20.5 154.5 q20.5 67.5 58.5 113.5 q38 46 93.5 70 q55.5 24 124.5 24 l0 -74 ZM374 354 q0 -35 8.5 -73.5 q8.5 -38.5 25 -75 q16.5 -36.5 41.5 -67.5 q25 -31 59 -50 q27 15 53 42.5 q26 27.5 46.5 66.5 q20.5 39 33.5 88 q13 49 13 107 q0 45 -7.5 84 q-7.5 39 -23 68 q-15.5 29 -41 45.5 q-25.5 16.5 -61.5 16.5 q-29 0 -55.5 -14.5 q-26.5 -14.5 -46.5 -45 q-20 -30.5 -32.5 -78.5 q-12.5 -48 -12.5 -114 Z" /><glyph glyph-name="uni04A9" unicode="&#x4a9;" d="M269 442 q-137 -1 -137 -191 q0 -39 9.5 -74 q9.5 -35 29.5 -62 q20 -27 49.5 -42 q29.5 -15 70.5 -15 q11 0 25.5 2 q14.5 2 24.5 8 q-36 22 -61 72 q-25 50 -25 113 q0 44 8.5 88 q8.5 44 29 79.5 q20.5 35.5 55.5 57.5 q35 22 88 22 q46 0 78.5 -17 q32.5 -17 53 -46 q20.5 -29 30 -68 q9.5 -39 9.5 -84 q0 -40 -10 -76 q-10 -36 -26.5 -65.5 q-16.5 -29.5 -38 -51 q-21.5 -21.5 -43.5 -31.5 q15 -7 38 -7 q20 0 41 7.5 q21 7.5 38 25.5 l25 -60 q-18 -17 -48.5 -28 q-30.5 -11 -66.5 -11 q-28 0 -56.5 9 q-28.5 9 -46.5 27 q-30 -21 -66 -28.5 q-36 -7.5 -68 -7.5 q-55 0 -98 18.5 q-43 18.5 -72 53 q-29 34.5 -44.5 83 q-15.5 48.5 -15.5 107.5 q0 125 55.5 193 q55.5 68 164.5 69 l0 -70 ZM338 256 q0 -57 22.5 -104.5 q22.5 -47.5 60.5 -73.5 q21 10 39.5 29.5 q18.5 19.5 32.5 46.5 q14 27 22.5 60 q8.5 33 8.5 71 q0 27 -5.5 53 q-5.5 26 -16.5 46.5 q-11 20.5 -27.5 33 q-16.5 12.5 -39.5 12.5 q-30 0 -49 -15 q-19 -15 -29.5 -39.5 q-10.5 -24.5 -14.5 -56 q-4 -31.5 -4 -63.5 Z" /><glyph glyph-name="uni04AA" unicode="&#x4aa;" d="M533 29 q-26 -20 -63 -29 q-37 -9 -80 -11 l-14 -168 l-52 0 l-19 172 q-53 8 -98.5 33 q-45.5 25 -79 69 q-33.5 44 -52.5 107.5 q-19 63.5 -19 147.5 q0 98 26.5 166.5 q26.5 68.5 70 112 q43.5 43.5 97.5 63.5 q54 20 110 20 q60 0 98 -6.5 q38 -6.5 65 -17.5 l-20 -73 q-48 23 -137 23 q-41 0 -81 -15 q-40 -15 -71.5 -49 q-31.5 -34 -50.5 -89 q-19 -55 -19 -135 q0 -72 18 -126 q18 -54 49.5 -90 q31.5 -36 74 -53.5 q42.5 -17.5 92.5 -17.5 q45 0 78.5 8.5 q33.5 8.5 56.5 22.5 l20 -65 Z" /><glyph glyph-name="uni04AB" unicode="&#x4ab;" d="M418 33 q-44 -32 -109 -41 l-14 -171 l-52 0 l-19 169 q-48 6 -81 27 q-33 21 -54 54.5 q-21 33.5 -30.5 79 q-9.5 45.5 -9.5 99.5 q0 127 56 194.5 q56 67.5 161 67.5 q48 0 81.5 -7.5 q33.5 -7.5 60.5 -21.5 l-23 -69 q-23 13 -51 20.5 q-28 7.5 -60 7.5 q-142 0 -142 -192 q0 -38 7.5 -72.5 q7.5 -34.5 25 -61 q17.5 -26.5 46 -42.5 q28.5 -16 70.5 -16 q36 0 64.5 11 q28.5 11 46.5 25 l26 -61 Z" /><glyph glyph-name="uni04AC" unicode="&#x4ac;" d="M236 626 l-218 0 l0 74 l519 0 l0 -74 l-218 0 l0 -552 l92 0 l0 -203 l-58 0 l-15 129 l-102 0 l0 626 Z" /><glyph glyph-name="uni04AD" unicode="&#x4ad;" d="M159 430 l-157 0 l0 70 l394 0 l0 -70 l-157 0 l0 -360 l74 0 l0 -197 l-54 0 l-15 127 l-85 0 l0 430 Z" /><glyph glyph-name="uni04AF" unicode="&#x4af;" d="M10 500 l92 0 l122 -324 l28 -106 l1 0 l25 108 l110 322 l86 0 l-187 -500 l0 -200 l-80 0 l0 200 l-197 500 Z" /><glyph glyph-name="uni04B0" unicode="&#x4b0;" d="M89 285 l146 0 l-227 415 l97 0 l164 -306 l17 -61 l1 0 l18 63 l157 304 l89 0 l-225 -415 l146 0 l0 -62 l-150 0 l0 -223 l-83 0 l0 223 l-150 0 l0 62 Z" /><glyph glyph-name="uni04B1" unicode="&#x4b1;" d="M84 0 l123 0 l-197 500 l92 0 l122 -324 l28 -106 l1 0 l25 108 l110 322 l86 0 l-187 -500 l117 0 l0 -60 l-117 0 l0 -140 l-80 0 l0 140 l-123 0 l0 60 Z" /><glyph glyph-name="uni04B2" unicode="&#x4b2;" d="M259 356 l-213 344 l100 0 l142 -237 l25 -57 l24 57 l150 237 l92 0 l-220 -337 l183 -289 l97 0 l0 -203 l-58 0 l-15 129 l-74 0 l-158 251 l-27 60 l-26 -60 l-162 -251 l-93 0 l233 356 Z" /><glyph glyph-name="uni04B3" unicode="&#x4b3;" d="M208 256 l-168 244 l98 0 l95 -138 l28 -57 l29 57 l97 138 l90 0 l-169 -240 l131 -190 l76 0 l0 -197 l-54 0 l-15 127 l-54 0 l-106 152 l-30 60 l-31 -60 l-108 -152 l-89 0 l180 256 Z" /><glyph glyph-name="uni04B4" unicode="&#x4b4;" d="M809 -129 l-57 0 l-15 129 l-501 0 l0 626 l-218 0 l0 74 l483 0 l0 -74 l-182 0 l0 -552 l315 0 l0 626 l83 0 l0 -626 l92 0 l0 -203 Z" /><glyph glyph-name="uni04B5" unicode="&#x4b5;" d="M608 -127 l-54 0 l-15 127 l-380 0 l0 430 l-157 0 l0 70 l387 0 l0 -70 l-150 0 l0 -360 l217 0 l0 430 l80 0 l0 -430 l72 0 l0 -197 Z" /><glyph glyph-name="uni04B6" unicode="&#x4b6;" d="M437 302 q-27 -15 -71 -30 q-44 -15 -101 -15 q-42 0 -77 9.5 q-35 9.5 -60 32 q-25 22.5 -39 60.5 q-14 38 -14 94 l0 247 l83 0 l0 -232 q0 -137 124 -137 q47 0 88 12.5 q41 12.5 67 33.5 l0 323 l83 0 l0 -626 l92 0 l0 -203 l-58 0 l-15 129 l-102 0 l0 302 Z" /><glyph glyph-name="uni04B7" unicode="&#x4b7;" d="M333 210 q-16 -10 -47.5 -22 q-31.5 -12 -86.5 -12 q-37 0 -65 8 q-28 8 -47 28 q-19 20 -28.5 53 q-9.5 33 -9.5 83 l0 152 l80 0 l0 -136 q0 -27 3 -48.5 q3 -21.5 12 -37.5 q9 -16 26 -24 q17 -8 45 -8 q45 0 74 10 q29 10 44 22 l0 222 l80 0 l0 -430 l74 0 l0 -197 l-54 0 l-15 127 l-85 0 l0 210 Z" /><glyph glyph-name="uni04B8" unicode="&#x4b8;" d="M271 257 q-45 0 -81.5 9.5 q-36.5 9.5 -62 32 q-25.5 22.5 -39 60.5 q-13.5 38 -13.5 94 l0 247 l83 0 l0 -232 q0 -131 113 -137 l0 124 l66 0 l0 -120 q32 5 60 16 q28 11 48 26 l0 323 l83 0 l0 -700 l-83 0 l0 302 q-19 -11 -46.5 -21 q-27.5 -10 -61.5 -17 l0 -119 l-66 0 l0 112 Z" /><glyph glyph-name="uni04B9" unicode="&#x4b9;" d="M205 176 q-39 0 -68.5 8 q-29.5 8 -49 28 q-19.5 20 -29 53 q-9.5 33 -9.5 83 l0 152 l80 0 l0 -136 q0 -25 2.5 -46 q2.5 -21 10.5 -36.5 q8 -15.5 23 -24.5 q15 -9 40 -11 l0 127 l63 0 l0 -123 q26 5 44 12.5 q18 7.5 28 15.5 l0 222 l80 0 l0 -500 l-80 0 l0 210 q-10 -7 -28 -15 q-18 -8 -44 -13 l0 -114 l-63 0 l0 108 Z" /><glyph glyph-name="uni04BA" unicode="&#x4ba;" d="M448 0 l0 232 q0 137 -124 137 q-48 0 -89 -12.5 q-41 -12.5 -67 -33.5 l0 -323 l-83 0 l0 700 l83 0 l0 -302 q27 15 71.5 30 q44.5 15 100.5 15 q42 0 77.5 -9.5 q35.5 -9.5 60.5 -32 q25 -22.5 39 -60.5 q14 -38 14 -94 l0 -247 l-83 0 Z" /><glyph glyph-name="uni04BC" unicode="&#x4bc;" d="M274 318 q8 -131 65 -193.5 q57 -62.5 166 -62.5 q45 0 83.5 13.5 q38.5 13.5 63.5 28.5 l22 -67 q-32 -20 -77.5 -34.5 q-45.5 -14.5 -107.5 -14.5 q-66 0 -119.5 19 q-53.5 19 -92.5 59.5 q-39 40.5 -61.5 102.5 q-22.5 62 -25.5 149 l-37 0 q-84 0 -118 34.5 q-34 34.5 -34 88.5 q0 29 7.5 46.5 q7.5 17.5 20.5 30.5 l78 0 q-16 -13 -22 -33 q-6 -20 -6 -35 q0 -12 3 -23.5 q3 -11.5 12 -20.5 q9 -9 26 -14.5 q17 -5.5 45 -5.5 q6 0 12 0 q6 0 13 1 q7 156 77 240.5 q70 84.5 198 84.5 q125 0 189 -75 q64 -75 64 -212 q0 -50 -9 -107 l-435 0 ZM631 388 q2 14 3 27 q1 13 1 26 q0 40 -10 76 q-10 36 -30.5 64 q-20.5 28 -52.5 44.5 q-32 16.5 -76 16.5 q-93 0 -140.5 -67 q-47.5 -67 -52.5 -187 l358 0 Z" /><glyph glyph-name="uni04BD" unicode="&#x4bd;" d="M551 40 q-30 -24 -75.5 -38 q-45.5 -14 -96.5 -14 q-56 0 -97.5 18 q-41.5 18 -68.5 51 q-27 33 -40.5 79.5 q-13.5 46.5 -14.5 104.5 l-12 0 q-36 0 -62 9.5 q-26 9.5 -43 25.5 q-17 16 -25 38 q-8 22 -8 47 q0 30 10 51 q10 21 31 42 l78 0 q-20 -14 -33.5 -35 q-13.5 -21 -13.5 -53 q0 -11 3.5 -21.5 q3.5 -10.5 11.5 -19 q8 -8.5 21.5 -14 q13.5 -5.5 33.5 -5.5 q7 0 11 1 q12 100 67.5 152.5 q55.5 52.5 149.5 52.5 q34 0 68 -7.5 q34 -7.5 61 -28.5 q27 -21 44 -59.5 q17 -38.5 17 -101.5 q0 -33 -6 -73 l-321 0 q0 -44 9 -78 q9 -34 28 -58 q19 -24 49.5 -36 q30.5 -12 74.5 -12 q34 0 68 12 q34 12 51 28 l30 -58 ZM379 442 q-59 0 -94.5 -31 q-35.5 -31 -42.5 -106 l248 0 q0 76 -29 106.5 q-29 30.5 -82 30.5 Z" /><glyph glyph-name="uni04BE" unicode="&#x4be;" d="M274 318 q8 -131 65 -193.5 q57 -62.5 166 -61.5 q45 0 83.5 13 q38.5 13 63.5 28 l22 -67 q-29 -18 -69 -32 q-40 -14 -94 -16 l-14 -168 l-52 0 l-19 172 q-105 16 -167.5 94.5 q-62.5 78.5 -68.5 230.5 l-37 0 q-84 0 -118 34.5 q-34 34.5 -34 88.5 q0 29 7.5 46.5 q7.5 17.5 20.5 30.5 l78 0 q-16 -13 -22 -33 q-6 -20 -6 -35 q0 -12 3 -23.5 q3 -11.5 12 -20.5 q9 -9 26 -14.5 q17 -5.5 45 -5.5 q6 0 12 0 q6 0 13 1 q7 156 77 240.5 q70 84.5 198 84.5 q125 0 189 -75 q64 -75 64 -212 q0 -50 -9 -107 l-435 0 ZM631 388 q2 14 3 27 q1 13 1 26 q0 40 -10 76 q-10 36 -30.5 64 q-20.5 28 -52.5 44.5 q-32 16.5 -76 16.5 q-93 0 -140.5 -67 q-47.5 -67 -52.5 -187 l358 0 Z" /><glyph glyph-name="uni04BF" unicode="&#x4bf;" d="M551 40 q-25 -20 -59 -32 q-34 -12 -74 -17 l-14 -170 l-52 0 l-19 171 q-89 14 -131 79.5 q-42 65.5 -44 169.5 l-12 0 q-36 0 -62 9.5 q-26 9.5 -43 25.5 q-17 16 -25 38 q-8 22 -8 47 q0 32 10 52 q10 20 31 41 l78 0 q-20 -14 -33.5 -35 q-13.5 -21 -13.5 -53 q0 -11 3.5 -21.5 q3.5 -10.5 11.5 -19 q8 -8.5 21.5 -14 q13.5 -5.5 33.5 -5.5 q7 0 11 1 q12 100 67.5 152.5 q55.5 52.5 149.5 52.5 q34 0 68 -7.5 q34 -7.5 61 -28.5 q27 -21 44 -59.5 q17 -38.5 17 -101.5 q0 -33 -6 -73 l-321 0 q0 -44 9 -78 q9 -34 28 -58 q19 -24 49.5 -36.5 q30.5 -12.5 74.5 -12.5 q34 0 68 12 q34 12 51 28 l30 -57 ZM379 442 q-59 0 -94.5 -31 q-35.5 -31 -42.5 -106 l248 0 q0 76 -29 106.5 q-29 30.5 -82 30.5 Z" /><glyph glyph-name="uni04C3" unicode="&#x4c3;" d="M441 71 q0 68 -13.5 116 q-13.5 48 -41.5 78.5 q-28 30.5 -70.5 44.5 q-42.5 14 -100.5 14 l-47 0 l0 -324 l-83 0 l0 700 l83 0 l0 -326 l45 14 l235 312 l96 0 l-224 -286 l-57 -38 l63 0 q53 -12 90.5 -34 q37.5 -22 61.5 -57.5 q24 -35.5 35 -87 q11 -51.5 11 -123.5 l0 -18 q0 -72 -13.5 -123 q-13.5 -51 -39 -83 q-25.5 -32 -61.5 -46.5 q-36 -14.5 -81 -14.5 q-7 0 -13.5 0 q-6.5 0 -14.5 1 l0 73 q40 0 66.5 11 q26.5 11 43 35.5 q16.5 24.5 23.5 64 q7 39.5 7 97.5 Z" /><glyph glyph-name="uni04C4" unicode="&#x4c4;" d="M361 16 q0 105 -42 152.5 q-42 47.5 -116 47.5 l-46 0 l0 -216 l-80 0 l0 500 l80 0 l0 -235 l43 14 l160 221 l87 0 l-156 -210 l-36 -26 l44 -6 q45 -10 72.5 -34 q27.5 -24 43 -56.5 q15.5 -32.5 21 -72 q5.5 -39.5 5.5 -79.5 q0 -61 -13.5 -104.5 q-13.5 -43.5 -37 -71.5 q-23.5 -28 -56 -41 q-32.5 -13 -70.5 -13 q-8 0 -16.5 0 q-8.5 0 -17.5 2 l0 69 q5 -1 9 -1 q4 0 9 0 q54 0 83.5 41 q29.5 41 29.5 119 Z" /><glyph glyph-name="uni04C5" unicode="&#x4c5;" d="M456 626 l-209 0 q-10 -200 -26.5 -332.5 q-16.5 -132.5 -49.5 -206.5 q-22 -48 -52 -70 q-30 -22 -65 -22 q-18 0 -31 2.5 q-13 2.5 -25 7.5 l11 72 q10 -3 21 -3 q17 0 33.5 11 q16.5 11 32.5 41 q14 27 26.5 72 q12.5 45 22 114 q9.5 69 15.5 164.5 q6 95.5 9 223.5 l370 0 l0 -630 l93 0 l0 -22 l-91 -178 l-54 0 l45 130 l-76 0 l0 626 Z" /><glyph glyph-name="uni04C6" unicode="&#x4c6;" d="M346 430 l-145 0 q-3 -42 -6 -90.5 q-3 -48.5 -9 -97 q-6 -48.5 -16 -93 q-10 -44.5 -25.5 -78.5 q-15.5 -34 -38 -54.5 q-22.5 -20.5 -53.5 -20.5 q-36 0 -58 9 l12 67 q12 -4 26 -4 q20 0 36 17 q16 17 28 64.5 q12 47.5 20 131.5 q8 84 11 219 l298 0 l0 -430 l100 0 l0 -22 l-91 -175 l-54 0 l45 127 l-80 0 l0 430 Z" /><glyph glyph-name="uni04C7" unicode="&#x4c7;" d="M587 -27 q0 -93 -31.5 -139 q-31.5 -46 -101.5 -46 q-8 0 -15.5 0 q-7.5 0 -15.5 2 l0 70 q28 0 44.5 8.5 q16.5 8.5 24.5 25 q8 16.5 10 43.5 q2 27 2 63 l0 321 l-336 0 l0 -321 l-83 0 l0 700 l83 0 l0 -305 l336 0 l0 305 l83 0 l0 -727 Z" /><glyph glyph-name="uni04C8" unicode="&#x4c8;" d="M383 221 l-226 0 l0 -221 l-80 0 l0 500 l80 0 l0 -209 l226 0 l0 209 l80 0 l0 -527 q0 -93 -32 -139 q-32 -46 -102 -46 q-8 0 -15 0.5 q-7 0.5 -15 1.5 l0 68 q28 0 44.5 8.5 q16.5 8.5 25.5 26 q9 17.5 11.5 44.5 q2.5 27 2.5 63 l0 221 Z" /><glyph glyph-name="uni04C9" unicode="&#x4c9;" d="M504 321 l-336 0 l0 -321 l-83 0 l0 700 l83 0 l0 -305 l336 0 l0 305 l83 0 l0 -630 l104 0 l0 -22 l-91 -178 l-54 0 l45 130 l-87 0 l0 321 Z" /><glyph glyph-name="uni04CA" unicode="&#x4ca;" d="M383 221 l-226 0 l0 -221 l-80 0 l0 500 l80 0 l0 -209 l226 0 l0 209 l80 0 l0 -430 l100 0 l0 -22 l-91 -178 l-54 3 l45 127 l-80 0 l0 221 Z" /><glyph glyph-name="uni04CB" unicode="&#x4cb;" d="M158 700 l0 -232 q0 -137 124 -137 q47 0 88 12.5 q41 12.5 67 33.5 l0 323 l83 0 l0 -700 l-102 0 l-15 -129 l-58 0 l0 203 l92 0 l0 228 q-27 -15 -71 -30 q-44 -15 -101 -15 q-42 0 -77 9.5 q-35 9.5 -60 32 q-25 22.5 -39 60.5 q-14 38 -14 94 l0 247 l83 0 Z" /><glyph glyph-name="uni04CC" unicode="&#x4cc;" d="M333 212 q-16 -10 -47.5 -21.5 q-31.5 -11.5 -86.5 -11.5 q-37 0 -65 8.5 q-28 8.5 -47 28 q-19 19.5 -28.5 52.5 q-9.5 33 -9.5 82 l0 150 l80 0 l0 -134 q0 -26 3 -47.5 q3 -21.5 12 -37.5 q9 -16 26 -24 q17 -8 45 -8 q45 0 74 10 q29 10 44 22 l0 219 l80 0 l0 -500 l-88 0 l-15 -127 l-54 0 l0 194 l77 0 l0 145 Z" /><glyph glyph-name="uni04CD" unicode="&#x4cd;" d="M623 470 l10 105 l-5 0 l-38 -96 l-182 -316 l-25 0 l-193 317 l-36 95 l-5 0 l14 -104 l0 -471 l-78 0 l0 700 l62 0 l219 -358 l33 -78 l2 0 l31 80 l209 356 l65 0 l0 -630 l104 0 l0 -22 l-91 -178 l-54 0 l45 130 l-87 0 l0 470 Z" /><glyph glyph-name="uni04CE" unicode="&#x4ce;" d="M490 297 l6 95 l-5 0 l-36 -77 l-121 -196 l-28 0 l-126 196 l-33 77 l-4 0 l8 -94 l0 -298 l-74 0 l0 500 l79 0 l140 -224 l29 -58 l2 0 l30 60 l131 222 l80 0 l0 -430 l100 0 l0 -22 l-91 -175 l-54 0 l45 127 l-78 0 l0 297 Z" /><glyph glyph-name="uni04D8" unicode="&#x4d8;" d="M145 322 q-2 -14 -3 -26.5 q-1 -12.5 -1 -26.5 q0 -41 9.5 -79 q9.5 -38 29.5 -67 q20 -29 51.5 -47 q31.5 -18 75.5 -18 q93 0 142.5 66.5 q49.5 66.5 50.5 197.5 l-355 0 ZM500 392 q-9 128 -60.5 187 q-51.5 59 -154.5 59 q-23 0 -46 -4 q-23 -4 -43.5 -10 q-20.5 -6 -37.5 -13 q-17 -7 -28 -14 l-21 67 q30 18 80 33 q50 15 112 15 q67 0 119.5 -20.5 q52.5 -20.5 88.5 -64 q36 -43.5 55 -112.5 q19 -69 19 -165 q0 -173 -69 -267.5 q-69 -94.5 -208 -94.5 q-62 0 -109.5 20.5 q-47.5 20.5 -79.5 58 q-32 37.5 -48 91.5 q-16 54 -16 121 q0 26 2.5 54.5 q2.5 28.5 7.5 58.5 l437 0 Z" /><glyph glyph-name="afii10846" unicode="&#x4d9;" d="M65 460 q30 24 75.5 38 q45.5 14 96.5 14 q57 0 99 -18.5 q42 -18.5 69 -53 q27 -34.5 40 -83 q13 -48.5 13 -107.5 q0 -127 -56 -194.5 q-56 -67.5 -156 -67.5 q-33 0 -68 10 q-35 10 -63.5 35 q-28.5 25 -47 67.5 q-18.5 42.5 -18.5 107.5 q0 16 1.5 32.5 q1.5 16.5 3.5 35.5 l326 0 q-5 85 -41.5 125.5 q-36.5 40.5 -124.5 40.5 q-34 0 -67.5 -12 q-33.5 -12 -51.5 -28 l-30 58 ZM248 58 q55 0 92.5 39 q37.5 39 37.5 116 l-251 0 l0 -15 q0 -70 34.5 -105 q34.5 -35 86.5 -35 Z" /><glyph glyph-name="uni04E0" unicode="&#x4e0;" d="M230 62 q39 0 73.5 10 q34.5 10 60 28.5 q25.5 18.5 40 45 q14.5 26.5 14.5 59.5 q0 70 -53.5 103 q-53.5 33 -147.5 33 l-88 0 l0 27 l186 224 l44 43 l-62 -9 l-240 0 l0 74 l415 0 l0 -30 l-200 -239 l-35 -29 l0 -4 l34 9 q50 0 92 -13.5 q42 -13.5 72 -38.5 q30 -25 46.5 -61 q16.5 -36 16.5 -81 q0 -54 -20.5 -95.5 q-20.5 -41.5 -56.5 -70.5 q-36 -29 -85 -44 q-49 -15 -107 -15 q-22 0 -47 2.5 q-25 2.5 -49 7.5 q-24 5 -44.5 11 q-20.5 6 -33.5 14 l21 73 q11 -6 29 -12.5 q18 -6.5 39.5 -11 q21.5 -4.5 43.5 -7.5 q22 -3 42 -3 Z" /><glyph glyph-name="uni04E1" unicode="&#x4e1;" d="M188 -142 q34 0 63.5 10.5 q29.5 10.5 51 29 q21.5 18.5 33.5 45.5 q12 27 12 60 q0 70 -43 104 q-43 34 -117 34 l-73 0 l0 26 l144 224 l45 43 l-64 -8 l-198 0 l0 74 l359 0 l0 -29 l-159 -238 l-34 -29 l0 -4 l32 8 q40 0 74 -13.5 q34 -13.5 59 -39 q25 -25.5 39 -61.5 q14 -36 14 -80 q0 -54 -18.5 -96 q-18.5 -42 -51.5 -71 q-33 -29 -77 -44 q-44 -15 -95 -15 q-45 0 -80.5 7 q-35.5 7 -64.5 20 l23 71 q24 -12 55 -20 q31 -8 71 -8 Z" /><glyph glyph-name="uni04F6" unicode="&#x4f6;" d="M460 626 l-292 0 l0 -552 l92 0 l0 -203 l-58 0 l-15 129 l-102 0 l0 700 l375 0 l0 -74 Z" /><glyph glyph-name="uni04F7" unicode="&#x4f7;" d="M77 500 l292 0 l0 -70 l-212 0 l0 -360 l74 0 l0 -197 l-54 0 l-15 127 l-85 0 l0 500 Z" /><glyph glyph-name="uni04FC" unicode="&#x4fc;" d="M479 -42 q0 49 -16 86 q-16 37 -36 68 l-91 139 l-29 60 l-26 -60 l-162 -251 l-93 0 l233 356 l-213 344 l100 0 l142 -237 l25 -57 l24 57 l150 237 l92 0 l-220 -337 l139 -215 q32 -49 46.5 -90 q14.5 -41 14.5 -83 q0 -93 -33 -139 q-33 -46 -104 -46 q-8 0 -15.5 0 q-7.5 0 -15.5 2 l0 68 q28 0 45.5 8 q17.5 8 27 21.5 q9.5 13.5 12.5 31.5 q3 18 3 37 Z" /><glyph glyph-name="uni04FD" unicode="&#x4fd;" d="M404 126 q29 -42 46.5 -83 q17.5 -41 17.5 -79 q0 -87 -37.5 -131.5 q-37.5 -44.5 -109.5 -44.5 q-8 0 -16 0.5 q-8 0.5 -15 1.5 l0 68 q57 0 77.5 22 q20.5 22 20.5 67 q0 41 -17.5 77 q-17.5 36 -37.5 65 l-47 63 l-32 56 l-29 -56 l-108 -152 l-89 0 l180 256 l-168 244 l98 0 l95 -138 l28 -57 l29 57 l97 138 l90 0 l-169 -240 l96 -134 Z" /><glyph glyph-name="uni0510" unicode="&#x510;" d="M356 331 q-12 0 -22.5 -0.5 q-10.5 -0.5 -21.5 -1.5 q-71 -5 -115 -35 q-44 -30 -44 -92 q0 -72 48 -106 q48 -34 128 -34 q42 0 81 9.5 q39 9.5 60 23.5 l26 -63 q-25 -16 -70.5 -30 q-45.5 -14 -111.5 -14 q-56 0 -101.5 12.5 q-45.5 12.5 -78.5 38.5 q-33 26 -51 65 q-18 39 -18 93 q0 73 39 118.5 q39 45.5 110 56.5 l0 4 q-33 10 -57 27.5 q-24 17.5 -39.5 39.5 q-15.5 22 -23.5 47 q-8 25 -8 50 q0 45 18 77.5 q18 32.5 49 53.5 q31 21 73 31 q42 10 89 10 q27 0 53.5 -3.5 q26.5 -3.5 49.5 -8.5 q23 -5 41 -11.5 q18 -6.5 29 -13.5 l-24 -67 q-27 12 -66 21 q-39 9 -76 9 q-68 0 -108 -24 q-40 -24 -40 -82 q0 -28 12 -50 q12 -22 32 -38 q20 -16 45 -26 q25 -10 51 -13 q17 -2 40 -3 q23 -1 41 -1 l16 0 l0 -70 l-55 0 Z" /><glyph glyph-name="uni0511" unicode="&#x511;" d="M258 223 q-69 0 -99 -20.5 q-30 -20.5 -30 -56.5 q0 -38 32 -61.5 q32 -23.5 93 -23.5 q37 0 70 9 q33 9 56 23 l23 -65 q-25 -14 -59.5 -25.5 q-34.5 -11.5 -85.5 -11.5 q-106 0 -157.5 40 q-51.5 40 -51.5 109 q0 51 24.5 80 q24.5 29 81.5 44 l0 4 q-42 14 -64.5 44 q-22.5 30 -22.5 71 q0 62 45 93 q45 31 121 31 q57 0 97 -13 q40 -13 70 -30 l-23 -62 q-18 11 -50.5 23 q-32.5 12 -71.5 12 q-54 0 -81 -16 q-27 -16 -27 -55 q0 -16 8.5 -30.5 q8.5 -14.5 22.5 -25 q14 -10.5 31.5 -16.5 q17.5 -6 35.5 -6 l70 0 l0 -65 l-58 0 Z" /><glyph glyph-name="uni0512" unicode="&#x512;" d="M541 -27 q0 -93 -32 -139 q-32 -46 -102 -46 q-8 0 -15 0.5 q-7 0.5 -15 1.5 l0 68 q28 0 44.5 7.5 q16.5 7.5 24.5 24.5 q8 17 10 44 q2 27 2 66 l0 626 l-209 0 q-10 -200 -26.5 -332.5 q-16.5 -132.5 -50.5 -206.5 q-22 -48 -51.5 -70 q-29.5 -22 -64.5 -22 q-35 0 -58 10 l13 72 q10 -3 21 -3 q17 0 34 11 q17 11 33 41 q14 27 26 72 q12 45 21.5 114 q9.5 69 15.5 164.5 q6 95.5 9 223.5 l370 0 l0 -727 Z" /><glyph glyph-name="uni0513" unicode="&#x513;" d="M346 430 l-145 0 q-3 -42 -6 -90.5 q-3 -48.5 -9 -97 q-6 -48.5 -16 -93 q-10 -44.5 -25.5 -78.5 q-15.5 -34 -38 -54.5 q-22.5 -20.5 -53.5 -20.5 q-19 0 -33 2 q-14 2 -25 7 l12 67 q12 -4 26 -4 q20 0 36 17 q16 17 28 64.5 q12 47.5 20 131.5 q8 84 11 219 l298 0 l0 -527 q0 -93 -32 -139 q-32 -46 -102 -46 q-8 0 -15 0.5 q-7 0.5 -15 1.5 l0 68 q28 0 44.5 8.5 q16.5 8.5 25.5 26 q9 17.5 11.5 44.5 q2.5 27 2.5 63 l0 430 Z" /><glyph glyph-name="uni0524" unicode="&#x524;" d="M491 626 l-323 0 l0 -626 l-83 0 l0 700 l489 0 l0 -626 l92 0 l0 -203 l-58 0 l-15 129 l-102 0 l0 626 Z" /><glyph glyph-name="uni0525" unicode="&#x525;" d="M378 430 l-221 0 l0 -430 l-80 0 l0 500 l381 0 l0 -430 l74 0 l0 -197 l-54 0 l-15 127 l-85 0 l0 430 Z" /><glyph glyph-name="uni0526" unicode="&#x526;" d="M448 0 l0 232 q0 137 -124 137 q-48 0 -89 -12.5 q-41 -12.5 -67 -33.5 l0 -323 l-83 0 l0 700 l83 0 l0 -302 q27 15 71.5 30 q44.5 15 100.5 15 q42 0 77.5 -9.5 q35.5 -9.5 60.5 -32 q25 -22.5 39 -60.5 q14 -38 14 -94 l0 -173 l92 0 l0 -203 l-58 0 l-15 129 l-102 0 Z" /><glyph glyph-name="uni1E9E" unicode="&#x1e9e;" d="M429 603 q-9 8 -24 15 q-15 7 -34 12.5 q-19 5.5 -40.5 8.5 q-21.5 3 -43.5 3 q-44 0 -68.5 -16.5 q-24.5 -16.5 -35.5 -43.5 q-11 -27 -13 -62 q-2 -35 -2 -73 l0 -447 l-83 0 l0 478 q0 48 8.5 91 q8.5 43 31.5 74.5 q23 31.5 63 50 q40 18.5 104 18.5 q83 0 142.5 -24.5 q59.5 -24.5 103.5 -58.5 l-162 -198 l-33 -29 l0 -2 l33 7 q97 -1 151.5 -52.5 q54.5 -51.5 54.5 -141.5 q0 -108 -61 -166.5 q-61 -58.5 -168 -58.5 q-9 0 -25 1 q-16 1 -34 3 q-18 2 -35 5.5 q-17 3.5 -29 9.5 l13 75 q9 -6 23.5 -9.5 q14.5 -3.5 30.5 -6 q16 -2.5 31 -3.5 q15 -1 26 -1 q70 2 104 39 q34 37 36 103 q0 70 -44 103.5 q-44 33.5 -128 33.5 l-62 0 l0 59 l169 203 Z" /><glyph glyph-name="uni2011" unicode="&#x2011;" d="M59 325 l242 0 l0 -74 l-242 0 l0 74 Z" /><glyph glyph-name="endash" unicode="&#x2013;" d="M118 325 l424 0 l0 -74 l-424 0 l0 74 Z" /><glyph glyph-name="emdash" unicode="&#x2014;" d="M118 325 l584 0 l0 -74 l-584 0 l0 74 Z" /><glyph glyph-name="quoteleft" unicode="&#x2018;" d="M155 620 q0 -23 -15 -36.5 q-15 -13.5 -38 -13.5 q-27 0 -44.5 18 q-17.5 18 -17.5 53 q0 33 9.5 56.5 q9.5 23.5 23 40 q13.5 16.5 28 26.5 q14.5 10 25.5 14 l25 -35 q-22 -11 -35.5 -29.5 q-13.5 -18.5 -13.5 -46.5 q4 1 11 1 q20 0 31 -14 q11 -14 11 -34 Z" /><glyph glyph-name="quoteright" unicode="&#x2019;" d="M40 659 q0 23 14.5 36 q14.5 13 37.5 13 q28 0 45.5 -17.5 q17.5 -17.5 17.5 -52.5 q0 -33 -9.5 -57 q-9.5 -24 -23 -40.5 q-13.5 -16.5 -28.5 -26.5 q-15 -10 -26 -14 l-25 34 q23 12 36 30 q13 18 13 47 q-4 -1 -11 -1 q-19 0 -30 13.5 q-11 13.5 -11 35.5 Z" /><glyph glyph-name="dagger" unicode="&#x2020;" d="M40 502 l131 0 l43 -11 l-11 47 l0 162 l80 0 l0 -162 l-11 -47 l43 11 l131 0 l0 -72 l-133 0 l-41 11 l11 -42 l0 -399 l-15 -200 l-50 0 l-15 201 l0 398 l11 42 l-43 -11 l-131 0 l0 72 Z" /><glyph glyph-name="daggerdbl" unicode="&#x2021;" d="M203 400 l11 41 l-43 -11 l-131 0 l0 72 l131 0 l43 -11 l-11 46 l0 163 l80 0 l0 -163 l-11 -46 l43 11 l131 0 l0 -72 l-133 0 l-41 11 l11 -41 l0 -124 l-11 -41 l41 11 l133 0 l0 -72 l-131 0 l-43 11 l11 -46 l0 -139 l-16 -200 l-48 0 l-16 201 l0 138 l11 46 l-43 -11 l-131 0 l0 72 l131 0 l43 -11 l-11 41 l0 124 Z" /><glyph glyph-name="bullet" unicode="&#x2022;" d="M87 311 q0 31 11 56.5 q11 25.5 29.5 44 q18.5 18.5 44 28.5 q25.5 10 54.5 10 q29 0 54.5 -9.5 q25.5 -9.5 44 -27.5 q18.5 -18 29.5 -43.5 q11 -25.5 11 -58.5 q0 -33 -11 -58.5 q-11 -25.5 -29.5 -43.5 q-18.5 -18 -44 -27.5 q-25.5 -9.5 -54.5 -9.5 q-29 0 -54.5 9.5 q-25.5 9.5 -44 27.5 q-18.5 18 -29.5 43.5 q-11 25.5 -11 58.5 Z" /><glyph glyph-name="ellipsis" unicode="&#x2026;" d="M579 46 q0 27 15.5 42.5 q15.5 15.5 41.5 15.5 q27 0 43 -15.5 q16 -15.5 16 -42.5 q0 -26 -16 -42 q-16 -16 -43 -16 q-26 0 -41.5 16 q-15.5 16 -15.5 42 ZM325 46 q0 27 15.5 42.5 q15.5 15.5 41.5 15.5 q27 0 43 -15.5 q16 -15.5 16 -42.5 q0 -26 -16 -42 q-16 -16 -43 -16 q-26 0 -41.5 16 q-15.5 16 -15.5 42 ZM71 46 q0 27 15.5 42.5 q15.5 15.5 41.5 15.5 q27 0 43 -15.5 q16 -15.5 16 -42.5 q0 -26 -16 -42 q-16 -16 -43 -16 q-26 0 -41.5 16 q-15.5 16 -15.5 42 Z" /><glyph glyph-name="guilsinglleft" unicode="&#x2039;" d="M39 259 l160 230 l53 -43 l-97 -145 l-48 -41 l48 -36 l103 -142 l-53 -44 l-166 221 Z" /><glyph glyph-name="guilsinglright" unicode="&#x203a;" d="M258 268 l-160 -230 l-53 43 l97 145 l48 41 l-48 36 l-103 142 l53 44 l166 -221 Z" /><glyph glyph-name="fraction" unicode="&#x2044;" d="M310 713 l52 -35 l-487 -690 l-52 36 l487 689 Z" /><glyph glyph-name="uni2081" unicode="&#x2081;" d="M72 -39 l106 0 l0 254 l7 36 l-27 -28 l-78 -47 l-27 49 l154 102 l41 0 l0 -366 l95 0 l0 -61 l-271 0 l0 61 Z" /><glyph glyph-name="uni2082" unicode="&#x2082;" d="M319 210 q0 -31 -10.5 -60 q-10.5 -29 -28 -57 q-17.5 -28 -41.5 -55.5 q-24 -27.5 -51 -55.5 l-46 -32 l0 -2 l57 15 l140 0 l0 -63 l-291 0 l0 33 q23 19 57.5 51 q34.5 32 66.5 69 q32 37 54.5 76 q22.5 39 22.5 72 q0 31 -20 46.5 q-20 15.5 -49 15.5 q-27 0 -52.5 -9.5 q-25.5 -9.5 -44.5 -21.5 l-22 57 q26 18 60.5 28 q34.5 10 70.5 10 q63 0 95 -31 q32 -31 32 -86 Z" /><glyph glyph-name="uni2083" unicode="&#x2083;" d="M169 -47 q48 0 73.5 19 q25.5 19 25.5 56 q0 32 -23 52 q-23 20 -74 20 l-55 0 l0 23 l97 116 l34 27 l-49 -6 l-130 0 l0 60 l256 0 l0 -33 l-103 -123 l-25 -18 l0 -2 l23 3 q55 -1 87 -33 q32 -32 32 -86 q0 -61 -44.5 -98 q-44.5 -37 -118.5 -37 q-36 0 -62 6 q-26 6 -46 13 l15 60 q17 -8 39 -13.5 q22 -5.5 48 -5.5 Z" /><glyph glyph-name="uni2084" unicode="&#x2084;" d="M379 -4 l-83 0 l0 -96 l-67 0 l0 96 l-204 0 l0 37 l226 302 l45 0 l0 -280 l83 0 l0 -59 ZM229 183 l6 49 l-2 0 l-22 -46 l-78 -105 l-33 -31 l50 5 l79 0 l0 128 Z" /><glyph glyph-name="Euro" unicode="&#x20ac;" d="M28 454 l63 0 q12 67 37.5 116 q25.5 49 62 80.5 q36.5 31.5 81.5 46.5 q45 15 96 15 q51 0 88 -6.5 q37 -6.5 64 -17.5 l-21 -73 q-23 11 -54 17 q-31 6 -75 6 q-33 0 -64 -10 q-31 -10 -56.5 -32.5 q-25.5 -22.5 -45 -57.5 q-19.5 -35 -29.5 -84 l282 0 l-17 -66 l-274 0 q-1 -11 -1 -19 q0 -8 0 -19 q0 -10 0 -16.5 q0 -6.5 1 -15.5 l254 0 l-17 -66 l-230 0 q18 -94 71.5 -142 q53.5 -48 138.5 -48 q39 0 71.5 9 q32.5 9 55.5 23 l20 -65 q-30 -23 -74.5 -32 q-44.5 -9 -89.5 -9 q-114 0 -185.5 65 q-71.5 65 -91.5 199 l-79 0 l18 66 l55 0 q-1 9 -1 15.5 q0 6.5 0 16.5 q0 11 0 19 q0 8 1 19 l-73 0 l18 66 Z" /><glyph glyph-name="uni20B4" unicode="&#x20b4;" d="M450 317 l0 -66 l-229 0 q-11 -11 -21.5 -25 q-10.5 -14 -19 -30 q-8.5 -16 -14 -32.5 q-5.5 -16.5 -5.5 -31.5 q0 -36 28 -55.5 q28 -19.5 94 -19.5 q47 0 78 9.5 q31 9.5 54 21.5 l24 -64 q-23 -14 -62.5 -25 q-39.5 -11 -108.5 -11 q-96 0 -143 35.5 q-47 35.5 -47 100.5 q0 18 6 37.5 q6 19.5 15 36.5 q9 17 18.5 31 q9.5 14 15.5 22 l-92 0 l0 66 l409 0 ZM41 388 l0 66 l236 0 q25 26 39.5 58 q14.5 32 14.5 63 q0 35 -23.5 51 q-23.5 16 -80.5 16 q-40 0 -67.5 -9 q-27.5 -9 -50.5 -20 l-25 67 q14 7 29 12.5 q15 5.5 33.5 10 q18.5 4.5 41.5 7 q23 2.5 54 2.5 q85 0 128 -31 q43 -31 43 -94 q0 -38 -15 -72.5 q-15 -34.5 -37 -60.5 l89 0 l0 -66 l-409 0 Z" /><glyph glyph-name="uni20B6" unicode="&#x20b6;" d="M33 336 l71 0 l0 357 q38 9 81.5 12 q43.5 3 86.5 3 q46 0 90.5 -9 q44.5 -9 79 -33 q34.5 -24 55.5 -65 q21 -41 21 -105 q0 -63 -21.5 -105 q-21.5 -42 -57 -68 q-35.5 -26 -81 -37 q-45.5 -11 -92.5 -12 l-79 -1 l0 -71 l166 0 l0 -62 l-166 0 l0 -140 l-83 0 l0 140 l-71 0 l0 62 l71 0 l0 72 l-71 0 l0 62 ZM274 638 q-26 0 -49.5 -1.5 q-23.5 -1.5 -37.5 -4.5 l0 -290 l76 0 q30 0 60 6 q30 6 54 23 q24 17 39 46.5 q15 29.5 14 77.5 q1 41 -11.5 68.5 q-12.5 27.5 -34 44 q-21.5 16.5 -50 23.5 q-28.5 7 -60.5 7 Z" /><glyph glyph-name="afii61289" unicode="&#x2113;" d="M406 30 q-22 -14 -57.5 -28 q-35.5 -14 -70.5 -14 q-63 0 -91.5 30.5 q-28.5 30.5 -28.5 95.5 l0 104 l-50 -44 l-35 44 l85 74 l0 254 q0 44 10 75.5 q10 31.5 27.5 51.5 q17.5 20 41 29.5 q23.5 9.5 50.5 9.5 q48 0 79 -29.5 q31 -29.5 31 -89.5 q0 -74 -40 -157 q-40 -83 -131 -171 l0 -140 q0 -44 17 -60.5 q17 -16.5 41 -16.5 q25 0 55 10.5 q30 10.5 50 21.5 l17 -50 ZM333 588 q0 34 -14 49 q-14 15 -32 15 q-12 0 -23 -3.5 q-11 -3.5 -19.5 -14 q-8.5 -10.5 -13.5 -29 q-5 -18.5 -5 -48.5 l0 -212 q56 65 81.5 125.5 q25.5 60.5 25.5 117.5 Z" /><glyph glyph-name="afii61352" unicode="&#x2116;" d="M669 313 l278 0 l0 -74 l-278 0 l0 74 ZM211 454 l-54 105 l-4 0 l12 -101 l0 -458 l-80 0 l0 711 l44 0 l316 -463 l51 -100 l5 0 l-11 96 l0 456 l80 0 l0 -711 l-46 0 l-313 465 ZM650 542 q0 45 12 77 q12 32 32.5 53 q20.5 21 49 30.5 q28.5 9.5 61.5 9.5 q33 0 61.5 -9 q28.5 -9 49 -29 q20.5 -20 32.5 -52.5 q12 -32.5 12 -79.5 q0 -47 -12 -79.5 q-12 -32.5 -32.5 -52.5 q-20.5 -20 -49 -29 q-28.5 -9 -61.5 -9 q-33 0 -61.5 9 q-28.5 9 -49 29 q-20.5 20 -32.5 52.5 q-12 32.5 -12 79.5 ZM724 542 q0 -60 21.5 -86 q21.5 -26 59.5 -26 q19 0 34 5.5 q15 5.5 25.5 18 q10.5 12.5 16 34 q5.5 21.5 5.5 54.5 q0 33 -5.5 54.5 q-5.5 21.5 -16 34 q-10.5 12.5 -25.5 18 q-15 5.5 -34 5.5 q-38 0 -59.5 -23.5 q-21.5 -23.5 -21.5 -88.5 Z" /><glyph glyph-name="trademark" unicode="&#x2122;" d="M388 632 l-136 0 l0 -292 l-78 0 l0 292 l-136 0 l0 68 l350 0 l0 -68 ZM770 507 l10 103 l-4 0 l-39 -85 l-87 -140 l-33 0 l-89 139 l-36 86 l-4 0 l13 -102 l0 -168 l-73 0 l0 360 l78 0 l105 -168 l28 -58 l1 0 l30 60 l97 166 l79 0 l0 -360 l-76 0 l0 167 Z" /><glyph glyph-name="estimated" unicode="&#x212e;" d="M157 259 l0 -181 q62 -59 145 -59 q124 0 193 120 l35 -21 q-43 -66 -99 -100.5 q-56 -34.5 -129 -34.5 q-59 0 -107 21.5 q-48 21.5 -81.5 58.5 q-33.5 37 -51.5 87.5 q-18 50.5 -18 108.5 q0 59 18.5 109.5 q18.5 50.5 52.5 87.5 q34 37 81.5 58 q47.5 21 105.5 21 q62 0 109.5 -22 q47.5 -22 80.5 -59.5 q33 -37.5 50 -87.5 q17 -50 19 -107 l-404 0 ZM448 295 l0 145 q-63 60 -147 60 q-86 0 -144 -60 l0 -145 l291 0 Z" /><glyph glyph-name="partialdiff" unicode="&#x2202;" d="M287 510 q42 0 62 -7.5 q20 -7.5 37 -21.5 l5 0 q-3 46 -22.5 77.5 q-19.5 31.5 -48.5 51 q-29 19.5 -64 28.5 q-35 9 -69 9 q-5 0 -10.5 0 q-5.5 0 -10.5 -1 l15 66 q68 0 122.5 -14.5 q54.5 -14.5 92.5 -49.5 q38 -35 58 -93 q20 -58 20 -145 q0 -108 -19.5 -187.5 q-19.5 -79.5 -54 -131.5 q-34.5 -52 -83 -77.5 q-48.5 -25.5 -105.5 -25.5 q-96 0 -144 50.5 q-48 50.5 -48 143.5 q0 60 17 118.5 q17 58.5 50.5 105 q33.5 46.5 83.5 75.5 q50 29 116 29 ZM281 440 q-36 0 -68.5 -19.5 q-32.5 -19.5 -57 -54.5 q-24.5 -35 -38.5 -83.5 q-14 -48.5 -14 -105.5 q0 -23 6 -45 q6 -22 20 -38.5 q14 -16.5 36 -26 q22 -9.5 54 -9.5 q50 0 83 30.5 q33 30.5 53 79.5 q20 49 28 109 q8 60 8 117 q-18 21 -43 33.5 q-25 12.5 -67 12.5 Z" /><glyph glyph-name="product" unicode="&#x220f;" d="M511 626 l-343 0 l0 -826 l-83 0 l0 900 l509 0 l0 -900 l-83 0 l0 826 Z" /><glyph glyph-name="summation" unicode="&#x2211;" d="M125 -90 l-40 -36 l382 0 l0 -74 l-453 0 l0 74 l224 346 l34 30 l-35 32 l-223 344 l0 74 l453 0 l0 -74 l-378 0 l43 -36 l215 -334 l-222 -346 Z" /><glyph glyph-name="minus" unicode="&#x2212;" d="M40 374 l424 0 l0 -72 l-424 0 l0 72 Z" /><glyph glyph-name="radical" unicode="&#x221a;" d="M167 446 l92 -227 l23 -114 l2 0 l19 116 l148 479 l75 0 l-226 -711 l-31 0 l-157 385 l-121 0 l0 72 l176 0 Z" /><glyph glyph-name="infinity" unicode="&#x221e;" d="M423 285 q-36 -58 -88 -90 q-52 -32 -110 -32 q-35 0 -65.5 12.5 q-30.5 12.5 -54 36.5 q-23.5 24 -37 58 q-13.5 34 -13.5 76 q0 45 13 80.5 q13 35.5 36.5 60.5 q23.5 25 56 38.5 q32.5 13.5 71.5 13.5 q70 0 120.5 -31.5 q50.5 -31.5 80.5 -80.5 q43 60 96 86 q53 26 111 26 q35 0 64.5 -12.5 q29.5 -12.5 51 -36.5 q21.5 -24 33.5 -57.5 q12 -33.5 12 -75.5 q0 -45 -13 -81 q-13 -36 -37 -61 q-24 -25 -56.5 -38.5 q-32.5 -13.5 -71.5 -13.5 q-35 0 -65 10 q-30 10 -55 26.5 q-25 16.5 -45 39 q-20 22.5 -35 46.5 ZM625 237 q41 0 69.5 32 q28.5 32 28.5 86 q0 21 -6 41 q-6 20 -18.5 35.5 q-12.5 15.5 -31.5 24.5 q-19 9 -44 9 q-41 0 -83.5 -23 q-42.5 -23 -77.5 -71 q12 -27 29 -51.5 q17 -24.5 38 -42.5 q21 -18 45 -29 q24 -11 51 -11 ZM231 465 q-20 0 -38 -9 q-18 -9 -31.5 -24.5 q-13.5 -15.5 -21 -37 q-7.5 -21.5 -7.5 -45.5 q0 -48 29 -80 q29 -32 80 -32 q22 0 43.5 8 q21.5 8 41 22.5 q19.5 14.5 36.5 33 q17 18.5 31 39.5 q-27 56 -68 90.5 q-41 34.5 -95 34.5 Z" /><glyph glyph-name="integral" unicode="&#x222b;" d="M214 -58 q0 -78 -33 -114 q-33 -36 -104 -36 q-35 0 -66 7 q-31 7 -55 17 l22 64 q23 -9 45.5 -13.5 q22.5 -4.5 45.5 -4.5 q38 0 51.5 24 q13.5 24 13.5 83 l0 593 q0 78 33 114 q33 36 105 36 q34 0 65 -7 q31 -7 55 -17 l-21 -64 q-23 9 -45.5 13.5 q-22.5 4.5 -46.5 4.5 q-38 0 -51.5 -23 q-13.5 -23 -13.5 -82 l0 -595 Z" /><glyph glyph-name="notequal" unicode="&#x2260;" d="M40 457 l228 0 l61 137 l72 0 l-61 -137 l124 0 l0 -72 l-155 0 l-42 -94 l197 0 l0 -72 l-228 0 l-67 -153 l-72 0 l67 153 l-124 0 l0 72 l155 0 l42 94 l-197 0 l0 72 Z" /><glyph glyph-name="lessequal" unicode="&#x2264;" d="M459 82 l-35 -63 l-368 210 l35 64 l368 -211 ZM36 426 l0 29 l378 231 l38 -62 l-237 -145 l-91 -38 l90 -32 l243 -144 l-38 -60 l-383 221 Z" /><glyph glyph-name="greaterequal" unicode="&#x2265;" d="M457 234 l-366 -215 l-38 62 l367 215 l37 -62 ZM458 465 l0 -29 l-378 -231 l-38 62 l237 145 l91 38 l-90 32 l-243 144 l38 60 l383 -221 Z" /><glyph glyph-name="lozenge" unicode="&#x25ca;" d="M267 -11 l-33 0 l-200 353 l200 369 l33 0 l203 -364 l-203 -358 ZM285 161 l102 176 l-109 194 l-28 88 l-2 0 l-28 -90 l-102 -176 l109 -194 l29 -88 l1 0 l28 90 Z" /><glyph glyph-name="uni2C67" unicode="&#x2c67;" d="M504 321 l-336 0 l0 -321 l-83 0 l0 700 l83 0 l0 -305 l336 0 l0 305 l83 0 l0 -626 l92 0 l0 -203 l-58 0 l-15 129 l-102 0 l0 321 Z" /><glyph glyph-name="uni2C68" unicode="&#x2c68;" d="M398 0 l0 285 q0 39 -4.5 68.5 q-4.5 29.5 -16.5 49 q-12 19.5 -32.5 29.5 q-20.5 10 -53.5 10 q-47 0 -85 -30.5 q-38 -30.5 -49 -78.5 l0 -333 l-80 0 l0 700 l80 0 l0 -256 l4 0 q26 31 62.5 49.5 q36.5 18.5 90.5 18.5 q42 0 73 -9.5 q31 -9.5 51.5 -33.5 q20.5 -24 30 -64.5 q9.5 -40.5 9.5 -102.5 l0 -232 l74 0 l0 -197 l-54 0 l-15 127 l-85 0 Z" /><glyph glyph-name="uniF406" unicode="&#xf406;" d="M103 871 q17 -34 52 -52.5 q35 -18.5 82 -18.5 q48 0 81 21 q33 21 47 50 l40 -19 q-9 -29 -25.5 -51.5 q-16.5 -22.5 -39 -38.5 q-22.5 -16 -49.5 -24 q-27 -8 -55 -8 q-27 0 -53.5 7 q-26.5 7 -49.5 21 q-23 14 -42 36.5 q-19 22.5 -31 52.5 l43 24 Z" /><glyph glyph-name="uniF408" unicode="&#xf408;" d="M193 870 l60 0 l127 -102 l0 -21 l-81 0 l-60 49 l-17 35 l-19 -34 l-64 -50 l-79 0 l0 22 l133 101 Z" /><glyph glyph-name="uniF40B" unicode="&#xf40b;" d="M60 797 q0 21 16.5 36.5 q16.5 15.5 45.5 15.5 q29 0 46.5 -15.5 q17.5 -15.5 17.5 -36.5 q0 -23 -17.5 -38 q-17.5 -15 -46.5 -15 q-29 0 -45.5 15 q-16.5 15 -16.5 38 Z" /><glyph glyph-name="uniF40C" unicode="&#xf40c;" d="M60 768 q0 37 25 61 q25 24 80 24 q50 0 78 -21.5 q28 -21.5 28 -63.5 q0 -36 -26.5 -59.5 q-26.5 -23.5 -79.5 -23.5 q-51 0 -78 22.5 q-27 22.5 -27 60.5 ZM121 768 q0 -17 10.5 -28.5 q10.5 -11.5 33.5 -11.5 q22 0 33.5 11 q11.5 11 11.5 29 q0 19 -11 30.5 q-11 11.5 -34 11.5 q-22 0 -33 -11.5 q-11 -11.5 -11 -30.5 Z" /><glyph glyph-name="uniF40D" unicode="&#xf40d;" d="M60 785 q31 32 57.5 43.5 q26.5 11.5 50.5 11.5 q19 0 37 -5 q18 -5 34.5 -11.5 q16.5 -6.5 32.5 -11.5 q16 -5 31 -5 q26 0 50 21 l25 -43 q-27 -25 -51 -34.5 q-24 -9.5 -45 -9.5 q-19 0 -36 5 q-17 5 -33.5 11.5 q-16.5 6.5 -32.5 11.5 q-16 5 -32 5 q-16 0 -31.5 -6.5 q-15.5 -6.5 -32.5 -23.5 l-24 41 Z" /><glyph glyph-name="uniF49E" unicode="&#xf49e;" d="M-3 589 l88 0 l0 111 l83 0 l0 -111 l219 0 l0 -66 l-219 0 l0 -125 q27 15 71.5 30 q44.5 15 100.5 15 q42 0 77.5 -9.5 q35.5 -9.5 60.5 -32 q25 -22.5 39 -60.5 q14 -38 14 -94 l0 -247 l-83 0 l0 232 q0 137 -124 137 q-48 0 -89 -12.5 q-41 -12.5 -67 -33.5 l0 -323 l-83 0 l0 523 l-88 0 l0 66 Z" /><glyph glyph-name="uniF4C6" unicode="&#xf4c6;" d="M158 700 l0 -232 q0 -137 124 -137 q47 0 88 12.5 q41 12.5 67 33.5 l0 323 l83 0 l0 -727 q0 -93 -33.5 -139 q-33.5 -46 -104.5 -46 q-8 0 -17 0.5 q-9 0.5 -14 1.5 l0 68 q28 0 45 8.5 q17 8.5 26 26 q9 17.5 12 44.5 q3 27 3 63 l0 302 q-27 -15 -71 -30 q-44 -15 -101 -15 q-42 0 -77 9.5 q-35 9.5 -60 32 q-25 22.5 -39 60.5 q-14 38 -14 94 l0 247 l83 0 Z" /><glyph glyph-name="uniF4C7" unicode="&#xf4c7;" d="M333 210 q-16 -10 -47.5 -22 q-31.5 -12 -86.5 -12 q-37 0 -65 8 q-28 8 -47 28 q-19 20 -28.5 53 q-9.5 33 -9.5 83 l0 152 l80 0 l0 -136 q0 -27 3 -48.5 q3 -21.5 12 -37.5 q9 -16 26 -24 q17 -8 45 -8 q45 0 74 10 q29 10 44 22 l0 222 l80 0 l0 -527 q0 -93 -32 -139 q-32 -46 -102 -46 q-8 0 -15 0.5 q-7 0.5 -15 1.5 l0 68 q28 0 44.5 8.5 q16.5 8.5 25.5 26 q9 17.5 11.5 44.5 q2.5 27 2.5 63 l0 210 Z" /><glyph glyph-name="uniF530" unicode="&#xf530;" d="M456 626 l-209 0 q-10 -200 -26.5 -332.5 q-16.5 -132.5 -49.5 -206.5 q-22 -48 -52 -70 q-30 -22 -65 -22 q-18 0 -31 2.5 q-13 2.5 -25 7.5 l11 72 q10 -3 21 -3 q17 0 33.5 11 q16.5 11 32.5 41 q14 27 26.5 72 q12.5 45 22 114 q9.5 69 15.5 164.5 q6 95.5 9 223.5 l370 0 l0 -626 l92 0 l0 -203 l-58 0 l-15 129 l-102 0 l0 626 Z" /><glyph glyph-name="uniF531" unicode="&#xf531;" d="M346 430 l-145 0 q-3 -42 -6 -90.5 q-3 -48.5 -9 -97 q-6 -48.5 -16 -93 q-10 -44.5 -25.5 -78.5 q-15.5 -34 -38 -54.5 q-22.5 -20.5 -53.5 -20.5 q-19 0 -33 2 q-14 2 -25 7 l12 67 q12 -4 26 -4 q20 0 36 17 q16 17 28 64.5 q12 47.5 20 131.5 q8 84 11 219 l298 0 l0 -430 l74 0 l0 -197 l-54 0 l-15 127 l-85 0 l0 430 Z" /><glyph glyph-name="uniF532" unicode="&#xf532;" d="M513 474 l6 80 l-4 0 l-43 -82 l-338 -472 l-49 0 l0 700 l83 0 l0 -480 l-7 -79 l4 0 l44 82 l338 477 l49 0 l0 -727 q0 -93 -32.5 -139 q-32.5 -46 -104.5 -46 q-8 0 -16.5 0.5 q-8.5 0.5 -14.5 1.5 l0 68 q28 0 45 8.5 q17 8.5 26 26 q9 17.5 11.5 44.5 q2.5 27 2.5 63 l0 474 ZM258 870 q4 -37 28 -57 q24 -20 64 -20 q40 0 63.5 20 q23.5 20 28.5 56 l71 -17 q-11 -54 -50.5 -85.5 q-39.5 -31.5 -113.5 -31.5 q-71 0 -116.5 27.5 q-45.5 27.5 -53.5 87.5 l79 20 Z" /><glyph glyph-name="uniF533" unicode="&#xf533;" d="M389 296 l3 62 l-3 0 l-41 -64 l-225 -294 l-46 0 l0 500 l80 0 l0 -305 l-3 -59 l4 0 l39 62 l225 302 l47 0 l0 -527 q0 -93 -32 -139 q-32 -46 -102 -46 q-8 0 -15 0.5 q-7 0.5 -15 1.5 l0 68 q28 0 44.5 8.5 q16.5 8.5 25.5 26 q9 17.5 11.5 44.5 q2.5 27 2.5 63 l0 296 ZM192 702 q10 -46 34.5 -64 q24.5 -18 56.5 -18 q32 0 57 19 q25 19 34 62 l60 -19 q-9 -58 -51.5 -89 q-42.5 -31 -101.5 -31 q-27 0 -53.5 7 q-26.5 7 -47.5 21 q-21 14 -36 36 q-15 22 -20 52 l68 24 Z" /><glyph glyph-name="uni0493.alt" unicode="&#xf53d;" d="M369 430 l-212 0 l0 -153 l187 0 l0 -70 l-187 0 l0 -207 l-80 0 l0 500 l292 0 l0 -70 Z" /><glyph glyph-name="uniF54B" unicode="&#xf54b;" d="M116 152 l0 65 l70 0 q18 0 36 9.5 q18 9.5 32 25.5 q14 16 23 37 q9 21 9 44 q0 56 -28 80 q-28 24 -83 24 q-39 0 -70 -11.5 q-31 -11.5 -49 -22.5 l-23 62 q30 17 69.5 29.5 q39.5 12.5 95.5 12.5 q78 0 123 -39 q45 -39 45 -114 q0 -30 -8.5 -55 q-8.5 -25 -21.5 -45.5 q-13 -20.5 -29 -34.5 q-16 -14 -31 -21 l0 -4 q25 -9 47 -22.5 q22 -13.5 38 -35 q16 -21.5 25 -52.5 q9 -31 9 -74 q0 -51 -17 -91.5 q-17 -40.5 -47 -69 q-30 -28.5 -70.5 -43.5 q-40.5 -15 -87.5 -15 q-51 0 -84 9 q-33 9 -60 22 l23 66 q23 -13 53.5 -20 q30.5 -7 54.5 -7 q32 0 60 9 q28 9 49 28 q21 19 33.5 48 q12.5 29 12.5 68 q0 70 -43 104 q-43 34 -112 34 l-44 0 Z" /><glyph glyph-name="one.numerator" unicode="&#xf662;" d="M179 595 l7 36 l-28 -28 l-78 -47 l-27 49 l154 102 l42 0 l0 -427 l-70 0 l0 315 Z" /><glyph glyph-name="uniF6C3" unicode="&#xf6c3;" d="M60 -102 q0 21 15.5 34 q15.5 13 35.5 13 q25 0 44.5 -17.5 q19.5 -17.5 19.5 -57.5 q0 -26 -9 -45.5 q-9 -19.5 -21.5 -34 q-12.5 -14.5 -26 -23 q-13.5 -8.5 -23.5 -12.5 l-28 32 q20 11 32 28 q12 17 12 41 q-4 -1 -10 -1 q-18 0 -29.5 12 q-11.5 12 -11.5 31 Z" /><glyph glyph-name="uniF6C9" unicode="&#xf6c9;" d="M178 870 l114 0 l0 -21 l-163 -97 l-69 0 l118 118 Z" /><glyph glyph-name="uniF6CA" unicode="&#xf6ca;" d="M245 746 l-58 0 l-127 103 l0 21 l82 0 l59 -50 l17 -34 l19 33 l63 51 l78 0 l0 -22 l-133 -102 Z" /><glyph glyph-name="uniF6CB" unicode="&#xf6cb;" d="M60 794 q0 21 15 34 q15 13 39 13 q23 0 37.5 -13 q14.5 -13 14.5 -34 q0 -20 -14.5 -33 q-14.5 -13 -37.5 -13 q-24 0 -39 13 q-15 13 -15 33 ZM252 794 q0 21 14.5 34 q14.5 13 37.5 13 q24 0 39 -13 q15 -13 15 -34 q0 -20 -15 -33 q-15 -13 -39 -13 q-23 0 -37.5 13 q-14.5 13 -14.5 33 Z" /><glyph glyph-name="uniF6CE" unicode="&#xf6ce;" d="M292 752 l-74 0 l-158 97 l0 21 l114 0 l118 -118 Z" /><glyph glyph-name="uniF6CF" unicode="&#xf6cf;" d="M124 850 l93 0 l0 -16 l-100 -93 l-57 0 l64 109 ZM286 850 l99 0 l0 -16 l-143 -93 l-58 0 l102 109 Z" /><glyph glyph-name="uniF6D0" unicode="&#xf6d0;" d="M60 843 l316 0 l0 -62 l-316 0 l0 62 Z" /><glyph glyph-name="uniF6D1" unicode="&#xf6d1;" d="M139 870 q4 -37 28 -57 q24 -20 64 -20 q40 0 63.5 20 q23.5 20 28.5 56 l71 -17 q-11 -54 -50.5 -85.5 q-39.5 -31.5 -113.5 -31.5 q-71 0 -116.5 27.5 q-45.5 27.5 -53.5 87.5 l79 20 Z" /><glyph glyph-name="uniF6D4" unicode="&#xf6d4;" d="M128 702 q10 -46 34.5 -64 q24.5 -18 56.5 -18 q32 0 57 19 q25 19 34 62 l60 -19 q-9 -58 -51.5 -89 q-42.5 -31 -101.5 -31 q-27 0 -53.5 7 q-26.5 7 -47.5 21 q-21 14 -36 36 q-15 22 -20 52 l68 24 Z" /><glyph glyph-name="fi" unicode="&#xfb01;" d="M462 500 l0 -500 l-80 0 l0 430 l-202 0 l0 -430 l-80 0 l0 430 l-78 0 l0 70 l78 0 l0 28 q0 94 46.5 136.5 q46.5 42.5 136.5 42.5 q59 0 105 -11.5 q46 -11.5 72 -27.5 l-27 -64 q-27 17 -64 25 q-37 8 -79 8 q-37 0 -58.5 -8.5 q-21.5 -8.5 -33 -26 q-11.5 -17.5 -15 -43.5 q-3.5 -26 -3.5 -59 l282 0 Z" /><glyph glyph-name="fl" unicode="&#xfb02;" d="M376 634 q-15 3 -43 5.5 q-28 2.5 -55 2.5 q-34 0 -53.5 -9.5 q-19.5 -9.5 -29.5 -28 q-10 -18.5 -12.5 -45 q-2.5 -26.5 -2.5 -59.5 l103 0 l0 -70 l-103 0 l0 -430 l-80 0 l0 430 l-78 0 l0 70 l78 0 l0 28 q0 94 40.5 139 q40.5 45 135.5 45 q20 0 45 -1.5 q25 -1.5 50.5 -4 q25.5 -2.5 48 -5.5 q22.5 -3 36.5 -7 l0 -571 q0 -35 12.5 -50 q12.5 -15 33.5 -15 q14 0 29 2 q15 2 34 9 l8 -63 q-8 -4 -19.5 -7.5 q-11.5 -3.5 -24.5 -5.5 q-13 -2 -26 -3.5 q-13 -1.5 -23 -1.5 q-45 0 -74.5 25.5 q-29.5 25.5 -29.5 86.5 l0 534 Z" /></font>
</defs>
</svg>
