<svg xmlns="http://www.w3.org/2000/svg">
<defs>
<font id="ParaTypeLtd: PT Sans Bold: 2010" horiz-adv-x="1232"><font-face font-family="PT Sans" font-weight="700" font-stretch="normal" units-per-em="1000" panose-1="2 11 7 3 2 2 3 2 2 4" ascent="1018" descent="-276" x-height="4" bbox="-387 -273 1191 1010" underline-thickness="50" underline-position="-75" unicode-range="U+0020-fb02" /><missing-glyph horiz-adv-x="750" d="M50 700 l650 0 l0 -700 l-650 0 l0 700 ZM570 620 l-195 -217 l-195 217 l-50 -50 l197 -220 l-197 -220 l50 -50 l195 217 l195 -217 l50 50 l-198 220 l198 220 l-50 50 ZM129 27 l8 0 l0 12 l4 0 q6 0 11 2.5 q5 2.5 5 9.5 q0 8 -5.5 10 q-5.5 2 -11.5 2 l-11 0 l0 -36 ZM141 57 q8 0 8 -5 q0 -5 -2.5 -5.5 q-2.5 -0.5 -6.5 -0.5 l-3 0 l0 11 l4 0 ZM189 63 l-31 0 l0 -6 l12 0 l0 -30 l7 0 l0 30 l12 0 l0 6 ZM222 37 q0 -4 -7 -4 q-7 0 -9 2 l-3 -7 q2 0 5 -1 q3 -1 8 -1 q14 0 14 12 q0 9 -9 10 q-9 1 -9 6 q0 3 6 3 q5 0 9 -2 l2 7 q-6 2 -11 2 q-14 0 -14 -11 q0 -5 3 -7 q3 -2 6 -3.5 q3 -1.5 6 -2.5 q3 -1 3 -3 ZM237 47 q4 2 9 2 q5 0 5 -4 l0 -2 q-1 0 -2 0.5 q-1 0.5 -3 0.5 q-12 0 -12 -10 q0 -8 8 -8 q6 0 9 5 l2 -4 l6 0 q-1 2 -1 7 l0 11 q0 10 -10 10 q-4 0 -7.5 -1 q-3.5 -1 -5.5 -2 l2 -5 ZM245 32 q-4 0 -4 4 q0 4 5 4 q2 0 3 -0.5 q1 -0.5 2 -0.5 l0 -3 q-2 -4 -6 -4 ZM292 27 l0 16 q0 12 -9 12 q-7 0 -10 -5 l-2 4 l-5 0 l0 -27 l7 0 l0 17 q2 4 6 4 q5 0 5 -6 l0 -15 l8 0 ZM297 28 q4 -2 10 -2 q11 0 11 9 q0 5 -2.5 6 q-2.5 1 -5.5 3 q-5 2 -5 3 q0 2 3 2 q4 0 8 -2 l2 6 q-4 2 -10 2 q-10 0 -10 -9 q0 -5 3 -6.5 q3 -1.5 5 -2.5 q5 0 5 -3 q0 -2 -3 -2 q-5 0 -9 2 l-2 -6 ZM338 42 q0 -21 20 -21 q20 0 20 21 q0 20 -20 20 q-8 0 -14 -5.5 q-6 -5.5 -6 -14.5 ZM344 42 q0 15 14 15 q14 0 14 -15 q0 -15 -14 -15 q-14 0 -14 15 ZM364 38 q-2 -1 -4 -1 q-4 0 -4 5 q0 4 4 4 l3 0 l2 4 q-4 2 -7 2 q-9 0 -9 -10 q0 -11 9 -11 q5 0 7 2 l-1 5 ZM399 27 l8 0 l0 12 l4 0 q6 0 11 2.5 q5 2.5 5 9.5 q0 8 -5.5 10 q-5.5 2 -11.5 2 l-11 0 l0 -36 ZM411 57 q8 0 8 -5 q0 -5 -2.5 -5.5 q-2.5 -0.5 -6.5 -0.5 l-3 0 l0 11 l4 0 ZM432 47 q4 2 9 2 q5 0 5 -4 l0 -2 q-1 0 -2 0.5 q-1 0.5 -3 0.5 q-13 0 -13 -10 q0 -8 9 -8 q6 0 9 5 
<glyph glyph-name="space" unicode=" " d="" /><glyph glyph-name="exclam" unicode="!" d="M100 700 l134 0 l0 -329 l-26 -163 l-82 0 l-26 163 l0 329 ZM86 66 q0 35 22 55.5 q22 20.5 58 20.5 q38 0 60 -20.5 q22 -20.5 22 -55.5 q0 -35 -22 -56 q-22 -21 -60 -21 q-36 0 -58 21 q-22 21 -22 56 Z" /><glyph glyph-name="numbersign" unicode="#" d="M289 205 l-89 0 l-36 -154 l-107 0 l36 154 l-74 0 l22 97 l75 0 l25 106 l-72 0 l22 97 l73 0 l35 144 l106 0 l-34 -144 l89 0 l35 144 l106 0 l-34 -144 l72 0 l-25 -97 l-70 0 l-25 -106 l69 0 l-24 -97 l-68 0 l-36 -154 l-107 0 l36 154 ZM223 302 l89 0 l25 106 l-89 0 l-25 -106 Z" /><glyph glyph-name="dollar" unicode="$" d="M238 -13 q-57 2 -100 12 q-43 10 -67 23 l39 113 q18 -11 50.5 -21 q32.5 -10 77.5 -14 l0 205 q-31 14 -61.5 31 q-30.5 17 -54.5 41 q-24 24 -38.5 57.5 q-14.5 33.5 -14.5 79.5 q0 86 45.5 133.5 q45.5 47.5 123.5 61.5 l0 91 l104 0 l0 -87 q44 -3 77 -12 q33 -9 61 -21 l-36 -111 q-17 8 -43 16 q-26 8 -59 12 l0 -187 q31 -14 62.5 -31.5 q31.5 -17.5 56 -41.5 q24.5 -24 40 -56.5 q15.5 -32.5 15.5 -77.5 q0 -92 -46.5 -143.5 q-46.5 -51.5 -127.5 -66.5 l0 -93 l-104 0 l0 87 ZM386 188 q0 32 -25.5 52.5 q-25.5 20.5 -61.5 37.5 l0 -178 q44 5 65.5 28 q21.5 23 21.5 60 ZM199 525 q0 -30 23.5 -50 q23.5 -20 58.5 -37 l0 162 q-47 -2 -64.5 -23 q-17.5 -21 -17.5 -52 Z" /><glyph glyph-name="ampersand" unicode="&amp;" d="M92 194 q0 38 12.5 72.5 q12.5 34.5 35 64.5 q22.5 30 53.5 56 q31 26 67 46 q-25 33 -41 67 q-16 34 -16 72 q0 25 9.5 50.5 q9.5 25.5 30 46 q20.5 20.5 53.5 33 q33 12.5 80 12.5 q46 0 78.5 -11 q32.5 -11 52.5 -29 q20 -18 29 -41 q9 -23 9 -47 q0 -41 -29 -85.5 q-29 -44.5 -99 -85.5 q35 -54 70 -99 q35 -45 78 -89 q23 25 41.5 62.5 q18.5 37.5 32.5 76.5 l94 -50 q-6 -18 -16.5 -39.5 q-10.5 -21.5 -23 -43.5 q-12.5 -22 -25.5 -41.5 q-13 -19.5 -24 -33.5 q32 -29 56 -45.5 q24 -16.5 49 -30.5 l-69 -96 q-28 13 -57.5 34.5 q-29.5 21.5 -58.5 49.5 q-36 -33 -90 -58.5 q-54 -25.5 -133 -25.5 q-52 0 -97.5 14 q-45.5 14 -79 41 q-33.5 27 -53 65.5 q-19.5 38.5 -19.5 87.5 ZM486 149 q-51 53 -93 105.5 q-42 52.5 -73 99.5 q-48 -37 -73 -71.5 q-25 -34.5 -25 -77.5 q0 -51 37.5 -80 q37.5 -29 98.5 -29 q40 0 75 16.5 q35 16.5 53 36.5 ZM333 566 q0 -42 36 -90 q39 25 56.5 47 q17.5 22 17.5 42 q0 24 -13.5 38 q-13.5 14 -43.5 14 q-27 0 -40 -14 q-13 -14 -13 -37 Z" /><glyph glyph-name="quotesingle" unicode="&#39;" d="M90 700 l114 0 l-36 -216 l-78 0 l0 216 Z" /><glyph glyph-name="parenleft" unicode="(" d="M227 -220 q-46 48 -78 105.5 q-32 57.5 -51.5 118 q-19.5 60.5 -28.5 122 q-9 61.5 -9 117.5 q0 55 9 116 q9 61 29 122.5 q20 61.5 52.5 120.5 q32.5 59 79.5 110 l84 -54 q-35 -47 -58.5 -98 q-23.5 -51 -38 -104.5 q-14.5 -53.5 -21 -107.5 q-6.5 -54 -6.5 -105 q0 -48 7 -102 q7 -54 22 -107.5 q15 -53.5 39 -104.5 q24 -51 58 -93 l-89 -56 Z" /><glyph glyph-name="parenright" unicode=")" d="M97 712 q48 -48 80 -105.5 q32 -57.5 51.5 -118 q19.5 -60.5 28.5 -122 q9 -61.5 10 -119.5 q-1 -53 -10 -114 q-9 -61 -29 -122.5 q-20 -61.5 -52.5 -120.5 q-32.5 -59 -75.5 -110 l-89 56 q38 49 62 100.5 q24 51.5 38 104 q14 52.5 19.5 105 q5.5 52.5 6.5 97.5 q-1 54 -8.5 107.5 q-7.5 53.5 -22.5 107 q-15 53.5 -38.5 104 q-23.5 50.5 -54.5 96.5 l84 54 Z" /><glyph glyph-name="asterisk" unicode="*" d="M144 731 l28 -46 l15 -59 l15 55 l28 49 l64 -35 l-30 -52 l-48 -43 l65 16 l57 0 l0 -73 l-55 0 l-61 16 l50 -47 l25 -42 l-64 -37 l-27 46 l-20 64 l-13 -58 l-29 -49 l-64 37 l29 49 l45 37 l-55 -16 l-59 0 l0 74 l60 0 l59 -17 l-51 44 l-28 50 l64 37 Z" /><glyph glyph-name="plus" unicode="+" d="M43 394 l162 0 l0 169 l117 0 l0 -169 l163 0 l0 -112 l-163 0 l0 -171 l-117 0 l0 171 l-162 0 l0 112 Z" /><glyph glyph-name="comma" unicode="," d="M42 64 q0 34 22.5 54 q22.5 20 55.5 20 q42 0 66 -28 q24 -28 24 -74 q0 -45 -14 -77.5 q-14 -32.5 -34.5 -54 q-20.5 -21.5 -44 -34 q-23.5 -12.5 -42.5 -18.5 l-38 54 q27 11 47 36 q20 25 22 53 q-23 -3 -43.5 14 q-20.5 17 -20.5 55 Z" /><glyph glyph-name="hyphen" unicode="-" d="M54 345 l251 0 l0 -115 l-251 0 l0 115 Z" /><glyph glyph-name="period" unicode="." d="M42 66 q0 35 22 55.5 q22 20.5 58 20.5 q38 0 60 -20.5 q22 -20.5 22 -55.5 q0 -35 -22 -56 q-22 -21 -60 -21 q-36 0 -58 21 q-22 21 -22 56 Z" /><glyph glyph-name="slash" unicode="/" d="M333 712 l98 -44 l-357 -808 l-98 46 l357 806 Z" /><glyph glyph-name="zero" unicode="0" d="M40 351 q0 184 63 273.5 q63 89.5 181 89.5 q126 0 185 -88.5 q59 -88.5 59 -274.5 q0 -185 -63.5 -275 q-63.5 -90 -181.5 -90 q-125 0 -184 94.5 q-59 94.5 -59 270.5 ZM170 351 q0 -122 26.5 -188.5 q26.5 -66.5 87.5 -66.5 q59 0 86.5 61 q27.5 61 27.5 194 q0 121 -26 187 q-26 66 -89 66 q-60 0 -86.5 -62 q-26.5 -62 -26.5 -191 Z" /><glyph glyph-name="one" unicode="1" d="M101 110 l139 0 l0 395 l15 68 l-48 -59 l-89 -61 l-55 75 l228 184 l73 0 l0 -602 l136 0 l0 -110 l-399 0 l0 110 Z" /><glyph glyph-name="two" unicode="2" d="M475 529 q0 -51 -18.5 -103 q-18.5 -52 -47 -102 q-28.5 -50 -63 -96.5 q-34.5 -46.5 -67.5 -85.5 l-53 -41 l0 -5 l72 14 l192 0 l0 -110 l-421 0 l0 67 q24 25 54 58.5 q30 33.5 60.5 71 q30.5 37.5 59.5 77.5 q29 40 52 80.5 q23 40.5 36.5 78.5 q13.5 38 13.5 72 q0 41 -23.5 67.5 q-23.5 26.5 -74.5 26.5 q-32 0 -65.5 -13.5 q-33.5 -13.5 -56.5 -34.5 l-52 92 q39 32 88.5 51.5 q49.5 19.5 116.5 19.5 q43 0 79 -12 q36 -12 62 -35 q26 -23 41 -57.5 q15 -34.5 15 -80.5 Z" /><glyph glyph-name="three" unicode="3" d="M241 96 q62 0 94.5 33 q32.5 33 32.5 80 q0 57 -34 84 q-34 27 -107 27 l-72 0 l0 69 l121 165 l57 45 l-79 -9 l-168 0 l0 110 l382 0 l0 -71 l-141 -189 l-44 -27 l0 -5 l42 6 q35 -3 66.5 -16 q31.5 -13 55 -37.5 q23.5 -24.5 37.5 -60.5 q14 -36 14 -83 q0 -59 -19.5 -102 q-19.5 -43 -54 -72 q-34.5 -29 -80.5 -43 q-46 -14 -99 -14 q-44 0 -91 8 q-47 8 -76 23 l35 108 q26 -13 57.5 -21 q31.5 -8 70.5 -8 Z" /><glyph glyph-name="four" unicode="4" d="M553 195 l-110 0 l0 -195 l-121 0 l0 195 l-303 0 l0 74 l317 436 l107 0 l0 -406 l110 0 l0 -104 ZM322 452 l9 84 l-4 0 l-34 -72 l-104 -135 l-50 -38 l64 8 l119 0 l0 153 Z" /><glyph glyph-name="five" unicode="5" d="M220 101 q66 0 101 32 q35 32 35 88 q0 60 -41 88 q-41 28 -117 28 l-79 -3 l0 366 l344 0 l0 -122 l-232 0 l0 -135 l41 4 q49 -2 88.5 -18 q39.5 -16 67.5 -44.5 q28 -28.5 43 -69 q15 -40.5 15 -90.5 q0 -59 -20 -104 q-20 -45 -55.5 -75 q-35.5 -30 -83.5 -45 q-48 -15 -105 -15 q-45 0 -85.5 7.5 q-40.5 7.5 -68.5 20.5 l35 108 q23 -10 50.5 -15.5 q27.5 -5.5 66.5 -5.5 Z" /><glyph glyph-name="six" unicode="6" d="M520 217 q0 -49 -16.5 -91 q-16.5 -42 -46.5 -73 q-30 -31 -72.5 -49 q-42.5 -18 -93.5 -18 q-52 0 -95.5 16.5 q-43.5 16.5 -75.5 49.5 q-32 33 -50 83 q-18 50 -18 116 q0 99 28.5 179 q28.5 80 77 139.5 q48.5 59.5 113 96 q64.5 36.5 136.5 48.5 l29 -103 q-50 -8 -92 -31 q-42 -23 -74.5 -55 q-32.5 -32 -55 -71.5 q-22.5 -39.5 -31.5 -81.5 q20 25 52 42.5 q32 17.5 80 17.5 q45 0 83 -14 q38 -14 65 -41.5 q27 -27.5 42 -67.5 q15 -40 15 -92 ZM394 210 q0 112 -110 112 q-40 0 -67.5 -18 q-27.5 -18 -38.5 -42 q-2 -11 -2 -19 q0 -8 0 -16 q0 -24 7 -47.5 q7 -23.5 20.5 -42 q13.5 -18.5 34.5 -30 q21 -11.5 50 -11.5 q47 0 76.5 32 q29.5 32 29.5 82 Z" /><glyph glyph-name="seven" unicode="7" d="M104 0 l229 539 l44 49 l-60 -10 l-257 0 l0 122 l451 0 l0 -38 l-280 -662 l-127 0 Z" /><glyph glyph-name="eight" unicode="8" d="M61 171 q0 35 9 62.5 q9 27.5 25.5 50 q16.5 22.5 39 40.5 q22.5 18 48.5 33 q-49 31 -77 71.5 q-28 40.5 -28 100.5 q0 39 14.5 73 q14.5 34 42 59 q27.5 25 66.5 39 q39 14 88 14 q45 0 82 -12 q37 -12 63.5 -34 q26.5 -22 41 -53.5 q14.5 -31.5 14.5 -69.5 q0 -59 -26.5 -100 q-26.5 -41 -77.5 -75 q60 -35 90.5 -77 q30.5 -42 30.5 -108 q0 -45 -16.5 -81.5 q-16.5 -36.5 -46.5 -62.5 q-30 -26 -72 -40.5 q-42 -14.5 -92 -14.5 q-50 0 -90.5 13.5 q-40.5 13.5 -69 37.5 q-28.5 24 -44 58 q-15.5 34 -15.5 76 ZM383 184 q0 23 -11 42 q-11 19 -28.5 34.5 q-17.5 15.5 -39 28.5 q-21.5 13 -43.5 25 q-47 -27 -64.5 -58.5 q-17.5 -31.5 -17.5 -62.5 q0 -40 27.5 -68.5 q27.5 -28.5 76.5 -28.5 q45 0 72.5 22 q27.5 22 27.5 66 ZM202 527 q0 -24 9 -42 q9 -18 24.5 -31.5 q15.5 -13.5 35 -25 q19.5 -11.5 40.5 -21.5 q60 51 60 112 q0 42 -24.5 63.5 q-24.5 21.5 -59.5 21.5 q-44 0 -64.5 -23 q-20.5 -23 -20.5 -54 Z" /><glyph glyph-name="nine" unicode="9" d="M45 481 q0 51 15.5 94 q15.5 43 45 73.5 q29.5 30.5 72 48 q42.5 17.5 97.5 17.5 q113 0 177.5 -67.5 q64.5 -67.5 64.5 -196.5 q0 -116 -29.5 -200.5 q-29.5 -84.5 -79 -141 q-49.5 -56.5 -114.5 -86.5 q-65 -30 -137 -36 l-28 102 q55 7 98 27 q43 20 74 49.5 q31 29.5 50.5 67 q19.5 37.5 27.5 80.5 q-24 -26 -51.5 -36 q-27.5 -10 -73.5 -10 q-38 0 -75.5 13 q-37.5 13 -67 39.5 q-29.5 26.5 -48 67 q-18.5 40.5 -18.5 95.5 ZM171 488 q0 -57 32 -86 q32 -29 80 -29 q41 0 67 13 q26 13 40 32 q3 21 3 40 q0 28 -7 55 q-7 27 -21.5 48 q-14.5 21 -37 33.5 q-22.5 12.5 -53.5 12.5 q-49 0 -76 -31.5 q-27 -31.5 -27 -87.5 Z" /><glyph glyph-name="less" unicode="&lt;" d="M40 285 l0 70 l386 231 l57 -90 l-224 -139 l-91 -35 l90 -31 l230 -137 l-57 -90 l-391 221 Z" /><glyph glyph-name="greater" unicode="&gt;" d="M487 365 l0 -70 l-386 -231 l-57 91 l224 138 l91 36 l-90 30 l-230 138 l57 89 l391 -221 Z" /><glyph glyph-name="question" unicode="?" d="M136 208 q-5 52 5 88.5 q10 36.5 27.5 63 q17.5 26.5 40 46 q22.5 19.5 42 37.5 q19.5 18 32.5 37.5 q13 19.5 13 46.5 q0 35 -19.5 56 q-19.5 21 -69.5 21 q-16 0 -34 -3.5 q-18 -3.5 -36 -10 q-18 -6.5 -34.5 -15 q-16.5 -8.5 -29.5 -17.5 l-50 96 q38 26 87.5 43 q49.5 17 119.5 17 q94 0 147 -45.5 q53 -45.5 53 -122.5 q0 -51 -13.5 -84.5 q-13.5 -33.5 -33.5 -57 q-20 -23.5 -44 -41.5 q-24 -18 -44 -38.5 q-20 -20.5 -34 -47.5 q-14 -27 -14 -69 l-111 0 ZM116 66 q0 35 22 55.5 q22 20.5 58 20.5 q38 0 60 -20.5 q22 -20.5 22 -55.5 q0 -35 -22 -56 q-22 -21 -60 -21 q-36 0 -58 21 q-22 21 -22 56 Z" /><glyph glyph-name="at" unicode="@" d="M679 484 l70 0 l-48 -271 q-8 -47 -0.5 -68 q7.5 -21 33.5 -21 q26 0 51 12 q25 12 45 37 q20 25 32.5 63 q12.5 38 12.5 90 q0 75 -25 128 q-25 53 -68.5 87.5 q-43.5 34.5 -102.5 50.5 q-59 16 -127 16 q-78 0 -145 -28 q-67 -28 -116.5 -77 q-49.5 -49 -77.5 -116.5 q-28 -67.5 -28 -146.5 q0 -78 23.5 -140 q23.5 -62 68.5 -105.5 q45 -43.5 111.5 -67 q66.5 -23.5 152.5 -23.5 q29 0 66 7 q37 7 67 21 l31 -96 q-41 -20 -83.5 -28 q-42.5 -8 -97.5 -8 q-97 0 -179.5 28 q-82.5 28 -143 83 q-60.5 55 -94.5 136.5 q-34 81.5 -34 188.5 q0 109 39 197 q39 88 105 150 q66 62 153 95.5 q87 33.5 184 33.5 q92 0 171 -26.5 q79 -26.5 137 -76 q58 -49.5 91 -121 q33 -71.5 33 -162.5 q0 -64 -22.5 -120 q-22.5 -56 -62 -97 q-39.5 -41 -92 -65 q-52.5 -24 -112.5 -24 q-25 0 -46.5 5.5 q-21.5 5.5 -36 18.5 q-14.5 13 -21.5 34 q-7 21 -4 52 l-4 0 q-15 -21 -32.5 -41 q-17.5 -20 -38.5 -35.5 q-21 -15.5 -46 -24.5 q-25 -9 -55 -9 q-24 0 -46 10.5 q-22 10.5 -38 29.5 q-16 19 -25.5 46 q-9.5 27 -9.5 60 q0 62 20 120.5 q20 58.5 54.5 103.5 q34.5 45 80 72.5 q45.5 27.5 96.5 27.5 q35 0 59 -10.5 q24 -10.5 44 -27.5 l31 32 ZM616 363 q-13 11 -27 17 q-14 6 -35 6 q-30 0 -55.5 -17 q-25.5 -17 -44 -44 q-18.5 -27 -28.5 -60.5 q-10 -33.5 -10 -65.5 q0 -33 13.5 -54 q13.5 -21 46.5 -21 q14 0 30 8.5 q16 8.5 31 22.5 q15 14 29 32 q14 18 25 38 l25 138 Z" /><glyph glyph-name="A" unicode="a" d="M405 155 l-215 0 l-53 -155 l-137 0 l252 705 l101 0 l252 -705 l-144 0 l-56 155 ZM225 265 l150 0 l-52 156 l-21 110 l-5 0 l-21 -111 l-51 -155 Z" /><glyph glyph-name="B" unicode="b" d="M531 537 q0 -26 -6.5 -52 q-6.5 -26 -21.5 -47.5 q-15 -21.5 -39 -38 q-24 -16.5 -58 -24.5 l0 -6 q30 -5 57 -17 q27 -12 47 -33 q20 -21 31.5 -51 q11.5 -30 11.5 -71 q0 -54 -23 -93.5 q-23 -39.5 -61.5 -64.5 q-38.5 -25 -87.5 -37 q-49 -12 -101 -12 q-17 0 -43.5 0 q-26.5 0 -57 1.5 q-30.5 1.5 -62 4.5 q-31.5 3 -57.5 9 l0 690 q19 3 43.5 6 q24.5 3 52.5 5 q28 2 57.5 3 q29.5 1 58.5 1 q49 0 95.5 -7.5 q46.5 -7.5 83 -26.5 q36.5 -19 58.5 -53 q22 -34 22 -86 ZM281 103 q25 0 48.5 6 q23.5 6 41.5 18.5 q18 12.5 29 31.5 q11 19 11 45 q0 33 -13 52 q-13 19 -34 29.5 q-21 10.5 -47 13.5 q-26 3 -52 3 l-73 0 l0 -193 q5 -2 16 -3 q11 -1 23.5 -1.5 q12.5 -0.5 26 -1 q13.5 -0.5 23.5 -0.5 ZM236 406 q14 0 32.5 1 q18.5 1 30.5 3 q38 12 65.5 36 q27.5 24 27.5 63 q0 26 -10 43 q-10 17 -26.5 27 q-16.5 10 -37.5 14 q-21 4 -44 4 q-26 0 -48 -1 q-22 -1 -34 -3 l0 -187 l44 0 Z" /><glyph glyph-name="C" unicode="c" d="M534 29 q-32 -23 -81.5 -33 q-49.5 -10 -101.5 -10 q-63 0 -119.5 19.5 q-56.5 19.5 -99.5 63 q-43 43.5 -68.5 113 q-25.5 69.5 -25.5 168.5 q0 103 28.5 172.5 q28.5 69.5 74 112 q45.5 42.5 101.5 61 q56 18.5 112 18.5 q60 0 101.5 -8 q41.5 -8 68.5 -19 l-27 -116 q-23 11 -54.5 16 q-31.5 5 -76.5 5 q-83 0 -133.5 -59 q-50.5 -59 -50.5 -183 q0 -54 12 -98.5 q12 -44.5 36.5 -76 q24.5 -31.5 61 -49 q36.5 -17.5 84.5 -17.5 q45 0 76 9 q31 9 54 23 l28 -112 Z" /><glyph glyph-name="D" unicode="d" d="M60 700 q21 3 47.5 5 q26.5 2 54.5 3 q28 1 54.5 1.5 q26.5 0.5 47.5 0.5 q93 0 159 -26 q66 -26 107 -73 q41 -47 60 -112 q19 -65 19 -143 q0 -71 -18 -137 q-18 -66 -60 -117 q-42 -51 -110.5 -82 q-68.5 -31 -169.5 -31 q-16 0 -42.5 1 q-26.5 1 -55 2.5 q-28.5 1.5 -54.5 3 q-26 1.5 -39 3.5 l0 701 ZM275 588 q-22 0 -44.5 -1 q-22.5 -1 -33.5 -3 l0 -469 q4 -1 13.5 -1.5 q9.5 -0.5 20.5 -1 q11 -0.5 21 -1 q10 -0.5 15 -0.5 q58 0 96.5 20.5 q38.5 20.5 61 54.5 q22.5 34 31.5 78.5 q9 44.5 9 91.5 q0 41 -8 82.5 q-8 41.5 -29.5 74.5 q-21.5 33 -58.5 54 q-37 21 -94 21 Z" /><glyph glyph-name="E" unicode="e" d="M60 700 l415 0 l0 -122 l-278 0 l0 -163 l253 0 l0 -122 l-253 0 l0 -171 l283 0 l0 -122 l-420 0 l0 700 Z" /><glyph glyph-name="F" unicode="f" d="M60 700 l415 0 l0 -122 l-278 0 l0 -173 l256 0 l0 -122 l-256 0 l0 -283 l-137 0 l0 700 Z" /><glyph glyph-name="G" unicode="g" d="M307 365 l261 0 l0 -312 q-42 -35 -100.5 -51 q-58.5 -16 -115.5 -16 q-67 0 -124.5 21 q-57.5 21 -99.5 65.5 q-42 44.5 -66 113.5 q-24 69 -24 164 q0 99 28.5 168.5 q28.5 69.5 75 113 q46.5 43.5 104.5 63 q58 19.5 118 19.5 q60 0 105.5 -9 q45.5 -9 72.5 -19 l-28 -115 q-25 10 -56 15.5 q-31 5.5 -79 5.5 q-43 0 -79 -13 q-36 -13 -62.5 -42.5 q-26.5 -29.5 -41 -75.5 q-14.5 -46 -14.5 -112 q0 -63 14 -108.5 q14 -45.5 39 -75 q25 -29.5 58.5 -43.5 q33.5 -14 71.5 -14 q26 0 51 6.5 q25 6.5 42 19.5 l0 132 l-151 16 l0 83 Z" /><glyph glyph-name="H" unicode="h" d="M453 293 l-256 0 l0 -293 l-137 0 l0 700 l137 0 l0 -285 l256 0 l0 285 l137 0 l0 -700 l-137 0 l0 293 Z" /><glyph glyph-name="I" unicode="i" d="M74 700 l137 0 l0 -700 l-137 0 l0 700 Z" /><glyph glyph-name="J" unicode="j" d="M131 700 l137 0 l0 -512 q0 -40 -9 -76 q-9 -36 -29.5 -63.5 q-20.5 -27.5 -52.5 -44 q-32 -16.5 -78 -16.5 q-29 0 -63 6 q-34 6 -59 17 l30 112 q26 -13 59 -13 q42 0 53.5 31 q11.5 31 11.5 82 l0 477 Z" /><glyph glyph-name="K" unicode="k" d="M233 299 l-36 0 l0 -299 l-137 0 l0 700 l137 0 l0 -310 l32 14 l193 296 l156 0 l-204 -294 l-54 -38 l56 -39 l233 -329 l-169 0 l-207 299 Z" /><glyph glyph-name="L" unicode="l" d="M503 0 l-443 0 l0 700 l137 0 l0 -578 l306 0 l0 -122 Z" /><glyph glyph-name="M" unicode="m" d="M603 363 l15 139 l-6 0 l-43 -112 l-149 -261 l-44 0 l-157 262 l-44 111 l-5 0 l20 -138 l0 -364 l-130 0 l0 700 l125 0 l187 -320 l33 -80 l4 0 l30 82 l177 318 l124 0 l0 -700 l-137 0 l0 363 Z" /><glyph glyph-name="N" unicode="n" d="M234 365 l-55 110 l-5 0 l16 -110 l0 -365 l-130 0 l0 705 l100 0 l265 -373 l53 -107 l5 0 l-16 107 l0 368 l130 0 l0 -705 l-100 0 l-263 370 Z" /><glyph glyph-name="O" unicode="o" d="M38 350 q0 175 77 269.5 q77 94.5 220 94.5 q75 0 131 -26 q56 -26 93 -74 q37 -48 55 -115 q18 -67 18 -149 q0 -175 -77.5 -269.5 q-77.5 -94.5 -219.5 -94.5 q-76 0 -132 26 q-56 26 -92.5 74 q-36.5 48 -54.5 115 q-18 67 -18 149 ZM182 350 q0 -53 9 -97.5 q9 -44.5 27.5 -76.5 q18.5 -32 47.5 -50 q29 -18 69 -18 q73 0 113 57 q40 57 40 185 q0 51 -8.5 95 q-8.5 44 -26.5 77 q-18 33 -47 51.5 q-29 18.5 -71 18.5 q-73 0 -113 -58.5 q-40 -58.5 -40 -183.5 Z" /><glyph glyph-name="P" unicode="p" d="M60 693 q42 8 92.5 12.5 q50.5 4.5 100.5 4.5 q52 0 104.5 -8.5 q52.5 -8.5 94.5 -34 q42 -25.5 68.5 -71 q26.5 -45.5 26.5 -118.5 q0 -66 -23 -111.5 q-23 -45.5 -61 -74.5 q-38 -29 -86.5 -42 q-48.5 -13 -100.5 -13 q-5 0 -16 0 q-11 0 -23 0.5 q-12 0.5 -23.5 1.5 q-11.5 1 -16.5 2 l0 -241 l-137 0 l0 693 ZM264 592 q-20 0 -38 -1.5 q-18 -1.5 -29 -3.5 l0 -227 q4 -1 12 -2 q8 -1 17 -1.5 q9 -0.5 17.5 -0.5 q8.5 0 12.5 0 q27 0 53.5 5 q26.5 5 47.5 18.5 q21 13.5 33.5 37.5 q12.5 24 12.5 63 q0 33 -12 54.5 q-12 21.5 -31.5 34.5 q-19.5 13 -44.5 18 q-25 5 -51 5 Z" /><glyph glyph-name="Q" unicode="q" d="M702 -202 q-48 -13 -97 -13 q-51 0 -99 10.5 q-48 10.5 -93 22.5 q-45 12 -87 22.5 q-42 10.5 -79 10.5 q-24 0 -46 -6 l0 118 q28 6 58 6 q42 0 83.5 -10 q41.5 -10 84.5 -21.5 q43 -11.5 88 -21.5 q45 -10 95 -10 q22 0 45 2.5 q23 2.5 47 8.5 l0 -119 ZM38 350 q0 175 77 269.5 q77 94.5 220 94.5 q75 0 131 -26 q56 -26 93 -74 q37 -48 55 -115 q18 -67 18 -149 q0 -175 -77.5 -269.5 q-77.5 -94.5 -219.5 -94.5 q-76 0 -132 26 q-56 26 -92.5 74 q-36.5 48 -54.5 115 q-18 67 -18 149 ZM182 350 q0 -53 9 -97.5 q9 -44.5 27.5 -76.5 q18.5 -32 47.5 -50 q29 -18 69 -18 q73 0 113 57 q40 57 40 185 q0 51 -8.5 95 q-8.5 44 -26.5 77 q-18 33 -47 51.5 q-29 18.5 -71 18.5 q-73 0 -113 -58.5 q-40 -58.5 -40 -183.5 Z" /><glyph glyph-name="R" unicode="r" d="M60 693 q23 4 49.5 7.5 q26.5 3.5 53 5.5 q26.5 2 51.5 3 q25 1 46 1 q49 0 96.5 -9 q47.5 -9 85 -31 q37.5 -22 60 -60.5 q22.5 -38.5 22.5 -96.5 q0 -86 -40 -140 q-40 -54 -107 -75 l49 -31 l160 -267 l-158 0 l-159 274 l-72 13 l0 -287 l-137 0 l0 693 ZM270 588 q-21 0 -41.5 -1 q-20.5 -1 -31.5 -4 l0 -203 l58 0 q57 0 91 26 q34 26 34 86 q0 45 -28 70.5 q-28 25.5 -82 25.5 Z" /><glyph glyph-name="S" unicode="s" d="M362 188 q0 32 -23.5 52 q-23.5 20 -59 36.5 q-35.5 16.5 -77 34 q-41.5 17.5 -77 43 q-35.5 25.5 -59 63.5 q-23.5 38 -23.5 97 q0 51 17 88.5 q17 37.5 48.5 62.5 q31.5 25 74.5 37 q43 12 96 12 q61 0 115 -10.5 q54 -10.5 89 -30.5 l-43 -115 q-22 14 -66 25.5 q-44 11.5 -95 11.5 q-48 0 -73.5 -19 q-25.5 -19 -25.5 -51 q0 -30 23.5 -50 q23.5 -20 59 -37 q35.5 -17 77 -35 q41.5 -18 77 -43.5 q35.5 -25.5 59 -63 q23.5 -37.5 23.5 -93.5 q0 -56 -18.5 -96.5 q-18.5 -40.5 -52 -67.5 q-33.5 -27 -81 -40 q-47.5 -13 -104.5 -13 q-75 0 -132 14 q-57 14 -84 28 l44 117 q11 -6 28.5 -13 q17.5 -7 39.5 -13 q22 -6 46.5 -10 q24.5 -4 50.5 -4 q61 0 93.5 20.5 q32.5 20.5 32.5 62.5 Z" /><glyph glyph-name="T" unicode="t" d="M557 578 l-204 0 l0 -578 l-137 0 l0 578 l-205 0 l0 122 l546 0 l0 -122 Z" /><glyph glyph-name="U" unicode="u" d="M440 700 l130 0 l0 -452 q0 -68 -18 -117 q-18 -49 -50 -81 q-32 -32 -78 -47 q-46 -15 -101 -15 q-266 0 -266 243 l0 469 l137 0 l0 -442 q0 -41 7.5 -69.5 q7.5 -28.5 23.5 -46 q16 -17.5 40 -25 q24 -7.5 56 -7.5 q63 0 91 35 q28 35 28 113 l0 442 Z" /><glyph glyph-name="V" unicode="v" d="M290 289 l18 -119 l5 0 l20 120 l134 410 l144 0 l-260 -705 l-98 0 l-262 705 l159 0 l140 -411 Z" /><glyph glyph-name="W" unicode="w" d="M242 309 l13 -124 l4 0 l14 126 l122 389 l90 0 l120 -391 l14 -124 l4 0 l15 126 l85 389 l139 0 l-193 -705 l-92 0 l-125 389 l-17 107 l-5 0 l-17 -108 l-124 -388 l-97 0 l-192 705 l149 0 l93 -391 Z" /><glyph glyph-name="X" unicode="x" d="M225 356 l-195 344 l165 0 l108 -202 l24 -71 l23 71 l113 202 l149 0 l-202 -337 l212 -363 l-163 0 l-123 216 l-27 74 l-26 -74 l-124 -216 l-149 0 l215 356 Z" /><glyph glyph-name="Y" unicode="y" d="M228 260 l-230 440 l163 0 l128 -263 l14 -74 l5 0 l15 76 l124 261 l147 0 l-229 -439 l0 -261 l-137 0 l0 260 Z" /><glyph glyph-name="Z" unicode="z" d="M27 122 l296 414 l52 42 l-348 0 l0 122 l485 0 l0 -122 l-298 -418 l-51 -38 l349 0 l0 -122 l-485 0 l0 122 Z" /><glyph glyph-name="bracketleft" unicode="[" d="M60 700 l235 0 l0 -110 l-111 0 l0 -710 l111 0 l0 -110 l-235 0 l0 930 Z" /><glyph glyph-name="backslash" unicode="\" d="M438 -95 l-99 -45 l-363 808 l102 43 l360 -806 Z" /><glyph glyph-name="bracketright" unicode="]" d="M264 -230 l-235 0 l0 110 l111 0 l0 710 l-111 0 l0 110 l235 0 l0 -930 Z" /><glyph glyph-name="asciicircum" unicode="^" d="M216 705 l69 0 l185 -292 l-131 0 l-71 122 l-21 70 l-25 -71 l-78 -121 l-124 0 l196 292 Z" /><glyph glyph-name="underscore" unicode="_" d="M0 -117 l444 0 l0 -107 l-444 0 l0 107 Z" /><glyph glyph-name="grave" unicode="`" d="M256 566 l-72 0 l-124 124 l0 30 l136 0 l60 -154 Z" /><glyph glyph-name="a" unicode="a" d="M54 471 q40 18 95 28.5 q55 10.5 115 10.5 q52 0 87 -12.5 q35 -12.5 55.5 -35.5 q20.5 -23 29 -55 q8.5 -32 8.5 -72 q0 -44 -3 -88.5 q-3 -44.5 -3.5 -87.5 q-0.5 -43 2.5 -83.5 q3 -40.5 15 -76.5 l-106 0 l-21 69 l-5 0 q-20 -31 -55.5 -53.5 q-35.5 -22.5 -91.5 -22.5 q-35 0 -63 10.5 q-28 10.5 -48 30 q-20 19.5 -31 46 q-11 26.5 -11 59.5 q0 46 20.5 77.5 q20.5 31.5 59 51 q38.5 19.5 92 27 q53.5 7.5 119.5 4.5 q7 56 -8 80.5 q-15 24.5 -67 24.5 q-39 0 -82.5 -8 q-43.5 -8 -71.5 -21 l-31 97 ZM219 99 q39 0 62 17.5 q23 17.5 34 37.5 l0 65 q-31 3 -59.5 1 q-28.5 -2 -50.5 -9 q-22 -7 -35 -20 q-13 -13 -13 -33 q0 -28 16.5 -43.5 q16.5 -15.5 45.5 -15.5 Z" /><glyph glyph-name="b" unicode="b" d="M57 700 l130 0 l0 -240 l4 0 q21 24 54 38 q33 14 73 14 q90 0 137.5 -61.5 q47.5 -61.5 47.5 -187.5 q0 -135 -66.5 -205 q-66.5 -70 -182.5 -70 q-64 0 -117 10.5 q-53 10.5 -80 23.5 l0 678 ZM280 402 q-36 0 -58.5 -18.5 q-22.5 -18.5 -34.5 -53.5 l0 -218 q16 -8 34.5 -11 q18.5 -3 39.5 -3 q53 0 80.5 38.5 q27.5 38.5 27.5 122.5 q0 143 -89 143 Z" /><glyph glyph-name="c" unicode="c" d="M411 31 q-30 -22 -72.5 -33.5 q-42.5 -11.5 -87.5 -11.5 q-60 0 -101.5 19 q-41.5 19 -67.5 53.5 q-26 34.5 -37.5 83.5 q-11.5 49 -11.5 108 q0 127 57 195.5 q57 68.5 166 68.5 q55 0 88.5 -9 q33.5 -9 60.5 -23 l-31 -106 q-23 11 -45.5 17 q-22.5 6 -51.5 6 q-54 0 -82 -35.5 q-28 -35.5 -28 -113.5 q0 -32 7 -59 q7 -27 21 -47 q14 -20 36.5 -31.5 q22.5 -11.5 52.5 -11.5 q33 0 56 8.5 q23 8.5 41 20.5 l30 -99 Z" /><glyph glyph-name="d" unicode="d" d="M482 176 q0 -42 1 -84 q1 -42 9 -93 l-93 0 l-18 65 l-4 0 q-20 -35 -57.5 -56.5 q-37.5 -21.5 -88.5 -21.5 q-94 0 -146 62 q-52 62 -52 194 q0 128 58 199 q58 71 170 71 q31 0 51 -3.5 q20 -3.5 40 -11.5 l0 203 l130 0 l0 -524 ZM261 96 q38 0 60 18.5 q22 18.5 31 53.5 l0 212 q-14 11 -31 16.5 q-17 5.5 -44 5.5 q-55 0 -82.5 -37 q-27.5 -37 -27.5 -127 q0 -64 22.5 -103 q22.5 -39 71.5 -39 Z" /><glyph glyph-name="e" unicode="e" d="M457 43 q-30 -24 -81.5 -40.5 q-51.5 -16.5 -109.5 -16.5 q-121 0 -177 70.5 q-56 70.5 -56 193.5 q0 132 63 198 q63 66 177 66 q38 0 74 -10 q36 -10 64 -33 q28 -23 45 -62 q17 -39 17 -97 q0 -21 -2.5 -45 q-2.5 -24 -7.5 -50 l-300 0 q3 -63 32.5 -95 q29.5 -32 95.5 -32 q41 0 73.5 12.5 q32.5 12.5 49.5 25.5 l43 -85 ZM271 410 q-51 0 -75.5 -30.5 q-24.5 -30.5 -29.5 -81.5 l186 0 q4 54 -16.5 83 q-20.5 29 -64.5 29 Z" /><glyph glyph-name="f" unicode="f" d="M11 500 l69 0 l0 28 q0 95 40 137.5 q40 42.5 116 42.5 q80 0 133 -19 l-25 -104 q-23 8 -40.5 10.5 q-17.5 2.5 -36.5 2.5 q-20 0 -31.5 -6 q-11.5 -6 -17 -18.5 q-5.5 -12.5 -7 -31 q-1.5 -18.5 -1.5 -42.5 l110 0 l0 -110 l-110 0 l0 -390 l-130 0 l0 390 l-69 0 l0 110 Z" /><glyph glyph-name="g" unicode="g" d="M480 0 q0 -109 -59 -160.5 q-59 -51.5 -165 -51.5 q-72 0 -113.5 10 q-41.5 10 -62.5 21 l27 103 q23 -9 53.5 -18 q30.5 -9 75.5 -9 q68 0 92.5 29.5 q24.5 29.5 24.5 82.5 l0 32 l-4 0 q-35 -47 -124 -47 q-97 0 -144.5 60 q-47.5 60 -47.5 188 q0 134 64 203 q64 69 186 69 q64 0 114.5 -9 q50.5 -9 82.5 -21 l0 -482 ZM260 96 q38 0 58.5 17 q20.5 17 31.5 51 l0 225 q-31 13 -77 13 q-50 0 -78 -37.5 q-28 -37.5 -28 -119.5 q0 -73 24 -111 q24 -38 69 -38 Z" /><glyph glyph-name="h" unicode="h" d="M363 0 l0 284 q0 61 -17 88 q-17 27 -62 27 q-33 0 -60.5 -22.5 q-27.5 -22.5 -36.5 -57.5 l0 -319 l-130 0 l0 700 l130 0 l0 -256 l4 0 q24 32 59 51 q35 19 89 19 q38 0 67 -10 q29 -10 48.5 -33 q19.5 -23 29 -62.5 q9.5 -39.5 9.5 -97.5 l0 -311 l-130 0 Z" /><glyph glyph-name="k" unicode="k" d="M222 207 l-35 0 l0 -207 l-130 0 l0 700 l130 0 l0 -413 l30 14 l114 199 l143 0 l-120 -190 l-51 -38 l55 -39 l135 -233 l-149 0 l-122 207 Z" /><glyph glyph-name="l" unicode="l" d="M191 168 q0 -35 9 -51 q9 -16 29 -16 q12 0 23.5 2 q11.5 2 28.5 9 l14 -102 q-16 -8 -49 -16 q-33 -8 -68 -8 q-57 0 -87 26.5 q-30 26.5 -30 87.5 l0 600 l130 0 l0 -532 Z" /><glyph glyph-name="m" unicode="m" d="M341 0 l0 272 q0 69 -13 98 q-13 29 -54 29 q-34 0 -55 -18.5 q-21 -18.5 -32 -47.5 l0 -333 l-130 0 l0 500 l101 0 l15 -66 l4 0 q23 32 58.5 56 q35.5 24 91.5 24 q48 0 78.5 -19.5 q30.5 -19.5 47.5 -65.5 q23 39 59 62 q36 23 87 23 q42 0 71.5 -10 q29.5 -10 48 -34.5 q18.5 -24.5 27.5 -65.5 q9 -41 9 -104 l0 -300 l-130 0 l0 281 q0 59 -12.5 88.5 q-12.5 29.5 -55.5 29.5 q-35 0 -55.5 -19 q-20.5 -19 -30.5 -52 l0 -328 l-130 0 Z" /><glyph glyph-name="n" unicode="n" d="M363 0 l0 284 q0 61 -17.5 88 q-17.5 27 -59.5 27 q-37 0 -62.5 -21.5 q-25.5 -21.5 -36.5 -53.5 l0 -324 l-130 0 l0 500 l103 0 l15 -66 l4 0 q23 32 61 56 q38 24 98 24 q37 0 66 -10 q29 -10 49 -33 q20 -23 30 -62.5 q10 -39.5 10 -97.5 l0 -311 l-130 0 Z" /><glyph glyph-name="o" unicode="o" d="M33 250 q0 127 62 195.5 q62 68.5 174 68.5 q60 0 104 -19 q44 -19 73 -53.5 q29 -34.5 43.5 -83.5 q14.5 -49 14.5 -108 q0 -127 -61.5 -195.5 q-61.5 -68.5 -173.5 -68.5 q-60 0 -104 19 q-44 19 -73.5 53.5 q-29.5 34.5 -44 83.5 q-14.5 49 -14.5 108 ZM167 250 q0 -33 6 -61 q6 -28 18 -49 q12 -21 31.5 -32.5 q19.5 -11.5 46.5 -11.5 q51 0 76 37 q25 37 25 117 q0 69 -23 111.5 q-23 42.5 -78 42.5 q-48 0 -75 -36 q-27 -36 -27 -118 Z" /><glyph glyph-name="p" unicode="p" d="M57 500 l95 0 l15 -60 l4 0 q26 38 61.5 56 q35.5 18 86.5 18 q94 0 141 -59.5 q47 -59.5 47 -191.5 q0 -64 -15 -115.5 q-15 -51.5 -44.5 -87.5 q-29.5 -36 -72 -55 q-42.5 -19 -97.5 -19 q-31 0 -51 4.5 q-20 4.5 -40 14.5 l0 -205 l-130 0 l0 700 ZM280 404 q-38 0 -59.5 -19 q-21.5 -19 -33.5 -57 l0 -208 q14 -11 30.5 -17.5 q16.5 -6.5 43.5 -6.5 q56 0 84 39.5 q28 39.5 28 130.5 q0 66 -22 102 q-22 36 -71 36 Z" /><glyph glyph-name="q" unicode="q" d="M480 -200 l-130 0 l0 243 l-4 0 q-17 -26 -46 -41.5 q-29 -15.5 -75 -15.5 q-93 0 -142.5 63 q-49.5 63 -49.5 191 q0 134 67.5 203 q67.5 69 193.5 69 q27 0 54 -2.5 q27 -2.5 51.5 -7 q24.5 -4.5 45.5 -10 q21 -5.5 35 -10.5 l0 -682 ZM260 96 q38 0 58.5 17 q20.5 17 31.5 51 l0 225 q-15 8 -34 10.5 q-19 2.5 -43 2.5 q-53 0 -79.5 -40 q-26.5 -40 -26.5 -117 q0 -73 24 -111 q24 -38 69 -38 Z" /><glyph glyph-name="r" unicode="r" d="M333 378 q-31 11 -56 11 q-35 0 -58.5 -18.5 q-23.5 -18.5 -31.5 -47.5 l0 -323 l-130 0 l0 500 l101 0 l15 -66 l4 0 q17 37 46 57 q29 20 68 20 q26 0 59 -11 l-17 -122 Z" /><glyph glyph-name="s" unicode="s" d="M264 138 q0 20 -17 32 q-17 12 -42 22 q-25 10 -55 20.5 q-30 10.5 -55 29 q-25 18.5 -42 47 q-17 28.5 -17 73.5 q0 74 44 113 q44 39 127 39 q57 0 103 -12 q46 -12 72 -27 l-29 -94 q-23 9 -58 19 q-35 10 -71 10 q-58 0 -58 -45 q0 -18 17 -29 q17 -11 42 -20.5 q25 -9.5 55 -20.5 q30 -11 55 -28.5 q25 -17.5 42 -45.5 q17 -28 17 -72 q0 -76 -48.5 -119.5 q-48.5 -43.5 -145.5 -43.5 q-53 0 -99.5 13.5 q-46.5 13.5 -75.5 31.5 l36 97 q23 -13 61 -25.5 q38 -12.5 78 -12.5 q29 0 46.5 11 q17.5 11 17.5 37 Z" /><glyph glyph-name="t" unicode="t" d="M5 500 l69 0 l0 94 l130 37 l0 -131 l122 0 l0 -110 l-122 0 l0 -192 q0 -52 10.5 -74.5 q10.5 -22.5 39.5 -22.5 q20 0 34.5 4 q14.5 4 32.5 12 l23 -100 q-27 -13 -63 -22 q-36 -9 -73 -9 q-69 0 -101.5 35.5 q-32.5 35.5 -32.5 116.5 l0 252 l-69 0 l0 110 Z" /><glyph glyph-name="u" unicode="u" d="M182 500 l0 -284 q0 -61 14.5 -88 q14.5 -27 56.5 -27 q37 0 61.5 22 q24.5 22 36.5 54 l0 323 l130 0 l0 -348 q0 -41 4 -80.5 q4 -39.5 12 -71.5 l-98 0 l-23 74 l-4 0 q-23 -38 -64 -63 q-41 -25 -97 -25 q-38 0 -68 10 q-30 10 -50 33 q-20 23 -30.5 62 q-10.5 39 -10.5 98 l0 311 l130 0 Z" /><glyph glyph-name="v" unicode="v" d="M230 238 l17 -77 l5 0 l14 79 l85 260 l140 0 l-209 -505 l-79 0 l-217 505 l151 0 l93 -262 Z" /><glyph glyph-name="w" unicode="w" d="M419 500 l91 -256 l18 -83 l4 0 l14 84 l64 255 l119 0 l-154 -505 l-96 0 l-101 280 l-13 63 l-5 0 l-12 -64 l-96 -279 l-99 0 l-161 505 l141 0 l73 -251 l12 -89 l5 0 l17 90 l83 250 l96 0 Z" /><glyph glyph-name="x" unicode="x" d="M170 256 l-150 244 l155 0 l65 -107 l28 -70 l30 70 l68 107 l141 0 l-151 -240 l161 -260 l-151 0 l-77 120 l-30 74 l-32 -74 l-77 -120 l-142 0 l162 256 Z" /><glyph glyph-name="y" unicode="y" d="M239 219 l18 -78 l6 0 l13 79 l76 280 l134 0 l-152 -451 q-19 -56 -36.5 -102.5 q-17.5 -46.5 -38.5 -80.5 q-21 -34 -46.5 -52.5 q-25.5 -18.5 -60.5 -18.5 q-52 0 -83 17 l24 104 q15 -6 30 -6 q23 0 44.5 19.5 q21.5 19.5 32.5 70.5 l-209 500 l156 0 l92 -281 Z" /><glyph glyph-name="z" unicode="z" d="M31 110 l197 237 l51 43 l-248 0 l0 110 l392 0 l0 -110 l-195 -241 l-50 -39 l245 0 l0 -110 l-392 0 l0 110 Z" /><glyph glyph-name="braceleft" unicode="{" d="M123 96 q0 51 -21 70 q-21 19 -59 19 l0 100 q38 0 59 20.5 q21 20.5 21 64.5 l0 209 q0 54 25.5 88 q25.5 34 81.5 34 l120 0 l0 -110 l-50 0 q-27 0 -39.5 -14 q-12.5 -14 -12.5 -46 l0 -195 q0 -44 -21 -66.5 q-21 -22.5 -49 -27.5 l0 -10 q27 -4 48.5 -30 q21.5 -26 21.5 -68 l0 -194 q0 -32 12 -46 q12 -14 41 -14 l49 0 l0 -110 l-120 0 q-52 0 -79.5 31.5 q-27.5 31.5 -27.5 89.5 l0 205 Z" /><glyph glyph-name="bar" unicode="|" d="M60 700 l107 0 l0 -830 l-107 0 l0 830 Z" /><glyph glyph-name="braceright" unicode="}" d="M261 375 q0 -51 21 -70 q21 -19 59 -19 l0 -100 q-38 0 -59 -20.5 q-21 -20.5 -21 -64.5 l0 -209 q0 -54 -26.5 -88 q-26.5 -34 -82.5 -34 l-117 0 l0 110 l50 0 q27 0 39.5 13.5 q12.5 13.5 12.5 46.5 l0 195 q0 44 21 66.5 q21 22.5 49 27.5 l0 10 q-27 4 -48.5 30 q-21.5 26 -21.5 68 l0 194 q0 31 -12 45.5 q-12 14.5 -41 14.5 l-49 0 l0 110 l119 0 q53 0 80 -31.5 q27 -31.5 27 -89.5 l0 -205 Z" /><glyph glyph-name="asciitilde" unicode="~" d="M28 378 q47 38 84.5 52.5 q37.5 14.5 69.5 14.5 q29 0 54 -8.5 q25 -8.5 48 -18 q23 -9.5 45.5 -18 q22.5 -8.5 45.5 -8.5 q18 0 37 6 q19 6 40 23 l47 -103 q-36 -27 -66 -38 q-30 -11 -56 -11 q-28 0 -52 9 q-24 9 -46.5 20 q-22.5 11 -45.5 20 q-23 9 -49 9 q-24 0 -51.5 -10.5 q-27.5 -10.5 -60.5 -38.5 l-44 100 Z" /><glyph glyph-name="nonbreakingspace" unicode=" " d="" /><glyph glyph-name="exclamdown" unicode="¡" d="M191 -200 l-134 0 l0 329 l26 162 l82 0 l26 -162 l0 -329 ZM44 435 q0 35 22 55.5 q22 20.5 58 20.5 q38 0 60 -20.5 q22 -20.5 22 -55.5 q0 -35 -22 -56 q-22 -21 -60 -21 q-36 0 -58 21 q-22 21 -22 56 Z" /><glyph glyph-name="cent" unicode="¢" d="M489 31 q-17 -13 -42.5 -22.5 q-25.5 -9.5 -54.5 -14.5 l0 -94 l-121 0 l0 89 q-51 7 -86.5 28.5 q-35.5 21.5 -58 55 q-22.5 33.5 -32.5 78.5 q-10 45 -10 99 q0 112 48 178.5 q48 66.5 139 81.5 l0 90 l121 0 l0 -90 q28 -4 50 -10.5 q22 -6.5 40 -15.5 l-30 -106 q-15 7 -32 11 q-17 4 -35 6 l0 -291 q23 3 41.5 10 q18.5 7 32.5 15 l30 -98 ZM212 250 q0 -51 19 -89.5 q19 -38.5 64 -52.5 l0 286 q-42 -11 -62.5 -45.5 q-20.5 -34.5 -20.5 -98.5 Z" /><glyph glyph-name="sterling" unicode="£" d="M51 394 l68 0 q-13 24 -22.5 54 q-9.5 30 -9.5 72 q0 49 16.5 85.5 q16.5 36.5 46 60.5 q29.5 24 70.5 36 q41 12 90 12 q61 0 111 -11.5 q50 -11.5 86 -28.5 l-42 -116 q-20 11 -55 22.5 q-35 11.5 -84 11.5 q-48 0 -75 -22.5 q-27 -22.5 -27 -67.5 q0 -34 12.5 -58.5 q12.5 -24.5 27.5 -49.5 l141 0 l0 -107 l-98 0 q3 -17 3 -34 q0 -30 -10 -63 q-10 -33 -31 -54 l-43 -31 l0 -5 l67 15 l230 0 l0 -115 l-472 0 l0 115 l2 0 q31 1 54.5 11 q23.5 10 39 26.5 q15.5 16.5 23.5 38.5 q8 22 8 46 q0 27 -6 50 l-121 0 l0 107 Z" /><glyph glyph-name="currency" unicode="¤" d="M81 622 l78 -77 l19 -37 q20 15 47.5 22.5 q27.5 7.5 57.5 7.5 q29 0 57.5 -7.5 q28.5 -7.5 47.5 -21.5 l20 36 l78 77 l77 -80 l-77 -78 l-37 -16 q14 -21 20 -47.5 q6 -26.5 6 -55.5 q0 -30 -6.5 -56.5 q-6.5 -26.5 -19.5 -44.5 l37 -16 l77 -78 l-77 -80 l-78 77 l-18 37 q-19 -14 -48.5 -22 q-29.5 -8 -58.5 -8 q-30 0 -57.5 7.5 q-27.5 7.5 -47.5 21.5 l-19 -36 l-78 -77 l-76 80 l77 78 l36 17 q-12 21 -19 45.5 q-7 24.5 -7 54.5 q0 29 7.5 54 q7.5 25 20.5 48 l-38 17 l-77 78 l76 80 ZM201 346 q0 -38 23 -62 q23 -24 60 -24 q37 0 59.5 24 q22.5 24 22.5 62 q0 36 -22.5 61 q-22.5 25 -59.5 25 q-37 0 -60 -25 q-23 -25 -23 -61 Z" /><glyph glyph-name="yen" unicode="¥" d="M85 337 l90 0 l-189 363 l163 0 l128 -263 l14 -74 l5 0 l15 76 l124 261 l147 0 l-190 -363 l91 0 l0 -80 l-130 0 l0 -58 l130 0 l0 -80 l-130 0 l0 -119 l-137 0 l0 119 l-131 0 l0 80 l131 0 l0 58 l-131 0 l0 80 Z" /><glyph glyph-name="brokenbar" unicode="¦" d="M60 213 l107 0 l0 -343 l-107 0 l0 343 ZM167 357 l-107 0 l0 343 l107 0 l0 -343 Z" /><glyph glyph-name="section" unicode="§" d="M49 353 q0 31 15 60.5 q15 29.5 41 52.5 l41 14 q-26 16 -43 40.5 q-17 24.5 -17 65.5 q0 56 43.5 92 q43.5 36 131.5 36 q59 0 110 -10 q51 -10 78 -23 l-32 -105 q-23 11 -61 19.5 q-38 8.5 -73 8.5 q-37 0 -52 -11 q-15 -11 -15 -28 q0 -18 19.5 -28 q19.5 -10 49 -18 q29.5 -8 64 -18 q34.5 -10 64 -28 q29.5 -18 49 -48 q19.5 -30 19.5 -78 q0 -31 -14.5 -60 q-14.5 -29 -40.5 -52 l-45 -14 q27 -16 45 -41 q18 -25 18 -66 q0 -63 -49 -95.5 q-49 -32.5 -130 -32.5 q-68 0 -113.5 13.5 q-45.5 13.5 -74.5 29.5 l34 100 q23 -11 56 -22 q33 -11 77 -11 q37 0 53.5 9.5 q16.5 9.5 16.5 30.5 q0 19 -19.5 29.5 q-19.5 10.5 -49 19 q-29.5 8.5 -64 18.5 q-34.5 10 -64 27.5 q-29.5 17.5 -49 46.5 q-19.5 29 -19.5 76 ZM351 345 q0 18 -8.5 30 q-8.5 12 -24.5 21.5 q-16 9.5 -39 17.5 q-23 8 -52 17 q-20 -12 -34 -31.5 q-14 -19.5 -14 -44.5 q0 -35 32 -52 q32 -17 88 -33 q22 12 37 32 q15 20 15 43 Z" /><glyph glyph-name="dieresis" unicode="¨" d="M60 651 q0 32 19.5 51 q19.5 19 51.5 19 q32 0 50.5 -19 q18.5 -19 18.5 -51 q0 -30 -18.5 -49 q-18.5 -19 -50.5 -19 q-32 0 -51.5 19 q-19.5 19 -19.5 49 ZM279 651 q0 32 18.5 51 q18.5 19 50.5 19 q32 0 51.5 -19 q19.5 -19 19.5 -51 q0 -30 -19.5 -49 q-19.5 -19 -51.5 -19 q-32 0 -50.5 19 q-18.5 19 -18.5 49 Z" /><glyph glyph-name="copyright" unicode="©" d="M55 290 q0 83 28 149.5 q28 66.5 76.5 113.5 q48.5 47 114.5 72.5 q66 25.5 142 25.5 q76 0 141.5 -25.5 q65.5 -25.5 114.5 -72.5 q49 -47 77 -113.5 q28 -66.5 28 -149.5 q0 -83 -28 -149.5 q-28 -66.5 -77 -113.5 q-49 -47 -114.5 -72.5 q-65.5 -25.5 -141.5 -25.5 q-83 0 -150 25.5 q-67 25.5 -114 72.5 q-47 47 -72 113.5 q-25 66.5 -25 149.5 ZM153 290 q0 -62 19.5 -112 q19.5 -50 55 -84.5 q35.5 -34.5 83.5 -53 q48 -18.5 105 -18.5 q57 0 105.5 18.5 q48.5 18.5 84 53 q35.5 34.5 55 84.5 q19.5 50 19.5 112 q0 62 -19.5 112 q-19.5 50 -55 84.5 q-35.5 34.5 -84 53 q-48.5 18.5 -105.5 18.5 q-57 0 -105 -18.5 q-48 -18.5 -83.5 -53 q-35.5 -34.5 -55 -84.5 q-19.5 -50 -19.5 -112 ZM541 131 q-22 -14 -55.5 -22.5 q-33.5 -8.5 -71.5 -8.5 q-81 0 -123.5 51 q-42.5 51 -42.5 139 q0 91 45.5 140.5 q45.5 49.5 120.5 49.5 q37 0 65.5 -8.5 q28.5 -8.5 54.5 -23.5 l-32 -87 q-18 9 -32.5 12 q-14.5 3 -28.5 3 q-29 0 -46 -19 q-17 -19 -17 -67 q0 -86 70 -86 q19 0 34 3.5 q15 3.5 30 11.5 l29 -88 Z" /><glyph glyph-name="ordfeminine" unicode="ª" d="M61 674 q26 14 73.5 24 q47.5 10 106.5 10 q76 0 104 -27.5 q28 -27.5 28 -84.5 q0 -60 -3 -116 q-3 -56 8 -100 l-101 0 l-13 46 l-4 0 q-13 -17 -37 -33.5 q-24 -16.5 -67 -16.5 q-52 0 -83 27.5 q-31 27.5 -31 71.5 q0 33 17.5 55 q17.5 22 47 35 q29.5 13 69 17.5 q39.5 4.5 83.5 2.5 q2 26 -7 37.5 q-9 11.5 -44 11.5 q-40 0 -72.5 -8 q-32.5 -8 -52.5 -16 l-22 64 ZM194 454 q32 0 45 11.5 q13 11.5 20 23.5 l0 35 q-43 5 -72.5 -2 q-29.5 -7 -29.5 -34 q0 -16 10.5 -25 q10.5 -9 26.5 -9 Z" /><glyph glyph-name="guillemotleft" unicode="«" d="M223 261 l154 216 l71 -56 l-81 -122 l-46 -39 l46 -35 l87 -121 l-71 -56 l-160 213 ZM29 259 l160 230 l79 -62 l-87 -126 l-48 -41 l48 -36 l93 -124 l-79 -62 l-166 221 Z" /><glyph glyph-name="logicalnot" unicode="¬" d="M45 412 l442 0 l0 -226 l-120 0 l0 114 l-322 0 l0 112 Z" /><glyph glyph-name="registered" unicode="®" d="M62 451 q0 67 22.5 119.5 q22.5 52.5 61.5 88.5 q39 36 90.5 55 q51.5 19 108.5 19 q59 0 110.5 -19 q51.5 -19 89.5 -55 q38 -36 60 -88.5 q22 -52.5 22 -119.5 q0 -68 -22.5 -120.5 q-22.5 -52.5 -61 -88.5 q-38.5 -36 -90 -54.5 q-51.5 -18.5 -108.5 -18.5 q-59 0 -110.5 18.5 q-51.5 18.5 -90 54.5 q-38.5 36 -60.5 88.5 q-22 52.5 -22 120.5 ZM156 451 q0 -48 15.5 -84.5 q15.5 -36.5 41.5 -60.5 q26 -24 60 -36 q34 -12 72 -12 q40 0 74.5 11.5 q34.5 11.5 59.5 35.5 q25 24 39.5 60.5 q14.5 36.5 14.5 85.5 q0 48 -15 84 q-15 36 -40.5 60 q-25.5 24 -60 36 q-34.5 12 -72.5 12 q-42 0 -77 -13 q-35 -13 -60 -38 q-25 -25 -38.5 -60.5 q-13.5 -35.5 -13.5 -80.5 ZM242 581 q16 5 45 7.5 q29 2.5 55 2.5 q42 0 72 -17.5 q30 -17.5 30 -60.5 q0 -32 -20.5 -49 q-20.5 -17 -50.5 -19 l28 -14 l65 -109 l-61 0 l-63 104 l-48 15 l0 -119 l-52 0 l0 259 ZM331 546 q-11 0 -21 -0.5 q-10 -0.5 -16 -3.5 l0 -71 l34 0 q29 0 45 9 q16 9 16 31 q0 35 -58 35 Z" /><glyph glyph-name="macron" unicode="¯" d="M60 658 l323 0 l0 -92 l-323 0 l0 92 Z" /><glyph glyph-name="degree" unicode="°" d="M60 548 q0 37 13 67.5 q13 30.5 35.5 52.5 q22.5 22 52 34 q29.5 12 63.5 12 q34 0 64.5 -11 q30.5 -11 53.5 -32.5 q23 -21.5 36 -52.5 q13 -31 13 -70 q0 -39 -13 -69.5 q-13 -30.5 -36 -51.5 q-23 -21 -53.5 -32 q-30.5 -11 -64.5 -11 q-34 0 -63.5 11 q-29.5 11 -52 32 q-22.5 21 -35.5 51.5 q-13 30.5 -13 69.5 ZM160 548 q0 -32 19 -50.5 q19 -18.5 46 -18.5 q27 0 47 18.5 q20 18.5 20 50.5 q0 32 -20 51.5 q-20 19.5 -47 19.5 q-27 0 -46 -19.5 q-19 -19.5 -19 -51.5 Z" /><glyph glyph-name="plusminus" unicode="±" d="M43 518 l162 0 l0 164 l117 0 l0 -164 l163 0 l0 -112 l-163 0 l0 -107 l-117 0 l0 107 l-162 0 l0 112 ZM43 253 l442 0 l0 -112 l-442 0 l0 112 Z" /><glyph glyph-name="acute" unicode="´" d="M113 720 l132 0 l0 -30 l-111 -124 l-74 0 l53 154 Z" /><glyph glyph-name="mu" unicode="µ&#x3bc;" d="M182 500 l0 -273 q0 -64 20.5 -96.5 q20.5 -32.5 71.5 -32.5 q46 0 74 23 q28 23 40 64 l0 315 l130 0 l0 -337 q0 -41 2.5 -82.5 q2.5 -41.5 12.5 -80.5 l-96 0 l-32 74 l-4 0 q-17 -35 -50 -60.5 q-33 -25.5 -86 -25.5 q-39 0 -60 14 q-21 14 -39 36 l-5 0 l21 -105 l0 -133 l-130 0 l0 700 l130 0 Z" /><glyph glyph-name="paragraph" unicode="¶" d="M362 700 l107 0 l0 -830 l-107 0 l0 830 ZM178 294 q-33 0 -61 16.5 q-28 16.5 -48.5 45 q-20.5 28.5 -31.5 65 q-11 36.5 -11 77.5 q0 40 13 76.5 q13 36.5 37 64.5 q24 28 58 44.5 q34 16.5 76 16.5 l74 0 l0 -830 l-106 0 l0 424 Z" /><glyph glyph-name="cedilla" unicode="¸" d="M208 0 l-24 -43 q41 -4 64.5 -21.5 q23.5 -17.5 23.5 -53.5 q0 -23 -11.5 -40 q-11.5 -17 -31.5 -28.5 q-20 -11.5 -47 -17.5 q-27 -6 -58 -6 q-31 0 -64 6 l9 48 q7 -1 13 -1 q6 0 11 0 q38 0 49 9 q11 9 11 21 q0 28 -86 32 l57 95 l84 0 Z" /><glyph glyph-name="ordmasculine" unicode="º" d="M34 542 q0 45 13 77 q13 32 36 53 q23 21 55.5 30.5 q32.5 9.5 70.5 9.5 q38 0 70 -9 q32 -9 55.5 -29 q23.5 -20 36.5 -52.5 q13 -32.5 14 -79.5 q-1 -47 -14 -79.5 q-13 -32.5 -36.5 -52.5 q-23.5 -20 -55.5 -29 q-32 -9 -70 -9 q-38 0 -70.5 9 q-32.5 9 -55.5 29 q-23 20 -36 52.5 q-13 32.5 -13 79.5 ZM150 542 q0 -86 59 -86 q31 0 44.5 18.5 q13.5 18.5 14.5 67.5 q-1 48 -14.5 67 q-13.5 19 -44.5 19 q-31 0 -45 -19 q-14 -19 -14 -67 Z" /><glyph glyph-name="guillemotright" unicode="»" d="M264 266 l-153 -216 l-72 56 l82 122 l45 39 l-45 35 l-87 121 l70 56 l160 -213 ZM459 268 l-160 -230 l-79 62 l87 126 l48 41 l-48 36 l-93 124 l79 62 l166 -221 Z" /><glyph glyph-name="questiondown" unicode="¿" d="M317 293 q5 -52 -4.5 -88.5 q-9.5 -36.5 -27.5 -63 q-18 -26.5 -40 -45.5 q-22 -19 -41.5 -37 q-19.5 -18 -33 -37.5 q-13.5 -19.5 -13.5 -46.5 q0 -35 20 -56.5 q20 -21.5 70 -21.5 q16 0 34 3.5 q18 3.5 36 10 q18 6.5 34.5 15 q16.5 8.5 29.5 18.5 l49 -96 q-38 -26 -87 -43 q-49 -17 -119 -17 q-94 0 -147.5 45 q-53.5 45 -53.5 123 q0 51 13.5 84 q13.5 33 34 56.5 q20.5 23.5 44 41.5 q23.5 18 44 38.5 q20.5 20.5 34 47.5 q13.5 27 13.5 69 l111 0 ZM178 435 q0 35 22 55.5 q22 20.5 58 20.5 q38 0 60 -20.5 q22 -20.5 22 -55.5 q0 -35 -22 -56 q-22 -21 -60 -21 q-36 0 -58 21 q-22 21 -22 56 Z" /><glyph glyph-name="Aring" unicode="å" d="M175 771 q0 18 6 34.5 q6 16.5 20.5 29 q14.5 12.5 39 19.5 q24.5 7 62.5 7 q70 0 99 -24 q29 -24 29 -66 q0 -29 -16 -50.5 q-16 -21.5 -57 -31.5 l247 -689 l-144 0 l-56 155 l-215 0 l-53 -155 l-137 0 l246 689 q-39 9 -55 31 q-16 22 -16 51 ZM225 265 l150 0 l-52 156 l-21 110 l-5 0 l-21 -111 l-51 -155 ZM259 771 q0 -31 44 -31 q25 0 35 8 q10 8 10 23 q0 17 -10.5 25 q-10.5 8 -34.5 8 q-44 0 -44 -33 Z" /><glyph glyph-name="AE" unicode="æ" d="M394 532 l-36 -103 l-84 -148 l126 0 l0 251 l-6 0 ZM400 170 l-186 0 l-99 -170 l-144 0 l424 700 l419 0 l0 -122 l-277 0 l0 -163 l252 0 l0 -122 l-252 0 l0 -171 l282 0 l0 -122 l-419 0 l0 170 Z" /><glyph glyph-name="Ccedilla" unicode="ç" d="M534 29 q-26 -19 -65.5 -29 q-39.5 -10 -83.5 -13 l-16 -30 q41 -4 64.5 -21.5 q23.5 -17.5 23.5 -53.5 q0 -23 -11.5 -40 q-11.5 -17 -31.5 -28.5 q-20 -11.5 -47 -17.5 q-27 -6 -58 -6 q-31 0 -64 6 l9 48 q7 -1 13 -1 q6 0 11 0 q38 0 49 9 q11 9 11 21 q0 28 -86 32 l50 84 q-55 7 -103 30.5 q-48 23.5 -84 67.5 q-36 44 -56.5 109 q-20.5 65 -20.5 154 q0 103 28.5 172.5 q28.5 69.5 74 112 q45.5 42.5 101.5 61 q56 18.5 112 18.5 q60 0 101.5 -8 q41.5 -8 68.5 -19 l-27 -116 q-23 11 -54.5 16 q-31.5 5 -76.5 5 q-83 0 -133.5 -59 q-50.5 -59 -50.5 -183 q0 -54 12 -98.5 q12 -44.5 36.5 -76 q24.5 -31.5 61 -49 q36.5 -17.5 84.5 -17.5 q45 0 76 9 q31 9 54 23 l28 -112 Z" /><glyph glyph-name="Eth" unicode="ð" d="M-6 401 l88 0 l0 299 q21 3 47.5 5 q26.5 2 54.5 3 q28 1 54.5 1.5 q26.5 0.5 47.5 0.5 q93 0 159 -26 q66 -26 107 -73 q41 -47 60 -112 q19 -65 19 -143 q0 -71 -18 -137 q-18 -66 -60 -117 q-42 -51 -110.5 -82 q-68.5 -31 -169.5 -31 q-16 0 -42.5 1 q-26.5 1 -55 2.5 q-28.5 1.5 -54.5 3 q-26 1.5 -39 3.5 l0 322 l-88 0 l0 80 ZM297 588 q-22 0 -44.5 -1 q-22.5 -1 -33.5 -3 l0 -183 l140 0 l0 -80 l-140 0 l0 -207 q4 -1 13.5 -1.5 q9.5 -0.5 20.5 -1 q11 -0.5 21 -0.5 q10 0 15 0 q58 0 96.5 20.5 q38.5 20.5 61 54.5 q22.5 34 31.5 78.5 q9 44.5 9 91.5 q0 41 -8 82.5 q-8 41.5 -29.5 74.5 q-21.5 33 -58.5 54 q-37 21 -94 21 Z" /><glyph glyph-name="multiply" unicode="×" d="M134 547 l131 -130 l130 130 l79 -81 l-130 -127 l130 -129 l-79 -82 l-130 131 l-132 -132 l-79 81 l131 131 l-129 127 l78 81 Z" /><glyph glyph-name="Oslash" unicode="ø" d="M111 86 q-37 48 -55 114.5 q-18 66.5 -18 149.5 q0 175 77 269.5 q77 94.5 220 94.5 q45 0 83 -10 q38 -10 69 -28 l25 39 l85 -50 l-35 -56 q35 -48 52.5 -113.5 q17.5 -65.5 17.5 -145.5 q0 -175 -77.5 -269.5 q-77.5 -94.5 -219.5 -94.5 q-44 0 -80 8.5 q-36 8.5 -67 24.5 l-21 -33 l-86 53 l30 47 ZM182 350 q0 -36 4 -68 q4 -32 12 -59 l219 342 q-35 27 -82 27 q-73 0 -113 -58.5 q-40 -58.5 -40 -183.5 ZM488 350 q0 33 -3 63.5 q-3 30.5 -11 56.5 l-215 -340 q33 -22 76 -22 q73 0 113 57 q40 57 40 185 Z" /><glyph glyph-name="Thorn" unicode="þ" d="M60 700 l137 0 l0 -72 q14 1 28 1.5 q14 0.5 28 0.5 q52 0 104.5 -8.5 q52.5 -8.5 94.5 -34 q42 -25.5 68.5 -71 q26.5 -45.5 26.5 -118.5 q0 -66 -23 -111.5 q-23 -45.5 -61 -74.5 q-38 -29 -86.5 -42 q-48.5 -13 -100.5 -13 q-5 0 -16 0 q-11 0 -23 0.5 q-12 0.5 -23.5 1.5 q-11.5 1 -16.5 2 l0 -161 l-137 0 l0 700 ZM264 512 q-20 0 -38 -1.5 q-18 -1.5 -29 -3.5 l0 -227 q4 -1 12 -2 q8 -1 17 -1.5 q9 -0.5 17.5 -0.5 q8.5 0 12.5 0 q27 0 53.5 5 q26.5 5 47.5 18.5 q21 13.5 33.5 37.5 q12.5 24 12.5 63 q0 33 -12 54.5 q-12 21.5 -31.5 34.5 q-19.5 13 -44.5 18 q-25 5 -51 5 Z" /><glyph glyph-name="germandbls" unicode="ß" d="M81 390 l-69 0 l0 110 l69 0 q0 58 16 97.5 q16 39.5 44.5 64 q28.5 24.5 68 35.5 q39.5 11 86.5 11 q51 0 91.5 -11.5 q40.5 -11.5 69 -32.5 q28.5 -21 44 -50.5 q15.5 -29.5 15.5 -65.5 q0 -39 -17.5 -63 q-17.5 -24 -39 -41 q-21.5 -17 -39 -32 q-17.5 -15 -17.5 -37 q0 -18 14.5 -29 q14.5 -11 37 -20.5 q22.5 -9.5 48 -20 q25.5 -10.5 48 -27.5 q22.5 -17 37 -43.5 q14.5 -26.5 14.5 -67.5 q0 -35 -11 -67.5 q-11 -32.5 -34.5 -58 q-23.5 -25.5 -59 -40.5 q-35.5 -15 -83.5 -15 q-47 0 -86.5 11.5 q-39.5 11.5 -67.5 28.5 l35 97 q23 -13 46 -23 q23 -10 62 -10 q30 0 49.5 20.5 q19.5 20.5 19.5 49.5 q0 21 -14.5 34 q-14.5 13 -37 23.5 q-22.5 10.5 -48 20.5 q-25.5 10 -48 25.5 q-22.5 15.5 -37 38.5 q-14.5 23 -14.5 59 q0 43 17.5 67 q17.5 24 39 40.5 q21.5 16.5 39 30.5 q17.5 14 17.5 38 q0 13 -7 24.5 q-7 11.5 -19 19.5 q-12 8 -27 13 q-15 5 -30 5 q-48 0 -70.5 -23.5 q-22.5 -23.5 -22.5 -87.5 l0 -488 l-129 0 l0 390 Z" /><glyph glyph-name="ae" unicode="æ" d="M219 99 q39 0 62 17.5 q23 17.5 34 37.5 l0 65 q-31 3 -59.5 1 q-28.5 -2 -50.5 -9 q-22 -7 -35 -20 q-13 -13 -13 -33 q0 -28 16.5 -43.5 q16.5 -15.5 45.5 -15.5 ZM350 76 q-27 -34 -66.5 -59 q-39.5 -25 -107.5 -25 q-35 0 -63 10.5 q-28 10.5 -48 30 q-20 19.5 -31 46 q-11 26.5 -11 59.5 q0 46 20.5 77.5 q20.5 31.5 58.5 51 q38 19.5 91.5 27 q53.5 7.5 119.5 4.5 q7 56 -7.5 80.5 q-14.5 24.5 -66.5 24.5 q-39 0 -79.5 -10.5 q-40.5 -10.5 -71.5 -25.5 l-34 94 q38 20 94 34.5 q56 14.5 116 14.5 q52 0 83 -13.5 q31 -13.5 51 -40.5 q25 28 65 43 q40 15 87 15 q38 0 74 -10 q36 -10 64 -33 q28 -23 45 -62 q17 -39 17 -97 q0 -21 -2.5 -44.5 q-2.5 -23.5 -7.5 -50.5 l-301 0 q4 -63 33.5 -95 q29.5 -32 95.5 -32 q41 0 73.5 12.5 q32.5 12.5 49.5 25.5 l43 -85 q-30 -24 -81.5 -40.5 q-51.5 -16.5 -109.5 -16.5 q-64 0 -112.5 23.5 q-48.5 23.5 -75.5 66.5 l-5 0 ZM548 410 q-51 0 -75.5 -30.5 q-24.5 -30.5 -29.5 -81.5 l187 0 q3 54 -17 83 q-20 29 -65 29 Z" /><glyph glyph-name="ccedilla" unicode="ç" d="M411 31 q-23 -17 -52.5 -27 q-29.5 -10 -62.5 -15 l-18 -32 q41 -4 64.5 -21.5 q23.5 -17.5 23.5 -53.5 q0 -23 -11.5 -40 q-11.5 -17 -31.5 -28.5 q-20 -11.5 -47 -17.5 q-27 -6 -58 -6 q-31 0 -64 6 l9 48 q7 -1 13 -1 q6 0 11 0 q38 0 49 9 q11 9 11 21 q0 28 -86 32 l50 84 q-49 6 -83 27.5 q-34 21.5 -55 55 q-21 33.5 -30.5 79 q-9.5 45.5 -9.5 99.5 q0 127 57 195.5 q57 68.5 166 68.5 q55 0 88.5 -9 q33.5 -9 60.5 -23 l-31 -106 q-23 11 -45.5 17 q-22.5 6 -51.5 6 q-54 0 -82 -35.5 q-28 -35.5 -28 -113.5 q0 -32 7 -59 q7 -27 21 -47 q14 -20 36.5 -31.5 q22.5 -11.5 52.5 -11.5 q33 0 56 8.5 q23 8.5 41 20.5 l30 -99 Z" /><glyph glyph-name="eth" unicode="ð" d="M163 243 q0 -72 33 -109 q33 -37 88 -37 q52 0 85 44.5 q33 44.5 33 138.5 q0 13 -1.5 34 q-1.5 21 -5.5 33 q-16 23 -48 32.5 q-32 9.5 -62 9.5 q-60 0 -91 -41.5 q-31 -41.5 -31 -104.5 ZM197 584 l44 30 q-34 15 -69 21 l52 80 q25 -7 57 -20 q23 -9 47 -22 l53 36 l42 -55 l-33 -23 q12 -9 23 -20 q32 -30 57 -73.5 q25 -43.5 40.5 -101.5 q15.5 -58 15.5 -134 q0 -81 -18.5 -140.5 q-18.5 -59.5 -51.5 -98.5 q-33 -39 -79 -58 q-46 -19 -101 -19 q-59 0 -104 19 q-45 19 -75 53.5 q-30 34.5 -45 82 q-15 47.5 -15 104.5 q0 54 17 100 q17 46 47.5 80.5 q30.5 34.5 73.5 54 q43 19.5 94 19.5 q38 0 70.5 -10.5 q32.5 -10.5 52.5 -30.5 q-12 36 -34 66 q-22 29 -50 51 l-68 -46 l-43 55 Z" /><glyph glyph-name="divide" unicode="÷" d="M43 394 l442 0 l0 -112 l-442 0 l0 112 ZM184 532 q0 35 22 55.5 q22 20.5 58 20.5 q38 0 60 -20.5 q22 -20.5 22 -55.5 q0 -35 -22 -56 q-22 -21 -60 -21 q-36 0 -58 21 q-22 21 -22 56 ZM184 145 q0 35 22 55.5 q22 20.5 58 20.5 q38 0 60 -20.5 q22 -20.5 22 -55.5 q0 -35 -22 -56 q-22 -21 -60 -21 q-36 0 -58 21 q-22 21 -22 56 Z" /><glyph glyph-name="oslash" unicode="ø" d="M33 250 q0 127 61.5 195.5 q61.5 68.5 173.5 68.5 q32 0 59 -5.5 q27 -5.5 50 -16.5 l24 34 l80 -59 l-27 -38 q25 -34 37 -79.5 q12 -45.5 12 -99.5 q0 -127 -61.5 -195.5 q-61.5 -68.5 -173.5 -68.5 q-34 0 -62.5 6.5 q-28.5 6.5 -52.5 17.5 l-25 -34 l-83 60 l31 43 q-22 33 -32.5 76.5 q-10.5 43.5 -10.5 94.5 ZM369 250 q0 37 -8 71 l-149 -207 q22 -18 56 -18 q51 0 76 37 q25 37 25 117 ZM167 250 q0 -35 6 -65 l147 204 q-21 15 -52 15 q-48 0 -74.5 -36 q-26.5 -36 -26.5 -118 Z" /><glyph glyph-name="thorn" unicode="þ" d="M57 700 l130 0 l0 -243 l4 0 q21 26 50.5 41.5 q29.5 15.5 77.5 15.5 q94 0 141 -59.5 q47 -59.5 47 -191.5 q0 -64 -15 -115.5 q-15 -51.5 -44.5 -87.5 q-29.5 -36 -72 -55 q-42.5 -19 -97.5 -19 q-31 0 -51 4.5 q-20 4.5 -40 14.5 l0 -205 l-130 0 l0 900 ZM280 404 q-36 0 -58.5 -19 q-22.5 -19 -34.5 -57 l0 -208 q14 -11 30.5 -17.5 q16.5 -6.5 43.5 -6.5 q56 0 84 39.5 q28 39.5 28 130.5 q0 66 -22 102 q-22 36 -71 36 Z" /><glyph glyph-name="Aogonek" unicode="&#x104;" d="M405 155 l-215 0 l-53 -155 l-137 0 l252 705 l101 0 l252 -705 l-21 0 q-58 -22 -58 -73 q0 -26 22 -38.5 q22 -12.5 62 7.5 l19 -62 q-15 -12 -47.5 -23.5 q-32.5 -11.5 -67.5 -11.5 q-56 0 -85.5 25 q-29.5 25 -29.5 66 q0 38 23 65.5 q23 27.5 64 44.5 l-25 0 l-56 155 ZM225 265 l150 0 l-52 156 l-21 110 l-5 0 l-21 -111 l-51 -155 Z" /><glyph glyph-name="aogonek" unicode="&#x105;" d="M54 466 q38 21 89.5 32.5 q51.5 11.5 120.5 11.5 q52 0 87 -12.5 q35 -12.5 55.5 -35.5 q20.5 -23 29 -55 q8.5 -32 8.5 -72 q0 -44 -3 -88.5 q-3 -44.5 -3.5 -87.5 q-0.5 -43 2.5 -83.5 q3 -40.5 15 -76.5 l-23 0 q-56 -24 -56 -72 q0 -26 22 -38.5 q22 -12.5 62 7.5 l19 -62 q-15 -12 -47.5 -23.5 q-32.5 -11.5 -67.5 -11.5 q-56 0 -85.5 25 q-29.5 25 -29.5 66 q0 40 26.5 68.5 q26.5 28.5 71.5 45.5 l-19 64 l-5 0 q-20 -31 -55.5 -53.5 q-35.5 -22.5 -91.5 -22.5 q-35 0 -63 10.5 q-28 10.5 -48 30 q-20 19.5 -31 46 q-11 26.5 -11 59.5 q0 46 20.5 77.5 q20.5 31.5 58.5 51 q38 19.5 91.5 27 q53.5 7.5 119.5 4.5 q7 56 -7.5 80.5 q-14.5 24.5 -66.5 24.5 q-39 0 -79.5 -8.5 q-40.5 -8.5 -71.5 -22.5 l-34 94 ZM219 99 q39 0 62 17.5 q23 17.5 34 37.5 l0 65 q-31 3 -59.5 1 q-28.5 -2 -50.5 -9 q-22 -7 -35 -20 q-13 -13 -13 -33 q0 -28 16.5 -43.5 q16.5 -15.5 45.5 -15.5 Z" /><glyph glyph-name="dcroat" unicode="&#x111;" d="M482 641 l76 0 l0 -80 l-76 0 l0 -385 q0 -42 1 -84 q1 -42 9 -93 l-93 0 l-18 65 l-4 0 q-20 -35 -57.5 -56.5 q-37.5 -21.5 -88.5 -21.5 q-94 0 -146 62 q-52 62 -52 194 q0 128 58 199 q58 71 170 71 q31 0 51 -3.5 q20 -3.5 40 -11.5 l0 64 l-148 0 l0 80 l148 0 l0 59 l130 0 l0 -59 ZM261 96 q38 0 60 18.5 q22 18.5 31 53.5 l0 212 q-14 11 -31 16.5 q-17 5.5 -44 5.5 q-55 0 -82.5 -37 q-27.5 -37 -27.5 -127 q0 -64 22.5 -103 q22.5 -39 71.5 -39 Z" /><glyph glyph-name="Eogonek" unicode="&#x118;" d="M60 700 l415 0 l0 -122 l-278 0 l0 -163 l253 0 l0 -122 l-253 0 l0 -171 l283 0 l0 -122 l-27 0 q-58 -22 -58 -73 q0 -18 11 -30.5 q11 -12.5 31 -12.5 q18 0 42 12 l19 -62 q-15 -12 -47.5 -23.5 q-32.5 -11.5 -67.5 -11.5 q-56 0 -85.5 25 q-29.5 25 -29.5 66 q0 38 23 65.5 q23 27.5 64 44.5 l-295 0 l0 700 Z" /><glyph glyph-name="eogonek" unicode="&#x119;" d="M457 43 q-25 -20 -66 -35 q-48 -31 -48 -76 q0 -13 6 -23.5 q6 -10.5 16.5 -16.5 q10.5 -6 26 -5.5 q15.5 0.5 35.5 10.5 l19 -62 q-15 -12 -47 -24 q-32 -12 -67 -12 q-57 0 -86.5 27.5 q-29.5 27.5 -29.5 68.5 q0 28 12 51 q12 23 34 40 q-118 1 -173 70 q-56 71 -56 194 q0 132 63 198 q63 66 177 66 q38 0 74 -10 q36 -10 64 -33 q28 -23 45 -62 q17 -39 17 -97 q0 -21 -2.5 -45 q-2.5 -24 -7.5 -50 l-300 0 q3 -63 32.5 -95 q29.5 -32 95.5 -32 q41 0 73.5 12.5 q32.5 12.5 49.5 25.5 l43 -85 ZM271 410 q-51 0 -75.5 -30.5 q-24.5 -30.5 -29.5 -81.5 l186 0 q4 54 -16.5 83 q-20.5 29 -64.5 29 Z" /><glyph glyph-name="Hbar" unicode="&#x126;" d="M2 598 l75 0 l0 102 l137 0 l0 -102 l256 0 l0 102 l137 0 l0 -102 l74 0 l0 -82 l-74 0 l0 -516 l-137 0 l0 293 l-256 0 l0 -293 l-137 0 l0 516 l-75 0 l0 82 ZM470 415 l0 101 l-256 0 l0 -101 l256 0 Z" /><glyph glyph-name="hbar" unicode="&#x127;" d="M-6 641 l74 0 l0 59 l130 0 l0 -59 l161 0 l0 -80 l-161 0 l0 -117 l4 0 q24 32 59 51 q35 19 89 19 q38 0 67 -10 q29 -10 48.5 -33 q19.5 -23 29 -62.5 q9.5 -39.5 9.5 -97.5 l0 -311 l-130 0 l0 284 q0 61 -17 88 q-17 27 -62 27 q-33 0 -60.5 -22.5 q-27.5 -22.5 -36.5 -57.5 l0 -319 l-130 0 l0 561 l-74 0 l0 80 Z" /><glyph glyph-name="Iogonek" unicode="&#x12e;" d="M74 700 l137 0 l0 -700 l-14 0 q-23 -12 -36 -30 q-13 -18 -12 -43 q0 -18 11 -30.5 q11 -12.5 31 -12.5 q17 0 41 12 l20 -62 q-15 -12 -47.5 -24 q-32.5 -12 -67.5 -12 q-57 0 -86 25.5 q-29 25.5 -29 66.5 q0 38 23 65.5 q23 27.5 64 44.5 l-35 0 l0 700 Z" /><glyph glyph-name="iogonek" unicode="&#x12f;" d="M70 500 l130 0 l0 -500 l-13 0 q-23 -14 -35 -32 q-12 -18 -12 -41 q1 -18 12 -30.5 q11 -12.5 31 -12.5 q17 0 41 12 l19 -62 q-15 -12 -47 -24 q-32 -12 -67 -12 q-57 0 -86.5 25.5 q-29.5 25.5 -29.5 66.5 q0 38 23 65.5 q23 27.5 64 44.5 l-30 0 l0 500 ZM51 641 q0 29 21.5 49.5 q21.5 20.5 59.5 20.5 q38 0 61.5 -20.5 q23.5 -20.5 23.5 -49.5 q0 -29 -23.5 -48.5 q-23.5 -19.5 -61.5 -19.5 q-38 0 -59.5 19.5 q-21.5 19.5 -21.5 48.5 Z" /><glyph glyph-name="dotlessi" unicode="&#x131;" d="M70 500 l130 0 l0 -500 l-130 0 l0 500 Z" /><glyph glyph-name="Lslash" unicode="&#x141;" d="M3 318 l68 45 l0 337 l137 0 l0 -245 l100 67 l0 -125 l-100 -66 l0 -209 l306 0 l0 -122 l-443 0 l0 241 l-68 -44 l0 121 Z" /><glyph glyph-name="lslash" unicode="&#x142;" d="M6 307 l79 53 l0 340 l130 0 l0 -253 l96 64 l0 -125 l-96 -63 l0 -155 q0 -35 9 -51 q9 -16 29 -16 q12 0 23.5 2 q11.5 2 28.5 9 l14 -102 q-16 -8 -49 -16 q-33 -8 -68 -8 q-57 0 -87 26.5 q-30 26.5 -30 87.5 l0 138 l-79 -52 l0 121 Z" /><glyph glyph-name="OE" unicode="&#x152;" d="M453 567 q-21 11 -51 18 q-30 7 -67 7 q-73 0 -113 -58.5 q-40 -58.5 -40 -183.5 q0 -53 9 -97.5 q9 -44.5 28.5 -76.5 q19.5 -32 49.5 -50 q30 -18 73 -18 q29 0 55.5 3.5 q26.5 3.5 55.5 15.5 l0 440 ZM453 0 q-19 -7 -52.5 -10.5 q-33.5 -3.5 -65.5 -3.5 q-76 0 -132 26 q-56 26 -92.5 74 q-36.5 48 -54.5 115 q-18 67 -18 149 q0 175 77 269.5 q77 94.5 220 94.5 q39 0 67.5 -4.5 q28.5 -4.5 50.5 -9.5 l415 0 l0 -122 l-278 0 l0 -163 l253 0 l0 -122 l-253 0 l0 -171 l283 0 l0 -122 l-420 0 Z" /><glyph glyph-name="oe" unicode="&#x153;" d="M167 250 q0 -33 6 -61 q6 -28 18 -49 q12 -21 31.5 -32.5 q19.5 -11.5 46.5 -11.5 q51 0 76 37 q25 37 25 117 q0 69 -23 111.5 q-23 42.5 -78 42.5 q-48 0 -75 -36 q-27 -36 -27 -118 ZM431 60 q-25 -33 -64.5 -53.5 q-39.5 -20.5 -97.5 -20.5 q-60 0 -104 19 q-44 19 -73.5 53.5 q-29.5 34.5 -44 83.5 q-14.5 49 -14.5 108 q0 127 62 195.5 q62 68.5 174 68.5 q66 0 106 -22.5 q40 -22.5 63 -49.5 q23 29 63.5 50.5 q40.5 21.5 104.5 21.5 q38 0 74 -10 q36 -10 64 -33 q28 -23 45 -62 q17 -39 17 -97 q0 -21 -2.5 -45 q-2.5 -24 -7.5 -50 l-301 0 q3 -63 33 -95 q30 -32 96 -32 q41 0 73.5 12.5 q32.5 12.5 49.5 25.5 l43 -85 q-30 -24 -81.5 -40.5 q-51.5 -16.5 -109.5 -16.5 q-111 0 -168 74 ZM604 410 q-51 0 -75.5 -30.5 q-24.5 -30.5 -29.5 -81.5 l186 0 q0 4 0.5 8 q0.5 4 0.5 8 q0 46 -20.5 71 q-20.5 25 -61.5 25 Z" /><glyph glyph-name="Scedilla" unicode="&#x15e;" d="M362 188 q0 32 -23.5 52 q-23.5 20 -59 36.5 q-35.5 16.5 -77 34 q-41.5 17.5 -77 43 q-35.5 25.5 -59 63.5 q-23.5 38 -23.5 97 q0 51 17 88.5 q17 37.5 48.5 62.5 q31.5 25 74.5 37 q43 12 96 12 q61 0 115 -10.5 q54 -10.5 89 -30.5 l-43 -115 q-22 14 -66 25.5 q-44 11.5 -95 11.5 q-48 0 -73.5 -19 q-25.5 -19 -25.5 -51 q0 -30 23.5 -50 q23.5 -20 59 -37 q35.5 -17 77 -35 q41.5 -18 77 -43.5 q35.5 -25.5 59 -63 q23.5 -37.5 23.5 -93.5 q0 -95 -51.5 -147 q-51.5 -52 -139.5 -65 l-18 -34 q41 -4 64.5 -21.5 q23.5 -17.5 23.5 -53.5 q0 -23 -11.5 -40 q-11.5 -17 -31.5 -28.5 q-20 -11.5 -47 -17.5 q-27 -6 -58 -6 q-31 0 -64 6 l9 48 q7 -1 13 -1 q6 0 11 0 q38 0 49 9 q11 9 11 21 q0 28 -86 32 l48 81 q-68 2 -118.5 15 q-50.5 13 -75.5 27 l44 117 q11 -6 28.5 -13 q17.5 -7 39.5 -13 q22 -6 46.5 -10 q24.5 -4 50.5 -4 q61 0 93.5 20.5 q32.5 20.5 32.5 62.5 Z" /><glyph glyph-name="scedilla" unicode="&#x15f;" d="M264 138 q0 20 -17 32 q-17 12 -42 22 q-25 10 -55 20.5 q-30 10.5 -55 29 q-25 18.5 -42 47 q-17 28.5 -17 73.5 q0 74 44 113 q44 39 127 39 q57 0 103 -12 q46 -12 72 -27 l-29 -94 q-23 9 -58 19 q-35 10 -71 10 q-58 0 -58 -45 q0 -18 17 -29 q17 -11 42 -20.5 q25 -9.5 55 -20.5 q30 -11 55 -28.5 q25 -17.5 42 -45.5 q17 -28 17 -72 q0 -64 -35 -105.5 q-35 -41.5 -104 -52.5 l-18 -34 q41 -4 64.5 -21.5 q23.5 -17.5 23.5 -53.5 q0 -23 -11.5 -40 q-11.5 -17 -31.5 -28.5 q-20 -11.5 -47 -17.5 q-27 -6 -58 -6 q-31 0 -64 6 l9 48 q7 -1 13 -1 q6 0 11 0 q38 0 49 9 q11 9 11 21 q0 28 -86 32 l49 83 q-44 4 -82 15.5 q-38 11.5 -62 27.5 l36 97 q23 -13 61 -25.5 q38 -12.5 78 -12.5 q29 0 46.5 11 q17.5 11 17.5 37 Z" /><glyph glyph-name="Tcedilla" unicode="&#x162;" d="M216 0 l0 578 l-205 0 l0 122 l546 0 l0 -122 l-204 0 l0 -578 l-27 0 l-24 -43 q41 -4 64.5 -21.5 q23.5 -17.5 23.5 -53.5 q0 -23 -11.5 -40 q-11.5 -17 -31.5 -28.5 q-20 -11.5 -47 -17.5 q-27 -6 -58 -6 q-31 0 -64 6 l9 48 q7 -1 13 -1 q6 0 11 0 q38 0 49 9 q11 9 11 21 q0 28 -86 32 l57 95 l-26 0 Z" /><glyph glyph-name="tcedilla" unicode="&#x163;" d="M5 500 l69 0 l0 94 l130 37 l0 -131 l122 0 l0 -110 l-122 0 l0 -192 q0 -52 10.5 -75 q10.5 -23 39.5 -23 q20 0 34.5 4 q14.5 4 32.5 12 l23 -99 q-19 -9 -41 -15 q-22 -6 -48 -11 l-18 -34 q41 -4 64.5 -21.5 q23.5 -17.5 23.5 -53.5 q0 -23 -11.5 -40 q-11.5 -17 -31.5 -28.5 q-20 -11.5 -47 -17.5 q-27 -6 -58 -6 q-31 0 -64 6 l9 48 q7 -1 13 -1 q6 0 11 0 q38 0 49 9 q11 9 11 21 q0 28 -86 32 l50 84 q-49 9 -72.5 44.5 q-23.5 35.5 -23.5 104.5 l0 252 l-69 0 l0 110 Z" /><glyph glyph-name="Uogonek" unicode="&#x172;" d="M440 700 l130 0 l0 -452 q0 -68 -18 -117 q-18 -49 -50 -81 q-30 -30 -73 -45 q-45 -31 -45 -73 q0 -13 5.5 -23.5 q5.5 -10.5 16.5 -16.5 q11 -6 26.5 -5.5 q15.5 0.5 35.5 10.5 l19 -62 q-15 -12 -47.5 -24 q-32.5 -12 -67.5 -12 q-56 0 -85.5 27.5 q-29.5 27.5 -29.5 68.5 q0 55 53 93 q-253 6 -253 243 l0 469 l137 0 l0 -442 q0 -41 7.5 -69.5 q7.5 -28.5 23.5 -46 q16 -17.5 40 -25 q24 -7.5 56 -7.5 q63 0 91 35 q28 35 28 113 l0 442 Z" /><glyph glyph-name="uogonek" unicode="&#x173;" d="M182 500 l0 -284 q0 -61 14.5 -88 q14.5 -27 56.5 -27 q37 0 61.5 22 q24.5 22 36.5 54 l0 323 l130 0 l0 -348 q0 -41 4 -80.5 q4 -39.5 12 -71.5 l-18 0 q-29 -10 -42.5 -28.5 q-13.5 -18.5 -13.5 -43.5 q1 -26 22.5 -38.5 q21.5 -12.5 61.5 7.5 l19 -62 q-15 -12 -47 -24 q-32 -12 -67 -12 q-57 0 -86.5 25.5 q-29.5 25.5 -29.5 66.5 q0 41 27 70 q27 29 74 45 l-21 68 l-4 0 q-23 -38 -64 -63 q-41 -25 -97 -25 q-38 0 -68 10 q-30 10 -50 33 q-20 23 -30.5 62 q-10.5 39 -10.5 98 l0 311 l130 0 Z" /><glyph glyph-name="longs" unicode="&#x17f;" d="M12 500 l69 0 l0 28 q0 95 40 137.5 q40 42.5 116 42.5 q45 0 76 -6.5 q31 -6.5 58 -17.5 l-26 -101 q-23 8 -40 11.5 q-17 3.5 -37 3.5 q-20 0 -31.5 -6 q-11.5 -6 -17 -18.5 q-5.5 -12.5 -7 -31 q-1.5 -18.5 -1.5 -42.5 l0 -500 l-130 0 l0 390 l-69 0 l0 110 Z" /><glyph glyph-name="florin" unicode="&#x192;" d="M342 390 l-71 -424 q-6 -37 -17.5 -68.5 q-11.5 -31.5 -32 -55 q-20.5 -23.5 -51 -37 q-30.5 -13.5 -74.5 -13.5 q-14 0 -34.5 2 q-20.5 2 -41.5 5 q-21 3 -40.5 7.5 q-19.5 4.5 -31.5 9.5 l21 105 q23 -10 44 -14.5 q21 -4.5 49 -4.5 q36 0 56 24.5 q20 24.5 29 81.5 l61 382 l-78 0 l0 110 l96 0 l11 67 q6 37 16.5 64.5 q10.5 27.5 29 46 q18.5 18.5 47.5 27.5 q29 9 72 9 q16 0 36.5 -2.5 q20.5 -2.5 41.5 -7 q21 -4.5 41 -10 q20 -5.5 35 -12.5 l-32 -97 q-49 19 -95 19 q-32 0 -44.5 -15.5 q-12.5 -15.5 -18.5 -55.5 l-5 -33 l119 0 l0 -110 l-138 0 Z" /><glyph glyph-name="uni0237" unicode="&#x237;" d="M69 500 l130 0 l0 -521 q0 -91 -36 -139 q-36 -48 -115 -48 q-30 0 -64 7 l0 109 q4 0 7 -0.5 q3 -0.5 6 -0.5 q45 0 58.5 29 q13.5 29 13.5 80 l0 484 Z" /><glyph glyph-name="circumflex" unicode="&#x2c6;" d="M183 732 l86 0 l111 -182 l-103 0 l-39 66 l-17 49 l-17 -49 l-45 -66 l-99 0 l123 182 Z" /><glyph glyph-name="caron" unicode="&#x2c7;" d="M266 550 l-91 0 l-115 182 l110 0 l39 -66 l16 -49 l18 49 l45 66 l101 0 l-123 -182 Z" /><glyph glyph-name="breve" unicode="&#x2d8;" d="M123 720 q17 -30 47.5 -44.5 q30.5 -14.5 64.5 -14.5 q34 0 62.5 15 q28.5 15 43.5 44 l60 -27 q-3 -24 -16.5 -47.5 q-13.5 -23.5 -35.5 -41.5 q-22 -18 -51.5 -29 q-29.5 -11 -63.5 -11 q-66 0 -113 33.5 q-47 33.5 -61 90.5 l63 32 Z" /><glyph glyph-name="dotaccent" unicode="&#x2d9;" d="M60 641 q0 29 21.5 49.5 q21.5 20.5 59.5 20.5 q38 0 61.5 -20.5 q23.5 -20.5 23.5 -49.5 q0 -29 -23.5 -48.5 q-23.5 -19.5 -61.5 -19.5 q-38 0 -59.5 19.5 q-21.5 19.5 -21.5 48.5 Z" /><glyph glyph-name="ring" unicode="&#x2da;" d="M60 647 q0 42 28.5 69 q28.5 27 82.5 27 q51 0 81 -24.5 q30 -24.5 30 -71.5 q0 -39 -29.5 -66.5 q-29.5 -27.5 -81.5 -27.5 q-53 0 -82 25.5 q-29 25.5 -29 68.5 ZM132 647 q0 -16 12 -24.5 q12 -8.5 27 -8.5 q17 0 28 8 q11 8 11 25 q0 17 -11.5 25.5 q-11.5 8.5 -27.5 8.5 q-15 0 -27 -8 q-12 -8 -12 -26 Z" /><glyph glyph-name="ogonek" unicode="&#x2db;" d="M263 10 q-76 -22 -76 -79 q0 -18 11 -30.5 q11 -12.5 31 -12.5 q18 0 42 12 l19 -62 q-15 -12 -47.5 -23.5 q-32.5 -11.5 -67.5 -11.5 q-56 0 -85.5 25 q-29.5 25 -29.5 66 q0 41 27.5 70 q27.5 29 75.5 46 l100 0 Z" /><glyph glyph-name="tilde" unicode="&#x2dc;" d="M60 658 q31 37 57.5 51 q26.5 14 50.5 14 q20 0 38.5 -7 q18.5 -7 36.5 -15 q18 -8 35 -15 q17 -7 35 -7 q14 0 28.5 6 q14.5 6 30.5 21 l20 -70 q-29 -32 -53.5 -44 q-24.5 -12 -47.5 -12 q-20 0 -39 6.5 q-19 6.5 -37 14.5 q-18 8 -36 14.5 q-18 6.5 -36 6.5 q-15 0 -31 -6.5 q-16 -6.5 -33 -22.5 l-19 65 Z" /><glyph glyph-name="hungarumlaut" unicode="&#x2dd;" d="M95 700 l119 0 l0 -16 l-76 -113 l-78 0 l35 129 ZM273 700 l126 0 l0 -16 l-118 -113 l-81 0 l73 129 Z" /><glyph glyph-name="Delta" unicode="&#x394;&#x2206;" d="M12 0 l0 71 l241 634 l79 0 l243 -634 l0 -71 l-563 0 ZM158 116 l270 0 l-112 298 l-23 100 l-5 0 l-24 -101 l-106 -297 Z" /><glyph glyph-name="Omega" unicode="&#x3a9;&#x2126;" d="M58 110 l105 0 l85 -13 l0 28 l-46 9 q-30 14 -56 37 q-26 23 -45.5 56 q-19.5 33 -30.5 75.5 q-11 42.5 -11 94.5 q0 73 23.5 131.5 q23.5 58.5 67 99.5 q43.5 41 104.5 63.5 q61 22.5 135 22.5 q78 0 139.5 -23.5 q61.5 -23.5 103.5 -65.5 q42 -42 64.5 -101 q22.5 -59 22.5 -131 q0 -52 -12 -93.5 q-12 -41.5 -31.5 -73.5 q-19.5 -32 -45 -54.5 q-25.5 -22.5 -52.5 -36.5 l-49 -10 l0 -28 l85 13 l106 0 l0 -110 l-300 0 l0 203 q26 4 53.5 17 q27.5 13 50 35.5 q22.5 22.5 37 56 q14.5 33.5 14.5 80.5 q0 37 -10 73 q-10 36 -32 64.5 q-22 28.5 -57.5 45.5 q-35.5 17 -87.5 17 q-89 0 -137 -51 q-48 -51 -48 -152 q0 -45 14 -78.5 q14 -33.5 36 -56 q22 -22.5 49.5 -35 q27.5 -12.5 54.5 -16.5 l0 -203 l-299 0 l0 110 Z" /><glyph glyph-name="pi" unicode="&#x3c0;" d="M566 156 q0 -28 9 -39 q9 -11 23 -11 q10 0 22.5 2 q12.5 2 21.5 4 l20 -90 q-20 -9 -51.5 -18.5 q-31.5 -9.5 -76.5 -9.5 q-56 0 -77 30 q-21 30 -21 82 l0 284 l-140 0 l0 -390 l-130 0 l0 390 l-14 0 q-18 0 -31.5 -10 q-13.5 -10 -25.5 -34 l-76 48 q19 51 56.5 78.5 q37.5 27.5 90.5 27.5 l483 0 l0 -110 l-83 0 l0 -234 Z" /><glyph glyph-name="afii10051" unicode="&#x402;" d="M353 0 l-137 0 l0 578 l-205 0 l0 122 l546 0 l0 -122 l-204 0 l0 -143 q16 6 50 14 q34 8 88 8 q39 0 76.5 -10 q37.5 -10 67.5 -35.5 q30 -25.5 48.5 -69 q18.5 -43.5 18.5 -110.5 q0 -116 -57 -177.5 q-57 -61.5 -184 -61.5 q-28 0 -41.5 1 q-13.5 1 -21.5 3 l0 117 q7 -2 23.5 -2.5 q16.5 -0.5 33.5 -0.5 q50 0 76.5 29 q26.5 29 26.5 86 q0 34 -9 55.5 q-9 21.5 -25 33.5 q-16 12 -38 16 q-22 4 -48 4 q-23 0 -48.5 -6 q-25.5 -6 -36.5 -12 l0 -317 Z" /><glyph glyph-name="afii10053" unicode="&#x404;" d="M549 29 q-15 -11 -37.5 -19.5 q-22.5 -8.5 -48 -13.5 q-25.5 -5 -52.5 -7.5 q-27 -2.5 -53 -2.5 q-65 0 -123 19.5 q-58 19.5 -101.5 63 q-43.5 43.5 -69.5 113 q-26 69.5 -26 168.5 q0 103 29 172.5 q29 69.5 75.5 112 q46.5 42.5 104 61 q57.5 18.5 115.5 18.5 q60 0 105 -8 q45 -8 72 -19 l-26 -119 q-23 11 -58.5 17.5 q-35.5 6.5 -80.5 6.5 q-35 0 -66.5 -10.5 q-31.5 -10.5 -56 -32.5 q-24.5 -22 -42 -55 q-17.5 -33 -24.5 -78 l275 0 l0 -112 l-278 0 q11 -89 62.5 -142.5 q51.5 -53.5 139.5 -53.5 q45 0 80 9 q35 9 57 22 l28 -110 Z" /><glyph glyph-name="afii10056" unicode="&#x407;" d="M19 792 q0 31 15.5 47.5 q15.5 16.5 44.5 16.5 q28 0 43.5 -16.5 q15.5 -16.5 15.5 -47.5 q0 -30 -15.5 -46 q-15.5 -16 -43.5 -16 q-29 0 -44.5 16 q-15.5 16 -15.5 46 ZM159 792 q0 31 15.5 47.5 q15.5 16.5 43.5 16.5 q29 0 44.5 -16.5 q15.5 -16.5 15.5 -47.5 q0 -30 -15.5 -46 q-15.5 -16 -44.5 -16 q-28 0 -43.5 16 q-15.5 16 -15.5 46 ZM79 700 l137 0 l0 -700 l-137 0 l0 700 Z" /><glyph glyph-name="afii10058" unicode="&#x409;" d="M426 578 l-149 0 q-4 -95 -9 -173 q-5 -78 -13.5 -140.5 q-8.5 -62.5 -22.5 -110.5 q-14 -48 -36 -83 q-14 -23 -31.5 -38 q-17.5 -15 -36.5 -24 q-19 -9 -37.5 -12.5 q-18.5 -3.5 -34.5 -3.5 q-23 0 -38.5 3.5 q-15.5 3.5 -30.5 10.5 l15 118 q6 -2 12 -3 q6 -1 12 -1 q16 0 31.5 8 q15.5 8 26.5 27 q15 22 26 64.5 q11 42.5 19.5 108.5 q8.5 66 13.5 157.5 q5 91.5 7 213.5 l413 0 l0 -251 q5 1 16.5 2.5 q11.5 1.5 25 2.5 q13.5 1 27.5 2 q14 1 26 1 q49 0 95 -10 q46 -10 81.5 -35.5 q35.5 -25.5 56.5 -69 q21 -43.5 21 -110.5 q0 -120 -74.5 -181 q-74.5 -61 -213.5 -61 q-12 0 -30 0.5 q-18 0.5 -39.5 1.5 q-21.5 1 -45.5 3 q-24 2 -46 5 l-37 0 l0 578 ZM631 112 q28 0 53 5.5 q25 5.5 44 19 q19 13.5 29.5 35.5 q10.5 22 10.5 54 q0 34 -11.5 55.5 q-11.5 21.5 -30 33.5 q-18.5 12 -43.5 16 q-25 4 -52 4 q-7 0 -17 -1 q-10 -1 -20 -2 q-10 -1 -18.5 -2.5 q-8.5 -1.5 -12.5 -2.5 l0 -209 q11 -3 29.5 -4.5 q18.5 -1.5 38.5 -1.5 Z" /><glyph glyph-name="afii10059" unicode="&#x40a;" d="M453 305 l-256 0 l0 -305 l-137 0 l0 700 l137 0 l0 -273 l256 0 l0 273 l137 0 l0 -266 q5 1 16.5 2.5 q11.5 1.5 25 2.5 q13.5 1 27.5 2 q14 1 26 1 q49 0 95 -9 q46 -9 81.5 -33 q35.5 -24 56.5 -66 q21 -42 21 -109 q0 -120 -74 -177.5 q-74 -57.5 -214 -57.5 q-14 0 -38 1 q-24 1 -51.5 2.5 q-27.5 1.5 -56.5 4 q-29 2.5 -52 5.5 l0 302 ZM658 112 q31 0 56.5 5 q25.5 5 43.5 17.5 q18 12.5 27.5 33 q9.5 20.5 9.5 51.5 q0 32 -10 51.5 q-10 19.5 -28 30.5 q-18 11 -43.5 15 q-25.5 4 -55.5 4 q-7 0 -17 -1 q-10 -1 -20 -2 q-10 -1 -18.5 -3 q-8.5 -2 -12.5 -3 l0 -193 q11 -3 29.5 -4.5 q18.5 -1.5 38.5 -1.5 Z" /><glyph glyph-name="afii10060" unicode="&#x40b;" d="M353 0 l-137 0 l0 578 l-205 0 l0 122 l546 0 l0 -122 l-204 0 l0 -177 q25 15 68.5 28 q43.5 13 103.5 13 q42 0 77 -11 q35 -11 60.5 -34 q25.5 -23 39.5 -60 q14 -37 14 -89 l0 -248 l-137 0 l0 206 q0 60 -24 89.5 q-24 29.5 -78 29.5 q-38 0 -71 -8.5 q-33 -8.5 -53 -25.5 l0 -291 Z" /><glyph glyph-name="afii10145" unicode="&#x40f;" d="M60 0 l0 700 l137 0 l0 -578 l245 0 l0 578 l137 0 l0 -700 l-200 0 l-15 -175 l-88 0 l-20 175 l-196 0 Z" /><glyph glyph-name="afii10018" unicode="&#x411;" d="M60 700 l431 0 l0 -122 l-294 0 l0 -146 q17 3 41.5 6 q24.5 3 48.5 3 q56 0 103 -11 q47 -11 80.5 -36.5 q33.5 -25.5 52.5 -67 q19 -41.5 19 -101.5 q0 -59 -19.5 -103 q-19.5 -44 -56 -73 q-36.5 -29 -88 -44 q-51.5 -15 -115.5 -15 q-17 0 -42.5 1 q-25.5 1 -54 3 q-28.5 2 -56.5 5 q-28 3 -50 8 l0 693 ZM273 103 q26 0 48.5 6.5 q22.5 6.5 39.5 20 q17 13.5 27 34.5 q10 21 10 51 q0 36 -11 58 q-11 22 -30 34.5 q-19 12.5 -43.5 16.5 q-24.5 4 -52.5 4 q-14 0 -35 -2.5 q-21 -2.5 -29 -4.5 l0 -213 q11 -3 33.5 -4 q22.5 -1 42.5 -1 Z" /><glyph glyph-name="afii10020" unicode="&#x413;" d="M467 578 l-270 0 l0 -578 l-137 0 l0 700 l407 0 l0 -122 Z" /><glyph glyph-name="afii10021" unicode="&#x414;" d="M674 -125 l-97 0 l-15 125 l-450 0 l-15 -125 l-97 0 l0 247 l74 0 q7 11 23 49 q16 38 32 107.5 q16 69.5 27 174 q11 104.5 10 247.5 l419 0 l0 -578 l89 0 l0 -247 ZM448 122 l0 456 l-155 0 q-6 -178 -28.5 -291.5 q-22.5 -113.5 -45.5 -164.5 l229 0 Z" /><glyph glyph-name="afii10024" unicode="&#x416;" d="M350 700 l130 0 l0 -311 l35 14 l145 297 l154 0 l-163 -307 l-47 -34 l57 -42 l184 -317 l-165 0 l-161 304 l-39 0 l0 -304 l-130 0 l0 316 l-36 -14 l-161 -302 l-160 0 l183 307 l54 39 l-52 37 l-171 317 l159 0 l145 -299 l39 0 l0 299 Z" /><glyph glyph-name="afii10025" unicode="&#x417;" d="M120 310 l0 107 l24 0 q9 0 22 0 q13 0 26.5 0.5 q13.5 0.5 26.5 2 q13 1.5 21 3.5 q35 8 60 28.5 q25 20.5 25 55.5 q0 48 -30.5 65.5 q-30.5 17.5 -80.5 17.5 q-45 0 -84 -12 q-39 -12 -59 -23 l-35 116 q11 6 31.5 13 q20.5 7 47 13.5 q26.5 6.5 57.5 10.5 q31 4 63 4 q44 0 86 -8 q42 -8 75 -28 q33 -20 53 -53.5 q20 -33.5 20 -85.5 q0 -52 -27.5 -96 q-27.5 -44 -88.5 -64 l0 -5 q65 -13 101.5 -56 q36.5 -43 36.5 -115 q0 -57 -23 -97.5 q-23 -40.5 -60.5 -66.5 q-37.5 -26 -86.5 -38.5 q-49 -12.5 -100 -12.5 q-66 0 -120 11 q-54 11 -83 26 l35 119 q23 -11 66 -22.5 q43 -11.5 102 -11.5 q22 0 44.5 5.5 q22.5 5.5 40.5 18 q18 12.5 29 32.5 q11 20 11 48 q0 47 -35 71 q-35 24 -125 26 q-12 1 -18 1 q-6 0 -21 0 l-27 0 Z" /><glyph glyph-name="afii10026" unicode="&#x418;" d="M468 388 l8 91 l-5 0 l-47 -94 l-261 -385 l-103 0 l0 700 l137 0 l0 -381 l-10 -94 l6 0 l49 97 l261 378 l102 0 l0 -700 l-137 0 l0 388 Z" /><glyph glyph-name="afii10029" unicode="&#x41b;" d="M426 578 l-149 0 q-4 -95 -9 -173 q-5 -78 -13.5 -140.5 q-8.5 -62.5 -22.5 -110.5 q-14 -48 -36 -83 q-14 -23 -31.5 -38 q-17.5 -15 -36.5 -24 q-19 -9 -37.5 -12.5 q-18.5 -3.5 -34.5 -3.5 q-23 0 -38.5 3.5 q-15.5 3.5 -30.5 10.5 l15 118 q6 -2 12 -3 q6 -1 12 -1 q16 0 31.5 8 q15.5 8 26.5 27 q15 22 26 64.5 q11 42.5 19.5 108.5 q8.5 66 13.5 157.5 q5 91.5 7 213.5 l413 0 l0 -700 l-137 0 l0 578 Z" /><glyph glyph-name="afii10033" unicode="&#x41f;" d="M442 578 l-245 0 l0 -578 l-137 0 l0 700 l519 0 l0 -700 l-137 0 l0 578 Z" /><glyph glyph-name="afii10037" unicode="&#x423;" d="M294 391 l20 -91 l6 0 l16 94 l105 306 l141 0 l-186 -484 q-22 -57 -42.5 -99 q-20.5 -42 -44 -69.5 q-23.5 -27.5 -52.5 -41 q-29 -13.5 -68 -13.5 q-33 0 -53.5 4.5 q-20.5 4.5 -44.5 19.5 l35 111 q17 -9 31 -11 q14 -2 30 -2 q47 0 66 74 l-262 511 l161 0 l142 -309 Z" /><glyph glyph-name="afii10038" unicode="&#x424;" d="M334 76 q-19 -3 -39 -4 q-20 -1 -43 -1 q-48 0 -89 16.5 q-41 16.5 -71.5 51 q-30.5 34.5 -48 87 q-17.5 52.5 -17.5 124.5 q0 68 17.5 121.5 q17.5 53.5 50 91 q32.5 37.5 77.5 57.5 q45 20 100 20 q13 0 32 -1 q19 -1 31 -4 l0 85 l134 0 l0 -88 q19 5 43.5 6.5 q24.5 1.5 39.5 1.5 q49 0 90 -17.5 q41 -17.5 71.5 -53 q30.5 -35.5 47.5 -88 q17 -52.5 16 -121.5 q1 -71 -18 -125 q-19 -54 -52 -90.5 q-33 -36.5 -76.5 -55 q-43.5 -18.5 -93.5 -18.5 q-16 0 -34.5 1.5 q-18.5 1.5 -33.5 5.5 l0 -98 l-134 0 l0 96 ZM519 530 q-10 -1 -27 -2 q-17 -1 -29 -4 l0 -340 q9 -2 21.5 -2 q12.5 0 23.5 -1 q28 1 52 11 q24 10 42 32 q18 22 28 55 q10 33 9 80 q1 80 -31 125 q-32 45 -89 46 ZM287 182 q8 0 24.5 0.5 q16.5 0.5 27.5 4.5 l0 339 q-10 2 -23 2.5 q-13 0.5 -24 0.5 q-55 0 -92 -42.5 q-37 -42.5 -37 -135.5 q0 -81 34 -125 q34 -44 90 -44 Z" /><glyph glyph-name="afii10040" unicode="&#x426;" d="M665 -125 l-97 0 l-15 125 l-493 0 l0 700 l137 0 l0 -578 l241 0 l0 578 l137 0 l0 -578 l90 0 l0 -247 Z" /><glyph glyph-name="afii10041" unicode="&#x427;" d="M183 700 l0 -222 q0 -60 23.5 -89.5 q23.5 -29.5 77.5 -29.5 q38 0 71.5 8.5 q33.5 8.5 53.5 25.5 l0 307 l137 0 l0 -700 l-137 0 l0 282 q-26 -15 -69.5 -27.5 q-43.5 -12.5 -103.5 -12.5 q-42 0 -76.5 10.5 q-34.5 10.5 -60 34 q-25.5 23.5 -39.5 60 q-14 36.5 -14 88.5 l0 265 l137 0 Z" /><glyph glyph-name="afii10042" unicode="&#x428;" d="M60 0 l0 700 l137 0 l0 -578 l165 0 l0 578 l137 0 l0 -578 l165 0 l0 578 l137 0 l0 -700 l-741 0 Z" /><glyph glyph-name="afii10043" unicode="&#x429;" d="M60 0 l0 700 l137 0 l0 -578 l165 0 l0 578 l137 0 l0 -578 l165 0 l0 578 l137 0 l0 -578 l92 0 l0 -247 l-96 0 l-15 125 l-722 0 Z" /><glyph glyph-name="afii10044" unicode="&#x42a;" d="M155 578 l-159 0 l0 122 l296 0 l0 -251 q5 1 16.5 2.5 q11.5 1.5 25 2.5 q13.5 1 28 2 q14.5 1 26.5 1 q49 0 94.5 -10 q45.5 -10 81 -35.5 q35.5 -25.5 56.5 -69 q21 -43.5 21 -110.5 q0 -120 -74 -181 q-74 -61 -214 -61 q-14 0 -38 0.5 q-24 0.5 -51.5 2.5 q-27.5 2 -56 5 q-28.5 3 -52.5 9 l0 571 ZM360 112 q28 0 53 5.5 q25 5.5 44 19 q19 13.5 29.5 35.5 q10.5 22 10.5 54 q0 34 -11.5 55.5 q-11.5 21.5 -30 33.5 q-18.5 12 -43.5 16 q-25 4 -52 4 q-7 0 -17 -1 q-10 -1 -20 -2 q-10 -1 -18.5 -2.5 q-8.5 -1.5 -12.5 -2.5 l0 -209 q11 -3 29.5 -4.5 q18.5 -1.5 38.5 -1.5 Z" /><glyph glyph-name="afii10045" unicode="&#x42b;" d="M600 700 l137 0 l0 -700 l-137 0 l0 700 ZM60 700 l137 0 l0 -251 q11 2 35 5 q24 3 47 3 q50 0 95.5 -10 q45.5 -10 79.5 -35.5 q34 -25.5 54 -69 q20 -43.5 20 -109.5 q0 -122 -71 -182.5 q-71 -60.5 -211 -60.5 q-14 0 -36 0.5 q-22 0.5 -47.5 2.5 q-25.5 2 -52.5 5 q-27 3 -50 9 l0 693 ZM256 112 q57 0 92.5 26.5 q35.5 26.5 35.5 88.5 q0 33 -10 54 q-10 21 -27 33 q-17 12 -40 16.5 q-23 4.5 -50 4.5 q-14 0 -33 -2.5 q-19 -2.5 -27 -5.5 l0 -209 q11 -3 26.5 -4.5 q15.5 -1.5 32.5 -1.5 Z" /><glyph glyph-name="afii10046" unicode="&#x42c;" d="M60 700 l137 0 l0 -251 q5 1 16.5 2.5 q11.5 1.5 25 2.5 q13.5 1 27.5 2 q14 1 26 1 q49 0 95 -10 q46 -10 81.5 -35.5 q35.5 -25.5 56.5 -69 q21 -43.5 21 -110.5 q0 -120 -74.5 -181 q-74.5 -61 -213.5 -61 q-14 0 -37.5 0.5 q-23.5 0.5 -51.5 2.5 q-28 2 -56.5 5 q-28.5 3 -52.5 9 l0 693 ZM265 112 q28 0 53 5.5 q25 5.5 44 19 q19 13.5 29.5 35.5 q10.5 22 10.5 54 q0 34 -11.5 55.5 q-11.5 21.5 -30 33.5 q-18.5 12 -43.5 16 q-25 4 -52 4 q-7 0 -17 -1 q-10 -1 -20 -2 q-10 -1 -18.5 -2.5 q-8.5 -1.5 -12.5 -2.5 l0 -209 q11 -3 29.5 -4.5 q18.5 -1.5 38.5 -1.5 Z" /><glyph glyph-name="afii10047" unicode="&#x42d;" d="M130 410 l269 0 q-3 40 -16.5 73.5 q-13.5 33.5 -36.5 57.5 q-23 24 -57 37.5 q-34 13.5 -77 13.5 q-54 0 -94 -11.5 q-40 -11.5 -65 -25.5 l-29 116 q35 18 88 30.5 q53 12.5 105 12.5 q69 0 127.5 -19 q58.5 -19 101 -62.5 q42.5 -43.5 66.5 -113 q24 -69.5 24 -169.5 q0 -104 -28 -174 q-28 -70 -75 -112 q-47 -42 -108 -60 q-61 -18 -127 -18 q-57 0 -103.5 10 q-46.5 10 -74.5 23 l36 119 q23 -11 62 -20.5 q39 -9.5 90 -9.5 q39 0 72 11 q33 11 58.5 34.5 q25.5 23.5 41.5 59.5 q16 36 20 87 l-270 0 l0 110 Z" /><glyph glyph-name="afii10048" unicode="&#x42e;" d="M197 415 l93 0 q13 143 84 221 q71 78 199 78 q76 0 130 -26 q54 -26 88.5 -74 q34.5 -48 51 -115 q16.5 -67 16.5 -149 q0 -175 -72 -269.5 q-72 -94.5 -214 -94.5 q-66 0 -116.5 22 q-50.5 22 -85.5 62 q-35 40 -55 97 q-20 57 -26 126 l-93 0 l0 -293 l-137 0 l0 700 l137 0 l0 -285 ZM430 350 q0 -53 7.5 -97.5 q7.5 -44.5 24 -76.5 q16.5 -32 44 -50 q27.5 -18 67.5 -18 q73 0 107.5 57 q34.5 57 34.5 185 q0 51 -6.5 95 q-6.5 44 -22.5 77 q-16 33 -43.5 51.5 q-27.5 18.5 -69.5 18.5 q-72 0 -107.5 -58.5 q-35.5 -58.5 -35.5 -183.5 Z" /><glyph glyph-name="afii10049" unicode="&#x42f;" d="M519 0 l-137 0 l0 277 l-72 -19 l-146 -258 l-159 0 l144 233 l60 43 q-32 8 -60 24.5 q-28 16.5 -49 42.5 q-21 26 -33 61.5 q-12 35.5 -12 80.5 q0 63 22 106 q22 43 61 69.5 q39 26.5 93 38 q54 11.5 117 11.5 q17 0 39 -1 q22 -1 45.5 -3 q23.5 -2 46 -5 q22.5 -3 40.5 -8 l0 -693 ZM331 588 q-27 0 -51 -5 q-24 -5 -42 -17 q-18 -12 -28.5 -33 q-10.5 -21 -10.5 -54 q0 -31 10 -52.5 q10 -21.5 28 -35 q18 -13.5 42 -19.5 q24 -6 52 -6 l51 0 l0 217 q-11 2 -22.5 3.5 q-11.5 1.5 -28.5 1.5 Z" /><glyph glyph-name="afii10066" unicode="&#x431;" d="M142 406 q29 44 68.5 63.5 q39.5 19.5 95.5 19.5 q91 0 144.5 -55.5 q53.5 -55.5 53.5 -172.5 q0 -135 -61 -205 q-61 -70 -172 -70 q-116 0 -177 77 q-61 77 -61 240 q0 86 10 147 q10 61 28.5 103 q18.5 42 44 67 q25.5 25 57 39.5 q31.5 14.5 67.5 20.5 q36 6 76 10 q52 5 89 12.5 q37 7.5 55 24.5 l5 -116 q-20 -17 -57 -23.5 q-37 -6.5 -100 -11.5 q-38 -2 -67 -9 q-29 -7 -50 -25 q-21 -18 -33.5 -50.5 q-12.5 -32.5 -18.5 -85.5 l3 0 ZM167 244 q0 -64 25 -106 q25 -42 77 -42 q54 0 77.5 38 q23.5 38 23.5 110 q0 65 -22 100 q-22 35 -73 35 q-55 0 -81.5 -36 q-26.5 -36 -26.5 -99 Z" /><glyph glyph-name="afii10067" unicode="&#x432;" d="M57 499 q35 3 84.5 6 q49.5 3 106.5 3 q110 0 156.5 -31.5 q46.5 -31.5 46.5 -94.5 q0 -35 -20 -68 q-20 -33 -63 -48 l0 -4 q54 -12 78 -42.5 q24 -30.5 24 -78.5 q0 -75 -57.5 -112 q-57.5 -37 -184.5 -37 q-42 0 -89 2.5 q-47 2.5 -82 6.5 l0 498 ZM184 100 q14 -2 26 -3 q12 -1 30 -1 q54 0 77 15 q23 15 23 46 q0 26 -19.5 42.5 q-19.5 16.5 -69.5 16.5 l-67 0 l0 -116 ZM253 296 q32 0 52.5 15.5 q20.5 15.5 20.5 39.5 q0 26 -17.5 39.5 q-17.5 13.5 -63.5 13.5 q-23 0 -36.5 -1 q-13.5 -1 -24.5 -2 l0 -105 l69 0 Z" /><glyph glyph-name="afii10068" unicode="&#x433;" d="M380 385 l-189 0 l0 -385 l-134 0 l0 500 l323 0 l0 -115 Z" /><glyph glyph-name="afii10069" unicode="&#x434;" d="M554 -114 l-95 0 l-15 114 l-336 0 l-15 -114 l-95 0 l0 229 l59 0 q8 11 20.5 37.5 q12.5 26.5 25 72.5 q12.5 46 21.5 114 q9 68 9 161 l348 0 l0 -385 l73 0 l0 -229 ZM351 109 l0 281 l-105 0 q-2 -36 -7 -76.5 q-5 -40.5 -12.5 -78.5 q-7.5 -38 -17.5 -71 q-10 -33 -22 -55 l164 0 Z" /><glyph glyph-name="afii10072" unicode="&#x436;" d="M242 203 l-102 -203 l-146 0 l131 229 l34 30 l-51 38 l-103 203 l139 0 l93 -203 l43 0 l0 203 l124 0 l0 -213 l38 14 l94 199 l138 0 l-109 -203 l-39 -32 l51 -40 l121 -225 l-149 0 l-102 207 l-43 0 l0 -207 l-124 0 l0 217 l-38 -14 Z" /><glyph glyph-name="afii10073" unicode="&#x437;" d="M109 207 l0 91 l61 0 q35 0 57.5 14 q22.5 14 22.5 37 q0 27 -20 38.5 q-20 11.5 -61 11.5 q-39 0 -69 -10 q-30 -10 -48 -21 l-28 99 q30 17 79.5 29.5 q49.5 12.5 105.5 12.5 q86 0 128.5 -32 q42.5 -32 42.5 -93 q0 -17 -4.5 -34.5 q-4.5 -17.5 -14.5 -33.5 q-10 -16 -24.5 -28.5 q-14.5 -12.5 -34.5 -19.5 l0 -4 q53 -12 75 -42.5 q22 -30.5 22 -81.5 q0 -32 -13 -59.5 q-13 -27.5 -39.5 -47.5 q-26.5 -20 -66.5 -32 q-40 -12 -95 -12 q-55 0 -95.5 11.5 q-40.5 11.5 -67.5 26.5 l28 101 q23 -13 55.5 -21 q32.5 -8 72.5 -8 q91 0 91 58 q0 26 -23.5 38 q-23.5 12 -87.5 12 l-49 0 Z" /><glyph glyph-name="afii10074" unicode="&#x438;" d="M358 228 l5 71 l-3 0 l-43 -73 l-178 -226 l-82 0 l0 500 l130 0 l0 -238 l-6 -68 l4 0 l41 71 l180 235 l82 0 l0 -500 l-130 0 l0 228 Z" /><glyph glyph-name="afii10076" unicode="&#x43a;" d="M222 207 l-35 0 l0 -207 l-130 0 l0 500 l130 0 l0 -213 l31 14 l117 199 l139 0 l-121 -190 l-51 -38 l56 -39 l135 -233 l-149 0 l-122 207 Z" /><glyph glyph-name="afii10077" unicode="&#x43b;" d="M329 385 l-99 0 q-6 -71 -14 -141 q-8 -70 -25.5 -125.5 q-17.5 -55.5 -47.5 -90 q-30 -34.5 -78 -34.5 q-58 0 -82 15 l16 108 q16 -6 30 -6 q20 0 35 17 q15 17 25.5 61 q10.5 44 17 119.5 q6.5 75.5 9.5 191.5 l343 0 l0 -500 l-130 0 l0 385 Z" /><glyph glyph-name="afii10078" unicode="&#x43c;" d="M485 229 l8 104 l-5 0 l-40 -86 l-94 -155 l-47 0 l-103 155 l-38 86 l-6 0 l13 -103 l0 -230 l-116 0 l0 500 l135 0 l115 -188 l28 -63 l4 0 l29 65 l106 186 l136 0 l0 -500 l-125 0 l0 229 Z" /><glyph glyph-name="afii10079" unicode="&#x43d;" d="M350 197 l-163 0 l0 -197 l-130 0 l0 500 l130 0 l0 -188 l163 0 l0 188 l130 0 l0 -500 l-130 0 l0 197 Z" /><glyph glyph-name="afii10081" unicode="&#x43f;" d="M345 385 l-158 0 l0 -385 l-130 0 l0 500 l418 0 l0 -500 l-130 0 l0 385 Z" /><glyph glyph-name="afii10084" unicode="&#x442;" d="M417 385 l-141 0 l0 -385 l-134 0 l0 385 l-141 0 l0 115 l416 0 l0 -115 Z" /><glyph glyph-name="afii10086" unicode="&#x444;" d="M286 -6 q-17 -6 -35.5 -7 q-18.5 -1 -33.5 -1 q-91 0 -140 65 q-49 65 -49 199 q0 128 54 194 q54 66 156 66 q28 0 48 -4 l0 194 l128 0 l0 -195 q18 3 32 4 q14 1 27 1 q99 0 149 -58.5 q50 -58.5 50 -191.5 q0 -63 -13.5 -113.5 q-13.5 -50.5 -39.5 -86.5 q-26 -36 -63.5 -55 q-37.5 -19 -86.5 -19 q-9 0 -26.5 1.5 q-17.5 1.5 -28.5 5.5 l0 -193 l-128 0 l0 194 ZM444 407 q-10 0 -17.5 -1.5 q-7.5 -1.5 -18.5 -3.5 l0 -310 q8 -2 18.5 -2.5 q10.5 -0.5 22.5 -0.5 q48 0 70.5 39.5 q22.5 39.5 22.5 131.5 q0 78 -22 112.5 q-22 34.5 -76 34.5 ZM251 89 q11 0 20.5 1.5 q9.5 1.5 20.5 3.5 l0 309 q-19 4 -39 4 q-46 0 -70.5 -35.5 q-24.5 -35.5 -24.5 -121.5 q0 -78 22.5 -119.5 q22.5 -41.5 70.5 -41.5 Z" /><glyph glyph-name="afii10088" unicode="&#x446;" d="M545 -114 l-95 0 l-15 114 l-378 0 l0 500 l130 0 l0 -385 l155 0 l0 385 l130 0 l0 -385 l73 0 l0 -229 Z" /><glyph glyph-name="afii10089" unicode="&#x447;" d="M163 500 l0 -114 q0 -31 2.5 -53.5 q2.5 -22.5 10 -37 q7.5 -14.5 21 -21.5 q13.5 -7 35.5 -7 q29 0 50.5 7 q21.5 7 35.5 17 l0 209 l130 0 l0 -500 l-130 0 l0 196 q-15 -11 -46 -24.5 q-31 -13.5 -83 -13.5 q-37 0 -66 8 q-29 8 -49 28 q-20 20 -30.5 53 q-10.5 33 -10.5 83 l0 170 l130 0 Z" /><glyph glyph-name="afii10090" unicode="&#x448;" d="M57 0 l0 500 l130 0 l0 -385 l125 0 l0 385 l130 0 l0 -385 l125 0 l0 385 l130 0 l0 -500 l-640 0 Z" /><glyph glyph-name="afii10091" unicode="&#x449;" d="M769 -114 l-94 0 l-15 114 l-603 0 l0 500 l130 0 l0 -385 l125 0 l0 385 l130 0 l0 -385 l125 0 l0 385 l130 0 l0 -385 l72 0 l0 -229 Z" /><glyph glyph-name="afii10092" unicode="&#x44a;" d="M235 109 q28 -6 57 -6 q48 0 70 16.5 q22 16.5 22 51.5 q0 65 -89 65 q-35 0 -60 -7 l0 -120 ZM235 322 q24 4 49 5.5 q25 1.5 45 1.5 q52 0 88 -11.5 q36 -11.5 58.5 -32.5 q22.5 -21 32.5 -49.5 q10 -28.5 10 -61.5 q0 -91 -54.5 -136 q-54.5 -45 -182.5 -45 q-57 0 -99 2 q-42 2 -77 5 l0 385 l-110 0 l0 115 l240 0 l0 -178 Z" /><glyph glyph-name="afii10093" unicode="&#x44b;" d="M187 109 q30 -6 57 -6 q45 0 63 16.5 q18 16.5 18 51.5 q0 32 -18 48.5 q-18 16.5 -60 16.5 q-33 0 -60 -7 l0 -120 ZM187 322 q24 4 48.5 5.5 q24.5 1.5 44.5 1.5 q51 0 85 -11.5 q34 -11.5 55 -32.5 q21 -21 30 -49.5 q9 -28.5 9 -61.5 q0 -45 -12 -79 q-12 -34 -39 -56.5 q-27 -22.5 -70 -34 q-43 -11.5 -106 -11.5 q-57 0 -98.5 2 q-41.5 2 -76.5 5 l0 500 l130 0 l0 -178 ZM516 500 l130 0 l0 -500 l-130 0 l0 500 Z" /><glyph glyph-name="afii10094" unicode="&#x44c;" d="M187 109 q30 -6 57 -6 q48 0 69.5 16.5 q21.5 16.5 21.5 51.5 q0 65 -88 65 q-33 0 -60 -7 l0 -120 ZM187 322 q24 4 48.5 5.5 q24.5 1.5 44.5 1.5 q52 0 88 -11.5 q36 -11.5 58.5 -32.5 q22.5 -21 32.5 -49.5 q10 -28.5 10 -61.5 q0 -91 -54 -136 q-54 -45 -183 -45 q-57 0 -98.5 2 q-41.5 2 -76.5 5 l0 500 l130 0 l0 -178 Z" /><glyph glyph-name="afii10095" unicode="&#x44d;" d="M109 300 l186 0 q-5 50 -33 77 q-28 27 -83 27 q-38 0 -67 -9 q-29 -9 -51 -21 l-35 94 q66 46 178 46 q112 0 167 -66.5 q55 -66.5 55 -197.5 q0 -132 -62 -198 q-62 -66 -170 -66 q-47 0 -95 9.5 q-48 9.5 -76 26.5 l32 102 q23 -13 54.5 -20.5 q31.5 -7.5 63.5 -7.5 q64 0 91 27 q27 27 32 84 l-187 0 l0 93 Z" /><glyph glyph-name="afii10096" unicode="&#x44e;" d="M480 -14 q-56 0 -95.5 15 q-39.5 15 -65 43 q-25.5 28 -39 68 q-13.5 40 -17.5 90 l-76 0 l0 -202 l-130 0 l0 500 l130 0 l0 -188 l77 0 q10 97 61.5 149.5 q51.5 52.5 156.5 52.5 q57 0 98 -19 q41 -19 68 -53.5 q27 -34.5 39.5 -83.5 q12.5 -49 12.5 -108 q0 -127 -54 -195.5 q-54 -68.5 -166 -68.5 ZM387 250 q0 -73 20.5 -113.5 q20.5 -40.5 72.5 -40.5 q46 0 66 34 q20 34 20 120 q0 77 -19 115.5 q-19 38.5 -70 38.5 q-46 0 -68 -35 q-22 -35 -22 -119 Z" /><glyph glyph-name="afii10097" unicode="&#x44f;" d="M321 189 l-60 -12 l-96 -177 l-155 0 l97 157 l49 37 q-49 8 -81 46.5 q-32 38.5 -32 96.5 q0 91 60.5 134 q60.5 43 185.5 43 q48 0 89.5 -5 q41.5 -5 72.5 -11 l0 -498 l-130 0 l0 189 ZM321 257 l0 138 q-11 5 -24 7 q-13 2 -25 2 q-45 0 -70 -19 q-25 -19 -25 -57 q0 -38 27.5 -56 q27.5 -18 80.5 -17 l36 2 Z" /><glyph glyph-name="afii10099" unicode="&#x452;" d="M-12 600 l74 0 l0 100 l130 0 l0 -100 l161 0 l0 -80 l-161 0 l0 -130 l4 0 q23 32 59 51 q36 19 90 19 q38 0 67 -10 q29 -10 48 -33 q19 -23 28.5 -62.5 q9.5 -39.5 9.5 -97.5 l0 -278 q0 -91 -36 -139 q-36 -48 -115 -48 q-30 0 -64 7 l0 109 q4 0 7.5 -0.5 q3.5 -0.5 7.5 -0.5 q43 0 56.5 24.5 q13.5 24.5 13.5 68.5 l0 230 q0 61 -16.5 88 q-16.5 27 -61.5 27 q-33 0 -61.5 -22 q-28.5 -22 -36.5 -57 l0 -266 l-130 0 l0 520 l-74 0 l0 80 Z" /><glyph glyph-name="afii10101" unicode="&#x454;" d="M435 31 q-30 -22 -75 -33.5 q-45 -11.5 -90 -11.5 q-60 0 -104 19 q-44 19 -72.5 53.5 q-28.5 34.5 -42.5 83.5 q-14 49 -14 108 q0 63 17 112 q17 49 48 83 q31 34 75 51.5 q44 17.5 98 17.5 q54 0 90 -9 q36 -9 63 -23 l-30 -106 q-23 11 -48.5 17 q-25.5 6 -54.5 6 q-47 0 -80.5 -24 q-33.5 -24 -43.5 -78 l196 0 l0 -88 l-197 0 q9 -48 41.5 -78 q32.5 -30 90.5 -30 q34 0 59 8.5 q25 8.5 44 20.5 l30 -99 Z" /><glyph glyph-name="afii10104" unicode="&#x457;" d="M21 642 q0 31 15.5 50.5 q15.5 19.5 47.5 19.5 q32 0 47.5 -19.5 q15.5 -19.5 15.5 -50.5 q0 -30 -15.5 -49.5 q-15.5 -19.5 -47.5 -19.5 q-32 0 -47.5 19.5 q-15.5 19.5 -15.5 49.5 ZM172 642 q0 31 15.5 50.5 q15.5 19.5 47.5 19.5 q32 0 47.5 -19.5 q15.5 -19.5 15.5 -50.5 q0 -30 -15.5 -49.5 q-15.5 -19.5 -47.5 -19.5 q-32 0 -47.5 19.5 q-15.5 19.5 -15.5 49.5 ZM93 500 l130 0 l0 -500 l-130 0 l0 500 Z" /><glyph glyph-name="afii10106" unicode="&#x459;" d="M459 322 q24 4 48.5 5.5 q24.5 1.5 44.5 1.5 q52 0 88 -11.5 q36 -11.5 58.5 -32.5 q22.5 -21 32.5 -49.5 q10 -28.5 10 -61.5 q0 -91 -54 -136 q-54 -45 -183 -45 q-57 0 -98.5 2 q-41.5 2 -76.5 5 l0 385 l-99 0 q-6 -71 -14 -141 q-8 -70 -25.5 -125.5 q-17.5 -55.5 -47.5 -90 q-30 -34.5 -78 -34.5 q-58 0 -82 15 l16 108 q16 -6 30 -6 q20 0 35 17 q15 17 25.5 61 q10.5 44 17 119.5 q6.5 75.5 9.5 191.5 l343 0 l0 -178 ZM519 236 q-35 0 -60 -7 l0 -121 q14 -3 28.5 -4 q14.5 -1 28.5 -1 q48 0 69.5 16.5 q21.5 16.5 21.5 51.5 q0 65 -88 65 Z" /><glyph glyph-name="afii10107" unicode="&#x45a;" d="M480 321 q24 4 49 5.5 q25 1.5 45 1.5 q52 0 88 -11.5 q36 -11.5 58.5 -32.5 q22.5 -21 32.5 -49 q10 -28 10 -61 q0 -91 -54.5 -136 q-54.5 -45 -182.5 -45 q-57 0 -99 2 q-42 2 -77 5 l0 199 l-163 0 l0 -199 l-130 0 l0 500 l130 0 l0 -186 l163 0 l0 186 l130 0 l0 -179 ZM480 109 q28 -6 57 -6 q48 0 70 16.5 q22 16.5 22 51.5 q0 64 -89 64 q-35 0 -60 -7 l0 -119 Z" /><glyph glyph-name="afii10108" unicode="&#x45b;" d="M-12 600 l74 0 l0 100 l130 0 l0 -100 l161 0 l0 -80 l-161 0 l0 -130 l4 0 q23 32 59 51 q36 19 90 19 q38 0 67 -10 q29 -10 48 -33 q19 -23 28.5 -62.5 q9.5 -39.5 9.5 -97.5 l0 -257 l-130 0 l0 230 q0 61 -16.5 88 q-16.5 27 -61.5 27 q-33 0 -61.5 -22 q-28.5 -22 -36.5 -57 l0 -266 l-130 0 l0 520 l-74 0 l0 80 Z" /><glyph glyph-name="afii10193" unicode="&#x45f;" d="M57 0 l0 500 l130 0 l0 -385 l158 0 l0 385 l130 0 l0 -500 l-148 0 l-15 -175 l-88 0 l-20 175 l-147 0 Z" /><glyph glyph-name="afii10146" unicode="&#x462;" d="M0 648 l142 0 l0 77 l137 0 l0 -77 l200 0 l0 -115 l-200 0 l0 -90 q5 1 16.5 2.5 q11.5 1.5 25 2.5 q13.5 1 27.5 2 q14 1 26 1 q49 0 95 -9.5 q46 -9.5 81.5 -34.5 q35.5 -25 56.5 -67 q21 -42 21 -108 q0 -120 -74.5 -181 q-74.5 -61 -213.5 -61 q-14 0 -37.5 0.5 q-23.5 0.5 -51.5 2.5 q-28 2 -56.5 5 q-28.5 3 -52.5 9 l0 526 l-142 0 l0 115 ZM347 112 q28 0 53 5.5 q25 5.5 44 19 q19 13.5 29.5 35.5 q10.5 22 10.5 54 q0 34 -11.5 55.5 q-11.5 21.5 -30 33.5 q-18.5 12 -43.5 16 q-25 4 -52 4 q-7 0 -17 -1 q-10 -1 -20 -2 q-10 -1 -18.5 -2.5 q-8.5 -1.5 -12.5 -2.5 l0 -209 q11 -3 29.5 -4.5 q18.5 -1.5 38.5 -1.5 Z" /><glyph glyph-name="afii10194" unicode="&#x463;" d="M-5 500 l110 0 l0 200 l130 0 l0 -200 l160 0 l0 -93 l-160 0 l0 -85 q24 4 49 5.5 q25 1.5 45 1.5 q52 0 88 -11.5 q36 -11.5 58.5 -32.5 q22.5 -21 32.5 -49.5 q10 -28.5 10 -61.5 q0 -91 -54.5 -136 q-54.5 -45 -182.5 -45 q-57 0 -99 2 q-42 2 -77 5 l0 407 l-110 0 l0 93 ZM235 109 q28 -6 57 -6 q48 0 70 16.5 q22 16.5 22 51.5 q0 65 -89 65 q-35 0 -60 -7 l0 -120 Z" /><glyph glyph-name="afii10147" unicode="&#x472;" d="M38 350 q0 175 77 269.5 q77 94.5 220 94.5 q75 0 131 -26 q56 -26 93 -74 q37 -48 55 -115 q18 -67 18 -149 q0 -175 -77.5 -269.5 q-77.5 -94.5 -219.5 -94.5 q-76 0 -132 26 q-56 26 -92.5 74 q-36.5 48 -54.5 115 q-18 67 -18 149 ZM488 407 q-8 89 -48 137 q-40 48 -105 48 q-29 0 -55 -10 q-26 -10 -46.5 -32 q-20.5 -22 -34 -57.5 q-13.5 -35.5 -17.5 -85.5 l306 0 ZM182 297 q8 -95 49 -142 q41 -47 104 -47 q29 0 55.5 9.5 q26.5 9.5 47 31 q20.5 21.5 34 57.5 q13.5 36 16.5 91 l-306 0 Z" /><glyph glyph-name="afii10195" unicode="&#x473;" d="M33 250 q0 127 62 195.5 q62 68.5 174 68.5 q60 0 104 -19 q44 -19 73 -53.5 q29 -34.5 43.5 -83.5 q14.5 -49 14.5 -108 q0 -127 -61.5 -195.5 q-61.5 -68.5 -173.5 -68.5 q-60 0 -104 19 q-44 19 -73.5 53.5 q-29.5 34.5 -44 83.5 q-14.5 49 -14.5 108 ZM370 289 q-8 60 -33.5 87.5 q-25.5 27.5 -67.5 27.5 q-19 0 -36 -6 q-17 -6 -30.5 -19.5 q-13.5 -13.5 -23 -35.5 q-9.5 -22 -12.5 -54 l203 0 ZM167 207 q6 -54 34 -82.5 q28 -28.5 68 -28.5 q38 0 66.5 24.5 q28.5 24.5 34.5 86.5 l-203 0 Z" /><glyph glyph-name="afii10148" unicode="&#x474;" d="M347 -5 l-98 0 l-262 705 l159 0 l140 -411 l18 -119 l4 0 l16 120 l69 229 q16 54 33 90.5 q17 36.5 38.5 58.5 q21.5 22 48.5 31.5 q27 9.5 63 9.5 q38 0 62 -6 q24 -6 45 -17 l-30 -116 q-17 9 -31.5 12 q-14.5 3 -30.5 3 q-23 0 -38 -17.5 q-15 -17.5 -28 -57.5 l-178 -515 Z" /><glyph glyph-name="afii10196" unicode="&#x475;" d="M289 -5 l-79 0 l-217 505 l151 0 l93 -262 l17 -77 l4 0 l15 79 l23 71 q17 54 32.5 92 q15.5 38 34 61.5 q18.5 23.5 42 34 q23.5 10.5 56.5 10.5 q24 0 46 -4.5 q22 -4.5 36 -12.5 l-18 -106 q-18 9 -34 9 q-17 0 -32.5 -14 q-15.5 -14 -31.5 -52 l-138 -334 Z" /><glyph glyph-name="uni048A" unicode="&#x48a;" d="M468 388 l8 91 l-5 0 l-47 -94 l-261 -385 l-103 0 l0 700 l137 0 l0 -381 l-10 -94 l6 0 l49 97 l261 378 l102 0 l0 -585 l117 0 l0 -31 l-96 -214 l-94 0 l45 130 l-109 0 l0 388 ZM260 874 q4 -32 23.5 -46 q19.5 -14 50.5 -14 q67 0 74 59 l111 -17 q-11 -63 -57.5 -92 q-46.5 -29 -128.5 -29 q-41 0 -75 6 q-34 6 -59.5 19.5 q-25.5 13.5 -42 36.5 q-16.5 23 -20.5 57 l124 20 Z" /><glyph glyph-name="uni048B" unicode="&#x48b;" d="M358 228 l5 71 l-3 0 l-43 -73 l-178 -226 l-82 0 l0 500 l130 0 l0 -238 l-6 -68 l4 0 l41 71 l180 235 l82 0 l0 -385 l107 0 l0 -31 l-96 -198 l-94 0 l45 114 l-92 0 l0 228 ZM219 704 q7 -39 23.5 -55 q16.5 -16 42.5 -16 q28 0 44.5 16 q16.5 16 22.5 54 l99 -25 q-12 -65 -59 -96.5 q-47 -31.5 -110 -31.5 q-31 0 -60 7 q-29 7 -52 22.5 q-23 15.5 -39 39.5 q-16 24 -22 59 l110 26 Z" /><glyph glyph-name="uni048D" unicode="&#x48d;" d="M-5 500 l110 0 l0 200 l130 0 l0 -200 l160 0 l0 -93 l-160 0 l0 -85 q24 4 49 5.5 q25 1.5 45 1.5 q52 0 88 -11.5 q36 -11.5 58.5 -32.5 q22.5 -21 32.5 -49.5 q10 -28.5 10 -61.5 q0 -91 -54.5 -136 q-54.5 -45 -182.5 -45 q-57 0 -99 2 q-42 2 -77 5 l0 407 l-110 0 l0 93 ZM235 109 q28 -6 57 -6 q48 0 70 16.5 q22 16.5 22 51.5 q0 65 -89 65 q-35 0 -60 -7 l0 -120 Z" /><glyph glyph-name="uni048E" unicode="&#x48e;" d="M60 693 q42 8 92.5 12.5 q50.5 4.5 100.5 4.5 q52 0 104.5 -8.5 q52.5 -8.5 94.5 -34 q42 -25.5 68.5 -71 q26.5 -45.5 26.5 -118.5 q0 -69 -25 -116 q-25 -47 -67 -76 l64 -91 l-79 -58 l-77 109 q-42 -9 -87 -9 q-5 0 -16 0 q-11 0 -23 0.5 q-12 0.5 -23.5 1.5 q-11.5 1 -16.5 2 l0 -241 l-137 0 l0 693 ZM303 478 l63 -92 q17 14 27 36.5 q10 22.5 10 57.5 q0 33 -12 54.5 q-12 21.5 -31.5 34.5 q-19.5 13 -44.5 18 q-25 5 -51 5 q-20 0 -38 -1.5 q-18 -1.5 -29 -3.5 l0 -227 q4 -1 12 -2 q8 -1 17 -1.5 q9 -0.5 17.5 -0.5 q8.5 0 12.5 0 q14 0 27 1 q13 1 26 4 l-58 83 l52 34 Z" /><glyph glyph-name="uni048F" unicode="&#x48f;" d="M57 500 l95 0 l15 -60 l4 0 q26 38 61.5 56 q35.5 18 86.5 18 q94 0 141 -59.5 q47 -59.5 47 -191.5 q0 -142 -70 -215 l47 -56 l-73 -61 l-55 67 q-18 -5 -37.5 -8.5 q-19.5 -3.5 -40.5 -3.5 q-31 0 -51 4.5 q-20 4.5 -40 14.5 l0 -205 l-130 0 l0 700 ZM294 193 l48 -60 q15 21 23 53.5 q8 32.5 8 79.5 q0 66 -22 102 q-22 36 -71 36 q-38 0 -59.5 -19 q-21.5 -19 -33.5 -57 l0 -208 q14 -11 30.5 -17.5 q16.5 -6.5 43.5 -6.5 q10 0 19.5 1 q9.5 1 17.5 4 l-47 57 l43 35 Z" /><glyph glyph-name="afii10050" unicode="&#x490;" d="M468 700 l-1 -122 l-270 0 l0 -578 l-137 0 l0 700 l298 0 l21 152 l88 0 l0 -152 l1 0 Z" /><glyph glyph-name="afii10098" unicode="&#x491;" d="M191 385 l0 -385 l-134 0 l0 500 l215 0 l21 152 l87 0 l0 -267 l-189 0 Z" /><glyph glyph-name="uni0492" unicode="&#x492;" d="M503 578 l-270 0 l0 -191 l224 0 l0 -93 l-224 0 l0 -294 l-137 0 l0 294 l-96 0 l0 93 l96 0 l0 313 l407 0 l0 -122 Z" /><glyph glyph-name="uni0493" unicode="&#x493;" d="M406 385 l-189 0 l0 -111 l162 0 l0 -80 l-162 0 l0 -194 l-134 0 l0 194 l-83 0 l0 80 l83 0 l0 226 l323 0 l0 -115 Z" /><glyph glyph-name="uni0494" unicode="&#x494;" d="M197 0 l-137 0 l0 700 l407 0 l0 -122 l-270 0 l0 -203 q16 6 49.5 14 q33.5 8 81.5 8 q42 0 81 -11.5 q39 -11.5 69.5 -40 q30.5 -28.5 49 -78 q18.5 -49.5 18.5 -125.5 q0 -129 -57 -199 q-57 -70 -184 -70 q-27 0 -40.5 1 q-13.5 1 -21.5 3 l0 118 q7 -2 23.5 -2.5 q16.5 -0.5 32.5 -0.5 q51 0 77 35 q26 35 26 109 q0 41 -9 68 q-9 27 -25 42.5 q-16 15.5 -38 22 q-22 6.5 -47 6.5 q-24 0 -49 -6 q-25 -6 -37 -12 l0 -257 Z" /><glyph glyph-name="uni0495" unicode="&#x495;" d="M187 0 l-130 0 l0 500 l318 0 l0 -115 l-188 0 l0 -126 q16 6 46 13.5 q30 7.5 78 7.5 q38 0 72.5 -11 q34.5 -11 60.5 -38 q26 -27 41 -73 q15 -46 15 -116 q0 -63 -11.5 -111 q-11.5 -48 -38.5 -80 q-27 -32 -70.5 -48 q-43.5 -16 -106.5 -16 q-28 0 -41.5 1.5 q-13.5 1.5 -21.5 3.5 l0 112 q8 -1 24.5 -1.5 q16.5 -0.5 32.5 -0.5 q98 0 98 132 q0 71 -26.5 101 q-26.5 30 -71.5 30 q-23 0 -45.5 -6 q-22.5 -6 -34.5 -12 l0 -147 Z" /><glyph glyph-name="uni0496" unicode="&#x496;" d="M350 700 l130 0 l0 -311 l35 14 l145 297 l154 0 l-163 -307 l-47 -34 l57 -42 l113 -195 l78 0 l0 -247 l-96 0 l-15 125 l-61 0 l-161 304 l-39 0 l0 -304 l-130 0 l0 316 l-36 -14 l-161 -302 l-160 0 l183 307 l54 39 l-52 37 l-171 317 l159 0 l145 -299 l39 0 l0 299 Z" /><glyph glyph-name="uni0497" unicode="&#x497;" d="M242 203 l-102 -203 l-146 0 l131 229 l34 30 l-51 38 l-103 203 l139 0 l93 -203 l43 0 l0 203 l124 0 l0 -213 l38 14 l94 199 l138 0 l-109 -203 l-39 -32 l51 -40 l59 -110 l84 0 l0 -229 l-95 0 l-15 114 l-61 0 l-102 207 l-43 0 l0 -207 l-124 0 l0 217 l-38 -14 Z" /><glyph glyph-name="uni0498" unicode="&#x498;" d="M120 310 l0 107 l24 0 q9 0 22 0 q13 0 26.5 0.5 q13.5 0.5 26.5 2 q13 1.5 21 3.5 q35 8 60 28.5 q25 20.5 25 55.5 q0 48 -30.5 65.5 q-30.5 17.5 -80.5 17.5 q-45 0 -84 -12 q-39 -12 -59 -23 l-35 116 q11 6 31.5 13 q20.5 7 47 13.5 q26.5 6.5 57.5 10.5 q31 4 63 4 q44 0 86 -8 q42 -8 75 -28 q33 -20 53 -53.5 q20 -33.5 20 -85.5 q0 -52 -27.5 -96 q-27.5 -44 -88.5 -64 l0 -5 q65 -13 101.5 -56 q36.5 -43 36.5 -115 q0 -49 -17.5 -85.5 q-17.5 -36.5 -46.5 -62.5 q-29 -26 -67.5 -41.5 q-38.5 -15.5 -81.5 -21.5 l-14 -165 l-88 0 l-19 164 q-45 5 -81 14 q-36 9 -58 20 l35 119 q23 -11 66 -22.5 q43 -11.5 102 -11.5 q22 0 44.5 5.5 q22.5 5.5 40.5 18 q18 12.5 29 32.5 q11 20 11 48 q0 47 -35 71 q-35 24 -125 26 q-12 1 -18 1 q-6 0 -21 0 l-27 0 Z" /><glyph glyph-name="uni0499" unicode="&#x499;" d="M109 207 l0 91 l61 0 q35 0 57.5 14.5 q22.5 14.5 22.5 37.5 q0 27 -19.5 38 q-19.5 11 -60.5 11 q-39 0 -69.5 -10.5 q-30.5 -10.5 -48.5 -21.5 l-28 100 q30 17 79.5 29.5 q49.5 12.5 105.5 12.5 q86 0 128.5 -32 q42.5 -32 42.5 -93 q0 -17 -4.5 -34.5 q-4.5 -17.5 -14.5 -33.5 q-10 -16 -24.5 -28.5 q-14.5 -12.5 -34.5 -19.5 l0 -4 q53 -12 75 -42.5 q22 -30.5 22 -81.5 q0 -51 -34 -90.5 q-34 -39.5 -106 -53.5 l-14 -171 l-88 0 l-19 167 q-38 4 -66.5 13.5 q-28.5 9.5 -49.5 21.5 l28 101 q23 -13 56 -21.5 q33 -8.5 73 -8.5 q90 0 90 58 q0 26 -23.5 38.5 q-23.5 12.5 -87.5 12.5 l-49 0 Z" /><glyph glyph-name="uni049A" unicode="&#x49a;" d="M233 299 l-36 0 l0 -299 l-137 0 l0 700 l137 0 l0 -310 l32 14 l193 296 l156 0 l-204 -294 l-54 -38 l56 -39 l146 -207 l106 0 l0 -247 l-96 0 l-15 125 l-77 0 l-207 299 Z" /><glyph glyph-name="uni049B" unicode="&#x49b;" d="M222 207 l-35 0 l0 -207 l-130 0 l0 500 l130 0 l0 -213 l31 14 l117 199 l139 0 l-121 -190 l-51 -38 l56 -39 l68 -118 l93 0 l0 -229 l-95 0 l-15 114 l-65 0 l-122 207 Z" /><glyph glyph-name="uni049C" unicode="&#x49c;" d="M251 299 l-54 0 l0 -299 l-137 0 l0 700 l137 0 l0 -310 l54 4 l0 133 l93 0 l0 -125 l22 2 l162 296 l148 0 l-171 -294 l-54 -38 l56 -39 l198 -329 l-159 0 l-176 299 l-26 0 l0 -127 l-93 0 l0 127 Z" /><glyph glyph-name="uni049D" unicode="&#x49d;" d="M229 207 l-42 0 l0 -207 l-130 0 l0 500 l130 0 l0 -213 l42 4 l0 120 l76 0 l0 -112 l22 2 l92 199 l136 0 l-96 -190 l-53 -38 l56 -39 l110 -233 l-144 0 l-97 207 l-26 0 l0 -118 l-76 0 l0 118 Z" /><glyph glyph-name="uni049E" unicode="&#x49e;" d="M0 643 l132 0 l0 57 l137 0 l0 -57 l93 0 l0 -93 l-93 0 l0 -160 l54 14 l177 296 l150 0 l-188 -294 l-64 -38 l61 -39 l222 -329 l-169 0 l-196 299 l-47 0 l0 -299 l-137 0 l0 539 l-132 0 l0 104 Z" /><glyph glyph-name="uni049F" unicode="&#x49f;" d="M-14 626 l82 0 l0 74 l130 0 l0 -74 l153 0 l0 -80 l-153 0 l0 -259 l30 14 l114 199 l143 0 l-120 -190 l-51 -38 l55 -39 l135 -233 l-149 0 l-122 207 l-35 0 l0 -207 l-130 0 l0 546 l-82 0 l0 80 Z" /><glyph glyph-name="uni04A0" unicode="&#x4a0;" d="M159 578 l-159 0 l0 122 l296 0 l0 -310 l32 14 l193 296 l156 0 l-204 -294 l-54 -38 l56 -39 l233 -329 l-169 0 l-207 299 l-36 0 l0 -299 l-137 0 l0 561 l0 17 Z" /><glyph glyph-name="uni04A1" unicode="&#x4a1;" d="M235 287 l32 14 l116 199 l140 0 l-121 -190 l-52 -38 l57 -39 l134 -233 l-149 0 l-121 207 l-36 0 l0 -207 l-130 0 l0 385 l-110 0 l0 115 l240 0 l0 -213 Z" /><glyph glyph-name="uni04A3" unicode="&#x4a3;" d="M350 197 l-163 0 l0 -197 l-130 0 l0 500 l130 0 l0 -188 l163 0 l0 188 l130 0 l0 -385 l78 0 l0 -229 l-95 0 l-15 114 l-98 0 l0 197 Z" /><glyph glyph-name="uni04A4" unicode="&#x4a4;" d="M860 578 l-270 0 l0 -578 l-137 0 l0 293 l-256 0 l0 -293 l-137 0 l0 700 l137 0 l0 -285 l256 0 l0 285 l407 0 l0 -122 Z" /><glyph glyph-name="uni04A5" unicode="&#x4a5;" d="M668 385 l-188 0 l0 -385 l-130 0 l0 197 l-163 0 l0 -197 l-130 0 l0 500 l130 0 l0 -188 l163 0 l0 188 l318 0 l0 -115 Z" /><glyph glyph-name="uni04A6" unicode="&#x4a6;" d="M579 228 l0 -228 l-137 0 l0 578 l-245 0 l0 -578 l-137 0 l0 700 l519 0 l0 -325 q16 6 49.5 14 q33.5 8 81.5 8 q42 0 81 -11.5 q39 -11.5 69.5 -40 q30.5 -28.5 49 -78 q18.5 -49.5 18.5 -125.5 q0 -129 -57 -199 q-57 -70 -184 -70 q-27 0 -40.5 1 q-13.5 1 -21.5 3 l0 118 q7 -2 23.5 -2.5 q16.5 -0.5 32.5 -0.5 q51 0 77 35 q26 35 26 109 q0 41 -9 68 q-9 27 -25 42.5 q-16 15.5 -38 22 q-22 6.5 -48 6.5 q-23 0 -48 -6 q-25 -6 -37 -12 l0 -29 Z" /><glyph glyph-name="uni04A7" unicode="&#x4a7;" d="M475 0 l-130 0 l0 385 l-158 0 l0 -385 l-130 0 l0 500 l418 0 l0 -241 q16 6 46 13.5 q30 7.5 78 7.5 q36 0 70 -11 q34 -11 60.5 -38 q26.5 -27 42.5 -73 q16 -46 16 -116 q0 -63 -12 -111 q-12 -48 -38.5 -80 q-26.5 -32 -70 -48 q-43.5 -16 -106.5 -16 q-28 0 -41.5 1.5 q-13.5 1.5 -21.5 3.5 l0 112 q8 -1 24.5 -1.5 q16.5 -0.5 32.5 -0.5 q98 0 98 132 q0 71 -26.5 101 q-26.5 30 -71.5 30 q-23 0 -46 -6 q-23 -6 -35 -12 l1 -147 Z" /><glyph glyph-name="uni04A8" unicode="&#x4a8;" d="M355 592 q-80 0 -126.5 -58 q-46.5 -58 -46.5 -176 q0 -58 17.5 -104.5 q17.5 -46.5 45.5 -78.5 q28 -32 63.5 -49.5 q35.5 -17.5 71.5 -17.5 q11 0 23.5 1 q12.5 1 20.5 5 q-23 15 -43.5 39.5 q-20.5 24.5 -35.5 57.5 q-15 33 -23.5 72.5 q-8.5 39.5 -8.5 83.5 q0 76 18.5 134 q18.5 58 52 98 q33.5 40 80.5 60.5 q47 20.5 105 20.5 q63 0 109.5 -21.5 q46.5 -21.5 76.5 -59.5 q30 -38 44.5 -89.5 q14.5 -51.5 14.5 -111.5 q0 -56 -13 -103.5 q-13 -47.5 -33.5 -84.5 q-20.5 -37 -45.5 -62.5 q-25 -25.5 -48 -37.5 q5 -1 11.5 -1.5 q6.5 -0.5 12.5 -0.5 q30 0 57 8.5 q27 8.5 46 21.5 l42 -107 q-22 -22 -56.5 -33.5 q-34.5 -11.5 -88.5 -11.5 q-20 0 -41 3 q-21 3 -41.5 9 q-20.5 6 -38 15 q-17.5 9 -30.5 21 q-33 -23 -73.5 -35.5 q-40.5 -12.5 -94.5 -12.5 q-81 0 -144 25 q-63 25 -107 72 q-44 47 -67 114.5 q-23 67.5 -23 152.5 q0 175 80.5 269.5 q80.5 94.5 236.5 94.5 l0 -122 ZM457 371 q0 -30 6.5 -61.5 q6.5 -31.5 20 -60.5 q13.5 -29 32.5 -53.5 q19 -24.5 45 -42.5 q23 16 43 40.5 q20 24.5 34.5 55 q14.5 30.5 23 67 q8.5 36.5 8.5 76.5 q0 34 -5 64.5 q-5 30.5 -17 53 q-12 22.5 -31.5 35.5 q-19.5 13 -48.5 13 q-51 0 -81 -46 q-30 -46 -30 -141 Z" /><glyph glyph-name="uni04A9" unicode="&#x4a9;" d="M272 404 q-56 -4 -81 -39.5 q-25 -35.5 -25 -110.5 q0 -36 10 -65 q10 -29 27 -50 q17 -21 41 -32 q24 -11 52 -11 q8 0 20 2 q12 2 19 7 q-27 20 -47 63 q-20 43 -20 100 q0 39 10 80 q10 41 33.5 74.5 q23.5 33.5 62.5 55.5 q39 22 96 22 q55 0 92.5 -17 q37.5 -17 60 -45.5 q22.5 -28.5 32.5 -66 q10 -37.5 10 -79.5 q0 -34 -9 -65 q-9 -31 -23 -57 q-14 -26 -32 -45.5 q-18 -19.5 -36 -30.5 q22 -9 50 -3.5 q28 5.5 47 23.5 l30 -89 q-20 -18 -48.5 -28.5 q-28.5 -10.5 -72.5 -10.5 q-41 0 -72 11.5 q-31 11.5 -52 30.5 q-32 -23 -72.5 -32.5 q-40.5 -9.5 -84.5 -9.5 q-62 0 -110 19 q-48 19 -81 53.5 q-33 34.5 -50 83.5 q-17 49 -17 108 q0 58 13 105 q13 47 42 81.5 q29 34.5 74.5 54.5 q45.5 20 110.5 23 l0 -110 ZM394 268 q0 -45 17.5 -81 q17.5 -36 47.5 -60 q32 21 52 62.5 q20 41.5 20 95.5 q0 45 -16.5 75 q-16.5 30 -48.5 30 q-22 0 -36 -10 q-14 -10 -22 -26.5 q-8 -16.5 -11 -38.5 q-3 -22 -3 -47 Z" /><glyph glyph-name="uni04AA" unicode="&#x4aa;" d="M534 29 q-24 -17 -58.5 -26.5 q-34.5 -9.5 -72.5 -13.5 l-14 -164 l-88 0 l-19 168 q-51 9 -95.5 34 q-44.5 25 -77.5 68.5 q-33 43.5 -52 106.5 q-19 63 -19 148 q0 103 28.5 172.5 q28.5 69.5 74 112 q45.5 42.5 101.5 61 q56 18.5 112 18.5 q60 0 101.5 -8 q41.5 -8 68.5 -19 l-27 -116 q-23 11 -54.5 16 q-31.5 5 -76.5 5 q-83 0 -133.5 -59 q-50.5 -59 -50.5 -183 q0 -54 12 -98.5 q12 -44.5 36.5 -76 q24.5 -31.5 61 -49 q36.5 -17.5 84.5 -17.5 q45 0 76 9 q31 9 54 23 l28 -112 Z" /><glyph glyph-name="uni04AB" unicode="&#x4ab;" d="M411 31 q-38 -27 -94 -38 l-14 -168 l-88 0 l-19 166 q-45 8 -76 30 q-31 22 -50.5 55.5 q-19.5 33.5 -28 77.5 q-8.5 44 -8.5 96 q0 127 57 195.5 q57 68.5 166 68.5 q55 0 88.5 -9 q33.5 -9 60.5 -23 l-31 -106 q-23 11 -45.5 17 q-22.5 6 -51.5 6 q-54 0 -82 -35.5 q-28 -35.5 -28 -113.5 q0 -32 7 -59 q7 -27 21 -47 q14 -20 36.5 -31.5 q22.5 -11.5 52.5 -11.5 q33 0 56 8.5 q23 8.5 41 20.5 l30 -99 Z" /><glyph glyph-name="uni04AC" unicode="&#x4ac;" d="M216 578 l-205 0 l0 122 l546 0 l0 -122 l-204 0 l0 -456 l87 0 l0 -247 l-96 0 l-15 125 l-113 0 l0 578 Z" /><glyph glyph-name="uni04AD" unicode="&#x4ad;" d="M142 385 l-141 0 l0 115 l416 0 l0 -115 l-141 0 l0 -270 l84 0 l0 -229 l-95 0 l-15 114 l-108 0 l0 385 Z" /><glyph glyph-name="uni04AF" unicode="&#x4af;" d="M-7 500 l151 0 l93 -297 l18 -93 l4 0 l14 95 l85 295 l140 0 l-181 -501 l0 -199 l-130 0 l0 199 l-194 501 Z" /><glyph glyph-name="uni04B0" unicode="&#x4b0;" d="M73 294 l137 0 l-212 406 l163 0 l128 -263 l14 -74 l5 0 l15 76 l124 261 l147 0 l-212 -406 l138 0 l0 -91 l-155 0 l0 -203 l-137 0 l0 203 l-155 0 l0 91 Z" /><glyph glyph-name="uni04B1" unicode="&#x4b1;" d="M67 0 l119 0 l-193 500 l151 0 l93 -297 l18 -93 l4 0 l14 95 l85 295 l140 0 l-181 -500 l120 0 l0 -80 l-120 0 l0 -120 l-130 0 l0 120 l-120 0 l0 80 Z" /><glyph glyph-name="uni04B2" unicode="&#x4b2;" d="M225 356 l-195 344 l165 0 l108 -202 l24 -71 l23 71 l113 202 l149 0 l-202 -337 l140 -241 l110 0 l0 -247 l-96 0 l-15 125 l-90 0 l-123 216 l-27 74 l-26 -74 l-124 -216 l-149 0 l215 356 Z" /><glyph glyph-name="uni04B3" unicode="&#x4b3;" d="M170 256 l-150 244 l155 0 l65 -107 l28 -70 l30 70 l68 107 l141 0 l-151 -240 l90 -145 l89 0 l0 -229 l-95 0 l-15 114 l-59 0 l-77 120 l-30 74 l-32 -74 l-77 -120 l-142 0 l162 256 Z" /><glyph glyph-name="uni04B4" unicode="&#x4b4;" d="M820 -125 l-97 0 l-15 125 l-493 0 l0 578 l-204 0 l0 122 l483 0 l0 -122 l-142 0 l0 -456 l241 0 l0 578 l137 0 l0 -578 l90 0 l0 -247 Z" /><glyph glyph-name="uni04B5" unicode="&#x4b5;" d="M631 -114 l-95 0 l-15 114 l-379 0 l0 385 l-141 0 l0 115 l376 0 l0 -115 l-105 0 l0 -270 l156 0 l0 385 l130 0 l0 -385 l73 0 l0 -229 Z" /><glyph glyph-name="uni04B6" unicode="&#x4b6;" d="M409 282 q-26 -15 -69.5 -27.5 q-43.5 -12.5 -103.5 -12.5 q-42 0 -76.5 10.5 q-34.5 10.5 -60 34 q-25.5 23.5 -39.5 60 q-14 36.5 -14 88.5 l0 265 l137 0 l0 -222 q0 -60 23.5 -89.5 q23.5 -29.5 77.5 -29.5 q38 0 71.5 8.5 q33.5 8.5 53.5 25.5 l0 307 l137 0 l0 -578 l87 0 l0 -247 l-96 0 l-15 125 l-113 0 l0 282 Z" /><glyph glyph-name="uni04B7" unicode="&#x4b7;" d="M163 500 l0 -114 q0 -31 2.5 -53.5 q2.5 -22.5 10 -37 q7.5 -14.5 21 -21.5 q13.5 -7 35.5 -7 q29 0 50.5 7 q21.5 7 35.5 17 l0 209 l130 0 l0 -385 l84 0 l0 -229 l-95 0 l-15 114 l-104 0 l0 196 q-15 -11 -46 -24.5 q-31 -13.5 -83 -13.5 q-37 0 -66 8 q-29 8 -49 28 q-20 20 -30.5 53 q-10.5 33 -10.5 83 l0 170 l130 0 Z" /><glyph glyph-name="uni04B8" unicode="&#x4b8;" d="M272 243 q-8 -1 -15 -1 q-7 0 -15 0 q-44 0 -80 10.5 q-36 10.5 -62 34 q-26 23.5 -40 60 q-14 36.5 -14 88.5 l0 265 l137 0 l0 -222 q0 -57 20.5 -86 q20.5 -29 68.5 -33 l0 118 l93 0 l0 -112 q25 5 46.5 11.5 q21.5 6.5 35.5 16.5 l0 307 l137 0 l0 -700 l-137 0 l0 282 q-27 -16 -82 -28 l0 -132 l-93 0 l0 121 Z" /><glyph glyph-name="uni04B9" unicode="&#x4b9;" d="M223 159 q-9 -1 -17.5 -1 q-8.5 0 -17.5 0 q-37 0 -66 8 q-29 8 -49 28 q-20 20 -30.5 53 q-10.5 33 -10.5 83 l0 170 l130 0 l0 -114 q0 -56 12 -84.5 q12 -28.5 49 -33.5 l0 118 l76 0 l0 -113 q34 6 51 18 l0 209 l130 0 l0 -500 l-130 0 l0 196 q-15 -11 -51 -22 l0 -115 l-76 0 l0 100 Z" /><glyph glyph-name="uni04BA" unicode="&#x4ba;" d="M423 0 l0 222 q0 60 -23.5 89.5 q-23.5 29.5 -77.5 29.5 q-38 0 -71.5 -8.5 q-33.5 -8.5 -53.5 -25.5 l0 -307 l-137 0 l0 700 l137 0 l0 -282 q26 15 69.5 27.5 q43.5 12.5 103.5 12.5 q42 0 76.5 -10.5 q34.5 -10.5 60 -34 q25.5 -23.5 39.5 -60 q14 -36.5 14 -88.5 l0 -265 l-137 0 Z" /><glyph glyph-name="uni04BC" unicode="&#x4bc;" d="M343 293 q3 -40 15.5 -74 q12.5 -34 35.5 -59 q23 -25 57.5 -38.5 q34.5 -13.5 81.5 -13.5 q45 0 82.5 13.5 q37.5 13.5 70.5 35.5 l35 -116 q-45 -26 -98 -40.5 q-53 -14.5 -115 -14.5 q-137 0 -215.5 78 q-78.5 78 -86.5 229 l-32 0 q-50 1 -83 13.5 q-33 12.5 -53.5 33.5 q-20.5 21 -29 48.5 q-8.5 27.5 -8.5 56.5 q2 49 24 76 l115 0 q-12 -14 -16.5 -31 q-4.5 -17 -3.5 -31 q0 -8 3 -18 q3 -10 12 -18 q9 -8 26 -13 q17 -5 46 -2 q4 69 24.5 125.5 q20.5 56.5 55.5 96.5 q35 40 86 62 q51 22 117 22 q134 0 200.5 -76.5 q66.5 -76.5 66.5 -222.5 q0 -28 -2.5 -58 q-2.5 -30 -7.5 -64 l-403 0 ZM622 408 q3 19 3 39 q0 31 -7.5 58.5 q-7.5 27.5 -24 48.5 q-16.5 21 -41.5 33.5 q-25 12.5 -59 12.5 q-73 0 -110 -49.5 q-37 -49.5 -40 -142.5 l279 0 Z" /><glyph glyph-name="uni04BD" unicode="&#x4bd;" d="M596 43 q-30 -24 -81.5 -40.5 q-51.5 -16.5 -109.5 -16.5 q-110 0 -166.5 59 q-56.5 59 -65.5 163 l-7 0 q-77 0 -118.5 35 q-41.5 35 -41.5 101 l0 7 q1 27 8 43 q7 16 21 33 l109 0 q-14 -12 -22 -28.5 q-8 -16.5 -8 -40.5 q0 -20 12.5 -34 q12.5 -14 49.5 -14 q14 102 75 153 q61 51 161 51 q38 0 74 -10 q36 -10 64 -33 q28 -23 45 -62 q17 -39 17 -97 q0 -21 -2.5 -45 q-2.5 -24 -7.5 -50 l-299 0 q3 -63 32 -95 q29 -32 95 -32 q41 0 73.5 12.5 q32.5 12.5 49.5 25.5 l43 -85 ZM410 410 q-51 0 -74.5 -30.5 q-23.5 -30.5 -28.5 -81.5 l184 0 q0 4 0.5 8 q0.5 4 0.5 8 q0 46 -20.5 71 q-20.5 25 -61.5 25 Z" /><glyph glyph-name="uni04BE" unicode="&#x4be;" d="M343 293 q3 -40 15.5 -74 q12.5 -34 35.5 -59 q23 -25 57.5 -38.5 q34.5 -13.5 81.5 -13.5 q45 0 82.5 13.5 q37.5 13.5 70.5 35.5 l35 -116 q-37 -21 -78 -34 q-41 -13 -88 -18 l-14 -164 l-88 0 l-19 168 q-104 19 -163 94.5 q-59 75.5 -65 205.5 l-32 0 q-50 1 -83 13.5 q-33 12.5 -53.5 33.5 q-20.5 21 -29 48.5 q-8.5 27.5 -8.5 56.5 q2 49 24 76 l115 0 q-12 -14 -16.5 -31 q-4.5 -17 -3.5 -31 q0 -8 3 -18 q3 -10 12 -18 q9 -8 26 -13 q17 -5 46 -2 q4 69 24.5 125.5 q20.5 56.5 55.5 96.5 q35 40 86 62 q51 22 117 22 q134 0 200.5 -76.5 q66.5 -76.5 66.5 -222.5 q0 -28 -2.5 -58 q-2.5 -30 -7.5 -64 l-403 0 ZM622 408 q3 19 3 39 q0 31 -7.5 58.5 q-7.5 27.5 -24 48.5 q-16.5 21 -41.5 33.5 q-25 12.5 -59 12.5 q-73 0 -110 -49.5 q-37 -49.5 -40 -142.5 l279 0 Z" /><glyph glyph-name="uni04BF" unicode="&#x4bf;" d="M596 43 q-23 -18 -56.5 -31.5 q-33.5 -13.5 -74.5 -20.5 l-14 -166 l-88 0 l-19 167 q-80 15 -121.5 71 q-41.5 56 -49.5 145 l-7 0 q-77 0 -118.5 35 q-41.5 35 -41.5 101 l0 7 q1 27 8 43 q7 16 21 33 l109 0 q-14 -12 -22 -28.5 q-8 -16.5 -8 -40.5 q0 -20 12.5 -34 q12.5 -14 49.5 -14 q14 102 75 153 q61 51 161 51 q38 0 74 -10 q36 -10 64 -33 q28 -23 45 -62 q17 -39 17 -97 q0 -21 -2.5 -45 q-2.5 -24 -7.5 -50 l-299 0 q3 -63 32 -95 q29 -32 95 -32 q41 0 73.5 12.5 q32.5 12.5 49.5 25.5 l43 -85 ZM410 410 q-51 0 -74.5 -30.5 q-23.5 -30.5 -28.5 -81.5 l184 0 q0 4 0.5 8 q0.5 4 0.5 8 q0 46 -20.5 71 q-20.5 25 -61.5 25 Z" /><glyph glyph-name="uni04C3" unicode="&#x4c3;" d="M424 76 q0 49 -10 90.5 q-10 41.5 -33 70.5 q-23 29 -59.5 45.5 q-36.5 16.5 -88.5 16.5 l-36 0 l0 -299 l-137 0 l0 700 l137 0 l0 -310 l32 14 l193 296 l156 0 l-197 -280 l-61 -40 l52 0 q48 -12 82.5 -34 q34.5 -22 56.5 -56 q22 -34 32.5 -82.5 q10.5 -48.5 10.5 -113.5 l0 -27 q0 -140 -56.5 -207 q-56.5 -67 -152.5 -67 q-29 0 -60 6 l0 111 l15 0 q63 0 93.5 39 q30.5 39 30.5 127 Z" /><glyph glyph-name="uni04C4" unicode="&#x4c4;" d="M338 27 q0 87 -28 128.5 q-28 41.5 -88 46.5 l-35 0 l0 -202 l-130 0 l0 500 l130 0 l0 -217 l31 14 l117 203 l139 0 l-122 -197 l-46 -32 l41 -2 q39 -11 62.5 -34 q23.5 -23 36.5 -53.5 q13 -30.5 17.5 -66 q4.5 -35.5 4.5 -70.5 l0 -17 q0 -123 -46.5 -180 q-46.5 -57 -131.5 -57 q-15 0 -31.5 1.5 q-16.5 1.5 -33.5 5.5 l0 110 q6 -1 12 -1.5 q6 -0.5 11 -0.5 q90 0 90 121 Z" /><glyph glyph-name="uni04C5" unicode="&#x4c5;" d="M426 578 l-149 0 q-4 -95 -9 -173 q-5 -78 -13.5 -140.5 q-8.5 -62.5 -22.5 -110.5 q-14 -48 -36 -83 q-14 -23 -31.5 -38 q-17.5 -15 -36.5 -24 q-19 -9 -37.5 -12.5 q-18.5 -3.5 -34.5 -3.5 q-23 0 -38.5 3.5 q-15.5 3.5 -30.5 10.5 l15 118 q6 -2 12 -3 q6 -1 12 -1 q16 0 31.5 8 q15.5 8 26.5 27 q15 22 26 64.5 q11 42.5 19.5 108.5 q8.5 66 13.5 157.5 q5 91.5 7 213.5 l413 0 l0 -585 l98 0 l0 -31 l-96 -214 l-94 0 l45 130 l-90 0 l0 578 Z" /><glyph glyph-name="uni04C6" unicode="&#x4c6;" d="M329 385 l-99 0 q-6 -71 -14 -141 q-8 -70 -25.5 -125.5 q-17.5 -55.5 -47.5 -90 q-30 -34.5 -78 -34.5 q-58 0 -82 15 l16 108 q16 -6 30 -6 q20 0 35 17 q15 17 25.5 61 q10.5 44 17 119.5 q6.5 75.5 9.5 191.5 l343 0 l0 -385 l95 0 l0 -31 l-96 -198 l-94 0 l45 114 l-80 0 l0 385 Z" /><glyph glyph-name="uni04C7" unicode="&#x4c7;" d="M590 -21 q0 -91 -36 -139 q-36 -48 -114 -48 q-14 0 -30.5 1.5 q-16.5 1.5 -33.5 5.5 l0 109 q4 0 7.5 -0.5 q3.5 -0.5 7.5 -0.5 q21 0 33.5 6 q12.5 6 19 18 q6.5 12 8 29.5 q1.5 17.5 1.5 39.5 l0 293 l-256 0 l0 -293 l-137 0 l0 700 l137 0 l0 -285 l256 0 l0 285 l137 0 l0 -721 Z" /><glyph glyph-name="uni04C8" unicode="&#x4c8;" d="M350 197 l-163 0 l0 -197 l-130 0 l0 500 l130 0 l0 -188 l163 0 l0 188 l130 0 l0 -521 q0 -91 -36 -139 q-36 -48 -115 -48 q-30 0 -64 7 l0 109 q4 0 7.5 -0.5 q3.5 -0.5 7.5 -0.5 q43 0 56.5 24.5 q13.5 24.5 13.5 68.5 l0 197 Z" /><glyph glyph-name="uni04C9" unicode="&#x4c9;" d="M453 293 l-256 0 l0 -293 l-137 0 l0 700 l137 0 l0 -285 l256 0 l0 285 l137 0 l0 -585 l103 0 l0 -31 l-96 -214 l-94 0 l45 130 l-95 0 l0 293 Z" /><glyph glyph-name="uni04CA" unicode="&#x4ca;" d="M350 197 l-163 0 l0 -197 l-130 0 l0 500 l130 0 l0 -188 l163 0 l0 188 l130 0 l0 -385 l101 0 l0 -31 l-96 -198 l-94 0 l45 114 l-86 0 l0 197 Z" /><glyph glyph-name="uni04CB" unicode="&#x4cb;" d="M183 700 l0 -222 q0 -60 23.5 -89.5 q23.5 -29.5 77.5 -29.5 q38 0 71.5 8.5 q33.5 8.5 53.5 25.5 l0 307 l137 0 l0 -700 l-112 0 l-15 -125 l-96 0 l0 247 l86 0 l0 160 q-26 -15 -69.5 -27.5 q-43.5 -12.5 -103.5 -12.5 q-42 0 -76.5 10.5 q-34.5 10.5 -60 34 q-25.5 23.5 -39.5 60 q-14 36.5 -14 88.5 l0 265 l137 0 Z" /><glyph glyph-name="uni04CC" unicode="&#x4cc;" d="M318 207 q-15 -11 -46 -22 q-31 -11 -83 -11 q-74 0 -115 38.5 q-41 38.5 -41 128.5 l0 159 l130 0 l0 -103 q0 -28 2.5 -49 q2.5 -21 10 -35.5 q7.5 -14.5 21 -21.5 q13.5 -7 35.5 -7 q29 0 50.5 7 q21.5 7 35.5 17 l0 192 l130 0 l0 -500 l-120 0 l-15 -114 l-95 0 l0 212 l100 0 l0 109 Z" /><glyph glyph-name="uni04CD" unicode="&#x4cd;" d="M603 363 l15 139 l-6 0 l-43 -112 l-149 -261 l-44 0 l-157 262 l-44 111 l-5 0 l20 -138 l0 -364 l-130 0 l0 700 l125 0 l187 -320 l33 -80 l4 0 l30 82 l177 318 l124 0 l0 -585 l116 0 l0 -31 l-96 -214 l-94 0 l45 130 l-108 0 l0 363 Z" /><glyph glyph-name="uni04CE" unicode="&#x4ce;" d="M485 229 l8 104 l-5 0 l-40 -86 l-94 -155 l-47 0 l-103 155 l-38 86 l-6 0 l13 -103 l0 -230 l-116 0 l0 500 l135 0 l115 -188 l28 -63 l4 0 l29 65 l106 186 l136 0 l0 -385 l105 0 l0 -31 l-96 -198 l-94 0 l45 114 l-85 0 l0 229 Z" /><glyph glyph-name="uni04D8" unicode="&#x4d8;" d="M184 296 q-3 -20 -3 -38 q0 -31 7.5 -59.5 q7.5 -28.5 23 -50.5 q15.5 -22 39.5 -35.5 q24 -13.5 58 -13.5 q70 0 107.5 50 q37.5 50 37.5 147 l-270 0 ZM455 409 q-6 87 -49 135 q-43 48 -133 48 q-52 0 -92 -15.5 q-40 -15.5 -63 -29.5 l-29 117 q15 9 37.5 18 q22.5 9 50 16 q27.5 7 58 11.5 q30.5 4.5 61.5 4.5 q69 0 124 -20.5 q55 -20.5 93.5 -65 q38.5 -44.5 58.5 -113.5 q20 -69 20 -165 q0 -85 -16.5 -152.5 q-16.5 -67.5 -52 -114.5 q-35.5 -47 -90 -72 q-54.5 -25 -130.5 -25 q-68 0 -118 22 q-50 22 -83 62 q-33 40 -49 96 q-16 56 -16 124 q0 28 2.5 57.5 q2.5 29.5 7.5 61.5 l408 0 Z" /><glyph glyph-name="afii10846" unicode="&#x4d9;" d="M50 457 q30 24 81.5 40.5 q51.5 16.5 109.5 16.5 q60 0 104 -19 q44 -19 72.5 -53.5 q28.5 -34.5 42.5 -83.5 q14 -49 14 -108 q0 -127 -62 -195.5 q-62 -68.5 -169 -68.5 q-39 0 -76.5 11 q-37.5 11 -67 36 q-29.5 25 -47.5 66.5 q-18 41.5 -18 101.5 q0 42 10 91 l303 0 q-5 62 -34.5 90 q-29.5 28 -95.5 28 q-41 0 -72.5 -14.5 q-31.5 -14.5 -48.5 -26.5 l-46 88 ZM242 90 q50 0 75.5 34.5 q25.5 34.5 26.5 86.5 l-189 0 q-5 -54 18.5 -87.5 q23.5 -33.5 68.5 -33.5 Z" /><glyph glyph-name="uni04E0" unicode="&#x4e0;" d="M222 108 q30 0 56 7 q26 7 45.5 21 q19.5 14 30.5 34 q11 20 11 47 q0 57 -44 80 q-44 23 -129 23 l-81 0 l0 58 l156 174 l45 43 l-59 -12 l-207 0 l0 117 l431 0 l0 -75 l-170 -188 l-45 -32 l0 -4 l46 10 q44 0 80.5 -12.5 q36.5 -12.5 62.5 -36.5 q26 -24 40.5 -60.5 q14.5 -36.5 14.5 -84.5 q0 -54 -19.5 -96.5 q-19.5 -42.5 -55.5 -72.5 q-36 -30 -86.5 -46 q-50.5 -16 -113.5 -16 q-22 0 -49 2.5 q-27 2.5 -54 7 q-27 4.5 -52 12 q-25 7.5 -42 17.5 l32 120 q14 -8 32.5 -14.5 q18.5 -6.5 39.5 -11.5 q21 -5 42.5 -8 q21.5 -3 41.5 -3 Z" /><glyph glyph-name="uni04E1" unicode="&#x4e1;" d="M191 -102 q59 0 96 28.5 q37 28.5 37 80.5 q0 111 -160 111 l-64 0 l0 53 l117 177 l54 49 l-73 -7 l-171 0 l0 110 l396 0 l0 -70 l-139 -185 l-40 -29 l0 -2 l31 3 q34 0 66.5 -13.5 q32.5 -13.5 57.5 -38.5 q25 -25 40 -61 q15 -36 15 -81 q0 -55 -19.5 -98.5 q-19.5 -43.5 -55 -74 q-35.5 -30.5 -85.5 -46.5 q-50 -16 -111 -16 q-45 0 -90 10 q-45 10 -83 32 l46 103 q27 -14 59.5 -24.5 q32.5 -10.5 75.5 -10.5 Z" /><glyph glyph-name="uni04F6" unicode="&#x4f6;" d="M467 578 l-270 0 l0 -456 l88 0 l0 -247 l-96 0 l-15 125 l-114 0 l0 700 l407 0 l0 -122 Z" /><glyph glyph-name="uni04F7" unicode="&#x4f7;" d="M57 500 l323 0 l0 -115 l-189 0 l0 -270 l90 0 l0 -229 l-95 0 l-15 114 l-114 0 l0 500 Z" /><glyph glyph-name="uni04FC" unicode="&#x4fc;" d="M452 -21 q0 34 -15 66 q-15 32 -29 55 l-71 116 l-28 74 l-26 -74 l-124 -216 l-149 0 l215 356 l-195 344 l165 0 l108 -202 l24 -71 l23 71 l113 202 l149 0 l-202 -337 l130 -213 q25 -39 39 -83 q14 -44 14 -87 q0 -91 -40.5 -139 q-40.5 -48 -121.5 -48 q-15 0 -31.5 1.5 q-16.5 1.5 -33.5 5.5 l0 109 q4 0 7.5 -0.5 q3.5 -0.5 7.5 -0.5 q43 0 57 21 q14 21 14 50 Z" /><glyph glyph-name="uni04FD" unicode="&#x4fd;" d="M443 128 q22 -32 37 -74 q15 -42 15 -79 q0 -88 -38 -135.5 q-38 -47.5 -118 -47.5 q-31 0 -65 7 l0 104 q5 -1 9.5 -1 q4.5 0 9.5 0 q42 0 57.5 18 q15.5 18 14.5 48 q0 27 -12.5 53.5 q-12.5 26.5 -26.5 47.5 l-34 51 l-34 72 l-31 -72 l-77 -120 l-142 0 l162 256 l-150 244 l155 0 l65 -107 l28 -70 l30 70 l68 107 l141 0 l-151 -240 l87 -132 Z" /><glyph glyph-name="uni0510" unicode="&#x510;" d="M384 310 q-15 0 -21 0 q-6 0 -18 -1 q-88 -2 -124.5 -28 q-36.5 -26 -36.5 -72 q0 -26 10.5 -45 q10.5 -19 28 -31.5 q17.5 -12.5 41 -18.5 q23.5 -6 50.5 -6 q51 0 92.5 12.5 q41.5 12.5 64.5 23.5 l37 -108 q-14 -9 -35.5 -17.5 q-21.5 -8.5 -48.5 -16 q-27 -7.5 -57.5 -12 q-30.5 -4.5 -63.5 -4.5 q-60 0 -108.5 12.5 q-48.5 12.5 -83 38 q-34.5 25.5 -53 65 q-18.5 39.5 -18.5 93.5 q0 73 35.5 117.5 q35.5 44.5 100.5 57.5 l0 5 q-58 22 -86 66 q-28 44 -28 96 q0 48 19.5 81.5 q19.5 33.5 53 54.5 q33.5 21 77 30 q43.5 9 91.5 9 q29 0 58.5 -4 q29.5 -4 55 -10.5 q25.5 -6.5 46 -14 q20.5 -7.5 31.5 -14.5 l-36 -109 q-25 11 -63 20.5 q-38 9.5 -74 9.5 q-55 0 -85 -18 q-30 -18 -30 -60 q0 -20 8 -35 q8 -15 20.5 -26 q12.5 -11 29 -18 q16.5 -7 34.5 -10 q17 -5 44 -5.5 q27 -0.5 45 -0.5 l24 0 l0 -107 l-27 0 Z" /><glyph glyph-name="uni0511" unicode="&#x511;" d="M274 207 q-32 0 -53.5 -3 q-21.5 -3 -34.5 -9.5 q-13 -6.5 -18 -16 q-5 -9.5 -5 -22.5 q0 -26 22.5 -41.5 q22.5 -15.5 67.5 -15.5 q40 0 73 9 q33 9 56 23 l28 -101 q-26 -15 -67 -28 q-41 -13 -96 -13 q-110 0 -162 42.5 q-52 42.5 -52 108.5 q0 51 23.5 80.5 q23.5 29.5 73.5 43.5 l0 4 q-40 14 -59 45.5 q-19 31.5 -19 66.5 q0 64 46 96.5 q46 32.5 125 32.5 q62 0 108.5 -12.5 q46.5 -12.5 76.5 -29.5 l-28 -99 q-18 11 -48.5 21 q-30.5 10 -69.5 10 q-41 0 -60.5 -11 q-19.5 -11 -19.5 -38 q0 -23 22.5 -37.5 q22.5 -14.5 57.5 -14.5 l61 0 l0 -91 l-49 0 Z" /><glyph glyph-name="uni0512" unicode="&#x512;" d="M574 -21 q0 -91 -36 -139 q-36 -48 -114 -48 q-14 0 -30.5 1.5 q-16.5 1.5 -33.5 5.5 l0 109 q5 0 8.5 -0.5 q3.5 -0.5 7.5 -0.5 q21 0 33 6 q12 6 18 17.5 q6 11.5 8 29 q2 17.5 2 40.5 l0 578 l-149 0 q-4 -95 -9.5 -173 q-5.5 -78 -15 -140.5 q-9.5 -62.5 -24 -110.5 q-14.5 -48 -35.5 -83 q-15 -23 -32 -38 q-17 -15 -35 -24 q-18 -9 -36 -12.5 q-18 -3.5 -34 -3.5 q-23 0 -44 4 q-21 4 -36 11 l22 117 q13 -5 27 -5 q15 0 30.5 8 q15.5 8 28.5 28 q15 22 26 64.5 q11 42.5 19.5 108.5 q8.5 66 13.5 157.5 q5 91.5 7 213.5 l413 0 l0 -721 Z" /><glyph glyph-name="uni0513" unicode="&#x513;" d="M329 385 l-99 0 q-6 -71 -14 -141 q-8 -70 -25.5 -125.5 q-17.5 -55.5 -47.5 -90 q-30 -34.5 -78 -34.5 q-58 0 -82 15 l16 108 q16 -6 30 -6 q20 0 35 17 q15 17 25.5 61 q10.5 44 17 119.5 q6.5 75.5 9.5 191.5 l343 0 l0 -521 q0 -91 -36 -139 q-36 -48 -115 -48 q-30 0 -64 7 l0 109 q4 0 7.5 -0.5 q3.5 -0.5 7.5 -0.5 q43 0 56.5 24.5 q13.5 24.5 13.5 68.5 l0 385 Z" /><glyph glyph-name="uni051C" unicode="&#x51c;" d="M242 309 l13 -124 l4 0 l14 126 l122 389 l90 0 l120 -391 l14 -124 l4 0 l15 126 l85 389 l139 0 l-193 -705 l-92 0 l-125 389 l-17 107 l-5 0 l-17 -108 l-124 -388 l-97 0 l-192 705 l149 0 l93 -391 Z" /><glyph glyph-name="uni051D" unicode="&#x51d;" d="M419 500 l91 -256 l18 -83 l4 0 l14 84 l64 255 l119 0 l-154 -505 l-96 0 l-101 280 l-13 63 l-5 0 l-12 -64 l-96 -279 l-99 0 l-161 505 l141 0 l73 -251 l12 -89 l5 0 l17 90 l83 250 l96 0 Z" /><glyph glyph-name="uni0524" unicode="&#x524;" d="M442 578 l-245 0 l0 -578 l-137 0 l0 700 l519 0 l0 -578 l87 0 l0 -247 l-96 0 l-15 125 l-113 0 l0 578 Z" /><glyph glyph-name="uni0525" unicode="&#x525;" d="M345 385 l-158 0 l0 -385 l-130 0 l0 500 l418 0 l0 -385 l83 0 l0 -229 l-95 0 l-15 114 l-103 0 l0 385 Z" /><glyph glyph-name="uni0526" unicode="&#x526;" d="M423 222 q0 60 -23.5 89.5 q-23.5 29.5 -77.5 29.5 q-38 0 -71.5 -8.5 q-33.5 -8.5 -53.5 -25.5 l0 -307 l-137 0 l0 700 l137 0 l0 -282 q26 15 69.5 27.5 q43.5 12.5 103.5 12.5 q42 0 76.5 -10.5 q34.5 -10.5 60 -34 q25.5 -23.5 39.5 -60 q14 -36.5 14 -88.5 l0 -143 l88 0 l0 -247 l-96 0 l-15 125 l-114 0 l0 222 Z" /><glyph glyph-name="uni1E9E" unicode="&#x1e9e;" d="M419 570 q-18 16 -48.5 25 q-30.5 9 -67.5 9 q-35 0 -56 -12.5 q-21 -12.5 -32 -35 q-11 -22.5 -14.5 -54 q-3.5 -31.5 -3.5 -69.5 l0 -433 l-137 0 l0 478 q0 57 13 100.5 q13 43.5 42.5 73.5 q29.5 30 76 45.5 q46.5 15.5 112.5 15.5 q51 0 91.5 -7.5 q40.5 -7.5 74 -21 q33.5 -13.5 61.5 -31 q28 -17.5 55 -37.5 l-135 -179 l-35 -29 l0 -5 l35 8 q81 -6 129.5 -55 q48.5 -49 48.5 -139 q0 -108 -61.5 -169.5 q-61.5 -61.5 -179.5 -61.5 q-14 0 -34 2 q-20 2 -40.5 6 q-20.5 4 -38.5 9 q-18 5 -28 10 l27 114 q10 -5 24 -8.5 q14 -3.5 28.5 -5.5 q14.5 -2 28.5 -3.5 q14 -1.5 25 -1.5 q50 0 77.5 27.5 q27.5 27.5 27.5 79.5 q0 55 -37 80 q-37 25 -113 25 l-50 0 l0 83 l134 167 Z" /><glyph glyph-name="endash" unicode="&#x2013;" d="M109 346 l442 0 l0 -115 l-442 0 l0 115 Z" /><glyph glyph-name="emdash" unicode="&#x2014;" d="M109 346 l602 0 l0 -115 l-602 0 l0 115 Z" /><glyph glyph-name="quoteleft" unicode="&#x2018;" d="M185 618 q0 -29 -19.5 -46.5 q-19.5 -17.5 -48.5 -17.5 q-37 0 -58 23.5 q-21 23.5 -21 62.5 q0 40 12.5 68 q12.5 28 30 46.5 q17.5 18.5 36.5 29 q19 10.5 33 15.5 l32 -54 q-20 -8 -34 -25.5 q-14 -17.5 -16 -37.5 q20 0 36.5 -17.5 q16.5 -17.5 16.5 -46.5 Z" /><glyph glyph-name="quoteright" unicode="&#x2019;" d="M38 644 q0 29 19.5 47 q19.5 18 49.5 18 q36 0 57 -24 q21 -24 21 -63 q0 -40 -12.5 -68 q-12.5 -28 -30 -46.5 q-17.5 -18.5 -37 -29 q-19.5 -10.5 -32.5 -15.5 l-33 55 q20 9 35.5 24 q15.5 15 17.5 38 q-20 -1 -37.5 15.5 q-17.5 16.5 -17.5 48.5 Z" /><glyph glyph-name="dagger" unicode="&#x2020;" d="M40 513 l116 0 l52 -16 l-16 54 l0 149 l124 0 l0 -149 l-15 -54 l51 16 l117 0 l0 -112 l-119 0 l-49 16 l15 -50 l0 -367 l-16 -200 l-92 0 l-16 201 l0 366 l16 50 l-52 -16 l-116 0 l0 112 Z" /><glyph glyph-name="daggerdbl" unicode="&#x2021;" d="M192 371 l16 45 l-52 -15 l-116 0 l0 112 l116 0 l52 -15 l-16 50 l0 152 l124 0 l0 -152 l-15 -50 l51 15 l117 0 l0 -112 l-119 0 l-49 15 l15 -45 l0 -84 l-15 -45 l49 15 l119 0 l0 -112 l-117 0 l-51 15 l15 -50 l0 -110 l-17 -200 l-90 0 l-17 201 l0 109 l16 50 l-52 -15 l-116 0 l0 112 l116 0 l52 -15 l-16 45 l0 84 Z" /><glyph glyph-name="bullet" unicode="&#x2022;" d="M73 311 q0 34 12 62 q12 28 33 48 q21 20 48.5 31.5 q27.5 11.5 58.5 11.5 q32 0 60 -10.5 q28 -10.5 48.5 -30 q20.5 -19.5 32.5 -48 q12 -28.5 12 -64.5 q0 -36 -12 -64 q-12 -28 -32.5 -47.5 q-20.5 -19.5 -48.5 -30 q-28 -10.5 -60 -10.5 q-31 0 -58.5 10.5 q-27.5 10.5 -48.5 30 q-21 19.5 -33 47.5 q-12 28 -12 64 Z" /><glyph glyph-name="guilsinglleft" unicode="&#x2039;" d="M29 259 l160 230 l75 -62 l-83 -126 l-48 -41 l48 -36 l91 -122 l-77 -64 l-166 221 Z" /><glyph glyph-name="guilsinglright" unicode="&#x203a;" d="M278 268 l-160 -230 l-76 61 l84 127 l48 41 l-48 36 l-92 123 l78 63 l166 -221 Z" /><glyph glyph-name="fraction" unicode="&#x2044;" d="M266 715 l85 -50 l-430 -679 l-86 53 l431 676 Z" /><glyph glyph-name="uni2081" unicode="&#x2081;" d="M72 0 l97 0 l0 164 l10 46 l-30 -32 l-59 -39 l-49 77 l158 111 l85 0 l0 -327 l88 0 l0 -100 l-300 0 l0 100 Z" /><glyph glyph-name="uni2082" unicode="&#x2082;" d="M348 200 q0 -59 -30 -101 q-30 -42 -72 -80 l-47 -25 l0 -4 l59 11 l106 0 l0 -101 l-313 0 l0 71 q26 18 58 42 q32 24 59.5 51.5 q27.5 27.5 46 56.5 q18.5 29 18.5 55 q0 49 -56 49 q-27 0 -51 -8.5 q-24 -8.5 -42 -19.5 l-34 90 q35 21 74.5 30.5 q39.5 9.5 75.5 9.5 q71 0 109.5 -32.5 q38.5 -32.5 38.5 -94.5 Z" /><glyph glyph-name="uni2083" unicode="&#x2083;" d="M169 -12 q44 0 62.5 14 q18.5 14 19.5 37 q-1 23 -20 36 q-19 13 -70 13 l-42 0 l0 38 l73 80 l43 25 l-58 -6 l-115 0 l0 95 l283 0 l0 -62 l-87 -92 l-34 -18 l0 -5 l30 3 q52 -2 81.5 -31.5 q29.5 -29.5 30.5 -83.5 q-1 -36 -15.5 -62 q-14.5 -26 -39 -43 q-24.5 -17 -57.5 -25 q-33 -8 -68 -8 q-39 0 -72.5 6.5 q-33.5 6.5 -57.5 17.5 l23 90 q41 -19 90 -19 Z" /><glyph glyph-name="uni2084" unicode="&#x2084;" d="M402 -22 l-76 0 l0 -78 l-101 0 l0 78 l-207 0 l0 67 l218 283 l90 0 l0 -261 l76 0 l0 -89 ZM225 153 l6 53 l-5 0 l-22 -49 l-48 -66 l-36 -32 l52 8 l53 0 l0 86 Z" /><glyph glyph-name="Euro" unicode="&#x20ac;" d="M34 475 l62 0 q15 66 43.5 111 q28.5 45 66.5 73.5 q38 28.5 83.5 41.5 q45.5 13 94.5 13 q52 0 92.5 -8 q40.5 -8 67.5 -19 l-35 -103 q-22 9 -51 13.5 q-29 4.5 -68 4.5 q-60 0 -103 -30 q-43 -30 -65 -97 l259 0 l-26 -93 l-249 0 q-1 -8 -1 -15.5 q0 -7.5 0 -16.5 l0 -26 l230 0 l-26 -93 l-188 0 q20 -66 63.5 -99.5 q43.5 -33.5 115.5 -33.5 q42 0 72.5 9 q30.5 9 54.5 23 l27 -101 q-15 -11 -36 -19.5 q-21 -8.5 -44 -13.5 q-23 -5 -47 -7.5 q-24 -2.5 -46 -2.5 q-110 0 -185.5 58.5 q-75.5 58.5 -101.5 186.5 l-92 0 l32 93 l49 0 l0 26 q0 8 0 16 q0 8 1 16 l-82 0 l32 93 Z" /><glyph glyph-name="uni20B4" unicode="&#x20b4;" d="M495 321 l0 -93 l-249 0 q-14 -14 -24.5 -37 q-10.5 -23 -10.5 -43 q0 -26 22 -41.5 q22 -15.5 76 -15.5 q53 0 84.5 9.5 q31.5 9.5 53.5 21.5 l29 -98 q-25 -14 -70 -26 q-45 -12 -127 -12 q-94 0 -144 36 q-50 36 -50 108 q0 16 3.5 31.5 q3.5 15.5 9 29 q5.5 13.5 11 22.5 q5.5 9 9.5 15 l-73 0 l0 93 l450 0 ZM45 378 l0 93 l250 0 q15 14 26 37 q11 23 11 45 q0 56 -80 56 q-40 0 -68.5 -8.5 q-28.5 -8.5 -52.5 -20.5 l-37 98 q16 8 32.5 14.5 q16.5 6.5 36.5 11.5 q20 5 47.5 7.5 q27.5 2.5 66.5 2.5 q88 0 134 -33 q46 -33 46 -101 q0 -32 -12.5 -62.5 q-12.5 -30.5 -27.5 -46.5 l78 0 l0 -93 l-450 0 Z" /><glyph glyph-name="uni20B6" unicode="&#x20b6;" d="M23 364 l79 0 l0 329 q42 8 87 12.5 q45 4.5 95 4.5 q52 0 100 -9 q48 -9 84 -33 q36 -24 57.5 -66 q21.5 -42 21.5 -108 q0 -61 -21 -103 q-21 -42 -56 -68.5 q-35 -26.5 -80 -38 q-45 -11.5 -94 -11.5 l-68 0 l0 -58 l160 0 l0 -91 l-160 0 l0 -124 l-126 0 l0 124 l-79 0 l0 91 l79 0 l0 58 l-79 0 l0 91 ZM228 367 l52 0 q27 0 51.5 6.5 q24.5 6.5 42.5 20.5 q18 14 28.5 37.5 q10.5 23.5 10.5 56.5 q0 61 -33 86.5 q-33 25.5 -85 25.5 q-20 0 -38 -1.5 q-18 -1.5 -29 -3.5 l0 -228 Z" /><glyph glyph-name="afii61289" unicode="&#x2113;" d="M406 30 q-22 -14 -57.5 -28 q-35.5 -14 -70.5 -14 q-63 0 -91.5 30.5 q-28.5 30.5 -28.5 95.5 l0 104 l-50 -44 l-35 44 l85 74 l0 254 q0 44 10 75.5 q10 31.5 27.5 51.5 q17.5 20 41 29.5 q23.5 9.5 50.5 9.5 q48 0 79 -29.5 q31 -29.5 31 -89.5 q0 -74 -40 -157 q-40 -83 -131 -171 l0 -140 q0 -44 17 -60.5 q17 -16.5 41 -16.5 q25 0 55 10.5 q30 10.5 50 21.5 l17 -50 ZM333 588 q0 34 -14 49 q-14 15 -32 15 q-12 0 -23 -3.5 q-11 -3.5 -19.5 -14 q-8.5 -10.5 -13.5 -29 q-5 -18.5 -5 -48.5 l0 -212 q56 65 81.5 125.5 q25.5 60.5 25.5 117.5 Z" /><glyph glyph-name="afii61352" unicode="&#x2116;" d="M655 321 l314 0 l0 -111 l-314 0 l0 111 ZM234 362 l-55 113 l-5 0 l16 -110 l0 -365 l-130 0 l0 705 l100 0 l250 -370 l52 -110 l6 0 l-16 107 l0 368 l130 0 l0 -705 l-99 0 l-249 367 ZM634 542 q0 45 13 77 q13 32 36 53 q23 21 55.5 30.5 q32.5 9.5 70.5 9.5 q38 0 70 -9 q32 -9 55.5 -29 q23.5 -20 36.5 -52.5 q13 -32.5 13 -79.5 q0 -47 -13 -79.5 q-13 -32.5 -36.5 -52.5 q-23.5 -20 -55.5 -29 q-32 -9 -70 -9 q-38 0 -70.5 9 q-32.5 9 -55.5 29 q-23 20 -36 52.5 q-13 32.5 -13 79.5 ZM750 542 q0 -86 59 -86 q31 0 44.5 18.5 q13.5 18.5 13.5 67.5 q0 48 -13.5 67 q-13.5 19 -44.5 19 q-31 0 -45 -19 q-14 -19 -14 -67 Z" /><glyph glyph-name="trademark" unicode="&#x2122;" d="M395 590 l-118 0 l0 -250 l-130 0 l0 250 l-118 0 l0 110 l366 0 l0 -110 ZM800 484 l17 103 l-6 0 l-36 -85 l-68 -117 l-78 0 l-68 114 l-39 88 l-5 0 l23 -102 l0 -145 l-111 0 l0 360 l130 0 l91 -150 l24 -63 l1 0 l25 65 l84 148 l129 0 l0 -360 l-113 0 l0 144 Z" /><glyph glyph-name="estimated" unicode="&#x212e;" d="M157 259 l0 -181 q62 -59 145 -59 q124 0 193 120 l35 -21 q-43 -66 -99 -100.5 q-56 -34.5 -129 -34.5 q-59 0 -107 21.5 q-48 21.5 -81.5 58.5 q-33.5 37 -51.5 87.5 q-18 50.5 -18 108.5 q0 59 18.5 109.5 q18.5 50.5 52.5 87.5 q34 37 81.5 58 q47.5 21 105.5 21 q62 0 109.5 -22 q47.5 -22 80.5 -59.5 q33 -37.5 50 -87.5 q17 -50 19 -107 l-404 0 ZM448 295 l0 145 q-63 60 -147 60 q-86 0 -144 -60 l0 -145 l291 0 Z" /><glyph glyph-name="partialdiff" unicode="&#x2202;" d="M276 503 q21 0 36 -2 q15 -2 26 -5.5 q11 -3.5 20 -8 q9 -4.5 17 -9.5 l5 0 q-5 39 -25 65 q-20 26 -48.5 42 q-28.5 16 -62.5 22.5 q-34 6.5 -68 6.5 q-8 0 -14.5 0 q-6.5 0 -13.5 -1 l22 101 q8 1 16.5 1 q8.5 0 16.5 0 q66 0 123 -15 q57 -15 98.5 -50 q41.5 -35 65.5 -94 q24 -59 24 -146 q0 -112 -21.5 -192 q-21.5 -80 -59.5 -131.5 q-38 -51.5 -90.5 -76 q-52.5 -24.5 -114.5 -24.5 q-99 0 -154.5 54.5 q-55.5 54.5 -55.5 148.5 q0 57 15.5 113 q15.5 56 47 101 q31.5 45 80.5 72.5 q49 27.5 115 27.5 ZM284 393 q-57 0 -94.5 -53 q-37.5 -53 -37.5 -146 q0 -41 21.5 -69.5 q21.5 -28.5 65.5 -28.5 q41 0 68 23 q27 23 43.5 60 q16.5 37 23 84 q6.5 47 6.5 94 q-18 17 -40 26.5 q-22 9.5 -56 9.5 Z" /><glyph glyph-name="product" unicode="&#x220f;" d="M463 578 l-266 0 l0 -778 l-137 0 l0 900 l533 0 l0 -900 l-130 0 l0 778 Z" /><glyph glyph-name="summation" unicode="&#x2211;" d="M183 -38 l-42 -40 l360 0 l0 -122 l-481 0 l0 122 l186 292 l42 34 l-46 37 l-182 293 l0 122 l481 0 l0 -122 l-348 0 l46 -41 l172 -281 l-188 -294 Z" /><glyph glyph-name="minus" unicode="&#x2212;" d="M43 394 l442 0 l0 -112 l-442 0 l0 112 Z" /><glyph glyph-name="radical" unicode="&#x221a;" d="M187 475 l79 -186 l22 -115 l4 0 l18 117 l120 409 l125 0 l-230 -705 l-67 0 l-151 369 l-112 0 l0 111 l192 0 Z" /><glyph glyph-name="infinity" unicode="&#x221e;" d="M417 265 q-36 -58 -87 -86 q-51 -28 -113 -28 q-36 0 -69 13.5 q-33 13.5 -58 39 q-25 25.5 -40 62 q-15 36.5 -15 82.5 q0 48 15 86 q15 38 40.5 64.5 q25.5 26.5 60.5 40 q35 13.5 76 13.5 q74 0 124 -29.5 q50 -29.5 87 -74.5 q45 56 96 80 q51 24 112 24 q37 0 69 -13.5 q32 -13.5 56 -38.5 q24 -25 37.5 -61.5 q13.5 -36.5 13.5 -82.5 q0 -49 -15 -87 q-15 -38 -42 -64.5 q-27 -26.5 -64 -40 q-37 -13.5 -80 -13.5 q-36 0 -66 9 q-30 9 -54.5 24.5 q-24.5 15.5 -45 36 q-20.5 20.5 -38.5 44.5 ZM620 262 q35 0 57.5 25.5 q22.5 25.5 22.5 65.5 q0 16 -5 32 q-5 16 -15 28.5 q-10 12.5 -25.5 20 q-15.5 7.5 -36.5 7.5 q-31 0 -64 -18.5 q-33 -18.5 -62 -56.5 q11 -21 25 -39.5 q14 -18.5 30.5 -33 q16.5 -14.5 35 -23 q18.5 -8.5 37.5 -8.5 ZM237 441 q-34 0 -57.5 -26.5 q-23.5 -26.5 -23.5 -65.5 q0 -38 25 -62.5 q25 -24.5 62 -24.5 q32 0 65 22.5 q33 22.5 57 55.5 q-23 45 -54.5 73 q-31.5 28 -73.5 28 Z" /><glyph glyph-name="integral" unicode="&#x222b;" d="M247 -34 q0 -96 -39 -135 q-39 -39 -117 -39 q-46 0 -87.5 7 q-41.5 7 -65.5 17 l29 102 q44 -17 84 -17 q38 0 52 23.5 q14 23.5 14 78.5 l0 535 q0 96 36.5 136 q36.5 40 117.5 40 q18 0 38.5 -2 q20.5 -2 40.5 -5.5 q20 -3.5 38 -8 q18 -4.5 31 -9.5 l-22 -102 q-23 8 -42.5 12.5 q-19.5 4.5 -46.5 4.5 q-35 0 -48 -20.5 q-13 -20.5 -13 -74.5 l0 -543 Z" /><glyph glyph-name="notequal" unicode="&#x2260;" d="M43 490 l232 0 l50 113 l113 0 l-50 -113 l97 0 l0 -112 l-147 0 l-36 -80 l183 0 l0 -112 l-232 0 l-57 -129 l-112 0 l57 129 l-98 0 l0 112 l147 0 l36 80 l-183 0 l0 112 Z" /><glyph glyph-name="lessequal" unicode="&#x2264;" d="M483 80 l-56 -96 l-382 215 l56 96 l382 -215 ZM34 413 l0 70 l386 231 l57 -90 l-224 -139 l-91 -35 l90 -31 l230 -137 l-57 -90 l-391 221 Z" /><glyph glyph-name="greaterequal" unicode="&#x2265;" d="M488 205 l-381 -221 l-56 95 l380 222 l57 -96 ZM488 493 l0 -70 l-386 -231 l-57 90 l224 139 l91 35 l-90 31 l-230 137 l57 90 l391 -221 Z" /><glyph glyph-name="lozenge" unicode="&#x25ca;" d="M299 -5 l-75 0 l-197 347 l197 363 l75 0 l201 -358 l-201 -352 ZM298 201 l80 133 l-91 157 l-27 84 l-5 0 l-28 -86 l-78 -134 l90 -156 l28 -84 l4 0 l27 86 Z" /><glyph glyph-name="uni2C67" unicode="&#x2c67;" d="M453 293 l-256 0 l0 -293 l-137 0 l0 700 l137 0 l0 -285 l256 0 l0 285 l137 0 l0 -578 l88 0 l0 -247 l-96 0 l-15 125 l-114 0 l0 293 Z" /><glyph glyph-name="uni2C68" unicode="&#x2c68;" d="M493 115 l80 0 l0 -229 l-95 0 l-15 114 l-100 0 l0 284 q0 61 -17 88 q-17 27 -62 27 q-33 0 -60.5 -22.5 q-27.5 -22.5 -36.5 -57.5 l0 -319 l-130 0 l0 700 l130 0 l0 -256 l4 0 q24 32 59 51 q35 19 89 19 q38 0 67 -10 q29 -10 48.5 -33 q19.5 -23 29 -62.5 q9.5 -39.5 9.5 -97.5 l0 -196 Z" /><glyph glyph-name="uniF406" unicode="&#xf406;" d="M112 875 q20 -26 58 -40 q38 -14 85 -14 q48 0 82.5 15 q34.5 15 54.5 39 l49 -32 q-12 -29 -32 -50 q-20 -21 -45 -35 q-25 -14 -53.5 -21 q-28.5 -7 -56.5 -7 q-27 0 -55.5 6 q-28.5 6 -54.5 18.5 q-26 12.5 -48 33 q-22 20.5 -36 50.5 l52 37 Z" /><glyph glyph-name="uniF408" unicode="&#xf408;" d="M193 870 l96 0 l127 -93 l0 -39 l-99 0 l-57 41 l-20 34 l-21 -33 l-62 -42 l-97 0 l0 40 l133 92 Z" /><glyph glyph-name="uniF40B" unicode="&#xf40b;" d="M60 799 q0 25 21.5 43 q21.5 18 64.5 18 q43 0 66 -18 q23 -18 23 -43 q0 -26 -23 -44 q-23 -18 -66 -18 q-43 0 -64.5 18 q-21.5 18 -21.5 44 Z" /><glyph glyph-name="uniF40C" unicode="&#xf40c;" d="M60 772 q0 18 6 34.5 q6 16.5 20.5 29 q14.5 12.5 39 19.5 q24.5 7 62.5 7 q70 0 99 -24 q29 -24 29 -66 q0 -18 -6.5 -34 q-6.5 -16 -21.5 -27.5 q-15 -11.5 -39.5 -18.5 q-24.5 -7 -60.5 -7 q-71 0 -99.5 24.5 q-28.5 24.5 -28.5 62.5 ZM144 772 q0 -31 44 -31 q25 0 35 8 q10 8 10 23 q0 17 -10.5 25 q-10.5 8 -34.5 8 q-44 0 -44 -33 Z" /><glyph glyph-name="uniF40D" unicode="&#xf40d;" d="M60 800 q32 35 61.5 48 q29.5 13 58.5 13 q22 0 44 -5.5 q22 -5.5 42.5 -12 q20.5 -6.5 40.5 -12 q20 -5.5 38 -5.5 q16 0 31 5 q15 5 29 19 l25 -67 q-28 -26 -54.5 -36.5 q-26.5 -10.5 -51.5 -10.5 q-23 0 -44 5.5 q-21 5.5 -41.5 12.5 q-20.5 7 -40.5 12.5 q-20 5.5 -39 5.5 q-19 0 -37.5 -7.5 q-18.5 -7.5 -37.5 -27.5 l-24 63 Z" /><glyph glyph-name="uniF49E" unicode="&#xf49e;" d="M-17 607 l77 0 l0 93 l137 0 l0 -93 l221 0 l0 -93 l-221 0 l0 -96 q26 15 69.5 27.5 q43.5 12.5 103.5 12.5 q42 0 76.5 -10.5 q34.5 -10.5 60 -34 q25.5 -23.5 39.5 -60 q14 -36.5 14 -88.5 l0 -265 l-137 0 l0 222 q0 60 -23.5 89.5 q-23.5 29.5 -77.5 29.5 q-38 0 -71.5 -8.5 q-33.5 -8.5 -53.5 -25.5 l0 -307 l-137 0 l0 514 l-77 0 l0 93 Z" /><glyph glyph-name="uniF4C6" unicode="&#xf4c6;" d="M183 700 l0 -222 q0 -60 23.5 -89.5 q23.5 -29.5 77.5 -29.5 q38 0 71.5 8.5 q33.5 8.5 53.5 25.5 l0 307 l137 0 l0 -721 q0 -91 -38.5 -139 q-38.5 -48 -118.5 -48 q-15 0 -31.5 1.5 q-16.5 1.5 -33.5 5.5 l0 109 q4 0 7.5 -0.5 q3.5 -0.5 7.5 -0.5 q43 0 56.5 24.5 q13.5 24.5 13.5 68.5 l0 282 q-26 -15 -69.5 -27.5 q-43.5 -12.5 -103.5 -12.5 q-42 0 -76.5 10.5 q-34.5 10.5 -60 34 q-25.5 23.5 -39.5 60 q-14 36.5 -14 88.5 l0 265 l137 0 Z" /><glyph glyph-name="uniF4C7" unicode="&#xf4c7;" d="M318 196 q-15 -11 -46 -24.5 q-31 -13.5 -83 -13.5 q-37 0 -66 8 q-29 8 -49 28 q-20 20 -30.5 53 q-10.5 33 -10.5 83 l0 170 l130 0 l0 -114 q0 -31 2.5 -53.5 q2.5 -22.5 10 -36.5 q7.5 -14 21 -21 q13.5 -7 35.5 -7 q29 0 50.5 6.5 q21.5 6.5 35.5 16.5 l0 209 l130 0 l0 -521 q0 -91 -36 -139 q-36 -48 -115 -48 q-30 0 -64 7 l0 109 q4 0 7.5 -0.5 q3.5 -0.5 7.5 -0.5 q43 0 56.5 24.5 q13.5 24.5 13.5 68.5 l0 196 Z" /><glyph glyph-name="uniF530" unicode="&#xf530;" d="M426 578 l-149 0 q-4 -95 -9 -173 q-5 -78 -13.5 -140.5 q-8.5 -62.5 -22.5 -110.5 q-14 -48 -36 -83 q-14 -23 -31.5 -38 q-17.5 -15 -36.5 -24 q-19 -9 -37.5 -12.5 q-18.5 -3.5 -34.5 -3.5 q-23 0 -38.5 3.5 q-15.5 3.5 -30.5 10.5 l15 118 q6 -2 12 -3 q6 -1 12 -1 q16 0 31.5 8 q15.5 8 26.5 27 q15 22 26 64.5 q11 42.5 19.5 108.5 q8.5 66 13.5 157.5 q5 91.5 7 213.5 l413 0 l0 -578 l88 0 l0 -247 l-96 0 l-15 125 l-114 0 l0 578 Z" /><glyph glyph-name="uniF531" unicode="&#xf531;" d="M329 385 l-99 0 q-6 -71 -14 -141 q-8 -70 -25.5 -125.5 q-17.5 -55.5 -47.5 -90 q-30 -34.5 -78 -34.5 q-58 0 -82 15 l16 108 q16 -6 30 -6 q20 0 35 17 q15 17 25.5 61 q10.5 44 17 119.5 q6.5 75.5 9.5 191.5 l343 0 l0 -385 l88 0 l0 -229 l-95 0 l-15 114 l-108 0 l0 385 Z" /><glyph glyph-name="uniF532" unicode="&#xf532;" d="M468 388 l8 91 l-5 0 l-46 -94 l-262 -385 l-103 0 l0 700 l137 0 l0 -381 l-10 -94 l6 0 l49 97 l261 378 l102 0 l0 -721 q0 -90 -34 -139 q-34 -49 -116 -49 q-16 0 -33.5 2 q-17.5 2 -37.5 6 l0 108 q4 0 7.5 -0.5 q3.5 -0.5 7.5 -0.5 q43 0 56 24.5 q13 24.5 13 69.5 l0 388 ZM273 874 q4 -32 23.5 -46 q19.5 -14 50.5 -14 q67 0 74 59 l111 -17 q-11 -63 -57.5 -92 q-46.5 -29 -128.5 -29 q-41 0 -75 6 q-34 6 -59.5 19.5 q-25.5 13.5 -42 36.5 q-16.5 23 -20.5 57 l124 20 Z" /><glyph glyph-name="uniF533" unicode="&#xf533;" d="M358 228 l5 71 l-3 0 l-42 -73 l-179 -226 l-82 0 l0 500 l130 0 l0 -238 l-6 -68 l4 0 l41 71 l180 235 l82 0 l0 -521 q0 -91 -36 -139 q-36 -48 -115 -48 q-30 0 -64 7 l0 109 q4 0 7.5 -0.5 q3.5 -0.5 7.5 -0.5 q22 0 35.5 6 q13.5 6 21 18 q7.5 12 10.5 29.5 q3 17.5 3 39.5 l0 228 ZM219 704 q7 -39 23.5 -55 q16.5 -16 42.5 -16 q28 0 44.5 16 q16.5 16 22.5 54 l99 -25 q-12 -65 -59 -96.5 q-47 -31.5 -110 -31.5 q-31 0 -60 7 q-29 7 -52 22.5 q-23 15.5 -39 39.5 q-16 24 -22 59 l110 26 Z" /><glyph glyph-name="uni0493.alt" unicode="&#xf53d;" d="M380 385 l-189 0 l0 -108 l169 0 l0 -104 l-169 0 l0 -173 l-134 0 l0 500 l323 0 l0 -115 Z" /><glyph glyph-name="uniF54B" unicode="&#xf54b;" d="M101 132 l0 90 l61 0 q18 0 34 7.5 q16 7.5 28.5 20 q12.5 12.5 20 29.5 q7.5 17 7.5 36 q0 44 -22.5 64.5 q-22.5 20.5 -70.5 20.5 q-39 0 -62.5 -9.5 q-23.5 -9.5 -41.5 -20.5 l-28 98 q30 17 74.5 29 q44.5 12 102.5 12 q91 0 135 -43 q44 -43 44 -114 q0 -53 -27 -94.5 q-27 -41.5 -65 -58.5 l0 -4 q25 -8 47.5 -21.5 q22.5 -13.5 38.5 -35 q16 -21.5 25.5 -52 q9.5 -30.5 9.5 -73.5 q0 -55 -19.5 -96.5 q-19.5 -41.5 -52.5 -70 q-33 -28.5 -76.5 -43 q-43.5 -14.5 -92.5 -14.5 q-51 0 -90.5 11.5 q-39.5 11.5 -66.5 26.5 l36 101 q23 -13 50 -21.5 q27 -8.5 54 -8.5 q24 0 46.5 6.5 q22.5 6.5 40.5 20 q18 13.5 29 35.5 q11 22 11 53 q0 59 -36.5 89 q-36.5 30 -100.5 30 l-43 0 Z" /><glyph glyph-name="uniF62C" unicode="&#xf62c;" d="M185 443 q0 -29 -19.5 -46.5 q-19.5 -17.5 -48.5 -17.5 q-37 0 -58 23.5 q-21 23.5 -21 62.5 q0 40 12.5 68 q12.5 28 30 46.5 q17.5 18.5 36.5 29 q19 10.5 33 15.5 l32 -54 q-20 -8 -34 -25.5 q-14 -17.5 -16 -37.5 q20 0 36.5 -17.5 q16.5 -17.5 16.5 -46.5 Z" /><glyph glyph-name="uniF62D" unicode="&#xf62d;" d="M38 469 q0 29 19.5 47 q19.5 18 49.5 18 q36 0 57 -24 q21 -24 21 -63 q0 -40 -12.5 -68 q-12.5 -28 -30 -46.5 q-17.5 -18.5 -37 -29 q-19.5 -10.5 -32.5 -15.5 l-33 55 q20 9 35.5 24 q15.5 15 17.5 38 q-20 -1 -37.5 15.5 q-17.5 16.5 -17.5 48.5 Z" /><glyph glyph-name="uniF634" unicode="&#xf634;" d="M90 525 l114 0 l-36 -216 l-78 0 l0 216 Z" /><glyph glyph-name="one.numerator" unicode="&#xf662;" d="M169 544 l11 46 l-31 -32 l-59 -39 l-49 77 l158 111 l85 0 l0 -427 l-115 0 l0 264 Z" /><glyph glyph-name="uniF6C3" unicode="&#xf6c3;" d="M60 -105 q0 29 19.5 46 q19.5 17 48.5 17 q35 0 57 -23 q22 -23 22 -65 q0 -33 -11 -58 q-11 -25 -27 -42.5 q-16 -17.5 -34 -28 q-18 -10.5 -31 -14.5 l-34 54 q14 7 28 19.5 q14 12.5 16 33.5 q-20 -1 -37 14.5 q-17 15.5 -17 46.5 Z" /><glyph glyph-name="uniF6C9" unicode="&#xf6c9;" d="M164 870 l159 0 l0 -30 l-160 -88 l-103 0 l104 118 Z" /><glyph glyph-name="uniF6CA" unicode="&#xf6ca;" d="M281 737 l-94 0 l-127 94 l0 39 l105 0 l53 -45 l19 -30 l21 29 l56 46 l100 0 l0 -40 l-133 -93 Z" /><glyph glyph-name="uniF6CB" unicode="&#xf6cb;" d="M60 798 q0 26 18 42 q18 16 58 16 q39 0 57 -16 q18 -16 18 -42 q0 -26 -18 -41.5 q-18 -15.5 -57 -15.5 q-40 0 -58 15.5 q-18 15.5 -18 41.5 ZM274 798 q0 26 18 42 q18 16 57 16 q40 0 58 -16 q18 -16 18 -42 q0 -26 -18 -41.5 q-18 -15.5 -58 -15.5 q-39 0 -57 15.5 q-18 15.5 -18 41.5 Z" /><glyph glyph-name="uniF6CE" unicode="&#xf6ce;" d="M323 752 l-105 0 l-158 88 l0 30 l159 0 l104 -118 Z" /><glyph glyph-name="uniF6CF" unicode="&#xf6cf;" d="M119 850 l134 0 l0 -16 l-100 -93 l-93 0 l59 109 ZM317 850 l140 0 l0 -16 l-143 -93 l-94 0 l97 109 Z" /><glyph glyph-name="uniF6D0" unicode="&#xf6d0;" d="M60 856 l343 0 l0 -89 l-343 0 l0 89 Z" /><glyph glyph-name="uniF6D1" unicode="&#xf6d1;" d="M184 874 q4 -32 23.5 -46 q19.5 -14 50.5 -14 q67 0 74 59 l111 -17 q-11 -63 -57.5 -92 q-46.5 -29 -128.5 -29 q-41 0 -75 6 q-34 6 -59.5 19.5 q-25.5 13.5 -42 36.5 q-16.5 23 -20.5 57 l124 20 Z" /><glyph glyph-name="uniF6D4" unicode="&#xf6d4;" d="M170 704 q7 -39 23.5 -55 q16.5 -16 42.5 -16 q28 0 44.5 16 q16.5 16 22.5 54 l99 -25 q-12 -65 -59 -96.5 q-47 -31.5 -110 -31.5 q-31 0 -60 7 q-29 7 -52 22.5 q-23 15.5 -39 39.5 q-16 24 -22 59 l110 26 Z" /><glyph glyph-name="fi" unicode="&#xfb01;" d="M492 500 l0 -500 l-130 0 l0 390 l-151 0 l0 -390 l-130 0 l0 390 l-69 0 l0 110 l69 0 l0 28 q0 95 49 138.5 q49 43.5 142 43.5 q69 0 122.5 -10.5 q53.5 -10.5 86.5 -29.5 l-34 -101 q-26 14 -63 22.5 q-37 8.5 -82 8.5 q-29 0 -47 -6.5 q-18 -6.5 -28 -19 q-10 -12.5 -13 -31.5 q-3 -19 -3 -43 l281 0 Z" /><glyph glyph-name="fl" unicode="&#xfb02;" d="M360 596 q-13 3 -35.5 5 q-22.5 2 -43.5 2 q-23 0 -37 -7 q-14 -7 -21.5 -20 q-7.5 -13 -9.5 -32.5 q-2 -19.5 -2 -43.5 l75 0 l0 -110 l-75 0 l0 -390 l-130 0 l0 390 l-69 0 l0 110 l69 0 l0 28 q0 94 45.5 139.5 q45.5 45.5 156.5 45.5 q23 0 53 -2 q30 -2 59.5 -4.5 q29.5 -2.5 55 -5.5 q25.5 -3 39.5 -6 l0 -527 q0 -35 9 -51 q9 -16 28 -16 q12 0 23.5 2 q11.5 2 28.5 9 l15 -102 q-16 -8 -49.5 -16 q-33.5 -8 -68.5 -8 q-57 0 -86.5 26.5 q-29.5 26.5 -29.5 87.5 l0 496 Z" /></font>
</defs>
</svg>
