<?xml version="1.0" standalone="no"?><!DOCTYPE svg PUBLIC "-//W3C//DTD SVG 1.1//EN" "http://www.w3.org/Graphics/SVG/1.1/DTD/svg11.dtd" ><svg xmlns="http://www.w3.org/2000/svg"><metadata></metadata><defs><font id="0.83;DAMA;Ubuntu-Bold" horiz-adv-x="3511"><font-face font-family="Ubuntu" font-weight="700" font-stretch="normal" units-per-em="1000" panose-1="2 11 8 4 3 6 2 3 2 4" ascent="932" descent="-189" x-height="4" bbox="-170 -221 3475 962" underline-thickness="120" underline-position="-123" unicode-range="U+0000-fb04" /><missing-glyph horiz-adv-x="500" d="M50 0 l0 750 l400 0 l0 -750 l-400 0 ZM400 50 l0 650 l-300 0 l0 -650 l300 0 Z" /><glyph glyph-name=".null" unicode="" d="" /><glyph glyph-name="nonmarkingreturn" unicode="" d="" /><glyph glyph-name="space" unicode=" " d="" /><glyph glyph-name="exclam" unicode="!" d="M223 514 q0 -81 -6 -151 q-6 -70 -16 -142 l-114 0 q-10 72 -16.5 142 q-6.5 70 -6.5 151 l0 179 l159 0 l0 -179 ZM236 79 q0 -44 -28.5 -68 q-28.5 -24 -64.5 -24 q-36 0 -64.5 24 q-28.5 24 -28.5 68 q0 44 28.5 68 q28.5 24 64.5 24 q36 0 64.5 -24 q28.5 -24 28.5 -68 Z" /><glyph glyph-name="numbersign" unicode="#" d="M325 523 l116 0 l33 170 l130 0 l-33 -170 l73 0 l0 -115 l-95 0 l-24 -123 l119 0 l0 -115 l-141 0 l-32 -170 l-130 0 l32 170 l-116 0 l-32 -170 l-130 0 l32 170 l-72 0 l0 115 l94 0 l24 123 l-118 0 l0 115 l140 0 l33 170 l130 0 l-33 -170 ZM279 285 l116 0 l24 123 l-116 0 l-24 -123 Z" /><glyph glyph-name="dollar" unicode="$" d="M221 10 q-73 6 -118.5 22.5 q-45.5 16.5 -67.5 27.5 l43 115 q35 -17 83.5 -31 q48.5 -14 102.5 -14 q61 0 83.5 16.5 q22.5 16.5 22.5 46.5 q0 19 -9 32.5 q-9 13.5 -26 24.5 q-17 11 -43 21.5 q-26 10.5 -60 22.5 q-33 12 -64.5 26.5 q-31.5 14.5 -57 35.5 q-25.5 21 -41 51.5 q-15.5 30.5 -15.5 73.5 q0 33 9.5 63.5 q9.5 30.5 29.5 55.5 q20 25 52 42.5 q32 17.5 76 25.5 l0 108 l126 0 l0 -104 q52 -5 89.5 -15 q37.5 -10 59.5 -20 l-31 -120 q-33 14 -76.5 24 q-43.5 10 -91.5 10 q-48 0 -69 -16 q-21 -16 -21 -42 q0 -16 6.5 -27.5 q6.5 -11.5 20.5 -20.5 q14 -9 34.5 -17.5 q20.5 -8.5 49.5 -18.5 q44 -16 81.5 -35 q37.5 -19 65 -43.5 q27.5 -24.5 43 -57.5 q15.5 -33 15.5 -77 q0 -30 -9 -59.5 q-9 -29.5 -30 -54.5 q-21 -25 -54.5 -43 q-33.5 -18 -82.5 -26 l0 -122 l-126 0 l0 119 Z" /><glyph glyph-name="percent" unicode="%" d="M389 515 q0 -94 -48 -144 q-48 -50 -129 -50 q-81 0 -129 50 q-48 50 -48 144 q0 94 48 144 q48 50 129 50 q81 0 129 -50 q48 -50 48 -144 ZM276 515 q0 51 -18 74 q-18 23 -46 23 q-29 0 -46.5 -23 q-17.5 -23 -17.5 -74 q0 -51 17.5 -74.5 q17.5 -23.5 46.5 -23.5 q28 0 46 23.5 q18 23.5 18 74.5 ZM584 693 l139 0 l-391 -693 l-139 0 l391 693 ZM883 178 q0 -94 -48 -144 q-48 -50 -129 -50 q-81 0 -129 50 q-48 50 -48 144 q0 94 48 144 q48 50 129 50 q81 0 129 -50 q48 -50 48 -144 ZM770 178 q0 51 -18 74 q-18 23 -46 23 q-29 0 -46.5 -23 q-17.5 -23 -17.5 -74 q0 -51 17.5 -74.5 q17.5 -23.5 46.5 -23.5 q28 0 46 23.5 q18 23.5 18 74.5 Z" /><glyph glyph-name="ampersand" unicode="&amp;" d="M35 184 q0 38 11 69.5 q11 31.5 29.5 57 q18.5 25.5 43 45 q24.5 19.5 51.5 34.5 q-24 29 -43 62.5 q-19 33.5 -19 73.5 q0 88 53 135.5 q53 47.5 146 47.5 q47 0 82 -12.5 q35 -12.5 58.5 -34 q23.5 -21.5 35.5 -50 q12 -28.5 12 -61.5 q0 -61 -34.5 -108.5 q-34.5 -47.5 -87.5 -79.5 l112 -112 q9 20 17.5 50.5 q8.5 30.5 10.5 53.5 l124 -16 q-2 -19 -7 -41.5 q-5 -22.5 -12.5 -45.5 q-7.5 -23 -17 -46 q-9.5 -23 -20.5 -42 q32 -36 62.5 -78.5 q30.5 -42.5 52.5 -85.5 l-153 0 q-8 13 -22 32.5 q-14 19.5 -28 33.5 q-40 -32 -93 -53.5 q-53 -21.5 -119 -21.5 q-70 0 -117 17.5 q-47 17.5 -75.5 45 q-28.5 27.5 -40.5 62 q-12 34.5 -12 68.5 ZM174 199 q0 -15 6 -31 q6 -16 19.5 -29.5 q13.5 -13.5 34.5 -22 q21 -8.5 51 -8.5 q42 0 73.5 11 q31.5 11 52.5 29 l-160 161 q-14 -7 -27.5 -17 q-13.5 -10 -24.5 -23.5 q-11 -13.5 -18 -30.5 q-7 -17 -7 -39 ZM368 544 q0 23 -15 41 q-15 18 -50 18 q-32 0 -49.5 -19.5 q-17.5 -19.5 -17.5 -50.5 q0 -26 15 -50.5 q15 -24.5 39 -46.5 q32 18 55 43 q23 25 23 65 Z" /><glyph glyph-name="quotesingle" unicode="&#39;" d="M197 760 l0 -74 q0 -48 -7.5 -105 q-7.5 -57 -16.5 -115 l-99 0 q-11 58 -17.5 115 q-6.5 57 -6.5 106 l0 73 l147 0 Z" /><glyph glyph-name="parenleft" unicode="(" d="M217 299 q0 -118 37 -225 q37 -107 97 -192 l-104 -67 q-85 99 -131 222 q-46 123 -46 262 q0 139 46 262 q46 123 131 222 l104 -67 q-60 -85 -97 -192 q-37 -107 -37 -225 Z" /><glyph glyph-name="parenright" unicode=")" d="M139 299 q0 118 -37 225 q-37 107 -97 192 l104 67 q85 -99 131 -222 q46 -123 46 -262 q0 -139 -46 -262 q-46 -123 -131 -222 l-104 67 q60 85 97 192 q37 107 37 225 Z" /><glyph glyph-name="asterisk" unicode="*" d="M283 536 q10 9 25 19.5 q15 10.5 30.5 21 q15.5 10.5 31.5 19 q16 8.5 28 12.5 l24 8 l40 -124 l-24 -8 q-13 -4 -30 -6 q-17 -2 -36 -2.5 q-19 -0.5 -37 -0.5 q-18 0 -32 0 q12 -8 26.5 -18.5 q14.5 -10.5 29 -22 q14.5 -11.5 27.5 -23.5 q13 -12 21 -23 l16 -21 l-106 -75 l-15 20 q-8 10 -15.5 26 q-7.5 16 -14.5 33.5 q-7 17.5 -12 34.5 q-5 17 -9 31 q-4 -14 -9 -31 q-5 -17 -12 -34.5 q-7 -17.5 -14.5 -33.5 q-7.5 -16 -15.5 -26 l-15 -20 l-106 75 l16 21 q8 11 21 23 q13 12 27.5 23.5 q14.5 11.5 29 22 q14.5 10.5 26.5 18.5 q-14 0 -32 0 q-18 0 -37 0.5 q-19 0.5 -36 2.5 q-17 2 -30 6 l-24 8 l40 124 l24 -8 q12 -4 28 -12.5 q16 -8.5 31.5 -19 q15.5 -10.5 30 -21 q14.5 -10.5 25.5 -19.5 q-5 13 -10.5 30.5 q-5.5 17.5 -10.5 35.5 q-5 18 -8.5 35.5 q-3.5 17.5 -3.5 30.5 l0 25 l130 0 l0 -25 q0 -13 -3.5 -30.5 q-3.5 -17.5 -8.5 -35.5 q-5 -18 -10.5 -35.5 q-5.5 -17.5 -10.5 -30.5 Z" /><glyph glyph-name="plus" unicode="+" d="M49 361 l167 0 l0 185 l136 0 l0 -185 l167 0 l0 -125 l-167 0 l0 -185 l-136 0 l0 185 l-167 0 l0 125 Z" /><glyph glyph-name="comma" unicode="," d="M211 152 q2 -24 2.5 -34 q0.5 -10 0.5 -17 q0 -30 -5.5 -63.5 q-5.5 -33.5 -15.5 -67.5 q-10 -34 -25 -68 q-15 -34 -34 -65 l-117 29 q23 66 32 124 q9 58 9 96 q0 6 -0.5 15.5 q-0.5 9.5 -1 19.5 q-0.5 10 -1 19 q-0.5 9 -0.5 12 l156 0 Z" /><glyph glyph-name="hyphen" unicode="-" d="M25 366 l290 0 l0 -135 l-290 0 l0 135 Z" /><glyph glyph-name="period" unicode="." d="M216 79 q0 -45 -28.5 -68.5 q-28.5 -23.5 -64.5 -23.5 q-36 0 -64.5 23.5 q-28.5 23.5 -28.5 68.5 q0 45 28.5 68.5 q28.5 23.5 64.5 23.5 q36 0 64.5 -23.5 q28.5 -23.5 28.5 -68.5 Z" /><glyph glyph-name="slash" unicode="/" d="M128 -185 l-153 0 l336 968 l151 0 l-334 -968 Z" /><glyph glyph-name="zero" unicode="0" d="M534 348 q0 -175 -66.5 -268.5 q-66.5 -93.5 -183.5 -93.5 q-117 0 -183.5 93.5 q-66.5 93.5 -66.5 268.5 q0 87 17.5 154 q17.5 67 50.5 113 q33 46 79 70 q46 24 103 24 q117 0 183.5 -93.5 q66.5 -93.5 66.5 -267.5 ZM382 348 q0 52 -5 94.5 q-5 42.5 -16 73.5 q-11 31 -30 48 q-19 17 -47 17 q-28 0 -46.5 -17 q-18.5 -17 -30 -48 q-11.5 -31 -16.5 -73.5 q-5 -42.5 -5 -94.5 q0 -52 5 -95 q5 -43 16.5 -74 q11.5 -31 30 -48 q18.5 -17 46.5 -17 q28 0 47 17 q19 17 30 48 q11 31 16 74 q5 43 5 95 Z" /><glyph glyph-name="one" unicode="1" d="M70 549 q29 12 60.5 27.5 q31.5 15.5 61.5 34 q30 18.5 57.5 39 q27.5 20.5 49.5 43.5 l104 0 l0 -693 l-149 0 l0 499 q-30 -20 -67 -36.5 q-37 -16.5 -72 -28.5 l-45 115 Z" /><glyph glyph-name="two" unicode="2" d="M496 511 q0 -38 -15 -73 q-15 -35 -39 -67.5 q-24 -32.5 -54 -62.5 q-30 -30 -59 -57 q-15 -14 -32.5 -31.5 q-17.5 -17.5 -33.5 -35.5 q-16 -18 -28.5 -33.5 q-12.5 -15.5 -15.5 -25.5 l298 0 l0 -125 l-462 0 q-2 11 -2 28 q0 17 0 24 q0 48 15.5 88 q15.5 40 40.5 74.5 q25 34.5 56.5 64.5 q31.5 30 62.5 60 q24 23 45 43.5 q21 20.5 37 40 q16 19.5 25 39 q9 19.5 9 39.5 q0 44 -25 62 q-25 18 -62 18 q-27 0 -50.5 -8.5 q-23.5 -8.5 -43 -20 q-19.5 -11.5 -33.5 -23 q-14 -11.5 -21 -18.5 l-74 104 q44 41 102.5 67.5 q58.5 26.5 125.5 26.5 q61 0 105 -14 q44 -14 72.5 -39.5 q28.5 -25.5 42 -62 q13.5 -36.5 13.5 -82.5 Z" /><glyph glyph-name="three" unicode="3" d="M228 -15 q-27 0 -57 3.5 q-30 3.5 -58 9.5 q-28 6 -51 13 q-23 7 -36 13 l29 124 q26 -11 66.5 -23.5 q40.5 -12.5 100.5 -12.5 q69 0 101 26 q32 26 32 70 q0 27 -11.5 45.5 q-11.5 18.5 -31.5 30 q-20 11.5 -47.5 16 q-27.5 4.5 -58.5 4.5 l-58 0 l0 120 l66 0 q22 0 42.5 4 q20.5 4 36.5 13.5 q16 9.5 25.5 26 q9.5 16.5 9.5 41.5 q0 19 -8 33 q-8 14 -20.5 23 q-12.5 9 -29 13.5 q-16.5 4.5 -33.5 4.5 q-43 0 -79.5 -13 q-36.5 -13 -66.5 -32 l-53 109 q16 10 37.5 21 q21.5 11 47.5 20 q26 9 55.5 15 q29.5 6 62.5 6 q61 0 105.5 -14.5 q44.5 -14.5 73.5 -41 q29 -26.5 43 -62 q14 -35.5 14 -77.5 q0 -41 -23 -79.5 q-23 -38.5 -62 -58.5 q54 -22 83.5 -65.5 q29.5 -43.5 29.5 -104.5 q0 -48 -16 -88.5 q-16 -40.5 -50 -70 q-34 -29.5 -86.5 -46 q-52.5 -16.5 -124.5 -16.5 Z" /><glyph glyph-name="four" unicode="4" d="M319 511 q-39 -51 -83 -111 q-44 -60 -74 -123 l157 0 l0 234 ZM465 693 l0 -416 l74 0 l0 -122 l-74 0 l0 -155 l-146 0 l0 155 l-299 0 l0 109 q22 44 55 99.5 q33 55.5 73.5 114 q40.5 58.5 85.5 114.5 q45 56 90 101 l141 0 Z" /><glyph glyph-name="five" unicode="5" d="M360 204 q0 29 -13 51.5 q-13 22.5 -45 37.5 q-32 15 -86 23 q-54 8 -136 8 q11 93 18 189 q7 96 11 180 l375 0 l0 -125 l-250 0 q-2 -36 -4.5 -69.5 q-2.5 -33.5 -5.5 -58.5 q146 -10 215.5 -68.5 q69.5 -58.5 69.5 -162.5 q0 -48 -17 -89 q-17 -41 -51 -71 q-34 -30 -85.5 -47 q-51.5 -17 -120.5 -17 q-27 0 -56.5 3.5 q-29.5 3.5 -57 9 q-27.5 5.5 -49.5 11.5 q-22 6 -34 12 l27 123 q25 -11 66 -21.5 q41 -10.5 98 -10.5 q69 0 100 27.5 q31 27.5 31 64.5 Z" /><glyph glyph-name="six" unicode="6" d="M274 326 q-22 0 -47 -4 q-25 -4 -39 -11 q0 -4 -0.5 -12 q-0.5 -8 -0.5 -14 q0 -36 5 -68 q5 -32 17 -56 q12 -24 32 -37.5 q20 -13.5 50 -13.5 q25 0 42.5 10.5 q17.5 10.5 29 26.5 q11.5 16 17 35.5 q5.5 19.5 5.5 37.5 q0 51 -25.5 78.5 q-25.5 27.5 -85.5 27.5 ZM293 442 q65 0 110.5 -17.5 q45.5 -17.5 74.5 -47.5 q29 -30 42 -70 q13 -40 13 -85 q0 -40 -14.5 -82 q-14.5 -42 -44 -76 q-29.5 -34 -75 -56 q-45.5 -22 -107.5 -22 q-125 0 -190 79 q-65 79 -65 218 q0 100 31 177 q31 77 88.5 129.5 q57.5 52.5 139 80 q81.5 27.5 183.5 28.5 q2 -31 4 -60.5 q2 -29.5 4 -61.5 q-51 -1 -95.5 -9.5 q-44.5 -8.5 -81 -26.5 q-36.5 -18 -63.5 -46.5 q-27 -28.5 -42 -69.5 q22 10 45 14 q23 4 43 4 Z" /><glyph glyph-name="seven" unicode="7" d="M142 0 q6 73 25 152 q19 79 46.5 155 q27.5 76 61.5 143.5 q34 67.5 69 116.5 l-301 0 l0 127 l485 0 l0 -108 q-32 -35 -70.5 -97 q-38.5 -62 -73 -140.5 q-34.5 -78.5 -60 -168.5 q-25.5 -90 -31.5 -180 l-151 0 Z" /><glyph glyph-name="eight" unicode="8" d="M530 193 q0 -45 -15.5 -82.5 q-15.5 -37.5 -46.5 -65.5 q-31 -28 -77.5 -43.5 q-46.5 -15.5 -107.5 -15.5 q-70 0 -116.5 19.5 q-46.5 19.5 -75 48.5 q-28.5 29 -40.5 63.5 q-12 34.5 -12 63.5 q0 30 8 55 q8 25 22 45.5 q14 20.5 31.5 37.5 q17.5 17 37.5 32 q-43 35 -63.5 69 q-20.5 34 -20.5 87 q0 40 16.5 77 q16.5 37 46.5 64.5 q30 27.5 72.5 44 q42.5 16.5 94.5 16.5 q61 0 104.5 -17.5 q43.5 -17.5 71.5 -44.5 q28 -27 40.5 -60.5 q12.5 -33.5 12.5 -66.5 q0 -48 -25.5 -89.5 q-25.5 -41.5 -63.5 -65.5 q57 -37 81.5 -77.5 q24.5 -40.5 24.5 -94.5 ZM184 187 q0 -12 5.5 -26.5 q5.5 -14.5 17.5 -26.5 q12 -12 31 -20 q19 -8 46 -8 q52 0 76 25 q24 25 24 56 q0 23 -10.5 41 q-10.5 18 -28.5 31.5 q-18 13.5 -42.5 24 q-24.5 10.5 -52.5 19.5 q-28 -21 -47 -49 q-19 -28 -19 -67 ZM369 516 q0 11 -4.5 23.5 q-4.5 12.5 -15 23.5 q-10.5 11 -26.5 18.5 q-16 7.5 -39 7.5 q-22 0 -38 -7 q-16 -7 -26.5 -18.5 q-10.5 -11.5 -15.5 -24.5 q-5 -13 -5 -25 q0 -32 23.5 -60 q23.5 -28 80.5 -48 q32 20 49 46 q17 26 17 64 Z" /><glyph glyph-name="nine" unicode="9" d="M289 372 q23 0 48 4.5 q25 4.5 37 12.5 l0 9 q0 4 0.5 8 q0.5 4 0.5 7 q-1 36 -6 67.5 q-5 31.5 -17 55 q-12 23.5 -32.5 37 q-20.5 13.5 -50.5 13.5 q-24 0 -42 -10 q-18 -10 -29 -26 q-11 -16 -16.5 -35 q-5.5 -19 -5.5 -37 q0 -54 26.5 -80 q26.5 -26 86.5 -26 ZM362 275 q-21 -10 -46.5 -14.5 q-25.5 -4.5 -43.5 -4.5 q-65 0 -111 15.5 q-46 15.5 -75.5 44 q-29.5 28.5 -43.5 68.5 q-14 40 -14 88 q0 40 13.5 82 q13.5 42 42.5 76.5 q29 34.5 73.5 57 q44.5 22.5 107.5 22.5 q129 0 194.5 -79.5 q65.5 -79.5 65.5 -228.5 q0 -98 -25.5 -173 q-25.5 -75 -79 -126 q-53.5 -51 -136.5 -77.5 q-83 -26.5 -197 -27.5 q-1 32 -3 62 q-2 30 -4 62 q57 1 103 8.5 q46 7.5 81 25 q35 17.5 59.5 46.5 q24.5 29 38.5 73 Z" /><glyph glyph-name="less" unicode="&lt;" d="M50 361 l430 181 l39 -121 l-314 -122 l314 -122 l-39 -121 l-430 181 l0 124 Z" /><glyph glyph-name="equal" unicode="=" d="M49 251 l470 0 l0 -125 l-470 0 l0 125 ZM49 470 l470 0 l0 -125 l-470 0 l0 125 Z" /><glyph glyph-name="greater" unicode="&gt;" d="M518 237 l-430 -181 l-39 121 l314 122 l-314 122 l39 121 l430 -181 l0 -124 Z" /><glyph glyph-name="question" unicode="?" d="M201 582 q-36 0 -68 -9 q-32 -9 -71 -29 l-42 113 q39 25 92 38.5 q53 13.5 104 13.5 q64 0 105.5 -17 q41.5 -17 65.5 -43 q24 -26 33.5 -57 q9.5 -31 9.5 -59 q0 -28 -8.5 -51.5 q-8.5 -23.5 -21.5 -43.5 q-13 -20 -30 -38 q-17 -18 -33 -34 q-12 -12 -25 -25.5 q-13 -13.5 -23.5 -28.5 q-10.5 -15 -17.5 -31.5 q-7 -16.5 -7 -33.5 q0 -4 0 -12 q0 -8 1 -14 l-132 0 q-2 10 -2.5 22.5 q-0.5 12.5 -0.5 21.5 q0 28 7 50.5 q7 22.5 18.5 42 q11.5 19.5 26.5 36.5 q15 17 31 33 q23 23 42 45.5 q19 22.5 19 51.5 q0 24 -18.5 41 q-18.5 17 -54.5 17 ZM294 79 q0 -44 -28.5 -68 q-28.5 -24 -64.5 -24 q-36 0 -64.5 24 q-28.5 24 -28.5 68 q0 44 28.5 68 q28.5 24 64.5 24 q36 0 64.5 -24 q28.5 -24 28.5 -68 Z" /><glyph glyph-name="at" unicode="@" d="M701 28 q-29 0 -58 7 q-29 7 -48 25 q-44 -31 -111 -31 q-50 0 -91.5 15.5 q-41.5 15.5 -71 46.5 q-29.5 31 -46 76.5 q-16.5 45.5 -16.5 105.5 q0 51 16.5 95 q16.5 44 48.5 76.5 q32 32.5 78.5 51.5 q46.5 19 105.5 19 q59 0 104.5 -10.5 q45.5 -10.5 75.5 -21.5 l0 -314 q0 -23 9.5 -31 q9.5 -8 27.5 -8 q16 0 31.5 9 q15.5 9 26.5 32.5 q11 23.5 18 64 q7 40.5 7 102.5 q0 62 -21.5 113.5 q-21.5 51.5 -62 88 q-40.5 36.5 -99 57 q-58.5 20.5 -132.5 20.5 q-71 0 -130.5 -24 q-59.5 -24 -103 -68.5 q-43.5 -44.5 -68 -108.5 q-24.5 -64 -24.5 -144 q0 -83 24 -145.5 q24 -62.5 68.5 -104.5 q44.5 -42 108 -63.5 q63.5 -21.5 143.5 -21.5 q50 0 94.5 6.5 q44.5 6.5 74.5 12.5 l15 -94 q-25 -8 -76 -17 q-51 -9 -108 -9 q-96 0 -180 25 q-84 25 -146.5 78 q-62.5 53 -98.5 135.5 q-36 82.5 -36 197.5 q0 111 38 194.5 q38 83.5 100 139.5 q62 56 141.5 84 q79.5 28 163.5 28 q92 0 171 -25.5 q79 -25.5 136.5 -74.5 q57.5 -49 90.5 -121.5 q33 -72.5 33 -166.5 q0 -73 -15.5 -129.5 q-15.5 -56.5 -45 -94.5 q-29.5 -38 -70.5 -58 q-41 -20 -92 -20 ZM560 147 q-2 8 -3 23.5 q-1 15.5 -1 29.5 l0 204 q-20 4 -42 4 q-33 0 -56 -10.5 q-23 -10.5 -37 -28.5 q-14 -18 -20.5 -42.5 q-6.5 -24.5 -6.5 -53.5 q0 -29 5 -53.5 q5 -24.5 17.5 -42.5 q12.5 -18 33.5 -28.5 q21 -10.5 52 -10.5 q18 0 34 2.5 q16 2.5 24 6.5 Z" /><glyph glyph-name="A" unicode="a" d="M544 0 q-11 36 -24.5 74 q-13.5 38 -26.5 76 l-270 0 q-13 -38 -26.5 -76 q-13.5 -38 -24.5 -74 l-162 0 q39 112 74 207 q35 95 68.5 179 q33.5 84 66 159.5 q32.5 75.5 67.5 147.5 l149 0 q34 -72 67 -147.5 q33 -75.5 66.5 -159.5 q33.5 -84 68.5 -179 q35 -95 74 -207 l-167 0 ZM357 536 q-5 -15 -15 -41 q-10 -26 -23 -60 q-13 -34 -28.5 -75 q-15.5 -41 -31.5 -86 l197 0 q-16 45 -31 86 q-15 41 -28.5 75 q-13.5 34 -23.5 60 q-10 26 -16 41 Z" /><glyph glyph-name="B" unicode="b" d="M311 -9 q-57 0 -113.5 3.5 q-56.5 3.5 -117.5 16.5 l0 672 q48 9 105 13.5 q57 4.5 106 4.5 q66 0 121.5 -9.5 q55.5 -9.5 95.5 -32.5 q40 -23 62.5 -60.5 q22.5 -37.5 22.5 -92.5 q0 -83 -80 -131 q66 -25 90 -68 q24 -43 24 -97 q0 -109 -79.5 -164 q-79.5 -55 -236.5 -55 ZM232 302 l0 -179 q17 -2 37 -3 q20 -1 44 -1 q70 0 113 20 q43 20 43 74 q0 48 -36 68.5 q-36 20.5 -103 20.5 l-98 0 ZM232 421 l76 0 q72 0 103 18.5 q31 18.5 31 59.5 q0 42 -32 59 q-32 17 -94 17 q-20 0 -43 -0.5 q-23 -0.5 -41 -2.5 l0 -151 Z" /><glyph glyph-name="C" unicode="c" d="M396 -14 q-169 0 -257.5 94 q-88.5 94 -88.5 267 q0 86 27 153.5 q27 67.5 74 114 q47 46.5 112 70.5 q65 24 141 24 q44 0 80 -6.5 q36 -6.5 63 -15 q27 -8.5 45 -17.5 q18 -9 26 -14 l-45 -126 q-32 17 -74.5 29 q-42.5 12 -96.5 12 q-36 0 -70.5 -12 q-34.5 -12 -61 -38.5 q-26.5 -26.5 -42.5 -68.5 q-16 -42 -16 -102 q0 -48 10.5 -89.5 q10.5 -41.5 34 -71.5 q23.5 -30 61.5 -47.5 q38 -17.5 92 -17.5 q34 0 61 4 q27 4 48 9.5 q21 5.5 37 12.5 q16 7 29 13 l43 -125 q-33 -20 -93 -36 q-60 -16 -139 -16 Z" /><glyph glyph-name="D" unicode="d" d="M236 127 q11 -1 25.5 -1.5 q14.5 -0.5 34.5 -0.5 q117 0 173.5 59 q56.5 59 56.5 163 q0 109 -54 165 q-54 56 -171 56 q-16 0 -33 -0.5 q-17 -0.5 -32 -2.5 l0 -438 ZM687 347 q0 -90 -28 -157 q-28 -67 -79.5 -111 q-51.5 -44 -125.5 -66 q-74 -22 -166 -22 q-42 0 -98 3.5 q-56 3.5 -110 14.5 l0 675 q54 10 112.5 13.5 q58.5 3.5 100.5 3.5 q89 0 161.5 -20 q72.5 -20 124.5 -63 q52 -43 80 -110 q28 -67 28 -161 Z" /><glyph glyph-name="E" unicode="e" d="M80 0 l0 693 l468 0 l0 -131 l-312 0 l0 -136 l277 0 l0 -128 l-277 0 l0 -167 l335 0 l0 -131 l-491 0 Z" /><glyph glyph-name="F" unicode="f" d="M80 0 l0 693 l464 0 l0 -131 l-308 0 l0 -145 l274 0 l0 -131 l-274 0 l0 -286 l-156 0 Z" /><glyph glyph-name="G" unicode="g" d="M418 573 q-109 0 -157.5 -60.5 q-48.5 -60.5 -48.5 -165.5 q0 -51 12 -92.5 q12 -41.5 36 -71.5 q24 -30 60 -46.5 q36 -16.5 84 -16.5 q26 0 44.5 1 q18.5 1 32.5 4 l0 241 l156 0 l0 -343 q-28 -11 -90 -23.5 q-62 -12.5 -153 -12.5 q-78 0 -141.5 24 q-63.5 24 -108.5 70 q-45 46 -69.5 113 q-24.5 67 -24.5 153 q0 87 27 154 q27 67 74 113.5 q47 46.5 110.5 70.5 q63.5 24 135.5 24 q49 0 88.5 -6.5 q39.5 -6.5 68 -15 q28.5 -8.5 47 -17.5 q18.5 -9 26.5 -14 l-45 -125 q-32 17 -73.5 29.5 q-41.5 12.5 -90.5 12.5 Z" /><glyph glyph-name="H" unicode="h" d="M498 693 l156 0 l0 -693 l-156 0 l0 294 l-262 0 l0 -294 l-156 0 l0 693 l156 0 l0 -265 l262 0 l0 265 Z" /><glyph glyph-name="I" unicode="i" d="M80 693 l156 0 l0 -693 l-156 0 l0 693 Z" /><glyph glyph-name="J" unicode="j" d="M459 233 q0 -51 -11.5 -96 q-11.5 -45 -40 -78.5 q-28.5 -33.5 -77 -53 q-48.5 -19.5 -122.5 -19.5 q-68 0 -117 16.5 q-49 16.5 -81 38.5 l52 121 q29 -17 62 -30 q33 -13 72 -13 q57 0 82 28 q25 28 25 94 l0 452 l156 0 l0 -460 Z" /><glyph glyph-name="K" unicode="k" d="M489 0 q-21 34 -49.5 73.5 q-28.5 39.5 -62 79 q-33.5 39.5 -69.5 76 q-36 36.5 -72 64.5 l0 -293 l-156 0 l0 693 l156 0 l0 -262 q61 64 122.5 133.5 q61.5 69.5 114.5 128.5 l185 0 q-71 -84 -142.5 -162 q-71.5 -78 -150.5 -157 q83 -69 160.5 -164 q77.5 -95 148.5 -210 l-185 0 Z" /><glyph glyph-name="L" unicode="l" d="M543 134 l0 -134 l-463 0 l0 693 l156 0 l0 -559 l307 0 Z" /><glyph glyph-name="M" unicode="m" d="M264 693 q18 -33 41.5 -81.5 q23.5 -48.5 49 -105 q25.5 -56.5 50.5 -115.5 q25 -59 47 -111 q22 52 47 111 q25 59 50.5 115.5 q25.5 56.5 49 105 q23.5 48.5 41.5 81.5 l142 0 q10 -69 18.5 -154.5 q8.5 -85.5 15 -178 q6.5 -92.5 12 -185.5 q5.5 -93 9.5 -175 l-152 0 q-3 101 -8 220 q-5 119 -15 240 q-18 -42 -40 -93 q-22 -51 -43.5 -102 q-21.5 -51 -41.5 -97.5 q-20 -46.5 -34 -79.5 l-109 0 q-14 33 -34 79.5 q-20 46.5 -41.5 97.5 q-21.5 51 -43.5 102 q-22 51 -40 93 q-10 -121 -15 -240 q-5 -119 -8 -220 l-152 0 q4 82 9.5 175 q5.5 93 12 185.5 q6.5 92.5 15 178 q8.5 85.5 18.5 154.5 l149 0 Z" /><glyph glyph-name="N" unicode="n" d="M545 0 q-67 119 -145 235 q-78 116 -166 219 l0 -454 l-154 0 l0 693 l127 0 q33 -33 73 -81 q40 -48 81.5 -102.5 q41.5 -54.5 82.5 -113 q41 -58.5 77 -112.5 l0 409 l155 0 l0 -693 l-131 0 Z" /><glyph glyph-name="O" unicode="o" d="M211 347 q0 -51 12.5 -92 q12.5 -41 36 -70.5 q23.5 -29.5 57.5 -45.5 q34 -16 78 -16 q43 0 77.5 16 q34.5 16 58 45.5 q23.5 29.5 36 70.5 q12.5 41 12.5 92 q0 51 -12.5 92.5 q-12.5 41.5 -36 71 q-23.5 29.5 -58 45.5 q-34.5 16 -77.5 16 q-44 0 -78 -16.5 q-34 -16.5 -57.5 -46 q-23.5 -29.5 -36 -71 q-12.5 -41.5 -12.5 -91.5 ZM740 347 q0 -89 -26.5 -156.5 q-26.5 -67.5 -72.5 -113 q-46 -45.5 -109.5 -68.5 q-63.5 -23 -136.5 -23 q-71 0 -134 23 q-63 23 -110 68.5 q-47 45.5 -74 113 q-27 67.5 -27 156.5 q0 89 28 156.5 q28 67.5 75.5 113.5 q47.5 46 110 69 q62.5 23 131.5 23 q71 0 134 -23 q63 -23 110 -69 q47 -46 74 -113.5 q27 -67.5 27 -156.5 Z" /><glyph glyph-name="P" unicode="p" d="M288 701 q155 0 238 -54.5 q83 -54.5 83 -178.5 q0 -125 -84 -180.5 q-84 -55.5 -240 -55.5 l-49 0 l0 -232 l-156 0 l0 683 q51 10 108 14 q57 4 100 4 ZM298 568 q-17 0 -33.5 -1 q-16.5 -1 -28.5 -2 l0 -200 l49 0 q81 0 122 22 q41 22 41 82 q0 29 -10.5 48 q-10.5 19 -30 30.5 q-19.5 11.5 -47.5 16 q-28 4.5 -62 4.5 Z" /><glyph glyph-name="Q" unicode="q" d="M211 347 q0 -51 12.5 -92 q12.5 -41 36 -70.5 q23.5 -29.5 57.5 -45.5 q34 -16 78 -16 q43 0 77.5 16 q34.5 16 58 45.5 q23.5 29.5 36 70.5 q12.5 41 12.5 92 q0 51 -12.5 92.5 q-12.5 41.5 -36 71 q-23.5 29.5 -58 45.5 q-34.5 16 -77.5 16 q-44 0 -78 -16.5 q-34 -16.5 -57.5 -46 q-23.5 -29.5 -36 -71 q-12.5 -41.5 -12.5 -91.5 ZM740 347 q0 -73 -18 -131.5 q-18 -58.5 -50.5 -102.5 q-32.5 -44 -77.5 -73 q-45 -29 -99 -42 q5 -20 22 -32.5 q17 -12.5 43 -20.5 q26 -8 60.5 -12 q34.5 -4 74.5 -7 l-32 -114 q-78 3 -133.5 15.5 q-55.5 12.5 -94 34.5 q-38.5 22 -61 54 q-22.5 32 -34.5 74 q-62 8 -115 34.5 q-53 26.5 -92 71.5 q-39 45 -61 108 q-22 63 -22 143 q0 89 28 156.5 q28 67.5 75.5 113.5 q47.5 46 110 69 q62.5 23 131.5 23 q71 0 134 -23 q63 -23 110 -69 q47 -46 74 -113.5 q27 -67.5 27 -156.5 Z" /><glyph glyph-name="R" unicode="r" d="M283 701 q156 0 239 -55.5 q83 -55.5 83 -172.5 q0 -73 -33.5 -118.5 q-33.5 -45.5 -96.5 -71.5 q21 -26 44 -59.5 q23 -33.5 45.5 -70 q22.5 -36.5 43.5 -76 q21 -39.5 39 -77.5 l-175 0 q-19 34 -38.5 69 q-19.5 35 -40 68 q-20.5 33 -40.5 62.5 q-20 29.5 -40 53.5 l-77 0 l0 -253 l-156 0 l0 683 q51 10 105.5 14 q54.5 4 97.5 4 ZM292 568 q-17 0 -30.5 -1 q-13.5 -1 -25.5 -2 l0 -188 l44 0 q88 0 126 22 q38 22 38 75 q0 51 -38.5 72.5 q-38.5 21.5 -113.5 21.5 Z" /><glyph glyph-name="S" unicode="s" d="M269 119 q33 0 54.5 5.5 q21.5 5.5 34.5 15 q13 9.5 18 22.5 q5 13 5 29 q0 34 -32 56.5 q-32 22.5 -110 48.5 q-34 12 -68 27.5 q-34 15.5 -61 39 q-27 23.5 -44 57 q-17 33.5 -17 81.5 q0 48 18 86.5 q18 38.5 51 65.5 q33 27 80 41.5 q47 14.5 106 14.5 q70 0 121 -15 q51 -15 84 -33 l-45 -123 q-29 15 -64.5 26.5 q-35.5 11.5 -85.5 11.5 q-56 0 -80.5 -15.5 q-24.5 -15.5 -24.5 -47.5 q0 -19 9 -32 q9 -13 25.5 -23.5 q16.5 -10.5 38 -19 q21.5 -8.5 47.5 -17.5 q54 -20 94 -39.5 q40 -19.5 66.5 -45.5 q26.5 -26 39.5 -61 q13 -35 13 -85 q0 -97 -68 -150.5 q-68 -53.5 -205 -53.5 q-46 0 -83 5.5 q-37 5.5 -65.5 13.5 q-28.5 8 -49 17 q-20.5 9 -34.5 17 l44 124 q31 -17 76.5 -30.5 q45.5 -13.5 111.5 -13.5 Z" /><glyph glyph-name="T" unicode="t" d="M594 693 l0 -133 l-209 0 l0 -560 l-156 0 l0 560 l-209 0 l0 133 l574 0 Z" /><glyph glyph-name="U" unicode="u" d="M351 -14 q-73 0 -126 20.5 q-53 20.5 -87.5 57 q-34.5 36.5 -51 87 q-16.5 50.5 -16.5 111.5 l0 431 l156 0 l0 -418 q0 -42 9.5 -71.5 q9.5 -29.5 26 -48 q16.5 -18.5 40 -26.5 q23.5 -8 51.5 -8 q57 0 92.5 35 q35.5 35 35.5 119 l0 418 l156 0 l0 -431 q0 -61 -17 -112 q-17 -51 -52 -87.5 q-35 -36.5 -89 -56.5 q-54 -20 -128 -20 Z" /><glyph glyph-name="V" unicode="v" d="M286 0 q-41 87 -81 181 q-40 94 -76 186 q-36 92 -66.5 176 q-30.5 84 -52.5 150 l172 0 q20 -60 43.5 -129.5 q23.5 -69.5 48 -138.5 q24.5 -69 47.5 -132 q23 -63 43 -109 q19 46 42.5 109 q23.5 63 48 132 q24.5 69 48 138.5 q23.5 69.5 43.5 129.5 l166 0 q-23 -66 -53 -150 q-30 -84 -66 -176 q-36 -92 -76 -186 q-40 -94 -81 -181 l-150 0 Z" /><glyph glyph-name="W" unicode="w" d="M545 619 q12 -41 26.5 -92.5 q14.5 -51.5 31 -106.5 q16.5 -55 33.5 -110 q17 -55 33 -102 q13 51 26.5 111 q13.5 60 25.5 124 q12 64 23.5 127.5 q11.5 63.5 21.5 122.5 l162 0 q-35 -174 -80.5 -353 q-45.5 -179 -98.5 -340 l-143 0 q-35 96 -68 201.5 q-33 105.5 -65 211.5 q-32 -106 -64 -211.5 q-32 -105.5 -67 -201.5 l-143 0 q-53 161 -98.5 340 q-45.5 179 -80.5 353 l169 0 q10 -59 22 -122.5 q12 -63.5 25 -127.5 q13 -64 26.5 -124 q13.5 -60 27.5 -111 q18 49 35 104 q17 55 33 110 q16 55 29.5 106 q13.5 51 24.5 91 l133 0 Z" /><glyph glyph-name="X" unicode="x" d="M478 0 q-29 58 -63.5 117.5 q-34.5 59.5 -79.5 121.5 q-14 -18 -35.5 -50 q-21.5 -32 -43 -68 q-21.5 -36 -40.5 -69 q-19 -33 -28 -52 l-178 0 q44 81 102.5 170 q58.5 89 130.5 189 l-223 334 l189 0 l135 -216 l132 216 l178 0 l-220 -336 q84 -109 141 -201.5 q57 -92.5 90 -155.5 l-187 0 Z" /><glyph glyph-name="Y" unicode="y" d="M334 408 q42 71 80 142 q38 71 70 143 l172 0 q-57 -112 -118 -217 q-61 -105 -129 -211 l0 -265 l-156 0 l0 263 q-68 106 -129.5 212 q-61.5 106 -118.5 218 l181 0 q32 -72 69 -143 q37 -71 79 -142 Z" /><glyph glyph-name="Z" unicode="z" d="M569 585 q-32 -33 -76 -85.5 q-44 -52.5 -91 -114.5 q-47 -62 -93 -128 q-46 -66 -82 -126 l353 0 l0 -131 l-545 0 l0 93 q28 51 68.5 113.5 q40.5 62.5 84.5 126 q44 63.5 89.5 123 q45.5 59.5 84.5 106.5 l-311 0 l0 131 l518 0 l0 -108 Z" /><glyph glyph-name="bracketleft" unicode="[" d="M90 783 l271 0 l0 -119 l-129 0 l0 -730 l129 0 l0 -119 l-271 0 l0 968 Z" /><glyph glyph-name="backslash" unicode="\" d="M-25 783 l151 0 l336 -968 l-153 0 l-334 968 Z" /><glyph glyph-name="bracketright" unicode="]" d="M281 -185 l-271 0 l0 119 l129 0 l0 730 l-129 0 l0 119 l271 0 l0 -968 Z" /><glyph glyph-name="asciicircum" unicode="^" d="M550 350 l-125 -61 l-141 245 l-141 -245 l-125 61 l207 347 l118 0 l207 -347 Z" /><glyph glyph-name="underscore" unicode="_" d="M0 -61 l500 0 l0 -124 l-500 0 l0 124 Z" /><glyph glyph-name="grave" unicode="`" d="M111 799 l142 -162 l-68 -61 l-165 139 l91 84 Z" /><glyph glyph-name="a" unicode="a" d="M271 104 q22 0 42 1 q20 1 32 3 l0 113 q-9 2 -27 4 q-18 2 -33 2 q-21 0 -39.5 -2.5 q-18.5 -2.5 -32.5 -9.5 q-14 -7 -22 -19 q-8 -12 -8 -30 q0 -35 23.5 -48.5 q23.5 -13.5 64.5 -13.5 ZM259 540 q66 0 110 -15 q44 -15 70.5 -43 q26.5 -28 37.5 -68 q11 -40 11 -89 l0 -310 q-32 -7 -89 -16.5 q-57 -9.5 -138 -9.5 q-51 0 -92.5 9 q-41.5 9 -71.5 29.5 q-30 20.5 -46 53.5 q-16 33 -16 81 q0 46 18.5 78 q18.5 32 49.5 51 q31 19 71 27.5 q40 8.5 83 8.5 q29 0 51.5 -2.5 q22.5 -2.5 36.5 -6.5 l0 14 q0 38 -23 61 q-23 23 -80 23 q-38 0 -75 -5.5 q-37 -5.5 -64 -15.5 l-19 120 q13 4 32.5 8.5 q19.5 4.5 42.5 8 q23 3.5 48.5 6 q25.5 2.5 51.5 2.5 Z" /><glyph glyph-name="b" unicode="b" d="M407 267 q0 144 -106 144 q-23 0 -45.5 -6 q-22.5 -6 -36.5 -15 l0 -271 q11 -2 28 -3.5 q17 -1.5 37 -1.5 q61 0 92 42 q31 42 31 111 ZM559 263 q0 -63 -18.5 -114 q-18.5 -51 -53.5 -87 q-35 -36 -86 -55.5 q-51 -19.5 -116 -19.5 q-27 0 -56.5 2.5 q-29.5 2.5 -58 6.5 q-28.5 4 -54.5 9.5 q-26 5.5 -46 11.5 l0 735 l149 24 l0 -262 q25 11 52 17 q27 6 58 6 q56 0 99 -19.5 q43 -19.5 72 -55.5 q29 -36 44 -86.5 q15 -50.5 15 -112.5 Z" /><glyph glyph-name="c" unicode="c" d="M45 263 q0 57 18.5 107.5 q18.5 50.5 53.5 88 q35 37.5 85 59.5 q50 22 114 22 q42 0 77 -7.5 q35 -7.5 68 -21.5 l-31 -119 q-21 8 -46 14 q-25 6 -56 6 q-66 0 -98.5 -41 q-32.5 -41 -32.5 -108 q0 -71 30.5 -110 q30.5 -39 106.5 -39 q27 0 58 5 q31 5 57 16 l21 -122 q-26 -11 -65 -19 q-39 -8 -86 -8 q-72 0 -124 21.5 q-52 21.5 -85.5 58.5 q-33.5 37 -49 87.5 q-15.5 50.5 -15.5 109.5 Z" /><glyph glyph-name="d" unicode="d" d="M197 267 q0 -69 31 -111 q31 -42 92 -42 q20 0 37 1.5 q17 1.5 28 3.5 l0 271 q-14 9 -36.5 15 q-22.5 6 -45.5 6 q-106 0 -106 -144 ZM534 17 q-20 -6 -46 -11.5 q-26 -5.5 -54.5 -9.5 q-28.5 -4 -58 -6.5 q-29.5 -2.5 -56.5 -2.5 q-65 0 -116 19 q-51 19 -86 54.5 q-35 35.5 -53.5 86 q-18.5 50.5 -18.5 113.5 q0 64 16 115.5 q16 51.5 46 87.5 q30 36 73.5 55 q43.5 19 99.5 19 q31 0 55.5 -6 q24.5 -6 49.5 -17 l0 238 l149 24 l0 -759 Z" /><glyph glyph-name="e" unicode="e" d="M45 259 q0 70 21.5 122.5 q21.5 52.5 56.5 87.5 q35 35 80.5 53 q45.5 18 93.5 18 q112 0 177 -68.5 q65 -68.5 65 -201.5 q0 -13 -1 -28.5 q-1 -15.5 -2 -27.5 l-338 0 q5 -46 43 -73 q38 -27 102 -27 q41 0 80.5 7.5 q39.5 7.5 64.5 18.5 l20 -121 q-12 -6 -32 -12 q-20 -6 -44.5 -10.5 q-24.5 -4.5 -52.5 -7.5 q-28 -3 -56 -3 q-71 0 -123.5 21 q-52.5 21 -87 57.5 q-34.5 36.5 -51 86.5 q-16.5 50 -16.5 108 ZM395 316 q-1 19 -6.5 37 q-5.5 18 -17 32 q-11.5 14 -29 23 q-17.5 9 -43.5 9 q-25 0 -43 -8.5 q-18 -8.5 -30 -22.5 q-12 -14 -18.5 -32.5 q-6.5 -18.5 -9.5 -37.5 l197 0 Z" /><glyph glyph-name="f" unicode="f" d="M298 776 q42 0 77 -8.5 q35 -8.5 54 -16.5 l-29 -119 q-20 9 -43.5 13.5 q-23.5 4.5 -43.5 4.5 q-27 0 -45.5 -7.5 q-18.5 -7.5 -29 -20.5 q-10.5 -13 -15 -31 q-4.5 -18 -4.5 -39 l0 -26 l184 0 l0 -124 l-184 0 l0 -402 l-149 0 l0 554 q0 102 57.5 162 q57.5 60 170.5 60 Z" /><glyph glyph-name="g" unicode="g" d="M197 280 q0 -125 101 -125 q23 0 43 6 q20 6 34 14 l0 238 q-11 2 -26 3.5 q-15 1.5 -35 1.5 q-59 0 -88 -39 q-29 -39 -29 -99 ZM524 66 q0 -129 -65.5 -191.5 q-65.5 -62.5 -202.5 -62.5 q-48 0 -96 8.5 q-48 8.5 -89 22.5 l26 125 q35 -14 73.5 -22 q38.5 -8 87.5 -8 q64 0 90.5 28 q26.5 28 26.5 72 l0 19 q-24 -11 -49.5 -16.5 q-25.5 -5.5 -55.5 -5.5 q-109 0 -167 64.5 q-58 64.5 -58 180.5 q0 58 18 105.5 q18 47.5 52.5 81.5 q34.5 34 84.5 52.5 q50 18.5 113 18.5 q27 0 55.5 -2.5 q28.5 -2.5 56.5 -6.5 q28 -4 53.5 -9.5 q25.5 -5.5 45.5 -11.5 l0 -442 Z" /><glyph glyph-name="h" unicode="h" d="M70 0 l0 752 l149 24 l0 -252 q15 5 38.5 9.5 q23.5 4.5 45.5 4.5 q64 0 106.5 -17.5 q42.5 -17.5 68 -49.5 q25.5 -32 36 -76 q10.5 -44 10.5 -98 l0 -297 l-149 0 l0 279 q0 72 -18.5 102 q-18.5 30 -68.5 30 q-20 0 -37.5 -3.5 q-17.5 -3.5 -31.5 -7.5 l0 -400 l-149 0 Z" /><glyph glyph-name="i" unicode="i" d="M219 0 l-149 0 l0 526 l149 0 l0 -526 ZM233 678 q0 -41 -26.5 -64.5 q-26.5 -23.5 -62.5 -23.5 q-36 0 -62.5 23.5 q-26.5 23.5 -26.5 64.5 q0 41 26.5 64.5 q26.5 23.5 62.5 23.5 q36 0 62.5 -23.5 q26.5 -23.5 26.5 -64.5 Z" /><glyph glyph-name="j" unicode="j" d="M21 -185 q-14 0 -41.5 3 q-27.5 3 -51.5 11 l20 121 q15 -5 27.5 -7 q12.5 -2 31.5 -2 q35 0 49 21 q14 21 14 61 l0 503 l149 0 l0 -507 q0 -104 -51 -154 q-51 -50 -147 -50 ZM233 678 q0 -41 -26.5 -64.5 q-26.5 -23.5 -62.5 -23.5 q-36 0 -62.5 23.5 q-26.5 23.5 -26.5 64.5 q0 41 26.5 64.5 q26.5 23.5 62.5 23.5 q36 0 62.5 -23.5 q26.5 -23.5 26.5 -64.5 Z" /><glyph glyph-name="k" unicode="k" d="M219 336 q22 24 45.5 50 q23.5 26 45.5 51.5 q22 25.5 41.5 48.5 q19.5 23 33.5 40 l177 0 q-53 -61 -103.5 -116.5 q-50.5 -55.5 -110.5 -114.5 q30 -27 62 -64.5 q32 -37.5 62 -77.5 q30 -40 55 -80 q25 -40 42 -73 l-171 0 q-16 26 -36.5 57.5 q-20.5 31.5 -43.5 63 q-23 31.5 -48.5 60.5 q-25.5 29 -50.5 49 l0 -230 l-149 0 l0 752 l149 24 l0 -440 Z" /><glyph glyph-name="l" unicode="l" d="M280 -10 q-65 1 -105.5 14 q-40.5 13 -64 36.5 q-23.5 23.5 -32 57 q-8.5 33.5 -8.5 75.5 l0 579 l149 24 l0 -573 q0 -20 3 -36 q3 -16 11.5 -27 q8.5 -11 24.5 -18 q16 -7 43 -9 l-21 -123 Z" /><glyph glyph-name="m" unicode="m" d="M359 279 q0 72 -18.5 102 q-18.5 30 -63.5 30 q-14 0 -29 -1.5 q-15 -1.5 -29 -3.5 l0 -406 l-149 0 l0 508 q19 5 44.5 10.5 q25.5 5.5 54 10 q28.5 4.5 58.5 7 q30 2.5 59 2.5 q57 0 92.5 -14.5 q35.5 -14.5 58.5 -34.5 q32 23 73.5 36 q41.5 13 76.5 13 q63 0 103.5 -17.5 q40.5 -17.5 64.5 -49.5 q24 -32 33 -76 q9 -44 9 -98 l0 -297 l-149 0 l0 279 q0 72 -18.5 102 q-18.5 30 -63.5 30 q-12 0 -33.5 -6 q-21.5 -6 -35.5 -15 q7 -23 9 -48.5 q2 -25.5 2 -54.5 l0 -287 l-149 0 l0 279 Z" /><glyph glyph-name="n" unicode="n" d="M70 508 q38 11 98 20.5 q60 9.5 126 9.5 q67 0 111.5 -17.5 q44.5 -17.5 70.5 -49.5 q26 -32 37 -76 q11 -44 11 -98 l0 -297 l-149 0 l0 279 q0 72 -19 102 q-19 30 -71 30 q-16 0 -34 -1.5 q-18 -1.5 -32 -3.5 l0 -406 l-149 0 l0 508 Z" /><glyph glyph-name="o" unicode="o" d="M562 264 q0 -62 -18 -113.5 q-18 -51.5 -52 -88 q-34 -36.5 -81.5 -56.5 q-47.5 -20 -106.5 -20 q-58 0 -105.5 20 q-47.5 20 -81.5 56.5 q-34 36.5 -53 88 q-19 51.5 -19 113.5 q0 62 19.5 113 q19.5 51 54 87 q34.5 36 82 56 q47.5 20 103.5 20 q57 0 104.5 -20 q47.5 -20 81.5 -56 q34 -36 53 -87 q19 -51 19 -113 ZM410 264 q0 69 -27.5 108.5 q-27.5 39.5 -78.5 39.5 q-51 0 -79 -39.5 q-28 -39.5 -28 -108.5 q0 -69 28 -109.5 q28 -40.5 79 -40.5 q51 0 78.5 40.5 q27.5 40.5 27.5 109.5 Z" /><glyph glyph-name="p" unicode="p" d="M407 259 q0 69 -31 110.5 q-31 41.5 -92 41.5 q-20 0 -37 -1.5 q-17 -1.5 -28 -3.5 l0 -269 q14 -9 36.5 -15 q22.5 -6 45.5 -6 q106 0 106 143 ZM559 263 q0 -61 -15 -111 q-15 -50 -44 -86 q-29 -36 -72 -56 q-43 -20 -99 -20 q-31 0 -58 6 q-27 6 -52 17 l0 -198 l-149 0 l0 693 q20 6 46 11.5 q26 5.5 54.5 9.5 q28.5 4 58 6.5 q29.5 2.5 56.5 2.5 q65 0 116 -19.5 q51 -19.5 86 -55 q35 -35.5 53.5 -86.5 q18.5 -51 18.5 -114 Z" /><glyph glyph-name="q" unicode="q" d="M197 259 q0 -143 106 -143 q23 0 45.5 6 q22.5 6 36.5 15 l0 269 q-11 2 -28 3.5 q-17 1.5 -37 1.5 q-61 0 -92 -41.5 q-31 -41.5 -31 -110.5 ZM45 263 q0 61 18.5 111.5 q18.5 50.5 53.5 87 q35 36.5 86 56.5 q51 20 116 20 q27 0 56.5 -2.5 q29.5 -2.5 58 -6.5 q28.5 -4 54.5 -9.5 q26 -5.5 46 -11.5 l0 -693 l-149 0 l0 198 q-25 -11 -52 -17 q-27 -6 -58 -6 q-112 0 -171 73.5 q-59 73.5 -59 199.5 Z" /><glyph glyph-name="r" unicode="r" d="M387 394 q-20 5 -47 10.5 q-27 5.5 -58 5.5 q-14 0 -33.5 -2.5 q-19.5 -2.5 -29.5 -5.5 l0 -402 l-149 0 l0 498 q40 14 94.5 26.5 q54.5 12.5 121.5 12.5 q12 0 29 -1.5 q17 -1.5 34 -4 q17 -2.5 34 -6 q17 -3.5 29 -8.5 l-25 -123 Z" /><glyph glyph-name="s" unicode="s" d="M221 107 q41 0 58 8 q17 8 17 31 q0 18 -22 31.5 q-22 13.5 -67 30.5 q-35 13 -63.5 27 q-28.5 14 -48.5 33.5 q-20 19.5 -31 46.5 q-11 27 -11 65 q0 74 55 117 q55 43 151 43 q48 0 92 -8.5 q44 -8.5 70 -18.5 l-26 -116 q-26 9 -56.5 16 q-30.5 7 -68.5 7 q-70 0 -70 -39 q0 -9 3 -16 q3 -7 12 -13.5 q9 -6.5 24.5 -14 q15.5 -7.5 39.5 -16.5 q49 -18 81 -35.5 q32 -17.5 50.5 -38 q18.5 -20.5 26 -45.5 q7.5 -25 7.5 -58 q0 -78 -58.5 -118 q-58.5 -40 -165.5 -40 q-70 0 -116.5 12 q-46.5 12 -64.5 20 l25 121 q38 -15 78 -23.5 q40 -8.5 79 -8.5 Z" /><glyph glyph-name="t" unicode="t" d="M65 657 l149 24 l0 -155 l179 0 l0 -124 l-179 0 l0 -185 q0 -47 16.5 -75 q16.5 -28 66.5 -28 q24 0 49.5 4.5 q25.5 4.5 46.5 12.5 l21 -116 q-27 -11 -60 -19 q-33 -8 -81 -8 q-61 0 -101 16.5 q-40 16.5 -64 46 q-24 29.5 -33.5 71.5 q-9.5 42 -9.5 93 l0 442 Z" /><glyph glyph-name="u" unicode="u" d="M519 18 q-38 -11 -98 -20.5 q-60 -9.5 -126 -9.5 q-67 0 -111.5 18 q-44.5 18 -70.5 50.5 q-26 32.5 -37 77.5 q-11 45 -11 99 l0 293 l149 0 l0 -275 q0 -72 19 -104 q19 -32 71 -32 q16 0 34 1.5 q18 1.5 32 3.5 l0 406 l149 0 l0 -508 Z" /><glyph glyph-name="v" unicode="v" d="M213 0 q-51 100 -103.5 234 q-52.5 134 -99.5 292 l158 0 q10 -39 23.5 -84.5 q13.5 -45.5 28 -92 q14.5 -46.5 29 -90.5 q14.5 -44 28.5 -80 q13 36 28 80 q15 44 29.5 90.5 q14.5 46.5 28 92 q13.5 45.5 23.5 84.5 l154 0 q-47 -158 -99.5 -292 q-52.5 -134 -103.5 -234 l-124 0 Z" /><glyph glyph-name="w" unicode="w" d="M390 302 q-20 -76 -42.5 -151 q-22.5 -75 -47.5 -151 l-116 0 q-18 42 -39 100 q-21 58 -43.5 126.5 q-22.5 68.5 -46 145 q-23.5 76.5 -45.5 154.5 l157 0 q8 -36 17.5 -78.5 q9.5 -42.5 20 -87.5 q10.5 -45 22 -90.5 q11.5 -45.5 23.5 -87.5 q13 44 25.5 90 q12.5 46 24 90.5 q11.5 44.5 22 86 q10.5 41.5 18.5 77.5 l108 0 q8 -36 18 -77.5 q10 -41.5 21 -86 q11 -44.5 23 -90.5 q12 -46 25 -90 q12 42 24 87.5 q12 45.5 22.5 90.5 q10.5 45 20 87.5 q9.5 42.5 17.5 78.5 l155 0 q-22 -78 -45.5 -154.5 q-23.5 -76.5 -46 -145 q-22.5 -68.5 -44 -126.5 q-21.5 -58 -39.5 -100 l-116 0 q-25 76 -49 151 q-24 75 -44 151 Z" /><glyph glyph-name="x" unicode="x" d="M279 366 l104 160 l154 0 l-180 -253 q60 -75 109 -146 q49 -71 78 -127 l-160 0 q-8 15 -20 37.5 q-12 22.5 -27 47 q-15 24.5 -31.5 49 q-16.5 24.5 -32.5 44.5 q-15 -19 -30.5 -42 q-15.5 -23 -29.5 -46.5 q-14 -23.5 -27.5 -46.5 q-13.5 -23 -23.5 -43 l-152 0 q12 25 33 59 q21 34 45.5 70.5 q24.5 36.5 51.5 73 q27 36.5 53 68.5 q-45 63 -90 127.5 q-45 64.5 -89 127.5 l161 0 l104 -160 Z" /><glyph glyph-name="y" unicode="y" d="M537 526 q-45 -152 -94 -285 q-49 -133 -107 -258 q-21 -45 -42 -76.5 q-21 -31.5 -46 -52 q-25 -20.5 -56.5 -30 q-31.5 -9.5 -73.5 -9.5 q-35 0 -64.5 6.5 q-29.5 6.5 -48.5 14.5 l26 119 q23 -8 41 -11 q18 -3 38 -3 q40 0 61.5 21.5 q21.5 21.5 36.5 59.5 q-51 100 -102 224.5 q-51 124.5 -96 279.5 l158 0 q10 -39 23.5 -84.5 q13.5 -45.5 28.5 -92 q15 -46.5 30.5 -90.5 q15.5 -44 29.5 -80 q13 36 27 80 q14 44 27.5 90.5 q13.5 46.5 26 92 q12.5 45.5 22.5 84.5 l154 0 Z" /><glyph glyph-name="z" unicode="z" d="M465 426 q-18 -20 -48.5 -54 q-30.5 -34 -65.5 -75 q-35 -41 -70.5 -86 q-35.5 -45 -64.5 -87 l254 0 l0 -124 l-435 0 l0 88 q21 36 50.5 77.5 q29.5 41.5 62 83.5 q32.5 42 64.5 81.5 q32 39.5 59 71.5 l-224 0 l0 124 l418 0 l0 -100 Z" /><glyph glyph-name="braceleft" unicode="{" d="M35 358 q45 0 65 26 q20 26 20 68 l0 151 q0 43 11 76.5 q11 33.5 36.5 56.5 q25.5 23 68 35 q42.5 12 105.5 12 l20 0 l0 -119 l-25 0 q-45 0 -60.5 -20 q-15.5 -20 -15.5 -62 l0 -133 q0 -52 -14 -88 q-14 -36 -56 -62 q42 -26 56 -62 q14 -36 14 -88 l0 -133 q0 -42 15.5 -62 q15.5 -20 60.5 -20 l25 0 l0 -119 l-20 0 q-63 0 -105.5 12 q-42.5 12 -68 35 q-25.5 23 -36.5 56.5 q-11 33.5 -11 76.5 l0 151 q0 42 -20 68 q-20 26 -65 26 l0 118 Z" /><glyph glyph-name="bar" unicode="|" d="M90 783 l142 0 l0 -968 l-142 0 l0 968 Z" /><glyph glyph-name="braceright" unicode="}" d="M336 240 q-45 0 -65 -26 q-20 -26 -20 -68 l0 -151 q0 -43 -11 -76.5 q-11 -33.5 -36.5 -56.5 q-25.5 -23 -68 -35 q-42.5 -12 -105.5 -12 l-20 0 l0 119 l25 0 q45 0 60.5 20 q15.5 20 15.5 62 l0 133 q0 52 14 88 q14 36 56 62 q-42 26 -56 62 q-14 36 -14 88 l0 133 q0 42 -15.5 62 q-15.5 20 -60.5 20 l-25 0 l0 119 l20 0 q63 0 105.5 -12 q42.5 -12 68 -35 q25.5 -23 36.5 -56.5 q11 -33.5 11 -76.5 l0 -151 q0 -42 20 -68 q20 -26 65 -26 l0 -118 Z" /><glyph glyph-name="asciitilde" unicode="~" d="M386 196 q-30 0 -56.5 12 q-26.5 12 -51 26 q-24.5 14 -47 26 q-22.5 12 -44.5 12 q-8 0 -16.5 -2 q-8.5 -2 -16.5 -9.5 q-8 -7.5 -15.5 -22 q-7.5 -14.5 -13.5 -39.5 l-102 28 q5 28 16 59 q11 31 29.5 57 q18.5 26 46.5 43 q28 17 67 17 q30 0 56.5 -12 q26.5 -12 51 -26 q24.5 -14 47 -26 q22.5 -12 44.5 -12 q8 0 16.5 2 q8.5 2 16.5 9.5 q8 7.5 15.5 22 q7.5 14.5 13.5 39.5 l102 -28 q-5 -28 -16 -59 q-11 -31 -30 -57 q-19 -26 -46.5 -43 q-27.5 -17 -66.5 -17 Z" /><glyph glyph-name="Euro" unicode="&#x20ac;" d="M122 481 q26 112 99 169 q73 57 187 57 q45 0 77 -7 q32 -7 64 -19 l-31 -116 q-24 8 -49 13.5 q-25 5.5 -62 5.5 q-60 0 -93.5 -26 q-33.5 -26 -48.5 -77 l222 0 l-19 -99 l-216 0 q-1 -11 -1 -18.5 q0 -7.5 0 -15.5 q0 -8 0 -14 q0 -6 1 -17 l204 0 l-19 -99 l-172 0 q17 -60 51 -83.5 q34 -23.5 85 -23.5 q33 0 67 6 q34 6 68 20 l29 -115 q-27 -14 -69.5 -24.5 q-42.5 -10.5 -99.5 -10.5 q-125 0 -191 60.5 q-66 60.5 -87 170.5 l-72 0 l0 99 l63 0 q-1 11 -1 17 q0 6 0 14 q0 8 0 17 q0 9 1 17 l-63 0 l0 99 l76 0 Z" /><glyph glyph-name="florin" unicode="&#x192;" d="M21 -185 q-14 0 -41.5 3 q-27.5 3 -51.5 11 l20 121 q15 -5 27.5 -7 q12.5 -2 31.5 -2 q35 0 49 21 q14 21 14 61 l0 531 q0 102 57.5 162 q57.5 60 170.5 60 q42 0 77 -8.5 q35 -8.5 54 -16.5 l-29 -119 q-20 9 -43.5 13.5 q-23.5 4.5 -43.5 4.5 q-27 0 -45.5 -7.5 q-18.5 -7.5 -29 -20.5 q-10.5 -13 -15 -31 q-4.5 -18 -4.5 -39 l0 -26 l184 0 l0 -124 l-184 0 l0 -383 q0 -105 -50.5 -154.5 q-50.5 -49.5 -147.5 -49.5 Z" /><glyph glyph-name="dagger" unicode="&#x2020;" d="M308 376 l0 -228 q0 -81 -5 -150.5 q-5 -69.5 -15 -142.5 l-83 0 q-10 73 -15 142.5 q-5 69.5 -5 150.5 l0 228 l-150 0 l0 115 l150 0 l0 202 l123 0 l0 -202 l151 0 l0 -115 l-151 0 Z" /><glyph glyph-name="daggerdbl" unicode="&#x2021;" d="M308 110 q-2 -69 -6.5 -129 q-4.5 -60 -13.5 -126 l-83 0 q-9 64 -14 125 q-5 61 -6 130 l-150 0 l0 115 l150 0 l0 151 l-150 0 l0 115 l150 0 l0 202 l123 0 l0 -202 l151 0 l0 -115 l-151 0 l0 -151 l151 0 l0 -115 l-151 0 Z" /><glyph glyph-name="circumflex" unicode="&#x2c6;" d="M354 645 l-55 -66 l-100 77 l-100 -77 l-57 66 l157 137 l155 -137 Z" /><glyph glyph-name="perthousand" unicode="&#x2030;" d="M389 515 q0 -94 -48 -144 q-48 -50 -129 -50 q-81 0 -129 50 q-48 50 -48 144 q0 94 48 144 q48 50 129 50 q81 0 129 -50 q48 -50 48 -144 ZM276 515 q0 51 -18 74 q-18 23 -46 23 q-29 0 -46.5 -23 q-17.5 -23 -17.5 -74 q0 -51 17.5 -74.5 q17.5 -23.5 46.5 -23.5 q28 0 46 23.5 q18 23.5 18 74.5 ZM584 693 l139 0 l-391 -693 l-139 0 l391 693 ZM883 178 q0 -94 -48 -144 q-48 -50 -129 -50 q-81 0 -129 50 q-48 50 -48 144 q0 94 48 144 q48 50 129 50 q81 0 129 -50 q48 -50 48 -144 ZM770 178 q0 51 -18 74 q-18 23 -46 23 q-29 0 -46.5 -23 q-17.5 -23 -17.5 -74 q0 -51 17.5 -74.5 q17.5 -23.5 46.5 -23.5 q28 0 46 23.5 q18 23.5 18 74.5 ZM1285 178 q0 -94 -48 -144 q-48 -50 -129 -50 q-81 0 -129 50 q-48 50 -48 144 q0 94 48 144 q48 50 129 50 q81 0 129 -50 q48 -50 48 -144 ZM1172 178 q0 51 -18 74 q-18 23 -46 23 q-29 0 -46.5 -23 q-17.5 -23 -17.5 -74 q0 -51 17.5 -74.5 q17.5 -23.5 46.5 -23.5 q28 0 46 23.5 q18 23.5 18 74.5 Z" /><glyph glyph-name="guilsinglleft" unicode="&#x2039;" d="M196 284 l101 -187 l-113 -53 l-164 240 l164 240 l113 -53 l-101 -187 Z" /><glyph glyph-name="OE" unicode="&#x152;" d="M546 0 q-23 -3 -51.5 -4.5 q-28.5 -1.5 -51.5 -1.5 q-88 0 -160.5 21 q-72.5 21 -124 64.5 q-51.5 43.5 -80 110 q-28.5 66.5 -28.5 157.5 q0 91 28.5 157 q28.5 66 80 109.5 q51.5 43.5 124 64.5 q72.5 21 160.5 21 q23 0 51.5 -1.5 q28.5 -1.5 51.5 -4.5 l393 0 l0 -131 l-295 0 l0 -136 l260 0 l0 -128 l-260 0 l0 -167 l318 0 l0 -131 l-416 0 ZM441 126 q12 0 22.5 0 q10.5 0 29.5 1 l0 439 q-20 1 -29 1 q-9 0 -23 0 q-117 0 -174 -56.5 q-57 -56.5 -57 -163.5 q0 -107 57 -164 q57 -57 174 -57 Z" /><glyph glyph-name="quoteleft" unicode="&#x2018;" d="M44 495 q-2 14 -3 29 q-1 15 -1 22 q0 67 24 127.5 q24 60.5 59 102.5 l105 -24 q-19 -43 -30.5 -97 q-11.5 -54 -11.5 -103 q0 -2 0 -8.5 q0 -6.5 0.5 -15 q0.5 -8.5 1 -17.5 q0.5 -9 1.5 -16 l-145 0 Z" /><glyph glyph-name="quoteright" unicode="&#x2019;" d="M199 767 q2 -14 3 -29 q1 -15 1 -22 q0 -67 -24 -127.5 q-24 -60.5 -59 -102.5 l-105 24 q19 43 30.5 97 q11.5 54 11.5 103 q0 2 0 8.5 q0 6.5 -0.5 15 q-0.5 8.5 -1 17.5 q-0.5 9 -1.5 16 l145 0 Z" /><glyph glyph-name="quotedblleft" unicode="&#x201c;" d="M44 495 q-2 14 -3 29 q-1 15 -1 22 q0 67 24 127.5 q24 60.5 59 102.5 l101 -23 q-19 -43 -30.5 -97.5 q-11.5 -54.5 -11.5 -103.5 q0 -2 0 -8.5 q0 -6.5 0.5 -15 q0.5 -8.5 1 -17.5 q0.5 -9 1.5 -16 l-141 0 ZM259 495 q-2 14 -3 29 q-1 15 -1 22 q0 67 24 127.5 q24 60.5 59 102.5 l101 -23 q-19 -43 -30.5 -97.5 q-11.5 -54.5 -11.5 -103.5 q0 -2 0 -8.5 q0 -6.5 0.5 -15 q0.5 -8.5 1 -17.5 q0.5 -9 1.5 -16 l-141 0 Z" /><glyph glyph-name="quotedblright" unicode="&#x201d;" d="M410 767 q2 -14 3 -29 q1 -15 1 -22 q0 -67 -24 -127.5 q-24 -60.5 -59 -102.5 l-101 23 q19 43 30.5 97.5 q11.5 54.5 11.5 103.5 q0 2 0 8.5 q0 6.5 -0.5 15 q-0.5 8.5 -1 17.5 q-0.5 9 -1.5 16 l141 0 ZM195 767 q2 -14 3 -29 q1 -15 1 -22 q0 -67 -24 -127.5 q-24 -60.5 -59 -102.5 l-101 23 q19 43 30.5 97.5 q11.5 54.5 11.5 103.5 q0 2 0 8.5 q0 6.5 -0.5 15 q-0.5 8.5 -1 17.5 q-0.5 9 -1.5 16 l141 0 Z" /><glyph glyph-name="bullet" unicode="&#x2022;" d="M326 353 q0 -29 -10 -54.5 q-10 -25.5 -29 -45 q-19 -19.5 -45.5 -31 q-26.5 -11.5 -59.5 -11.5 q-33 0 -59.5 11.5 q-26.5 11.5 -45.5 31 q-19 19.5 -29 45 q-10 25.5 -10 54.5 q0 28 10 54 q10 26 29 45.5 q19 19.5 45.5 31 q26.5 11.5 59.5 11.5 q33 0 59.5 -11.5 q26.5 -11.5 45.5 -31 q19 -19.5 29 -45.5 q10 -26 10 -54 Z" /><glyph glyph-name="endash" unicode="&#x2013;" d="M0 361 l500 0 l0 -124 l-500 0 l0 124 Z" /><glyph glyph-name="emdash" unicode="&#x2014;" d="M0 361 l1000 0 l0 -124 l-1000 0 l0 124 Z" /><glyph glyph-name="tilde" unicode="&#x2dc;" d="M374 709 q-6 -15 -16.5 -33 q-10.5 -18 -25.5 -33.5 q-15 -15.5 -34 -25.5 q-19 -10 -42 -10 q-18 0 -33.5 5.5 q-15.5 5.5 -30.5 12 q-15 6.5 -30 12 q-15 5.5 -31 5.5 q-20 0 -33 -13 q-13 -13 -21 -30 l-73 48 q6 15 16.5 33 q10.5 18 25.5 33.5 q15 15.5 34 25.5 q19 10 42 10 q18 0 33.5 -5.5 q15.5 -5.5 30.5 -12 q15 -6.5 29.5 -12 q14.5 -5.5 31.5 -5.5 q20 0 33 13 q13 13 21 30 l73 -48 Z" /><glyph glyph-name="trademark" unicode="&#x2122;" d="M352 693 l0 -103 l-102 0 l0 -249 l-118 0 l0 249 l-102 0 l0 103 l322 0 ZM791 693 q10 -59 17.5 -143.5 q7.5 -84.5 15.5 -208.5 l-115 0 l-4 187 l-59 -150 l-79 0 l-59 149 q0 -32 -0.5 -63.5 q-0.5 -31.5 -1 -57.5 q-0.5 -26 -1 -44 q-0.5 -18 -0.5 -21 l-114 0 q7 124 15 208.5 q8 84.5 16 143.5 l106 0 q21 -45 40 -91.5 q19 -46.5 39 -91.5 q20 45 40.5 95 q20.5 50 36.5 88 l107 0 Z" /><glyph glyph-name="guilsinglright" unicode="&#x203a;" d="M30 471 l113 53 l164 -240 l-164 -240 l-113 53 l101 187 l-101 187 Z" /><glyph glyph-name="oe" unicode="&#x153;" d="M676 -14 q-64 0 -115.5 20.5 q-51.5 20.5 -86.5 62.5 q-33 -40 -78 -61.5 q-45 -21.5 -96 -21.5 q-58 0 -105 20 q-47 20 -80.5 56.5 q-33.5 36.5 -51.5 88 q-18 51.5 -18 113.5 q0 62 18.5 113 q18.5 51 52.5 87 q34 36 81 56 q47 20 103 20 q116 0 181 -86 q36 48 80 67 q44 19 89 19 q112 0 177 -68 q65 -68 65 -202 q0 -13 -1 -28.5 q-1 -15.5 -2 -27.5 l-338 0 q5 -46 43 -73 q38 -27 102 -27 q42 0 81 7.5 q39 7.5 64 18.5 l20 -121 q-12 -6 -32 -12 q-20 -6 -44.5 -10.5 q-24.5 -4.5 -52.5 -7.5 q-28 -3 -56 -3 ZM410 264 q0 69 -27.5 108.5 q-27.5 39.5 -78.5 39.5 q-51 0 -79 -39.5 q-28 -39.5 -28 -108.5 q0 -69 28 -109.5 q28 -40.5 79 -40.5 q51 0 78.5 40.5 q27.5 40.5 27.5 109.5 ZM748 316 q-1 19 -6.5 37 q-5.5 18 -17 32 q-11.5 14 -29.5 23 q-18 9 -43 9 q-26 0 -43.5 -8.5 q-17.5 -8.5 -29.5 -22.5 q-12 -14 -18.5 -32.5 q-6.5 -18.5 -9.5 -37.5 l197 0 Z" /><glyph glyph-name="nonbreakingspace" unicode=" " d="" /><glyph glyph-name="exclamdown" unicode="¡" d="M223 -180 l-159 0 l0 184 q0 81 6.5 151 q6.5 70 16.5 142 l114 0 q10 -72 16 -142 q6 -70 6 -151 l0 -184 ZM236 434 q0 -44 -28.5 -68 q-28.5 -24 -64.5 -24 q-36 0 -64.5 24 q-28.5 24 -28.5 68 q0 44 28.5 68 q28.5 24 64.5 24 q36 0 64.5 -24 q28.5 -24 28.5 -68 Z" /><glyph glyph-name="cent" unicode="¢" d="M224 37 q-92 25 -135.5 94 q-43.5 69 -43.5 162 q0 44 12 84.5 q12 40.5 35.5 73.5 q23.5 33 56.5 57.5 q33 24.5 75 37.5 l0 146 l142 0 l0 -135 q26 -4 49.5 -10 q23.5 -6 46.5 -16 l-33 -119 q-21 8 -45.5 14 q-24.5 6 -55.5 6 q-63 0 -97 -37.5 q-34 -37.5 -34 -101.5 q0 -68 32 -103.5 q32 -35.5 105 -35.5 q27 0 58 5 q31 5 57 16 l21 -122 q-20 -8 -46 -14.5 q-26 -6.5 -58 -10.5 l0 -137 l-142 0 l0 146 Z" /><glyph glyph-name="sterling" unicode="£" d="M255 394 l166 0 l0 -121 l-166 0 q-1 -35 -4.5 -75 q-3.5 -40 -8.5 -73 l261 0 l0 -125 l-425 0 q18 80 24 148 q6 68 8 125 l-87 0 l0 121 l87 0 l0 53 q0 75 18 124.5 q18 49.5 49.5 79.5 q31.5 30 75.5 42.5 q44 12.5 96 12.5 q40 0 75 -8 q35 -8 68 -22 l-37 -117 q-23 11 -43.5 16 q-20.5 5 -49.5 6 q-24 0 -43.5 -5 q-19.5 -5 -33.5 -19 q-14 -14 -22 -38 q-8 -24 -8 -60 l0 -65 Z" /><glyph glyph-name="currency" unicode="¤" d="M284 544 q25 0 47.5 -4 q22.5 -4 44.5 -14 l74 71 l93 -91 l-72 -69 q21 -39 21 -90 q0 -51 -21 -90 l72 -69 l-94 -92 l-74 72 q-21 -10 -43 -14 q-22 -4 -48 -4 q-25 0 -47.5 4 q-22.5 4 -44.5 14 l-74 -71 l-93 91 l72 69 q-21 39 -21 90 q0 51 21 90 l-72 69 l94 92 l74 -72 q21 10 43 14 q22 4 48 4 ZM366 347 q0 43 -24 65 q-24 22 -58 22 q-34 0 -58 -22 q-24 -22 -24 -65 q0 -43 24 -65 q24 -22 58 -22 q34 0 58 22 q24 22 24 65 Z" /><glyph glyph-name="yen" unicode="¥" d="M209 0 l0 111 l-148 0 l0 99 l148 0 l0 65 l-148 0 l0 99 l100 0 q-21 38 -44 80 q-23 42 -45 84 q-22 42 -42 82 q-20 40 -35 73 l170 0 q31 -69 59.5 -138.5 q28.5 -69.5 62.5 -135.5 q33 66 60 136.5 q27 70.5 57 137.5 l169 0 q-38 -77 -78.5 -157.5 q-40.5 -80.5 -86.5 -161.5 l100 0 l0 -99 l-148 0 l0 -65 l148 0 l0 -99 l-148 0 l0 -111 l-151 0 Z" /><glyph glyph-name="brokenbar" unicode="¦" d="M80 212 l142 0 l0 -397 l-142 0 l0 397 ZM80 783 l142 0 l0 -397 l-142 0 l0 397 Z" /><glyph glyph-name="section" unicode="§" d="M65 54 q23 -9 43.5 -16 q20.5 -7 41 -11.5 q20.5 -4.5 42.5 -7 q22 -2.5 49 -2.5 q37 0 56 8.5 q19 8.5 19 29.5 q0 10 -4 17.5 q-4 7.5 -14.5 14.5 q-10.5 7 -28 14 q-17.5 7 -44.5 16 q-39 13 -73.5 27.5 q-34.5 14.5 -60 36 q-25.5 21.5 -40 52 q-14.5 30.5 -14.5 75.5 q0 47 22.5 79 q22.5 32 54.5 63 q-48 40 -48 96 q0 77 56.5 120 q56.5 43 162.5 43 q46 0 94.5 -10 q48.5 -10 87.5 -26 l-37 -120 q-32 14 -66.5 22 q-34.5 8 -79.5 8 q-38 0 -53.5 -8.5 q-15.5 -8.5 -15.5 -25.5 q0 -21 17 -33.5 q17 -12.5 62 -27.5 q44 -15 79 -31 q35 -16 59 -37 q24 -21 37 -50 q13 -29 13 -70 q0 -22 -5 -39.5 q-5 -17.5 -14.5 -32.5 q-9.5 -15 -23.5 -29.5 q-14 -14.5 -31 -29.5 q31 -23 44 -50.5 q13 -27.5 13 -64.5 q0 -163 -216 -163 q-77 0 -131.5 13 q-54.5 13 -89.5 31 l37 119 ZM208 384 q-16 -14 -26.5 -31 q-10.5 -17 -10.5 -34 q0 -38 33.5 -58 q33.5 -20 102.5 -43 q16 14 26.5 31 q10.5 17 10.5 34 q0 19 -8.5 32.5 q-8.5 13.5 -25 25 q-16.5 11.5 -42.5 21.5 q-26 10 -60 22 Z" /><glyph glyph-name="dieresis" unicode="¨" d="M156 602 q-31 0 -54 20.5 q-23 20.5 -23 55.5 q0 35 23 55.5 q23 20.5 54 20.5 q31 0 54 -20.5 q23 -20.5 23 -55.5 q0 -35 -23 -55.5 q-23 -20.5 -54 -20.5 ZM379 602 q-31 0 -54 20.5 q-23 20.5 -23 55.5 q0 35 23 55.5 q23 20.5 54 20.5 q31 0 54 -20.5 q23 -20.5 23 -55.5 q0 -35 -23 -55.5 q-23 -20.5 -54 -20.5 Z" /><glyph glyph-name="copyright" unicode="©" d="M746 347 q0 -85 -28.5 -152.5 q-28.5 -67.5 -76.5 -114 q-48 -46.5 -111 -71 q-63 -24.5 -132 -24.5 q-69 0 -132 24.5 q-63 24.5 -111 71 q-48 46.5 -76.5 114 q-28.5 67.5 -28.5 152.5 q0 85 28.5 152.5 q28.5 67.5 76.5 114 q48 46.5 111 71 q63 24.5 132 24.5 q69 0 132 -24.5 q63 -24.5 111 -71 q48 -46.5 76.5 -114 q28.5 -67.5 28.5 -152.5 ZM644 347 q0 60 -18 109 q-18 49 -50.5 84 q-32.5 35 -78 54 q-45.5 19 -99.5 19 q-54 0 -99.5 -19 q-45.5 -19 -78 -54 q-32.5 -35 -50.5 -84 q-18 -49 -18 -109 q0 -60 18 -109 q18 -49 50.5 -84 q32.5 -35 78 -54 q45.5 -19 99.5 -19 q54 0 99.5 19 q45.5 19 78 54 q32.5 35 50.5 84 q18 49 18 109 ZM414 160 q-89 0 -136 49 q-47 49 -47 140 q0 90 49.5 139 q49.5 49 130.5 49 q48 0 77.5 -13 q29.5 -13 40.5 -19 l-32 -88 q-14 8 -31.5 13.5 q-17.5 5.5 -45.5 5.5 q-33 0 -53 -21 q-20 -21 -20 -61 q0 -18 3 -34.5 q3 -16.5 11 -29 q8 -12.5 22 -20.5 q14 -8 37 -8 q30 0 50 7 q20 7 36 13 l28 -91 q-13 -7 -44 -19 q-31 -12 -76 -12 Z" /><glyph glyph-name="ordfeminine" unicode="ª" d="M200 393 q16 0 30.5 1 q14.5 1 23.5 2 l0 78 q-7 2 -20 3.5 q-13 1.5 -24 1.5 q-30 0 -52 -8 q-22 -8 -22 -34 q0 -26 17.5 -35 q17.5 -9 46.5 -9 ZM191 708 q48 0 80.5 -10.5 q32.5 -10.5 52.5 -30.5 q20 -20 28.5 -48 q8.5 -28 8.5 -64 l0 -227 q-23 -5 -66.5 -12.5 q-43.5 -7.5 -101.5 -7.5 q-79 0 -124 28 q-45 28 -45 98 q0 34 13.5 56.5 q13.5 22.5 36 36.5 q22.5 14 53 20 q30.5 6 63.5 6 q20 0 36.5 -2 q16.5 -2 27.5 -4 l0 10 q0 28 -17 43.5 q-17 15.5 -58 15.5 q-28 0 -56 -4 q-28 -4 -48 -11 l-15 89 q19 6 56.5 12 q37.5 6 74.5 6 Z" /><glyph glyph-name="logicalnot" unicode="¬" d="M520 47 l-136 0 l0 234 l-334 0 l0 125 l470 0 l0 -359 Z" /><glyph glyph-name="registered" unicode="®" d="M746 347 q0 -86 -28.5 -153 q-28.5 -67 -76.5 -113.5 q-48 -46.5 -111 -71 q-63 -24.5 -132 -24.5 q-69 0 -132 24.5 q-63 24.5 -111 71 q-48 46.5 -76.5 113.5 q-28.5 67 -28.5 153 q0 85 28.5 152.5 q28.5 67.5 76.5 114 q48 46.5 111 71 q63 24.5 132 24.5 q69 0 132 -24.5 q63 -24.5 111 -71 q48 -46.5 76.5 -114 q28.5 -67.5 28.5 -152.5 ZM644 347 q0 60 -18 109 q-18 49 -50.5 84 q-32.5 35 -78 54 q-45.5 19 -99.5 19 q-54 0 -99.5 -19 q-45.5 -19 -78 -54 q-32.5 -35 -50.5 -84 q-18 -49 -18 -109 q0 -60 18 -109 q18 -49 50.5 -84 q32.5 -35 78 -54 q45.5 -19 99.5 -19 q54 0 99.5 19 q45.5 19 78 54 q32.5 35 50.5 84 q18 49 18 109 ZM459 177 q-17 38 -29 66.5 q-12 28.5 -27 51.5 l-40 0 l0 -118 l-97 0 l0 342 q34 8 63.5 11.5 q29.5 3.5 51.5 3.5 q161 0 161 -121 q0 -62 -54 -91 q11 -17 19.5 -32.5 q8.5 -15.5 17 -32 q8.5 -16.5 17 -36 q8.5 -19.5 19.5 -44.5 l-102 0 ZM363 373 l18 0 q32 0 48 8.5 q16 8.5 16 32.5 q0 20 -14 28 q-14 8 -41 8 q-7 0 -14.5 -0.5 q-7.5 -0.5 -12.5 -1.5 l0 -75 Z" /><glyph glyph-name="macron" unicode="¯" d="M27 725 l322 0 l0 -102 l-322 0 l0 102 Z" /><glyph glyph-name="degree" unicode="°" d="M181 781 q32 0 61.5 -10.5 q29.5 -10.5 51.5 -31 q22 -20.5 35 -49 q13 -28.5 13 -64.5 q0 -36 -13 -64.5 q-13 -28.5 -35 -49 q-22 -20.5 -51.5 -31 q-29.5 -10.5 -61.5 -10.5 q-32 0 -61.5 10.5 q-29.5 10.5 -51.5 31 q-22 20.5 -35 49 q-13 28.5 -13 64.5 q0 36 13 64.5 q13 28.5 35 49 q22 20.5 51.5 31 q29.5 10.5 61.5 10.5 ZM181 569 q21 0 38 15.5 q17 15.5 17 41.5 q0 26 -17 41.5 q-17 15.5 -38 15.5 q-21 0 -38 -15.5 q-17 -15.5 -17 -41.5 q0 -26 17 -41.5 q17 -15.5 38 -15.5 Z" /><glyph glyph-name="plusminus" unicode="±" d="M49 455 l167 0 l0 170 l136 0 l0 -170 l167 0 l0 -125 l-167 0 l0 -170 l-136 0 l0 170 l-167 0 l0 125 ZM49 125 l470 0 l0 -125 l-470 0 l0 125 Z" /><glyph glyph-name="twosuperior" unicode="²" d="M312 586 q0 -22 -7 -40 q-7 -18 -18.5 -33.5 q-11.5 -15.5 -26.5 -29 q-15 -13.5 -30 -26.5 q-17 -14 -35 -31.5 q-18 -17.5 -29 -32.5 l156 0 l0 -91 l-287 0 q-1 8 -1 14.5 q0 6.5 0 13.5 q0 49 26.5 88.5 q26.5 39.5 77.5 82.5 q27 23 43.5 40 q16.5 17 16.5 35 q0 15 -9 24 q-9 9 -26 9 q-29 0 -53.5 -11.5 q-24.5 -11.5 -41.5 -25.5 l-52 78 q26 22 66.5 40.5 q40.5 18.5 85.5 18.5 q39 0 66.5 -9 q27.5 -9 44.5 -25.5 q17 -16.5 25 -39 q8 -22.5 8 -49.5 Z" /><glyph glyph-name="threesuperior" unicode="³" d="M149 388 q35 0 49 10.5 q14 10.5 14 26.5 q0 41 -70 41 l-41 0 l0 82 l41 0 q23 0 38 9 q15 9 15 27 q0 32 -44 32 q-23 0 -46 -7.5 q-23 -7.5 -44 -17.5 l-38 79 q25 16 62.5 27.5 q37.5 11.5 73.5 11.5 q40 0 67.5 -9 q27.5 -9 44 -24.5 q16.5 -15.5 23.5 -36 q7 -20.5 7 -42.5 q0 -21 -9.5 -40 q-9.5 -19 -32.5 -37 q32 -15 46.5 -40 q14.5 -25 14.5 -56 q0 -27 -9 -51 q-9 -24 -29 -41.5 q-20 -17.5 -52.5 -27.5 q-32.5 -10 -79.5 -10 q-17 0 -35.5 2 q-18.5 2 -36.5 6 q-18 4 -33.5 8.5 q-15.5 4.5 -27.5 10.5 l23 89 q34 -14 57.5 -18 q23.5 -4 51.5 -4 Z" /><glyph glyph-name="acute" unicode="´" d="M259 715 l-165 -139 l-68 61 l142 162 l91 -84 Z" /><glyph glyph-name="mu" unicode="µ" d="M219 526 l0 -282 q0 -38 5.5 -63 q5.5 -25 17 -39.5 q11.5 -14.5 28.5 -20.5 q17 -6 40 -6 q16 0 33.5 1.5 q17.5 1.5 31.5 3.5 l0 406 l149 0 l0 -508 q-39 -11 -93.5 -19.5 q-54.5 -8.5 -117.5 -8.5 q-26 0 -53 5 q-27 5 -46 14 q2 -20 3.5 -40.5 q1.5 -20.5 1.5 -57.5 l0 -77 l-149 0 l0 692 l149 0 Z" /><glyph glyph-name="paragraph" unicode="¶" d="M259 258 q-112 15 -165.5 66.5 q-53.5 51.5 -53.5 151.5 q0 109 85.5 167 q85.5 58 246.5 58 q31 0 65.5 -2 q34.5 -2 68.5 -5 q34 -3 66 -8 q32 -5 58 -11 l0 -861 l-141 0 l0 760 q-14 2 -40 3 q-26 1 -48 1 l0 -764 l-142 0 l0 444 Z" /><glyph glyph-name="cedilla" unicode="¸" d="M215 -40 q32 -16 44 -38 q12 -22 12 -45 q0 -48 -37.5 -73 q-37.5 -25 -100.5 -25 q-22 0 -44 3.5 q-22 3.5 -44 9.5 l18 87 q7 -2 25.5 -6.5 q18.5 -4.5 36.5 -4.5 q14 0 24.5 5.5 q10.5 5.5 11.5 19.5 q1 12 -9.5 22 q-10.5 10 -33.5 15 l-12 3 q3 10 8.5 23 q5.5 13 11.5 25.5 q6 12.5 11 23 q5 10.5 8 15.5 l99 0 q-6 -11 -15 -29.5 q-9 -18.5 -14 -30.5 Z" /><glyph glyph-name="onesuperior" unicode="¹" d="M38 618 q42 17 81.5 38.5 q39.5 21.5 68.5 44.5 l87 0 l0 -399 l-114 0 l0 270 q-20 -11 -41 -20.5 q-21 -9.5 -51 -20.5 l-31 87 Z" /><glyph glyph-name="ordmasculine" unicode="º" d="M424 506 q0 -47 -14.5 -84 q-14.5 -37 -40 -62.5 q-25.5 -25.5 -61.5 -39.5 q-36 -14 -79 -14 q-43 0 -79 14 q-36 14 -62 39.5 q-26 25.5 -40.5 62.5 q-14.5 37 -14.5 84 q0 48 14.5 85.5 q14.5 37.5 40.5 63.5 q26 26 62 40 q36 14 79 14 q43 0 79 -14 q36 -14 61.5 -40 q25.5 -26 40 -63.5 q14.5 -37.5 14.5 -85.5 ZM310 506 q0 48 -21 75.5 q-21 27.5 -60 27.5 q-38 0 -60 -27.5 q-22 -27.5 -22 -75.5 q0 -45 21.5 -72.5 q21.5 -27.5 60.5 -27.5 q39 0 60 27.5 q21 27.5 21 72.5 Z" /><glyph glyph-name="questiondown" unicode="¿" d="M254 -70 q36 0 68 9 q32 9 71 29 l42 -113 q-39 -25 -92 -38.5 q-53 -13.5 -104 -13.5 q-64 0 -105.5 17 q-41.5 17 -65.5 43 q-24 26 -33.5 57 q-9.5 31 -9.5 59 q0 28 8.5 51.5 q8.5 23.5 21.5 43.5 q13 20 29.5 38 q16.5 18 33.5 34 q12 12 25 25.5 q13 13.5 23.5 28.5 q10.5 15 17.5 31.5 q7 16.5 7 33.5 q0 4 0 12 q0 8 -1 14 l132 0 q2 -10 2.5 -22.5 q0.5 -12.5 0.5 -21.5 q0 -28 -7 -51 q-7 -23 -18.5 -42.5 q-11.5 -19.5 -26.5 -36 q-15 -16.5 -31 -32.5 q-23 -23 -42 -45.5 q-19 -22.5 -19 -51.5 q0 -24 18.5 -41 q18.5 -17 54.5 -17 ZM161 433 q0 44 28.5 68 q28.5 24 64.5 24 q36 0 64.5 -24 q28.5 -24 28.5 -68 q0 -44 -28.5 -68 q-28.5 -24 -64.5 -24 q-36 0 -64.5 24 q-28.5 24 -28.5 68 Z" /><glyph glyph-name="Aring" unicode="å" d="M544 0 q-11 36 -24.5 74 q-13.5 38 -26.5 76 l-270 0 q-13 -38 -26.5 -76 q-13.5 -38 -24.5 -74 l-162 0 q38 109 72 202.5 q34 93.5 67 176 q33 82.5 65 156.5 q32 74 66 145 q-17 15 -27 36.5 q-10 21.5 -10 50.5 q0 28 9.5 49.5 q9.5 21.5 26 36 q16.5 14.5 37.5 22 q21 7.5 44 7.5 q24 0 45.5 -7.5 q21.5 -7.5 38 -22 q16.5 -14.5 26 -36 q9.5 -21.5 9.5 -49.5 q0 -29 -10.5 -51 q-10.5 -22 -27.5 -36 q33 -71 65.5 -145 q32.5 -74 65 -156.5 q32.5 -82.5 67 -176 q34.5 -93.5 72.5 -202.5 l-167 0 ZM357 536 q-5 -15 -15 -41 q-10 -26 -23 -60 q-13 -34 -28.5 -75 q-15.5 -41 -31.5 -86 l197 0 q-16 45 -31 86 q-15 41 -28.5 75 q-13.5 34 -23.5 60 q-10 26 -16 41 ZM406 767 q0 23 -14 35 q-14 12 -32 12 q-17 0 -31 -12 q-14 -12 -14 -35 q0 -23 14 -35 q14 -12 31 -12 q18 0 32 12 q14 12 14 35 Z" /><glyph glyph-name="AE" unicode="æ" d="M490 164 l-220 0 q-21 -38 -46 -82 q-25 -44 -43 -82 l-171 0 q122 219 227 390.5 q105 171.5 199 302.5 l500 0 l0 -131 l-295 0 l0 -136 l260 0 l0 -128 l-260 0 l0 -167 l318 0 l0 -131 l-469 0 l0 164 ZM490 542 q-16 -23 -36 -55 q-20 -32 -41.5 -66.5 q-21.5 -34.5 -42 -69.5 q-20.5 -35 -37.5 -63 l157 0 l0 254 Z" /><glyph glyph-name="Ccedilla" unicode="ç" d="M432 -13 q-4 -8 -7 -15 q-3 -7 -5 -12 q32 -16 44 -38 q12 -22 12 -45 q0 -48 -38 -73 q-38 -25 -100 -25 q-22 0 -44 3.5 q-22 3.5 -44 9.5 l18 87 q7 -2 25.5 -6.5 q18.5 -4.5 36.5 -4.5 q14 0 24.5 5.5 q10.5 5.5 11.5 19.5 q1 12 -9.5 22 q-10.5 10 -33.5 15 l-12 3 q4 12 10.5 27.5 q6.5 15.5 12.5 29.5 q-140 17 -212 108.5 q-72 91.5 -72 248.5 q0 86 27 153.5 q27 67.5 74 114 q47 46.5 112 70.5 q65 24 141 24 q44 0 80 -6.5 q36 -6.5 63 -15 q27 -8.5 45 -17.5 q18 -9 26 -14 l-45 -126 q-32 17 -74.5 29 q-42.5 12 -96.5 12 q-36 0 -70.5 -12 q-34.5 -12 -61 -38.5 q-26.5 -26.5 -42.5 -68.5 q-16 -42 -16 -102 q0 -48 10.5 -89.5 q10.5 -41.5 34 -71.5 q23.5 -30 61.5 -47.5 q38 -17.5 92 -17.5 q34 0 61 4 q27 4 48 9.5 q21 5.5 37 12.5 q16 7 29 13 l43 -125 q-29 -18 -79.5 -32.5 q-50.5 -14.5 -116.5 -18.5 Z" /><glyph glyph-name="Eth" unicode="ð" d="M247 127 q11 -1 25.5 -1.5 q14.5 -0.5 34.5 -0.5 q117 0 173.5 59 q56.5 59 56.5 163 q0 109 -54 165 q-54 56 -171 56 q-16 0 -33 -0.5 q-17 -0.5 -32 -2.5 l0 -148 l126 0 l0 -115 l-126 0 l0 -175 ZM698 347 q0 -90 -28 -157 q-28 -67 -79.5 -111 q-51.5 -44 -125.5 -66 q-74 -22 -166 -22 q-42 0 -98 3.5 q-56 3.5 -110 14.5 l0 293 l-81 0 l0 115 l81 0 l0 267 q54 10 112.5 13.5 q58.5 3.5 100.5 3.5 q89 0 161.5 -20 q72.5 -20 124.5 -63 q52 -43 80 -110 q28 -67 28 -161 Z" /><glyph glyph-name="multiply" unicode="×" d="M420 522 l87 -87 l-136 -136 l136 -135 l-87 -87 l-136 136 l-135 -136 l-87 87 l136 135 l-136 136 l87 87 l135 -136 l136 136 Z" /><glyph glyph-name="Oslash" unicode="ø" d="M740 347 q0 -89 -26.5 -156.5 q-26.5 -67.5 -72.5 -113 q-46 -45.5 -109.5 -68.5 q-63.5 -23 -136.5 -23 q-50 0 -95.5 10.5 q-45.5 10.5 -84.5 33.5 l-58 -75 l-85 63 l61 78 q-39 45 -61 107.5 q-22 62.5 -22 143.5 q0 89 28 156.5 q28 67.5 75.5 113.5 q47.5 46 110 69 q62.5 23 131.5 23 q99 0 178 -44 l56 73 l85 -63 l-59 -76 q40 -45 62.5 -108 q22.5 -63 22.5 -144 ZM579 347 q0 72 -24 123 l-251 -325 q41 -22 91 -22 q43 0 77.5 16 q34.5 16 58 45.5 q23.5 29.5 36 70.5 q12.5 41 12.5 92 ZM211 347 q0 -69 23 -120 l250 323 q-39 22 -89 22 q-44 0 -78 -16.5 q-34 -16.5 -57.5 -46 q-23.5 -29.5 -36 -71 q-12.5 -41.5 -12.5 -91.5 Z" /><glyph glyph-name="Thorn" unicode="þ" d="M308 596 q66 0 121.5 -12.5 q55.5 -12.5 95.5 -40.5 q40 -28 62 -72 q22 -44 22 -107 q0 -125 -84 -180.5 q-84 -55.5 -240 -55.5 l-49 0 l0 -128 l-156 0 l0 693 l156 0 l0 -100 q7 1 17 1.5 q10 0.5 20 1 q10 0.5 19.5 0.5 q9.5 0 15.5 0 ZM298 464 q-17 0 -33.5 -1 q-16.5 -1 -28.5 -2 l0 -200 l49 0 q81 0 122 22 q41 22 41 82 q0 29 -10.5 48 q-10.5 19 -30 30.5 q-19.5 11.5 -47.5 16 q-28 4.5 -62 4.5 Z" /><glyph glyph-name="germandbls" unicode="ß" d="M528 610 q0 -42 -8.5 -67 q-8.5 -25 -28.5 -48 q-22 -26 -39.5 -48 q-17.5 -22 -17.5 -50 q0 -15 8 -26 q8 -11 21 -21 q13 -10 30.5 -20 q17.5 -10 37.5 -21 q36 -21 63 -55 q27 -34 27 -88 q0 -86 -49 -132 q-49 -46 -162 -46 q-55 0 -88 10 q-33 10 -53 18 l25 120 q10 -4 24 -8.5 q14 -4.5 29 -8.5 q15 -4 30.5 -6.5 q15.5 -2.5 29.5 -2.5 q67 0 67 54 q0 26 -27 46.5 q-27 20.5 -69 39.5 q-29 13 -46.5 28 q-17.5 15 -26.5 31.5 q-9 16.5 -12 33.5 q-3 17 -3 35 q0 42 19 70.5 q19 28.5 45 58.5 q17 20 26 37 q9 17 9 43 q0 33 -21 49 q-21 16 -57 16 q-48 0 -71.5 -30 q-23.5 -30 -23.5 -86 l0 -536 l-146 0 l0 533 q0 53 14 97.5 q14 44.5 43.5 77 q29.5 32.5 74 50.5 q44.5 18 105.5 18 q58 0 100 -13.5 q42 -13.5 69 -36 q27 -22.5 39.5 -53 q12.5 -30.5 12.5 -63.5 Z" /><glyph glyph-name="ae" unicode="æ" d="M259 540 q31 0 56 -4 q25 -4 44.5 -12.5 q19.5 -8.5 35.5 -22 q16 -13.5 30 -32.5 q34 38 77 54.5 q43 16.5 92 16.5 q54 0 97 -17.5 q43 -17.5 74 -51.5 q31 -34 47.5 -84.5 q16.5 -50.5 16.5 -116.5 q0 -13 -1 -28.5 q-1 -15.5 -2 -27.5 l-338 0 q5 -46 43 -73 q38 -27 102 -27 q41 0 80.5 7.5 q39.5 7.5 64.5 18.5 l20 -121 q-12 -6 -32 -12 q-20 -6 -44.5 -10.5 q-24.5 -4.5 -52.5 -7.5 q-28 -3 -56 -3 q-59 0 -103 13 q-44 13 -75 34 q-75 -44 -174 -44 q-51 0 -92.5 9 q-41.5 9 -71.5 29.5 q-30 20.5 -46 53.5 q-16 33 -16 81 q0 46 18.5 78 q18.5 32 49.5 51 q31 19 71 27.5 q40 8.5 83 8.5 q29 0 51.5 -2.5 q22.5 -2.5 36.5 -6.5 l0 17 q0 38 -23 59.5 q-23 21.5 -80 21.5 q-38 0 -75 -5.5 q-37 -5.5 -64 -15.5 l-19 120 q13 4 32.5 8.5 q19.5 4.5 42.5 8 q23 3.5 48.5 6 q25.5 2.5 51.5 2.5 ZM271 104 q31 0 56.5 3.5 q25.5 3.5 44.5 11.5 q-14 36 -19 58.5 q-5 22.5 -6 45.5 q-14 2 -33 3 q-19 1 -29 1 q-21 0 -39.5 -2.5 q-18.5 -2.5 -32.5 -9.5 q-14 -7 -22 -19 q-8 -12 -8 -30 q0 -35 23.5 -48.5 q23.5 -13.5 64.5 -13.5 ZM684 316 q-1 19 -6.5 37 q-5.5 18 -17 32 q-11.5 14 -29 23 q-17.5 9 -43.5 9 q-25 0 -43 -8.5 q-18 -8.5 -30 -22.5 q-12 -14 -18.5 -32.5 q-6.5 -18.5 -9.5 -37.5 l197 0 Z" /><glyph glyph-name="ccedilla" unicode="ç" d="M328 -40 q32 -16 44 -38 q12 -22 12 -45 q0 -48 -38 -73 q-38 -25 -100 -25 q-22 0 -44 3.5 q-22 3.5 -44 9.5 l18 87 q7 -2 25.5 -6.5 q18.5 -4.5 36.5 -4.5 q14 0 24.5 5.5 q10.5 5.5 11.5 19.5 q1 12 -9.5 22 q-10.5 10 -33.5 15 l-12 3 q4 13 11 29.5 q7 16.5 14 30.5 q-52 10 -89.5 34.5 q-37.5 24.5 -62 60 q-24.5 35.5 -36 80.5 q-11.5 45 -11.5 95 q0 57 18.5 107.5 q18.5 50.5 53.5 88 q35 37.5 85 59.5 q50 22 114 22 q42 0 77 -7.5 q35 -7.5 68 -21.5 l-31 -119 q-21 8 -46 14 q-25 6 -56 6 q-66 0 -98.5 -41 q-32.5 -41 -32.5 -108 q0 -71 30.5 -110 q30.5 -39 106.5 -39 q27 0 58 5 q31 5 57 16 l21 -122 q-23 -10 -56.5 -17 q-33.5 -7 -73.5 -9 q-4 -8 -7 -15 q-3 -7 -5 -12 Z" /><glyph glyph-name="eth" unicode="ð" d="M483 603 q35 -60 55 -130 q20 -70 20 -149 q0 -75 -15.5 -137 q-15.5 -62 -47.5 -106.5 q-32 -44.5 -81.5 -69.5 q-49.5 -25 -117.5 -25 q-63 0 -110 20 q-47 20 -78.5 53.5 q-31.5 33.5 -47 78.5 q-15.5 45 -15.5 96 q0 55 15.5 101 q15.5 46 46.5 78 q31 32 78 50 q47 18 110 18 q26 0 54.5 -7.5 q28.5 -7.5 48.5 -17.5 q-12 53 -43 103 l-111 -37 l-29 84 l80 27 q-17 17 -36 32 q-19 15 -39 29 l83 86 q35 -20 66.5 -45.5 q31.5 -25.5 58.5 -56.5 l115 39 l29 -84 l-89 -30 ZM406 313 q0 2 0 6.5 q0 4.5 -1 9.5 q-25 20 -50.5 26.5 q-25.5 6.5 -49.5 6.5 q-32 0 -53 -10 q-21 -10 -34 -27 q-13 -17 -18 -40 q-5 -23 -5 -49 q0 -54 24.5 -87.5 q24.5 -33.5 76.5 -33.5 q33 0 54.5 16.5 q21.5 16.5 34 44 q12.5 27.5 17 63.5 q4.5 36 4.5 74 Z" /><glyph glyph-name="divide" unicode="÷" d="M370 501 q0 -42 -26 -63 q-26 -21 -59 -21 q-33 0 -59 21 q-26 21 -26 63 q0 42 26 63 q26 21 59 21 q33 0 59 -21 q26 -21 26 -63 ZM370 96 q0 -42 -26 -63 q-26 -21 -59 -21 q-33 0 -59 21 q-26 21 -26 63 q0 42 26 63 q26 21 59 21 q33 0 59 -21 q26 -21 26 -63 ZM49 361 l470 0 l0 -125 l-470 0 l0 125 Z" /><glyph glyph-name="oslash" unicode="ø" d="M562 264 q0 -62 -18 -113.5 q-18 -51.5 -52 -88 q-34 -36.5 -81.5 -56.5 q-47.5 -20 -106.5 -20 q-75 0 -134 34 l-45 -59 l-70 53 l49 63 q-29 36 -44 83 q-15 47 -15 104 q0 62 19.5 113 q19.5 51 54 87 q34.5 36 82 56 q47.5 20 103.5 20 q37 0 70 -8.5 q33 -8.5 61 -24.5 l46 59 l70 -53 l-49 -63 q29 -35 44.5 -82 q15.5 -47 15.5 -104 ZM418 264 q0 34 -8 66 l-161 -209 q24 -15 55 -15 q54 0 84 42.5 q30 42.5 30 115.5 ZM189 264 q0 -19 1.5 -35.5 q1.5 -16.5 6.5 -30.5 l160 208 q-23 14 -53 14 q-54 0 -84.5 -41.5 q-30.5 -41.5 -30.5 -114.5 Z" /><glyph glyph-name="thorn" unicode="þ" d="M559 263 q0 -61 -15 -111 q-15 -50 -44 -86 q-29 -36 -72 -56 q-43 -20 -99 -20 q-31 0 -58 6 q-27 6 -52 17 l0 -198 l-149 0 l0 937 l149 24 l0 -248 q17 5 38 7.5 q21 2.5 37 2.5 q61 0 110 -19.5 q49 -19.5 83.5 -55 q34.5 -35.5 53 -86.5 q18.5 -51 18.5 -114 ZM407 259 q0 69 -30.5 110.5 q-30.5 41.5 -87.5 41.5 q-20 0 -39.5 -2.5 q-19.5 -2.5 -30.5 -6.5 l0 -265 q14 -9 36.5 -15 q22.5 -6 45.5 -6 q106 0 106 143 Z" /><glyph glyph-name="Aogonek" unicode="&#x104;" d="M632 -221 q-67 0 -96 25 q-29 25 -29 66 q0 21 9 41 q9 20 24 39 q12 15 25.5 27.5 q13.5 12.5 26.5 22.5 l-48 0 q-11 36 -24.5 74 q-13.5 38 -26.5 76 l-270 0 q-13 -38 -26.5 -76 q-13.5 -38 -24.5 -74 l-162 0 q39 112 74 207 q35 95 68.5 179 q33.5 84 66 159.5 q32.5 75.5 67.5 147.5 l149 0 q34 -71 66.5 -145.5 q32.5 -74.5 66 -158 q33.5 -83.5 68.5 -179.5 q35 -96 75 -210 q-11 -8 -22.5 -19 q-11.5 -11 -22.5 -22 q-13 -13 -20.5 -24.5 q-7.5 -11.5 -7.5 -22.5 q0 -11 6.5 -18 q6.5 -7 23.5 -7 q9 0 21.5 1.5 q12.5 1.5 29.5 6.5 l12 -100 q-20 -8 -48 -12 q-28 -4 -51 -4 ZM357 536 q-5 -15 -15 -41 q-10 -26 -23 -60 q-13 -34 -28.5 -75 q-15.5 -41 -31.5 -86 l197 0 q-16 45 -31 86 q-15 41 -28.5 75 q-13.5 34 -23.5 60 q-10 26 -16 41 Z" /><glyph glyph-name="aogonek" unicode="&#x105;" d="M271 104 q22 0 42 1 q20 1 32 3 l0 113 q-9 2 -27 4 q-18 2 -33 2 q-21 0 -39.5 -2.5 q-18.5 -2.5 -32.5 -9.5 q-14 -7 -22 -19 q-8 -12 -8 -30 q0 -35 23.5 -48.5 q23.5 -13.5 64.5 -13.5 ZM259 540 q66 0 110 -15 q44 -15 70.5 -43 q26.5 -28 37.5 -68 q11 -40 11 -89 l0 -310 q-10 -8 -28 -23.5 q-18 -15.5 -35 -32.5 q-13 -13 -20.5 -24.5 q-7.5 -11.5 -7.5 -22.5 q0 -11 6.5 -18 q6.5 -7 23.5 -7 q9 0 21.5 1.5 q12.5 1.5 29.5 6.5 l12 -100 q-20 -8 -48 -12 q-28 -4 -51 -4 q-67 0 -96 25 q-29 25 -29 66 q0 21 9 41 q9 20 24 39 q18 23 41 42 q-17 -2 -38 -2.5 q-21 -0.5 -41 -0.5 q-51 0 -92.5 9 q-41.5 9 -71.5 29.5 q-30 20.5 -46 53.5 q-16 33 -16 81 q0 46 18.5 78 q18.5 32 49.5 51 q31 19 71 27.5 q40 8.5 83 8.5 q29 0 51.5 -2.5 q22.5 -2.5 36.5 -6.5 l0 14 q0 38 -23 61 q-23 23 -80 23 q-38 0 -75 -5.5 q-37 -5.5 -64 -15.5 l-19 120 q13 4 32.5 8.5 q19.5 4.5 42.5 8 q23 3.5 48.5 6 q25.5 2.5 51.5 2.5 Z" /><glyph glyph-name="dcroat" unicode="&#x111;" d="M534 689 l62 0 l0 -93 l-62 0 l0 -579 q-20 -6 -46 -11.5 q-26 -5.5 -54.5 -9.5 q-28.5 -4 -58 -6.5 q-29.5 -2.5 -56.5 -2.5 q-65 0 -116 19 q-51 19 -86 54 q-35 35 -53.5 84 q-18.5 49 -18.5 109 q0 61 16 110.5 q16 49.5 46 85 q30 35.5 73.5 55 q43.5 19.5 99.5 19.5 q31 0 55.5 -6 q24.5 -6 49.5 -17 l0 96 l-143 0 l0 93 l143 0 l0 63 l149 24 l0 -87 ZM197 260 q0 -63 31.5 -104.5 q31.5 -41.5 91.5 -41.5 q40 0 65 5 l0 257 q-14 9 -36.5 15 q-22.5 6 -45.5 6 q-54 0 -80 -35.5 q-26 -35.5 -26 -101.5 Z" /><glyph glyph-name="Eogonek" unicode="&#x118;" d="M492 -221 q-67 0 -96 25 q-29 25 -29 66 q0 21 9 41 q9 20 24 39 q12 15 25.5 27.5 q13.5 12.5 26.5 22.5 l-372 0 l0 693 l468 0 l0 -131 l-312 0 l0 -136 l277 0 l0 -128 l-277 0 l0 -167 l335 0 l0 -131 q-10 -8 -22 -19 q-12 -11 -23 -22 q-13 -13 -20.5 -24.5 q-7.5 -11.5 -7.5 -22.5 q0 -11 6.5 -18 q6.5 -7 23.5 -7 q9 0 21.5 1.5 q12.5 1.5 29.5 6.5 l12 -100 q-20 -8 -48 -12 q-28 -4 -51 -4 Z" /><glyph glyph-name="eogonek" unicode="&#x119;" d="M402 -221 q-67 0 -96 25 q-29 25 -29 66 q0 21 9 41 q9 20 24 39 q8 11 17 19.5 q9 8.5 18 16.5 l-22 0 q-71 0 -123.5 21 q-52.5 21 -87 57.5 q-34.5 36.5 -51 86.5 q-16.5 50 -16.5 108 q0 70 21.5 122.5 q21.5 52.5 56.5 87.5 q35 35 80.5 53 q45.5 18 93.5 18 q112 0 177 -68.5 q65 -68.5 65 -201.5 q0 -13 -1 -28.5 q-1 -15.5 -2 -27.5 l-338 0 q5 -46 43 -73 q38 -27 102 -27 q41 0 80.5 7.5 q39.5 7.5 64.5 18.5 l20 -121 q-15 -10 -35.5 -26.5 q-20.5 -16.5 -36.5 -33.5 q-13 -13 -20.5 -24.5 q-7.5 -11.5 -7.5 -22.5 q0 -11 6.5 -18 q6.5 -7 23.5 -7 q9 0 21.5 1.5 q12.5 1.5 29.5 6.5 l12 -100 q-20 -8 -48 -12 q-28 -4 -51 -4 ZM395 316 q-1 19 -6.5 37 q-5.5 18 -17 32 q-11.5 14 -29 23 q-17.5 9 -43.5 9 q-25 0 -43 -8.5 q-18 -8.5 -30 -22.5 q-12 -14 -18.5 -32.5 q-6.5 -18.5 -9.5 -37.5 l197 0 Z" /><glyph glyph-name="Hbar" unicode="&#x126;" d="M10 612 l81 0 l0 81 l156 0 l0 -81 l262 0 l0 81 l156 0 l0 -81 l81 0 l0 -110 l-81 0 l0 -502 l-156 0 l0 284 l-262 0 l0 -284 l-156 0 l0 502 l-81 0 l0 110 ZM509 502 l-262 0 l0 -84 l262 0 l0 84 Z" /><glyph glyph-name="hbar" unicode="&#x127;" d="M18 689 l62 0 l0 63 l149 24 l0 -87 l143 0 l0 -93 l-143 0 l0 -87 q15 5 38.5 9.5 q23.5 4.5 45.5 4.5 q64 0 106.5 -17.5 q42.5 -17.5 68 -49.5 q25.5 -32 36 -76 q10.5 -44 10.5 -98 l0 -282 l-149 0 l0 264 q0 72 -18.5 102 q-18.5 30 -68.5 30 q-20 0 -37.5 -3.5 q-17.5 -3.5 -31.5 -7.5 l0 -385 l-149 0 l0 596 l-62 0 l0 93 Z" /><glyph glyph-name="Iogonek" unicode="&#x12e;" d="M80 693 l156 0 l0 -693 q-10 -8 -22 -19 q-12 -11 -23 -22 q-13 -13 -20.5 -24.5 q-7.5 -11.5 -7.5 -22.5 q0 -11 6.5 -18 q6.5 -7 23.5 -7 q9 0 21.5 1.5 q12.5 1.5 29.5 6.5 l12 -100 q-20 -8 -48 -12 q-28 -4 -51 -4 q-67 0 -96 25 q-29 25 -29 66 q0 21 9 41 q9 20 24 39 q12 15 25.5 27.5 q13.5 12.5 26.5 22.5 l-37 0 l0 693 Z" /><glyph glyph-name="iogonek" unicode="&#x12f;" d="M140 -221 q-67 0 -96 25 q-29 25 -29 66 q0 21 9 41 q9 20 24 39 q12 15 25.5 27.5 q13.5 12.5 26.5 22.5 l-30 0 l0 526 l149 0 l0 -526 q-10 -8 -22 -19 q-12 -11 -23 -22 q-13 -13 -20.5 -24.5 q-7.5 -11.5 -7.5 -22.5 q0 -11 6.5 -18 q6.5 -7 23.5 -7 q9 0 21.5 1.5 q12.5 1.5 29.5 6.5 l12 -100 q-20 -8 -48 -12 q-28 -4 -51 -4 ZM233 678 q0 -41 -26.5 -64.5 q-26.5 -23.5 -62.5 -23.5 q-36 0 -62.5 23.5 q-26.5 23.5 -26.5 64.5 q0 41 26.5 64.5 q26.5 23.5 62.5 23.5 q36 0 62.5 -23.5 q26.5 -23.5 26.5 -64.5 Z" /><glyph glyph-name="dotlessi" unicode="&#x131;" d="M219 0 l-149 0 l0 526 l149 0 l0 -526 Z" /><glyph glyph-name="kgreenlandic" unicode="&#x138;" d="M219 329 q22 24 45.5 50.5 q23.5 26.5 45.5 53 q22 26.5 42 50.5 q20 24 35 43 l177 0 q-22 -27 -50 -59 q-28 -32 -58 -64 q-30 -32 -58 -62.5 q-28 -30.5 -50 -52.5 q30 -29 62.5 -65 q32.5 -36 62.5 -74.5 q30 -38.5 55.5 -77 q25.5 -38.5 43.5 -71.5 l-171 0 q-16 26 -37 56.5 q-21 30.5 -45 60.5 q-24 30 -49.5 58 q-25.5 28 -50.5 49 l0 -224 l-149 0 l0 526 l149 0 l0 -197 Z" /><glyph glyph-name="Lslash" unicode="&#x141;" d="M0 324 l111 56 l0 313 l156 0 l0 -235 l122 62 l49 -101 l-171 -87 l0 -198 l307 0 l0 -134 l-463 0 l0 254 l-62 -31 l-49 101 Z" /><glyph glyph-name="lslash" unicode="&#x142;" d="M-10 393 l107 53 l0 306 l149 24 l0 -256 l71 36 l45 -92 l-116 -58 l0 -203 q0 -20 3 -36 q3 -16 11.5 -27 q8.5 -11 24.5 -18 q16 -7 43 -9 l-21 -123 q-65 1 -105.5 14 q-40.5 13 -64 36.5 q-23.5 23.5 -32 57 q-8.5 33.5 -8.5 75.5 l0 159 l-62 -31 l-45 92 Z" /><glyph glyph-name="Eng" unicode="&#x14a;" d="M521 42 q-63 109 -135.5 213.5 q-72.5 104.5 -151.5 198.5 l0 -454 l-154 0 l0 693 l127 0 q33 -33 73 -81 q40 -48 81.5 -102.5 q41.5 -54.5 82.5 -113 q41 -58.5 77 -112.5 l0 409 l155 0 l0 -676 q0 -104 -47 -154 q-47 -50 -150 -50 q-14 0 -38.5 2.5 q-24.5 2.5 -48.5 10.5 l20 121 q15 -5 24.5 -6.5 q9.5 -1.5 28.5 -1.5 q32 0 44 21 q12 21 12 61 l0 21 Z" /><glyph glyph-name="eng" unicode="&#x14b;" d="M375 279 q0 72 -19 102 q-19 30 -71 30 q-16 0 -34 -1.5 q-18 -1.5 -32 -3.5 l0 -406 l-149 0 l0 508 q38 11 98 20.5 q60 9.5 126 9.5 q67 0 111.5 -17.5 q44.5 -17.5 70.5 -49.5 q26 -32 37 -76 q11 -44 11 -98 l0 -294 q0 -96 -42 -142 q-42 -46 -145 -46 q-13 0 -35.5 2 q-22.5 2 -44.5 10 l18 107 q11 -3 21.5 -5 q10.5 -2 23.5 -2 q55 0 55 71 l0 281 Z" /><glyph glyph-name="Scedilla" unicode="&#x15e;" d="M269 119 q33 0 54.5 5.5 q21.5 5.5 34.5 15 q13 9.5 18 22.5 q5 13 5 29 q0 34 -32 56.5 q-32 22.5 -110 48.5 q-34 12 -68 27.5 q-34 15.5 -61 39 q-27 23.5 -44 57 q-17 33.5 -17 81.5 q0 48 18 86.5 q18 38.5 51 65.5 q33 27 80 41.5 q47 14.5 106 14.5 q70 0 121 -15 q51 -15 84 -33 l-45 -123 q-29 15 -64.5 26.5 q-35.5 11.5 -85.5 11.5 q-56 0 -80.5 -15.5 q-24.5 -15.5 -24.5 -47.5 q0 -19 9 -32 q9 -13 25.5 -23.5 q16.5 -10.5 38 -19 q21.5 -8.5 47.5 -17.5 q54 -20 94 -39.5 q40 -19.5 66.5 -45.5 q26.5 -26 39.5 -61 q13 -35 13 -85 q0 -84 -51 -135.5 q-51 -51.5 -153 -64.5 q-9 -16 -14 -30 q32 -16 44 -38 q12 -22 12 -45 q0 -48 -38 -73 q-38 -25 -100 -25 q-22 0 -44 3.5 q-22 3.5 -44 9.5 l18 87 q7 -2 25.5 -6.5 q18.5 -4.5 36.5 -4.5 q14 0 24.5 5.5 q10.5 5.5 11.5 19.5 q1 12 -9.5 22 q-10.5 10 -33.5 15 l-12 3 q4 11 10 25.5 q6 14.5 12 28.5 q-78 4 -126.5 21 q-48.5 17 -73.5 31 l44 124 q31 -17 76.5 -30.5 q45.5 -13.5 111.5 -13.5 Z" /><glyph glyph-name="scedilla" unicode="&#x15f;" d="M221 107 q41 0 58 8 q17 8 17 31 q0 18 -22 31.5 q-22 13.5 -67 30.5 q-35 13 -63.5 27 q-28.5 14 -48.5 33.5 q-20 19.5 -31 46.5 q-11 27 -11 65 q0 74 55 117 q55 43 151 43 q48 0 92 -8.5 q44 -8.5 70 -18.5 l-26 -116 q-26 9 -56.5 16 q-30.5 7 -68.5 7 q-70 0 -70 -39 q0 -9 3 -16 q3 -7 12 -13.5 q9 -6.5 24.5 -14 q15.5 -7.5 39.5 -16.5 q49 -18 81 -35.5 q32 -17.5 50.5 -38 q18.5 -20.5 26 -45.5 q7.5 -25 7.5 -58 q0 -65 -41 -103.5 q-41 -38.5 -117 -49.5 q-5 -8 -8.5 -16.5 q-3.5 -8.5 -5.5 -14.5 q32 -16 44 -38 q12 -22 12 -45 q0 -48 -38 -73 q-38 -25 -100 -25 q-22 0 -44 3.5 q-22 3.5 -44 9.5 l18 87 q7 -2 25.5 -6.5 q18.5 -4.5 36.5 -4.5 q14 0 24.5 5.5 q10.5 5.5 11.5 19.5 q1 12 -9.5 22 q-10.5 10 -33.5 15 l-12 3 q4 11 10 25.5 q6 14.5 12 28.5 q-56 4 -93 14 q-37 10 -53 17 l25 121 q38 -15 78 -23.5 q40 -8.5 79 -8.5 Z" /><glyph glyph-name="uni0162" unicode="&#x162;" d="M594 693 l0 -133 l-209 0 l0 -560 l-32 0 q-5 -11 -10 -21.5 q-5 -10.5 -8 -18.5 q32 -16 44 -38 q12 -22 12 -45 q0 -48 -38 -73 q-38 -25 -100 -25 q-22 0 -44 3.5 q-22 3.5 -44 9.5 l18 87 q7 -2 25.5 -6.5 q18.5 -4.5 36.5 -4.5 q14 0 24.5 5.5 q10.5 5.5 11.5 19.5 q1 12 -9.5 22 q-10.5 10 -33.5 15 l-12 3 q5 14 13 33 q8 19 15 34 l-25 0 l0 560 l-209 0 l0 133 l574 0 Z" /><glyph glyph-name="uni0163" unicode="&#x163;" d="M65 657 l149 24 l0 -155 l179 0 l0 -124 l-179 0 l0 -185 q0 -47 16.5 -75 q16.5 -28 66.5 -28 q24 0 49.5 4.5 q25.5 4.5 46.5 12.5 l21 -116 q-20 -8 -43.5 -14.5 q-23.5 -6.5 -52.5 -9.5 l-13 -31 q32 -16 44 -38 q12 -22 12 -45 q0 -48 -38 -73 q-38 -25 -100 -25 q-22 0 -44 3.5 q-22 3.5 -44 9.5 l18 87 q7 -2 25.5 -6.5 q18.5 -4.5 36.5 -4.5 q14 0 24.5 5.5 q10.5 5.5 11.5 19.5 q1 12 -9.5 22 q-10.5 10 -33.5 15 l-12 3 q4 12 10.5 28.5 q6.5 16.5 13.5 30.5 q-45 7 -75 25.5 q-30 18.5 -47.5 47.5 q-17.5 29 -25 67 q-7.5 38 -7.5 83 l0 442 Z" /><glyph glyph-name="Tbar" unicode="&#x166;" d="M594 693 l0 -133 l-209 0 l0 -183 l141 0 l0 -110 l-141 0 l0 -267 l-156 0 l0 267 l-141 0 l0 110 l141 0 l0 183 l-209 0 l0 133 l574 0 Z" /><glyph glyph-name="tbar" unicode="&#x167;" d="M65 657 l149 24 l0 -155 l179 0 l0 -124 l-179 0 l0 -81 l178 0 l0 -93 l-178 0 l0 -11 q0 -47 16.5 -75 q16.5 -28 66.5 -28 q24 0 49.5 4.5 q25.5 4.5 46.5 12.5 l21 -116 q-27 -11 -60 -19 q-33 -8 -81 -8 q-61 0 -101 16.5 q-40 16.5 -64 46 q-24 29.5 -33.5 71.5 q-9.5 42 -9.5 93 l0 442 Z" /><glyph glyph-name="Uogonek" unicode="&#x172;" d="M345 -14 q-72 1 -124 22 q-52 21 -85.5 57.5 q-33.5 36.5 -49.5 86.5 q-16 50 -16 110 l0 431 l156 0 l0 -418 q0 -42 9.5 -71.5 q9.5 -29.5 26 -48 q16.5 -18.5 40 -26.5 q23.5 -8 51.5 -8 q57 0 92.5 35 q35.5 35 35.5 119 l0 418 l156 0 l0 -431 q0 -79 -27 -139 q-27 -60 -90 -98 q-14 -8 -24.5 -15.5 q-10.5 -7.5 -20 -15 q-9.5 -7.5 -18.5 -16 q-9 -8.5 -20 -19.5 q-13 -13 -20.5 -24.5 q-7.5 -11.5 -7.5 -22.5 q0 -11 6.5 -18 q6.5 -7 23.5 -7 q9 0 21.5 1.5 q12.5 1.5 29.5 6.5 l12 -100 q-20 -8 -48 -12 q-28 -4 -51 -4 q-67 0 -96 25 q-29 25 -29 66 q0 21 9 41 q9 20 24 39 q17 22 34 36 Z" /><glyph glyph-name="uogonek" unicode="&#x173;" d="M422 -218 q-67 0 -96 25 q-29 25 -29 66 q0 21 9 41 q9 20 24 39 q8 11 17.5 20.5 q9.5 9.5 18.5 17.5 q-16 -2 -35 -2.5 q-19 -0.5 -36 -0.5 q-67 0 -111.5 18 q-44.5 18 -70.5 50.5 q-26 32.5 -37 77.5 q-11 45 -11 99 l0 293 l149 0 l0 -275 q0 -72 19 -104 q19 -32 71 -32 q16 0 34 1.5 q18 1.5 32 3.5 l0 406 l149 0 l0 -508 q-10 -8 -28 -23.5 q-18 -15.5 -35 -32.5 q-13 -13 -20.5 -24.5 q-7.5 -11.5 -7.5 -22.5 q0 -11 6.5 -18 q6.5 -7 23.5 -7 q9 0 21.5 1.5 q12.5 1.5 29.5 6.5 l12 -100 q-20 -8 -48 -12 q-28 -4 -51 -4 Z" /><glyph glyph-name="longs" unicode="&#x17f;" d="M298 776 q42 0 77 -8.5 q35 -8.5 54 -16.5 l-29 -119 q-20 9 -43.5 13.5 q-23.5 4.5 -43.5 4.5 q-27 0 -45.5 -7.5 q-18.5 -7.5 -29 -20.5 q-10.5 -13 -15 -31 q-4.5 -18 -4.5 -39 l0 -552 l-149 0 l0 554 q0 102 57.5 162 q57.5 60 170.5 60 Z" /><glyph glyph-name="dotlessj" unicode="&#x237;" d="M21 -185 q-14 0 -41.5 3 q-27.5 3 -51.5 11 l20 121 q15 -5 27.5 -7 q12.5 -2 31.5 -2 q35 0 49 21 q14 21 14 61 l0 503 l149 0 l0 -507 q0 -104 -51 -154 q-51 -50 -147 -50 Z" /><glyph glyph-name="apostrophe" unicode="&#x2bc;" d="M229 776 q0 -13 0 -22 q0 -9 -1 -21 q-4 -62 -21 -105.5 q-17 -43.5 -46 -87.5 l-97 27 q21 45 29.5 83 q8.5 38 8.5 81 q0 12 -0.5 24.5 q-0.5 12.5 -2.5 20.5 l130 0 Z" /><glyph glyph-name="caron" unicode="&#x2c7;" d="M45 723 l55 66 l100 -77 l100 77 l57 -66 l-157 -137 l-155 137 Z" /><glyph glyph-name="breve" unicode="&#x2d8;" d="M205 598 q-35 0 -64.5 11 q-29.5 11 -51 31 q-21.5 20 -34 49.5 q-12.5 29.5 -12.5 66.5 l0 8 l101 0 q3 -42 20 -56.5 q17 -14.5 41 -14.5 q24 0 41 14.5 q17 14.5 20 56.5 l101 0 l0 -8 q0 -37 -12.5 -66.5 q-12.5 -29.5 -34 -49.5 q-21.5 -20 -51.5 -31 q-30 -11 -64 -11 Z" /><glyph glyph-name="dotaccent" unicode="&#x2d9;" d="M123 600 q-32 0 -55.5 21 q-23.5 21 -23.5 57 q0 36 23.5 57 q23.5 21 55.5 21 q32 0 55.5 -21 q23.5 -21 23.5 -57 q0 -36 -23.5 -57 q-23.5 -21 -55.5 -21 Z" /><glyph glyph-name="ring" unicode="&#x2da;" d="M280 699 q0 -28 -9.5 -49.5 q-9.5 -21.5 -26 -36 q-16.5 -14.5 -38 -22 q-21.5 -7.5 -45.5 -7.5 q-23 0 -44 7.5 q-21 7.5 -37.5 22 q-16.5 14.5 -26 36 q-9.5 21.5 -9.5 49.5 q0 28 9.5 49.5 q9.5 21.5 26 36 q16.5 14.5 37.5 22 q21 7.5 44 7.5 q24 0 45.5 -7.5 q21.5 -7.5 38 -22 q16.5 -14.5 26 -36 q9.5 -21.5 9.5 -49.5 ZM207 699 q0 23 -14 35 q-14 12 -32 12 q-17 0 -31 -12 q-14 -12 -14 -35 q0 -23 14 -35 q14 -12 31 -12 q18 0 32 12 q14 12 14 35 Z" /><glyph glyph-name="ogonek" unicode="&#x2db;" d="M176 -221 q-67 0 -96 24.5 q-29 24.5 -29 66.5 q0 21 9 41 q9 20 24 39 q17 21 36 37 q19 16 36 28 l117 0 q-10 -8 -28 -23.5 q-18 -15.5 -35 -32.5 q-13 -13 -20.5 -24.5 q-7.5 -11.5 -7.5 -22.5 q0 -11 6.5 -18 q6.5 -7 23.5 -7 q9 0 21.5 1.5 q12.5 1.5 29.5 6.5 l12 -100 q-20 -8 -48 -12 q-28 -4 -51 -4 Z" /><glyph glyph-name="hungarumlaut" unicode="&#x2dd;" d="M246 729 l-140 -152 l-67 51 l120 171 l87 -70 ZM448 729 l-140 -152 l-67 51 l120 171 l87 -70 Z" /><glyph glyph-name="fraction" unicode="&#x2044;" d="M323 693 l-355 -693 l-138 0 l357 693 l136 0 Z" /><glyph glyph-name="zerosuperior" unicode="&#x2070;" d="M15 502 q0 99 43.5 153 q43.5 54 123.5 54 q79 0 122.5 -54 q43.5 -54 43.5 -153 q0 -100 -43.5 -154 q-43.5 -54 -122.5 -54 q-80 0 -123.5 54 q-43.5 54 -43.5 154 ZM241 502 q0 52 -12 84.5 q-12 32.5 -46 32.5 q-34 0 -47.5 -32.5 q-13.5 -32.5 -13.5 -84.5 q0 -53 13.5 -85.5 q13.5 -32.5 47.5 -32.5 q34 0 46 32.5 q12 32.5 12 85.5 Z" /><glyph glyph-name="foursuperior" unicode="&#x2074;" d="M301 701 l0 -231 l46 0 l0 -83 l-46 0 l0 -86 l-94 0 l0 86 l-187 0 l0 72 q42 71 85.5 128.5 q43.5 57.5 96.5 113.5 l99 0 ZM207 590 q-23 -26 -43.5 -55.5 q-20.5 -29.5 -38.5 -64.5 l82 0 l0 120 Z" /><glyph glyph-name="fivesuperior" unicode="&#x2075;" d="M326 429 q0 -29 -8.5 -54 q-8.5 -25 -28.5 -43 q-20 -18 -52 -28 q-32 -10 -78 -10 q-35 0 -72 6.5 q-37 6.5 -61 18.5 l23 89 q10 -4 20 -7.5 q10 -3.5 21.5 -6.5 q11.5 -3 25.5 -4.5 q14 -1.5 33 -1.5 q64 0 64 40 q0 17 -10.5 26.5 q-10.5 9.5 -30.5 14 q-20 4.5 -50 5.5 q-30 1 -70 1 q3 26 6.5 58.5 q3.5 32.5 6.5 64 q3 31.5 5 59 q2 27.5 4 44.5 l237 0 l0 -91 l-153 0 q-1 -10 -2 -27.5 q-1 -17.5 -3 -28.5 q49 -1 82 -10 q33 -9 53 -25 q20 -16 29 -39 q9 -23 9 -51 Z" /><glyph glyph-name="sixsuperior" unicode="&#x2076;" d="M179 479 q-12 0 -25.5 -3 q-13.5 -3 -20.5 -7 q-6 -89 57 -89 q25 0 36 15 q11 15 11 34 q0 25 -13 37.5 q-13 12.5 -45 12.5 ZM199 552 q37 0 63 -9 q26 -9 42.5 -25 q16.5 -16 24 -38 q7.5 -22 7.5 -48 q0 -27 -9 -52 q-9 -25 -27 -44 q-18 -19 -46 -30.5 q-28 -11.5 -66 -11.5 q-78 0 -117.5 44.5 q-39.5 44.5 -39.5 126.5 q0 55 18.5 98.5 q18.5 43.5 54 74.5 q35.5 31 86 47.5 q50.5 16.5 114.5 16.5 l5 -89 q-71 -3 -110 -20.5 q-39 -17.5 -59 -51.5 q10 4 26 7.5 q16 3.5 33 3.5 Z" /><glyph glyph-name="sevensuperior" unicode="&#x2077;" d="M93 302 q14 98 42 170 q28 72 73 133 l-178 0 l0 96 l307 0 l0 -84 q-20 -23 -40.5 -57 q-20.5 -34 -38.5 -75 q-18 -41 -31.5 -88 q-13.5 -47 -19.5 -95 l-114 0 Z" /><glyph glyph-name="eightsuperior" unicode="&#x2078;" d="M343 413 q0 -26 -9 -48 q-9 -22 -28.5 -37.5 q-19.5 -15.5 -50 -24.5 q-30.5 -9 -74.5 -9 q-50 0 -81 11 q-31 11 -48.5 28 q-17.5 17 -24 36.5 q-6.5 19.5 -6.5 36.5 q0 35 18 57.5 q18 22.5 44 39.5 q-28 20 -40 40 q-12 20 -12 50 q0 23 9 44 q9 21 28 37 q19 16 47.5 25.5 q28.5 9.5 66.5 9.5 q44 0 73 -10 q29 -10 46.5 -26 q17.5 -16 24.5 -35 q7 -19 7 -38 q0 -27 -15.5 -50.5 q-15.5 -23.5 -40.5 -37.5 q37 -22 51.5 -45 q14.5 -23 14.5 -54 ZM126 413 q0 -14 12 -27.5 q12 -13.5 44 -13.5 q31 0 43.5 13 q12.5 13 12.5 28 q0 25 -20.5 39 q-20.5 14 -54.5 21 q-17 -11 -27 -25.5 q-10 -14.5 -10 -34.5 ZM231 594 q0 12 -11 25 q-11 13 -37 13 q-26 0 -37 -13 q-11 -13 -11 -25 q0 -17 12.5 -32 q12.5 -15 44.5 -25 q20 11 29.5 24 q9.5 13 9.5 33 Z" /><glyph glyph-name="ninesuperior" unicode="&#x2079;" d="M188 526 q12 0 25.5 3 q13.5 3 20.5 7 q6 89 -55 89 q-25 0 -37 -14 q-12 -14 -12 -33 q0 -25 13 -38.5 q13 -13.5 45 -13.5 ZM167 451 q-37 0 -63 9.5 q-26 9.5 -42.5 26 q-16.5 16.5 -24 39 q-7.5 22.5 -7.5 48.5 q0 26 9 50.5 q9 24.5 27 43 q18 18.5 46 30 q28 11.5 66 11.5 q78 0 117.5 -45.5 q39.5 -45.5 39.5 -125.5 q0 -110 -66 -173.5 q-66 -63.5 -207 -63.5 l-5 89 q77 2 115 19.5 q38 17.5 55 52.5 q-10 -4 -26.5 -7.5 q-16.5 -3.5 -33.5 -3.5 Z" /><glyph glyph-name="afii61289" unicode="&#x2113;" d="M506 61 q-38 -36 -87 -55.5 q-49 -19.5 -109 -19.5 q-85 0 -133 40 q-48 40 -58 128 l-45 -32 l-48 72 q24 19 46.5 35.5 q22.5 16.5 44.5 34.5 l0 240 q0 141 52.5 206.5 q52.5 65.5 140.5 65.5 q42 0 72.5 -15 q30.5 -15 51 -40.5 q20.5 -25.5 30 -59.5 q9.5 -34 9.5 -72 q0 -91 -57.5 -175 q-57.5 -84 -160.5 -175 l0 -33 q0 -94 85 -94 q28 0 56 13.5 q28 13.5 49 31.5 l61 -96 ZM255 372 q52 56 84.5 114 q32.5 58 32.5 107 q0 39 -12 59 q-12 20 -42 20 q-12 0 -23.5 -7 q-11.5 -7 -20 -24.5 q-8.5 -17.5 -14 -47 q-5.5 -29.5 -5.5 -73.5 l0 -148 Z" /><glyph glyph-name="estimated" unicode="&#x212e;" d="M219 337 q-5 0 -5 -4 l0 -197 q0 -13 9 -22 q48 -51 110 -79 q62 -28 135 -28 q79 0 145 32.5 q66 32.5 114 86.5 l57 0 q-26 -32 -60.5 -57.5 q-34.5 -25.5 -75.5 -43.5 q-41 -18 -87 -28 q-46 -10 -94 -10 q-83 0 -156 28.5 q-73 28.5 -127 77 q-54 48.5 -85.5 114 q-31.5 65.5 -31.5 140.5 q0 75 31.5 140.5 q31.5 65.5 85.5 114.5 q54 49 127 77.5 q73 28.5 156 28.5 q83 0 156.5 -28.5 q73.5 -28.5 128 -77.5 q54.5 -49 86 -114.5 q31.5 -65.5 31.5 -140.5 l0 -10 l-650 0 ZM721 560 q0 13 -9 24 q-48 48 -110 75 q-62 27 -134 27 q-71 0 -134 -29 q-63 -29 -110 -77 q-5 -4 -7.5 -10.5 q-2.5 -6.5 -2.5 -13.5 l0 -193 q0 -7 5 -7 l498 0 q4 0 4 7 l0 197 Z" /><glyph glyph-name="partialdiff" unicode="&#x2202;" d="M251 650 q-26 0 -56 -4 q-30 -4 -65 -18 l-23 117 q45 17 84.5 23.5 q39.5 6.5 74.5 6.5 q88 0 145.5 -33 q57.5 -33 91 -87 q33.5 -54 46.5 -123.5 q13 -69.5 13 -143.5 q0 -70 -14.5 -141.5 q-14.5 -71.5 -48 -129 q-33.5 -57.5 -89.5 -93.5 q-56 -36 -139 -36 q-51 0 -93.5 16 q-42.5 16 -74 46.5 q-31.5 30.5 -49 74.5 q-17.5 44 -17.5 101 q0 64 18.5 117 q18.5 53 53 90.5 q34.5 37.5 83 58.5 q48.5 21 108.5 21 q34 0 61 -7.5 q27 -7.5 53 -21.5 q-5 80 -46.5 123 q-41.5 43 -116.5 43 ZM314 394 q-39 0 -65 -14.5 q-26 -14.5 -41.5 -37.5 q-15.5 -23 -22.5 -52.5 q-7 -29.5 -7 -60.5 q0 -60 28 -87 q28 -27 68 -27 q36 0 62 18.5 q26 18.5 43 51.5 q17 33 25.5 79 q8.5 46 10.5 100 q-23 16 -50.5 23 q-27.5 7 -50.5 7 Z" /><glyph glyph-name="Delta" unicode="&#x2206;" d="M10 0 q35 110 68 202 q33 92 65.5 174.5 q32.5 82.5 66 159.5 q33.5 77 71.5 157 l130 0 q37 -80 71.5 -157.5 q34.5 -77.5 67.5 -160 q33 -82.5 65.5 -174.5 q32.5 -92 67.5 -201 l-673 0 ZM483 130 q-43 125 -78.5 225 q-35.5 100 -60.5 153 q-12 -27 -27 -66 q-15 -39 -32.5 -88 q-17.5 -49 -37 -105.5 q-19.5 -56.5 -40.5 -118.5 l276 0 Z" /><glyph glyph-name="product" unicode="&#x220f;" d="M650 693 l0 -802 l-156 0 l0 670 l-258 0 l0 -670 l-156 0 l0 802 l570 0 Z" /><glyph glyph-name="summation" unicode="&#x2211;" d="M393 302 q-26 -32 -52 -67.5 q-26 -35.5 -51 -71.5 q-25 -36 -48.5 -72 q-23.5 -36 -42.5 -69 l324 0 l0 -131 l-508 0 l0 96 q49 91 102.5 169 q53.5 78 104.5 150 q-52 74 -102.5 146.5 q-50.5 72.5 -101.5 147.5 l0 93 l505 0 l0 -131 l-309 0 q19 -27 41 -59 q22 -32 45 -66 q23 -34 47 -69 q24 -35 46 -66 Z" /><glyph glyph-name="minus" unicode="&#x2212;" d="M49 361 l470 0 l0 -125 l-470 0 l0 125 Z" /><glyph glyph-name="radical" unicode="&#x221a;" d="M26 352 l202 67 q15 -31 26.5 -57 q11.5 -26 22 -52 q10.5 -26 22.5 -54 q12 -28 27 -64 l170 591 l141 0 l-243 -797 l-125 0 q-30 76 -59 145 q-29 69 -63 139 l-86 -27 l-35 109 Z" /><glyph glyph-name="infinity" unicode="&#x221e;" d="M318 208 q-25 -31 -56 -52.5 q-31 -21.5 -73 -21.5 q-74 0 -116.5 42.5 q-42.5 42.5 -42.5 117.5 q0 77 42.5 118.5 q42.5 41.5 116.5 41.5 q42 0 73.5 -21 q31.5 -21 55.5 -53 q25 31 56 52.5 q31 21.5 73 21.5 q74 0 116.5 -42.5 q42.5 -42.5 42.5 -117.5 q0 -77 -42.5 -118.5 q-42.5 -41.5 -116.5 -41.5 q-42 0 -73.5 21 q-31.5 21 -55.5 53 ZM265 294 q-14 28 -33 42 q-19 14 -41 14 q-23 0 -35 -17.5 q-12 -17.5 -12 -38.5 q0 -21 12 -38.5 q12 -17.5 35 -17.5 q22 0 40 13 q18 13 34 43 ZM371 294 q14 -28 33 -42 q19 -14 41 -14 q23 0 35 17.5 q12 17.5 12 38.5 q0 21 -12 38.5 q-12 17.5 -35 17.5 q-22 0 -40 -13 q-18 -13 -34 -43 Z" /><glyph glyph-name="integral" unicode="&#x222b;" d="M126 552 q0 108 53 166.5 q53 58.5 167 58.5 q1 0 6.5 0 q5.5 0 13.5 -0.5 q8 -0.5 16 -1 q8 -0.5 14 -1.5 l0 -130 l-43 0 q-42 0 -60 -24.5 q-18 -24.5 -18 -65.5 l0 -514 q0 -108 -53 -166.5 q-53 -58.5 -167 -58.5 q-1 0 -6.5 0 q-5.5 0 -13.5 0.5 q-8 0.5 -16 1 q-8 0.5 -14 1.5 l0 130 l43 0 q42 0 60 24.5 q18 24.5 18 65.5 l0 514 Z" /><glyph glyph-name="approxequal" unicode="&#x2248;" d="M386 315 q-30 0 -56.5 11.5 q-26.5 11.5 -51 26 q-24.5 14.5 -47 26 q-22.5 11.5 -44.5 11.5 q-9 0 -17 -2 q-8 -2 -16 -9.5 q-8 -7.5 -15.5 -22 q-7.5 -14.5 -13.5 -39.5 l-102 28 q5 28 16 58 q11 30 29.5 55.5 q18.5 25.5 46.5 42 q28 16.5 67 16.5 q30 0 56.5 -11.5 q26.5 -11.5 51 -26 q24.5 -14.5 47 -26 q22.5 -11.5 44.5 -11.5 q9 0 17 2 q8 2 16 9.5 q8 7.5 15.5 22 q7.5 14.5 13.5 39.5 l102 -28 q-5 -28 -16 -58 q-11 -30 -30 -55.5 q-19 -25.5 -46.5 -42 q-27.5 -16.5 -66.5 -16.5 ZM387 71 q-30 0 -56.5 11.5 q-26.5 11.5 -51 26 q-24.5 14.5 -47 26 q-22.5 11.5 -44.5 11.5 q-9 0 -17 -2 q-8 -2 -16 -9.5 q-8 -7.5 -15.5 -22 q-7.5 -14.5 -13.5 -39.5 l-102 28 q5 28 16 58 q11 30 29.5 55.5 q18.5 25.5 46.5 42 q28 16.5 67 16.5 q30 0 56.5 -11.5 q26.5 -11.5 51 -26 q24.5 -14.5 47 -26 q22.5 -11.5 44.5 -11.5 q9 0 17 2 q8 2 16 9.5 q8 7.5 15.5 22 q7.5 14.5 13.5 39.5 l102 -28 q-5 -28 -16 -58 q-11 -30 -30 -55.5 q-19 -25.5 -46.5 -42 q-27.5 -16.5 -66.5 -16.5 Z" /><glyph glyph-name="notequal" unicode="&#x2260;" d="M49 466 l272 0 l68 128 l84 -46 l-43 -82 l89 0 l0 -125 l-155 0 l-49 -94 l204 0 l0 -125 l-270 0 l-68 -130 l-84 46 l44 84 l-92 0 l0 125 l157 0 l50 94 l-207 0 l0 125 Z" /><glyph glyph-name="lessequal" unicode="&#x2264;" d="M50 452 l432 173 l36 -119 l-306 -113 l306 -114 l-36 -119 l-432 173 l0 119 ZM49 121 l470 0 l0 -121 l-470 0 l0 121 Z" /><glyph glyph-name="greaterequal" unicode="&#x2265;" d="M518 333 l-432 -173 l-36 119 l306 114 l-306 113 l36 119 l432 -173 l0 -119 ZM519 0 l-470 0 l0 121 l470 0 l0 -121 Z" /><glyph glyph-name="lozenge" unicode="&#x25ca;" d="M47 347 q35 55 67.5 103.5 q32.5 48.5 63.5 92.5 q31 44 61 85.5 q30 41.5 59 82.5 q29 -41 59 -82.5 q30 -41.5 61 -85.5 q31 -44 63.5 -92.5 q32.5 -48.5 67.5 -103.5 q-35 -55 -67.5 -103.5 q-32.5 -48.5 -63.5 -92.5 q-31 -44 -61 -85.5 q-30 -41.5 -59 -82.5 q-29 41 -59 82.5 q-30 41.5 -61 85.5 q-31 44 -63.5 92.5 q-32.5 48.5 -67.5 103.5 ZM399 347 q-26 44 -51 79 q-25 35 -50 70 q-25 -35 -50.5 -70 q-25.5 -35 -51.5 -79 q26 -44 51.5 -79 q25.5 -35 50.5 -70 q25 35 50 70 q25 35 51 79 Z" /><glyph glyph-name="fi" unicode="&#xf001;" d="M298 776 q42 0 69.5 -7 q27.5 -7 46.5 -15 l-26 -117 q-16 7 -35.5 10 q-19.5 3 -39.5 3 q-27 0 -45.5 -7.5 q-18.5 -7.5 -29 -20.5 q-10.5 -13 -15 -31 q-4.5 -18 -4.5 -39 l0 -26 l184 0 l0 -124 l-184 0 l0 -402 l-149 0 l0 554 q0 102 57.5 162 q57.5 60 170.5 60 ZM638 0 l-149 0 l0 526 l149 0 l0 -526 ZM652 678 q0 -41 -26.5 -64.5 q-26.5 -23.5 -62.5 -23.5 q-36 0 -62.5 23.5 q-26.5 23.5 -26.5 64.5 q0 41 26.5 64.5 q26.5 23.5 62.5 23.5 q36 0 62.5 -23.5 q26.5 -23.5 26.5 -64.5 Z" /><glyph glyph-name="fl" unicode="&#xf002;" d="M298 776 q42 0 69.5 -7 q27.5 -7 46.5 -15 l-26 -117 q-16 7 -35.5 10 q-19.5 3 -39.5 3 q-27 0 -45.5 -7.5 q-18.5 -7.5 -29 -20.5 q-10.5 -13 -15 -31 q-4.5 -18 -4.5 -39 l0 -26 l184 0 l0 -124 l-184 0 l0 -402 l-149 0 l0 554 q0 102 57.5 162 q57.5 60 170.5 60 ZM700 -10 q-65 1 -105.5 14 q-40.5 13 -64 36.5 q-23.5 23.5 -32 57 q-8.5 33.5 -8.5 75.5 l0 579 l149 24 l0 -573 q0 -20 3 -36 q3 -16 11.5 -27 q8.5 -11 24.5 -18 q16 -7 43 -9 l-21 -123 Z" /><glyph glyph-name="f_f_i" unicode="&#xfb03;" d="M298 776 q42 0 77 -8.5 q35 -8.5 54 -16.5 l-29 -119 q-20 9 -43.5 13.5 q-23.5 4.5 -43.5 4.5 q-27 0 -45.5 -7.5 q-18.5 -7.5 -29 -20.5 q-10.5 -13 -15 -31 q-4.5 -18 -4.5 -39 l0 -26 l184 0 l0 -124 l-184 0 l0 -402 l-149 0 l0 554 q0 102 57.5 162 q57.5 60 170.5 60 ZM717 776 q42 0 69.5 -7 q27.5 -7 46.5 -15 l-26 -117 q-16 7 -35.5 10 q-19.5 3 -39.5 3 q-27 0 -45.5 -7.5 q-18.5 -7.5 -29 -20.5 q-10.5 -13 -15 -31 q-4.5 -18 -4.5 -39 l0 -26 l184 0 l0 -124 l-184 0 l0 -402 l-149 0 l0 554 q0 102 57.5 162 q57.5 60 170.5 60 ZM1057 0 l-149 0 l0 526 l149 0 l0 -526 ZM1071 678 q0 -41 -26.5 -64.5 q-26.5 -23.5 -62.5 -23.5 q-36 0 -62.5 23.5 q-26.5 23.5 -26.5 64.5 q0 41 26.5 64.5 q26.5 23.5 62.5 23.5 q36 0 62.5 -23.5 q26.5 -23.5 26.5 -64.5 Z" /><glyph glyph-name="f_f_l" unicode="&#xfb04;" d="M298 776 q42 0 77 -8.5 q35 -8.5 54 -16.5 l-29 -119 q-20 9 -43.5 13.5 q-23.5 4.5 -43.5 4.5 q-27 0 -45.5 -7.5 q-18.5 -7.5 -29 -20.5 q-10.5 -13 -15 -31 q-4.5 -18 -4.5 -39 l0 -26 l184 0 l0 -124 l-184 0 l0 -402 l-149 0 l0 554 q0 102 57.5 162 q57.5 60 170.5 60 ZM717 776 q42 0 69.5 -7 q27.5 -7 46.5 -15 l-26 -117 q-16 7 -35.5 10 q-19.5 3 -39.5 3 q-27 0 -45.5 -7.5 q-18.5 -7.5 -29 -20.5 q-10.5 -13 -15 -31 q-4.5 -18 -4.5 -39 l0 -26 l184 0 l0 -124 l-184 0 l0 -402 l-149 0 l0 554 q0 102 57.5 162 q57.5 60 170.5 60 ZM1119 -10 q-65 1 -105.5 14 q-40.5 13 -64 36.5 q-23.5 23.5 -32 57 q-8.5 33.5 -8.5 75.5 l0 579 l149 24 l0 -573 q0 -20 3 -36 q3 -16 11.5 -27 q8.5 -11 24.5 -18 q16 -7 43 -9 l-21 -123 Z" /><glyph glyph-name="uni0180" unicode="&#x180;" d="M8 689 l62 0 l0 63 l149 24 l0 -87 l143 0 l0 -93 l-143 0 l0 -96 q25 11 52 17 q27 6 58 6 q56 0 99 -20 q43 -20 72 -55 q29 -35 44 -84.5 q15 -49.5 15 -107.5 q0 -60 -18.5 -109.5 q-18.5 -49.5 -53.5 -85 q-35 -35.5 -86 -55 q-51 -19.5 -116 -19.5 q-27 0 -56.5 2.5 q-29.5 2.5 -58 6.5 q-28.5 4 -54.5 9.5 q-26 5.5 -46 11.5 l0 579 l-62 0 l0 93 ZM407 260 q0 65 -26.5 101 q-26.5 36 -79.5 36 q-23 0 -45.5 -6 q-22.5 -6 -36.5 -15 l0 -257 q11 -2 28 -3.5 q17 -1.5 37 -1.5 q30 0 53 11 q23 11 38.5 30.5 q15.5 19.5 23.5 46.5 q8 27 8 58 Z" /><glyph glyph-name="uni0181" unicode="&#x181;" d="M15 523 q0 65 39.5 101 q39.5 36 99 53 q59.5 17 128.5 20.5 q69 3.5 128 3.5 q74 0 133.5 -9.5 q59.5 -9.5 101.5 -32.5 q42 -23 64.5 -60.5 q22.5 -37.5 22.5 -92.5 q0 -83 -80 -131 q66 -25 90 -68 q24 -43 24 -97 q0 -109 -79.5 -164 q-79.5 -55 -236.5 -55 q-57 0 -113.5 3.5 q-56.5 3.5 -117.5 16.5 l0 554 q-41 -4 -60 -20 q-19 -16 -19 -39 q0 -5 0.5 -16.5 q0.5 -11.5 4.5 -27.5 l-118 -16 q-4 14 -8 36 q-4 22 -4 41 ZM371 302 l0 -179 q17 -2 37 -3 q20 -1 44 -1 q70 0 113 20 q43 20 43 74 q0 48 -36 68.5 q-36 20.5 -103 20.5 l-98 0 ZM371 421 l76 0 q72 0 103 18.5 q31 18.5 31 59.5 q0 42 -32 59 q-32 17 -94 17 q-44 0 -84 -3 l0 -151 Z" /><glyph glyph-name="uni0182" unicode="&#x182;" d="M229 561 l0 -114 l51 0 q77 0 137.5 -12 q60.5 -12 102 -39 q41.5 -27 63.5 -70 q22 -43 22 -105 q0 -115 -83.5 -171.5 q-83.5 -56.5 -238.5 -56.5 q-42 0 -95.5 5 q-53.5 5 -107.5 18 l0 677 l460 0 l0 -132 l-311 0 ZM291 126 q31 0 59 4 q28 4 49.5 14.5 q21.5 10.5 34.5 28.5 q13 18 13 47 q0 30 -12 49 q-12 19 -34 30 q-22 11 -54 15 q-32 4 -72 4 l-46 0 l0 -190 q11 -1 26.5 -1.5 q15.5 -0.5 35.5 -0.5 Z" /><glyph glyph-name="uni0183" unicode="&#x183;" d="M559 257 q0 -61 -18.5 -110.5 q-18.5 -49.5 -53.5 -85 q-35 -35.5 -86 -55 q-51 -19.5 -116 -19.5 q-27 0 -56.5 2.5 q-29.5 2.5 -58 6.5 q-28.5 4 -54.5 9.5 q-26 5.5 -46 11.5 l0 752 l436 0 l0 -123 l-287 0 l0 -144 q25 11 52 17 q27 6 58 6 q56 0 99 -19.5 q43 -19.5 72 -55 q29 -35.5 44 -84.5 q15 -49 15 -109 ZM407 261 q0 67 -26.5 102.5 q-26.5 35.5 -79.5 35.5 q-23 0 -45.5 -6 q-22.5 -6 -36.5 -15 l0 -259 q11 -2 28 -3.5 q17 -1.5 37 -1.5 q61 0 92 41 q31 41 31 106 Z" /><glyph glyph-name="uni0184" unicode="&#x184;" d="M559 263 q0 -63 -18.5 -114 q-18.5 -51 -53.5 -87 q-35 -36 -86 -55.5 q-51 -19.5 -116 -19.5 q-27 0 -56.5 2.5 q-29.5 2.5 -58 6.5 q-28.5 4 -54.5 9.5 q-26 5.5 -46 11.5 l0 577 l-85 89 q51 28 110 52 q59 24 124 41 l0 -262 q25 11 52 17 q27 6 58 6 q56 0 99 -19.5 q43 -19.5 72 -55.5 q29 -36 44 -86.5 q15 -50.5 15 -112.5 ZM407 267 q0 144 -106 144 q-23 0 -45.5 -6 q-22.5 -6 -36.5 -15 l0 -271 q11 -2 28 -3.5 q17 -1.5 37 -1.5 q61 0 92 42 q31 42 31 111 Z" /><glyph glyph-name="uni0185" unicode="&#x185;" d="M229 451 q12 1 22.5 1 q10.5 0 21.5 0 q165 0 248.5 -56.5 q83.5 -56.5 83.5 -173.5 q0 -228 -325 -228 q-42 0 -94.5 4.5 q-52.5 4.5 -105.5 16.5 l0 506 l-85 89 q51 28 110 52 q59 24 124 41 l0 -252 ZM447 222 q0 30 -13.5 49.5 q-13.5 19.5 -37 31 q-23.5 11.5 -55.5 16 q-32 4.5 -70 4.5 q-18 0 -25.5 -0.5 q-7.5 -0.5 -16.5 -1.5 l0 -196 q11 -1 25 -1 q14 0 33 0 q33 0 62 4.5 q29 4.5 50.5 15.5 q21.5 11 34.5 30 q13 19 13 48 Z" /><glyph glyph-name="uni0186" unicode="&#x186;" d="M252 709 q84 0 149 -24 q65 -24 108.5 -70 q43.5 -46 66 -113.5 q22.5 -67.5 22.5 -153.5 q0 -86 -27 -153.5 q-27 -67.5 -74 -114 q-47 -46.5 -112 -70.5 q-65 -24 -141 -24 q-44 0 -80 6.5 q-36 6.5 -63 15 q-27 8.5 -45 17.5 q-18 9 -26 14 l45 126 q32 -17 74.5 -29 q42.5 -12 96.5 -12 q36 0 70.5 12 q34.5 12 61 38.5 q26.5 26.5 42.5 68.5 q16 42 16 102 q0 48 -10.5 89.5 q-10.5 41.5 -34 71.5 q-23.5 30 -61.5 47.5 q-38 17.5 -92 17.5 q-69 0 -109.5 -13.5 q-40.5 -13.5 -65.5 -25.5 l-43 125 q33 20 93 36 q60 16 139 16 Z" /><glyph glyph-name="uni0187" unicode="&#x187;" d="M396 -14 q-169 0 -257.5 94 q-88.5 94 -88.5 267 q0 86 27 153.5 q27 67.5 74 114 q47 46.5 112 70.5 q65 24 141 24 q32 0 56.5 -3 q24.5 -3 49.5 -10 q21 53 55 71.5 q34 18.5 84 18.5 q32 0 58.5 -7 q26.5 -7 42.5 -15 l-36 -119 q-12 5 -24.5 8 q-12.5 3 -27.5 3 q-17 0 -36 -9 q-19 -9 -30 -44 l-23 -73 q-32 17 -74.5 29 q-42.5 12 -96.5 12 q-36 0 -70.5 -12 q-34.5 -12 -61 -38.5 q-26.5 -26.5 -42.5 -68.5 q-16 -42 -16 -102 q0 -48 10.5 -89.5 q10.5 -41.5 34 -71.5 q23.5 -30 61.5 -47.5 q38 -17.5 92 -17.5 q34 0 61 4 q27 4 48 9.5 q21 5.5 37 12.5 q16 7 29 13 l43 -125 q-33 -20 -93 -36 q-60 -16 -139 -16 Z" /><glyph glyph-name="uni0188" unicode="&#x188;" d="M45 263 q0 57 18.5 107.5 q18.5 50.5 53.5 88 q35 37.5 85 59.5 q50 22 114 22 q14 0 26.5 -1 q12.5 -1 26.5 -3 q19 48 49.5 67 q30.5 19 76.5 19 q28 0 51 -6 q23 -6 37 -13 l-33 -111 q-11 5 -21.5 7.5 q-10.5 2.5 -24.5 2.5 q-15 0 -32 -8 q-17 -8 -25 -38 l-17 -64 q-21 8 -46 14 q-25 6 -56 6 q-66 0 -98.5 -41 q-32.5 -41 -32.5 -108 q0 -71 30.5 -110 q30.5 -39 106.5 -39 q27 0 58 5 q31 5 57 16 l21 -122 q-26 -11 -65 -19 q-39 -8 -86 -8 q-72 0 -124 21.5 q-52 21.5 -85.5 58.5 q-33.5 37 -49 87.5 q-15.5 50.5 -15.5 109.5 Z" /><glyph glyph-name="uni018A" unicode="&#x18a;" d="M826 347 q0 -90 -28 -157 q-28 -67 -79.5 -111 q-51.5 -44 -125.5 -66 q-74 -22 -166 -22 q-42 0 -98 3.5 q-56 3.5 -110 14.5 l0 556 q-41 -4 -60 -20 q-19 -16 -19 -39 q0 -5 0.5 -16.5 q0.5 -11.5 4.5 -27.5 l-118 -16 q-4 14 -8 36 q-4 22 -4 41 q0 45 20.5 76 q20.5 31 55 51 q34.5 20 78 30.5 q43.5 10.5 90 15 q46.5 4.5 91.5 5 q45 0.5 82 0.5 q89 0 161.5 -20 q72.5 -20 124.5 -63 q52 -43 80 -110 q28 -67 28 -161 ZM375 127 q11 -1 25.5 -1.5 q14.5 -0.5 34.5 -0.5 q117 0 173.5 59 q56.5 59 56.5 163 q0 109 -54 165 q-54 56 -171 56 q-16 0 -33 -0.5 q-17 -0.5 -32 -2.5 l0 -438 Z" /><glyph glyph-name="uni018B" unicode="&#x18b;" d="M110 561 l0 132 l460 0 l0 -677 q-54 -13 -107.5 -18 q-53.5 -5 -95.5 -5 q-155 0 -238.5 56.5 q-83.5 56.5 -83.5 171.5 q0 62 22 105 q22 43 63.5 70 q41.5 27 102 39 q60.5 12 137.5 12 l51 0 l0 114 l-311 0 ZM359 126 q20 0 35.5 0.5 q15.5 0.5 26.5 1.5 l0 190 l-46 0 q-40 0 -72 -4 q-32 -4 -54 -15 q-22 -11 -34 -30 q-12 -19 -12 -49 q0 -29 13 -47 q13 -18 34.5 -28.5 q21.5 -10.5 49.5 -14.5 q28 -4 59 -4 Z" /><glyph glyph-name="uni018C" unicode="&#x18c;" d="M45 257 q0 60 15 109 q15 49 44 84.5 q29 35.5 72 55 q43 19.5 99 19.5 q31 0 58 -6 q27 -6 52 -17 l0 144 l-287 0 l0 123 l436 0 l0 -752 q-20 -6 -46 -11.5 q-26 -5.5 -54.5 -9.5 q-28.5 -4 -58 -6.5 q-29.5 -2.5 -56.5 -2.5 q-65 0 -116 19.5 q-51 19.5 -86 55 q-35 35.5 -53.5 85 q-18.5 49.5 -18.5 110.5 ZM197 261 q0 -65 31 -106 q31 -41 92 -41 q20 0 37 1.5 q17 1.5 28 3.5 l0 259 q-14 9 -36.5 15 q-22.5 6 -45.5 6 q-53 0 -79.5 -35.5 q-26.5 -35.5 -26.5 -102.5 Z" /><glyph glyph-name="uni018D" unicode="&#x18d;" d="M551 301 q0 -71 -38.5 -127 q-38.5 -56 -108.5 -92 q16 -13 29 -25.5 q13 -12.5 22.5 -27 q9.5 -14.5 14.5 -32 q5 -17.5 5 -39.5 q0 -65 -50 -105.5 q-50 -40.5 -152 -40.5 q-62 0 -102 8.5 q-40 8.5 -80 23.5 l31 116 q30 -12 65 -19 q35 -7 77 -7 q9 0 20 0.5 q11 0.5 20 3.5 q9 3 15.5 9.5 q6.5 6.5 6.5 18.5 q0 14 -9.5 25 q-9.5 11 -27.5 22.5 q-18 11.5 -45 25.5 q-27 14 -61 34 q-69 40 -105 93.5 q-36 53.5 -36 125.5 q0 55 18 100.5 q18 45.5 51 78 q33 32.5 80 50.5 q47 18 105 18 q59 0 106 -17 q47 -17 80 -48.5 q33 -31.5 51 -75 q18 -43.5 18 -97.5 ZM193 293 q0 -21 5.5 -39.5 q5.5 -18.5 18 -35 q12.5 -16.5 33.5 -32 q21 -15.5 52 -31.5 q25 10 43.5 26 q18.5 16 30.5 34.5 q12 18.5 18 38.5 q6 20 6 39 q0 62 -30 90.5 q-30 28.5 -74 28.5 q-44 0 -73.5 -28.5 q-29.5 -28.5 -29.5 -90.5 Z" /><glyph glyph-name="uni018E" unicode="&#x18e;" d="M35 0 l0 131 l335 0 l0 167 l-277 0 l0 128 l277 0 l0 136 l-312 0 l0 131 l468 0 l0 -693 l-491 0 Z" /><glyph glyph-name="uni018F" unicode="&#x18f;" d="M516 396 q-5 49 -19.5 83 q-14.5 34 -39 55 q-24.5 21 -60.5 30.5 q-36 9.5 -85 9.5 q-30 0 -56.5 -5 q-26.5 -5 -50 -12 q-23.5 -7 -42 -14.5 q-18.5 -7.5 -31.5 -13.5 l-40 122 q12 7 34 17 q22 10 52 19 q30 9 66.5 15.5 q36.5 6.5 77.5 6.5 q95 0 163 -27.5 q68 -27.5 111.5 -76 q43.5 -48.5 63.5 -114 q20 -65.5 20 -141.5 q0 -91 -24 -159.5 q-24 -68.5 -67.5 -114 q-43.5 -45.5 -103 -68 q-59.5 -22.5 -130.5 -22.5 q-69 0 -125 22 q-56 22 -96 65.5 q-40 43.5 -62 108.5 q-22 65 -22 151 q0 11 2.5 31.5 q2.5 20.5 4.5 31.5 l459 0 ZM212 268 q6 -71 43 -110.5 q37 -39.5 101 -39.5 q38 0 65.5 12 q27.5 12 46 32.5 q18.5 20.5 29 47.5 q10.5 27 14.5 58 l-299 0 Z" /><glyph glyph-name="uni0190" unicode="&#x190;" d="M468 295 l-94 0 q-36 0 -67 -3.5 q-31 -3.5 -53.5 -13 q-22.5 -9.5 -35 -27.5 q-12.5 -18 -12.5 -47 q0 -47 40.5 -66 q40.5 -19 106.5 -19 q27 0 54 5 q27 5 52 12 q25 7 45.5 14.5 q20.5 7.5 34.5 13.5 l46 -122 q-21 -11 -48.5 -21 q-27.5 -10 -59 -18 q-31.5 -8 -66 -13 q-34.5 -5 -69.5 -5 q-140 0 -218.5 51 q-78.5 51 -78.5 162 q0 33 9 59.5 q9 26.5 24.5 47.5 q15.5 21 36 37 q20.5 16 43.5 28 q-42 26 -62.5 63.5 q-20.5 37.5 -20.5 75.5 q0 50 19.5 87.5 q19.5 37.5 54.5 62 q35 24.5 83 37 q48 12.5 104 12.5 q72 0 128.5 -15.5 q56.5 -15.5 96.5 -40.5 l-50 -123 q-37 21 -78 33.5 q-41 12.5 -96 12.5 q-49 0 -76 -17 q-27 -17 -27 -51 q0 -24 10 -40 q10 -16 27.5 -26 q17.5 -10 41 -14 q23.5 -4 50.5 -4 l105 0 l0 -128 Z" /><glyph glyph-name="uni0191" unicode="&#x191;" d="M236 17 q0 -104 -47 -154 q-47 -50 -150 -50 q-14 0 -38.5 2.5 q-24.5 2.5 -48.5 10.5 l20 121 q15 -5 24.5 -6.5 q9.5 -1.5 28.5 -1.5 q31 0 43 21 q12 21 12 61 l0 672 l464 0 l0 -131 l-308 0 l0 -145 l274 0 l0 -131 l-274 0 l0 -269 Z" /><glyph glyph-name="uni0193" unicode="&#x193;" d="M582 531 q-32 17 -73.5 29.5 q-41.5 12.5 -90.5 12.5 q-109 0 -157.5 -60.5 q-48.5 -60.5 -48.5 -165.5 q0 -51 12 -92.5 q12 -41.5 36 -71.5 q24 -30 60 -46.5 q36 -16.5 84 -16.5 q26 0 44.5 1 q18.5 1 32.5 4 l0 241 l156 0 l0 -343 q-28 -11 -90 -23.5 q-62 -12.5 -153 -12.5 q-78 0 -141.5 24 q-63.5 24 -108.5 70 q-45 46 -69.5 113 q-24.5 67 -24.5 153 q0 87 27 154 q27 67 74 113.5 q47 46.5 110.5 70.5 q63.5 24 135.5 24 q36 0 66.5 -4 q30.5 -4 55.5 -9 q21 53 55 71.5 q34 18.5 84 18.5 q32 0 58.5 -7 q26.5 -7 42.5 -15 l-36 -119 q-12 5 -24.5 8 q-12.5 3 -27.5 3 q-17 0 -36 -9.5 q-19 -9.5 -30 -43.5 l-23 -72 Z" /><glyph glyph-name="uni0194" unicode="&#x194;" d="M274 173 q-68 127 -134.5 259.5 q-66.5 132.5 -129.5 260.5 l169 0 q46 -103 91 -196 q45 -93 93 -196 q47 100 92 194 q45 94 89 198 l167 0 q-62 -135 -127 -263 q-65 -128 -135 -257 l25 -39 q19 -30 31 -55 q12 -25 19 -45.5 q7 -20.5 9 -38 q2 -17.5 2 -33.5 q-1 -67 -47 -107 q-46 -40 -127 -40 q-81 0 -127 40 q-46 40 -47 107 q0 16 2.5 33.5 q2.5 17.5 9 38 q6.5 20.5 18.5 45.5 q12 25 32 55 l25 39 ZM361 -65 q20 0 31 12 q11 12 11 29 q0 29 -13.5 58 q-13.5 29 -28.5 52 q-15 -23 -28.5 -52 q-13.5 -29 -13.5 -58 q0 -17 11 -29 q11 -12 31 -12 Z" /><glyph glyph-name="uni0195" unicode="&#x195;" d="M591 -14 q-114 0 -170 58 q-56 58 -56 183 l0 52 q0 36 -3 61 q-3 25 -11 41 q-8 16 -23 23 q-15 7 -40 7 q-20 0 -37.5 -3.5 q-17.5 -3.5 -31.5 -7.5 l0 -400 l-149 0 l0 752 l149 24 l0 -252 q15 5 38.5 9.5 q23.5 4.5 45.5 4.5 q64 0 105 -17.5 q41 -17.5 64.5 -49.5 q23.5 -32 32.5 -76 q9 -44 9 -98 l0 -53 q0 -69 15.5 -99.5 q15.5 -30.5 61.5 -30.5 q46 0 61 30.5 q15 30.5 15 99.5 l0 282 l149 0 l0 -299 q0 -125 -55.5 -183 q-55.5 -58 -169.5 -58 Z" /><glyph glyph-name="uni0196" unicode="&#x196;" d="M80 693 l156 0 l0 -480 q0 -47 15 -73 q15 -26 65 -26 q19 0 39.5 4 q20.5 4 36.5 9 l23 -119 q-22 -8 -50.5 -15 q-28.5 -7 -70.5 -7 q-64 0 -105.5 15.5 q-41.5 15.5 -65.5 45 q-24 29.5 -33.5 70.5 q-9.5 41 -9.5 92 l0 484 Z" /><glyph glyph-name="uni0197" unicode="&#x197;" d="M2 414 l101 0 l0 279 l156 0 l0 -279 l101 0 l0 -110 l-101 0 l0 -304 l-156 0 l0 304 l-101 0 l0 110 Z" /><glyph glyph-name="uni0198" unicode="&#x198;" d="M489 0 q-21 34 -49.5 73.5 q-28.5 39.5 -62 79 q-33.5 39.5 -69.5 76 q-36 36.5 -72 64.5 l0 -293 l-156 0 l0 693 l156 0 l0 -262 q31 38 63 77 q32 39 67 79 q17 19 35 40.5 q18 21.5 40 39 q22 17.5 50 29 q28 11.5 66 11.5 q38 0 66.5 -11.5 q28.5 -11.5 61.5 -42.5 l-65 -104 q-12 11 -24.5 17 q-12.5 6 -32.5 6 q-23 0 -37 -12.5 q-14 -12.5 -29 -29.5 q-38 -43 -70 -79.5 q-32 -36.5 -64 -74.5 q83 -69 161.5 -165 q78.5 -96 149.5 -211 l-185 0 Z" /><glyph glyph-name="uni0199" unicode="&#x199;" d="M219 336 q22 24 45.5 50 q23.5 26 45.5 51.5 q22 25.5 41.5 48.5 q19.5 23 33.5 40 l177 0 q-53 -61 -103.5 -116.5 q-50.5 -55.5 -110.5 -114.5 q30 -27 62 -64.5 q32 -37.5 62 -77.5 q30 -40 55 -80 q25 -40 42 -73 l-171 0 q-16 26 -36.5 57.5 q-20.5 31.5 -43.5 63 q-23 31.5 -48.5 60.5 q-25.5 29 -50.5 49 l0 -230 l-149 0 l0 588 q0 96 42 142 q42 46 145 46 q13 0 35.5 -2 q22.5 -2 44.5 -10 l-18 -107 q-11 3 -21.5 5 q-10.5 2 -23.5 2 q-55 0 -55 -71 l0 -257 Z" /><glyph glyph-name="uni019A" unicode="&#x19a;" d="M10 448 l80 0 l0 304 l149 24 l0 -328 l90 0 l0 -95 l-90 0 l0 -150 q0 -20 3 -36 q3 -16 11.5 -27 q8.5 -11 24.5 -18 q16 -7 43 -9 l-21 -123 q-65 1 -105.5 14 q-40.5 13 -64 36.5 q-23.5 23.5 -32 57 q-8.5 33.5 -8.5 75.5 l0 180 l-80 0 l0 95 Z" /><glyph glyph-name="uni019B" unicode="&#x19b;" d="M453 637 l-113 -41 q32 -73 63 -156 q31 -83 58 -163.5 q27 -80.5 48 -153 q21 -72.5 35 -123.5 l-159 0 q-10 39 -22.5 86.5 q-12.5 47.5 -26 96.5 q-13.5 49 -27.5 94.5 q-14 45.5 -27 81.5 q-14 -36 -30 -81.5 q-16 -45.5 -32.5 -94.5 q-16.5 -49 -31 -96.5 q-14.5 -47.5 -24.5 -86.5 l-153 0 q45 154 101 286 q56 132 106 231 l-13 31 l-114 -41 l-31 83 l104 37 q-12 15 -27 21.5 q-15 6.5 -38 6.5 q-13 0 -26 -2 q-13 -2 -29 -8 l-25 114 q19 6 45 11.5 q26 5.5 61 5.5 q60 0 101.5 -22.5 q41.5 -22.5 74.5 -77.5 l121 44 l31 -83 Z" /><glyph glyph-name="uni019C" unicode="&#x19c;" d="M652 -14 q-97 0 -159 47 q-28 -15 -73 -31 q-45 -16 -105 -16 q-76 0 -124 21 q-48 21 -75 59 q-27 38 -36.5 89.5 q-9.5 51.5 -9.5 113.5 l0 424 l156 0 l0 -401 q0 -90 20 -131 q20 -41 80 -41 q28 0 53 7 q25 7 42 16 q-7 28 -10 60.5 q-3 32.5 -3 65.5 l0 424 l156 0 l0 -401 q0 -90 19.5 -131 q19.5 -41 79.5 -41 q20 0 43 1.5 q23 1.5 40 3.5 l0 568 l156 0 l0 -675 q-23 -6 -52 -11.5 q-29 -5.5 -62 -10 q-33 -4.5 -67.5 -7.5 q-34.5 -3 -68.5 -3 Z" /><glyph glyph-name="uni019D" unicode="&#x19d;" d="M545 0 q-67 119 -145 235 q-78 116 -166 219 l0 -437 q0 -104 -46 -154 q-46 -50 -149 -50 q-14 0 -38.5 2.5 q-24.5 2.5 -48.5 10.5 l20 121 q15 -5 24.5 -6.5 q9.5 -1.5 28.5 -1.5 q31 0 43 21 q12 21 12 61 l0 672 l127 0 q33 -33 73 -81 q40 -48 81.5 -102.5 q41.5 -54.5 82.5 -113 q41 -58.5 77 -112.5 l0 409 l155 0 l0 -693 l-131 0 Z" /><glyph glyph-name="uni019E" unicode="&#x19e;" d="M70 508 q38 11 98 20.5 q60 9.5 126 9.5 q67 0 111.5 -17.5 q44.5 -17.5 70.5 -49.5 q26 -32 37 -76 q11 -44 11 -98 l0 -482 l-149 0 l0 464 q0 72 -19 102 q-19 30 -71 30 q-16 0 -34 -1.5 q-18 -1.5 -32 -3.5 l0 -406 l-149 0 l0 508 Z" /><glyph glyph-name="uni019F" unicode="&#x19f;" d="M740 347 q0 -89 -26.5 -156.5 q-26.5 -67.5 -72.5 -113 q-46 -45.5 -109.5 -68.5 q-63.5 -23 -136.5 -23 q-71 0 -134 23 q-63 23 -110 68.5 q-47 45.5 -74 113 q-27 67.5 -27 156.5 q0 89 28 156.5 q28 67.5 75.5 113.5 q47.5 46 110 69 q62.5 23 131.5 23 q71 0 134 -23 q63 -23 110 -69 q47 -46 74 -113.5 q27 -67.5 27 -156.5 ZM395 123 q75 0 121.5 46 q46.5 46 58.5 125 l-361 0 q12 -79 59 -125 q47 -46 122 -46 ZM395 572 q-75 0 -121 -45.5 q-46 -45.5 -59 -122.5 l359 0 q-13 77 -58.5 122.5 q-45.5 45.5 -120.5 45.5 Z" /><glyph glyph-name="Ohorn" unicode="&#x1a0;" d="M740 347 q0 -89 -26.5 -156.5 q-26.5 -67.5 -72.5 -113 q-46 -45.5 -109.5 -68.5 q-63.5 -23 -136.5 -23 q-71 0 -134 23 q-63 23 -110 68.5 q-47 45.5 -74 113 q-27 67.5 -27 156.5 q0 89 28 156.5 q28 67.5 75.5 113.5 q47.5 46 110 69 q62.5 23 131.5 23 q106 0 188 -50 q9 21 12.5 44.5 q3.5 23.5 3.5 48.5 q0 12 -0.5 24 q-0.5 12 -1.5 25 l138 0 q2 -14 3 -27 q1 -13 1 -27 q0 -47 -15.5 -88.5 q-15.5 -41.5 -53.5 -77.5 q33 -45 51.5 -103 q18.5 -58 18.5 -131 ZM211 347 q0 -51 12.5 -92 q12.5 -41 36 -70.5 q23.5 -29.5 57.5 -45.5 q34 -16 78 -16 q43 0 77.5 16 q34.5 16 58 45.5 q23.5 29.5 36 70.5 q12.5 41 12.5 92 q0 51 -12.5 92.5 q-12.5 41.5 -36 71 q-23.5 29.5 -58 45.5 q-34.5 16 -77.5 16 q-44 0 -78 -16.5 q-34 -16.5 -57.5 -46 q-23.5 -29.5 -36 -71 q-12.5 -41.5 -12.5 -91.5 Z" /><glyph glyph-name="ohorn" unicode="&#x1a1;" d="M562 264 q0 -62 -18 -113.5 q-18 -51.5 -52 -88 q-34 -36.5 -81.5 -56.5 q-47.5 -20 -106.5 -20 q-58 0 -105.5 20 q-47.5 20 -81.5 56.5 q-34 36.5 -53 88 q-19 51.5 -19 113.5 q0 62 19.5 113 q19.5 51 54 87 q34.5 36 82 56 q47.5 20 103.5 20 q85 0 148 -43 q8 14 15 32.5 q7 18.5 7 47.5 q0 11 0 24.5 q0 13.5 -2 30.5 l125 0 q3 -16 3.5 -31 q0.5 -15 0.5 -29 q0 -50 -21 -86.5 q-21 -36.5 -54 -71.5 q36 -63 36 -150 ZM410 264 q0 69 -27.5 108.5 q-27.5 39.5 -78.5 39.5 q-51 0 -79 -39.5 q-28 -39.5 -28 -108.5 q0 -69 28 -109.5 q28 -40.5 79 -40.5 q51 0 78.5 40.5 q27.5 40.5 27.5 109.5 Z" /><glyph glyph-name="uni01A2" unicode="&#x1a2;" d="M714 347 q0 -89 -26.5 -156.5 q-26.5 -67.5 -71.5 -113 q-45 -45.5 -105.5 -68.5 q-60.5 -23 -128.5 -23 q-66 0 -126 23 q-60 23 -105.5 68.5 q-45.5 45.5 -73 113 q-27.5 67.5 -27.5 156.5 q0 89 28 156.5 q28 67.5 74.5 113.5 q46.5 46 106.5 69 q60 23 123 23 q54 0 105 -16 q51 -16 93 -48 q40 32 83.5 48 q43.5 16 96.5 16 q75 0 121 -20.5 q46 -20.5 71 -58 q25 -37.5 33.5 -89 q8.5 -51.5 8.5 -113.5 l0 -428 l-156 0 l0 425 q0 45 -5.5 73.5 q-5.5 28.5 -17.5 45 q-12 16.5 -29.5 23 q-17.5 6.5 -41.5 6.5 q-40 0 -78 -26 q23 -41 35.5 -90.5 q12.5 -49.5 12.5 -109.5 ZM211 347 q0 -51 12.5 -92 q12.5 -41 35 -70.5 q22.5 -29.5 54 -45.5 q31.5 -16 69.5 -16 q38 0 69.5 16 q31.5 16 54 45.5 q22.5 29.5 35 70.5 q12.5 41 12.5 92 q0 51 -12.5 92.5 q-12.5 41.5 -35 71 q-22.5 29.5 -54 45.5 q-31.5 16 -69.5 16 q-38 0 -69.5 -16.5 q-31.5 -16.5 -54 -46 q-22.5 -29.5 -35 -71 q-12.5 -41.5 -12.5 -91.5 Z" /><glyph glyph-name="uni01A3" unicode="&#x1a3;" d="M548 264 q0 -62 -18 -113.5 q-18 -51.5 -51 -88 q-33 -36.5 -79 -56.5 q-46 -20 -103 -20 q-56 0 -102 20 q-46 20 -79.5 56.5 q-33.5 36.5 -52 88 q-18.5 51.5 -18.5 113.5 q0 62 19 113 q19 51 53 87 q34 36 80 56 q46 20 100 20 q87 0 150 -48 q31 23 69.5 34 q38.5 11 80.5 11 q66 0 106.5 -19.5 q40.5 -19.5 63 -54 q22.5 -34.5 30 -81 q7.5 -46.5 7.5 -99.5 l0 -468 l-149 0 l0 460 q0 68 -12.5 101.5 q-12.5 33.5 -55.5 33.5 q-36 0 -64 -19 q25 -58 25 -127 ZM396 264 q0 69 -26 108.5 q-26 39.5 -73 39.5 q-54 0 -77 -39.5 q-23 -39.5 -23 -108.5 q0 -69 26.5 -109.5 q26.5 -40.5 73.5 -40.5 q47 0 73 40.5 q26 40.5 26 109.5 Z" /><glyph glyph-name="uni01A4" unicode="&#x1a4;" d="M219 565 q-41 -4 -60 -20 q-19 -16 -19 -39 q0 -5 0.5 -16.5 q0.5 -11.5 4.5 -27.5 l-118 -16 q-4 14 -8 36 q-4 22 -4 41 q0 45 20 75.5 q20 30.5 53.5 50.5 q33.5 20 77 30.5 q43.5 10.5 89 15.5 q45.5 5 90.5 5.5 q45 0.5 82 0.5 q155 0 238 -54.5 q83 -54.5 83 -178.5 q0 -125 -84 -180.5 q-84 -55.5 -240 -55.5 l-49 0 l0 -232 l-156 0 l0 565 ZM437 568 q-17 0 -33.5 -1 q-16.5 -1 -28.5 -2 l0 -200 l49 0 q81 0 122 22 q41 22 41 82 q0 29 -10.5 48 q-10.5 19 -30 30.5 q-19.5 11.5 -47.5 16 q-28 4.5 -62 4.5 Z" /><glyph glyph-name="uni01A5" unicode="&#x1a5;" d="M70 588 q0 96 42 142 q42 46 145 46 q13 0 35.5 -2 q22.5 -2 44.5 -10 l-18 -107 q-11 3 -21.5 5 q-10.5 2 -23.5 2 q-55 0 -55 -71 l0 -65 q17 5 38 7.5 q21 2.5 37 2.5 q61 0 110 -19.5 q49 -19.5 83.5 -55 q34.5 -35.5 53 -86.5 q18.5 -51 18.5 -114 q0 -61 -15 -111 q-15 -50 -44 -86 q-29 -36 -72 -56 q-43 -20 -99 -20 q-31 0 -58 6 q-27 6 -52 17 l0 -198 l-149 0 l0 773 ZM407 259 q0 69 -30.5 110.5 q-30.5 41.5 -87.5 41.5 q-20 0 -39.5 -2.5 q-19.5 -2.5 -30.5 -6.5 l0 -265 q14 -9 36.5 -15 q22.5 -6 45.5 -6 q106 0 106 143 Z" /><glyph glyph-name="uni01A6" unicode="&#x1a6;" d="M296 700 q149 0 229 -57.5 q80 -57.5 80 -169.5 q0 -73 -33.5 -118.5 q-33.5 -45.5 -96.5 -71.5 q21 -26 52 -74.5 q31 -48.5 63.5 -104.5 q32.5 -56 62 -112.5 q29.5 -56.5 47.5 -99.5 l-175 0 q-19 42 -47 94.5 q-28 52.5 -58 103.5 q-30 51 -58.5 95 q-28.5 44 -48.5 68 l-77 0 l0 -253 l-156 0 l0 776 l155 0 l0 -78 q13 1 31.5 1.5 q18.5 0.5 29.5 0.5 ZM292 568 q-17 0 -30.5 -1 q-13.5 -1 -25.5 -2 l0 -188 l44 0 q88 0 126 22 q38 22 38 75 q0 51 -38.5 72.5 q-38.5 21.5 -113.5 21.5 Z" /><glyph glyph-name="uni01A7" unicode="&#x1a7;" d="M313 119 q66 0 111.5 13.5 q45.5 13.5 76.5 30.5 l44 -124 q-14 -8 -34.5 -17 q-20.5 -9 -49 -17 q-28.5 -8 -65.5 -13.5 q-37 -5.5 -83 -5.5 q-137 0 -205 53.5 q-68 53.5 -68 150.5 q0 50 13 85 q13 35 39.5 61 q26.5 26 66.5 45.5 q40 19.5 94 39.5 q25 9 47 17.5 q22 8.5 38.5 19 q16.5 10.5 25.5 23.5 q9 13 9 32 q0 32 -24.5 47.5 q-24.5 15.5 -80.5 15.5 q-50 0 -85.5 -11.5 q-35.5 -11.5 -64.5 -26.5 l-45 123 q33 18 84 33 q51 15 121 15 q58 0 105.5 -14.5 q47.5 -14.5 80.5 -41.5 q33 -27 51 -65.5 q18 -38.5 18 -86.5 q0 -48 -17 -81.5 q-17 -33.5 -44 -57 q-27 -23.5 -61 -39 q-34 -15.5 -68 -27.5 q-78 -26 -110 -48.5 q-32 -22.5 -32 -56.5 q0 -16 5 -29 q5 -13 18 -22.5 q13 -9.5 34.5 -15 q21.5 -5.5 54.5 -5.5 Z" /><glyph glyph-name="uni01A8" unicode="&#x1a8;" d="M263 107 q39 0 79 8.5 q40 8.5 78 23.5 l25 -121 q-18 -8 -64.5 -20 q-46.5 -12 -116.5 -12 q-107 0 -165.5 40 q-58.5 40 -58.5 118 q0 33 7.5 58 q7.5 25 26 45.5 q18.5 20.5 50.5 38 q32 17.5 81 35.5 q24 9 39.5 16.5 q15.5 7.5 24.5 14 q9 6.5 12 13.5 q3 7 3 16 q0 39 -70 39 q-38 0 -68.5 -7 q-30.5 -7 -56.5 -16 l-26 116 q26 10 70 18.5 q44 8.5 92 8.5 q96 0 151 -43 q55 -43 55 -117 q0 -38 -11 -65 q-11 -27 -31 -46.5 q-20 -19.5 -48.5 -33.5 q-28.5 -14 -63.5 -27 q-45 -17 -67 -30.5 q-22 -13.5 -22 -31.5 q0 -23 17 -31 q17 -8 58 -8 Z" /><glyph glyph-name="uni01AA" unicode="&#x1aa;" d="M408 -187 q-65 1 -105.5 14 q-40.5 13 -64 36.5 q-23.5 23.5 -32 57 q-8.5 33.5 -8.5 75.5 l0 465 q-11 -6 -31 -13 q-20 -7 -49 -7 q-29 0 -57 10 q-28 10 -50.5 31 q-22.5 21 -36.5 52 q-14 31 -14 73 q0 43 15.5 75.5 q15.5 32.5 41.5 54.5 q26 22 60 32.5 q34 10.5 71 10.5 q55 0 93 -16.5 q38 -16.5 61.5 -47.5 q23.5 -31 34 -76 q10.5 -45 10.5 -103 l0 -511 q0 -20 3 -36 q3 -16 11.5 -27 q8.5 -11 24.5 -18 q16 -7 43 -9 l-21 -123 ZM198 598 q0 29 -13 50 q-13 21 -43 21 q-26 0 -40 -18 q-14 -18 -14 -38 q0 -24 14.5 -41.5 q14.5 -17.5 39.5 -17.5 q15 0 30 6.5 q15 6.5 26 16.5 l0 21 Z" /><glyph glyph-name="uni01AB" unicode="&#x1ab;" d="M292 -11 q-5 -1 -11 -1 q-6 0 -8 0 q-61 0 -101 16.5 q-40 16.5 -64 46 q-24 29.5 -33.5 71.5 q-9.5 42 -9.5 93 l0 442 l149 24 l0 -155 l179 0 l0 -124 l-179 0 l0 -185 q0 -47 16.5 -75 q16.5 -28 66.5 -28 q24 0 54 3 q30 3 53 11 q3 -21 5.5 -39.5 q2.5 -18.5 4 -36 q1.5 -17.5 2.5 -35.5 q1 -18 1 -39 q0 -85 -44.5 -125 q-44.5 -40 -124.5 -40 q-13 0 -39 2.5 q-26 2.5 -49 10.5 l19 106 q14 -5 26 -6.5 q12 -1.5 30 -1.5 q26 0 42 11.5 q16 11.5 16 40.5 q0 3 0 5.5 q0 2.5 -1 7.5 Z" /><glyph glyph-name="uni01AC" unicode="&#x1ac;" d="M215 560 q-41 0 -57 -18 q-16 -18 -16 -41 q0 -5 0.5 -16.5 q0.5 -11.5 4.5 -27.5 l-120 -16 q-4 14 -8 36 q-4 22 -4 41 q0 67 32 103 q32 36 81.5 52 q49.5 16 109 18 q59.5 2 115.5 2 l281 0 l0 -133 l-209 0 l0 -560 l-156 0 l0 560 l-54 0 Z" /><glyph glyph-name="uni01AD" unicode="&#x1ad;" d="M399 526 l0 -124 l-185 0 l0 -185 q0 -47 17.5 -75 q17.5 -28 67.5 -28 q24 0 50.5 5 q26.5 5 47.5 13 l21 -116 q-27 -11 -61 -19.5 q-34 -8.5 -82 -8.5 q-61 0 -101.5 16.5 q-40.5 16.5 -64.5 46 q-24 29.5 -34 71.5 q-10 42 -10 93 l0 339 q0 102 56.5 162 q56.5 60 169.5 60 q42 0 76 -8 q34 -8 53 -16 l-29 -119 q-20 9 -42.5 13 q-22.5 4 -42.5 4 q-27 0 -45 -7.5 q-18 -7.5 -28.5 -20.5 q-10.5 -13 -14.5 -31 q-4 -18 -4 -39 l0 -26 l185 0 Z" /><glyph glyph-name="uni01AE" unicode="&#x1ae;" d="M385 21 q0 -40 12 -61 q12 -21 43 -21 q19 0 28.5 1.5 q9.5 1.5 24.5 6.5 l20 -121 q-24 -8 -48.5 -10.5 q-24.5 -2.5 -38.5 -2.5 q-103 0 -150 50 q-47 50 -47 154 l0 543 l-209 0 l0 133 l574 0 l0 -133 l-209 0 l0 -539 Z" /><glyph glyph-name="Uhorn" unicode="&#x1af;" d="M351 -14 q-73 0 -126 20.5 q-53 20.5 -87.5 57 q-34.5 36.5 -51 87 q-16.5 50.5 -16.5 111.5 l0 431 l156 0 l0 -418 q0 -42 9.5 -71.5 q9.5 -29.5 26 -48 q16.5 -18.5 40 -26.5 q23.5 -8 51.5 -8 q57 0 92.5 35 q35.5 35 35.5 119 l0 418 l57 0 q47 0 65 19 q18 19 18 44 q0 12 -0.5 22 q-0.5 10 -1.5 23 l134 0 q2 -14 3 -27 q1 -13 1 -27 q0 -23 -5 -46 q-5 -23 -18.5 -43.5 q-13.5 -20.5 -36.5 -36 q-23 -15.5 -60 -23.5 l0 -336 q0 -61 -17 -112 q-17 -51 -52 -87.5 q-35 -36.5 -89 -56.5 q-54 -20 -128 -20 Z" /><glyph glyph-name="uhorn" unicode="&#x1b0;" d="M370 526 l83 0 q32 2 46.5 18.5 q14.5 16.5 14.5 43.5 q0 11 0 19 q0 8 -2 25 l120 0 q3 -16 3.5 -31 q0.5 -15 0.5 -29 q0 -21 -7 -42 q-7 -21 -21 -39.5 q-14 -18.5 -36 -32.5 q-22 -14 -53 -20 l0 -420 q-38 -11 -98 -20.5 q-60 -9.5 -126 -9.5 q-67 0 -111.5 18 q-44.5 18 -70.5 50.5 q-26 32.5 -37 77.5 q-11 45 -11 99 l0 293 l149 0 l0 -275 q0 -72 19 -104 q19 -32 71 -32 q16 0 34 1.5 q18 1.5 32 3.5 l0 406 Z" /><glyph glyph-name="uni01B1" unicode="&#x1b1;" d="M387 -14 q-72 0 -133.5 21.5 q-61.5 21.5 -106.5 63.5 q-45 42 -70.5 103 q-25.5 61 -25.5 141 q0 72 26 134 q26 62 77 115 l-119 0 l0 129 l303 0 l0 -116 q-26 -23 -49 -48.5 q-23 -25.5 -40 -56.5 q-17 -31 -27 -68.5 q-10 -37.5 -10 -83.5 q0 -97 47 -148 q47 -51 128 -51 q81 0 128 51 q47 51 47 148 q0 46 -10 83.5 q-10 37.5 -27.5 68.5 q-17.5 31 -40.5 56.5 q-23 25.5 -49 48.5 l0 116 l303 0 l0 -129 l-119 0 q104 -107 104 -249 q0 -80 -25.5 -141 q-25.5 -61 -70.5 -103 q-45 -42 -106.5 -63.5 q-61.5 -21.5 -133.5 -21.5 Z" /><glyph glyph-name="uni01B2" unicode="&#x1b2;" d="M414 701 q137 0 198.5 -89 q61.5 -89 61.5 -268 q0 -89 -22.5 -156 q-22.5 -67 -64.5 -112 q-42 -45 -101.5 -67.5 q-59.5 -22.5 -132.5 -22.5 q-71 0 -124 20.5 q-53 20.5 -88.5 58 q-35.5 37.5 -53 90 q-17.5 52.5 -17.5 117.5 l0 421 l156 0 l0 -408 q0 -46 10.5 -77.5 q10.5 -31.5 28 -50.5 q17.5 -19 41 -27.5 q23.5 -8.5 49.5 -8.5 q43 0 73.5 16 q30.5 16 49 45 q18.5 29 27 70 q8.5 41 8.5 92 q0 54 -4.5 95.5 q-4.5 41.5 -17 70 q-12.5 28.5 -36 43.5 q-23.5 15 -61.5 15 q-23 0 -44 -6 l-14 130 q16 4 39 6.5 q23 2.5 39 2.5 Z" /><glyph glyph-name="uni01B3" unicode="&#x1b3;" d="M417 572 q10 21 23 44 q13 23 32 42.5 q19 19.5 45 32 q26 12.5 64 12.5 q40 0 75 -12 q35 -12 69 -45 l-65 -102 q-11 11 -23 17.5 q-12 6.5 -30 6.5 q-20 0 -31.5 -9 q-11.5 -9 -22.5 -29 q-38 -65 -72.5 -132 q-34.5 -67 -71.5 -133 l0 -265 l-156 0 l0 263 q-69 106 -130 212 q-61 106 -118 218 l181 0 q32 -72 69 -142.5 q37 -70.5 79 -142.5 l83 164 Z" /><glyph glyph-name="uni01B4" unicode="&#x1b4;" d="M280 179 q17 58 35.5 121 q18.5 63 35.5 117 q18 60 50 88.5 q32 28.5 98 28.5 q22 0 49.5 -4.5 q27.5 -4.5 53.5 -15.5 l-31 -109 q-15 7 -25.5 8.5 q-10.5 1.5 -18.5 1.5 q-18 0 -30 -9 q-12 -9 -21 -32 q-36 -96 -66.5 -193 q-30.5 -97 -65.5 -193 q-33 -88 -86.5 -130.5 q-53.5 -42.5 -139.5 -42.5 q-35 0 -64.5 6.5 q-29.5 6.5 -48.5 14.5 l26 119 q23 -8 41 -11 q18 -3 38 -3 q40 0 61.5 21.5 q21.5 21.5 36.5 59.5 q-50 99 -101.5 224.5 q-51.5 125.5 -96.5 279.5 l158 0 q10 -39 24 -84.5 q14 -45.5 29 -92 q15 -46.5 30 -90.5 q15 -44 29 -80 Z" /><glyph glyph-name="uni01B5" unicode="&#x1b5;" d="M338 299 q-31 -43 -59.5 -85.5 q-28.5 -42.5 -51.5 -82.5 l353 0 l0 -131 l-545 0 l0 93 q25 45 58.5 97.5 q33.5 52.5 71.5 108.5 l-103 0 l0 110 l181 0 q31 43 61.5 82 q30.5 39 57.5 71 l-311 0 l0 131 l518 0 l0 -108 q-29 -30 -67.5 -76 q-38.5 -46 -81.5 -100 l137 0 l0 -110 l-219 0 Z" /><glyph glyph-name="uni01B6" unicode="&#x1b6;" d="M465 431 q-17 -18 -45.5 -50.5 q-28.5 -32.5 -61.5 -70.5 l87 0 l0 -88 l-162 0 q-21 -26 -40.5 -52.5 q-19.5 -26.5 -36.5 -50.5 l264 0 l0 -119 l-435 0 l0 83 q17 30 42 65.5 q25 35.5 54 73.5 l-64 0 l0 88 l135 0 q22 26 42 51.5 q20 25.5 37 45.5 l-234 0 l0 119 l418 0 l0 -95 Z" /><glyph glyph-name="uni01B7" unicode="&#x1b7;" d="M178 392 q19 19 40.5 41.5 q21.5 22.5 43.5 45.5 q22 23 42 44.5 q20 21.5 35 39.5 l-283 0 l0 130 l485 0 l0 -93 q-12 -15 -33 -39 q-21 -24 -46 -51 q-25 -27 -51 -55 q-26 -28 -49 -52 q107 -19 152 -68 q45 -49 45 -130 q0 -57 -21.5 -98.5 q-21.5 -41.5 -61 -68.5 q-39.5 -27 -95 -40 q-55.5 -13 -122.5 -13 q-42 0 -79 6.5 q-37 6.5 -68 15.5 q-31 9 -54.5 19.5 q-23.5 10.5 -37.5 18.5 l46 124 q33 -17 83.5 -34 q50.5 -17 108.5 -17 q66 0 103 20.5 q37 20.5 37 68.5 q0 29 -12.5 48 q-12.5 19 -35 30.5 q-22.5 11.5 -54 16 q-31.5 4.5 -69.5 4.5 l-49 0 l0 86 Z" /><glyph glyph-name="uni01B8" unicode="&#x1b8;" d="M436 306 l-49 0 q-38 0 -69.5 -4.5 q-31.5 -4.5 -54 -16 q-22.5 -11.5 -35 -30.5 q-12.5 -19 -12.5 -48 q0 -48 37 -68.5 q37 -20.5 103 -20.5 q58 0 108.5 15.5 q50.5 15.5 83.5 32.5 l46 -124 q-14 -8 -37.5 -18 q-23.5 -10 -54.5 -18.5 q-31 -8.5 -68 -14.5 q-37 -6 -79 -6 q-68 0 -123 13 q-55 13 -94.5 40 q-39.5 27 -61 68.5 q-21.5 41.5 -21.5 98.5 q0 81 45 130 q45 49 152 68 q-23 24 -49 52 q-26 28 -51 55 q-25 27 -46 51 q-21 24 -33 39 l0 93 l485 0 l0 -130 l-283 0 q15 -18 35 -39.5 q20 -21.5 42 -44.5 q22 -23 43.5 -45.5 q21.5 -22.5 40.5 -41.5 l0 -86 Z" /><glyph glyph-name="uni01B9" unicode="&#x1b9;" d="M391 143 l-54 0 q-71 0 -109 -25 q-38 -25 -38 -77 q0 -46 31.5 -72 q31.5 -26 93.5 -26 q19 0 41 2 q22 2 43.5 6 q21.5 4 41.5 10 q20 6 36 13 l33 -119 q-17 -8 -40.5 -15.5 q-23.5 -7.5 -51 -13 q-27.5 -5.5 -56.5 -8.5 q-29 -3 -57 -3 q-124 0 -194.5 55 q-70.5 55 -70.5 165 q0 42 13.5 75.5 q13.5 33.5 36.5 59 q23 25.5 54.5 43 q31.5 17.5 67.5 27.5 q-44 53 -85 102.5 q-41 49.5 -66 81.5 l0 102 l423 0 l0 -124 l-234 0 q14 -18 31.5 -40.5 q17.5 -22.5 36.5 -45.5 q19 -23 37.5 -45.5 q18.5 -22.5 35.5 -40.5 l0 -87 Z" /><glyph glyph-name="uni01BA" unicode="&#x1ba;" d="M10 -102 q0 36 13 60.5 q13 24.5 36.5 41.5 q23.5 17 57 28.5 q33.5 11.5 74.5 21.5 q28 7 50 13 q22 6 38 14 q16 8 24.5 20 q8.5 12 8.5 30 q0 16 -5.5 28.5 q-5.5 12.5 -24.5 21.5 q-19 9 -55 14 q-36 5 -97 5 l0 87 q15 15 32.5 31 q17.5 16 34.5 32 q17 16 32 30.5 q15 14.5 27 25.5 l-233 0 l0 124 l423 0 l0 -102 q-14 -14 -31.5 -30.5 q-17.5 -16.5 -37 -35 q-19.5 -18.5 -39 -37 q-19.5 -18.5 -37.5 -34.5 q39 -9 69 -21 q30 -12 51 -31 q21 -19 31.5 -45.5 q10.5 -26.5 10.5 -64.5 q0 -47 -16.5 -78 q-16.5 -31 -48 -52.5 q-31.5 -21.5 -77.5 -36 q-46 -14.5 -105 -27.5 q-43 -10 -55.5 -23 q-12.5 -13 -12.5 -30 q0 -10 4 -23.5 q4 -13.5 9 -23.5 l-121 -24 q-10 18 -20 40 q-10 22 -10 51 Z" /><glyph glyph-name="uni01BB" unicode="&#x1bb;" d="M499 511 q0 -38 -18 -69 q-18 -31 -47 -64 l79 0 l0 -110 l-176 0 q-20 -19 -42 -40 q-22 -21 -41 -40.5 q-19 -19.5 -32.5 -36 q-13.5 -16.5 -16.5 -26.5 l315 0 l0 -125 l-480 0 q-2 11 -2 27.5 q0 16.5 0 23.5 q0 37 9 66 q9 29 24.5 54.5 q15.5 25.5 36.5 49 q21 23.5 45 47.5 l-91 0 l0 110 l197 0 q16 16 31.5 31.5 q15.5 15.5 28 30.5 q12.5 15 20 30.5 q7.5 15.5 7.5 30.5 q0 44 -26.5 62 q-26.5 18 -67.5 18 q-28 0 -52 -7.5 q-24 -7.5 -44 -18 q-20 -10.5 -35.5 -22.5 q-15.5 -12 -26.5 -22 l-74 104 q44 41 105 67.5 q61 26.5 133 26.5 q63 0 108.5 -14 q45.5 -14 75 -39.5 q29.5 -25.5 43.5 -62 q14 -36.5 14 -82.5 Z" /><glyph glyph-name="uni01BC" unicode="&#x1bc;" d="M526 209 q0 -48 -16 -89 q-16 -41 -50.5 -71 q-34.5 -30 -88 -46.5 q-53.5 -16.5 -128.5 -16.5 q-30 0 -61.5 4.5 q-31.5 4.5 -59 11 q-27.5 6.5 -49.5 13.5 q-22 7 -32 12 l31 131 q27 -12 70.5 -26 q43.5 -14 97.5 -14 q36 0 61 7 q25 7 40 19 q15 12 21.5 27.5 q6.5 15.5 6.5 32.5 q0 28 -14 50 q-14 22 -47 36.5 q-33 14.5 -88.5 22 q-55.5 7.5 -139.5 7.5 q8 71 14 128 q6 57 10 117 l-94 0 l0 128 l489 0 l0 -128 l-250 0 q-2 -32 -4.5 -65.5 q-2.5 -33.5 -6.5 -65.5 q288 -21 288 -225 Z" /><glyph glyph-name="uni01BD" unicode="&#x1bd;" d="M467 161 q0 -85 -62 -130 q-62 -45 -182 -45 q-68 0 -118.5 10.5 q-50.5 10.5 -69.5 18.5 l25 124 q9 -3 25 -8 q16 -5 37 -9 q21 -4 46 -7 q25 -3 52 -3 q99 0 99 51 q0 18 -7 30 q-7 12 -26 19.5 q-19 7.5 -52.5 10.5 q-33.5 3 -86.5 3 l-81 0 q5 49 10 93 q5 44 8 87 l-74 0 l0 120 l437 0 l0 -120 l-230 0 q-1 -17 -3 -37 q-2 -20 -4 -37 l32 0 q106 0 165.5 -42 q59.5 -42 59.5 -129 Z" /><glyph glyph-name="uni01BE" unicode="&#x1be;" d="M444 144 q0 -78 -58.5 -118 q-58.5 -40 -165.5 -40 q-70 0 -116.5 12 q-46.5 12 -64.5 20 l25 121 q38 -15 78 -23.5 q40 -8.5 79 -8.5 q41 0 58 8 q17 8 17 31 q0 19 -18.5 31.5 q-18.5 12.5 -66.5 30.5 q-33 12 -60.5 25.5 q-27.5 13.5 -47.5 33 q-20 19.5 -31 49.5 q-11 30 -11 75 l0 266 l149 24 l0 -155 l179 0 l0 -122 l-179 0 l0 -14 q0 -26 15.5 -41.5 q15.5 -15.5 56.5 -30.5 q38 -14 68 -28 q30 -14 51 -33 q21 -19 32 -46 q11 -27 11 -67 Z" /><glyph glyph-name="uni01BF" unicode="&#x1bf;" d="M391 304 q0 49 -28.5 77.5 q-28.5 28.5 -78.5 28.5 q-21 0 -37 -2.5 q-16 -2.5 -28 -5.5 l0 -314 q43 18 75.5 38 q32.5 20 54 45.5 q21.5 25.5 32 57.5 q10.5 32 10.5 75 ZM543 302 q0 -74 -25.5 -129 q-25.5 -55 -70 -95.5 q-44.5 -40.5 -103.5 -70 q-59 -29.5 -125 -53.5 l0 -139 l-149 0 l0 681 q36 14 92.5 28 q56.5 14 122.5 14 q60 0 107.5 -16.5 q47.5 -16.5 81 -47 q33.5 -30.5 51.5 -74 q18 -43.5 18 -98.5 Z" /><glyph glyph-name="uni01C2" unicode="&#x1c2;" d="M30 457 l184 0 l0 326 l143 0 l0 -326 l183 0 l0 -108 l-183 0 l0 -90 l183 0 l0 -108 l-183 0 l0 -336 l-143 0 l0 336 l-184 0 l0 108 l184 0 l0 90 l-184 0 l0 108 Z" /><glyph glyph-name="uni01DD" unicode="&#x1dd;" d="M539 267 q0 -70 -21.5 -122.5 q-21.5 -52.5 -56.5 -88 q-35 -35.5 -80.5 -53 q-45.5 -17.5 -93.5 -17.5 q-112 0 -177 68 q-65 68 -65 202 q0 13 1 28.5 q1 15.5 2 27.5 l338 0 q-5 46 -43 73 q-38 27 -102 27 q-42 0 -81 -7.5 q-39 -7.5 -64 -18.5 l-20 121 q12 6 32 12 q20 6 44.5 10.5 q24.5 4.5 52.5 7.5 q28 3 56 3 q71 0 123.5 -21 q52.5 -21 87 -57.5 q34.5 -36.5 51 -86.5 q16.5 -50 16.5 -108 ZM189 210 q1 -19 6.5 -37 q5.5 -18 16.5 -32.5 q11 -14.5 29 -23 q18 -8.5 44 -8.5 q25 0 43 8.5 q18 8.5 30 22.5 q12 14 18.5 32 q6.5 18 9.5 38 l-197 0 Z" /><glyph glyph-name="uni01E4" unicode="&#x1e4;" d="M384 312 l97 0 l0 74 l156 0 l0 -74 l81 0 l0 -107 l-81 0 l0 -182 q-28 -11 -90 -23.5 q-62 -12.5 -153 -12.5 q-78 0 -141.5 24 q-63.5 24 -108.5 70 q-45 46 -69.5 113 q-24.5 67 -24.5 153 q0 87 27 154 q27 67 74 113.5 q47 46.5 110.5 70.5 q63.5 24 135.5 24 q49 0 88.5 -6.5 q39.5 -6.5 68 -15 q28.5 -8.5 47 -17.5 q18.5 -9 26.5 -14 l-45 -125 q-32 17 -73.5 29.5 q-41.5 12.5 -90.5 12.5 q-109 0 -157.5 -60.5 q-48.5 -60.5 -48.5 -165.5 q0 -51 12 -92.5 q12 -41.5 36 -71.5 q24 -30 60 -46.5 q36 -16.5 84 -16.5 q26 0 44.5 1 q18.5 1 32.5 4 l0 80 l-97 0 l0 107 Z" /><glyph glyph-name="uni01E5" unicode="&#x1e5;" d="M524 336 l68 0 l0 -90 l-68 0 l0 -180 q0 -129 -65.5 -191.5 q-65.5 -62.5 -202.5 -62.5 q-48 0 -96 8.5 q-48 8.5 -89 22.5 l26 125 q35 -14 73.5 -22 q38.5 -8 87.5 -8 q64 0 90.5 28 q26.5 28 26.5 72 l0 19 q-24 -11 -49.5 -16.5 q-25.5 -5.5 -55.5 -5.5 q-109 0 -167 64.5 q-58 64.5 -58 180.5 q0 58 18 105.5 q18 47.5 52.5 81.5 q34.5 34 84.5 52.5 q50 18.5 113 18.5 q27 0 55.5 -2.5 q28.5 -2.5 56.5 -6.5 q28 -4 53.5 -9.5 q25.5 -5.5 45.5 -11.5 l0 -172 ZM300 336 l75 0 l0 79 q-11 2 -26 3.5 q-15 1.5 -35 1.5 q-61 0 -90 -40 q-29 -40 -29 -100 q0 -63 24.5 -95 q24.5 -32 78.5 -32 q23 0 43 6 q20 6 34 14 l0 73 l-75 0 l0 90 Z" /><glyph glyph-name="uni01EA" unicode="&#x1ea;" d="M449 -221 q-67 0 -96 25 q-29 25 -29 66 q0 21 9 41 q9 20 24 39 q17 22 34 36 q-71 1 -133 24 q-62 23 -108 68.5 q-46 45.5 -73 112.5 q-27 67 -27 156 q0 89 28 156.5 q28 67.5 75.5 113.5 q47.5 46 110 69 q62.5 23 131.5 23 q71 0 134 -23 q63 -23 110 -69 q47 -46 74 -113.5 q27 -67.5 27 -156.5 q0 -104 -34.5 -175.5 q-34.5 -71.5 -97.5 -119.5 q-16 -12 -32 -22.5 q-16 -10.5 -31.5 -21 q-15.5 -10.5 -31 -22 q-15.5 -11.5 -30.5 -27.5 q-13 -13 -20.5 -24.5 q-7.5 -11.5 -7.5 -22.5 q0 -11 6.5 -18 q6.5 -7 23.5 -7 q9 0 21.5 1.5 q12.5 1.5 29.5 6.5 l12 -100 q-20 -8 -48 -12 q-28 -4 -51 -4 ZM211 347 q0 -51 12.5 -92 q12.5 -41 36 -70.5 q23.5 -29.5 57.5 -45.5 q34 -16 78 -16 q43 0 77.5 16 q34.5 16 58 45.5 q23.5 29.5 36 70.5 q12.5 41 12.5 92 q0 51 -12.5 92.5 q-12.5 41.5 -36 71 q-23.5 29.5 -58 45.5 q-34.5 16 -77.5 16 q-44 0 -78 -16.5 q-34 -16.5 -57.5 -46 q-23.5 -29.5 -36 -71 q-12.5 -41.5 -12.5 -91.5 Z" /><glyph glyph-name="uni01EB" unicode="&#x1eb;" d="M333 -221 q-67 0 -96 25 q-29 25 -29 66 q0 21 9 41 q9 20 24 39 q8 11 17.5 20.5 q9.5 9.5 18.5 17.5 q-52 4 -95 26 q-43 22 -73.5 58 q-30.5 36 -47 84.5 q-16.5 48.5 -16.5 107.5 q0 62 19.5 113 q19.5 51 54 87 q34.5 36 82 56 q47.5 20 103.5 20 q57 0 104.5 -20 q47.5 -20 81.5 -56 q34 -36 53 -87 q19 -51 19 -113 q0 -84 -32 -146 q-32 -62 -89 -97 q-19 -11 -36.5 -26.5 q-17.5 -15.5 -37.5 -35.5 q-13 -13 -20.5 -24.5 q-7.5 -11.5 -7.5 -22.5 q0 -11 6.5 -18 q6.5 -7 23.5 -7 q9 0 21.5 1.5 q12.5 1.5 29.5 6.5 l12 -100 q-20 -8 -48 -12 q-28 -4 -51 -4 ZM410 264 q0 69 -27.5 108.5 q-27.5 39.5 -78.5 39.5 q-51 0 -79 -39.5 q-28 -39.5 -28 -108.5 q0 -69 28 -109.5 q28 -40.5 79 -40.5 q51 0 78.5 40.5 q27.5 40.5 27.5 109.5 Z" /><glyph glyph-name="uni01F6" unicode="&#x1f6;" d="M491 693 l156 0 l0 -427 q0 -75 22.5 -110.5 q22.5 -35.5 77.5 -35.5 q54 0 76.5 35.5 q22.5 35.5 22.5 110.5 l0 268 l155 0 l0 -286 q0 -56 -11 -104 q-11 -48 -39.5 -83 q-28.5 -35 -78 -55 q-49.5 -20 -125.5 -20 q-75 0 -124.5 19.5 q-49.5 19.5 -78.5 54 q-29 34.5 -41 82 q-12 47.5 -12 103.5 l0 49 l-255 0 l0 -294 l-156 0 l0 693 l156 0 l0 -265 l255 0 l0 265 Z" /><glyph glyph-name="uni01F7" unicode="&#x1f7;" d="M236 -185 l-156 0 l0 833 q21 8 49 17 q28 9 60 16.5 q32 7.5 66.5 12.5 q34.5 5 68.5 5 q146 0 226.5 -67.5 q80.5 -67.5 80.5 -196.5 q0 -83 -30 -149.5 q-30 -66.5 -83.5 -119 q-53.5 -52.5 -125.5 -93.5 q-72 -41 -156 -73 l0 -185 ZM236 146 q51 23 94 50 q43 27 74 61.5 q31 34.5 48 79 q17 44.5 17 102.5 q0 61 -38.5 94 q-38.5 33 -105.5 33 q-29 0 -51 -3 q-22 -3 -38 -7 l0 -410 Z" /><glyph glyph-name="Aringacute" unicode="&#x1fa;" d="M544 0 q-11 36 -24.5 74 q-13.5 38 -26.5 76 l-270 0 q-13 -38 -26.5 -76 q-13.5 -38 -24.5 -74 l-162 0 q36 105 69 195 q33 90 64.5 169.5 q31.5 79.5 62 151.5 q30.5 72 62.5 140 q-14 23 -14 55 q0 25 8.5 44 q8.5 19 22.5 32 q14 13 32.5 19.5 q18.5 6.5 39.5 6.5 q42 0 73.5 -25.5 q31.5 -25.5 31.5 -76.5 q0 -15 -3.5 -27 q-3.5 -12 -8.5 -23 q32 -69 63 -141.5 q31 -72.5 62.5 -152.5 q31.5 -80 65 -171 q33.5 -91 70.5 -196 l-167 0 ZM357 536 q-5 -15 -15 -41 q-10 -26 -23 -60 q-13 -34 -28.5 -75 q-15.5 -41 -31.5 -86 l197 0 q-16 45 -31.5 86 q-15.5 41 -28.5 75 q-13 34 -23 60 q-10 26 -16 41 ZM394 711 q0 18 -11.5 28 q-11.5 10 -25.5 10 q-13 0 -24.5 -10 q-11.5 -10 -11.5 -28 q0 -18 11.5 -27.5 q11.5 -9.5 24.5 -9.5 q14 0 25.5 9.5 q11.5 9.5 11.5 27.5 ZM456 882 l-169 -64 l-32 60 l162 84 l39 -80 Z" /><glyph glyph-name="uni021C" unicode="&#x21c;" d="M110 -49 q48 0 92.5 6.5 q44.5 6.5 78.5 23.5 q34 17 54.5 45.5 q20.5 28.5 20.5 72.5 q0 38 -15.5 63.5 q-15.5 25.5 -40.5 41 q-25 15.5 -57.5 22 q-32.5 6.5 -66.5 6.5 l-65 0 l0 131 l57 0 q72 0 116.5 28 q44.5 28 44.5 85 q0 48 -31.5 73 q-31.5 25 -82.5 25 q-39 0 -79 -10 q-40 -10 -70 -25 l-51 124 q43 21 95 33.5 q52 12.5 110 12.5 q58 0 107 -13 q49 -13 85 -40.5 q36 -27.5 56.5 -71 q20.5 -43.5 20.5 -103.5 q0 -51 -26 -96 q-26 -45 -77 -76 q66 -31 98.5 -86 q32.5 -55 32.5 -118 q0 -82 -33 -137.5 q-33 -55.5 -88.5 -89.5 q-55.5 -34 -128.5 -49 q-73 -15 -154 -15 q-6 0 -17.5 0 q-11.5 0 -25 0.5 q-13.5 0.5 -28 1.5 q-14.5 1 -26.5 3 l10 136 q10 -1 22 -2 q12 -1 24 -1.5 q12 -0.5 22 -0.5 q10 0 16 0 Z" /><glyph glyph-name="uni021D" unicode="&#x21d;" d="M177 540 q51 0 94.5 -10 q43.5 -10 75 -32 q31.5 -22 49.5 -55.5 q18 -33.5 18 -80.5 q0 -39 -23 -76 q-23 -37 -77 -66 q57 -20 88.5 -63 q31.5 -43 31.5 -100 q0 -68 -33 -113.5 q-33 -45.5 -89.5 -74 q-56.5 -28.5 -132 -41.5 q-75.5 -13 -160.5 -14 l-9 126 q50 2 98 7 q48 5 86 18 q38 13 61 35.5 q23 22.5 23 58.5 q0 25 -10.5 41 q-10.5 16 -29 26 q-18.5 10 -43.5 14 q-25 4 -53 4 l-26 0 l0 121 q75 0 110 21 q35 21 35 64 q0 30 -21 46.5 q-21 16.5 -63 16.5 q-69 0 -129 -23 l-30 122 q12 4 29.5 9 q17.5 5 38.5 9 q21 4 44.5 7 q23.5 3 46.5 3 Z" /><glyph glyph-name="uni0220" unicode="&#x220;" d="M80 678 q48 12 114 21.5 q66 9.5 147 9.5 q82 0 137 -22 q55 -22 88.5 -61.5 q33.5 -39.5 48 -94 q14.5 -54.5 14.5 -119.5 l0 -597 l-156 0 l0 599 q0 44 -10.5 74.5 q-10.5 30.5 -29 49.5 q-18.5 19 -45 27.5 q-26.5 8.5 -57.5 8.5 q-26 0 -51.5 -2 q-25.5 -2 -43.5 -5 l0 -567 l-156 0 l0 678 Z" /><glyph glyph-name="uni0221" unicode="&#x221;" d="M534 134 q11 6 31.5 13.5 q20.5 7.5 49.5 7.5 q32 0 61 -11 q29 -11 50.5 -32 q21.5 -21 34.5 -52 q13 -31 13 -72 q0 -44 -14.5 -76.5 q-14.5 -32.5 -39.5 -54 q-25 -21.5 -58.5 -32 q-33.5 -10.5 -70.5 -10.5 q-60 0 -101 24 q-41 24 -64 67 l-74 -81 l-76 72 l82 91 q-11 -1 -20.5 -1 q-9.5 0 -18.5 0 q-65 0 -116 19 q-51 19 -86 54.5 q-35 35.5 -53.5 86 q-18.5 50.5 -18.5 113.5 q0 64 16 115.5 q16 51.5 46 87.5 q30 36 73.5 55 q43.5 19 99.5 19 q31 0 55.5 -6 q24.5 -6 49.5 -17 l0 238 l149 24 l0 -642 ZM197 267 q0 -69 31 -111 q31 -42 92 -42 q20 0 37 1.5 q17 1.5 28 3.5 l0 271 q-14 9 -36.5 15 q-22.5 6 -45.5 6 q-106 0 -106 -144 ZM534 -2 q0 -31 12.5 -52 q12.5 -21 44.5 -21 q27 0 41 18 q14 18 14 39 q0 25 -14.5 42.5 q-14.5 17.5 -40.5 17.5 q-16 0 -31.5 -6 q-15.5 -6 -25.5 -16 l0 -22 Z" /><glyph glyph-name="uni0222" unicode="&#x222;" d="M356 433 q56 0 80.5 32 q24.5 32 24.5 81 q0 20 -0.5 36 q-0.5 16 -2 32.5 q-1.5 16.5 -4.5 35 q-3 18.5 -8 43.5 l151 0 q10 -41 15 -75.5 q5 -34.5 5 -79.5 q0 -19 -2.5 -41 q-2.5 -22 -10 -43.5 q-7.5 -21.5 -22.5 -41 q-15 -19.5 -39 -33.5 q35 -17 58 -37.5 q23 -20.5 36.5 -43 q13.5 -22.5 19 -47 q5.5 -24.5 5.5 -48.5 q0 -102 -72 -159.5 q-72 -57.5 -234 -57.5 q-162 0 -234 57.5 q-72 57.5 -72 159.5 q0 24 5.5 48.5 q5.5 24.5 19 47 q13.5 22.5 36.5 43 q23 20.5 58 37.5 q-24 14 -39 33.5 q-15 19.5 -22.5 41 q-7.5 21.5 -10 43.5 q-2.5 22 -2.5 41 q0 45 4.5 79.5 q4.5 34.5 15.5 75.5 l151 0 q-5 -25 -8 -43.5 q-3 -18.5 -4.5 -35 q-1.5 -16.5 -2 -32.5 q-0.5 -16 -0.5 -36 q0 -49 24.5 -81 q24.5 -32 80.5 -32 ZM356 115 q29 0 55.5 5.5 q26.5 5.5 46.5 17.5 q20 12 32 30 q12 18 12 43 q0 50 -41 72.5 q-41 22.5 -105 22.5 q-64 0 -105 -22.5 q-41 -22.5 -41 -72.5 q0 -25 12 -43 q12 -18 32 -30 q20 -12 46.5 -17.5 q26.5 -5.5 55.5 -5.5 Z" /><glyph glyph-name="uni0223" unicode="&#x223;" d="M299 489 q39 0 61 31 q22 31 22 90 q0 29 -2 74 q-2 45 -9 92 l140 0 q8 -40 12.5 -80.5 q4.5 -40.5 4.5 -83.5 q0 -62 -19.5 -105.5 q-19.5 -43.5 -70.5 -71.5 q62 -30 91 -85.5 q29 -55.5 29 -119.5 q0 -56 -19 -101.5 q-19 -45.5 -53.5 -77 q-34.5 -31.5 -82 -48.5 q-47.5 -17 -104.5 -17 q-57 0 -104.5 17 q-47.5 17 -82 48.5 q-34.5 31.5 -53.5 77 q-19 45.5 -19 101.5 q0 64 29 119.5 q29 55.5 91 85.5 q-51 28 -70.5 71.5 q-19.5 43.5 -19.5 105.5 q0 43 4.5 83.5 q4.5 40.5 12.5 80.5 l140 0 q-7 -47 -9 -92 q-2 -45 -2 -74 q0 -59 22 -90 q22 -31 61 -31 ZM299 114 q49 0 78 31.5 q29 31.5 29 90.5 q0 57 -29 91 q-29 34 -78 34 q-49 0 -78 -34 q-29 -34 -29 -91 q0 -59 29 -90.5 q29 -31.5 78 -31.5 Z" /><glyph glyph-name="uni0224" unicode="&#x224;" d="M569 585 q-32 -33 -76 -85.5 q-44 -52.5 -91 -114.5 q-47 -62 -93 -128 q-46 -66 -82 -126 l353 0 l0 -114 q0 -104 -45.5 -154 q-45.5 -50 -144.5 -50 q-14 0 -38.5 2.5 q-24.5 2.5 -48.5 10.5 l20 115 q16 -5 25.5 -6.5 q9.5 -1.5 29.5 -1.5 q57 0 57 67 l-400 0 l0 93 q28 51 68.5 113.5 q40.5 62.5 84.5 126 q44 63.5 89.5 123 q45.5 59.5 84.5 106.5 l-311 0 l0 131 l518 0 l0 -108 Z" /><glyph glyph-name="uni0225" unicode="&#x225;" d="M465 426 q-18 -20 -48.5 -54 q-30.5 -34 -65.5 -75 q-35 -41 -70.5 -86 q-35.5 -45 -64.5 -87 l254 0 l0 -146 q0 -82 -44.5 -122.5 q-44.5 -40.5 -124.5 -40.5 q-13 0 -39 2.5 q-26 2.5 -49 10.5 l19 106 q14 -5 26 -6.5 q12 -1.5 30 -1.5 q26 0 42 12 q16 12 16 38 l0 24 l-311 0 l0 88 q21 36 50.5 77.5 q29.5 41.5 62 83.5 q32.5 42 64.5 81.5 q32 39.5 59 71.5 l-224 0 l0 124 l418 0 l0 -100 Z" /><glyph glyph-name="uni0228" unicode="&#x228;" d="M80 0 l0 693 l468 0 l0 -131 l-312 0 l0 -136 l277 0 l0 -128 l-277 0 l0 -167 l335 0 l0 -131 l-185 0 q-5 -10 -10 -21 q-5 -11 -8 -19 q32 -16 44 -38 q12 -22 12 -45 q0 -48 -38 -73 q-38 -25 -100 -25 q-22 0 -44 3.5 q-22 3.5 -44 9.5 l18 87 q7 -2 25.5 -6.5 q18.5 -4.5 36.5 -4.5 q14 0 24.5 5.5 q10.5 5.5 11.5 19.5 q1 12 -9.5 22 q-10.5 10 -33.5 15 l-12 3 q5 14 13 33 q8 19 15 34 l-207 0 Z" /><glyph glyph-name="uni0229" unicode="&#x229;" d="M45 259 q0 70 21.5 122.5 q21.5 52.5 56.5 87.5 q35 35 80.5 53 q45.5 18 93.5 18 q112 0 177 -68.5 q65 -68.5 65 -201.5 q0 -13 -1 -28.5 q-1 -15.5 -2 -27.5 l-338 0 q5 -46 43 -73 q38 -27 102 -27 q41 0 80.5 7.5 q39.5 7.5 64.5 18.5 l20 -121 q-20 -11 -63 -20 q-43 -9 -91 -12 q-4 -8 -7 -15 q-3 -7 -5 -12 q32 -16 44 -38 q12 -22 12 -45 q0 -48 -38 -73 q-38 -25 -100 -25 q-22 0 -44 3.5 q-22 3.5 -44 9.5 l18 87 q7 -2 25.5 -6.5 q18.5 -4.5 36.5 -4.5 q14 0 24.5 5.5 q10.5 5.5 11.5 19.5 q1 12 -9.5 22 q-10.5 10 -33.5 15 l-12 3 q4 12 10.5 28.5 q6.5 16.5 13.5 30.5 q-54 9 -94 32.5 q-40 23.5 -66.5 59 q-26.5 35.5 -39 80 q-12.5 44.5 -12.5 95.5 ZM395 316 q-1 19 -6.5 37 q-5.5 18 -17 32 q-11.5 14 -29 23 q-17.5 9 -43.5 9 q-25 0 -43 -8.5 q-18 -8.5 -30 -22.5 q-12 -14 -18.5 -32.5 q-6.5 -18.5 -9.5 -37.5 l197 0 Z" /><glyph glyph-name="uni0234" unicode="&#x234;" d="M261 134 q10 7 31 14 q21 7 50 7 q32 0 61 -11 q29 -11 50.5 -32 q21.5 -21 34.5 -52 q13 -31 13 -72 q0 -44 -14.5 -76.5 q-14.5 -32.5 -39.5 -54 q-25 -21.5 -58.5 -32 q-33.5 -10.5 -70.5 -10.5 q-61 0 -103.5 24.5 q-42.5 24.5 -67.5 68.5 l-76 -83 l-76 72 l118 131 q-1 13 -1 23 l0 700 l149 24 l0 -641 ZM260 -2 q0 -31 13 -52 q13 -21 45 -21 q27 0 41 18 q14 18 14 39 q0 25 -14.5 42.5 q-14.5 17.5 -40.5 17.5 q-16 0 -32 -6.5 q-16 -6.5 -26 -16.5 l0 -21 Z" /><glyph glyph-name="uni0235" unicode="&#x235;" d="M375 279 q0 72 -19 102 q-19 30 -71 30 q-16 0 -34 -1.5 q-18 -1.5 -32 -3.5 l0 -406 l-149 0 l0 508 q38 11 98 20.5 q60 9.5 126 9.5 q67 0 111.5 -17.5 q44.5 -17.5 70.5 -49.5 q26 -32 37 -76 q11 -44 11 -98 l0 -163 q11 5 31.5 13 q20.5 8 49.5 8 q32 0 61 -11 q29 -11 50.5 -32 q21.5 -21 34.5 -52 q13 -31 13 -72 q0 -44 -14.5 -76.5 q-14.5 -32.5 -39.5 -54 q-25 -21.5 -58.5 -32 q-33.5 -10.5 -70.5 -10.5 q-61 0 -103.5 24.5 q-42.5 24.5 -67.5 68.5 l-76 -83 l-76 72 l118 131 q-1 13 -1 23 l0 228 ZM523 -2 q0 -31 13 -52 q13 -21 45 -21 q27 0 41 18 q14 18 14 39 q0 25 -14.5 42.5 q-14.5 17.5 -40.5 17.5 q-16 0 -32 -6 q-16 -6 -26 -17 l0 -21 Z" /><glyph glyph-name="uni0236" unicode="&#x236;" d="M261 134 q11 5 31.5 13 q20.5 8 49.5 8 q32 0 61 -11 q29 -11 50.5 -32 q21.5 -21 34.5 -52 q13 -31 13 -72 q0 -44 -14.5 -76.5 q-14.5 -32.5 -39.5 -54 q-25 -21.5 -58.5 -32 q-33.5 -10.5 -70.5 -10.5 q-61 0 -103.5 24.5 q-42.5 24.5 -67.5 68.5 l-76 -83 l-76 72 l118 131 q-1 13 -1 23 l0 606 l149 24 l0 -155 l179 0 l0 -124 l-179 0 l0 -268 ZM260 -3 q0 -31 13 -52 q13 -21 45 -21 q27 0 41 18 q14 18 14 39 q0 25 -14.5 42.5 q-14.5 17.5 -40.5 17.5 q-16 0 -32 -6 q-16 -6 -26 -17 l0 -21 Z" /><glyph glyph-name="uni0238" unicode="&#x238;" d="M722 267 q0 144 -106 144 q-23 0 -45.5 -6 q-22.5 -6 -36.5 -15 l0 -271 q11 -2 28 -3.5 q17 -1.5 37 -1.5 q61 0 92 42 q31 42 31 111 ZM460 12 q-34 -11 -70 -18 q-36 -7 -71 -7 q-65 0 -116 19 q-51 19 -86 54.5 q-35 35.5 -53.5 86 q-18.5 50.5 -18.5 113.5 q0 64 16 115.5 q16 51.5 46 87.5 q30 36 73.5 55 q43.5 19 99.5 19 q31 0 55.5 -6 q24.5 -6 49.5 -17 l0 238 l149 24 l0 -262 q25 11 52 17 q27 6 58 6 q56 0 99 -19.5 q43 -19.5 72 -55.5 q29 -36 44 -86.5 q15 -50.5 15 -112.5 q0 -63 -18.5 -114 q-18.5 -51 -53.5 -87 q-35 -36 -86 -55.5 q-51 -19.5 -116 -19.5 q-34 0 -70 7 q-36 7 -70 18 ZM197 267 q0 -69 31 -111 q31 -42 92 -42 q20 0 37 1.5 q17 1.5 28 3.5 l0 271 q-14 9 -36.5 15 q-22.5 6 -45.5 6 q-106 0 -106 -144 Z" /><glyph glyph-name="uni0239" unicode="&#x239;" d="M197 259 q0 -143 106 -143 q23 0 45.5 6 q22.5 6 36.5 15 l0 269 q-11 2 -28 3.5 q-17 1.5 -37 1.5 q-61 0 -92 -41.5 q-31 -41.5 -31 -110.5 ZM459 511 q34 11 70.5 19 q36.5 8 70.5 8 q65 0 116 -19.5 q51 -19.5 86 -55 q35 -35.5 53.5 -86.5 q18.5 -51 18.5 -114 q0 -61 -15 -111 q-15 -50 -44 -86 q-29 -36 -72 -56 q-43 -20 -99 -20 q-31 0 -58 6 q-27 6 -52 17 l0 -198 l-149 0 l0 198 q-25 -11 -52 -17 q-27 -6 -58 -6 q-112 0 -171 73.5 q-59 73.5 -59 199.5 q0 61 18.5 111.5 q18.5 50.5 53.5 87 q35 36.5 86 56.5 q51 20 116 20 q33 0 69.5 -8 q36.5 -8 70.5 -19 ZM722 259 q0 69 -31 110.5 q-31 41.5 -92 41.5 q-20 0 -37 -1.5 q-17 -1.5 -28 -3.5 l0 -269 q14 -9 36.5 -15 q22.5 -6 45.5 -6 q106 0 106 143 Z" /><glyph glyph-name="uni023A" unicode="&#x23a;" d="M516 558 q51 -116 104.5 -251.5 q53.5 -135.5 112.5 -306.5 l-167 0 q-11 36 -23 74 q-12 38 -25 76 l-136 0 l-82 -247 l-85 25 l73 222 l-68 0 q-13 -38 -25 -76 q-12 -38 -23 -74 l-162 0 q39 112 74 207 q35 95 68.5 179 q33.5 84 66.5 159.5 q33 75.5 68 147.5 l149 0 l18 -39 l44 133 l87 -24 l-69 -205 ZM358 533 q-5 -15 -15.5 -41 q-10.5 -26 -24 -60.5 q-13.5 -34.5 -29 -76 q-15.5 -41.5 -31.5 -86.5 l69 0 l61 186 l-30 78 ZM477 269 q-7 20 -14.5 40.5 q-7.5 20.5 -14.5 38.5 l-27 -79 l56 0 Z" /><glyph glyph-name="uni023B" unicode="&#x23b;" d="M578 677 q18 -7 32 -14 q14 -7 25 -13 l-45 -126 q-11 6 -25 12.5 q-14 6.5 -30 11.5 l-140 -424 l15 0 q34 0 61 4 q27 4 48 9.5 q21 5.5 37 12.5 q16 7 29 13 l43 -125 q-33 -20 -93 -36 q-60 -16 -139 -16 q-12 0 -23.5 0.5 q-11.5 0.5 -22.5 1.5 l-30 -90 l-98 29 l27 82 q-98 35 -148.5 121 q-50.5 86 -50.5 217 q0 86 27 153.5 q27 67.5 74 114 q47 46.5 112 70.5 q65 24 141 24 q20 0 38.5 -1.5 q18.5 -1.5 35.5 -3.5 l28 85 l100 -28 l-28 -84 ZM212 350 q0 -65 19.5 -117 q19.5 -52 64.5 -81 l137 417 q-8 1 -15.5 1.5 q-7.5 0.5 -15.5 0.5 q-36 0 -70.5 -12 q-34.5 -12 -61 -38.5 q-26.5 -26.5 -42.5 -68.5 q-16 -42 -16 -102 Z" /><glyph glyph-name="uni023C" unicode="&#x23c;" d="M427 524 q16 -5 30 -10.5 q14 -5.5 27 -10.5 l-32 -119 q-12 5 -28 10 q-16 5 -36 10 l-94 -287 q18 -3 40 -3 q27 0 58 5 q31 5 57 16 l21 -122 q-26 -11 -65 -19 q-39 -8 -86 -8 q-35 0 -66 6 l-26 -81 l-78 23 l26 82 q-68 34 -99 99 q-31 65 -31 148 q0 57 18.5 107.5 q18.5 50.5 53.5 88 q35 37.5 85 59.5 q50 22 114 22 q8 0 15 -0.5 q7 -0.5 14 -0.5 l24 73 l80 -22 l-22 -66 ZM197 263 q0 -32 5.5 -58 q5.5 -26 19.5 -45 l81 250 q-54 -8 -80 -47.5 q-26 -39.5 -26 -99.5 Z" /><glyph glyph-name="uni023D" unicode="&#x23d;" d="M10 426 l81 0 l0 267 l156 0 l0 -267 l137 0 l0 -110 l-137 0 l0 -182 l307 0 l0 -134 l-463 0 l0 316 l-81 0 l0 110 Z" /><glyph glyph-name="uni023E" unicode="&#x23e;" d="M31 12 l195 248 l0 300 l-209 0 l0 133 l549 0 l51 65 l71 -58 l-306 -390 l0 -310 l-156 0 l0 112 l-124 -158 l-71 58 ZM382 458 l79 102 l-79 0 l0 -102 Z" /><glyph glyph-name="uni023F" unicode="&#x23f;" d="M222 107 q41 0 57.5 8.5 q16.5 8.5 16.5 30.5 q0 18 -21 31.5 q-21 13.5 -66 30.5 q-35 13 -63.5 27 q-28.5 14 -49 33.5 q-20.5 19.5 -32 46.5 q-11.5 27 -11.5 65 q0 74 55 117 q55 43 151 43 q48 0 92 -8.5 q44 -8.5 70 -18.5 l-26 -116 q-26 9 -56.5 16 q-30.5 7 -68.5 7 q-70 0 -70 -39 q0 -19 18 -31.5 q18 -12.5 63 -29.5 q49 -18 80.5 -35.5 q31.5 -17.5 50 -37.5 q18.5 -20 25.5 -45 q7 -25 7 -58 q0 -69 -48 -106.5 q-48 -37.5 -133 -37.5 q-7 0 -13.5 0 q-6.5 0 -13.5 1 q19 -19 33 -31.5 q14 -12.5 26.5 -20 q12.5 -7.5 25.5 -11 q13 -3.5 29 -3.5 q22 0 61 6 l14 -114 q-25 -7 -52 -9.5 q-27 -2.5 -40 -2.5 q-38 0 -67.5 12 q-29.5 12 -54 31.5 q-24.5 19.5 -44.5 43.5 q-20 24 -40 48 q-20 24 -41 45 q-21 21 -46 35 l40 103 q38 -15 70.5 -20.5 q32.5 -5.5 71.5 -5.5 Z" /><glyph glyph-name="uni0240" unicode="&#x240;" d="M465 426 q-12 -13 -31.5 -35 q-19.5 -22 -43.5 -50 q-24 -28 -50.5 -60 q-26.5 -32 -52.5 -65 q-26 -33 -49.5 -65 q-23.5 -32 -41.5 -60 q38 -13 67.5 -38 q29.5 -25 56 -50.5 q26.5 -25.5 52.5 -44.5 q26 -19 58 -19 q34 0 66 6 l14 -118 q-25 -7 -52.5 -9.5 q-27.5 -2.5 -39.5 -2.5 q-37 0 -66 13.5 q-29 13.5 -54.5 34.5 q-25.5 21 -49 44.5 q-23.5 23.5 -50 44.5 q-26.5 21 -58 34.5 q-31.5 13.5 -72.5 13.5 l-33 0 l0 88 q21 36 50.5 77.5 q29.5 41.5 62 83.5 q32.5 42 64.5 81.5 q32 39.5 59 71.5 l-224 0 l0 124 l418 0 l0 -100 Z" /><glyph glyph-name="uni0241" unicode="&#x241;" d="M262 0 l-156 0 l0 198 q0 36 9 64 q9 28 23.5 49.5 q14.5 21.5 33 39 q18.5 17.5 37.5 32.5 q21 16 40 29 q19 13 33.5 26.5 q14.5 13.5 23 29 q8.5 15.5 8.5 37.5 q0 35 -26.5 50.5 q-26.5 15.5 -70.5 15.5 q-22 0 -45.5 -4 q-23.5 -4 -45.5 -10 q-22 -6 -41.5 -13.5 q-19.5 -7.5 -32.5 -14.5 l-50 126 q17 9 41.5 19 q24.5 10 53 17.5 q28.5 7.5 59.5 12.5 q31 5 63 5 q122 0 188.5 -51 q66.5 -51 66.5 -141 q0 -36 -7.5 -63.5 q-7.5 -27.5 -20 -48.5 q-12.5 -21 -29.5 -37.5 q-17 -16.5 -36 -31.5 q-21 -17 -42.5 -32.5 q-21.5 -15.5 -38.5 -33.5 q-17 -18 -27.5 -40.5 q-10.5 -22.5 -10.5 -53.5 l0 -176 Z" /><glyph glyph-name="uni0242" unicode="&#x242;" d="M246 0 l-149 0 l0 115 q0 32 8.5 56.5 q8.5 24.5 22 43 q13.5 18.5 31 32.5 q17.5 14 34.5 26 q15 11 29.5 21 q14.5 10 26 20.5 q11.5 10.5 18 23 q6.5 12.5 6.5 28.5 q0 20 -15 33 q-15 13 -57 13 q-37 0 -77.5 -10.5 q-40.5 -10.5 -70.5 -26.5 l-46 118 q11 6 31.5 14 q20.5 8 47 15.5 q26.5 7.5 56.5 12.5 q30 5 60 5 q106 0 162 -44.5 q56 -44.5 56 -120.5 q0 -30 -5.5 -52.5 q-5.5 -22.5 -15.5 -39.5 q-10 -17 -22.5 -30 q-12.5 -13 -27.5 -23 q-19 -14 -37.5 -26.5 q-18.5 -12.5 -33 -27 q-14.5 -14.5 -23.5 -32 q-9 -17.5 -9 -41.5 l0 -103 Z" /><glyph glyph-name="uni0243" unicode="&#x243;" d="M311 -9 q-57 0 -113.5 3.5 q-56.5 3.5 -117.5 16.5 l0 158 l-70 0 l0 88 l70 0 l0 426 q48 9 105 13.5 q57 4.5 106 4.5 q66 0 121.5 -9.5 q55.5 -9.5 95.5 -32.5 q40 -23 62.5 -60.5 q22.5 -37.5 22.5 -92.5 q0 -83 -80 -131 q66 -25 90 -68 q24 -43 24 -97 q0 -109 -79.5 -164 q-79.5 -55 -236.5 -55 ZM232 304 l0 -47 l94 0 l0 -88 l-94 0 l0 -48 q17 -2 37 -3 q20 -1 44 -1 q35 0 63.5 4.5 q28.5 4.5 49 15.5 q20.5 11 32 29.5 q11.5 18.5 11.5 46.5 q0 49 -36 70 q-36 21 -103 21 l-98 0 ZM232 421 l76 0 q72 0 103 18.5 q31 18.5 31 59.5 q0 42 -32 59 q-32 17 -94 17 q-20 0 -43 -0.5 q-23 -0.5 -41 -2.5 l0 -151 Z" /><glyph glyph-name="uni0244" unicode="&#x244;" d="M10 437 l81 0 l0 256 l156 0 l0 -256 l255 0 l0 256 l156 0 l0 -256 l81 0 l0 -110 l-81 0 l0 -65 q0 -61 -17 -112 q-17 -51 -52 -87.5 q-35 -36.5 -89 -56.5 q-54 -20 -128 -20 q-73 0 -126 20.5 q-53 20.5 -87.5 57 q-34.5 36.5 -51 87 q-16.5 50.5 -16.5 111.5 l0 65 l-81 0 l0 110 ZM374 121 q57 0 92.5 35 q35.5 35 35.5 119 l0 52 l-255 0 l0 -52 q0 -42 9.5 -71.5 q9.5 -29.5 26 -48 q16.5 -18.5 40 -26.5 q23.5 -8 51.5 -8 Z" /><glyph glyph-name="uni0246" unicode="&#x246;" d="M308 0 l-38 -101 l-85 30 l27 71 l-132 0 l0 693 l394 0 l32 83 l87 -29 l-123 -321 l48 0 l0 -128 l-96 0 l-64 -167 l218 0 l0 -131 l-268 0 ZM236 426 l137 0 l52 136 l-189 0 l0 -136 ZM236 131 l25 0 l64 167 l-89 0 l0 -167 Z" /><glyph glyph-name="uni0247" unicode="&#x247;" d="M45 259 q0 70 21.5 122.5 q21.5 52.5 56.5 87.5 q35 35 79.5 53 q44.5 18 91.5 18 q31 0 54 -4 l25 78 l79 -25 l-24 -72 q60 -29 92 -91 q32 -62 32 -156 q0 -13 -1 -27 q-1 -14 -2 -26 l-218 0 l-31 -96 q25 -7 60 -7 q41 0 78.5 7.5 q37.5 7.5 62.5 18.5 l20 -121 q-12 -6 -31 -12 q-19 -6 -43 -10.5 q-24 -4.5 -51.5 -7.5 q-27.5 -3 -55.5 -3 q-23 0 -43 2 q-20 2 -39 6 l-27 -84 l-77 26 l25 78 q-68 32 -101 97.5 q-33 65.5 -33 147.5 ZM274 309 l36 110 q-4 0 -7 0.5 q-3 0.5 -7 0.5 q-26 0 -45 -9.5 q-19 -9.5 -32 -25.5 q-13 -16 -20.5 -35.5 q-7.5 -19.5 -10.5 -40.5 l86 0 ZM421 309 q-2 22 -9.5 44.5 q-7.5 22.5 -23.5 39.5 l-27 -84 l60 0 ZM191 217 q2 -20 9.5 -37.5 q7.5 -17.5 21.5 -30.5 l22 68 l-53 0 Z" /><glyph glyph-name="uni0248" unicode="&#x248;" d="M459 421 l81 0 l0 -110 l-81 0 l0 -78 q0 -51 -11.5 -96 q-11.5 -45 -40 -78.5 q-28.5 -33.5 -77 -53 q-48.5 -19.5 -122.5 -19.5 q-68 0 -117 16.5 q-49 16.5 -81 38.5 l52 121 q29 -17 62 -30 q33 -13 72 -13 q57 0 82 28 q25 28 25 94 l0 70 l-121 0 l0 110 l121 0 l0 272 l156 0 l0 -272 Z" /><glyph glyph-name="uni0249" unicode="&#x249;" d="M-15 327 l87 0 l0 199 l149 0 l0 -199 l68 0 l0 -93 l-68 0 l0 -215 q0 -104 -51 -154 q-51 -50 -147 -50 q-14 0 -41.5 3 q-27.5 3 -51.5 11 l20 121 q15 -5 27.5 -7 q12.5 -2 31.5 -2 q35 0 49 21 q14 21 14 61 l0 211 l-87 0 l0 93 ZM235 678 q0 -41 -26.5 -64.5 q-26.5 -23.5 -62.5 -23.5 q-36 0 -62.5 23.5 q-26.5 23.5 -26.5 64.5 q0 41 26.5 64.5 q26.5 23.5 62.5 23.5 q36 0 62.5 -23.5 q26.5 -23.5 26.5 -64.5 Z" /><glyph glyph-name="uni024A" unicode="&#x24a;" d="M578 64 q-34 -36 -82 -57 q-48 -21 -111 -21 q-67 0 -128 23 q-61 23 -107 68.5 q-46 45.5 -73 113 q-27 67.5 -27 156.5 q0 89 28 156.5 q28 67.5 75.5 113.5 q47.5 46 110 69 q62.5 23 131.5 23 q71 0 133 -23 q62 -23 107.5 -69 q45.5 -46 72 -113.5 q26.5 -67.5 26.5 -156.5 l0 -326 q0 -40 12 -61 q12 -21 43 -21 q19 0 28.5 1.5 q9.5 1.5 24.5 6.5 l20 -121 q-24 -8 -48.5 -10.5 q-24.5 -2.5 -38.5 -2.5 q-103 0 -150 44 q-47 44 -47 148 l0 59 ZM211 347 q0 -51 12.5 -92 q12.5 -41 36 -70.5 q23.5 -29.5 57.5 -45.5 q34 -16 78 -16 q88 0 136 58.5 q48 58.5 48 165.5 q0 51 -12.5 92.5 q-12.5 41.5 -36 71 q-23.5 29.5 -58 45.5 q-34.5 16 -77.5 16 q-44 0 -78 -16.5 q-34 -16.5 -57.5 -46 q-23.5 -29.5 -36 -71 q-12.5 -41.5 -12.5 -91.5 Z" /><glyph glyph-name="uni024B" unicode="&#x24b;" d="M197 259 q0 -143 106 -143 q23 0 45.5 6 q22.5 6 36.5 15 l0 269 q-11 2 -28 3.5 q-17 1.5 -37 1.5 q-61 0 -92 -41.5 q-31 -41.5 -31 -110.5 ZM534 11 q0 -32 9 -52.5 q9 -20.5 38 -20.5 q14 0 26.5 2 q12.5 2 25.5 5 l21 -115 q-12 -4 -27 -7 q-15 -3 -29.5 -4.5 q-14.5 -1.5 -27 -2.5 q-12.5 -1 -19.5 -1 q-83 0 -124.5 39 q-41.5 39 -41.5 129 l0 30 q-25 -11 -52 -17 q-27 -6 -58 -6 q-112 0 -171 73.5 q-59 73.5 -59 199.5 q0 61 18.5 111.5 q18.5 50.5 53.5 87 q35 36.5 86 56.5 q51 20 116 20 q27 0 56.5 -2.5 q29.5 -2.5 58 -6.5 q28.5 -4 54.5 -9.5 q26 -5.5 46 -11.5 l0 -497 Z" /><glyph glyph-name="uni024C" unicode="&#x24c;" d="M10 377 l81 0 l0 306 q51 10 105.5 14 q54.5 4 97.5 4 q156 0 239 -55.5 q83 -55.5 83 -172.5 q0 -73 -33.5 -118.5 q-33.5 -45.5 -96.5 -71.5 q21 -26 44 -59.5 q23 -33.5 45.5 -70 q22.5 -36.5 43.5 -76 q21 -39.5 39 -77.5 l-175 0 q-19 34 -38.5 69 q-19.5 35 -40 68 q-20.5 33 -40.5 62.5 q-20 29.5 -40 53.5 l-77 0 l0 -253 l-156 0 l0 253 l-81 0 l0 124 ZM303 568 q-17 0 -30.5 -1 q-13.5 -1 -25.5 -2 l0 -188 l44 0 q88 0 126 22 q38 22 38 75 q0 51 -38.5 72.5 q-38.5 21.5 -113.5 21.5 Z" /><glyph glyph-name="uni024D" unicode="&#x24d;" d="M395 394 q-20 5 -47 10.5 q-27 5.5 -58 5.5 q-14 0 -33.5 -2.5 q-19.5 -2.5 -29.5 -5.5 l0 -125 l127 0 l0 -93 l-127 0 l0 -184 l-149 0 l0 184 l-68 0 l0 93 l68 0 l0 221 q40 14 94.5 26.5 q54.5 12.5 121.5 12.5 q12 0 29 -1.5 q17 -1.5 34 -4 q17 -2.5 34 -6 q17 -3.5 29 -8.5 l-25 -123 Z" /><glyph glyph-name="uni024E" unicode="&#x24e;" d="M10 576 l66 0 q-16 29 -31 58.5 q-15 29.5 -30 58.5 l176 0 q12 -28 26.5 -57.5 q14.5 -29.5 29.5 -59.5 l194 0 q16 30 31 59.5 q15 29.5 27 57.5 l167 0 q-15 -29 -30.5 -58.5 q-15.5 -29.5 -31.5 -58.5 l67 0 l0 -110 l-128 0 q-29 -53 -60.5 -104 q-31.5 -51 -63.5 -102 l0 -260 l-156 0 l0 258 q-33 51 -64.5 102.5 q-31.5 51.5 -61.5 105.5 l-127 0 l0 110 ZM344 383 q11 20 21 40.5 q10 20.5 21 42.5 l-85 0 q11 -22 21.5 -42.5 q10.5 -20.5 21.5 -40.5 Z" /><glyph glyph-name="uni024F" unicode="&#x24f;" d="M461 270 q-27 -76 -56 -147 q-29 -71 -61 -140 q-21 -45 -42 -76.5 q-21 -31.5 -46 -52 q-25 -20.5 -56.5 -30 q-31.5 -9.5 -73.5 -9.5 q-35 0 -64.5 6.5 q-29.5 6.5 -48.5 14.5 l26 119 q23 -8 41 -11 q18 -3 38 -3 q40 0 61.5 21.5 q21.5 21.5 36.5 59.5 q-27 54 -55 115.5 q-28 61.5 -56 132.5 l-95 0 l0 93 l61 0 q-14 38 -27 79 q-13 41 -26 84 l156 0 q8 -34 19.5 -76 q11.5 -42 25.5 -87 l132 0 q12 45 22.5 87 q10.5 42 19.5 76 l152 0 q-13 -42 -25.5 -83 q-12.5 -41 -25.5 -80 l59 0 l0 -93 l-92 0 ZM288 150 q9 24 18.5 54.5 q9.5 30.5 19.5 65.5 l-79 0 q11 -35 21 -65.5 q10 -30.5 20 -54.5 Z" /><glyph glyph-name="uni0292" unicode="&#x292;" d="M124 230 q16 18 35 40.5 q19 22.5 37.5 45.5 q18.5 23 36.5 45.5 q18 22.5 32 40.5 l-234 0 l0 124 l423 0 l0 -102 q-12 -16 -29 -37 q-17 -21 -37 -44.5 q-20 -23.5 -41.5 -49.5 q-21.5 -26 -43.5 -53 q36 -10 67.5 -27.5 q31.5 -17.5 54.5 -43 q23 -25.5 36.5 -59 q13.5 -33.5 13.5 -75.5 q0 -110 -70.5 -165 q-70.5 -55 -194.5 -55 q-28 0 -57 3 q-29 3 -56.5 8.5 q-27.5 5.5 -51 13 q-23.5 7.5 -40.5 15.5 l33 119 q16 -7 36 -13 q20 -6 41.5 -10 q21.5 -4 43 -6 q21.5 -2 41.5 -2 q62 0 93.5 26 q31.5 26 31.5 72 q0 52 -38 77 q-38 25 -109 25 l-54 0 l0 87 Z" /><glyph glyph-name="breve_inverted" unicode="&#x311;" d="M195 756 q34 0 64 -11 q30 -11 51.5 -31 q21.5 -20 34 -49.5 q12.5 -29.5 12.5 -66.5 l0 -8 l-101 0 q-3 42 -20 56.5 q-17 14.5 -41 14.5 q-24 0 -41 -14.5 q-17 -14.5 -20 -56.5 l-101 0 l0 8 q0 37 12.5 66.5 q12.5 29.5 34 49.5 q21.5 20 51 31 q29.5 11 64.5 11 Z" /><glyph glyph-name="afii10051" unicode="&#x402;" d="M594 693 l0 -133 l-229 0 l0 -131 q10 1 24.5 2.5 q14.5 1.5 29 2.5 q14.5 1 28.5 2 q14 1 24 1 q81 0 137.5 -15.5 q56.5 -15.5 92.5 -45.5 q36 -30 52 -72.5 q16 -42.5 16 -96.5 q0 -56 -18.5 -96.5 q-18.5 -40.5 -50.5 -66.5 q-32 -26 -74.5 -38.5 q-42.5 -12.5 -91.5 -12.5 q-16 0 -37 1.5 q-21 1.5 -38 4.5 l5 116 q19 -3 46 -3 q51 0 81 19 q30 19 30 74 q0 54 -37 78 q-37 24 -122 24 q-10 0 -23 -0.5 q-13 -0.5 -26.5 -1.5 q-13.5 -1 -26 -2 q-12.5 -1 -21.5 -2 l0 -301 l-156 0 l0 560 l-189 0 l0 133 l574 0 Z" /><glyph glyph-name="afii10053" unicode="&#x404;" d="M50 347 q0 93 27 161.5 q27 68.5 74 113 q47 44.5 110 66.5 q63 22 136 22 q60 0 120 -13.5 q60 -13.5 117 -43.5 l-46 -122 q-28 14 -76.5 28.5 q-48.5 14.5 -108.5 14.5 q-81 0 -127 -37.5 q-46 -37.5 -58 -118.5 l287 0 l0 -132 l-290 0 q12 -81 59.5 -122.5 q47.5 -41.5 128.5 -41.5 q33 0 61 5 q28 5 51.5 12.5 q23.5 7.5 42.5 16 q19 8.5 33 14.5 l50 -125 q-57 -29 -114.5 -44 q-57.5 -15 -126.5 -15 q-72 0 -136 20.5 q-64 20.5 -111.5 64.5 q-47.5 44 -75 112 q-27.5 68 -27.5 164 Z" /><glyph glyph-name="afii10058" unicode="&#x409;" d="M709 693 l0 -246 l51 0 q77 0 137.5 -12 q60.5 -12 102 -39 q41.5 -27 63.5 -70 q22 -43 22 -105 q0 -115 -83.5 -171.5 q-83.5 -56.5 -238.5 -56.5 q-41 0 -98.5 5 q-57.5 5 -111.5 18 l0 545 l-170 0 q-3 -67 -7.5 -134.5 q-4.5 -67.5 -16 -130.5 q-11.5 -63 -33 -118.5 q-21.5 -55.5 -59 -97 q-37.5 -41.5 -93.5 -66.5 q-56 -25 -137 -28 l-17 136 q72 8 111 36.5 q39 28.5 59 87.5 q25 73 35.5 189 q10.5 116 10.5 258 l473 0 ZM771 126 q31 0 59 4 q28 4 49.5 14.5 q21.5 10.5 34.5 28.5 q13 18 13 47 q0 30 -12 49 q-12 19 -34 30 q-22 11 -54 15 q-32 4 -72 4 l-46 0 l0 -190 q11 -1 26.5 -1.5 q15.5 -0.5 35.5 -0.5 Z" /><glyph glyph-name="afii10059" unicode="&#x40a;" d="M498 693 l156 0 l0 -246 l51 0 q77 0 137.5 -12 q60.5 -12 102 -39 q41.5 -27 63.5 -70 q22 -43 22 -105 q0 -115 -83.5 -171.5 q-83.5 -56.5 -238.5 -56.5 q-41 0 -98.5 5 q-57.5 5 -111.5 18 l0 278 l-262 0 l0 -294 l-156 0 l0 693 l156 0 l0 -265 l262 0 l0 265 ZM716 126 q31 0 59 4 q28 4 49.5 14.5 q21.5 10.5 34.5 28.5 q13 18 13 47 q0 30 -12 49 q-12 19 -34 30 q-22 11 -54 15 q-32 4 -72 4 l-46 0 l0 -190 q11 -1 26.5 -1.5 q15.5 -0.5 35.5 -0.5 Z" /><glyph glyph-name="afii10060" unicode="&#x40b;" d="M594 693 l0 -133 l-229 0 l0 -131 q23 3 48 5.5 q25 2.5 46 2.5 q78 0 130.5 -17 q52.5 -17 84 -48 q31.5 -31 44.5 -75 q13 -44 13 -98 l0 -199 l-156 0 l0 199 q0 54 -28 80 q-28 26 -97 26 q-21 0 -44 -2 q-23 -2 -41 -4 l0 -299 l-156 0 l0 560 l-189 0 l0 133 l574 0 Z" /><glyph glyph-name="afii10145" unicode="&#x40f;" d="M236 132 l258 0 l0 561 l156 0 l0 -693 l-209 0 l0 -185 l-150 0 l0 185 l-211 0 l0 693 l156 0 l0 -561 Z" /><glyph glyph-name="afii10020" unicode="&#x413;" d="M236 0 l-156 0 l0 693 l473 0 l0 -132 l-317 0 l0 -561 Z" /><glyph glyph-name="afii10021" unicode="&#x414;" d="M20 132 l100 0 q37 64 58 127 q21 63 31.5 128 q10.5 65 13 134 q2.5 69 2.5 145 l0 27 l458 0 l0 -561 l119 0 l0 -317 l-150 0 l0 185 l-482 0 l0 -185 l-150 0 l0 317 ZM372 561 q-2 -54 -7 -111 q-5 -57 -15 -112.5 q-10 -55.5 -26.5 -108 q-16.5 -52.5 -41.5 -97.5 l249 0 l0 429 l-159 0 Z" /><glyph glyph-name="afii10024" unicode="&#x416;" d="M10 0 q29 51 62 102 q33 51 67.5 98.5 q34.5 47.5 71 89 q36.5 41.5 73.5 74.5 q-42 43 -78 84 q-36 41 -68.5 81 q-32.5 40 -63.5 80.5 q-31 40.5 -63 83.5 l188 0 q30 -42 56.5 -77 q26.5 -35 52 -68 q25.5 -33 51.5 -65 q26 -32 56 -68 l0 278 l152 0 l0 -278 q30 37 57.5 70.5 q27.5 33.5 53.5 66.5 q26 33 52 67.5 q26 34.5 53 73.5 l187 0 q-36 -47 -67.5 -88 q-31.5 -41 -63.5 -80 q-32 -39 -65.5 -78 q-33.5 -39 -73.5 -82 q81 -75 148 -168.5 q67 -93.5 125 -196.5 l-174 0 q-31 47 -58 87 q-27 40 -54 77 q-27 37 -56 72.5 q-29 35.5 -64 73.5 l0 -310 l-152 0 l0 310 q-36 -42 -65 -78 q-29 -36 -55.5 -72 q-26.5 -36 -53.5 -74.5 q-27 -38.5 -58 -85.5 l-173 0 Z" /><glyph glyph-name="afii10025" unicode="&#x417;" d="M142 423 l105 0 q27 0 50.5 4 q23.5 4 41 14 q17.5 10 27.5 26 q10 16 10 40 q0 34 -27 51 q-27 17 -76 17 q-55 0 -96 -12.5 q-41 -12.5 -78 -33.5 l-50 123 q40 25 96.5 40.5 q56.5 15.5 128.5 15.5 q56 0 104 -12.5 q48 -12.5 83 -37 q35 -24.5 54.5 -62 q19.5 -37.5 19.5 -87.5 q0 -38 -20.5 -75.5 q-20.5 -37.5 -62.5 -63.5 q23 -12 43.5 -28 q20.5 -16 36 -37 q15.5 -21 24.5 -47.5 q9 -26.5 9 -59.5 q0 -111 -78.5 -161.5 q-78.5 -50.5 -218.5 -50.5 q-35 0 -69.5 5 q-34.5 5 -66 12.5 q-31.5 7.5 -59 17.5 q-27.5 10 -48.5 21 l46 122 q14 -6 34.5 -13.5 q20.5 -7.5 45.5 -14.5 q25 -7 52 -12 q27 -5 54 -5 q66 0 106.5 19 q40.5 19 40.5 66 q0 29 -13 47 q-13 18 -35.5 27.5 q-22.5 9.5 -53 13 q-30.5 3.5 -66.5 3.5 l-94 0 l0 128 Z" /><glyph glyph-name="afii10026" unicode="&#x418;" d="M80 0 l0 693 l155 0 l0 -409 q36 54 77 112.5 q41 58.5 82.5 113 q41.5 54.5 81.5 102.5 q40 48 73 81 l127 0 l0 -693 l-154 0 l0 454 q-88 -103 -166 -219 q-78 -116 -145 -235 l-131 0 Z" /><glyph glyph-name="afii10029" unicode="&#x41b;" d="M383 561 q-3 -67 -7.5 -134.5 q-4.5 -67.5 -16 -130.5 q-11.5 -63 -33 -118 q-21.5 -55 -59 -97 q-37.5 -42 -93.5 -67 q-56 -25 -137 -28 l-17 136 q72 8 111 36.5 q39 28.5 59 87.5 q25 73 35.5 188.5 q10.5 115.5 10.5 258.5 l473 0 l0 -693 l-156 0 l0 561 l-170 0 Z" /><glyph glyph-name="afii10037" unicode="&#x423;" d="M449 203 q-29 -66 -61 -108.5 q-32 -42.5 -66 -66.5 q-34 -24 -69 -33 q-35 -9 -71 -9 q-34 0 -70.5 6.5 q-36.5 6.5 -68.5 18.5 l28 125 q49 -18 97 -18 q31 0 59.5 14 q28.5 14 54.5 60 q-41 64 -78.5 131.5 q-37.5 67.5 -71 133 q-33.5 65.5 -62 126 q-28.5 60.5 -50.5 110.5 l173 0 q16 -39 35.5 -83.5 q19.5 -44.5 41.5 -92 q22 -47.5 44.5 -95 q22.5 -47.5 43.5 -92.5 q32 88 61 180 q29 92 56 183 l167 0 q-26 -77 -51 -144 q-25 -67 -49 -127 q-24 -60 -47.5 -114 q-23.5 -54 -45.5 -105 Z" /><glyph glyph-name="afii10040" unicode="&#x426;" d="M650 132 l120 0 l0 -317 l-150 0 l0 185 l-540 0 l0 693 l156 0 l0 -561 l258 0 l0 561 l156 0 l0 -561 Z" /><glyph glyph-name="afii10041" unicode="&#x427;" d="M196 489 q0 -41 10 -66.5 q10 -25.5 28.5 -40.5 q18.5 -15 44.5 -20.5 q26 -5.5 57 -5.5 q24 0 51.5 2 q27.5 2 56.5 6 l0 329 l156 0 l0 -693 l-156 0 l0 232 q-34 -4 -66 -6 q-32 -2 -61 -2 q-63 0 -114.5 11.5 q-51.5 11.5 -87.5 41 q-36 29.5 -55.5 79 q-19.5 49.5 -19.5 125.5 l0 212 l156 0 l0 -204 Z" /><glyph glyph-name="afii10042" unicode="&#x428;" d="M940 0 l-860 0 l0 693 l156 0 l0 -561 l196 0 l0 561 l156 0 l0 -561 l196 0 l0 561 l156 0 l0 -693 Z" /><glyph glyph-name="afii10043" unicode="&#x429;" d="M80 693 l156 0 l0 -561 l196 0 l0 561 l156 0 l0 -561 l196 0 l0 561 l156 0 l0 -561 l120 0 l0 -317 l-150 0 l0 185 l-830 0 l0 693 Z" /><glyph glyph-name="afii10044" unicode="&#x42a;" d="M728 227 q0 -117 -86 -176.5 q-86 -59.5 -241 -59.5 q-43 0 -98.5 6 q-55.5 6 -109.5 19 l0 545 l-173 0 l0 132 l329 0 l0 -230 q13 1 23.5 1 q10.5 0 21.5 0 q169 0 251.5 -58 q82.5 -58 82.5 -179 ZM380 332 q-5 0 -14 0 q-9 0 -17 -1 l0 -207 q11 -1 25 -1 q14 0 34 0 q31 0 60 5 q29 5 51 17 q22 12 35 32 q13 20 13 50 q0 31 -13 51 q-13 20 -37.5 32 q-24.5 12 -59 17 q-34.5 5 -77.5 5 Z" /><glyph glyph-name="afii10045" unicode="&#x42b;" d="M604 227 q0 -58 -22.5 -102 q-22.5 -44 -64 -74 q-41.5 -30 -101 -45 q-59.5 -15 -132.5 -15 q-42 0 -95.5 6 q-53.5 6 -108.5 19 l0 677 l156 0 l0 -230 q11 1 20.5 1 q9.5 0 20.5 0 q163 0 245 -58 q82 -58 82 -179 ZM691 693 l156 0 l0 -693 l-156 0 l0 693 ZM267 332 q-5 0 -14 0 q-9 0 -17 -1 l0 -207 q11 -1 25 -1 q14 0 34 0 q31 0 58 5 q27 5 47.5 17 q20.5 12 32 32 q11.5 20 11.5 50 q0 61 -45.5 83 q-45.5 22 -131.5 22 Z" /><glyph glyph-name="afii10046" unicode="&#x42c;" d="M614 227 q0 -116 -86 -176 q-86 -60 -240 -60 q-43 0 -98.5 6 q-55.5 6 -109.5 19 l0 677 l156 0 l0 -230 q13 1 23.5 1 q10.5 0 21.5 0 q169 0 251 -58 q82 -58 82 -179 ZM267 332 q-5 0 -14 0 q-9 0 -17 -1 l0 -207 q11 -1 25 -1 q14 0 34 0 q31 0 60 5 q29 5 51 17 q22 12 35 32 q13 20 13 50 q0 31 -13 51 q-13 20 -37.5 32 q-24.5 12 -59 17 q-34.5 5 -77.5 5 Z" /><glyph glyph-name="afii10047" unicode="&#x42d;" d="M631 347 q0 -96 -27.5 -164 q-27.5 -68 -75 -112 q-47.5 -44 -111.5 -64.5 q-64 -20.5 -136 -20.5 q-69 0 -126.5 15 q-57.5 15 -114.5 44 l50 125 q14 -6 33 -14.5 q19 -8.5 42.5 -16 q23.5 -7.5 52 -12.5 q28.5 -5 60.5 -5 q80 0 128 41.5 q48 41.5 60 122.5 l-290 0 l0 132 l287 0 q-12 80 -58.5 118 q-46.5 38 -126.5 38 q-59 0 -108 -14.5 q-49 -14.5 -77 -28.5 l-46 122 q57 30 117.5 43.5 q60.5 13.5 119.5 13.5 q73 0 136 -22 q63 -22 110 -66.5 q47 -44.5 74 -113 q27 -68.5 27 -161.5 Z" /><glyph glyph-name="afii10048" unicode="&#x42e;" d="M696 710 q68 0 129 -23.5 q61 -23.5 106.5 -69 q45.5 -45.5 72.5 -113.5 q27 -68 27 -157 q0 -89 -26.5 -156.5 q-26.5 -67.5 -72.5 -113 q-46 -45.5 -106.5 -68.5 q-60.5 -23 -129.5 -23 q-63 0 -120 19.5 q-57 19.5 -102 58.5 q-45 39 -74 97 q-29 58 -37 134 l-127 0 l0 -295 l-156 0 l0 693 l156 0 l0 -266 l130 0 q12 69 42.5 122 q30.5 53 74.5 89 q44 36 98.5 54 q54.5 18 114.5 18 ZM696 122 q83 0 128.5 60 q45.5 60 45.5 165 q0 105 -45.5 166 q-45.5 61 -128.5 61 q-83 0 -129.5 -61 q-46.5 -61 -46.5 -166 q0 -105 46.5 -165 q46.5 -60 129.5 -60 Z" /><glyph glyph-name="afii10049" unicode="&#x42f;" d="M392 566 q-30 0 -57.5 -4.5 q-27.5 -4.5 -48.5 -15 q-21 -10.5 -34 -29 q-13 -18.5 -13 -46.5 q0 -53 37.5 -73 q37.5 -20 111.5 -20 l65 0 l0 187 q-12 1 -26 1 q-14 0 -35 0 ZM399 700 q42 0 98.5 -5 q56.5 -5 111.5 -17 l0 -678 l-156 0 l0 249 l-48 0 q-13 0 -25 0 q-12 0 -29 2 q-33 -45 -72.5 -112.5 q-39.5 -67.5 -73.5 -138.5 l-165 0 q18 41 38.5 81 q20.5 40 41.5 76 q21 36 41 66.5 q20 30.5 37 53.5 q-22 10 -43.5 26.5 q-21.5 16.5 -38.5 39.5 q-17 23 -27.5 54.5 q-10.5 31.5 -10.5 72.5 q0 57 22.5 100 q22.5 43 64 72 q41.5 29 101 43.5 q59.5 14.5 133.5 14.5 Z" /><glyph glyph-name="afii10066" unicode="&#x431;" d="M529 649 q-37 -8 -70 -11 q-33 -3 -68 -9 q-30 -5 -60 -15 q-30 -10 -55.5 -27.5 q-25.5 -17.5 -44.5 -44 q-19 -26.5 -27 -65.5 q65 31 126 31 q48 0 89 -16 q41 -16 71.5 -48 q30.5 -32 48 -79.5 q17.5 -47.5 17.5 -110.5 q0 -68 -20 -118 q-20 -50 -54.5 -83.5 q-34.5 -33.5 -80 -50 q-45.5 -16.5 -97.5 -16.5 q-139 0 -199 84.5 q-60 84.5 -60 248.5 q0 108 21 183.5 q21 75.5 63 126 q42 50.5 104 79.5 q62 29 144 46 q33 7 66.5 10.5 q33.5 3.5 68.5 11.5 l17 -127 ZM201 355 q-2 -14 -2.5 -32 q-0.5 -18 -0.5 -32 q0 -88 24.5 -133 q24.5 -45 82.5 -45 q49 0 75 38 q26 38 26 102 q0 25 -6 48.5 q-6 23.5 -19 41.5 q-13 18 -32 29 q-19 11 -45 11 q-26 0 -54.5 -6 q-28.5 -6 -48.5 -22 Z" /><glyph glyph-name="afii10067" unicode="&#x432;" d="M219 110 q14 -2 37.5 -3.5 q23.5 -1.5 43.5 -1.5 q50 0 78 12.5 q28 12.5 28 45.5 q0 32 -25.5 44.5 q-25.5 12.5 -74.5 12.5 l-87 0 l0 -110 ZM303 320 q37 0 60 9.5 q23 9.5 23 41.5 q0 30 -26 41 q-26 11 -68 11 q-14 0 -36.5 -1.5 q-22.5 -1.5 -36.5 -3.5 l0 -98 l84 0 ZM298 -10 q-28 0 -60 2 q-32 2 -63 5.5 q-31 3.5 -58.5 8 q-27.5 4.5 -46.5 8.5 l0 504 q19 4 46.5 7.5 q27.5 3.5 58.5 6.5 q31 3 63 4.5 q32 1.5 60 1.5 q65 0 109.5 -13 q44.5 -13 72 -34 q27.5 -21 39.5 -47 q12 -26 12 -52 q0 -35 -17 -64 q-17 -29 -43 -42 q14 -6 28.5 -17 q14.5 -11 26.5 -26.5 q12 -15.5 19.5 -37 q7.5 -21.5 7.5 -49.5 q0 -32 -12.5 -62 q-12.5 -30 -42.5 -53 q-30 -23 -79 -37 q-49 -14 -121 -14 Z" /><glyph glyph-name="afii10068" unicode="&#x433;" d="M443 404 l-224 0 l0 -404 l-149 0 l0 526 l373 0 l0 -122 Z" /><glyph glyph-name="afii10069" unicode="&#x434;" d="M20 122 l65 0 q28 34 43.5 84.5 q15.5 50.5 22 107 q6.5 56.5 7.5 112.5 q1 56 1 100 l410 0 l0 -404 l89 0 l0 -272 l-127 0 l0 150 l-384 0 l0 -150 l-127 0 l0 272 ZM420 122 l0 282 l-122 0 q-2 -35 -4.5 -72.5 q-2.5 -37.5 -9 -74 q-6.5 -36.5 -17.5 -71.5 q-11 -35 -29 -64 l182 0 Z" /><glyph glyph-name="afii10072" unicode="&#x436;" d="M10 0 q50 81 103 149 q53 68 113 132 q-63 65 -114.5 127.5 q-51.5 62.5 -91.5 117.5 l174 0 q26 -37 62.5 -85.5 q36.5 -48.5 95.5 -122.5 l0 208 l145 0 l0 -208 q61 73 97 122.5 q36 49.5 62 85.5 l172 0 q-37 -57 -87 -117.5 q-50 -60.5 -117 -126.5 q36 -38 64.5 -71.5 q28.5 -33.5 54 -66.5 q25.5 -33 48.5 -68.5 q23 -35.5 48 -75.5 l-166 0 q-75 113 -176 238 l0 -238 l-145 0 l0 238 q-51 -68 -97 -128 q-46 -60 -79 -110 l-166 0 Z" /><glyph glyph-name="afii10073" unicode="&#x437;" d="M45 509 q35 13 81 21 q46 8 100 8 q41 0 80 -7.5 q39 -7.5 69.5 -25 q30.5 -17.5 49 -46 q18.5 -28.5 18.5 -71.5 q0 -39 -18 -66.5 q-18 -27.5 -51 -45.5 q44 -19 65 -50 q21 -31 21 -79 q0 -45 -19 -75.5 q-19 -30.5 -51 -49.5 q-32 -19 -73 -27.5 q-41 -8.5 -85 -8.5 q-26 0 -54 2.5 q-28 2.5 -54.5 7 q-26.5 4.5 -50.5 11.5 q-24 7 -43 15 l27 116 q21 -8 64.5 -19 q43.5 -11 98.5 -11 q90 0 90 50 q0 17 -7 27.5 q-7 10.5 -18.5 16.5 q-11.5 6 -26.5 8 q-15 2 -30 2 l-117 0 l0 106 l118 0 q36 0 50.5 14.5 q14.5 14.5 14.5 33.5 q0 19 -16.5 34.5 q-16.5 15.5 -60.5 15.5 q-44 0 -83 -8 q-39 -8 -63 -15 l-26 116 Z" /><glyph glyph-name="afii10074" unicode="&#x438;" d="M549 526 l0 -526 l-150 0 q0 50 1 99.5 q1 49.5 2 91.5 q1 42 2.5 73.5 q1.5 31.5 1.5 46.5 q-29 -41 -58 -83 q-29 -42 -55.5 -82.5 q-26.5 -40.5 -50 -77.5 q-23.5 -37 -41.5 -68 l-131 0 l0 526 l149 0 q0 -50 -0.5 -95.5 q-0.5 -45.5 -1.5 -82.5 q-1 -37 -2 -64.5 q-1 -27.5 -1 -42.5 q60 88 110.5 158 q50.5 70 98.5 127 l126 0 Z" /><glyph glyph-name="afii10076" unicode="&#x43a;" d="M219 342 q22 21 46.5 46 q24.5 25 47.5 49.5 q23 24.5 44 47.5 q21 23 37 41 l181 0 q-20 -21 -49.5 -52 q-29.5 -31 -62.5 -64.5 q-33 -33.5 -66.5 -66.5 q-33.5 -33 -63.5 -59 q30 -23 64 -57 q34 -34 66.5 -73 q32.5 -39 62 -79 q29.5 -40 50.5 -75 l-170 0 q-18 27 -41 56.5 q-23 29.5 -48 58 q-25 28.5 -50.5 53.5 q-25.5 25 -47.5 43 l0 -211 l-149 0 l0 526 l149 0 l0 -184 Z" /><glyph glyph-name="afii10077" unicode="&#x43b;" d="M306 404 q-1 -29 -2.5 -61.5 q-1.5 -32.5 -5.5 -65 q-4 -32.5 -10.5 -63.5 q-6.5 -31 -16.5 -58 q-12 -32 -30.5 -59.5 q-18.5 -27.5 -47 -49.5 q-28.5 -22 -69 -36.5 q-40.5 -14.5 -94.5 -19.5 l-20 124 q51 10 79 28.5 q28 18.5 42 47.5 q11 25 17.5 58 q6.5 33 9.5 69.5 q3 36.5 3.5 74.5 q0.5 38 0.5 73 l0 60 l395 0 l0 -526 l-149 0 l0 404 l-102 0 Z" /><glyph glyph-name="afii10078" unicode="&#x43c;" d="M218 303 q-2 -35 -4 -76 q-2 -41 -3.5 -82.5 q-1.5 -41.5 -3 -79 q-1.5 -37.5 -2.5 -65.5 l-145 0 q2 55 6.5 124 q4.5 69 10 140.5 q5.5 71.5 12 139.5 q6.5 68 12.5 122 l124 0 q43 -70 79 -145 q36 -75 76 -165 q42 96 82 177.5 q40 81.5 72 132.5 l126 0 q7 -54 13.5 -122 q6.5 -68 12 -139.5 q5.5 -71.5 9.5 -140.5 q4 -69 6 -124 l-148 0 q-2 78 -5.5 155 q-3.5 77 -6.5 149 l-110 -242 l-103 0 l-110 241 Z" /><glyph glyph-name="afii10079" unicode="&#x43d;" d="M523 0 l-149 0 l0 208 l-155 0 l0 -208 l-149 0 l0 526 l149 0 l0 -196 l155 0 l0 196 l149 0 l0 -526 Z" /><glyph glyph-name="afii10084" unicode="&#x442;" d="M505 404 l-168 0 l0 -404 l-149 0 l0 404 l-168 0 l0 122 l485 0 l0 -122 Z" /><glyph glyph-name="afii10086" unicode="&#x444;" d="M324 397 q-60 -5 -94.5 -37 q-34.5 -32 -34.5 -101 q0 -66 33 -97 q33 -31 96 -38 l0 273 ZM469 124 q23 0 46 7 q23 7 41.5 22.5 q18.5 15.5 30 41.5 q11.5 26 11.5 65 q0 39 -11.5 65 q-11.5 26 -30 41.5 q-18.5 15.5 -41.5 22.5 q-23 7 -46 8 l0 -273 ZM469 -185 l-145 0 l0 183 q-69 5 -121.5 27 q-52.5 22 -87.5 57 q-35 35 -52.5 81 q-17.5 46 -17.5 98 q0 50 16.5 94 q16.5 44 50.5 78.5 q34 34.5 87 57 q53 22.5 125 30.5 l0 230 l145 25 l0 -255 q56 -5 107 -23 q51 -18 89.5 -50 q38.5 -32 61 -78.5 q22.5 -46.5 22.5 -109.5 q0 -64 -22.5 -111 q-22.5 -47 -60.5 -79 q-38 -32 -89 -49.5 q-51 -17.5 -108 -22.5 l0 -183 Z" /><glyph glyph-name="afii10088" unicode="&#x446;" d="M523 122 l89 0 l0 -272 l-127 0 l0 150 l-415 0 l0 526 l149 0 l0 -404 l155 0 l0 404 l149 0 l0 -404 Z" /><glyph glyph-name="afii10089" unicode="&#x447;" d="M194 526 l0 -170 q0 -38 24.5 -53 q24.5 -15 68.5 -15 q9 0 28 1.5 q19 1.5 34 3.5 l0 233 l149 0 l0 -526 l-149 0 l0 173 q-20 -3 -43.5 -5 q-23.5 -2 -35.5 -2 q-51 0 -92.5 9.5 q-41.5 9.5 -71 31 q-29.5 21.5 -45.5 58 q-16 36.5 -16 90.5 l0 171 l149 0 Z" /><glyph glyph-name="afii10090" unicode="&#x448;" d="M70 0 l0 526 l149 0 l0 -404 l137 0 l0 404 l149 0 l0 -404 l136 0 l0 404 l149 0 l0 -526 l-720 0 Z" /><glyph glyph-name="afii10091" unicode="&#x449;" d="M752 0 l-682 0 l0 526 l149 0 l0 -404 l137 0 l0 404 l149 0 l0 -404 l136 0 l0 404 l149 0 l0 -404 l89 0 l0 -272 l-127 0 l0 150 Z" /><glyph glyph-name="afii10092" unicode="&#x44a;" d="M368 104 q41 0 64.5 15.5 q23.5 15.5 23.5 50.5 q0 18 -8 30.5 q-8 12.5 -22 20 q-14 7.5 -32.5 10.5 q-18.5 3 -39.5 3 q-15 0 -33 -2 q-18 -2 -27 -4 l0 -120 q12 -2 32 -3 q20 -1 42 -1 ZM294 339 q14 4 36.5 6.5 q22.5 2.5 51.5 2.5 q48 0 88.5 -11 q40.5 -11 70 -33.5 q29.5 -22.5 46.5 -57 q17 -34.5 17 -80.5 q0 -46 -16 -79.5 q-16 -33.5 -46 -55 q-30 -21.5 -71.5 -32 q-41.5 -10.5 -92.5 -10.5 q-66 0 -121 6.5 q-55 6.5 -112 20.5 l0 388 l-125 0 l0 122 l274 0 l0 -187 Z" /><glyph glyph-name="afii10093" unicode="&#x44b;" d="M754 0 l-149 0 l0 526 l149 0 l0 -526 ZM293 104 q41 0 64.5 15.5 q23.5 15.5 23.5 50.5 q0 18 -8 30.5 q-8 12.5 -22 20 q-14 7.5 -32.5 10.5 q-18.5 3 -39.5 3 q-15 0 -33 -2 q-18 -2 -27 -4 l0 -120 q12 -2 32 -3 q20 -1 42 -1 ZM219 339 q14 4 36.5 6.5 q22.5 2.5 51.5 2.5 q46 0 86.5 -11 q40.5 -11 70.5 -33.5 q30 -22.5 47.5 -57 q17.5 -34.5 17.5 -80.5 q0 -46 -16 -79.5 q-16 -33.5 -46 -55 q-30 -21.5 -71.5 -32 q-41.5 -10.5 -92.5 -10.5 q-66 0 -121 6.5 q-55 6.5 -112 20.5 l0 510 l149 0 l0 -187 Z" /><glyph glyph-name="afii10094" unicode="&#x44c;" d="M293 104 q41 0 64.5 15.5 q23.5 15.5 23.5 50.5 q0 18 -8 30.5 q-8 12.5 -22 20 q-14 7.5 -32.5 10.5 q-18.5 3 -39.5 3 q-15 0 -33 -2 q-18 -2 -27 -4 l0 -120 q12 -2 32 -3 q20 -1 42 -1 ZM219 339 q14 4 36.5 6.5 q22.5 2.5 51.5 2.5 q47 0 87.5 -11 q40.5 -11 70.5 -33.5 q30 -22.5 47 -57 q17 -34.5 17 -80.5 q0 -46 -16 -79.5 q-16 -33.5 -46 -55 q-30 -21.5 -71.5 -32 q-41.5 -10.5 -92.5 -10.5 q-66 0 -121 6.5 q-55 6.5 -112 20.5 l0 510 l149 0 l0 -187 Z" /><glyph glyph-name="afii10095" unicode="&#x44d;" d="M486 266 q0 -67 -20 -119 q-20 -52 -55.5 -87 q-35.5 -35 -85 -53.5 q-49.5 -18.5 -109.5 -18.5 q-50 0 -93.5 7 q-43.5 7 -93.5 26 l28 117 q29 -10 68 -18 q39 -8 74 -8 q25 0 48 5 q23 5 41.5 17 q18.5 12 31 31.5 q12.5 19.5 16.5 47.5 l-200 0 l0 107 l199 0 q-8 56 -43.5 77 q-35.5 21 -86.5 21 q-38 0 -68.5 -6.5 q-30.5 -6.5 -63.5 -16.5 l-28 115 q45 16 87 23 q42 7 81 7 q61 0 111 -18.5 q50 -18.5 86 -54 q36 -35.5 56 -86.5 q20 -51 20 -115 Z" /><glyph glyph-name="afii10096" unicode="&#x44e;" d="M575 -14 q-48 0 -90 15.5 q-42 15.5 -74.5 44 q-32.5 28.5 -54 70 q-21.5 41.5 -29.5 92.5 l-108 0 l0 -208 l-149 0 l0 526 l149 0 l0 -196 l110 0 q9 48 31 87 q22 39 54.5 66.5 q32.5 27.5 73 42 q40.5 14.5 87.5 14.5 q54 0 100 -19.5 q46 -19.5 80 -55.5 q34 -36 53 -87 q19 -51 19 -114 q0 -63 -19 -114.5 q-19 -51.5 -53 -88 q-34 -36.5 -80 -56 q-46 -19.5 -100 -19.5 ZM575 412 q-46 0 -73 -40.5 q-27 -40.5 -27 -107.5 q0 -67 27 -108.5 q27 -41.5 73 -41.5 q46 0 73 41.5 q27 41.5 27 108.5 q0 67 -27 107.5 q-27 40.5 -73 40.5 Z" /><glyph glyph-name="afii10097" unicode="&#x44f;" d="M288 187 q-32 -47 -57 -94.5 q-25 -47.5 -48 -92.5 l-153 0 q29 65 59 119 q30 54 58 93 q-42 22 -67 56.5 q-25 34.5 -25 86.5 q0 88 63.5 135 q63.5 47 175.5 47 q25 0 55.5 -2 q30.5 -2 60.5 -6 q30 -4 57.5 -8.5 q27.5 -4.5 46.5 -9.5 l0 -511 l-149 0 l0 187 l-77 0 ZM365 419 q-10 1 -31 2.5 q-21 1.5 -36 1.5 q-55 0 -75 -18.5 q-20 -18.5 -20 -47.5 q0 -18 8 -30.5 q8 -12.5 21 -20 q13 -7.5 29 -10.5 q16 -3 32 -3 l72 0 l0 126 Z" /><glyph glyph-name="afii10099" unicode="&#x452;" d="M18 689 l62 0 l0 63 l149 24 l0 -87 l143 0 l0 -93 l-143 0 l0 -87 q15 5 38.5 9.5 q23.5 4.5 45.5 4.5 q62 0 104 -17 q42 -17 67.5 -47.5 q25.5 -30.5 37 -73 q11.5 -42.5 12.5 -94.5 l0 -278 q0 -103 -48.5 -150.5 q-48.5 -47.5 -139.5 -47.5 q-14 0 -39.5 2.5 q-25.5 2.5 -49.5 10.5 l20 121 q15 -5 25.5 -6.5 q10.5 -1.5 29.5 -1.5 q29 0 41 19 q12 19 12 57 l0 247 q0 72 -18.5 102 q-18.5 30 -68.5 30 q-20 0 -37.5 -3.5 q-17.5 -3.5 -31.5 -7.5 l0 -385 l-149 0 l0 596 l-62 0 l0 93 Z" /><glyph glyph-name="afii10101" unicode="&#x454;" d="M35 266 q0 64 20 115 q20 51 56 86.5 q36 35.5 86 54 q50 18.5 111 18.5 q39 0 81 -7 q42 -7 87 -23 l-28 -115 q-33 10 -63.5 16.5 q-30.5 6.5 -68.5 6.5 q-51 0 -86.5 -21 q-35.5 -21 -43.5 -77 l199 0 l0 -107 l-200 0 q4 -29 16.5 -48 q12.5 -19 31 -31 q18.5 -12 41.5 -17 q23 -5 48 -5 q35 0 74 8 q39 8 68 18 l28 -117 q-51 -19 -93.5 -26 q-42.5 -7 -93.5 -7 q-60 0 -109.5 18.5 q-49.5 18.5 -85 53.5 q-35.5 35 -55.5 87 q-20 52 -20 119 Z" /><glyph glyph-name="afii10106" unicode="&#x459;" d="M306 404 q-1 -29 -2.5 -61.5 q-1.5 -32.5 -5.5 -65 q-4 -32.5 -10.5 -63.5 q-6.5 -31 -16.5 -58 q-12 -32 -30.5 -59.5 q-18.5 -27.5 -47 -49.5 q-28.5 -22 -69 -36.5 q-40.5 -14.5 -94.5 -19.5 l-20 124 q51 10 79 28.5 q28 18.5 42 47.5 q11 25 17.5 58 q6.5 33 9.5 69.5 q3 36.5 3.5 74.5 q0.5 38 0.5 73 l0 60 l395 0 l0 -197 q14 4 36.5 6.5 q22.5 2.5 51.5 2.5 q43 0 83 -9.5 q40 -9.5 71 -30 q31 -20.5 49.5 -53.5 q18.5 -33 18.5 -79 q0 -46 -16 -79.5 q-16 -33.5 -46 -55 q-30 -21.5 -71.5 -32 q-41.5 -10.5 -92.5 -10.5 q-66 0 -121 6.5 q-55 6.5 -112 20.5 l0 388 l-102 0 ZM631 104 q41 0 64.5 15.5 q23.5 15.5 23.5 50.5 q0 18 -8 30.5 q-8 12.5 -22 20 q-14 7.5 -32.5 10.5 q-18.5 3 -39.5 3 q-15 0 -33 -2 q-18 -2 -27 -4 l0 -120 q12 -2 32 -3 q20 -1 42 -1 Z" /><glyph glyph-name="afii10107" unicode="&#x45a;" d="M523 329 q14 4 36.5 6.5 q22.5 2.5 51.5 2.5 q43 0 83 -9.5 q40 -9.5 71 -30 q31 -20.5 49.5 -53.5 q18.5 -33 18.5 -79 q0 -46 -16 -79.5 q-16 -33.5 -46 -55 q-30 -21.5 -71.5 -32 q-41.5 -10.5 -92.5 -10.5 q-66 0 -121 6.5 q-55 6.5 -112 20.5 l0 192 l-155 0 l0 -208 l-149 0 l0 526 l149 0 l0 -196 l155 0 l0 196 l149 0 l0 -197 ZM597 104 q41 0 64.5 15.5 q23.5 15.5 23.5 50.5 q0 18 -8 30.5 q-8 12.5 -22 20 q-14 7.5 -32.5 10.5 q-18.5 3 -39.5 3 q-15 0 -33 -2 q-18 -2 -27 -4 l0 -120 q12 -2 32 -3 q20 -1 42 -1 Z" /><glyph glyph-name="afii10193" unicode="&#x45f;" d="M523 0 l-165 0 l0 -150 l-127 0 l0 150 l-161 0 l0 526 l149 0 l0 -404 l155 0 l0 404 l149 0 l0 -526 Z" /><glyph glyph-name="uni0462" unicode="&#x462;" d="M702 227 q0 -58 -22.5 -102 q-22.5 -44 -64 -74 q-41.5 -30 -101 -45 q-59.5 -15 -132.5 -15 q-42 0 -95.5 6 q-53.5 6 -108.5 19 l0 519 l-163 0 l0 123 l163 0 l0 80 l156 0 l0 -80 l190 0 l0 -123 l-190 0 l0 -72 q11 1 20.5 1 q9.5 0 20.5 0 q163 0 245 -58 q82 -58 82 -179 ZM365 332 q-5 0 -14 0 q-9 0 -17 -1 l0 -207 q11 -1 25 -1 q14 0 34 0 q31 0 58 5 q27 5 47.5 17 q20.5 12 32 32 q11.5 20 11.5 50 q0 61 -45.5 83 q-45.5 22 -131.5 22 Z" /><glyph glyph-name="uni0463" unicode="&#x463;" d="M10 526 l122 0 l0 226 l149 25 l0 -251 l192 0 l0 -103 l-192 0 l0 -94 q14 4 36.5 6.5 q22.5 2.5 51.5 2.5 q43 0 83 -9.5 q40 -9.5 71 -30 q31 -20.5 49.5 -53.5 q18.5 -33 18.5 -79 q0 -46 -16 -79.5 q-16 -33.5 -46 -55 q-30 -21.5 -71.5 -32 q-41.5 -10.5 -92.5 -10.5 q-66 0 -121 6.5 q-55 6.5 -112 20.5 l0 407 l-122 0 l0 103 ZM355 104 q41 0 64.5 15.5 q23.5 15.5 23.5 50.5 q0 18 -8 30.5 q-8 12.5 -22 20 q-14 7.5 -32.5 10.5 q-18.5 3 -39.5 3 q-15 0 -33 -2 q-18 -2 -27 -4 l0 -120 q12 -2 32 -3 q20 -1 42 -1 Z" /><glyph glyph-name="uni0472" unicode="&#x472;" d="M740 347 q0 -89 -26.5 -156.5 q-26.5 -67.5 -72.5 -113 q-46 -45.5 -109.5 -68.5 q-63.5 -23 -136.5 -23 q-71 0 -134 23 q-63 23 -110 68.5 q-47 45.5 -74 113 q-27 67.5 -27 156.5 q0 89 28 156.5 q28 67.5 75.5 113.5 q47.5 46 110 69 q62.5 23 131.5 23 q71 0 134 -23 q63 -23 110 -69 q47 -46 74 -113.5 q27 -67.5 27 -156.5 ZM507 384 q31 0 68 17 q-12 78 -58.5 124.5 q-46.5 46.5 -121.5 46.5 q-76 0 -123 -47.5 q-47 -47.5 -58 -128.5 q27 19 52.5 26.5 q25.5 7.5 48.5 7.5 q32 0 57 -7 q25 -7 47 -16 q22 -9 43 -16 q21 -7 45 -7 ZM304 303 q-19 0 -39.5 -6 q-20.5 -6 -46.5 -21 q15 -71 60 -112 q45 -41 117 -41 q71 0 116 40.5 q45 40.5 61 111.5 q-20 -10 -39 -14 q-19 -4 -37 -4 q-32 0 -57 7 q-25 7 -47 16 q-22 9 -43 16 q-21 7 -45 7 Z" /><glyph glyph-name="uni0473" unicode="&#x473;" d="M562 264 q0 -62 -18 -113.5 q-18 -51.5 -52 -88 q-34 -36.5 -81.5 -56.5 q-47.5 -20 -106.5 -20 q-63 0 -111.5 22 q-48.5 22 -81.5 60 q-33 38 -49.5 88.5 q-16.5 50.5 -16.5 107.5 q0 62 19.5 113 q19.5 51 54 87 q34.5 36 82 56 q47.5 20 103.5 20 q63 0 111 -22.5 q48 -22.5 80.5 -60.5 q32.5 -38 49.5 -88 q17 -50 17 -105 ZM230 247 q-21 0 -40 -11 q6 -58 35.5 -94 q29.5 -36 78.5 -36 q45 0 74 30.5 q29 30.5 37 84.5 q-17 -10 -33.5 -14 q-16.5 -4 -27.5 -4 q-17 0 -34 7 q-17 7 -32.5 15 q-15.5 8 -30.5 15 q-15 7 -27 7 ZM372 285 q21 0 43 14 q-3 21 -10 43 q-7 22 -20 39 q-13 17 -33 28 q-20 11 -48 11 q-45 0 -73.5 -28.5 q-28.5 -28.5 -37.5 -80.5 q14 10 29 14 q15 4 26 4 q17 0 34 -7 q17 -7 32.5 -15 q15.5 -8 30.5 -15 q15 -7 27 -7 Z" /><glyph glyph-name="uni0474" unicode="&#x474;" d="M434 0 l-150 0 q-35 74 -67 150 q-32 76 -65 159 q-33 83 -68 177.5 q-35 94.5 -74 206.5 l169 0 q24 -76 46 -142 q22 -66 44 -127 q22 -61 44 -119.5 q22 -58.5 48 -119.5 l133 375 q8 22 19 47 q11 25 30 46.5 q19 21.5 49 35.5 q30 14 76 14 q40 0 74 -11 q34 -11 69 -42 l-60 -104 q-11 10 -26 16 q-15 6 -33 6 q-20 0 -33.5 -11 q-13.5 -11 -21.5 -30 l-203 -527 Z" /><glyph glyph-name="uni0475" unicode="&#x475;" d="M337 0 l-124 0 q-49 102 -103.5 237.5 q-54.5 135.5 -99.5 288.5 l158 0 q10 -38 23.5 -84 q13.5 -46 28 -93 q14.5 -47 29.5 -91 q15 -44 28 -78 l79 237 q10 29 22 51 q12 22 29 36.5 q17 14.5 40.5 22 q23.5 7.5 56.5 7.5 q22 0 49.5 -4.5 q27.5 -4.5 53.5 -15.5 l-31 -109 q-15 7 -25.5 8.5 q-10.5 1.5 -18.5 1.5 q-18 0 -31 -9 q-13 -9 -22 -32 l-142 -374 Z" /><glyph glyph-name="uni048A" unicode="&#x48a;" d="M80 0 l0 693 l155 0 l0 -409 q36 54 77 112.5 q41 58.5 82.5 113 q41.5 54.5 81.5 102.5 q40 48 73 81 l127 0 l0 -561 l110 0 q2 -80 -31 -165.5 q-33 -85.5 -102 -155.5 l-101 64 q27 35 43.5 63.5 q16.5 28.5 27.5 61.5 l-101 0 l0 454 q-88 -103 -166 -219 q-78 -116 -145 -235 l-131 0 ZM390 754 q-32 0 -61.5 9.5 q-29.5 9.5 -53.5 28 q-24 18.5 -39.5 45 q-15.5 26.5 -18.5 60.5 l103 27 q8 -38 26.5 -54 q18.5 -16 43.5 -16 q26 0 44.5 14.5 q18.5 14.5 26.5 54.5 l102 -27 q-3 -34 -18.5 -60.5 q-15.5 -26.5 -39 -44.5 q-23.5 -18 -53.5 -27.5 q-30 -9.5 -62 -9.5 Z" /><glyph glyph-name="uni048B" unicode="&#x48b;" d="M529 526 l0 -404 l90 0 q1 -42 -8 -82.5 q-9 -40.5 -25.5 -78 q-16.5 -37.5 -40 -70 q-23.5 -32.5 -51.5 -57.5 l-92 58 q24 29 38.5 53 q14.5 24 24.5 55 l-86 0 q0 50 1 99.5 q1 49.5 2 91.5 q1 42 2.5 73.5 q1.5 31.5 1.5 46.5 q-29 -41 -58 -83 q-29 -42 -55.5 -82.5 q-26.5 -40.5 -50 -77.5 q-23.5 -37 -41.5 -68 l-131 0 l0 526 l149 0 q0 -50 -0.5 -95.5 q-0.5 -45.5 -1.5 -82.5 q-1 -37 -2 -64.5 q-1 -27.5 -1 -42.5 q60 88 110.5 158 q50.5 70 98.5 127 l126 0 ZM294 598 q-32 0 -61.5 9.5 q-29.5 9.5 -53.5 28 q-24 18.5 -39.5 45 q-15.5 26.5 -18.5 60.5 l103 27 q8 -38 26.5 -54 q18.5 -16 43.5 -16 q26 0 44.5 14.5 q18.5 14.5 26.5 54.5 l102 -27 q-3 -34 -18.5 -60.5 q-15.5 -26.5 -39 -44.5 q-23.5 -18 -53.5 -27.5 q-30 -9.5 -62 -9.5 Z" /><glyph glyph-name="uni048C" unicode="&#x48c;" d="M355 628 l0 -110 l-116 0 l0 -71 l51 0 q77 0 137.5 -12 q60.5 -12 102 -39 q41.5 -27 63.5 -70 q22 -43 22 -105 q0 -115 -83.5 -171.5 q-83.5 -56.5 -238.5 -56.5 q-42 0 -95.5 5 q-53.5 5 -107.5 18 l0 502 l-80 0 l0 110 l80 0 l0 65 l149 0 l0 -65 l116 0 ZM301 126 q31 0 59 4 q28 4 49.5 14.5 q21.5 10.5 34.5 28.5 q13 18 13 47 q0 30 -12 49 q-12 19 -34 30 q-22 11 -54 15 q-32 4 -72 4 l-46 0 l0 -190 q11 -1 26.5 -1.5 q15.5 -0.5 35.5 -0.5 Z" /><glyph glyph-name="uni048D" unicode="&#x48d;" d="M10 487 l62 0 l0 59 l149 0 l0 -59 l143 0 l0 -93 l-143 0 l0 -65 q14 4 36.5 6.5 q22.5 2.5 51.5 2.5 q43 0 83 -9.5 q40 -9.5 71 -30 q31 -20.5 49.5 -53.5 q18.5 -33 18.5 -79 q0 -46 -16 -79.5 q-16 -33.5 -46 -55 q-30 -21.5 -71.5 -32 q-41.5 -10.5 -92.5 -10.5 q-66 0 -121 6.5 q-55 6.5 -112 20.5 l0 378 l-62 0 l0 93 ZM295 104 q41 0 64.5 15.5 q23.5 15.5 23.5 50.5 q0 18 -8 30.5 q-8 12.5 -22 20 q-14 7.5 -32.5 10.5 q-18.5 3 -39.5 3 q-15 0 -33 -2 q-18 -2 -27 -4 l0 -120 q12 -2 32 -3 q20 -1 42 -1 Z" /><glyph glyph-name="uni048E" unicode="&#x48e;" d="M298 701 q155 0 238 -54.5 q83 -54.5 83 -178.5 q0 -72 -31.5 -120 q-31.5 -48 -85.5 -76 l54 -91 l-104 -57 l-67 113 q-20 -2 -40.5 -3.5 q-20.5 -1.5 -42.5 -1.5 l-66 0 l0 -232 l-156 0 l0 683 q25 5 54.5 8.5 q29.5 3.5 58.5 5.5 q29 2 56.5 3 q27.5 1 48.5 1 ZM308 568 q-17 0 -38.5 -1 q-21.5 -1 -33.5 -2 l0 -210 l52 0 q8 0 14.5 0 q6.5 0 13.5 1 l-48 83 l103 58 l60 -104 q27 27 27 76 q0 29 -10.5 48 q-10.5 19 -30 30.5 q-19.5 11.5 -47.5 16 q-28 4.5 -62 4.5 Z" /><glyph glyph-name="uni048F" unicode="&#x48f;" d="M569 263 q0 -77 -23.5 -136 q-23.5 -59 -68.5 -94 l54 -93 l-94 -52 l-60 105 q-9 -1 -18.5 -2 q-9.5 -1 -19.5 -1 q-31 0 -63 6 q-32 6 -57 17 l0 -198 l-149 0 l0 693 q20 6 47.5 11.5 q27.5 5.5 58 9.5 q30.5 4 61.5 6.5 q31 2.5 58 2.5 q65 0 116 -19.5 q51 -19.5 86 -55 q35 -35.5 53.5 -86.5 q18.5 -51 18.5 -114 ZM417 259 q0 69 -31 110.5 q-31 41.5 -92 41.5 q-20 0 -42 -1.5 q-22 -1.5 -33 -3.5 l0 -279 q14 -9 41.5 -15 q27.5 -6 50.5 -6 l1 0 l-57 99 l93 53 l53 -92 q16 35 16 93 Z" /><glyph glyph-name="afii10050" unicode="&#x490;" d="M236 0 l-156 0 l0 693 l323 0 l0 132 l150 0 l0 -264 l-317 0 l0 -561 Z" /><glyph glyph-name="afii10098" unicode="&#x491;" d="M443 404 l-224 0 l0 -404 l-149 0 l0 526 l246 0 l0 124 l127 0 l0 -246 Z" /><glyph glyph-name="uni0492" unicode="&#x492;" d="M297 403 l168 0 l0 -110 l-168 0 l0 -293 l-156 0 l0 293 l-81 0 l0 110 l81 0 l0 290 l473 0 l0 -132 l-317 0 l0 -158 Z" /><glyph glyph-name="uni0493" unicode="&#x493;" d="M505 404 l-224 0 l0 -129 l133 0 l0 -93 l-133 0 l0 -182 l-149 0 l0 182 l-82 0 l0 93 l82 0 l0 251 l373 0 l0 -122 Z" /><glyph glyph-name="uni0494" unicode="&#x494;" d="M236 431 q51 6 101 6 q67 0 121.5 -20.5 q54.5 -20.5 93 -59.5 q38.5 -39 59 -95.5 q20.5 -56.5 20.5 -128.5 q0 -71 -19.5 -129.5 q-19.5 -58.5 -56 -100.5 q-36.5 -42 -90 -65 q-53.5 -23 -121.5 -23 q-25 0 -37.5 1 q-12.5 1 -25.5 3 l3 119 q8 -1 16.5 -2 q8.5 -1 26.5 -1 q41 0 70.5 15 q29.5 15 48.5 41.5 q19 26.5 28 63 q9 36.5 9 78.5 q0 52 -13.5 86 q-13.5 34 -37.5 54.5 q-24 20.5 -57.5 28.5 q-33.5 8 -73.5 8 q-17 0 -33 -0.5 q-16 -0.5 -32 -1.5 l0 -308 l-156 0 l0 693 l465 0 l0 -132 l-309 0 l0 -130 Z" /><glyph glyph-name="uni0495" unicode="&#x495;" d="M468 404 l-249 0 l0 -89 q18 3 39.5 4.5 q21.5 1.5 38.5 1.5 q52 0 96 -15.5 q44 -15.5 75 -47.5 q31 -32 48.5 -80.5 q17.5 -48.5 17.5 -115.5 q0 -66 -17.5 -113 q-17.5 -47 -49 -77 q-31.5 -30 -74.5 -44 q-43 -14 -95 -14 q-28 0 -58 3 l8 112 q12 -1 24 -1.5 q12 -0.5 23 -0.5 q54 0 79 35.5 q25 35.5 25 96.5 q0 43 -9 71 q-9 28 -26 45 q-17 17 -41 24 q-24 7 -53 7 q-5 0 -12.5 -0.5 q-7.5 -0.5 -15 -1 q-7.5 -0.5 -14 -1.5 q-6.5 -1 -9.5 -1 l0 -202 l-149 0 l0 526 l398 0 l0 -122 Z" /><glyph glyph-name="uni0496" unicode="&#x496;" d="M10 0 q29 51 62 102 q33 51 67.5 98.5 q34.5 47.5 71 89 q36.5 41.5 73.5 74.5 q-42 43 -78 84 q-36 41 -68.5 81 q-32.5 40 -63.5 80.5 q-31 40.5 -63 83.5 l188 0 q30 -42 56.5 -77 q26.5 -35 52 -68 q25.5 -33 51.5 -65 q26 -32 56 -68 l0 278 l152 0 l0 -278 q30 37 57.5 70.5 q27.5 33.5 53.5 66.5 q26 33 52 67.5 q26 34.5 53 73.5 l187 0 q-36 -47 -67.5 -88 q-31.5 -41 -63.5 -80 q-32 -39 -65.5 -78 q-33.5 -39 -73.5 -82 q52 -48 97.5 -104 q45.5 -56 87.5 -118 l117 0 l0 -317 l-150 0 l0 174 l-53 0 q-31 47 -58 87 q-27 40 -54 77 q-27 37 -56 72.5 q-29 35.5 -64 73.5 l0 -310 l-152 0 l0 310 q-36 -42 -65 -78 q-29 -36 -55.5 -72 q-26.5 -36 -53.5 -74.5 q-27 -38.5 -58 -85.5 l-173 0 Z" /><glyph glyph-name="uni0497" unicode="&#x497;" d="M10 0 q50 81 103 149 q53 68 113 132 q-63 65 -114.5 127.5 q-51.5 62.5 -91.5 117.5 l174 0 q26 -37 62.5 -85.5 q36.5 -48.5 95.5 -122.5 l0 208 l145 0 l0 -208 q61 73 97 122.5 q36 49.5 62 85.5 l172 0 q-37 -57 -87 -117.5 q-50 -60.5 -117 -126.5 q42 -45 74 -83 q32 -38 61 -77 l94 0 l0 -267 l-127 0 l0 145 l-53 0 q-75 113 -176 238 l0 -238 l-145 0 l0 238 q-51 -68 -97 -128 q-46 -60 -79 -110 l-166 0 Z" /><glyph glyph-name="uni0498" unicode="&#x498;" d="M142 423 l105 0 q27 0 50.5 4 q23.5 4 41 14 q17.5 10 27.5 26 q10 16 10 40 q0 34 -27 51 q-27 17 -76 17 q-55 0 -96 -12.5 q-41 -12.5 -78 -33.5 l-50 123 q40 25 96.5 40.5 q56.5 15.5 128.5 15.5 q56 0 104 -12.5 q48 -12.5 83 -37 q35 -24.5 54.5 -62 q19.5 -37.5 19.5 -87.5 q0 -38 -20.5 -75.5 q-20.5 -37.5 -62.5 -63.5 q23 -12 43.5 -28 q20.5 -16 36 -37 q15.5 -21 24.5 -47.5 q9 -26.5 9 -59.5 q0 -96 -57 -146 q-57 -50 -163 -62 q-9 -16 -14 -30 q32 -16 44 -38 q12 -22 12 -45 q0 -48 -38 -73 q-38 -25 -100 -25 q-22 0 -44 3.5 q-22 3.5 -44 9.5 l18 87 q7 -2 25.5 -6.5 q18.5 -4.5 36.5 -4.5 q14 0 24.5 5.5 q10.5 5.5 11.5 19.5 q1 12 -9.5 22 q-10.5 10 -33.5 15 l-12 3 q4 11 9.5 25.5 q5.5 14.5 12.5 28.5 q-64 3 -122.5 19 q-58.5 16 -96.5 36 l46 122 q14 -6 34.5 -13.5 q20.5 -7.5 45.5 -14.5 q25 -7 52 -12 q27 -5 54 -5 q66 0 106.5 19 q40.5 19 40.5 66 q0 29 -13 47 q-13 18 -35.5 27.5 q-22.5 9.5 -53 13 q-30.5 3.5 -66.5 3.5 l-94 0 l0 128 Z" /><glyph glyph-name="uni0499" unicode="&#x499;" d="M45 509 q35 13 81 21 q46 8 100 8 q41 0 80 -7.5 q39 -7.5 69.5 -25 q30.5 -17.5 49 -46 q18.5 -28.5 18.5 -71.5 q0 -39 -18 -66.5 q-18 -27.5 -51 -45.5 q44 -19 65 -50 q21 -31 21 -79 q0 -36 -12.5 -63 q-12.5 -27 -34.5 -46 q-22 -19 -51.5 -30.5 q-29.5 -11.5 -63.5 -16.5 q-4 -8 -8 -16.5 q-4 -8.5 -6 -14.5 q32 -16 44 -38 q12 -22 12 -45 q0 -48 -38 -73 q-38 -25 -100 -25 q-22 0 -44 3.5 q-22 3.5 -44 9.5 l18 87 q7 -2 25.5 -6.5 q18.5 -4.5 36.5 -4.5 q14 0 24.5 5.5 q10.5 5.5 11.5 19.5 q1 12 -9.5 22 q-10.5 10 -33.5 15 l-12 3 q4 11 10 25.5 q6 14.5 12 28.5 q-46 3 -90.5 12 q-44.5 9 -76.5 23 l27 116 q21 -8 64.5 -19 q43.5 -11 98.5 -11 q90 0 90 50 q0 17 -7 27.5 q-7 10.5 -18.5 16.5 q-11.5 6 -26.5 8 q-15 2 -30 2 l-117 0 l0 106 l118 0 q36 0 50.5 14.5 q14.5 14.5 14.5 33.5 q0 19 -16.5 34.5 q-16.5 15.5 -60.5 15.5 q-44 0 -83 -8 q-39 -8 -63 -15 l-26 116 Z" /><glyph glyph-name="uni049A" unicode="&#x49a;" d="M567 -185 l0 185 l-78 0 q-21 34 -49.5 73.5 q-28.5 39.5 -62 79 q-33.5 39.5 -69.5 76 q-36 36.5 -72 64.5 l0 -293 l-156 0 l0 693 l156 0 l0 -262 q61 64 122.5 133.5 q61.5 69.5 114.5 128.5 l185 0 q-71 -84 -142.5 -162 q-71.5 -78 -150.5 -157 q57 -48 112 -109 q55 -61 108 -133 l132 0 l0 -317 l-150 0 Z" /><glyph glyph-name="uni049B" unicode="&#x49b;" d="M219 342 q22 21 46.5 46 q24.5 25 47.5 49.5 q23 24.5 44 47.5 q21 23 37 41 l181 0 q-20 -21 -49.5 -52 q-29.5 -31 -62.5 -64.5 q-33 -33.5 -66.5 -66.5 q-33.5 -33 -63.5 -59 q36 -28 77 -71 q41 -43 79 -91 l97 0 l0 -267 l-127 0 l0 145 l-53 0 q-18 27 -41 56.5 q-23 29.5 -48 58 q-25 28.5 -50.5 53.5 q-25.5 25 -47.5 43 l0 -211 l-149 0 l0 526 l149 0 l0 -184 Z" /><glyph glyph-name="uni049C" unicode="&#x49c;" d="M381 567 l0 -142 q30 34 55 65.5 q25 31.5 49 63 q24 31.5 48 65.5 q24 34 50 74 l185 0 q-33 -49 -63.5 -89.5 q-30.5 -40.5 -61 -78 q-30.5 -37.5 -64.5 -74 q-34 -36.5 -74 -77.5 q81 -71 145.5 -163 q64.5 -92 123.5 -211 l-185 0 q-17 34 -41.5 76 q-24.5 42 -52.5 83.5 q-28 41.5 -57.5 79 q-29.5 37.5 -56.5 63.5 l0 -143 l-97 0 l0 147 l-48 0 l0 -306 l-156 0 l0 693 l156 0 l0 -275 l48 0 l0 149 l97 0 Z" /><glyph glyph-name="uni049D" unicode="&#x49d;" d="M336 439 l0 -111 q43 51 80 99.5 q37 48.5 71 98.5 l177 0 q-23 -30 -50.5 -62.5 q-27.5 -32.5 -57 -64 q-29.5 -31.5 -57.5 -60.5 q-28 -29 -51 -51 q30 -29 62.5 -65 q32.5 -36 62.5 -74.5 q30 -38.5 55.5 -77 q25.5 -38.5 43.5 -71.5 l-171 0 q-15 24 -34 54 q-19 30 -40.5 61 q-21.5 31 -44.5 60.5 q-23 29.5 -46 52.5 l0 -112 l-77 0 l0 118 l-40 0 l0 -234 l-149 0 l0 526 l149 0 l0 -207 l40 0 l0 120 l77 0 Z" /><glyph glyph-name="uni049E" unicode="&#x49e;" d="M499 0 q-21 34 -49.5 70.5 q-28.5 36.5 -62 72 q-33.5 35.5 -69.5 69 q-36 33.5 -72 61.5 l0 -273 l-156 0 l0 558 l-81 0 l0 100 l81 0 l0 80 l156 0 l0 -80 l86 0 l0 -100 l-86 0 l0 -147 q33 32 69 68 q36 36 71.5 73 q35.5 37 68 73 q32.5 36 58.5 68 l185 0 q-39 -49 -76 -92.5 q-37 -43.5 -75.5 -84 q-38.5 -40.5 -80.5 -80.5 q-42 -40 -91 -82 q83 -69 160.5 -154 q77.5 -85 148.5 -200 l-185 0 Z" /><glyph glyph-name="uni049F" unicode="&#x49f;" d="M2 526 l70 0 l0 45 l149 0 l0 -45 l75 0 l0 -73 l-75 0 l0 -144 q50 49 102.5 106 q52.5 57 95.5 111 l177 0 q-62 -77 -123.5 -140.5 q-61.5 -63.5 -122.5 -117.5 q30 -29 64 -62 q34 -33 66 -67.5 q32 -34.5 59 -70 q27 -35.5 45 -68.5 l-171 0 q-16 26 -38.5 53.5 q-22.5 27.5 -48.5 53.5 q-26 26 -53 51 q-27 25 -52 46 l0 -204 l-149 0 l0 453 l-70 0 l0 73 Z" /><glyph glyph-name="uni04A0" unicode="&#x4a0;" d="M20 693 l329 0 l0 -262 q61 64 122.5 133.5 q61.5 69.5 114.5 128.5 l185 0 q-71 -84 -142.5 -162 q-71.5 -78 -150.5 -157 q83 -69 160.5 -164 q77.5 -95 148.5 -210 l-185 0 q-21 34 -49.5 73.5 q-28.5 39.5 -62 79 q-33.5 39.5 -69.5 76 q-36 36.5 -72 64.5 l0 -293 l-156 0 l0 561 l-173 0 l0 132 Z" /><glyph glyph-name="uni04A1" unicode="&#x4a1;" d="M20 526 l274 0 l0 -197 q22 24 45.5 50.5 q23.5 26.5 45.5 53 q22 26.5 42 50.5 q20 24 35 43 l177 0 q-22 -27 -50 -59 q-28 -32 -58 -64 q-30 -32 -58 -62.5 q-28 -30.5 -50 -52.5 q30 -29 62.5 -65 q32.5 -36 62.5 -74.5 q30 -38.5 55.5 -77 q25.5 -38.5 43.5 -71.5 l-171 0 q-16 26 -37 56.5 q-21 30.5 -45 60.5 q-24 30 -49.5 58 q-25.5 28 -50.5 49 l0 -224 l-149 0 l0 416 l-125 0 l0 110 Z" /><glyph glyph-name="uni04A2" unicode="&#x4a2;" d="M498 693 l156 0 l0 -561 l133 0 l0 -317 l-150 0 l0 185 l-139 0 l0 294 l-262 0 l0 -294 l-156 0 l0 693 l156 0 l0 -265 l262 0 l0 265 Z" /><glyph glyph-name="uni04A3" unicode="&#x4a3;" d="M523 122 l92 0 l0 -267 l-127 0 l0 145 l-114 0 l0 208 l-155 0 l0 -208 l-149 0 l0 526 l149 0 l0 -196 l155 0 l0 196 l149 0 l0 -404 Z" /><glyph glyph-name="uni04A4" unicode="&#x4a4;" d="M498 693 l329 0 l0 -132 l-173 0 l0 -561 l-156 0 l0 294 l-262 0 l0 -294 l-156 0 l0 693 l156 0 l0 -265 l262 0 l0 265 Z" /><glyph glyph-name="uni04A5" unicode="&#x4a5;" d="M643 416 l-120 0 l0 -416 l-149 0 l0 208 l-155 0 l0 -208 l-149 0 l0 526 l149 0 l0 -196 l155 0 l0 196 l269 0 l0 -110 Z" /><glyph glyph-name="uni04A6" unicode="&#x4a6;" d="M650 693 l0 -264 q30 4 60.5 6 q30.5 2 59.5 2 q67 0 121.5 -20.5 q54.5 -20.5 93 -59.5 q38.5 -39 59 -95.5 q20.5 -56.5 20.5 -128.5 q0 -71 -19.5 -129.5 q-19.5 -58.5 -56 -100.5 q-36.5 -42 -90 -65 q-53.5 -23 -121.5 -23 q-25 0 -37.5 1 q-12.5 1 -25.5 3 l3 119 q8 -1 16.5 -2 q8.5 -1 26.5 -1 q41 0 70.5 15 q29.5 15 48.5 41.5 q19 26.5 28 63 q9 36.5 9 78.5 q0 52 -13.5 86 q-13.5 34 -37.5 54.5 q-24 20.5 -57.5 28.5 q-33.5 8 -73.5 8 q-21 0 -42 -1 q-21 -1 -42 -3 l0 -306 l-156 0 l0 561 l-258 0 l0 -561 l-156 0 l0 693 l570 0 Z" /><glyph glyph-name="uni04A7" unicode="&#x4a7;" d="M523 0 l-149 0 l0 402 l-155 0 l0 -402 l-149 0 l0 526 l453 0 l0 -211 q18 3 39.5 4.5 q21.5 1.5 38.5 1.5 q52 0 96 -15.5 q44 -15.5 75 -47.5 q31 -32 48.5 -80.5 q17.5 -48.5 17.5 -115.5 q0 -66 -17.5 -113 q-17.5 -47 -49 -77 q-31.5 -30 -74.5 -44 q-43 -14 -95 -14 q-28 0 -58 3 l8 112 q12 -1 24 -1.5 q12 -0.5 23 -0.5 q54 0 79 35.5 q25 35.5 25 96.5 q0 43 -9 71 q-9 28 -26 45 q-17 17 -41 24 q-24 7 -53 7 q-5 0 -12.5 -0.5 q-7.5 -0.5 -15 -1 q-7.5 -0.5 -14 -1.5 q-6.5 -1 -9.5 -1 l0 -202 Z" /><glyph glyph-name="uni04A8" unicode="&#x4a8;" d="M50 348 q0 67 20 132 q20 65 65 116 q45 51 117.5 82 q72.5 31 177.5 31 q37 0 77 -8.5 q40 -8.5 72 -22.5 l-37 -124 q-22 11 -51 17.5 q-29 6.5 -58 6.5 q-63 0 -105.5 -18 q-42.5 -18 -68 -50.5 q-25.5 -32.5 -36.5 -78.5 q-11 -46 -11 -102 q0 -35 4 -66 q4 -31 15.5 -56 q11.5 -25 32.5 -43.5 q21 -18.5 56 -28.5 q-5 24 -6.5 48.5 q-1.5 24.5 -1.5 50.5 q0 60 16 109 q16 49 46.5 83.5 q30.5 34.5 76 53.5 q45.5 19 104.5 19 q54 0 93.5 -17 q39.5 -17 65.5 -47.5 q26 -30.5 38.5 -72 q12.5 -41.5 12.5 -89.5 q0 -43 -12.5 -84.5 q-12.5 -41.5 -39.5 -77.5 q-27 -36 -69 -63.5 q-42 -27.5 -101 -42.5 q35 -29 85 -43 q50 -14 114 -21 l-20 -126 q-134 13 -217.5 60.5 q-83.5 47.5 -129.5 117.5 q-93 6 -155.5 38 q-62.5 32 -100 81 q-37.5 49 -53.5 110 q-16 61 -16 126 ZM616 268 q0 47 -18.5 72 q-18.5 25 -48.5 25 q-15 0 -30 -6.5 q-15 -6.5 -27 -23 q-12 -16.5 -19.5 -44.5 q-7.5 -28 -7.5 -71 q0 -28 2 -51.5 q2 -23.5 6 -43.5 q42 5 69.5 18.5 q27.5 13.5 44 32.5 q16.5 19 23 42.5 q6.5 23.5 6.5 49.5 Z" /><glyph glyph-name="uni04A9" unicode="&#x4a9;" d="M315 540 q39 0 72 -6.5 q33 -6.5 64 -20.5 l-29 -111 q-20 8 -43 13.5 q-23 5.5 -52 5.5 q-44 0 -73.5 -13.5 q-29.5 -13.5 -47.5 -36 q-18 -22.5 -25.5 -51 q-7.5 -28.5 -7.5 -58.5 q0 -60 22 -100.5 q22 -40.5 70 -57.5 q-3 14 -4 27 q-1 13 -1 27 q0 106 46 157.5 q46 51.5 135 51.5 q83 0 122.5 -43 q39.5 -43 39.5 -120 q0 -31 -9 -61.5 q-9 -30.5 -28.5 -57.5 q-19.5 -27 -50 -48 q-30.5 -21 -73.5 -33 q24 -15 60.5 -25.5 q36.5 -10.5 91.5 -16.5 l-18 -112 q-59 3 -103 14.5 q-44 11.5 -77 30.5 q-33 19 -57 43.5 q-24 24.5 -43 53.5 q-125 9 -188 78 q-63 69 -63 194 q0 51 16 100.5 q16 49.5 49.5 88.5 q33.5 39 84.5 63 q51 24 120 24 ZM379 155 q0 -17 1 -31 q1 -14 4 -28 q34 5 54 17 q20 12 31 27.5 q11 15.5 14.5 32 q3.5 16.5 3.5 30.5 q0 29 -15 43 q-15 14 -34 14 q-27 0 -43 -22 q-16 -22 -16 -83 Z" /><glyph glyph-name="uni04AC" unicode="&#x4ac;" d="M594 693 l0 -133 l-209 0 l0 -428 l124 0 l0 -317 l-150 0 l0 185 l-130 0 l0 560 l-209 0 l0 133 l574 0 Z" /><glyph glyph-name="uni04AD" unicode="&#x4ad;" d="M495 404 l-168 0 l0 -282 l97 0 l0 -267 l-127 0 l0 145 l-119 0 l0 404 l-168 0 l0 122 l485 0 l0 -122 Z" /><glyph glyph-name="uni04AF" unicode="&#x4af;" d="M539 520 q-42 -143 -89.5 -260.5 q-47.5 -117.5 -99.5 -222.5 l0 -222 l-149 0 l0 226 q-51 105 -101 221 q-50 116 -90 258 l159 0 q10 -44 22.5 -90.5 q12.5 -46.5 27 -91.5 q14.5 -45 29 -87 q14.5 -42 28.5 -78 q13 36 27.5 78 q14.5 42 28.5 87 q14 45 26.5 91.5 q12.5 46.5 21.5 90.5 l159 0 Z" /><glyph glyph-name="uni04B0" unicode="&#x4b0;" d="M334 408 q42 71 80 142 q38 71 70 143 l172 0 q-54 -106 -112 -206 q-58 -100 -122 -201 l119 0 l0 -110 l-132 0 l0 -176 l-156 0 l0 176 l-131 0 l0 110 l116 0 q-63 100 -121 200.5 q-58 100.5 -112 206.5 l181 0 q32 -72 69 -143 q37 -71 79 -142 Z" /><glyph glyph-name="uni04B1" unicode="&#x4b1;" d="M539 520 q-36 -124 -76.5 -228.5 q-40.5 -104.5 -85.5 -198.5 l88 0 l0 -93 l-115 0 l0 -185 l-149 0 l0 185 l-119 0 l0 93 l93 0 q-45 94 -87.5 198 q-42.5 104 -77.5 229 l159 0 q10 -44 22.5 -90.5 q12.5 -46.5 27 -91.5 q14.5 -45 29 -87 q14.5 -42 28.5 -78 q13 36 27.5 78 q14.5 42 28.5 87 q14 45 26.5 91.5 q12.5 46.5 21.5 90.5 l159 0 Z" /><glyph glyph-name="uni04B2" unicode="&#x4b2;" d="M478 0 q-29 58 -63.5 117.5 q-34.5 59.5 -79.5 121.5 q-14 -18 -35.5 -50 q-21.5 -32 -43 -68 q-21.5 -36 -40.5 -69 q-19 -33 -28 -52 l-178 0 q44 81 102.5 170 q58.5 89 130.5 188 l-223 335 l189 0 l135 -217 l132 217 l178 0 l-220 -337 q48 -62 86 -118 q38 -56 69 -106 l107 0 l0 -317 l-150 0 l0 185 l-68 0 Z" /><glyph glyph-name="uni04B3" unicode="&#x4b3;" d="M279 368 l102 158 l156 0 l-179 -253 q31 -39 59 -77 q28 -38 52 -74 l98 0 l0 -267 l-127 0 l0 145 l-58 0 q-8 15 -20 37 q-12 22 -26.5 46.5 q-14.5 24.5 -30.5 48.5 q-16 24 -32 44 q-15 -19 -30 -41.5 q-15 -22.5 -29 -46 q-14 -23.5 -27 -46 q-13 -22.5 -23 -42.5 l-154 0 q12 25 32.5 59 q20.5 34 45.5 70.5 q25 36.5 51.5 73 q26.5 36.5 52.5 68.5 q-45 63 -89.5 127.5 q-44.5 64.5 -88.5 127.5 l163 0 l102 -158 Z" /><glyph glyph-name="uni04B4" unicode="&#x4b4;" d="M789 132 l120 0 l0 -317 l-150 0 l0 185 l-560 0 l0 560 l-179 0 l0 133 l514 0 l0 -133 l-179 0 l0 -428 l278 0 l0 561 l156 0 l0 -561 Z" /><glyph glyph-name="uni04B5" unicode="&#x4b5;" d="M588 122 l89 0 l0 -272 l-127 0 l0 150 l-435 0 l0 403 l-105 0 l0 123 l359 0 l0 -123 l-105 0 l0 -281 l175 0 l0 404 l149 0 l0 -404 Z" /><glyph glyph-name="uni04B6" unicode="&#x4b6;" d="M206 489 q0 -41 10 -66.5 q10 -25.5 28.5 -40.5 q18.5 -15 44.5 -20.5 q26 -5.5 57 -5.5 q24 0 51.5 2 q27.5 2 56.5 6 l0 329 l156 0 l0 -561 l84 0 l0 -317 l-150 0 l0 185 l-90 0 l0 232 q-34 -4 -66 -6 q-32 -2 -61 -2 q-63 0 -114.5 11.5 q-51.5 11.5 -87.5 41 q-36 29.5 -55.5 79 q-19.5 49.5 -19.5 125.5 l0 212 l156 0 l0 -204 Z" /><glyph glyph-name="uni04B7" unicode="&#x4b7;" d="M179 526 l0 -170 q0 -38 24.5 -53 q24.5 -15 68.5 -15 q9 0 28 1.5 q19 1.5 34 3.5 l0 233 l149 0 l0 -404 l96 0 l0 -267 l-127 0 l0 145 l-118 0 l0 173 q-20 -3 -43.5 -5 q-23.5 -2 -35.5 -2 q-51 0 -92.5 9.5 q-41.5 9.5 -71 31 q-29.5 21.5 -45.5 58 q-16 36.5 -16 90.5 l0 171 l149 0 Z" /><glyph glyph-name="uni04B8" unicode="&#x4b8;" d="M383 473 l0 -116 q17 1 32.5 3 q15.5 2 28.5 4 l0 329 l156 0 l0 -693 l-156 0 l0 231 q-27 -4 -61 -6 l0 -118 l-97 0 l0 118 q-72 5 -118 25 q-46 20 -72 53 q-26 33 -36 78 q-10 45 -10 100 l0 212 l156 0 l0 -212 q0 -51 16.5 -80.5 q16.5 -29.5 63.5 -39.5 l0 112 l97 0 Z" /><glyph glyph-name="uni04B9" unicode="&#x4b9;" d="M319 374 l0 -85 q13 1 24 1.5 q11 0.5 20 2.5 l0 233 l149 0 l0 -526 l-149 0 l0 173 q-11 -2 -22 -3 q-11 -1 -22 -2 l0 -85 l-77 0 l0 83 q-51 2 -90.5 12.5 q-39.5 10.5 -66.5 33 q-27 22.5 -41 57.5 q-14 35 -14 86 l0 171 l149 0 l0 -170 q0 -31 14 -46 q14 -15 49 -20 l0 84 l77 0 Z" /><glyph glyph-name="uni04BA" unicode="&#x4ba;" d="M484 212 q0 32 -6.5 55.5 q-6.5 23.5 -23 39 q-16.5 15.5 -44 23 q-27.5 7.5 -70.5 7.5 q-26 0 -54.5 -2 q-28.5 -2 -49.5 -6 l0 -329 l-156 0 l0 693 l156 0 l0 -231 q25 4 54.5 5.5 q29.5 1.5 60.5 1.5 q88 0 144.5 -18 q56.5 -18 88.5 -51.5 q32 -33.5 44 -81 q12 -47.5 12 -106.5 l0 -212 l-156 0 l0 212 Z" /><glyph glyph-name="uni04BC" unicode="&#x4bc;" d="M364 298 q5 -49 19.5 -83 q14.5 -34 39 -55 q24.5 -21 60.5 -30.5 q36 -9.5 85 -9.5 q30 0 56.5 5 q26.5 5 50 12 q23.5 7 42 14.5 q18.5 7.5 31.5 13.5 l40 -122 q-12 -7 -34 -17 q-22 -10 -52 -19 q-30 -9 -67 -15.5 q-37 -6.5 -77 -6.5 q-90 0 -155.5 25 q-65.5 25 -109 68.5 q-43.5 43.5 -66 103 q-22.5 59.5 -26.5 129.5 q-45 6 -80 17.5 q-35 11.5 -60 31 q-25 19.5 -38 49 q-13 29.5 -13 70.5 q0 17 3.5 39.5 q3.5 22.5 8.5 38.5 l118 -16 q-3 -14 -4 -25.5 q-1 -11.5 -1 -16.5 q0 -21 14 -38.5 q14 -17.5 58 -25.5 q11 68 39 119.5 q28 51.5 69.5 85.5 q41.5 34 94.5 51 q53 17 115 17 q69 0 125 -22 q56 -22 96 -65.5 q40 -43.5 62 -108.5 q22 -65 22 -151 q0 -11 -2.5 -31.5 q-2.5 -20.5 -4.5 -31.5 l-459 0 ZM668 426 q-6 71 -43 110.5 q-37 39.5 -101 39.5 q-38 0 -65.5 -12 q-27.5 -12 -46 -32.5 q-18.5 -20.5 -29 -47.5 q-10.5 -27 -14.5 -58 l299 0 Z" /><glyph glyph-name="uni04BD" unicode="&#x4bd;" d="M127 393 q0 -22 9 -37 q9 -15 40 -24 q10 52 34.5 91 q24.5 39 57.5 65 q33 26 72.5 39 q39.5 13 80.5 13 q112 0 177 -68.5 q65 -68.5 65 -201.5 q0 -13 -1 -28.5 q-1 -15.5 -2 -27.5 l-338 0 q5 -46 43 -73 q38 -27 102 -27 q41 0 80.5 7.5 q39.5 7.5 64.5 18.5 l20 -121 q-12 -6 -32 -12 q-20 -6 -44.5 -10.5 q-24.5 -4.5 -52.5 -7.5 q-28 -3 -56 -3 q-66 0 -116 18 q-50 18 -84.5 50.5 q-34.5 32.5 -53.5 76.5 q-19 44 -23 96 q-85 13 -122.5 51 q-37.5 38 -37.5 118 q0 12 2 27.5 q2 15.5 7 32.5 l113 -14 q-4 -14 -4.5 -29 q-0.5 -15 -0.5 -20 ZM519 316 q-1 19 -6.5 37 q-5.5 18 -17 32 q-11.5 14 -29 23 q-17.5 9 -43.5 9 q-25 0 -43 -8.5 q-18 -8.5 -30 -22.5 q-12 -14 -18.5 -32.5 q-6.5 -18.5 -9.5 -37.5 l197 0 Z" /><glyph glyph-name="uni04BE" unicode="&#x4be;" d="M364 298 q5 -49 19.5 -83 q14.5 -34 39 -55 q24.5 -21 60.5 -30.5 q36 -9.5 85 -9.5 q30 0 56.5 5 q26.5 5 50 12 q23.5 7 42 14.5 q18.5 7.5 31.5 13.5 l40 -122 q-11 -6 -29.5 -14.5 q-18.5 -8.5 -43 -17 q-24.5 -8.5 -55 -15 q-30.5 -6.5 -64.5 -9.5 l0 -172 l-150 0 l0 182 q-61 14 -105.5 43 q-44.5 29 -74.5 70 q-30 41 -46 92 q-16 51 -19 109 q-45 6 -80 17.5 q-35 11.5 -60 31 q-25 19.5 -38 49 q-13 29.5 -13 70.5 q0 17 3.5 39.5 q3.5 22.5 8.5 38.5 l118 -16 q-3 -14 -4 -25.5 q-1 -11.5 -1 -16.5 q0 -21 14 -38.5 q14 -17.5 58 -25.5 q11 68 39 119.5 q28 51.5 69.5 85.5 q41.5 34 94.5 51 q53 17 115 17 q69 0 125 -22 q56 -22 96 -65.5 q40 -43.5 62 -108.5 q22 -65 22 -151 q0 -11 -2.5 -31.5 q-2.5 -20.5 -4.5 -31.5 l-459 0 ZM668 426 q-6 71 -43 110.5 q-37 39.5 -101 39.5 q-38 0 -65.5 -12 q-27.5 -12 -46 -32.5 q-18.5 -20.5 -29 -47.5 q-10.5 -27 -14.5 -58 l299 0 Z" /><glyph glyph-name="uni04BF" unicode="&#x4bf;" d="M370 -7 q-95 20 -143.5 83 q-48.5 63 -56.5 151 q-85 13 -122.5 51 q-37.5 38 -37.5 118 q0 12 2 27.5 q2 15.5 7 32.5 l113 -14 q-4 -14 -4.5 -29 q-0.5 -15 -0.5 -20 q0 -22 9 -37 q9 -15 40 -24 q10 52 34.5 91 q24.5 39 57.5 65 q33 26 72.5 39 q39.5 13 80.5 13 q112 0 177 -68.5 q65 -68.5 65 -201.5 q0 -13 -1 -28.5 q-1 -15.5 -2 -27.5 l-338 0 q5 -46 43 -73 q38 -27 102 -27 q41 0 80.5 7.5 q39.5 7.5 64.5 18.5 l20 -121 q-18 -10 -55 -18 q-37 -8 -80 -12 l0 -139 l-127 0 l0 143 ZM519 316 q-1 19 -6.5 37 q-5.5 18 -17 32 q-11.5 14 -29 23 q-17.5 9 -43.5 9 q-25 0 -43 -8.5 q-18 -8.5 -30 -22.5 q-12 -14 -18.5 -32.5 q-6.5 -18.5 -9.5 -37.5 l197 0 Z" /><glyph glyph-name="uni04C3" unicode="&#x4c3;" d="M358 -185 q-25 0 -37.5 1 q-12.5 1 -25.5 3 l3 119 q8 -1 16.5 -2 q8.5 -1 26.5 -1 q39 0 68 14.5 q29 14.5 48.5 38.5 q19.5 24 29 55.5 q9.5 31.5 9.5 64.5 q0 49 -16.5 83 q-16.5 34 -44 55 q-27.5 21 -64.5 30.5 q-37 9.5 -77 9.5 q-30 0 -58 -3 l0 -283 l-156 0 l0 693 l156 0 l0 -282 l232 282 l185 0 q-56 -66 -119.5 -142 q-63.5 -76 -129.5 -146 q52 -11 96 -35.5 q44 -24.5 76 -61 q32 -36.5 50 -86.5 q18 -50 18 -112 q0 -63 -18.5 -116.5 q-18.5 -53.5 -54.5 -93.5 q-36 -40 -89.5 -62.5 q-53.5 -22.5 -123.5 -22.5 Z" /><glyph glyph-name="uni04C4" unicode="&#x4c4;" d="M219 0 l-149 0 l0 526 l149 0 l0 -211 q17 19 40 48.5 q23 29.5 46.5 60.5 q23.5 31 45 58.5 q21.5 27.5 34.5 43.5 l161 0 q-16 -19 -39 -47.5 q-23 -28.5 -48.5 -59 q-25.5 -30.5 -50.5 -60.5 q-25 -30 -44 -52 q79 -15 127 -74 q48 -59 48 -171 q0 -66 -17.5 -113 q-17.5 -47 -49 -77 q-31.5 -30 -74.5 -44 q-43 -14 -95 -14 q-28 0 -58 3 l8 112 q12 -1 24 -1.5 q12 -0.5 23 -0.5 q54 0 79 35.5 q25 35.5 25 96.5 q0 40 -10 68 q-10 28 -28 45.5 q-18 17.5 -42.5 25.5 q-24.5 8 -53.5 8 q-9 0 -24.5 -0.5 q-15.5 -0.5 -26.5 -1.5 l0 -204 Z" /><glyph glyph-name="uni04C5" unicode="&#x4c5;" d="M373 561 q-3 -67 -7.5 -134.5 q-4.5 -67.5 -16 -130.5 q-11.5 -63 -33 -118.5 q-21.5 -55.5 -59 -97 q-37.5 -41.5 -93.5 -66.5 q-56 -25 -137 -28 l-17 136 q72 8 111 36.5 q39 28.5 59 87.5 q25 73 35.5 189 q10.5 116 10.5 258 l473 0 l0 -561 l110 0 q2 -80 -31 -165.5 q-33 -85.5 -102 -155.5 l-101 64 q27 35 43.5 63.5 q16.5 28.5 27.5 61.5 l-103 0 l0 561 l-170 0 Z" /><glyph glyph-name="uni04C6" unicode="&#x4c6;" d="M306 404 q-1 -29 -2.5 -61.5 q-1.5 -32.5 -5.5 -65 q-4 -32.5 -10.5 -63.5 q-6.5 -31 -16.5 -58 q-12 -32 -30.5 -59.5 q-18.5 -27.5 -47 -49.5 q-28.5 -22 -69 -36.5 q-40.5 -14.5 -94.5 -19.5 l-20 124 q51 10 79 28.5 q28 18.5 42 47.5 q11 25 17.5 58 q6.5 33 9.5 69.5 q3 36.5 3.5 74.5 q0.5 38 0.5 73 l0 60 l395 0 l0 -404 l97 0 q1 -42 -8 -82.5 q-9 -40.5 -25.5 -78 q-16.5 -37.5 -40 -70 q-23.5 -32.5 -51.5 -57.5 l-92 58 q24 29 38.5 53 q14.5 24 24.5 55 l-92 0 l0 404 l-102 0 Z" /><glyph glyph-name="uni04C7" unicode="&#x4c7;" d="M498 693 l156 0 l0 -676 q0 -104 -46 -154 q-46 -50 -149 -50 q-14 0 -38.5 2.5 q-24.5 2.5 -48.5 10.5 l20 121 q15 -5 24.5 -6.5 q9.5 -1.5 28.5 -1.5 q31 0 42 21 q11 21 11 61 l0 273 l-262 0 l0 -294 l-156 0 l0 693 l156 0 l0 -265 l262 0 l0 265 Z" /><glyph glyph-name="uni04C8" unicode="&#x4c8;" d="M381 208 l-162 0 l0 -208 l-149 0 l0 526 l149 0 l0 -196 l162 0 l0 196 l149 0 l0 -513 q0 -102 -48.5 -150 q-48.5 -48 -139.5 -48 q-14 0 -39.5 2.5 q-25.5 2.5 -49.5 10.5 l20 121 q15 -5 25.5 -6.5 q10.5 -1.5 29.5 -1.5 q29 0 41 19 q12 19 12 57 l0 191 Z" /><glyph glyph-name="uni04C9" unicode="&#x4c9;" d="M498 693 l156 0 l0 -561 l111 0 q2 -80 -31 -165.5 q-33 -85.5 -102 -155.5 l-101 64 q27 35 43.5 63.5 q16.5 28.5 27.5 61.5 l-104 0 l0 294 l-262 0 l0 -294 l-156 0 l0 693 l156 0 l0 -265 l262 0 l0 265 Z" /><glyph glyph-name="uni04CA" unicode="&#x4ca;" d="M523 122 l83 0 q1 -42 -8 -82.5 q-9 -40.5 -25.5 -78 q-16.5 -37.5 -40 -70 q-23.5 -32.5 -51.5 -57.5 l-92 58 q24 29 38.5 53 q14.5 24 24.5 55 l-78 0 l0 208 l-155 0 l0 -208 l-149 0 l0 526 l149 0 l0 -196 l155 0 l0 196 l149 0 l0 -404 Z" /><glyph glyph-name="uni04CB" unicode="&#x4cb;" d="M196 489 q0 -41 10 -66.5 q10 -25.5 28.5 -40.5 q18.5 -15 44.5 -20.5 q26 -5.5 57 -5.5 q24 0 51.5 2 q27.5 2 56.5 6 l0 329 l156 0 l0 -693 l-127 0 l0 -185 l-150 0 l0 287 l121 0 l0 130 q-34 -4 -66 -6 q-32 -2 -61 -2 q-63 0 -114.5 11.5 q-51.5 11.5 -87.5 41 q-36 29.5 -55.5 79 q-19.5 49.5 -19.5 125.5 l0 212 l156 0 l0 -204 Z" /><glyph glyph-name="uni04CC" unicode="&#x4cc;" d="M194 526 l0 -147 q0 -38 24.5 -53 q24.5 -15 68.5 -15 q9 0 28 1.5 q19 1.5 34 3.5 l0 210 l149 0 l0 -526 l-120 0 l0 -145 l-127 0 l0 262 l98 0 l0 79 q-20 -3 -43.5 -5 q-23.5 -2 -35.5 -2 q-51 0 -92.5 9.5 q-41.5 9.5 -71 31 q-29.5 21.5 -45.5 58 q-16 36.5 -16 90.5 l0 148 l149 0 Z" /><glyph glyph-name="uni04CD" unicode="&#x4cd;" d="M264 693 q18 -33 41.5 -81.5 q23.5 -48.5 49 -105 q25.5 -56.5 50.5 -115.5 q25 -59 47 -111 q22 52 47 111 q25 59 50.5 115.5 q25.5 56.5 49 105 q23.5 48.5 41.5 81.5 l142 0 q8 -56 15 -123.5 q7 -67.5 13 -140.5 q6 -73 11 -148.5 q5 -75.5 9 -148.5 l111 0 q2 -80 -31 -165.5 q-33 -85.5 -102 -155.5 l-101 64 q27 35 43.5 63.5 q16.5 28.5 27.5 61.5 l-93 0 q-3 101 -8 220 q-5 119 -15 240 q-18 -42 -40 -93 q-22 -51 -43.5 -102 q-21.5 -51 -41.5 -97.5 q-20 -46.5 -34 -79.5 l-109 0 q-14 33 -34 79.5 q-20 46.5 -41.5 97.5 q-21.5 51 -43.5 102 q-22 51 -40 93 q-10 -121 -15 -240 q-5 -119 -8 -220 l-152 0 q4 82 9.5 175 q5.5 93 12 185.5 q6.5 92.5 15 178 q8.5 85.5 18.5 154.5 l149 0 Z" /><glyph glyph-name="uni04CE" unicode="&#x4ce;" d="M208 303 q-2 -35 -4 -76 q-2 -41 -3.5 -82.5 q-1.5 -41.5 -3 -79 q-1.5 -37.5 -2.5 -65.5 l-145 0 q2 55 6.5 124 q4.5 69 10 140.5 q5.5 71.5 12 139.5 q6.5 68 12.5 122 l124 0 q43 -70 79 -145 q36 -75 76 -165 q42 96 82 177.5 q40 81.5 72 132.5 l126 0 q5 -41 10 -90 q5 -49 9.5 -102 q4.5 -53 8.5 -107 q4 -54 7 -105 l98 0 q1 -42 -8 -82.5 q-9 -40.5 -25.5 -78 q-16.5 -37.5 -40 -70 q-23.5 -32.5 -51.5 -57.5 l-92 58 q24 29 38.5 53 q14.5 24 24.5 55 l-86 0 q-2 78 -5.5 155 q-3.5 77 -6.5 149 l-110 -242 l-103 0 l-110 241 Z" /><glyph glyph-name="uni04CF" unicode="&#x4cf;" d="M70 693 l149 0 l0 -693 l-149 0 l0 693 Z" /><glyph glyph-name="uni04E8" unicode="&#x4e8;" d="M740 347 q0 -89 -26.5 -156.5 q-26.5 -67.5 -72.5 -113 q-46 -45.5 -109.5 -68.5 q-63.5 -23 -136.5 -23 q-71 0 -134 23 q-63 23 -110 68.5 q-47 45.5 -74 113 q-27 67.5 -27 156.5 q0 89 28 156.5 q28 67.5 75.5 113.5 q47.5 46 110 69 q62.5 23 131.5 23 q71 0 134 -23 q63 -23 110 -69 q47 -46 74 -113.5 q27 -67.5 27 -156.5 ZM395 572 q-75 0 -121.5 -46.5 q-46.5 -46.5 -58.5 -124.5 l360 0 q-12 78 -58.5 124.5 q-46.5 46.5 -121.5 46.5 ZM395 123 q75 0 121 45 q46 45 58 123 l-359 0 q12 -78 58.5 -123 q46.5 -45 121.5 -45 Z" /><glyph glyph-name="uni04E9" unicode="&#x4e9;" d="M562 264 q0 -62 -18 -113.5 q-18 -51.5 -52 -88 q-34 -36.5 -81.5 -56.5 q-47.5 -20 -106.5 -20 q-63 0 -111.5 22 q-48.5 22 -81.5 60 q-33 38 -49.5 88.5 q-16.5 50.5 -16.5 107.5 q0 62 19.5 113 q19.5 51 54 87 q34.5 36 82 56 q47.5 20 103.5 20 q63 0 111 -22.5 q48 -22.5 80.5 -60.5 q32.5 -38 49.5 -88 q17 -50 17 -105 ZM304 106 q45 0 73.5 29.5 q28.5 29.5 36.5 83.5 l-221 0 q9 -51 37.5 -82 q28.5 -31 73.5 -31 ZM304 420 q-45 0 -74 -28.5 q-29 -28.5 -38 -82.5 l222 0 q-4 20 -12 40 q-8 20 -21 35.5 q-13 15.5 -32 25.5 q-19 10 -45 10 Z" /><glyph glyph-name="uni04F6" unicode="&#x4f6;" d="M211 0 l-131 0 l0 693 l473 0 l0 -132 l-317 0 l0 -429 l125 0 l0 -317 l-150 0 l0 185 Z" /><glyph glyph-name="uni04F7" unicode="&#x4f7;" d="M443 404 l-224 0 l0 -282 l98 0 l0 -267 l-127 0 l0 145 l-120 0 l0 526 l373 0 l0 -122 Z" /><glyph glyph-name="afii61352" unicode="&#x2116;" d="M525 0 q-67 120 -138.5 230.5 q-71.5 110.5 -152.5 213.5 l0 -444 l-154 0 l0 693 l127 0 q33 -33 71 -79.5 q38 -46.5 77 -99 q39 -52.5 76.5 -109.5 q37.5 -57 69.5 -111 l0 399 l155 0 l0 -693 l-131 0 ZM1101 518 q0 -43 -14.5 -78 q-14.5 -35 -40.5 -60 q-26 -25 -62 -38.5 q-36 -13.5 -78 -13.5 q-42 0 -78 13.5 q-36 13.5 -62 38.5 q-26 25 -40.5 60 q-14.5 35 -14.5 78 q0 43 14.5 78.5 q14.5 35.5 40.5 60 q26 24.5 62 38 q36 13.5 78 13.5 q42 0 78 -13.5 q36 -13.5 62 -38 q26 -24.5 40.5 -60 q14.5 -35.5 14.5 -78.5 ZM980 518 q0 38 -19.5 61 q-19.5 23 -55.5 23 q-35 0 -54 -23 q-19 -23 -19 -61 q0 -37 19 -60 q19 -23 54 -23 q36 0 55.5 23 q19.5 23 19.5 60 ZM736 245 l340 0 l0 -123 l-340 0 l0 123 Z" /><glyph glyph-name="uni20B4" unicode="&#x20b4;" d="M344 485 q5 13 5 28 q0 32 -24.5 49 q-24.5 17 -70.5 17 q-44 0 -73 -11 q-29 -11 -55 -25 l-45 118 q30 18 76.5 33 q46.5 15 110.5 15 q107 0 165.5 -55.5 q58.5 -55.5 58.5 -152.5 q0 -5 -0.5 -8.5 q-0.5 -3.5 -0.5 -7.5 l54 0 l0 -100 l-116 0 q-28 -23 -61.5 -42 q-33.5 -19 -64.5 -38 l242 0 l0 -100 l-338 0 q-1 -5 -1 -14 q0 -32 24.5 -54 q24.5 -22 82.5 -22 q59 0 96.5 14 q37.5 14 65.5 29 l44 -119 q-25 -16 -76 -34.5 q-51 -18.5 -134 -18.5 q-127 0 -186.5 54 q-59.5 54 -59.5 150 l0 15 l-40 0 l0 100 l87 0 q24 25 54.5 44 q30.5 19 61.5 36 l-203 0 l0 100 l321 0 Z" /><glyph glyph-name="uni20AE" unicode="&#x20ae;" d="M556 693 l0 -123 l-194 0 l0 -97 l81 38 l41 -87 l-122 -57 l0 -78 l81 38 l43 -91 l-124 -58 l0 -178 l-156 0 l0 105 l-73 -34 l-43 91 l116 54 l0 78 l-75 -35 l-41 87 l116 54 l0 170 l-194 0 l0 123 l544 0 Z" /><glyph glyph-name="Theta" unicode="&#x398;" d="M211 347 q0 -51 12.5 -92 q12.5 -41 36 -70.5 q23.5 -29.5 57.5 -45.5 q34 -16 78 -16 q43 0 77.5 16 q34.5 16 58 45.5 q23.5 29.5 36 70.5 q12.5 41 12.5 92 q0 51 -12.5 92.5 q-12.5 41.5 -36 71 q-23.5 29.5 -58 45.5 q-34.5 16 -77.5 16 q-44 0 -78 -16.5 q-34 -16.5 -57.5 -46 q-23.5 -29.5 -36 -71 q-12.5 -41.5 -12.5 -91.5 ZM740 347 q0 -89 -26.5 -156.5 q-26.5 -67.5 -72.5 -113 q-46 -45.5 -109.5 -68.5 q-63.5 -23 -136.5 -23 q-71 0 -134 23 q-63 23 -110 68.5 q-47 45.5 -74 113 q-27 67.5 -27 156.5 q0 89 28 156.5 q28 67.5 75.5 113.5 q47.5 46 110 69 q62.5 23 131.5 23 q71 0 134 -23 q63 -23 110 -69 q47 -46 74 -113.5 q27 -67.5 27 -156.5 ZM284 410 l223 0 l0 -124 l-223 0 l0 124 Z" /></font>
</defs>
</svg>
